<svg width="121" height="121" viewBox="0 0 121 121" fill="none" xmlns="http://www.w3.org/2000/svg">
<path d="M105.54 84.0758C107.269 83.264 104.233 81.3523 102.857 81.958C84.227 90.4629 59.6337 88.3905 51.2558 67.3447C61.9122 64.1511 71.8189 57.6589 78.0492 49.5439C82.922 43.1669 85.3681 33.7708 79.3393 27.2457C74.544 22.1211 66.4642 21.3616 59.9622 22.8334C42.487 26.7633 41.5813 49.6739 47.0318 65.2603C43.8561 66.0777 40.6929 66.5813 37.5144 66.6757C15.4709 67.6903 1.69942 45.5197 11.4871 26.135C12.2045 24.686 8.78946 23.608 7.97668 25.0847C-0.308533 41.4483 7.60204 61.5955 25.2525 67.5426C32.3564 69.9295 40.4334 69.9659 48.1755 68.1345C48.9472 70.0824 49.882 71.8796 50.98 73.5262C62.7187 92.253 87.3587 92.347 105.54 84.0758ZM50.0659 35.4242C52.3478 29.3849 57.1366 25.9279 63.4908 25.0161C70.0357 24.0489 77.1243 26.0266 78.9128 33.2641C81.4081 43.2957 72.0298 52.3235 64.6005 57.3735C60.2734 60.2829 55.3034 62.7583 50.2074 64.4428C47.4164 55.5311 46.7985 44.1278 50.0659 35.4242Z" fill="#093D54"/>
<path d="M114.711 77.9003C109.232 75.7662 103.9 73.0722 98.7997 70.1044C97.0493 69.0608 95.0918 70.8694 97.2114 72.1163C101.943 74.8808 106.782 77.3039 111.825 79.3578C107.247 84.6149 103.627 90.3183 100.705 96.6467C100.083 98.068 103.526 99.2414 104.216 97.697C107.178 91.1502 111.057 85.2684 115.892 79.833C116.68 78.984 115.299 78.1435 114.711 77.9003Z" fill="#093D54"/>
</svg>
