<svg width="224" height="50" viewBox="0 0 224 50" fill="none" xmlns="http://www.w3.org/2000/svg">
<path d="M46.2512 24.7127C46.229 24.6728 46.2002 24.6395 46.1713 24.6106L46.1647 24.604C46.1203 24.5596 46.067 24.5241 46.0115 24.4952C46.0004 24.4885 45.9827 24.4841 45.9671 24.4775C45.905 24.4553 45.8429 24.4375 45.7741 24.4375L4.21794 24.4397C4.14914 24.4397 4.087 24.4575 4.02486 24.4797C4.0071 24.4797 3.996 24.4908 3.98047 24.4974C3.92276 24.5263 3.86728 24.5596 3.82733 24.6062L3.82067 24.6128C3.79182 24.6461 3.76297 24.6816 3.74078 24.7149L0.0765701 30.9251C-0.0255234 31.096 -0.0255234 31.3112 0.0765701 31.4821C0.174226 31.653 0.360652 31.7596 0.560396 31.7596H3.67422V49.4417C3.67422 49.748 3.92502 49.9988 4.23129 49.9988L45.7738 49.9966C46.08 49.9966 46.3308 49.7458 46.3308 49.4395V31.7574H49.4447C49.6444 31.7574 49.8308 31.6486 49.9285 31.4799C50.0261 31.3046 50.0261 31.0937 49.9285 30.9228L46.2643 24.7127H46.2512ZM1.52588 30.6496L4.53761 25.5471H24.0239L21.0122 30.6496H1.52588ZM24.4388 48.8822H4.77522V31.7569H21.3321C21.5318 31.7569 21.7138 31.6548 21.8093 31.4839L24.4392 27.0229L24.4388 48.8822ZM45.2166 48.8822H25.553V27.0297L28.183 31.4908C28.2851 31.6617 28.467 31.7638 28.6601 31.7638H45.217V48.8891L45.2166 48.8822ZM28.9796 30.6496L25.9679 25.5471H45.4565L48.4682 30.6496H28.9796Z" fill="white"/>
<path d="M29.9985 41.1043H42.2208C42.5271 41.1043 42.7779 40.8535 42.7779 40.5472V36.104C42.7779 35.7977 42.5271 35.5469 42.2208 35.5469H29.9985C29.6922 35.5469 29.4414 35.7977 29.4414 36.104V40.5472C29.4414 40.8535 29.6922 41.1043 29.9985 41.1043ZM30.5555 36.661H41.6683V39.9968H30.5555V36.661Z" fill="white"/>
<path d="M32.4616 18.0166C36.5742 13.8974 36.5742 7.20371 32.4616 3.08446C28.3491 -1.02815 21.6489 -1.02815 17.5297 3.08446C13.4172 7.20371 13.4172 13.8974 17.5297 18.0166C19.5871 20.074 22.2903 21.1016 24.996 21.1016C27.7016 21.1016 30.404 20.074 32.4616 18.0166ZM18.3195 17.2332C14.6375 13.5511 14.6375 7.55661 18.3195 3.87427C20.1594 2.03436 22.5807 1.11329 25.0022 1.11329C27.4237 1.11329 29.8427 2.03436 31.685 3.87427C35.367 7.55632 35.367 13.5508 31.685 17.2332C28.003 20.9152 22.0086 20.9152 18.3263 17.2332H18.3195Z" fill="white"/>
<path d="M30.8297 6.84673C30.8297 6.3518 30.6366 5.88572 30.2837 5.53948L30.0063 5.26205C29.3072 4.55848 28.0799 4.55848 27.3874 5.26205L24.9949 7.65457L22.6024 5.26205C21.9033 4.55848 20.676 4.55848 19.9836 5.26205L19.7061 5.53948C19.3532 5.88571 19.1602 6.3518 19.1602 6.85116C19.1602 7.35053 19.3532 7.81217 19.7061 8.15842L22.0986 10.5509L19.7061 12.9435C19.3532 13.2897 19.1602 13.7558 19.1602 14.2507C19.1602 14.7456 19.3532 15.2117 19.7061 15.558L19.9836 15.8354C20.6827 16.539 21.91 16.539 22.6024 15.8354L24.9949 13.4429L27.3874 15.8354C27.7336 16.1883 28.1997 16.3814 28.6991 16.3814C29.1984 16.3814 29.6601 16.1883 30.0063 15.8354L30.2837 15.558C30.6366 15.2117 30.8297 14.7456 30.8297 14.2463C30.8297 13.7469 30.6366 13.2853 30.2837 12.939L27.8913 10.5465L30.2837 8.15399C30.6366 7.80775 30.8297 7.34167 30.8297 6.84673ZM29.5003 7.37052L26.7172 10.1537C26.5019 10.3689 26.5019 10.7218 26.7172 10.9371L29.507 13.727C29.6491 13.8623 29.7223 14.051 29.7223 14.2441C29.7223 14.4372 29.6424 14.6258 29.5004 14.7679L29.2163 15.052C28.9389 15.3294 28.4551 15.336 28.1776 15.052L25.3945 12.2688C25.2858 12.1601 25.1437 12.1046 25.0017 12.1046C24.8597 12.1046 24.7176 12.1623 24.6089 12.2688L21.8191 15.0587C21.5416 15.3361 21.0578 15.3428 20.7804 15.0587L20.4963 14.7746C20.3543 14.6392 20.281 14.4505 20.281 14.2575C20.281 14.0644 20.3609 13.8757 20.503 13.7337L23.2861 10.9505C23.5013 10.7352 23.5013 10.3824 23.2861 10.1671L20.4963 7.37723C20.3542 7.24185 20.281 7.05319 20.281 6.8601C20.281 6.66701 20.3609 6.47836 20.5029 6.33631L20.787 6.05223C21.0644 5.7748 21.5482 5.76814 21.8257 6.05223L24.6088 8.83537C24.824 9.05065 25.1769 9.05065 25.3922 8.83537L28.182 6.04552C28.4594 5.76809 28.9432 5.76144 29.2207 6.04552L29.5047 6.32961C29.6468 6.46499 29.72 6.65364 29.72 6.84674C29.72 7.03983 29.6401 7.22848 29.4981 7.37053L29.5003 7.37052Z" fill="white"/>
<path d="M71.6279 34.2148C70.5465 34.2148 69.526 34.0107 68.5664 33.6025C67.6068 33.1943 66.7832 32.6393 66.0957 31.9375C65.4154 31.2357 64.8747 30.3942 64.4736 29.4131C64.0798 28.432 63.8828 27.3864 63.8828 26.2764C63.8828 25.1735 64.0798 24.1351 64.4736 23.1611C64.8747 22.18 65.4154 21.3421 66.0957 20.6475C66.7832 19.9456 67.6068 19.3942 68.5664 18.9932C69.526 18.585 70.5465 18.3809 71.6279 18.3809C72.7952 18.3809 73.8945 18.6136 74.9258 19.0791C75.9642 19.5446 76.8236 20.1963 77.5039 21.0342C78.1914 21.8649 78.6139 22.7995 78.7715 23.8379H75.9355C75.6849 22.9642 75.1621 22.2552 74.3672 21.7109C73.5723 21.1595 72.6592 20.8838 71.6279 20.8838C70.1885 20.8838 68.9818 21.3994 68.0078 22.4307C67.0339 23.4619 66.5469 24.7438 66.5469 26.2764C66.5469 27.8161 67.0339 29.1087 68.0078 30.1543C68.9818 31.1927 70.1885 31.7119 71.6279 31.7119C72.6735 31.7119 73.5973 31.4219 74.3994 30.8418C75.2087 30.2546 75.7279 29.4954 75.957 28.5645H78.8252C78.5173 30.2331 77.6937 31.5938 76.3545 32.6465C75.0225 33.6921 73.4469 34.2148 71.6279 34.2148ZM89.3525 23.2471H91.8232V34H89.3525V32.1094C88.9587 32.7897 88.4395 33.3125 87.7949 33.6777C87.1504 34.0358 86.402 34.2148 85.5498 34.2148C84.6117 34.2148 83.7487 33.9678 82.9609 33.4736C82.1732 32.9723 81.5501 32.292 81.0918 31.4326C80.6335 30.5661 80.4043 29.6243 80.4043 28.6074C80.4043 27.5905 80.6335 26.6523 81.0918 25.793C81.5501 24.9336 82.1732 24.2568 82.9609 23.7627C83.7487 23.2686 84.6117 23.0215 85.5498 23.0215C86.402 23.0215 87.1504 23.2041 87.7949 23.5693C88.4395 23.9346 88.9587 24.4574 89.3525 25.1377V23.2471ZM86.0762 31.8838C87.0072 31.8838 87.7842 31.5723 88.4072 30.9492C89.0374 30.319 89.3525 29.5384 89.3525 28.6074C89.3525 27.6836 89.0374 26.9102 88.4072 26.2871C87.7842 25.6641 87.0072 25.3525 86.0762 25.3525C85.1667 25.3525 84.3968 25.6712 83.7666 26.3086C83.1364 26.9388 82.8213 27.7051 82.8213 28.6074C82.8213 29.5241 83.1364 30.3011 83.7666 30.9385C84.3968 31.5687 85.1667 31.8838 86.0762 31.8838ZM100.116 23.0215C101.491 23.0215 102.58 23.4548 103.382 24.3213C104.184 25.1878 104.585 26.3695 104.585 27.8662V34H102.125V28.167C102.125 27.3219 101.885 26.6452 101.405 26.1367C100.933 25.6283 100.306 25.374 99.5254 25.374C98.7161 25.374 98.068 25.6283 97.5811 26.1367C97.1012 26.6452 96.8613 27.3219 96.8613 28.167V34H94.4229V23.2471H96.8613V24.9336C97.2051 24.3249 97.6562 23.8558 98.2148 23.5264C98.7734 23.1898 99.4072 23.0215 100.116 23.0215ZM112.18 34.2148C110.604 34.2148 109.283 33.6813 108.216 32.6143C107.149 31.5472 106.615 30.2188 106.615 28.6289C106.615 27.0391 107.149 25.707 108.216 24.6328C109.283 23.5586 110.604 23.0215 112.18 23.0215C113.032 23.0215 113.83 23.1969 114.575 23.5479C115.327 23.8988 115.947 24.3857 116.434 25.0088C116.921 25.6318 117.218 26.3265 117.325 27.0928H114.822C114.686 26.5986 114.371 26.1904 113.877 25.8682C113.383 25.5387 112.817 25.374 112.18 25.374C111.285 25.374 110.536 25.6855 109.935 26.3086C109.333 26.9316 109.032 27.7051 109.032 28.6289C109.032 29.5456 109.333 30.3154 109.935 30.9385C110.543 31.5544 111.292 31.8623 112.18 31.8623C112.824 31.8623 113.394 31.694 113.888 31.3574C114.389 31.0208 114.708 30.5876 114.844 30.0576H117.347C117.203 31.2679 116.638 32.2633 115.649 33.0439C114.661 33.8245 113.505 34.2148 112.18 34.2148ZM129.421 28.3926C129.421 28.8867 129.399 29.2305 129.356 29.4238H121.106C121.264 30.2259 121.615 30.8561 122.159 31.3145C122.703 31.7728 123.402 32.002 124.254 32.002C124.913 32.002 125.479 31.8587 125.951 31.5723C126.431 31.2858 126.725 30.9134 126.832 30.4551H129.292C129.091 31.5866 128.526 32.4961 127.595 33.1836C126.664 33.8711 125.536 34.2148 124.211 34.2148C123.173 34.2148 122.227 33.9714 121.375 33.4844C120.523 32.9902 119.85 32.3099 119.355 31.4434C118.868 30.5768 118.625 29.6172 118.625 28.5645C118.625 27.5404 118.868 26.6058 119.355 25.7607C119.85 24.9085 120.519 24.2389 121.364 23.752C122.216 23.265 123.151 23.0215 124.168 23.0215C125.128 23.0215 126.005 23.2471 126.8 23.6982C127.602 24.1494 128.239 24.7904 128.712 25.6211C129.185 26.4447 129.421 27.3685 129.421 28.3926ZM121.171 27.3291H126.757C126.649 26.7061 126.349 26.2048 125.854 25.8252C125.368 25.4385 124.759 25.2451 124.028 25.2451C123.305 25.2451 122.693 25.4277 122.191 25.793C121.69 26.1582 121.35 26.6702 121.171 27.3291ZM133.771 18.5957V34H131.333V18.5957H133.771ZM151.732 34L150.54 30.917H144.03L142.816 34H140.088L146.232 18.5957H148.392L154.525 34H151.732ZM144.976 28.457H149.573L147.285 22.5596L144.976 28.457ZM161.712 23.0215C163.087 23.0215 164.175 23.4548 164.978 24.3213C165.78 25.1878 166.181 26.3695 166.181 27.8662V34H163.721V28.167C163.721 27.3219 163.481 26.6452 163.001 26.1367C162.528 25.6283 161.902 25.374 161.121 25.374C160.312 25.374 159.664 25.6283 159.177 26.1367C158.697 26.6452 158.457 27.3219 158.457 28.167V34H156.019V23.2471H158.457V24.9336C158.801 24.3249 159.252 23.8558 159.811 23.5264C160.369 23.1898 161.003 23.0215 161.712 23.0215ZM175.44 23.2471H178.083L172.003 37.7812H169.371L171.305 33.4307L167.04 23.2471H169.672L172.562 30.5732L175.44 23.2471ZM185.946 25.5781H183.121V29.9072C183.121 30.5589 183.3 31.0423 183.658 31.3574C184.023 31.6654 184.521 31.8193 185.151 31.8193C185.459 31.8193 185.724 31.7907 185.946 31.7334V34C185.567 34.0859 185.126 34.1289 184.625 34.1289C183.415 34.1289 182.451 33.7673 181.735 33.0439C181.019 32.3206 180.661 31.2894 180.661 29.9502V25.5781H178.62V23.2471H180.661V20.3574H183.121V23.2471H185.946V25.5781ZM188.009 18.7139C188.317 18.4059 188.686 18.252 189.115 18.252C189.545 18.252 189.914 18.4059 190.222 18.7139C190.537 19.0218 190.694 19.387 190.694 19.8096C190.694 20.2464 190.537 20.6188 190.222 20.9268C189.914 21.2347 189.545 21.3887 189.115 21.3887C188.686 21.3887 188.317 21.2347 188.009 20.9268C187.701 20.6188 187.547 20.2464 187.547 19.8096C187.547 19.387 187.701 19.0218 188.009 18.7139ZM187.88 23.2471H190.318V34H187.88V23.2471ZM205.379 23.0215C206.689 23.0215 207.749 23.4225 208.559 24.2246C209.375 25.0195 209.783 26.0866 209.783 27.4258V34H207.291V27.9736C207.291 27.1644 207.083 26.5306 206.668 26.0723C206.253 25.6068 205.683 25.374 204.96 25.374C204.294 25.374 203.728 25.5924 203.263 26.0293C202.797 26.4661 202.564 27.1143 202.564 27.9736V34H200.104V27.9736C200.104 27.1644 199.893 26.5306 199.471 26.0723C199.048 25.6068 198.472 25.374 197.741 25.374C197.082 25.374 196.517 25.5924 196.044 26.0293C195.578 26.4661 195.346 27.1143 195.346 27.9736V34H192.907V23.2471H195.346V24.7617C195.711 24.153 196.187 23.7126 196.774 23.4404C197.369 23.1611 197.985 23.0215 198.622 23.0215C200.205 23.0215 201.315 23.6517 201.952 24.9121C202.253 24.332 202.715 23.8737 203.338 23.5371C203.961 23.1934 204.641 23.0215 205.379 23.0215ZM222.599 28.3926C222.599 28.8867 222.577 29.2305 222.534 29.4238H214.284C214.442 30.2259 214.793 30.8561 215.337 31.3145C215.881 31.7728 216.579 32.002 217.432 32.002C218.09 32.002 218.656 31.8587 219.129 31.5723C219.609 31.2858 219.902 30.9134 220.01 30.4551H222.47C222.269 31.5866 221.703 32.4961 220.772 33.1836C219.841 33.8711 218.714 34.2148 217.389 34.2148C216.35 34.2148 215.405 33.9714 214.553 33.4844C213.701 32.9902 213.027 32.3099 212.533 31.4434C212.046 30.5768 211.803 29.6172 211.803 28.5645C211.803 27.5404 212.046 26.6058 212.533 25.7607C213.027 24.9085 213.697 24.2389 214.542 23.752C215.394 23.265 216.329 23.0215 217.346 23.0215C218.305 23.0215 219.183 23.2471 219.978 23.6982C220.78 24.1494 221.417 24.7904 221.89 25.6211C222.362 26.4447 222.599 27.3685 222.599 28.3926ZM214.349 27.3291H219.935C219.827 26.7061 219.526 26.2048 219.032 25.8252C218.545 25.4385 217.937 25.2451 217.206 25.2451C216.483 25.2451 215.87 25.4277 215.369 25.793C214.868 26.1582 214.528 26.6702 214.349 27.3291Z" fill="white"/>
</svg>
