<svg width="8" height="14" viewBox="0 0 8 14" fill="none" xmlns="http://www.w3.org/2000/svg">
<path d="M0.00284307 7.00625C0.0166189 7.14889 0.080372 7.28391 0.184917 7.39188L6.19885 13.6465C6.26247 13.7169 6.34118 13.7751 6.43032 13.8176C6.51946 13.8601 6.61719 13.886 6.71769 13.8938C6.8182 13.9016 6.91942 13.8911 7.01534 13.863C7.11125 13.8349 7.19988 13.7897 7.27597 13.7301C7.35206 13.6705 7.41405 13.5978 7.45823 13.5162C7.50241 13.4347 7.5279 13.3459 7.53316 13.2553C7.53842 13.1647 7.52334 13.0741 7.48885 12.9888C7.45435 12.9035 7.40113 12.8254 7.33235 12.759L1.74713 6.94814L7.33235 1.13729C7.40113 1.07091 7.45435 0.992758 7.48885 0.907492C7.52334 0.822225 7.53842 0.731587 7.53316 0.640973C7.5279 0.55036 7.50241 0.461626 7.45823 0.380055C7.41405 0.298484 7.35206 0.225746 7.27597 0.166172C7.19988 0.106597 7.11125 0.0614054 7.01534 0.0332879C6.91942 0.00517027 6.8182 -0.00529797 6.7177 0.00250636C6.61719 0.0103107 6.51946 0.036228 6.43032 0.0787149C6.34119 0.121202 6.26247 0.179389 6.19885 0.249812L0.184917 6.5044C0.118707 6.5728 0.0684654 6.65247 0.0371863 6.73869C0.00590771 6.8249 -0.00577146 6.9159 0.00284307 7.00625Z" fill="white"/>
</svg>
