<svg width="201" height="50" viewBox="0 0 201 50" fill="none" xmlns="http://www.w3.org/2000/svg">
<path d="M51.8701 18.5957H60.958V21.0664H54.4482V24.6973H60.249V27.1572H54.4482V31.54H60.958V34H51.8701V18.5957ZM73.1289 34H70.1855L67.7041 30.5195L65.2334 34H62.3115L66.2432 28.457L62.5264 23.2471H65.502L67.7256 26.3838L69.96 23.2471H72.8711L69.1973 28.4355L73.1289 34ZM78.8867 34.2148C77.3112 34.2148 75.9899 33.6813 74.9229 32.6143C73.8558 31.5472 73.3223 30.2188 73.3223 28.6289C73.3223 27.0391 73.8558 25.707 74.9229 24.6328C75.9899 23.5586 77.3112 23.0215 78.8867 23.0215C79.7389 23.0215 80.5374 23.1969 81.2822 23.5479C82.0342 23.8988 82.6536 24.3857 83.1406 25.0088C83.6276 25.6318 83.9248 26.3265 84.0322 27.0928H81.5293C81.3932 26.5986 81.0781 26.1904 80.584 25.8682C80.0898 25.5387 79.5241 25.374 78.8867 25.374C77.9915 25.374 77.2432 25.6855 76.6416 26.3086C76.04 26.9316 75.7393 27.7051 75.7393 28.6289C75.7393 29.5456 76.04 30.3154 76.6416 30.9385C77.2503 31.5544 77.9987 31.8623 78.8867 31.8623C79.5312 31.8623 80.1006 31.694 80.5947 31.3574C81.096 31.0208 81.4147 30.5876 81.5508 30.0576H84.0537C83.9105 31.2679 83.3447 32.2633 82.3564 33.0439C81.3682 33.8245 80.2116 34.2148 78.8867 34.2148ZM88.3828 18.5957V34H85.9443V18.5957H88.3828ZM98.6738 23.2471H101.134V34H98.6738V32.3027C98.3301 32.9186 97.8825 33.3913 97.3311 33.7207C96.7796 34.0501 96.1494 34.2148 95.4404 34.2148C94.0511 34.2148 92.959 33.7852 92.1641 32.9258C91.3691 32.0592 90.9717 30.8704 90.9717 29.3594V23.2471H93.4102V29.0693C93.4102 29.9144 93.6501 30.5911 94.1299 31.0996C94.6097 31.6081 95.2435 31.8623 96.0312 31.8623C96.8262 31.8623 97.4635 31.6081 97.9434 31.0996C98.4303 30.5911 98.6738 29.9144 98.6738 29.0693V23.2471ZM107.719 34.2148C106.387 34.2148 105.295 33.889 104.442 33.2373C103.59 32.5856 103.11 31.6868 103.003 30.541H105.355C105.398 31.0065 105.628 31.3861 106.043 31.6797C106.458 31.9661 106.97 32.1094 107.579 32.1094C108.166 32.1094 108.628 31.9948 108.965 31.7656C109.301 31.5365 109.47 31.2321 109.47 30.8525C109.47 30.5446 109.355 30.2939 109.126 30.1006C108.897 29.9001 108.6 29.7533 108.234 29.6602C107.869 29.5599 107.465 29.4704 107.021 29.3916C106.584 29.3128 106.143 29.2126 105.699 29.0908C105.255 28.9691 104.851 28.8115 104.485 28.6182C104.12 28.4176 103.823 28.124 103.594 27.7373C103.365 27.3434 103.25 26.8708 103.25 26.3193C103.25 25.3669 103.619 24.5791 104.356 23.9561C105.101 23.333 106.09 23.0215 107.321 23.0215C108.481 23.0215 109.473 23.3187 110.297 23.9131C111.12 24.5075 111.593 25.3311 111.715 26.3838H109.255C109.198 26.0042 108.99 25.6927 108.632 25.4492C108.274 25.1986 107.823 25.0732 107.278 25.0732C106.791 25.0732 106.394 25.1735 106.086 25.374C105.778 25.5674 105.624 25.8324 105.624 26.1689C105.624 26.4268 105.714 26.6416 105.893 26.8135C106.072 26.9854 106.308 27.1107 106.602 27.1895C106.895 27.2611 107.228 27.3363 107.601 27.415C107.973 27.4938 108.356 27.5654 108.75 27.6299C109.144 27.6943 109.527 27.8053 109.899 27.9629C110.272 28.1133 110.605 28.2959 110.898 28.5107C111.192 28.7256 111.428 29.0335 111.607 29.4346C111.786 29.8285 111.876 30.2939 111.876 30.8311C111.876 31.7979 111.479 32.6035 110.684 33.248C109.896 33.8926 108.908 34.2148 107.719 34.2148ZM114.024 18.7139C114.332 18.4059 114.701 18.252 115.131 18.252C115.561 18.252 115.929 18.4059 116.237 18.7139C116.552 19.0218 116.71 19.387 116.71 19.8096C116.71 20.2464 116.552 20.6188 116.237 20.9268C115.929 21.2347 115.561 21.3887 115.131 21.3887C114.701 21.3887 114.332 21.2347 114.024 20.9268C113.716 20.6188 113.562 20.2464 113.562 19.8096C113.562 19.387 113.716 19.0218 114.024 18.7139ZM113.896 23.2471H116.334V34H113.896V23.2471ZM129.021 23.2471L124.509 34H122.393L117.892 23.2471H120.545L123.456 30.7236L126.335 23.2471H129.021ZM140.3 28.3926C140.3 28.8867 140.278 29.2305 140.235 29.4238H131.985C132.143 30.2259 132.494 30.8561 133.038 31.3145C133.582 31.7728 134.281 32.002 135.133 32.002C135.792 32.002 136.357 31.8587 136.83 31.5723C137.31 31.2858 137.604 30.9134 137.711 30.4551H140.171C139.97 31.5866 139.405 32.4961 138.474 33.1836C137.543 33.8711 136.415 34.2148 135.09 34.2148C134.051 34.2148 133.106 33.9714 132.254 33.4844C131.402 32.9902 130.729 32.3099 130.234 31.4434C129.747 30.5768 129.504 29.6172 129.504 28.5645C129.504 27.5404 129.747 26.6058 130.234 25.7607C130.729 24.9085 131.398 24.2389 132.243 23.752C133.095 23.265 134.03 23.0215 135.047 23.0215C136.007 23.0215 136.884 23.2471 137.679 23.6982C138.481 24.1494 139.118 24.7904 139.591 25.6211C140.063 26.4447 140.3 27.3685 140.3 28.3926ZM132.05 27.3291H137.636C137.528 26.7061 137.228 26.2048 136.733 25.8252C136.246 25.4385 135.638 25.2451 134.907 25.2451C134.184 25.2451 133.572 25.4277 133.07 25.793C132.569 26.1582 132.229 26.6702 132.05 27.3291ZM153.18 18.5957C154.598 18.5957 155.772 19.0433 156.703 19.9385C157.641 20.8337 158.11 21.958 158.11 23.3115C158.11 24.6865 157.641 25.8216 156.703 26.7168C155.772 27.612 154.598 28.0596 153.18 28.0596H149.86V34H147.282V18.5957H153.18ZM153.18 25.5996C153.846 25.5996 154.401 25.3812 154.845 24.9443C155.289 24.5075 155.511 23.9632 155.511 23.3115C155.511 22.6742 155.289 22.1406 154.845 21.7109C154.401 21.2812 153.846 21.0664 153.18 21.0664H149.86V25.5996H153.18ZM169.476 28.3926C169.476 28.8867 169.454 29.2305 169.411 29.4238H161.161C161.319 30.2259 161.67 30.8561 162.214 31.3145C162.758 31.7728 163.456 32.002 164.309 32.002C164.967 32.002 165.533 31.8587 166.006 31.5723C166.486 31.2858 166.779 30.9134 166.887 30.4551H169.347C169.146 31.5866 168.58 32.4961 167.649 33.1836C166.718 33.8711 165.59 34.2148 164.266 34.2148C163.227 34.2148 162.282 33.9714 161.43 33.4844C160.577 32.9902 159.904 32.3099 159.41 31.4434C158.923 30.5768 158.68 29.6172 158.68 28.5645C158.68 27.5404 158.923 26.6058 159.41 25.7607C159.904 24.9085 160.574 24.2389 161.419 23.752C162.271 23.265 163.206 23.0215 164.223 23.0215C165.182 23.0215 166.06 23.2471 166.854 23.6982C167.657 24.1494 168.294 24.7904 168.767 25.6211C169.239 26.4447 169.476 27.3685 169.476 28.3926ZM161.226 27.3291H166.812C166.704 26.7061 166.403 26.2048 165.909 25.8252C165.422 25.4385 164.813 25.2451 164.083 25.2451C163.36 25.2451 162.747 25.4277 162.246 25.793C161.745 26.1582 161.405 26.6702 161.226 27.3291ZM176.855 23.0215C177.092 23.0215 177.432 23.0645 177.876 23.1504V25.3955C177.461 25.2952 177.099 25.2451 176.791 25.2451C175.982 25.2451 175.305 25.5137 174.761 26.0508C174.224 26.5879 173.955 27.3219 173.955 28.2529V34H171.517V23.2471H173.955V24.6758C174.635 23.5729 175.602 23.0215 176.855 23.0215ZM189.757 34H186.588L182.012 28.9189V34H179.573V18.5957H182.012V27.8877L186.373 23.2471H189.424L184.482 28.4141L189.757 34ZM195.031 34.2148C193.699 34.2148 192.607 33.889 191.755 33.2373C190.903 32.5856 190.423 31.6868 190.315 30.541H192.668C192.711 31.0065 192.94 31.3861 193.355 31.6797C193.771 31.9661 194.283 32.1094 194.892 32.1094C195.479 32.1094 195.941 31.9948 196.277 31.7656C196.614 31.5365 196.782 31.2321 196.782 30.8525C196.782 30.5446 196.668 30.2939 196.438 30.1006C196.209 29.9001 195.912 29.7533 195.547 29.6602C195.182 29.5599 194.777 29.4704 194.333 29.3916C193.896 29.3128 193.456 29.2126 193.012 29.0908C192.568 28.9691 192.163 28.8115 191.798 28.6182C191.433 28.4176 191.135 28.124 190.906 27.7373C190.677 27.3434 190.562 26.8708 190.562 26.3193C190.562 25.3669 190.931 24.5791 191.669 23.9561C192.414 23.333 193.402 23.0215 194.634 23.0215C195.794 23.0215 196.786 23.3187 197.609 23.9131C198.433 24.5075 198.906 25.3311 199.027 26.3838H196.567C196.51 26.0042 196.302 25.6927 195.944 25.4492C195.586 25.1986 195.135 25.0732 194.591 25.0732C194.104 25.0732 193.706 25.1735 193.398 25.374C193.09 25.5674 192.937 25.8324 192.937 26.1689C192.937 26.4268 193.026 26.6416 193.205 26.8135C193.384 26.9854 193.62 27.1107 193.914 27.1895C194.208 27.2611 194.541 27.3363 194.913 27.415C195.285 27.4938 195.669 27.5654 196.062 27.6299C196.456 27.6943 196.84 27.8053 197.212 27.9629C197.584 28.1133 197.917 28.2959 198.211 28.5107C198.505 28.7256 198.741 29.0335 198.92 29.4346C199.099 29.8285 199.188 30.2939 199.188 30.8311C199.188 31.7979 198.791 32.6035 197.996 33.248C197.208 33.8926 196.22 34.2148 195.031 34.2148Z" fill="white"/>
<path d="M20.2034 0.538495L20.7664 0.993561C20.9506 1.14172 21.158 1.23908 21.3697 1.27719C21.5834 1.3174 21.8099 1.29835 22.0364 1.22216L22.9508 0.913134C23.4799 0.735343 24.0281 0.745925 24.5191 0.915251C25.0123 1.0867 25.4505 1.419 25.7531 1.88467L26.1489 2.49214C26.278 2.6911 26.4452 2.8456 26.6357 2.94932C26.8262 3.05092 27.0484 3.10383 27.2855 3.10171L28.2506 3.09113C28.8094 3.08478 29.328 3.26258 29.7428 3.57583C30.1598 3.8912 30.471 4.34417 30.6149 4.88179L30.8033 5.58028C30.8646 5.81099 30.9747 6.00995 31.1229 6.16445C31.271 6.31896 31.4657 6.43749 31.6943 6.50946L32.6172 6.79731C33.1505 6.96452 33.5887 7.29471 33.8871 7.72225C34.1835 8.1498 34.3401 8.6747 34.3126 9.2314L34.2766 9.95314C34.2639 10.1923 34.3083 10.4167 34.4036 10.6114C34.4988 10.8061 34.6449 10.9797 34.8375 11.1151L35.627 11.6739C36.082 11.9977 36.3974 12.4464 36.5477 12.9439C36.6979 13.4413 36.6853 13.9895 36.4863 14.5101L36.2281 15.1874C36.1434 15.4097 36.1159 15.6361 36.1434 15.85C36.173 16.0637 36.2619 16.2754 36.4037 16.4659L36.9795 17.2405C37.3118 17.685 37.4726 18.21 37.462 18.7306C37.4515 19.2534 37.2715 19.772 36.9223 20.2038L36.4672 20.7668C36.3191 20.951 36.2217 21.1584 36.1836 21.3701C36.1434 21.5838 36.1625 21.8103 36.2387 22.0368L36.5477 22.9533C36.7255 23.4803 36.717 24.0264 36.5456 24.5196C36.3741 25.0127 36.0418 25.4509 35.5761 25.7535L34.9687 26.1493C34.7697 26.2784 34.6152 26.4456 34.5115 26.6361C34.4099 26.8266 34.357 27.0489 34.3591 27.2859L34.3697 28.2511C34.376 28.8098 34.1982 29.3284 33.885 29.7432C33.5654 30.1602 33.1166 30.4714 32.579 30.6153L31.8805 30.8037C31.6498 30.8651 31.4509 30.9751 31.2964 31.1233C31.1418 31.2714 31.0212 31.4662 30.9514 31.6948L30.9344 31.754L37.3309 42.9361C37.4791 43.1944 37.3902 43.5266 37.1299 43.6748C37.0579 43.715 36.9817 43.7383 36.9055 43.7447L30.2381 44.3162L26.3668 49.7726C26.1933 50.016 25.8567 50.0731 25.6133 49.8996C25.5477 49.853 25.4948 49.7937 25.4588 49.7281L18.7513 38.0042L11.9527 49.6729C11.9146 49.7385 11.8596 49.7977 11.794 49.8443C11.5506 50.0136 11.2119 49.9544 11.0426 49.711L7.21371 44.2226L0.573914 43.6003C0.48925 43.5961 0.406704 43.5728 0.328391 43.5284C0.0701682 43.3802 -0.0187269 43.0479 0.131549 42.7897L6.59579 31.6964C6.53229 31.5419 6.44551 31.4086 6.33756 31.2964C6.1894 31.1419 5.99468 31.0212 5.76608 30.9514L4.84537 30.6635C4.31411 30.4984 3.87384 30.1682 3.57539 29.7407C3.27906 29.3132 3.12244 28.7883 3.14995 28.2316L3.18593 27.5098C3.19863 27.2706 3.15419 27.0463 3.05894 26.8516C2.96369 26.6547 2.81553 26.4833 2.62504 26.3457L1.83768 25.7891C1.38049 25.4652 1.06511 25.0186 0.914857 24.5191C0.764581 24.0217 0.777277 23.4735 0.976238 22.9528L1.23446 22.2755C1.31912 22.0533 1.34664 21.8268 1.31912 21.613C1.28949 21.3971 1.2006 21.1876 1.05878 20.9971L0.483071 20.2224C0.150766 19.7779 -0.0100973 19.253 0.000490369 18.7323C0.0110732 18.2095 0.190982 17.691 0.540219 17.2592L0.995284 16.6961C1.14345 16.512 1.24081 16.3046 1.27891 16.0929C1.31912 15.8791 1.30007 15.6526 1.22388 15.4261L0.914857 14.5118C0.737061 13.9826 0.747649 13.4344 0.916974 12.9434C1.08842 12.4502 1.42072 12.0121 1.88639 11.7094L2.49386 11.3136C2.69493 11.1824 2.84945 11.0173 2.95104 10.8268C3.05264 10.6342 3.10556 10.412 3.10344 10.1749L3.09285 9.20979C3.0865 8.65104 3.2643 8.13243 3.57755 7.7176C3.89292 7.30063 4.34589 6.98946 4.88351 6.84555L5.58201 6.65717C5.81272 6.59579 6.01168 6.48572 6.16617 6.33756C6.32067 6.18941 6.43922 5.99468 6.51118 5.76608L6.79904 4.84537C6.96624 4.31199 7.29643 3.87384 7.72397 3.57539C8.15152 3.27906 8.67643 3.12244 9.23312 3.14995L9.95486 3.18593C10.194 3.19863 10.4184 3.15419 10.6131 3.05894C10.8078 2.96369 10.9814 2.81553 11.1168 2.62504L11.6756 1.83556C11.9994 1.3805 12.4461 1.06511 12.9456 0.914858C13.443 0.764582 13.9912 0.777277 14.5118 0.976238L15.1892 1.23446C15.4114 1.31912 15.6379 1.34664 15.8517 1.31701C16.0654 1.28737 16.2771 1.2006 16.4676 1.05878L17.2423 0.48307C17.6868 0.150766 18.2117 -0.0100973 18.7324 0.00049037C19.2551 0.0110732 19.7737 0.190982 20.2055 0.540219L20.2034 0.538495ZM26.2423 14.1757C26.763 14.1757 27.2349 14.3874 27.5757 14.7281C27.9165 15.0689 28.1281 15.5409 28.1281 16.0616C28.1281 16.5822 27.9165 17.0542 27.5757 17.395C27.2349 17.7358 26.7629 17.9474 26.2423 17.9474C26.1576 17.9474 26.0751 17.9411 25.9946 17.9305L23.5669 23.3256V25.3491C23.5669 25.6476 23.3235 25.891 23.025 25.891H14.4378C14.1394 25.891 13.896 25.6476 13.896 25.3491V23.3256L11.4682 17.9305C11.3878 17.9411 11.3053 17.9474 11.2206 17.9474C10.6999 17.9474 10.2279 17.7357 9.88717 17.395C9.5464 17.0542 9.33476 16.5822 9.33476 16.0616C9.33476 15.5409 9.54641 15.0689 9.88717 14.7281C10.2279 14.3874 10.6999 14.1757 11.2206 14.1757C11.7413 14.1757 12.2133 14.3874 12.554 14.7281C12.8948 15.0689 13.1064 15.5409 13.1064 16.0616C13.1064 16.2859 13.0683 16.4997 12.9964 16.6965L15.8369 18.7878L17.5598 14.4763C17.5026 14.4318 17.4476 14.3831 17.3968 14.3323C17.056 13.9916 16.8444 13.5196 16.8444 12.9989C16.8444 12.4782 17.056 12.0063 17.3968 11.6655C17.7376 11.3247 18.2096 11.1131 18.7302 11.1131C19.2509 11.1131 19.7229 11.3247 20.0637 11.6655C20.4044 12.0063 20.6161 12.4783 20.6161 12.9989C20.6161 13.5196 20.4044 13.9916 20.0637 14.3323C20.0129 14.3831 19.9578 14.4318 19.9028 14.4763L21.6257 18.7878L24.4662 16.6965C24.3942 16.4976 24.3561 16.2838 24.3561 16.0594C24.3561 15.5388 24.5678 15.0668 24.9085 14.726C25.2493 14.3852 25.7213 14.1736 26.242 14.1736L26.2423 14.1757ZM26.8095 15.4943C26.6656 15.3504 26.4645 15.2594 26.2423 15.2594C26.02 15.2594 25.8189 15.3504 25.675 15.4943C25.5311 15.6383 25.4401 15.8394 25.4401 16.0616C25.4401 16.2817 25.5311 16.4828 25.675 16.6289C25.8189 16.7728 26.02 16.8638 26.2423 16.8638C26.4624 16.8638 26.6635 16.7728 26.8095 16.6289C26.9535 16.4849 27.0445 16.2839 27.0445 16.0616C27.0445 15.8394 26.9535 15.6383 26.8095 15.4943ZM11.7879 15.4943C11.644 15.3504 11.4429 15.2594 11.2206 15.2594C10.9984 15.2594 10.7973 15.3504 10.6534 15.4943C10.5094 15.6383 10.4184 15.8394 10.4184 16.0616C10.4184 16.2817 10.5094 16.4828 10.6534 16.6289C10.7973 16.7728 10.9984 16.8638 11.2206 16.8638C11.4408 16.8638 11.6418 16.7728 11.7879 16.6289C11.9318 16.4849 12.0228 16.2839 12.0228 16.0616C12.0228 15.8394 11.9318 15.6383 11.7879 15.4943ZM18.9018 14.8763C18.8468 14.8806 18.7896 14.8848 18.7325 14.8848C18.6753 14.8848 18.6182 14.8827 18.5632 14.8763L16.5821 19.8355C16.472 20.1127 16.1587 20.2482 15.8814 20.1381L15.7608 20.0725L12.5584 17.7167L14.7871 22.6717H22.6775L24.9063 17.7167L21.7039 20.0725C21.4626 20.2482 21.1239 20.1974 20.9483 19.9561C20.9165 19.9117 20.8911 19.8651 20.8742 19.8143L18.9018 14.8763ZM19.2997 12.4317C19.1558 12.2877 18.9547 12.1967 18.7325 12.1967C18.5102 12.1967 18.3092 12.2877 18.1652 12.4317C18.0213 12.5756 17.9303 12.7767 17.9303 12.9989C17.9303 13.2191 18.0213 13.4201 18.1652 13.5662C18.3091 13.7101 18.5102 13.8011 18.7325 13.8011C18.9526 13.8011 19.1537 13.7101 19.2997 13.5662C19.4437 13.4223 19.5347 13.2212 19.5347 12.9989C19.5347 12.7767 19.4437 12.5756 19.2997 12.4317ZM14.9819 23.7536V24.8055H22.4854V23.7536H14.9819ZM33.2437 42.9702L28.2443 34.3115H28.2316L27.5099 34.2755C27.2707 34.2628 27.0464 34.3072 26.8517 34.4025C26.6548 34.4977 26.4834 34.6459 26.3458 34.8364L25.7891 35.6237C25.4653 36.0809 25.0166 36.3963 24.5192 36.5466C24.0218 36.6968 23.4736 36.6841 22.9529 36.4852L22.2756 36.227C22.0978 36.1592 21.9179 36.1275 21.7443 36.1338L27.5649 46.2171L29.4846 43.512C29.5714 43.3724 29.7217 43.275 29.8995 43.2602L33.2437 42.9744L33.2437 42.9702ZM29.3683 34.0996L34.4312 42.8689L35.9721 42.7355L30.4583 33.0966C30.2784 33.4141 30.0328 33.6829 29.7429 33.8839C29.6243 33.9665 29.4995 34.0385 29.3682 34.0977L29.3683 34.0996ZM26.8791 47.1841L20.7579 36.5802L20.2224 36.9781C20.0298 37.122 19.8202 37.2342 19.6044 37.3125L25.9776 48.4524L26.8793 47.1824L26.8791 47.1841ZM16.7108 36.4761L10.5598 47.1289L11.4445 48.3967L17.9109 37.2975C17.6802 37.2086 17.4601 37.0816 17.259 36.9186L16.7087 36.4741L16.7108 36.4761ZM9.87868 46.153L15.6336 36.1819C15.5638 36.1946 15.4961 36.2137 15.4262 36.2369L14.5097 36.546C13.9827 36.7238 13.4366 36.7153 12.9435 36.5439C12.4503 36.3724 12.0121 36.0401 11.7095 35.5744L11.3137 34.967C11.1825 34.7659 11.0174 34.6114 10.8269 34.5098C10.6364 34.4082 10.4142 34.3553 10.175 34.3574L9.20987 34.368H9.12733L4.22529 42.8576L7.5589 43.1709C7.72399 43.1857 7.86368 43.2725 7.95258 43.3995L9.87446 46.1532L9.87868 46.153ZM3.0487 42.7474L8.04599 34.0924C7.9317 34.0332 7.82375 33.9633 7.72215 33.8871C7.44276 33.6734 7.20994 33.4003 7.04484 33.0828L1.49741 42.6052L3.051 42.7513L3.0487 42.7474ZM18.7346 5.7029C22.3328 5.7029 25.5901 7.16123 27.946 9.51913C30.3039 11.8791 31.7623 15.1365 31.7623 18.7305C31.7623 22.3245 30.3039 25.5822 27.946 27.9398C25.586 30.2998 22.3287 31.7581 18.7346 31.7581C15.1407 31.7581 11.883 30.2998 9.5254 27.9419C7.1675 25.5861 5.70917 22.3289 5.70917 18.7326C5.70917 15.1345 7.1675 11.8772 9.5254 9.52124C11.8812 7.16545 15.1384 5.70501 18.7368 5.70501L18.7346 5.7029ZM27.1799 10.2853C25.0188 8.12425 22.0302 6.78659 18.7346 6.78659C15.437 6.78659 12.4503 8.1243 10.2894 10.2853C8.12836 12.4464 6.7907 15.4328 6.7907 18.7305C6.7907 22.0282 8.12841 25.0149 10.2894 27.1758C12.4483 29.3368 15.4348 30.6745 18.7346 30.6745C22.0344 30.6745 25.0211 29.3389 27.1799 27.1779C29.3409 25.0168 30.6786 22.0303 30.6786 18.7305C30.6786 15.4306 29.343 12.444 27.182 10.2852L27.1799 10.2853ZM20.0936 1.83573L19.5306 1.38067C19.2871 1.18382 18.9993 1.08223 18.7157 1.07588C18.4299 1.07165 18.14 1.16266 17.8902 1.3468L17.1155 1.92251C16.7748 2.17439 16.3959 2.33102 16.0022 2.38605C15.6064 2.44108 15.2 2.39452 14.8064 2.24212L14.129 1.9839C13.8391 1.87384 13.5343 1.86537 13.2612 1.94792C12.9861 2.03046 12.7384 2.20614 12.5585 2.45802L11.9997 3.24538C11.7542 3.59038 11.441 3.85707 11.0854 4.03062C10.7298 4.20207 10.3277 4.28461 9.90431 4.26133L9.18257 4.22535C8.87143 4.20841 8.57933 4.2952 8.34439 4.46029C8.10945 4.62326 7.92742 4.86667 7.83429 5.16301L7.54643 6.08372C7.42155 6.48587 7.20566 6.8351 6.91778 7.11236C6.62993 7.38963 6.27222 7.59071 5.86373 7.70075L5.16523 7.88913C4.86679 7.96956 4.61704 8.141 4.4456 8.36748C4.27204 8.59819 4.17256 8.88604 4.1768 9.19504L4.18738 10.1645C4.19161 10.5878 4.09425 10.9857 3.90799 11.335C3.71961 11.6863 3.44234 11.9869 3.08888 12.2176L2.48142 12.6134C2.22108 12.7827 2.03482 13.024 1.94169 13.2928C1.84856 13.5637 1.84221 13.8685 1.94169 14.1627L2.25283 15.0771C2.38829 15.4771 2.41792 15.8835 2.34807 16.2751C2.28034 16.6666 2.1089 17.0413 1.84221 17.3693L1.38715 17.9324C1.1903 18.1758 1.08871 18.4636 1.08236 18.7473C1.07812 19.033 1.16914 19.323 1.35328 19.5727L1.92899 20.3474C2.18087 20.6882 2.3375 21.067 2.39253 21.4607C2.44544 21.8565 2.39888 22.2629 2.2486 22.6566L1.99038 23.3339C1.88032 23.6239 1.87185 23.9287 1.9544 24.2017C2.03694 24.4769 2.21262 24.7245 2.4645 24.9044L3.24974 25.4611C3.59686 25.7066 3.86355 26.0198 4.0371 26.3775C4.20855 26.7331 4.29109 27.1353 4.26781 27.5586L4.23183 28.2804C4.21701 28.5915 4.30168 28.8836 4.46677 29.1185C4.62974 29.3535 4.87315 29.5355 5.16949 29.6265L6.09019 29.9144C6.49235 30.0414 6.84369 30.2573 7.11884 30.5451C7.39611 30.833 7.59719 31.1907 7.70723 31.5992L7.89561 32.2977C7.97604 32.5982 8.14748 32.848 8.37396 33.0215C8.60466 33.193 8.89464 33.2925 9.20363 33.2882L10.1731 33.2777C10.5943 33.2734 10.9922 33.3708 11.3414 33.557C11.6927 33.7454 11.9954 34.0227 12.2261 34.3761L12.6219 34.9836C12.7912 35.244 13.0325 35.4302 13.3013 35.5233C13.5723 35.6165 13.8771 35.6207 14.1734 35.5212L15.0856 35.2122C15.4857 35.0767 15.8921 35.045 16.2836 35.1148C16.6752 35.1826 17.0498 35.354 17.3779 35.6207L17.9409 36.0758C18.1843 36.2726 18.4722 36.3742 18.7558 36.3806C19.0415 36.3848 19.3315 36.2938 19.5812 36.1096L20.3559 35.5339C20.6967 35.2821 21.0755 35.1254 21.4693 35.0704C21.8651 35.0175 22.2715 35.064 22.6651 35.2143L23.3424 35.4725C23.6324 35.5826 23.9372 35.5911 24.2102 35.5085C24.4854 35.426 24.733 35.2503 24.913 34.9984L25.4696 34.2132C25.7151 33.8661 26.0284 33.5994 26.3861 33.4258C26.7417 33.2544 27.1438 33.1718 27.5671 33.1951L28.2889 33.2311C28.6 33.2459 28.8921 33.1612 29.1271 32.9962C29.362 32.8332 29.544 32.5898 29.6351 32.2934L29.9229 31.3706C30.0499 30.9685 30.2658 30.6171 30.5537 30.342C30.8415 30.0647 31.1992 29.8636 31.6077 29.7536L32.3062 29.5652C32.6068 29.4848 32.8565 29.3133 33.0301 29.0868C33.2015 28.8561 33.301 28.5662 33.2968 28.2572L33.2862 27.2878C33.282 26.8666 33.3793 26.4686 33.5656 26.1194C33.754 25.7681 34.0312 25.4654 34.3847 25.2347L34.9922 24.8389C35.2525 24.6696 35.4388 24.4283 35.5319 24.1595C35.625 23.8885 35.6292 23.5838 35.5298 23.2874L35.2207 22.3752C35.0853 21.9751 35.0535 21.5687 35.1234 21.1772C35.1911 20.7856 35.3626 20.411 35.6292 20.0829L36.0843 19.5199C36.2812 19.2765 36.3827 18.9886 36.3891 18.705C36.3933 18.4193 36.3023 18.1293 36.1182 17.8796L35.5425 17.1049C35.2906 16.7662 35.134 16.3874 35.0789 15.9937C35.026 15.5979 35.0726 15.1915 35.2229 14.7978L35.4811 14.1205C35.5911 13.8305 35.5996 13.5257 35.5171 13.2527C35.4345 12.9775 35.2588 12.7299 35.007 12.55L34.2196 11.9912C33.8746 11.7457 33.6079 11.4324 33.4344 11.0768C33.2629 10.7212 33.1804 10.3191 33.2036 9.89577L33.2396 9.17403C33.2566 8.86289 33.1698 8.57079 33.0047 8.33584C32.8417 8.1009 32.5962 7.91887 32.302 7.82574L31.3791 7.53789C30.977 7.41301 30.6278 7.19711 30.3505 6.90923C30.0753 6.62138 29.8722 6.26368 29.7621 5.85518L29.5737 5.15668C29.4933 4.85824 29.3219 4.6085 29.0954 4.43706C28.8647 4.2635 28.5768 4.16401 28.2678 4.16825L27.2984 4.17883C26.8772 4.18307 26.4793 4.0857 26.1301 3.89945C25.7787 3.71107 25.4782 3.43379 25.2453 3.08034L24.8495 2.47287C24.6802 2.21253 24.4389 2.02627 24.1701 1.93314C23.8992 1.84001 23.5944 1.83366 23.3002 1.93314L22.3858 2.24428C21.9858 2.37974 21.5794 2.40938 21.1878 2.33953C20.7963 2.2718 20.4216 2.10035 20.0936 1.83366L20.0936 1.83573Z" fill="white"/>
</svg>
