<svg width="8" height="14" viewBox="0 0 8 14" fill="none" xmlns="http://www.w3.org/2000/svg">
<path d="M7.53134 6.89218C7.51756 6.74955 7.45381 6.61452 7.34926 6.50656L1.33533 0.25197C1.27171 0.181547 1.19299 0.12336 1.10386 0.0808725C1.01472 0.0383853 0.916988 0.0124693 0.816484 0.00466439C0.71598 -0.00313953 0.614755 0.00732801 0.518843 0.0354461C0.422931 0.0635633 0.334296 0.108755 0.258207 0.168329C0.182118 0.227903 0.120132 0.300643 0.0759492 0.382214C0.031766 0.463784 0.00628359 0.552519 0.00102274 0.643132C-0.00423811 0.733746 0.010837 0.824384 0.045334 0.90965C0.0798309 0.994917 0.133052 1.07307 0.201828 1.13945L5.78705 6.9503L0.201829 12.7612C0.133052 12.8275 0.0798314 12.9057 0.0453345 12.9909C0.0108376 13.0762 -0.00423757 13.1669 0.00102329 13.2575C0.00628415 13.3481 0.0317665 13.4368 0.0759497 13.5184C0.120133 13.6 0.182118 13.6727 0.258207 13.7323C0.334296 13.7918 0.422932 13.837 0.518844 13.8651C0.614756 13.8933 0.715981 13.9037 0.816485 13.8959C0.916989 13.8881 1.01472 13.8622 1.10386 13.8197C1.193 13.7772 1.27171 13.719 1.33533 13.6486L7.34926 7.39404C7.41547 7.32564 7.46571 7.24597 7.49699 7.15975C7.52827 7.07354 7.53995 6.98254 7.53134 6.89218Z" fill="white"/>
</svg>
