<svg width="219" height="50" viewBox="0 0 219 50" fill="none" xmlns="http://www.w3.org/2000/svg">
<path d="M68.5107 34.2148C66.8564 34.2148 65.4886 33.7279 64.4072 32.7539C63.3258 31.7728 62.7852 30.5303 62.7852 29.0264H65.3418C65.3418 29.8499 65.6354 30.5195 66.2227 31.0352C66.8171 31.5436 67.5798 31.7979 68.5107 31.7979C69.3844 31.7979 70.097 31.5973 70.6484 31.1963C71.1999 30.7881 71.4756 30.2617 71.4756 29.6172C71.4756 29.252 71.3789 28.9333 71.1855 28.6611C70.9922 28.389 70.7308 28.1706 70.4014 28.0059C70.0791 27.834 69.7031 27.6836 69.2734 27.5547C68.8509 27.4258 68.4033 27.3005 67.9307 27.1787C67.4652 27.057 66.9961 26.9281 66.5234 26.792C66.0579 26.6559 65.6104 26.4769 65.1807 26.2549C64.7581 26.0329 64.3822 25.7751 64.0527 25.4814C63.7305 25.1878 63.4727 24.8083 63.2793 24.3428C63.0859 23.8701 62.9893 23.333 62.9893 22.7314C62.9893 21.4639 63.4798 20.4219 64.4609 19.6055C65.4421 18.7891 66.6882 18.3809 68.1992 18.3809C69.0586 18.3809 69.832 18.5098 70.5195 18.7676C71.2142 19.0254 71.7764 19.3799 72.2061 19.8311C72.6429 20.2751 72.9759 20.7871 73.2051 21.3672C73.4342 21.9401 73.5488 22.556 73.5488 23.2148H70.9062C70.8848 22.513 70.6198 21.9401 70.1113 21.4961C69.6029 21.0449 68.9368 20.8193 68.1133 20.8193C67.3327 20.8193 66.7025 20.9948 66.2227 21.3457C65.75 21.6895 65.5137 22.1442 65.5137 22.71C65.5137 23.0537 65.6104 23.3509 65.8037 23.6016C65.9971 23.8451 66.2585 24.042 66.5879 24.1924C66.9173 24.3428 67.2933 24.4788 67.7158 24.6006C68.1455 24.7223 68.5931 24.8405 69.0586 24.9551C69.5312 25.0697 70.0039 25.1986 70.4766 25.3418C70.9492 25.4779 71.3968 25.6641 71.8193 25.9004C72.249 26.1296 72.6286 26.4017 72.958 26.7168C73.2874 27.0247 73.5488 27.4258 73.7422 27.9199C73.9355 28.4141 74.0322 28.9798 74.0322 29.6172C74.0322 30.4909 73.7923 31.2786 73.3125 31.9805C72.8398 32.6823 72.181 33.2301 71.3359 33.624C70.498 34.0179 69.5563 34.2148 68.5107 34.2148ZM84.6025 23.2471H87.0732V34H84.6025V32.1094C84.2087 32.7897 83.6895 33.3125 83.0449 33.6777C82.4004 34.0358 81.652 34.2148 80.7998 34.2148C79.8617 34.2148 78.9987 33.9678 78.2109 33.4736C77.4232 32.9723 76.8001 32.292 76.3418 31.4326C75.8835 30.5661 75.6543 29.6243 75.6543 28.6074C75.6543 27.5905 75.8835 26.6523 76.3418 25.793C76.8001 24.9336 77.4232 24.2568 78.2109 23.7627C78.9987 23.2686 79.8617 23.0215 80.7998 23.0215C81.652 23.0215 82.4004 23.2041 83.0449 23.5693C83.6895 23.9346 84.2087 24.4574 84.6025 25.1377V23.2471ZM81.3262 31.8838C82.2572 31.8838 83.0342 31.5723 83.6572 30.9492C84.2874 30.319 84.6025 29.5384 84.6025 28.6074C84.6025 27.6836 84.2874 26.9102 83.6572 26.2871C83.0342 25.6641 82.2572 25.3525 81.3262 25.3525C80.4167 25.3525 79.6468 25.6712 79.0166 26.3086C78.3864 26.9388 78.0713 27.7051 78.0713 28.6074C78.0713 29.5241 78.3864 30.3011 79.0166 30.9385C79.6468 31.5687 80.4167 31.8838 81.3262 31.8838ZM99.7705 23.2471L95.2588 34H93.1426L88.6416 23.2471H91.2949L94.2061 30.7236L97.085 23.2471H99.7705ZM111.05 28.3926C111.05 28.8867 111.028 29.2305 110.985 29.4238H102.735C102.893 30.2259 103.244 30.8561 103.788 31.3145C104.332 31.7728 105.031 32.002 105.883 32.002C106.542 32.002 107.107 31.8587 107.58 31.5723C108.06 31.2858 108.354 30.9134 108.461 30.4551H110.921C110.72 31.5866 110.155 32.4961 109.224 33.1836C108.293 33.8711 107.165 34.2148 105.84 34.2148C104.801 34.2148 103.856 33.9714 103.004 33.4844C102.152 32.9902 101.479 32.3099 100.984 31.4434C100.497 30.5768 100.254 29.6172 100.254 28.5645C100.254 27.5404 100.497 26.6058 100.984 25.7607C101.479 24.9085 102.148 24.2389 102.993 23.752C103.845 23.265 104.78 23.0215 105.797 23.0215C106.757 23.0215 107.634 23.2471 108.429 23.6982C109.231 24.1494 109.868 24.7904 110.341 25.6211C110.813 26.4447 111.05 27.3685 111.05 28.3926ZM102.8 27.3291H108.386C108.278 26.7061 107.978 26.2048 107.483 25.8252C106.996 25.4385 106.388 25.2451 105.657 25.2451C104.934 25.2451 104.322 25.4277 103.82 25.793C103.319 26.1582 102.979 26.6702 102.8 27.3291ZM128.334 32.4746C127.202 33.6204 125.77 34.1934 124.037 34.1934C122.304 34.1934 120.868 33.6204 119.729 32.4746C118.598 31.3216 118.032 29.8714 118.032 28.124V18.5957H120.61V28.124C120.61 29.1481 120.936 30.0039 121.588 30.6914C122.247 31.3717 123.063 31.7119 124.037 31.7119C125.018 31.7119 125.835 31.3682 126.486 30.6807C127.145 29.9932 127.475 29.141 127.475 28.124V18.5957H130.042V28.124C130.042 29.8714 129.473 31.3216 128.334 32.4746ZM139.022 23.0215C139.961 23.0215 140.82 23.2721 141.601 23.7734C142.388 24.2747 143.008 24.9551 143.459 25.8145C143.917 26.6738 144.146 27.612 144.146 28.6289C144.146 30.1829 143.649 31.5042 142.653 32.5928C141.658 33.6742 140.448 34.2148 139.022 34.2148C138.163 34.2148 137.408 34.0286 136.756 33.6562C136.104 33.2839 135.581 32.7539 135.188 32.0664V37.7598H132.749V23.2471H135.188V25.1807C135.581 24.486 136.104 23.9525 136.756 23.5801C137.408 23.2077 138.163 23.0215 139.022 23.0215ZM138.485 31.8838C139.395 31.8838 140.165 31.5687 140.795 30.9385C141.425 30.3011 141.74 29.5312 141.74 28.6289C141.74 27.7122 141.425 26.9388 140.795 26.3086C140.165 25.6712 139.395 25.3525 138.485 25.3525C137.54 25.3525 136.752 25.6641 136.122 26.2871C135.499 26.9102 135.188 27.6908 135.188 28.6289C135.188 29.5527 135.499 30.3262 136.122 30.9492C136.752 31.5723 137.54 31.8838 138.485 31.8838ZM162.204 18.5957V21.0664H157.478V34H154.91V21.0664H150.173V18.5957H162.204ZM162.655 24.6328C163.722 23.5586 165.044 23.0215 166.619 23.0215C168.195 23.0215 169.52 23.5586 170.594 24.6328C171.668 25.707 172.205 27.0391 172.205 28.6289C172.205 30.2188 171.668 31.5472 170.594 32.6143C169.52 33.6813 168.195 34.2148 166.619 34.2148C165.044 34.2148 163.722 33.6813 162.655 32.6143C161.588 31.5472 161.055 30.2188 161.055 28.6289C161.055 27.0391 161.588 25.707 162.655 24.6328ZM168.875 26.3086C168.266 25.6855 167.514 25.374 166.619 25.374C165.724 25.374 164.976 25.6855 164.374 26.3086C163.772 26.9316 163.472 27.7051 163.472 28.6289C163.472 29.5456 163.772 30.3154 164.374 30.9385C164.983 31.5544 165.731 31.8623 166.619 31.8623C167.514 31.8623 168.266 31.5508 168.875 30.9277C169.484 30.3047 169.788 29.5384 169.788 28.6289C169.788 27.7051 169.484 26.9316 168.875 26.3086ZM178.758 34V32.1309L184.129 26.8242C184.716 26.2441 185.16 25.7786 185.461 25.4277C185.762 25.0768 186.005 24.708 186.191 24.3213C186.385 23.9346 186.481 23.5443 186.481 23.1504C186.481 22.4915 186.242 21.9508 185.762 21.5283C185.282 21.0986 184.684 20.8838 183.968 20.8838C183.094 20.8838 182.41 21.1631 181.916 21.7217C181.422 22.2731 181.189 23.0215 181.218 23.9668H178.629C178.579 22.3053 179.062 20.959 180.079 19.9277C181.096 18.8965 182.41 18.3809 184.021 18.3809C185.497 18.3809 186.714 18.8249 187.674 19.7129C188.641 20.5938 189.124 21.7181 189.124 23.0859C189.124 23.9883 188.855 24.862 188.318 25.707C187.788 26.5521 187.001 27.4688 185.955 28.457L182.915 31.4971H189.231V34H178.758ZM196.525 34.2148C195.322 34.2148 194.28 33.889 193.399 33.2373C192.526 32.5856 191.86 31.6654 191.401 30.4766C190.95 29.2878 190.725 27.8949 190.725 26.2979C190.725 24.7008 190.95 23.3079 191.401 22.1191C191.86 20.9303 192.526 20.0101 193.399 19.3584C194.28 18.7067 195.322 18.3809 196.525 18.3809C198.344 18.3809 199.77 19.097 200.801 20.5293C201.839 21.9544 202.358 23.8773 202.358 26.2979C202.358 28.7184 201.839 30.6449 200.801 32.0771C199.77 33.5023 198.344 34.2148 196.525 34.2148ZM196.525 31.7119C197.542 31.7119 198.326 31.2536 198.878 30.3369C199.437 29.4202 199.716 28.0739 199.716 26.2979C199.716 24.5218 199.437 23.1755 198.878 22.2588C198.326 21.3421 197.542 20.8838 196.525 20.8838C195.523 20.8838 194.746 21.3421 194.194 22.2588C193.643 23.1755 193.367 24.5218 193.367 26.2979C193.367 28.0739 193.643 29.4202 194.194 30.3369C194.746 31.2536 195.523 31.7119 196.525 31.7119ZM210.114 21.6357C210.114 22.5811 209.813 23.3688 209.212 23.999C208.618 24.6221 207.869 24.9336 206.967 24.9336C206.057 24.9336 205.305 24.6221 204.711 23.999C204.117 23.3688 203.819 22.5811 203.819 21.6357C203.819 20.6976 204.117 19.9206 204.711 19.3047C205.305 18.6888 206.057 18.3809 206.967 18.3809C207.869 18.3809 208.618 18.6924 209.212 19.3154C209.813 19.9313 210.114 20.7048 210.114 21.6357ZM214.712 18.5957H216.688L206.462 34H204.475L214.712 18.5957ZM208.46 21.6357C208.46 21.1344 208.324 20.7227 208.052 20.4004C207.78 20.0781 207.418 19.917 206.967 19.917C206.501 19.917 206.129 20.0781 205.85 20.4004C205.577 20.7227 205.441 21.1344 205.441 21.6357C205.441 22.1514 205.577 22.5703 205.85 22.8926C206.129 23.2148 206.501 23.376 206.967 23.376C207.425 23.376 207.787 23.2148 208.052 22.8926C208.324 22.5703 208.46 22.1514 208.46 21.6357ZM217.344 30.917C217.344 31.8695 217.043 32.6572 216.441 33.2803C215.847 33.9033 215.091 34.2148 214.175 34.2148C213.272 34.2148 212.524 33.9033 211.93 33.2803C211.335 32.6572 211.038 31.8695 211.038 30.917C211.038 29.9788 211.335 29.2018 211.93 28.5859C212.524 27.9701 213.272 27.6621 214.175 27.6621C215.084 27.6621 215.84 27.9701 216.441 28.5859C217.043 29.2018 217.344 29.9788 217.344 30.917ZM215.7 30.917C215.7 30.4157 215.561 30.0111 215.281 29.7031C215.002 29.388 214.633 29.2305 214.175 29.2305C213.716 29.2305 213.348 29.388 213.068 29.7031C212.796 30.0111 212.66 30.4157 212.66 30.917C212.66 31.4255 212.796 31.8444 213.068 32.1738C213.348 32.4961 213.716 32.6572 214.175 32.6572C214.633 32.6572 215.002 32.4961 215.281 32.1738C215.561 31.8444 215.7 31.4255 215.7 30.917Z" fill="white"/>
<path d="M30.4525 47.5052C29.7281 47.5052 29.0037 47.3713 28.3078 47.0771L19.2876 43.4989C18.8727 43.3365 18.4446 43.3211 18.0758 43.455L16.4053 43.9885C16.0211 44.107 15.6216 43.9138 15.4877 43.5297L15.4438 43.3958L11.3036 34.2705C11.2597 34.1827 11.2158 34.0927 11.1258 33.9895C10.9787 33.8117 10.9326 33.5746 10.9919 33.3529C11.0512 33.1312 11.2136 32.9534 11.42 32.8656L19.0943 29.6277C20.9865 28.8286 23.162 28.8594 25.054 29.687L33.3801 33.4144C34.267 33.8139 34.9475 34.5537 35.2724 35.4406L42.9624 30.1458C44.5606 29.0372 46.7777 29.3774 48.0048 30.9141C48.5383 31.5638 48.8192 32.3783 48.8192 33.2366C48.8192 34.4044 48.2726 35.513 47.3397 36.2089L33.9114 46.3395C32.8775 47.1056 31.681 47.5052 30.4518 47.5052L30.4525 47.5052ZM18.6072 41.8855C19.0221 41.8855 19.4349 41.9601 19.8344 42.1226L28.8546 45.7007C30.2442 46.2627 31.7984 46.0564 32.9947 45.1541L46.4231 35.0235C46.985 34.6086 47.3099 33.9435 47.3099 33.2344C47.3099 32.7164 47.1475 32.229 46.8226 31.8295C46.0828 30.8988 44.7371 30.6902 43.7756 31.3554L35.1527 37.2999C34.931 37.4623 34.6346 37.4777 34.3844 37.3438C34.1473 37.2099 33.9849 36.9596 33.9849 36.694C33.9849 35.8664 33.4975 35.1113 32.7424 34.771L24.4162 31.0436C22.9081 30.3784 21.1629 30.3477 19.6395 30.9843L12.7182 33.8973L16.5642 42.3707L17.585 42.0458C17.9275 41.9448 18.2677 41.8856 18.608 41.8856L18.6072 41.8855Z" fill="white"/>
<path d="M31.8891 40.3146C31.4018 40.3146 30.9122 40.2114 30.4556 40.0182L23.5344 37.0152C23.1656 36.8527 22.9878 36.4093 23.1502 36.0383C23.3127 35.6695 23.7561 35.4917 24.1271 35.6541L31.0483 38.6572C31.5818 38.8789 32.1569 38.8943 32.6904 38.6857C33.2238 38.4794 33.6365 38.0645 33.8582 37.5464C33.9614 37.294 34.0206 37.0437 34.036 36.7781C34.0514 36.3786 34.3763 36.0229 34.7605 36.0098C35.16 36.0098 35.4849 36.2754 35.5002 36.6749V36.7627C35.4849 37.2654 35.3971 37.7089 35.2192 38.1238C34.8505 39.0106 34.1392 39.7065 33.237 40.0621C32.8067 40.2246 32.3479 40.3146 31.8891 40.3146Z" fill="white"/>
<path d="M6.76222 50.0056C5.7722 50.0056 4.82387 49.4437 4.39582 48.4975L0.224919 39.2689C-0.0560674 38.6476 -0.0714315 37.9518 0.165648 37.3173C0.418097 36.6676 0.890085 36.1649 1.52669 35.8839L9.21671 32.3935C10.266 31.9062 11.5239 32.1872 12.2637 33.074C12.4415 33.2957 12.5447 33.4736 12.6325 33.6645L16.8034 42.8623C16.8187 42.8777 16.8626 43.0247 16.878 43.0401C17.3522 44.298 16.7441 45.716 15.5016 46.278L7.81159 49.7683C7.47133 49.933 7.11784 50.0056 6.76222 50.0056ZM10.2965 33.6361C10.1341 33.6361 9.987 33.6646 9.83772 33.7392L2.1477 37.2296C1.86671 37.3481 1.66036 37.5698 1.55718 37.8508C1.45401 38.1164 1.46937 38.4128 1.58572 38.6652L5.75662 47.8939C5.9937 48.4383 6.65886 48.6754 7.22083 48.4229L14.9109 44.9326C15.4443 44.6955 15.6945 44.0896 15.5014 43.543C15.5014 43.5276 15.4421 43.4091 15.4421 43.3959L11.3019 34.2707C11.258 34.1829 11.2141 34.0929 11.1241 33.9897C10.9178 33.768 10.6083 33.6361 10.2965 33.6361Z" fill="white"/>
<path d="M29.2563 28.0984C21.5073 28.0984 15.207 21.7982 15.207 14.0492C15.207 6.30023 21.5073 0 29.2563 0C37.0054 0 43.3056 6.30023 43.3056 14.0492C43.3056 21.7982 37.0054 28.0984 29.2563 28.0984ZM29.2563 1.49259C22.3193 1.49259 16.6867 7.12745 16.6867 14.0621C16.6867 20.9991 22.3216 26.6317 29.2563 26.6317C36.1776 26.6317 41.826 20.9968 41.826 14.0621C41.826 7.12745 36.1911 1.49259 29.2563 1.49259Z" fill="white"/>
<path d="M29.2555 21.9455C26.9198 21.9455 24.9814 20.0664 24.9375 17.7154C24.9375 17.3005 25.247 16.9756 25.6619 16.9602H25.6773C26.0768 16.9602 26.4017 17.2851 26.4171 17.6847C26.4456 19.2235 27.7188 20.4659 29.2555 20.4659H29.3148C30.8822 20.4374 32.1246 19.1357 32.0961 17.5815C32.0807 16.8263 31.7712 16.1173 31.2246 15.5992C30.678 15.0812 29.9667 14.8002 29.1984 14.8156H29.1106C26.8034 14.7409 24.9397 12.8333 24.9397 10.4976C24.9397 8.11584 26.878 6.17969 29.2576 6.17969C31.6394 6.17969 33.5756 8.11803 33.5756 10.4976C33.5756 10.9125 33.2507 11.2374 32.8358 11.2374C32.4209 11.2374 32.096 10.9125 32.096 10.4976C32.096 8.93024 30.825 7.65924 29.2576 7.65924C27.6902 7.65924 26.4192 8.93024 26.4192 10.4976C26.4192 12.065 27.6902 13.336 29.2576 13.336H29.2862C30.3948 13.336 31.4463 13.7641 32.2431 14.5346C33.0707 15.3337 33.5449 16.4137 33.5603 17.5661C33.6042 19.9479 31.7119 21.9148 29.3301 21.9587C29.3148 21.9455 29.284 21.9455 29.2555 21.9455Z" fill="white"/>
<path d="M21.4181 14.8077H20.0132C19.5983 14.8077 19.2734 14.4828 19.2734 14.0679C19.2734 13.653 19.5983 13.3281 20.0132 13.3281H21.4181C21.833 13.3281 22.1579 13.653 22.1579 14.0679C22.1579 14.4806 21.833 14.8077 21.4181 14.8077Z" fill="white"/>
<path d="M38.5139 14.8077H37.1089C36.694 14.8077 36.3691 14.4828 36.3691 14.0679C36.3691 13.653 36.694 13.3281 37.1089 13.3281H38.5139C38.9287 13.3281 39.2536 13.653 39.2536 14.0679C39.2536 14.4806 38.9134 14.8077 38.5139 14.8077Z" fill="white"/>
<path d="M29.2574 23.3974C28.8425 23.3974 28.5176 23.0725 28.5176 22.6576V5.45853C28.5176 5.04364 28.8425 4.71875 29.2574 4.71875C29.6722 4.71875 29.9971 5.04364 29.9971 5.45853V22.6576C29.9971 23.0703 29.6701 23.3974 29.2574 23.3974Z" fill="white"/>
</svg>
