<svg width="161" height="34" viewBox="0 0 161 34" fill="none" xmlns="http://www.w3.org/2000/svg">
<path d="M16.0489 2.92705C16.3483 2.00574 17.6517 2.00574 17.9511 2.92705L20.5922 11.0557C20.7261 11.4678 21.1101 11.7467 21.5433 11.7467L30.0903 11.7467C31.059 11.7467 31.4618 12.9863 30.6781 13.5557L23.7634 18.5795C23.4129 18.8342 23.2663 19.2855 23.4001 19.6976L26.0413 27.8262C26.3406 28.7475 25.2862 29.5137 24.5025 28.9443L17.5878 23.9205C17.2373 23.6658 16.7627 23.6658 16.4122 23.9205L9.49755 28.9443C8.71383 29.5137 7.65936 28.7475 7.95871 27.8262L10.5999 19.6976C10.7337 19.2855 10.5871 18.8342 10.2366 18.5795L3.32194 13.5557C2.53822 12.9863 2.941 11.7467 3.90972 11.7467L12.4567 11.7467C12.8899 11.7467 13.2739 11.4678 13.4078 11.0557L16.0489 2.92705Z" fill="#FF1A1A"/>
<path d="M47.7169 2.92705C48.0163 2.00574 49.3197 2.00574 49.619 2.92705L52.2602 11.0557C52.3941 11.4678 52.778 11.7467 53.2113 11.7467L61.7582 11.7467C62.727 11.7467 63.1297 12.9863 62.346 13.5557L55.4314 18.5795C55.0809 18.8342 54.9342 19.2855 55.0681 19.6976L57.7093 27.8262C58.0086 28.7475 56.9541 29.5137 56.1704 28.9443L49.2558 23.9205C48.9053 23.6658 48.4307 23.6658 48.0802 23.9205L41.1655 28.9443C40.3818 29.5137 39.3273 28.7475 39.6267 27.8262L42.2678 19.6976C42.4017 19.2855 42.2551 18.8342 41.9046 18.5795L34.9899 13.5557C34.2062 12.9863 34.609 11.7467 35.5777 11.7467L44.1247 11.7467C44.5579 11.7467 44.9419 11.4678 45.0757 11.0557L47.7169 2.92705Z" fill="#FF1A1A"/>
<path d="M79.3927 2.92705C79.692 2.00574 80.9955 2.00574 81.2948 2.92705L83.936 11.0557C84.0698 11.4678 84.4538 11.7467 84.887 11.7467L93.434 11.7467C94.4028 11.7467 94.8055 12.9863 94.0218 13.5557L87.1071 18.5795C86.7567 18.8342 86.61 19.2855 86.7439 19.6976L89.385 27.8262C89.6844 28.7475 88.6299 29.5137 87.8462 28.9443L80.9315 23.9205C80.581 23.6658 80.1065 23.6658 79.756 23.9205L72.8413 28.9443C72.0576 29.5137 71.0031 28.7475 71.3025 27.8262L73.9436 19.6976C74.0775 19.2855 73.9308 18.8342 73.5804 18.5795L66.6657 13.5557C65.882 12.9863 66.2847 11.7467 67.2535 11.7467L75.8005 11.7467C76.2337 11.7467 76.6177 11.4678 76.7515 11.0557L79.3927 2.92705Z" fill="#FF1A1A"/>
<path d="M111.063 2.92705C111.362 2.00574 112.665 2.00574 112.965 2.92705L115.606 11.0557C115.74 11.4678 116.124 11.7467 116.557 11.7467L125.104 11.7467C126.073 11.7467 126.475 12.9863 125.692 13.5557L118.777 18.5795C118.427 18.8342 118.28 19.2855 118.414 19.6976L121.055 27.8262C121.354 28.7475 120.3 29.5137 119.516 28.9443L112.601 23.9205C112.251 23.6658 111.776 23.6658 111.426 23.9205L104.511 28.9443C103.728 29.5137 102.673 28.7475 102.972 27.8262L105.614 19.6976C105.747 19.2855 105.601 18.8342 105.25 18.5795L98.3356 13.5557C97.5519 12.9863 97.9547 11.7467 98.9234 11.7467L107.47 11.7467C107.904 11.7467 108.288 11.4678 108.421 11.0557L111.063 2.92705Z" fill="#FF1A1A"/>
<path d="M142.734 2.92705C143.034 2.00574 144.337 2.00574 144.637 2.92705L147.278 11.0557C147.412 11.4678 147.796 11.7467 148.229 11.7467L156.776 11.7467C157.745 11.7467 158.147 12.9863 157.364 13.5557L150.449 18.5795C150.098 18.8342 149.952 19.2855 150.086 19.6976L152.727 27.8262C153.026 28.7475 151.972 29.5137 151.188 28.9443L144.273 23.9205C143.923 23.6658 143.448 23.6658 143.098 23.9205L136.183 28.9443C135.399 29.5137 134.345 28.7475 134.644 27.8262L137.285 19.6976C137.419 19.2855 137.273 18.8342 136.922 18.5795L130.007 13.5557C129.224 12.9863 129.627 11.7467 130.595 11.7467L139.142 11.7467C139.575 11.7467 139.959 11.4678 140.093 11.0557L142.734 2.92705Z" fill="#FF1A1A"/>
</svg>
