<svg width="18" height="18" viewBox="0 0 18 18" fill="none" xmlns="http://www.w3.org/2000/svg">
<path fill-rule="evenodd" clip-rule="evenodd" d="M14.0583 1.30201C14.1953 1.06366 14.4994 0.981161 14.7377 1.11818C14.9761 1.25519 15.0586 1.55925 14.9209 1.79763L9.1806 11.76C8.99256 12.0864 8.52773 12.0913 8.32921 11.7817L5.7946 7.8441C5.64571 7.61202 5.71281 7.30376 5.94488 7.15486C6.17696 7.00597 6.48521 7.07378 6.63412 7.30515L8.72565 10.5548L14.0577 1.302L14.0583 1.30201ZM16.2497 8.74927C16.2497 12.8915 12.8916 16.249 8.75 16.249C4.60773 16.2497 1.25032 12.8923 1.25032 8.74998C1.25032 4.60771 4.60773 1.2503 8.75 1.2503C9.02612 1.2503 9.2505 1.02661 9.2505 0.7498C9.2505 0.473684 9.02681 0.25 8.75 0.25C4.0555 0.25 0.25 4.0555 0.25 8.75C0.25 13.4445 4.0555 17.25 8.75 17.25C13.4445 17.25 17.25 13.4445 17.25 8.75C17.25 8.47388 17.0263 8.2502 16.7502 8.2502C16.4741 8.2502 16.2497 8.47388 16.2497 8.75L16.2497 8.74927Z" fill="#FF1A1A" stroke="#FF1A1A" stroke-width="0.5"/>
</svg>
