<svg width="18" height="19" viewBox="0 0 18 19" fill="none" xmlns="http://www.w3.org/2000/svg">
<path d="M15.5386 12.6818C14.6659 11.424 13.488 10.4343 12.1131 9.79626C13.3156 8.78197 14.0809 7.26492 14.0809 5.57286C14.0809 2.52557 11.6001 0.046875 8.55028 0.046875C5.50042 0.046875 3.01963 2.52557 3.01963 5.57286C3.01963 7.26481 3.78495 8.78193 4.98749 9.79626C3.61166 10.4335 2.43373 11.4241 1.56109 12.6818C0.572333 14.1065 0.0498047 15.7729 0.0498047 17.5028C0.0498047 17.8034 0.29347 18.0469 0.594335 18.0469C0.8952 18.0469 1.13886 17.8034 1.13886 17.5028C1.13886 14.4994 3.02402 11.7325 5.8311 10.618C5.90676 10.5881 5.97097 10.5424 6.02375 10.4879C6.78116 10.8782 7.64061 11.0988 8.55025 11.0988C9.4599 11.0988 10.3184 10.8782 11.0768 10.4879C11.1295 10.5424 11.1938 10.5881 11.2694 10.618C14.0756 11.7325 15.9607 14.4994 15.9607 17.5028C15.9607 17.8034 16.2044 18.0469 16.5053 18.0469C16.8061 18.0469 17.0498 17.8034 17.0498 17.5028C17.0498 15.7731 16.5273 14.1056 15.5386 12.6818ZM4.10975 5.57286C4.10975 3.12589 6.10224 1.13502 8.55134 1.13502C11.0004 1.13502 12.9929 3.12582 12.9929 5.57286C12.9929 8.01989 11.0004 10.0107 8.55134 10.0107C6.10224 10.0107 4.10975 8.01989 4.10975 5.57286Z" fill="white" stroke="white" stroke-width="0.1"/>
</svg>
