<svg width="110" height="53" viewBox="0 0 110 53" fill="none" xmlns="http://www.w3.org/2000/svg">
<path d="M0.0207013 52.0849C0.148149 51.0342 0.679469 50.0266 2.19003 47.9713C2.64886 47.347 3.10053 46.6919 3.19374 46.5156L3.36323 46.1949L4.63474 45.6884C11.1656 43.0867 17.9067 40.9184 25.3283 39.0323L26.2328 38.8024L26.146 38.3912C25.7448 36.4906 25.4059 33.9726 25.2529 31.7559C25.1584 30.3867 25.1578 26.7103 25.2518 25.4079C25.6183 20.3312 26.5401 15.8469 28.0464 11.8139C28.5293 10.5208 28.9308 9.61283 29.6977 8.07934C30.1518 7.17135 30.3061 6.81028 30.2205 6.85614C30.0103 6.96862 29.0662 7.89426 28.5239 8.51955C26.7963 10.5116 24.9269 13.4613 23.3033 16.7573C21.0842 21.2621 19.0427 26.9932 18.2364 30.9817C17.989 32.2055 17.9612 32.2887 17.7259 32.5113C17.4707 32.7527 17.1752 32.8571 16.5191 32.9374C15.8153 33.0237 15.2527 32.9798 14.9265 32.8134C14.5886 32.641 14.2572 32.2337 14.1737 31.8882C14.0492 31.3726 13.9559 23.0731 14.0424 20.2056C14.2168 14.4255 14.2957 12.7652 14.4569 11.4802C14.5077 11.0753 14.5388 10.7335 14.5261 10.7208C14.4568 10.6515 13.8824 11.2773 13.5084 11.8293C10.8583 15.7416 9.03922 20.897 8.17079 26.9562C7.79993 29.5437 7.60711 31.8892 7.45974 35.6058L7.37461 37.7525L7.17119 38.1342C6.86657 38.7057 6.24537 39.1719 5.19404 39.6179C3.96422 40.1396 3.32673 40.1778 2.88156 39.7566C2.54721 39.4403 2.53098 39.3588 2.53098 37.9975C2.53098 32.6956 3.68437 26.4378 5.6105 21.2894C7.53274 16.1514 10.0385 12.1476 13.4662 8.73711C14.7905 7.41938 15.5973 6.97487 16.2217 7.21894C16.4082 7.29185 16.7582 7.67345 16.8429 7.89626C17.0746 8.50569 17.178 10.0903 17.0824 11.5662C17.027 12.4226 17.0218 14.1018 17.062 18.2165L17.1159 23.7211L17.4523 22.8923C19.2303 18.5121 21.8084 13.5246 23.9793 10.2656C25.6618 7.73969 27.5728 5.61907 29.2545 4.41156C30.8297 3.28048 32.4794 2.89811 33.1931 3.49865C33.4395 3.70595 33.6177 4.08881 33.6187 4.41307C33.6201 4.84872 33.3244 5.98188 32.8188 7.47842C32.2808 9.07056 32.0179 10.022 31.6464 11.721C31.0431 14.4799 30.5881 17.424 30.3255 20.2676C30.2203 21.4061 30.2215 25.8064 30.3273 27.1729C30.6945 31.9131 31.4324 36.511 32.6682 41.7578C32.8206 42.405 33.1509 43.5616 33.402 44.328C33.9097 45.8771 34.178 46.8708 34.178 47.202C34.178 47.5111 33.9407 47.6261 33.3085 47.6234C32.0969 47.6181 29.8411 46.6516 28.4655 45.5484C27.7642 44.986 27.6143 44.7171 27.2673 43.399C27.209 43.1776 27.1409 42.9733 27.116 42.945C27.006 42.8202 20.6888 44.6478 16.6204 45.9813C11.4631 47.6717 5.91495 49.823 2.00919 51.6469C0.867322 52.1802 0.232309 52.441 0.0761294 52.441C-0.00764923 52.441 -0.0159907 52.3874 0.0207013 52.0849ZM83.7233 42.8468C83.1647 42.731 82.7324 42.2839 82.7324 41.8222C82.7324 41.6804 82.8693 40.9112 83.0365 40.1128C83.2038 39.3145 83.4563 38.076 83.5977 37.3607C83.7391 36.6454 83.8688 36.0114 83.8861 35.9517C83.9156 35.8496 83.7488 35.8434 80.987 35.8443C78.3382 35.8451 75.213 35.9071 73.2259 35.9983C71.4061 36.0818 68.7398 36.2194 68.4572 36.2444C68.2869 36.2594 67.8549 36.2883 67.4972 36.3085C67.1396 36.3287 66.7355 36.3565 66.5992 36.3702C66.463 36.3839 66.1007 36.412 65.7941 36.4327C65.0869 36.4805 62.4161 36.7001 62.0473 36.7407C61.894 36.7576 61.044 36.8421 60.1583 36.9286C58.7795 37.0632 57.8117 37.1668 56.6902 37.3C55.8356 37.4014 53.8342 37.6519 53.4697 37.703C53.2313 37.7365 52.5206 37.8349 51.8905 37.9218C46.2731 38.6965 39.9114 39.8518 34.5043 41.0792C33.9855 41.197 33.5363 41.2933 33.506 41.2933C33.4757 41.2933 33.3908 41.0356 33.3172 40.7205C33.1432 39.9751 32.6229 37.3769 32.6442 37.3598C32.6691 37.3398 36.7482 36.5502 37.7391 36.3735C41.2502 35.7475 45.7493 35.0861 49.1345 34.6982C49.6114 34.6435 50.0991 34.5872 50.2183 34.573C50.486 34.541 52.1807 34.3649 52.6027 34.3251C52.773 34.309 53.191 34.2681 53.5317 34.2341C54.0613 34.1813 55.3727 34.0729 56.9069 33.955C57.6506 33.8979 59.0386 33.803 59.6319 33.7688C59.9555 33.7501 60.4154 33.722 60.6538 33.7064C60.8922 33.6907 61.4357 33.6626 61.8615 33.6439C62.2872 33.6252 62.8725 33.5976 63.162 33.5826C65.2214 33.4754 69.6839 33.4159 73.102 33.45C75.248 33.4714 77.0873 33.5011 77.1895 33.516C77.2917 33.5309 77.9745 33.5602 78.7069 33.5811C79.4392 33.602 80.1638 33.6303 80.3171 33.644C80.8593 33.6924 83.4507 33.827 83.875 33.8288L84.3054 33.8306L84.7253 31.8797C85.3028 29.1963 85.8511 26.8493 86.5949 23.8764C86.942 22.4891 87.2076 21.3744 87.1852 21.3992C87.1628 21.424 86.768 21.9459 86.3079 22.559C85.1695 24.0761 84.2872 25.1274 83.325 26.1132C82.3581 27.1038 81.7386 27.6132 81.1532 27.8992C80.7645 28.089 80.6807 28.1076 80.3439 28.0788C79.5436 28.0105 78.9793 27.6507 78.7079 27.0356C78.561 26.7027 78.4317 25.7871 78.476 25.3936C78.4924 25.2482 78.4925 25.1292 78.476 25.1292C78.4597 25.1292 78.2503 25.3108 78.0105 25.5328C77.1368 26.3417 76.346 26.8665 74.9546 27.561C73.7896 28.1425 73.33 28.3244 72.6176 28.486C71.8701 28.6556 70.6783 28.6689 70.0982 28.5143C69.0276 28.2289 68.1224 27.2563 67.6872 25.9241L67.5524 25.5114L66.4564 26.2101C60.1013 30.2611 55.074 31.5972 51.8579 30.09C49.386 28.9317 48.0198 26.9332 47.6816 23.981C47.4054 21.5698 48.0698 18.0288 49.2362 15.6956C53.16 7.84697 58.4138 2.93581 65.3472 0.63536C66.5288 0.243308 67.0142 0.135153 68.0389 0.0355665C69.8033 -0.135896 71.7566 0.327185 72.5714 1.11012C73.0552 1.57502 73.4571 2.35513 73.635 3.17445C73.7366 3.64268 73.7244 5.30537 73.615 5.89573L73.5354 6.32555L73.2257 6.40547C72.7417 6.53041 72.1042 6.51054 71.795 6.36088C71.3174 6.12969 71.1636 5.73232 71.095 4.5529C71.0492 3.76434 71.0323 3.68033 70.8647 3.4093C70.5023 2.82317 69.8829 2.52018 68.8004 2.39954C67.8174 2.28999 66.2497 2.48861 65.1529 2.86165C64.1828 3.19159 62.7266 4.05102 61.5516 4.98711C60.729 5.64242 59.3995 6.99211 58.6528 7.92982C55.5165 11.8683 53.6582 16.8855 53.4635 21.9397C53.4177 23.1308 53.4976 23.6072 53.8702 24.363C54.1751 24.9815 54.5275 25.3818 55.1395 25.8049C57.4802 27.423 60.3207 27.4257 63.6263 25.8128C64.8891 25.1966 66.3216 24.2497 67.4624 23.277C67.7993 22.9897 67.847 22.9166 68.028 22.4097C68.4358 21.2674 69.3567 19.7635 70.3701 18.5848C72.1961 16.461 74.9773 14.6479 77.8924 13.6812C80.2279 12.9067 82.6226 12.702 83.5764 13.1955C84.3091 13.5746 84.5747 14.8319 84.1925 16.1122C83.9747 16.8414 83.7262 17.4324 82.9724 19.0134C82.4282 20.1549 82.011 21.1167 81.5416 22.3113C81.2811 22.9744 81.4374 23.8972 81.8176 23.941C82.4466 24.0135 84.8162 22.0387 85.9656 20.4843C86.7163 19.469 88.8243 16.3325 88.9247 16.0815C89.3246 15.0815 91.3947 11.0984 92.277 9.63143C95.3502 4.52162 98.683 1.66402 102.525 0.845149C104.521 0.419673 106.073 0.980434 106.079 2.12909C106.081 2.44966 105.749 3.61663 105.597 3.82415C105.205 4.36014 104.216 4.29496 103.919 3.71355C103.854 3.58519 103.77 3.31437 103.732 3.11173C103.693 2.90268 103.611 2.6904 103.542 2.62105C103.426 2.50569 103.387 2.50291 102.846 2.57157C100.427 2.87817 98.1006 4.97698 95.8288 8.90312C95.0724 10.2103 93.578 13.3761 93.1658 14.5443C93.0819 14.7822 93.0831 14.7966 93.1837 14.7559C93.4272 14.6576 94.7523 14.3431 95.4527 14.2173C95.9838 14.122 96.4654 14.0815 97.1045 14.0786C97.9898 14.0745 98.0134 14.0779 98.3741 14.2616C98.8054 14.4813 99.1138 14.8832 99.1776 15.3086C99.2578 15.8434 99.2121 15.8742 98.0293 16.0822C95.7013 16.4916 93.6492 17.3688 92.099 18.6172C91.6362 18.9898 91.5706 19.0701 91.4088 19.4625C90.5661 21.505 89.5759 25.8712 88.7753 31.0746C88.3397 33.906 87.8052 38.0648 87.5575 40.5502C87.4749 41.3794 87.4617 41.401 86.76 41.863C85.6657 42.5834 84.4118 42.9896 83.7231 42.8468L83.7233 42.8468ZM73.5411 24.6337C74.7968 24.316 76.5723 23.1933 77.7173 21.993C79.0421 20.6043 80.5697 18.2354 81.0364 16.8463C81.2485 16.2152 81.2697 15.5501 81.0857 15.3036C80.8077 14.9313 80.6715 14.8792 79.9872 14.8832C79.4456 14.8864 79.2746 14.915 78.7688 15.0871C77.1123 15.6508 75.5091 16.6445 74.1612 17.943C72.9993 19.0623 72.2028 20.1288 71.651 21.3043C71.1082 22.4608 70.9899 23.331 71.2945 23.9272C71.4887 24.3074 71.798 24.6058 72.0802 24.6853C72.4371 24.7859 73.0209 24.7653 73.5411 24.6337ZM109.301 38.2537C107.322 37.8195 100.74 36.8543 97.3173 36.4962C95.475 36.3035 95.2627 36.2859 93.5395 36.1836C93.2329 36.1654 92.7591 36.1373 92.4866 36.1211C92.2141 36.1049 91.3645 36.0618 90.5987 36.0252C89.8328 35.9887 89.2003 35.953 89.1933 35.9459C89.1862 35.9389 89.2281 35.5854 89.2865 35.1605L89.3925 34.388L89.8867 34.4026C90.896 34.4324 95.0661 34.9513 97.2554 35.3196C100.881 35.9294 105.624 37.0308 108.991 38.0445C110.232 38.4181 110.32 38.4771 109.301 38.2537ZM107.452 32.4337C106.806 32.3036 106.185 31.7479 106.009 31.1427C105.721 30.1536 106.248 29.1289 107.208 28.8101C107.895 28.5816 108.79 28.8072 109.243 29.3235C109.603 29.7337 109.702 30.0043 109.702 30.5792C109.702 31.0304 109.678 31.1509 109.535 31.4229C109.145 32.1666 108.259 32.5964 107.452 32.4337ZM108.505 31.9357C109.405 31.4823 109.566 30.0839 108.793 29.4318C108.502 29.1864 108.24 29.0928 107.846 29.0928C107.256 29.0928 106.777 29.3907 106.5 29.9288C106.313 30.2902 106.323 30.9147 106.521 31.2988C106.889 32.0151 107.78 32.3008 108.505 31.9357ZM107.086 30.5947L107.102 29.4954L107.55 29.4772C108.374 29.4438 108.717 29.6458 108.704 30.1559C108.697 30.4259 108.601 30.5669 108.356 30.6701L108.185 30.7421L108.463 31.1716C108.616 31.4078 108.742 31.6237 108.742 31.6514C108.743 31.6791 108.655 31.6931 108.546 31.6824C108.375 31.6655 108.314 31.604 108.077 31.214C107.839 30.8208 107.783 30.765 107.624 30.765H107.443V31.2295V31.6939H107.256H107.069L107.086 30.5947ZM108.236 30.3191C108.277 30.2782 108.31 30.1862 108.31 30.1147C108.31 29.9049 108.185 29.836 107.802 29.836H107.443V30.1147V30.3934H107.802C108 30.3934 108.195 30.3599 108.236 30.3191ZM96.7194 31.3757C96.0247 31.296 95.1143 31.049 94.595 30.7992C94.0473 30.5358 93.5137 29.991 93.1801 29.3547C92.3346 27.7419 92.6782 25.513 94.1533 23.0406C95.683 20.4768 97.5532 18.7566 100.178 17.4992C101.546 16.844 103.357 16.3263 104.594 16.2372C106.565 16.0951 107.715 17.3793 107.294 19.255C106.805 21.4378 105.249 22.9075 102.713 23.5805C101.569 23.8841 100.667 23.9736 99.2682 23.9222C98.6039 23.8979 97.9095 23.8738 97.725 23.8688L97.3895 23.8596L97.0296 24.5408C96.5701 25.4108 96.4196 25.8485 96.3755 26.4424C96.3434 26.8741 96.3559 26.9519 96.506 27.2588C96.7024 27.6601 97.0093 27.9487 97.332 28.0355C98.0818 28.2372 99.2122 28.2762 100.26 28.1366C102.096 27.8922 103.599 27.2571 104.811 26.2143C105.303 25.7913 105.299 25.7928 105.546 25.8961C105.812 26.0071 105.895 26.155 105.895 26.5179C105.895 27.158 105.461 27.8522 104.458 28.8186C102.846 30.371 101.009 31.1687 98.5559 31.3807C97.7121 31.4536 97.3919 31.4528 96.7194 31.3757ZM101.872 21.7614C103.184 21.4599 104.139 20.9077 104.754 20.0951C105.369 19.2832 105.478 18.7532 105.11 18.3662C104.85 18.0927 104.642 18.0071 104.235 18.0071C103.006 18.0071 100.553 19.6253 99.1198 21.3823L98.7662 21.8159L98.9398 21.8589C99.2455 21.9346 101.435 21.8619 101.872 21.7614ZM35.4212 30.6418C34.1115 30.2873 33.1568 29.5397 32.5731 28.4116C32.0477 27.3962 31.8504 26.4002 31.9057 25.0439C31.9728 23.4008 32.4085 22.0922 33.4691 20.3488C34.9374 17.9351 36.6767 16.0641 38.6371 14.7892C39.8852 13.9776 42.1643 12.9679 43.1266 12.8004C44.25 12.6047 45.3158 13.0374 45.7253 13.8552C46.1995 14.8019 46.0491 16.0625 45.4269 16.3578C45.1586 16.4851 44.7542 16.4873 44.492 16.3629C44.3055 16.2743 44.2869 16.2384 44.2512 15.8968C44.204 15.4456 44.0906 15.2133 43.8248 15.0237C43.6563 14.9035 43.5453 14.8795 43.1581 14.8795C42.766 14.8795 42.6309 14.9095 42.2911 15.0721C41.4679 15.4659 40.3707 16.3665 39.4895 17.3715C37.0964 20.1011 35.6622 23.2507 35.9127 25.2264C35.98 25.7572 36.1302 26.0854 36.4789 26.4638C36.9394 26.9633 37.498 27.1213 38.2487 26.9642C39.3854 26.7263 40.7676 25.8284 42.8718 23.9609C44.6359 22.3952 44.7196 22.3334 45.2308 22.2189C45.7925 22.093 46.1979 22.3373 46.2113 22.8098C46.2159 22.9736 46.0757 23.2233 45.5112 24.0564C44.0124 26.2685 43.3576 27.0942 42.2529 28.1652C40.9356 29.4423 39.7686 30.1482 38.2965 30.5583C37.4972 30.781 36.0871 30.8219 35.4212 30.6418ZM102.018 14.925C101.891 14.84 101.807 14.6097 101.807 14.3426C101.807 13.3188 103.555 11.8691 105.498 11.2802C106.253 11.0515 107.295 11.0354 107.821 11.2444C108.83 11.6459 109.066 12.7282 108.263 13.2751C108.101 13.3858 107.941 13.4111 107.178 13.4471C105.758 13.5142 104.651 13.7328 103.96 14.0822C103.799 14.1638 103.412 14.3976 103.102 14.6015C102.67 14.8849 102.484 14.9722 102.312 14.9715C102.188 14.971 102.055 14.95 102.018 14.925Z" fill="black"/>
<path d="M32.3201 47.4635C30.5163 46.9806 28.0988 45.5492 27.7127 44.7355C27.3188 43.9055 26.2975 39.4223 25.7575 36.153C25.1512 32.4825 25.024 27.8105 25.4168 23.6428C25.72 20.426 26.4562 16.7493 27.3909 13.7843C28.0662 11.6425 28.5956 10.3431 29.6599 8.21604C30.0673 7.40173 30.3827 6.73547 30.3607 6.73547C30.2885 6.73547 29.6348 7.30984 29.2004 7.75485C25.8871 11.1494 22.2532 17.9369 19.7825 25.3459C18.9982 27.6979 18.6023 29.1283 18.1986 31.0689C18.0487 31.7898 17.9177 32.268 17.8425 32.3695C17.5382 32.7799 16.9009 32.9533 15.8089 32.9226C15.1266 32.9034 15.0415 32.8877 14.8185 32.7399C14.4958 32.5261 14.2512 32.1622 14.1761 31.7843C14.0935 31.3684 13.9651 23.5319 14.0118 21.7539C14.1792 15.3775 14.344 12.025 14.5425 10.9623C14.5711 10.8088 14.568 10.6991 14.535 10.6991C14.3968 10.6991 13.8118 11.3409 13.4243 11.9176C11.2177 15.2017 9.5658 19.4493 8.59944 24.3238C7.94524 27.6238 7.62803 30.7838 7.4244 36.0291C7.3606 37.6727 7.332 37.8748 7.11316 38.2289C6.66874 38.948 4.95853 39.8744 3.79391 40.0269C3.38556 40.0803 2.9915 39.9155 2.741 39.5864L2.56192 39.3512L2.56595 37.7366C2.58263 31.0571 4.36127 23.3949 7.26803 17.4806C8.65303 14.6626 10.0911 12.4944 12.0332 10.2957C13.4529 8.6886 14.73 7.53021 15.383 7.25737C16.1376 6.94209 16.8035 7.43959 16.964 8.43859C17.012 8.73724 17.0394 11.1803 17.0522 16.2916C17.0623 20.3724 17.0822 23.7227 17.0963 23.7368C17.1105 23.7509 17.2994 23.3245 17.5162 22.7892C19.96 16.7557 23.4574 10.5121 26.1039 7.45827C28.5785 4.60288 30.5323 3.26571 32.249 3.2527C33.0183 3.24687 33.3943 3.50174 33.5665 4.14573C33.6783 4.5635 33.4853 5.40509 32.8166 7.41672C31.8911 10.2009 31.2314 13.144 30.7134 16.7994C30.2947 19.754 30.2484 20.4324 30.248 23.6118C30.2477 26.6364 30.2925 27.4974 30.5896 30.1766C31.1063 34.8362 32.3473 41.1534 33.3471 44.2134C33.8382 45.7165 34.178 46.9528 34.178 47.2362C34.178 47.3826 34.1374 47.4273 33.929 47.5107C33.5808 47.65 32.9474 47.6314 32.3201 47.4635ZM83.4446 42.7557C83.2129 42.6545 82.8106 42.2157 82.7582 42.0069C82.7045 41.7932 82.6844 41.9045 83.5247 37.7632C84.837 31.2957 85.5283 28.189 86.6391 23.7681C86.977 22.4234 87.2534 21.3126 87.2534 21.2997C87.2534 21.2867 86.9119 21.7319 86.4946 22.2891C84.1932 25.3615 82.3291 27.3109 81.1286 27.9005C80.2423 28.3357 79.0046 27.8552 78.6764 26.9484C78.6028 26.745 78.5572 26.3895 78.5368 25.8587L78.5065 25.071L77.9855 25.5345C76.9622 26.445 76.0644 27.0298 74.662 27.6993C73.7144 28.1517 73.0753 28.3811 72.4053 28.5093C71.789 28.6273 70.5969 28.6236 70.1315 28.5024C69.0765 28.2276 68.2313 27.3713 67.78 26.1201C67.6633 25.7965 67.5383 25.5386 67.5023 25.547C67.4662 25.5554 67.0532 25.8079 66.5844 26.1081C64.2609 27.5963 62.3553 28.6126 60.437 29.3867C58.0123 30.365 55.7239 30.8153 54.0485 30.6437C53.1602 30.5527 52.5411 30.3829 51.7825 30.0219C49.4704 28.9219 48.1429 27.0518 47.7336 24.3183C47.6115 23.5031 47.64 21.6604 47.79 20.6693C48.1036 18.5968 48.557 17.1146 49.3812 15.4678C52.5823 9.0714 56.8526 4.55146 62.1401 1.96313C63.6812 1.20872 65.6135 0.493003 66.8254 0.227672C68.6705 -0.176269 70.6055 0.00422131 71.9607 0.706657C72.6683 1.07346 73.1758 1.73038 73.4843 2.67895C73.6192 3.09376 73.6504 3.32555 73.676 4.10298C73.7081 5.0772 73.6096 6.19066 73.4824 6.29271C73.373 6.38042 72.7908 6.4879 72.4332 6.48639C71.5447 6.48263 71.1837 5.97414 71.1152 4.6298C71.0711 3.76467 70.9984 3.50803 70.7016 3.17085C70.194 2.59415 69.4892 2.37426 68.1475 2.37393C66.378 2.37349 65.1063 2.71667 63.5142 3.62423C58.8863 6.2623 55.0904 12.0565 53.8481 18.3786C53.5818 19.7338 53.4781 20.7895 53.4737 22.1874C53.4698 23.4483 53.4747 23.5007 53.6321 23.9055C53.9808 24.8016 54.3991 25.3294 55.1763 25.8537C56.6215 26.8287 58.1858 27.1999 59.9432 26.9848C62.2548 26.7019 64.8764 25.4379 67.2817 23.4464C67.8308 22.9918 67.8614 22.9532 67.9943 22.5484C68.1597 22.0445 68.5004 21.3432 68.9554 20.5698C71.2069 16.7435 75.8563 13.7541 80.6535 13.0483C83.3968 12.6447 84.4214 13.2225 84.3269 15.1201C84.2793 16.077 84.097 16.5944 82.9497 19.0289C82.3354 20.3323 82.0032 21.093 81.546 22.2429C81.3708 22.6836 81.3431 23.2333 81.4771 23.6118C81.5791 23.9002 81.6023 23.9228 81.8141 23.9404C81.965 23.953 82.1462 23.9064 82.3522 23.802C83.3236 23.3097 85.2664 21.5143 86.1099 20.3295C87.2843 18.6796 88.8634 16.2678 89.0497 15.8394C89.5666 14.6509 91.2585 11.4028 92.1626 9.86302C94.4995 5.88316 97.1985 3.0761 99.9635 1.74973C102.597 0.486251 105.123 0.387922 105.897 1.51869C106.024 1.70401 106.048 1.80876 106.041 2.14805C106.033 2.55343 105.819 3.37122 105.621 3.75401C105.483 4.02002 105.193 4.15853 104.768 4.1611C104.191 4.1646 103.907 3.88061 103.754 3.14539C103.62 2.50275 103.618 2.50082 102.977 2.54238C99.9934 2.73565 96.8333 6.20244 94.102 12.2783C93.6149 13.3617 93.0604 14.7308 93.0947 14.7651C93.1101 14.7804 93.3697 14.7226 93.6716 14.6367C95.0043 14.2576 96.8349 13.9949 97.5938 14.074C98.4892 14.1672 99.0603 14.6421 99.1804 15.3934C99.2291 15.6981 99.0821 15.8746 98.7297 15.9346C95.8223 16.4294 93.8081 17.2336 92.1269 18.5707C91.4991 19.07 91.4966 19.0744 90.9995 20.5772C89.8078 24.1795 88.6304 30.8102 87.6897 39.2165L87.4542 41.3202L87.2454 41.4969C86.6719 41.9824 85.565 42.5487 84.8005 42.7478C84.3624 42.8619 83.6969 42.8658 83.4446 42.7557ZM73.6297 24.6293C74.8747 24.2846 76.4679 23.2758 77.6545 22.0808C78.5839 21.1448 80.0099 19.127 80.5991 17.9141C81.1915 16.6948 81.3568 15.9614 81.1571 15.4385C81.0269 15.0977 80.7997 14.9272 80.35 14.8329C80.0535 14.7707 79.9297 14.7787 79.4282 14.8925C76.6869 15.5148 73.5699 17.8981 72.0036 20.5696C71.4029 21.594 71.0341 22.7652 71.11 23.4067C71.149 23.736 71.3944 24.2401 71.6179 24.45C71.965 24.7761 72.8233 24.8526 73.6297 24.6293ZM107.148 32.3374C106.738 32.1866 106.235 31.6898 106.084 31.2858C105.93 30.8757 105.919 30.3402 106.055 29.9403C106.191 29.5434 106.621 29.0812 107.023 28.9015C107.492 28.6918 108.219 28.6921 108.646 28.9022C109.325 29.2365 109.694 29.8235 109.699 30.5795C109.704 31.3369 109.354 31.9057 108.665 32.2616C108.321 32.4388 107.531 32.4783 107.148 32.3374ZM108.608 31.8989C109.028 31.6393 109.261 31.2312 109.291 30.7006C109.32 30.1849 109.23 29.8945 108.942 29.5757C108.242 28.8007 107.061 28.9186 106.535 29.8161C106.388 30.0678 106.362 30.1795 106.362 30.5774C106.361 31.0803 106.451 31.3269 106.753 31.653C107.218 32.1536 108.024 32.2604 108.608 31.8989ZM107.113 31.6526C107.09 31.6299 107.072 31.1422 107.072 30.5688V29.5263H107.663C108.509 29.5263 108.682 29.6328 108.682 30.1535C108.682 30.4142 108.472 30.703 108.282 30.703C108.146 30.703 108.154 30.7249 108.465 31.205C108.618 31.442 108.744 31.6489 108.744 31.6649C108.744 31.6808 108.662 31.6939 108.562 31.6939C108.404 31.6939 108.347 31.6381 108.109 31.2449C107.873 30.8549 107.812 30.7934 107.64 30.7765L107.443 30.7571V31.2255C107.443 31.6749 107.437 31.6939 107.299 31.6939C107.219 31.6939 107.136 31.6753 107.113 31.6526ZM108.151 30.3949C108.279 30.3463 108.31 30.293 108.31 30.1228C108.31 29.8721 108.243 29.836 107.779 29.836H107.443V30.1456V30.4553H107.718C107.869 30.4553 108.064 30.4281 108.151 30.3949ZM96.2605 31.2907C94.7263 31.0097 93.8934 30.5183 93.3046 29.5466C92.9334 28.934 92.8109 28.4814 92.7795 27.6064C92.7149 25.8015 93.3915 24.0232 94.9945 21.7849C97.1276 18.8063 100.743 16.691 104.417 16.272C105.738 16.1213 106.726 16.5831 107.187 17.5661C107.331 17.8731 107.35 17.9871 107.345 18.5334C107.331 20.0464 106.433 21.604 105.011 22.5799C103.411 23.6773 100.571 24.1753 97.8782 23.8307C97.3735 23.7661 97.4329 23.7168 96.9845 24.5718C96.2023 26.0628 96.1506 27.0339 96.8153 27.7489C97.1631 28.1231 97.9391 28.261 99.3858 28.2059C100.785 28.1527 101.885 27.9035 103.044 27.3775C103.62 27.1163 104.607 26.4617 104.932 26.1254C105.23 25.8172 105.476 25.7883 105.738 26.0309C105.895 26.1762 105.907 26.2194 105.883 26.5501C105.832 27.2624 105.203 28.1812 104.128 29.116C102.689 30.3674 101.074 31.0641 99.022 31.319C98.3226 31.406 96.8046 31.3904 96.2605 31.2907ZM101.591 21.8176C102.795 21.6216 103.703 21.1924 104.408 20.4855C105.43 19.4618 105.615 18.6179 104.918 18.1671C104.592 17.9567 104.247 17.9163 103.778 18.034C103.237 18.1699 102.012 18.7934 101.343 19.2733C100.266 20.0463 98.637 21.723 98.8391 21.8509C98.9835 21.9422 100.972 21.9181 101.591 21.8176ZM35.731 30.6976C34.5193 30.4599 33.4511 29.7642 32.8187 28.801C32.2007 27.8595 31.9199 26.7888 31.9207 25.3769C31.9217 23.544 32.3575 22.1725 33.5471 20.2586C35.8638 16.5311 38.6116 14.2842 42.4149 13.0071C42.9591 12.8244 43.1562 12.788 43.6226 12.7844C44.9383 12.7744 45.7095 13.3724 45.9476 14.5873C46.0894 15.3111 45.9085 15.9899 45.4915 16.2984C45.2628 16.4676 44.6852 16.4783 44.4404 16.318C44.3066 16.2303 44.2729 16.1604 44.2729 15.9711C44.2729 15.4989 44.0618 15.1221 43.6887 14.9281C43.5568 14.8595 43.3873 14.8416 43.0694 14.8625C42.2741 14.915 41.2914 15.531 40.0857 16.733C37.4086 19.4017 35.5696 23.1578 35.8999 25.2821C35.9401 25.5409 36.018 25.8398 36.0731 25.9461C36.2241 26.2383 36.7142 26.7353 36.9899 26.876C38.097 27.4408 39.9154 26.5858 42.5656 24.2545C44.8051 22.2844 44.8979 22.2201 45.5008 22.219C45.7833 22.2185 45.8567 22.2444 46.0117 22.3994C46.3363 22.7239 46.2884 22.8733 45.4707 24.0877C43.277 27.3459 41.7595 28.9283 39.8757 29.9219C38.5911 30.5995 36.8714 30.9213 35.731 30.6976ZM101.967 14.8279C101.339 14.2005 102.514 12.6693 104.316 11.7671C105.908 10.9692 107.524 10.8828 108.32 11.5529C108.546 11.7428 108.741 12.1368 108.741 12.4022C108.741 12.6826 108.536 13.0778 108.304 13.2426C108.116 13.3764 108.009 13.3936 107.105 13.4363C105.995 13.4887 104.994 13.6569 104.332 13.9024C104.089 13.9925 103.597 14.2596 103.238 14.496C102.465 15.0053 102.211 15.0718 101.967 14.8279Z" fill="black"/>
<path d="M32.6297 47.5204C31.1603 47.2062 29.0388 46.1034 28.0937 45.1624C27.7748 44.8448 27.7192 44.7494 27.5547 44.2357C27.0078 42.5285 25.949 37.5329 25.6381 35.1931C24.7091 28.2013 25.2945 20.7862 27.2989 14.154C27.9628 11.9577 28.5639 10.4553 29.6539 8.2683C30.091 7.3912 30.4348 6.67356 30.4178 6.67356C30.3386 6.67356 29.5788 7.33251 29.1554 7.76834C26.1306 10.8818 22.832 16.8131 20.4022 23.5077C19.2514 26.6785 18.5721 29.047 18.0143 31.8339C17.8935 32.4375 17.5224 32.7451 16.7672 32.8676C16.2499 32.9515 15.4452 32.9494 15.1341 32.8633C14.811 32.7738 14.3367 32.3027 14.2375 31.9726C14.1477 31.6736 14.0608 27.8617 14.0545 23.9482C14.0468 19.0873 14.3248 12.2186 14.5854 10.8294L14.6264 10.6106L14.4467 10.7248C14.1012 10.9444 13.9093 11.1701 13.3366 12.0306C11.3253 15.0527 9.77516 18.876 8.81673 23.1783C8.02333 26.7398 7.60675 30.402 7.42539 35.4098C7.39024 36.3806 7.34709 37.3233 7.32951 37.5046C7.27421 38.0753 6.96922 38.5336 6.37791 38.9349C5.22789 39.7152 3.69544 40.1818 3.17189 39.911C2.86158 39.7506 2.6062 39.4114 2.55908 39.0972C2.50462 38.7341 2.62687 35.6178 2.74746 34.2951C3.60274 24.9137 6.93751 16.1386 11.7264 10.6682C14.0035 8.06699 15.2527 7.0555 16.0123 7.19799C16.2697 7.24628 16.6201 7.54622 16.7759 7.85159C17.0072 8.30483 17.1536 10.4568 17.0331 11.6293C16.9566 12.3727 17.0107 23.9288 17.0902 23.8464C17.1161 23.8196 17.2763 23.4493 17.4463 23.0235C19.2062 18.6143 21.6741 13.825 23.9885 10.3275C26.3027 6.83027 29.0129 4.18561 30.9761 3.50894C31.9268 3.18125 32.7775 3.19088 33.168 3.53375C33.7674 4.05999 33.6959 4.75153 32.7542 7.5406C32.4839 8.34107 32.1496 9.44191 32.0113 9.9869C31.2417 13.0193 30.5883 16.8876 30.3062 20.0818C29.8424 25.3315 30.523 32.3139 32.2651 40.1786C32.7242 42.2511 32.9027 42.9247 33.3768 44.375C34.1205 46.6503 34.2571 47.3447 33.9891 47.4882C33.786 47.5969 33.067 47.6139 32.6297 47.5204ZM83.5151 42.7509C83.2009 42.6389 82.9436 42.3857 82.8229 42.0698C82.7307 41.8282 82.7341 41.7734 82.887 41.043C82.9759 40.6187 83.3521 38.7665 83.723 36.9272C84.8281 31.4481 85.6543 27.7637 86.7509 23.4261C87.0522 22.2339 87.2923 21.2506 87.2844 21.2409C87.2764 21.2313 86.865 21.7608 86.3702 22.4176C85.0598 24.1568 84.2631 25.0927 83.108 26.2497C81.4271 27.9334 80.8455 28.2294 79.7965 27.9351C79.5042 27.8531 79.3524 27.7618 79.101 27.517C78.6989 27.1255 78.5783 26.7541 78.5267 25.7485L78.4901 25.0363L78.1185 25.3828C77.2238 26.2171 76.3372 26.8279 75.1312 27.4407C73.353 28.3443 72.6205 28.5573 71.2751 28.562C70.5763 28.5644 70.2958 28.5402 70.0105 28.4526C69.024 28.1498 68.1591 27.2165 67.7702 26.0351C67.679 25.7582 67.5929 25.5112 67.5786 25.486C67.5644 25.4609 67.2669 25.6321 66.9175 25.8666C64.9759 27.1693 62.1368 28.6972 60.3751 29.3876C57.9662 30.3316 56.2313 30.6927 54.4368 30.6237C53.3651 30.5824 52.6184 30.4137 51.8211 30.0327C49.6517 28.9959 48.3945 27.3628 47.8555 24.8815C47.7297 24.3025 47.7143 24.0649 47.7154 22.7139C47.7164 21.4187 47.7373 21.0749 47.8585 20.3661C48.3038 17.76 48.8953 16.2024 50.4947 13.4241C54.2381 6.9216 59.252 2.64627 65.5154 0.615989C66.8632 0.179115 67.4246 0.0869297 68.7668 0.082091C69.9778 0.0777248 70.3025 0.117867 71.0893 0.369219C72.4327 0.798377 73.1288 1.5154 73.5148 2.86756C73.635 3.28873 73.6557 3.50852 73.657 4.3821C73.6585 5.43656 73.5562 6.26894 73.4184 6.3218C73.3763 6.33797 73.1289 6.38555 72.8686 6.42753C72.0643 6.55728 71.634 6.3868 71.3619 5.83063C71.2193 5.53911 71.1919 5.38412 71.1519 4.64354C71.1121 3.90414 71.0849 3.75003 70.9459 3.47567C70.5587 2.7116 69.6462 2.34123 68.1475 2.33979C66.6681 2.33838 65.5645 2.59183 64.2458 3.2358C63.2551 3.71961 62.3438 4.29589 61.4899 4.97842C60.753 5.56741 59.3264 7.00969 58.6799 7.8193C55.4275 11.892 53.4527 17.3309 53.4269 22.2875C53.4219 23.2344 53.4328 23.3353 53.5891 23.7977C53.8876 24.681 54.2552 25.1989 54.9483 25.7127C55.8067 26.3491 56.6225 26.7147 57.6628 26.9295C58.2119 27.0428 58.4379 27.0566 59.2913 27.0286C59.9697 27.0064 60.458 26.9558 60.8396 26.8682C62.9344 26.3871 65.3447 25.1041 67.4227 23.3641C67.8401 23.0146 67.876 22.9641 68.0276 22.5124C68.3493 21.5541 69.1525 20.1593 69.993 19.0995C72.4107 16.0511 76.3501 13.7864 80.416 13.1075C81.4403 12.9365 82.6756 12.9188 83.1676 13.068C83.8705 13.2812 84.249 13.8268 84.3253 14.7368C84.4023 15.6559 84.1058 16.5623 82.9005 19.0909C82.5758 19.7721 82.1082 20.8172 81.8615 21.4133C81.4711 22.3564 81.4095 22.5574 81.387 22.9616C81.3649 23.3577 81.3822 23.4671 81.5048 23.7048C81.6376 23.9621 81.6662 23.9829 81.8782 23.9766C82.4483 23.9597 84.495 22.3642 85.4842 21.1656C86.2617 20.2235 88.7919 16.501 89.0171 15.9679C89.5567 14.6903 91.3582 11.24 92.3168 9.64811C94.4581 6.09215 96.7309 3.62181 99.1989 2.16765C100.314 1.51036 101.919 0.948956 103.149 0.785227C104.406 0.617945 105.518 0.929459 105.9 1.5559C106.066 1.82779 106.053 2.33173 105.862 2.98751C105.663 3.67671 105.564 3.86389 105.319 4.01301C105.047 4.17911 104.51 4.17694 104.234 4.00862C104 3.86606 103.825 3.51429 103.76 3.05827C103.733 2.86612 103.665 2.70353 103.572 2.61116C103.439 2.47819 103.391 2.46916 103.004 2.50359C100.181 2.75469 97.4313 5.51492 94.8413 10.6991C94.1185 12.1459 92.9695 14.7637 93.0306 14.8247C93.0409 14.8351 93.2154 14.7919 93.4183 14.7287C95.0499 14.221 97.3409 13.962 98.1267 14.1965C98.7187 14.3731 99.1443 14.9134 99.1443 15.4882C99.1443 15.8203 99.0851 15.8534 98.2362 15.9964C97.3504 16.1455 96.1152 16.4724 95.348 16.7607C94.0915 17.233 92.6154 18.0818 91.8171 18.7912C91.5415 19.0361 91.4115 19.29 91.102 20.1877C89.8268 23.8859 88.5903 30.7969 87.5919 39.807C87.4087 41.4605 87.4512 41.3583 86.7528 41.823C85.5629 42.6146 84.2158 43.0007 83.5151 42.7509ZM73.3346 24.7287C74.6278 24.4547 76.3633 23.4046 77.6254 22.1327C78.6237 21.1265 79.9579 19.2594 80.5841 17.9923C81.0442 17.0612 81.1966 16.5897 81.23 15.9943C81.2549 15.5508 81.2425 15.4761 81.1121 15.2821C80.6551 14.6022 79.6735 14.6328 77.92 15.3818C76.306 16.0712 74.9938 16.9984 73.6533 18.3967C71.7074 20.4265 70.6919 22.7486 71.2418 23.911C71.6149 24.6997 72.2677 24.9548 73.3346 24.7287ZM107.307 32.3541C106.699 32.1827 106.228 31.7193 106.049 31.1152C105.933 30.7253 105.932 30.4325 106.045 30.0566C106.29 29.2429 106.978 28.7574 107.878 28.7627C108.548 28.7666 109.121 29.1051 109.474 29.7051C109.625 29.9617 109.642 30.0507 109.642 30.5792C109.642 31.0644 109.618 31.2109 109.507 31.4152C109.094 32.1792 108.137 32.5879 107.307 32.3541ZM108.334 32.0518C108.489 32.0058 108.703 31.8624 108.879 31.6868C110.024 30.5467 108.905 28.6489 107.357 29.1062C107.017 29.2067 106.504 29.7198 106.404 30.0599C106.022 31.351 107.066 32.4282 108.334 32.0518ZM107.133 30.5734V29.5147L107.758 29.536C108.354 29.5563 108.39 29.5654 108.532 29.7311C108.801 30.0439 108.689 30.5041 108.304 30.6659L108.128 30.74L108.405 31.1531C108.557 31.3803 108.682 31.5828 108.682 31.6032C108.682 31.6236 108.607 31.6314 108.516 31.6206C108.384 31.6051 108.293 31.5082 108.077 31.152C107.839 30.7588 107.783 30.703 107.624 30.703H107.443V31.1675C107.443 31.6217 107.44 31.632 107.288 31.632H107.133V30.5734ZM108.276 30.3177C108.403 30.1357 108.397 30.047 108.248 29.8979C108.154 29.8041 108.042 29.7741 107.784 29.7741H107.443V30.1147V30.4553H107.811C108.121 30.4553 108.194 30.4336 108.276 30.3177ZM96.5741 31.3134C95.9423 31.2328 95.0629 30.9852 94.59 30.7546C93.7589 30.3494 93.0395 29.3244 92.8484 28.2733C92.6142 26.9848 92.9238 25.4762 93.7605 23.8286C95.4584 20.485 98.2779 18.0487 101.781 16.898C104.047 16.1538 105.557 16.0823 106.427 16.6778C107.272 17.2562 107.536 18.2994 107.163 19.5864C106.482 21.9357 104.552 23.3529 101.43 23.7966C100.664 23.9056 98.9708 23.9183 98.0838 23.8218C97.3314 23.74 97.4096 23.6807 96.8856 24.7291C96.3032 25.8941 96.1755 26.6974 96.4782 27.2908C96.8172 27.9554 97.1123 28.1093 98.2828 28.2318C100.593 28.4737 103.397 27.5882 105 26.1102C105.229 25.8995 105.298 25.8675 105.452 25.9013C105.94 26.0084 106.005 26.5539 105.622 27.3286C105.438 27.7012 105.242 27.955 104.727 28.4873C104.365 28.8622 103.835 29.3448 103.548 29.5598C102.905 30.0421 101.899 30.5713 101.141 30.8251C99.7358 31.296 97.9423 31.4877 96.5741 31.3134ZM101.19 21.9055C102.347 21.7617 103.34 21.3927 104.081 20.8311C104.564 20.4649 104.923 20.0209 105.195 19.4531C105.44 18.9417 105.432 18.6868 105.162 18.3654C104.816 17.954 104.224 17.8446 103.568 18.0705C102.349 18.49 100.974 19.3945 99.855 20.5137C99.4381 20.9306 98.7108 21.7901 98.7108 21.8657C98.7108 21.964 100.489 21.9925 101.19 21.9055ZM35.8999 30.7018C34.1128 30.4211 32.7817 29.2618 32.2391 27.5135C31.9896 26.7097 31.929 26.1678 31.964 25.0542C31.9913 24.189 32.0227 23.944 32.1853 23.3332C32.4797 22.2271 32.8245 21.458 33.5461 20.2985C35.8582 16.5833 38.3966 14.4717 42.1982 13.101C43.5001 12.6316 44.6046 12.7206 45.2764 13.349C45.757 13.7985 45.9488 14.2712 45.9557 15.0227C45.9627 15.7868 45.7053 16.2613 45.2117 16.3942C44.9465 16.4656 44.7277 16.437 44.4432 16.2936C44.2903 16.2166 44.2728 16.1747 44.2719 15.8843C44.2688 14.9085 43.3658 14.5269 42.2867 15.0453C41.0595 15.6348 39.7274 16.866 38.4463 18.5945C37.1838 20.298 36.2493 22.2242 35.9399 23.7608C35.7937 24.4869 35.835 25.4881 36.0275 25.8859C36.2295 26.3031 36.6117 26.7066 36.9778 26.889C37.3647 27.0818 37.9886 27.1062 38.517 26.9493C39.5713 26.6362 41.1717 25.5555 42.9104 23.9827C43.8331 23.148 44.5892 22.5272 44.837 22.4008C45.1635 22.2342 45.5857 22.1828 45.8225 22.2809C46.0534 22.3765 46.2174 22.6681 46.171 22.9003C46.1316 23.097 44.7673 25.1224 43.9418 26.2096C43.2005 27.186 41.9263 28.4906 41.1273 29.0914C40.0922 29.8697 38.9517 30.4062 37.9156 30.602C37.2696 30.7241 36.3363 30.7703 35.8999 30.7018ZM102.074 14.9122C101.993 14.8779 101.91 14.7598 101.867 14.6171C101.557 13.584 103.488 11.8698 105.622 11.2832C106.196 11.1255 107.161 11.0959 107.597 11.2226C108.312 11.4305 108.634 11.7649 108.669 12.336C108.689 12.6518 108.669 12.7457 108.548 12.923C108.25 13.3573 108.174 13.3821 106.994 13.4306C105.237 13.5029 104.323 13.7576 103.231 14.478C102.565 14.9178 102.313 15.0124 102.074 14.9122Z" fill="black"/>
</svg>
