<svg width="164" height="49" viewBox="0 0 164 49" fill="none" xmlns="http://www.w3.org/2000/svg">
<path d="M48.723 23.41V35.1351C48.723 40.6641 51.2166 43.4892 56.122 43.4892C61.1938 43.4892 63.7708 40.7057 63.7708 35.1351V23.41H62.358V35.1351C62.358 39.9574 60.3624 42.2012 56.122 42.2012C51.2166 42.2012 50.1774 38.3777 50.1774 35.1351V23.41H48.723ZM81.3135 24.4921V26.4043H82.562V24.4921H82.4372H81.3135ZM133.114 24.4921V26.4043H134.402V24.4921H134.277H133.114ZM138.559 24.4921V28.8159H135.981V29.979H138.559V39.5815V39.8312C138.559 40.9121 138.807 41.7024 139.389 42.2428C140.22 43.0743 141.635 43.0751 142.758 43.0336H142.883V41.9099H142.758C141.594 41.9515 140.845 41.8677 140.388 41.4105C140.014 41.0779 139.847 40.4961 139.847 39.5815V29.979H143.382C143.424 30.1452 148.744 42.7423 148.786 42.8255C148.162 44.6131 147.789 45.6099 147.373 46.0256C146.708 46.6908 146.042 46.8996 144.545 46.8996H144.42V48.021H144.545C146.083 48.021 147.08 47.9788 147.87 47.3552C148.452 46.8979 148.909 45.9014 149.533 44.4464L155.561 28.8575H154.189V28.8159C154.189 28.8159 149.699 40.7868 149.491 41.3273C149.283 40.7868 144.379 28.8159 144.379 28.8159H139.847V24.4921H139.722L138.559 24.4921ZM73.0821 28.4829C70.8788 28.4829 68.9677 29.6458 68.1778 31.475V28.8159H66.8899V42.992H68.1778V35.341C68.1778 31.8905 70.0889 29.646 73.0821 29.646C76.9067 29.646 76.9087 32.9722 76.9087 34.0947V43.0336H78.1966V34.3028C78.155 32.6815 78.1539 28.4829 73.0821 28.4829ZM103.513 28.4829C101.85 28.4829 100.436 29.0646 99.3556 30.1454C97.9837 31.5173 97.2353 33.7206 97.2353 36.1317C97.1937 38.3766 97.9004 40.2883 99.1891 41.6186C100.27 42.741 101.808 43.3227 103.513 43.3227C106.922 43.3227 109.084 41.4945 109.666 38.1688L109.707 38.0439H108.419V38.1271C107.92 40.663 106.132 42.1596 103.555 42.1596C102.224 42.1596 101.103 41.703 100.23 40.83C99.1487 39.7492 98.5671 38.044 98.5671 36.1733V36.1317H109.832V36.0069V35.4658C109.832 33.3041 109.167 31.4342 108.003 30.187C106.839 29.1062 105.342 28.4829 103.513 28.4829ZM124.841 28.4829C123.635 28.4829 119.684 28.732 119.684 32.1825C119.684 35.2588 122.512 35.8408 124.591 36.2566L124.965 36.3398C127.169 36.7971 129.289 37.2117 129.289 39.3318C129.289 41.9093 126.296 42.1596 125.007 42.1596C122.43 42.1596 120.683 40.6215 120.517 38.2103V38.0855H119.27V38.2103C119.354 41.3282 121.557 43.2811 125.049 43.2811C126.337 43.2811 130.619 42.9901 130.619 39.2902C130.494 36.3386 128.206 35.6755 125.463 35.1351L125.049 35.0518C122.929 34.5946 120.933 34.1779 120.933 32.1825C120.933 30.3117 122.928 29.6044 124.841 29.6044C126.337 29.6044 128.831 30.0633 128.831 33.0564V33.1813H130.119V33.0564C130.119 30.1048 128.249 28.4829 124.841 28.4829ZM118.605 28.7326C116.318 28.6495 114.072 29.8954 113.324 31.6414V28.8159H112.036V42.992H113.324V35.2578C113.448 33.1376 113.907 32.3478 114.863 31.3085C116.36 29.8535 118.106 29.9374 118.605 29.979H118.729V28.7326H118.605ZM81.3135 28.8158V42.9919H82.562V28.8158H82.4372H81.3135ZM84.0997 28.8158L89.7946 42.9919H91.249L96.6133 28.8158H96.4468H95.1983C95.1983 28.8158 90.71 40.9948 90.5437 41.4105C90.3774 40.9948 85.5541 28.8158 85.5541 28.8158H84.0997ZM133.114 28.8158V42.9919H134.402V28.8158H134.277H133.114ZM103.513 29.646C106.672 29.646 108.378 32.3497 108.503 35.0518H98.5671C98.8165 32.3497 100.561 29.646 103.513 29.646Z" fill="black"/>
<path d="M81.5215 0.00585768C74.6206 -0.201996 70.8389 5.1606 70.6726 9.89977C70.5479 15.9277 75.2873 20.2516 80.9411 20.3763C85.805 20.5426 91.4156 17.0506 91.5819 10.3576C91.7066 3.70608 86.3439 0.0890035 81.5215 0.00585768ZM137.021 0.0890708C134.236 0.0890708 130.993 1.75099 130.993 5.24302C130.993 7.61261 132.407 9.11057 135.234 10.524C138.019 11.9374 140.138 12.5181 140.138 15.3034C140.138 16.7168 139.307 19.211 136.189 19.211C134.942 19.211 133.945 18.7963 133.155 18.1312C131.284 16.3852 131.326 14.9721 131.201 14.4316H130.91V18.797C132.24 19.5869 134.194 20.4179 136.314 20.4179H136.439C139.515 20.3763 142.799 18.09 142.799 14.4733C142.799 10.5655 140.056 9.65069 137.313 8.23726C134.527 6.86539 133.361 6.15879 133.361 4.32963C133.361 3.08248 134.111 1.25216 136.605 1.25216C137.395 1.25216 138.102 1.46056 138.684 1.75157C140.679 2.87401 140.804 4.45338 141.054 5.4511H141.345L141.178 1.04627C139.89 0.505832 138.891 0.255452 138.184 0.172306C137.769 0.1307 137.354 0.0890708 137.021 0.0890708ZM47.5992 0.29716V0.588484C48.2228 0.63009 48.5567 0.672033 48.7645 0.921415C48.8061 1.00452 48.8894 1.12741 48.931 1.21054C48.9726 1.29364 48.9705 1.41876 48.9705 1.54348V1.91803V17.9647C48.9705 19.5444 48.6801 19.7937 47.5577 19.8353V20.1266H51.7982V19.8353C50.6758 19.7522 50.3854 19.5444 50.3854 17.9647V4.20479C50.3854 3.95535 50.3438 3.45568 50.3438 3.45568L50.5935 4.20479L57.4516 20.0434H57.8678L64.8529 3.74699L65.0588 3.08112C65.0588 3.08112 65.0193 3.41438 65.0193 3.70538V17.9647C65.0193 19.5444 64.7267 19.7937 63.6043 19.8353V20.1266H69.2576V19.8353C68.1352 19.7522 67.8449 19.5444 67.8449 17.9647V1.91803C67.8449 0.754024 68.1352 0.671619 69.2577 0.588484V0.29716H64.8528L58.5336 15.2618L52.1311 0.29716H47.5992ZM93.0801 0.29716V0.588484C94.161 0.63009 94.4929 0.754024 94.4929 1.91803V17.9647C94.4929 19.5444 94.2026 19.7937 93.0801 19.8353V20.1266H97.3601V19.8353C96.2377 19.7522 95.9473 19.5444 95.9473 17.9647V3.53892C95.9473 3.78834 106.963 17.2166 109.374 20.1266H109.832V1.91803C109.832 0.754024 110.122 0.671619 111.245 0.588484V0.29716H107.048V0.588484C108.129 0.63009 108.461 0.754024 108.461 1.91803V14.5149L96.8213 0.29716H93.0801ZM120.475 0.29716C119.477 2.66675 114.822 13.6406 113.243 17.4237C112.951 18.0888 112.493 19.1282 112.16 19.5023C111.911 19.7933 111.661 19.7937 111.411 19.8353V20.1266H115.196V19.8353C114.905 19.8353 114.239 19.8346 114.198 19.2526C114.198 19.0864 114.239 18.88 114.322 18.6722C114.447 18.3396 115.195 16.3853 116.151 14.2235H123.675C124.424 16.0527 125.088 17.6325 125.421 18.3393C125.504 18.5471 125.712 19.0448 125.712 19.2526C125.712 19.7931 125.214 19.8353 124.674 19.8353V20.1266H129.953V19.8353C129.288 19.7937 129.081 19.6282 128.623 18.5473L120.85 0.29716H120.475ZM145.377 0.29716V0.588484C146.5 0.671585 146.79 0.879326 146.79 2.45905V17.9231C146.79 19.5028 146.5 19.7521 145.377 19.7937V20.085H151.031V19.7937C149.908 19.7106 149.616 19.5028 149.616 17.9231V10.5656H159.759V17.9647C159.759 19.5444 159.469 19.7937 158.347 19.8353V20.1266H164V19.8353C162.878 19.7522 162.587 19.5444 162.587 17.9647V2.50067C162.587 0.879371 162.878 0.671619 164 0.588484V0.29716H158.347V0.588484C159.469 0.671585 159.759 0.879326 159.759 2.45905V9.35873H149.616V2.45905C149.616 0.879326 149.908 0.630057 151.031 0.588484V0.29716H145.377ZM81.147 1.29378C85.512 1.29378 88.4234 4.87025 88.3818 10.524C88.3818 15.762 85.5121 19.0884 81.1886 19.0884C77.6134 19.0884 73.8311 16.2186 73.8311 9.81651C73.8311 4.45377 76.8235 1.29378 81.147 1.29378ZM119.851 4.82904C119.851 4.82904 121.64 9.31891 123.136 12.9772H116.609C117.898 9.81777 119.851 4.82904 119.851 4.82904Z" fill="black"/>
<path d="M29.1418 9.8168H28.8092V2.83275C29.1003 3.53947 29.1418 4.24619 29.1418 4.8282V9.8168ZM15.922 7.03149C16.3377 7.15621 16.795 7.23936 17.2939 7.28092V6.94835C16.8782 6.90674 16.4209 6.82364 16.0051 6.69892C15.4647 6.5742 14.9659 6.4495 14.467 6.4495C14.2176 6.4495 13.9681 6.4911 13.7603 6.5742V6.94835C13.9266 6.86525 14.176 6.82364 14.467 6.82364C14.9243 6.78203 15.4231 6.90674 15.922 7.03149ZM11.8895 6.78207C12.1805 6.78207 12.43 6.82368 12.5963 6.90678V6.53263C12.3884 6.44953 12.139 6.40792 11.8895 6.40792C11.3907 6.40792 10.8918 6.53263 10.3514 6.65735C9.93567 6.78207 9.51995 6.8652 9.06267 6.90678V7.23936C9.51995 7.19775 9.97724 7.11464 10.4345 6.98992C10.975 6.90682 11.4323 6.78207 11.8895 6.78207ZM11.8895 5.95063C12.1805 5.95063 12.43 6.03373 12.5963 6.07534V5.7012C12.3884 5.61809 12.139 5.61809 11.8895 5.57649C11.3907 5.57649 10.8918 5.7012 10.3514 5.82591C9.93567 5.95063 9.51995 6.03378 9.06267 6.07534V6.40792C9.56152 6.36632 9.97724 6.28321 10.4345 6.15849C10.975 6.03378 11.4323 5.90906 11.8895 5.95063ZM11.8895 7.65508C12.1805 7.65508 12.43 7.69668 12.5963 7.77978V7.40564C12.3884 7.32254 12.139 7.32254 11.8895 7.28092C11.3907 7.28092 10.8918 7.40564 10.3514 7.53036C9.93567 7.65508 9.51995 7.73821 9.06267 7.77978V8.11236C9.56152 8.07075 9.97724 7.94608 10.4345 7.86293C10.975 7.73821 11.4323 7.6135 11.8895 7.65508ZM11.8895 5.07762C12.1805 5.07762 12.43 5.16073 12.5963 5.20234V4.8282C12.3884 4.7451 12.139 4.70348 11.8895 4.70348C11.3907 4.70348 10.8918 4.8282 10.3514 4.95291C9.93567 5.07762 9.51995 5.16077 9.06267 5.20234V5.53492C9.51995 5.49331 9.97724 5.4102 10.4345 5.28548C10.975 5.20238 11.4323 5.07762 11.8895 5.07762ZM9.64467 30.5195C5.52906 23.7433 5.61221 17.1334 5.61221 16.302V0.296875H36.791V16.302C36.791 17.1334 36.8741 23.7433 32.7586 30.5195C29.1003 36.6721 23.5712 39.3743 21.2016 40.2058C18.8736 39.3743 13.3446 36.6721 9.64467 30.5195ZM17.959 29.2724L17.1276 28.6072L17.5849 27.6095L16.504 27.8174L16.0467 26.8612L15.5479 27.8174L14.5086 27.6095L14.9659 28.6072L14.1344 29.2724L15.1737 29.5218V30.6027L16.0467 29.9375L16.8782 30.6027V29.5218L17.959 29.2724ZM22.4072 36.0486L23.4465 35.5497L22.4072 35.0924L22.7813 34.0116L21.7005 34.4273L21.2432 33.388L20.7859 34.3857L19.705 33.97L20.1208 35.0508L19.0815 35.5081L20.1208 36.007L19.705 37.0879L20.7859 36.6721L21.2432 37.7114L21.7005 36.6721L22.7813 37.0879L22.4072 36.0486ZM20.1208 23.6602L19.2893 24.3669L20.3286 24.6163V25.6972L21.16 25.0321L22.033 25.6972L22.0747 24.6163L23.114 24.3669L22.2825 23.6602L22.7398 22.6625L21.6589 22.8703L21.2016 21.9142L20.7444 22.8703L19.6635 22.6625L20.1208 23.6602ZM23.7791 30.478L24.4026 29.8128L23.4881 29.6465L23.0723 28.8151L22.6566 29.6465L21.7421 29.8128L22.4072 30.478L22.2409 31.3925L23.0723 30.9768L23.9038 31.3925L23.7791 30.478ZM26.8554 27.1938L27.3542 26.3624H26.3981L25.9408 25.5309L25.4835 26.3624H24.5274L25.0262 27.1938L24.5274 28.0252H25.4835L25.9408 28.8567L26.3981 28.0252H27.3542L26.8554 27.1938ZM34.172 7.15621C33.9226 7.28092 33.7147 7.48879 33.59 7.73821C33.4653 7.94608 33.4237 8.15393 33.4237 8.36179C33.4237 8.4034 33.4237 8.44489 33.4237 8.52807C33.5484 8.44497 33.6731 8.36179 33.7979 8.27865C33.881 8.19555 33.9641 8.07078 34.0473 7.98765C34.1304 7.82136 34.172 7.57193 34.172 7.36407C34.172 7.28097 34.172 7.19779 34.172 7.15621ZM30.9294 11.937C31.1788 12.0617 31.4698 12.1032 31.7608 12.0617C32.0518 12.0201 32.2597 11.8954 32.4676 11.6875C32.2181 11.5628 31.9687 11.5212 31.6777 11.5628C31.3867 11.6044 31.1373 11.7707 30.9294 11.937ZM30.9294 11.4797C31.0541 11.2718 31.1373 11.0224 31.1373 10.773C31.1373 10.7313 31.1373 10.7313 31.1373 10.6899C30.8878 10.8146 30.68 10.9809 30.5137 11.1887C30.389 11.3966 30.3058 11.646 30.3058 11.8954C30.3058 11.937 30.3058 11.937 30.3058 11.9785C30.5968 11.8954 30.8047 11.7291 30.9294 11.4797ZM31.262 11.3966C31.3451 11.3966 31.3867 11.3966 31.4283 11.355C31.5945 11.2302 31.6777 11.064 31.7608 10.8561C31.8024 10.7314 31.8439 10.5651 31.8439 10.4404C31.8439 10.3157 31.8023 10.191 31.7608 10.0662C31.5945 10.191 31.4698 10.3157 31.3867 10.482C31.3867 10.8561 31.3451 11.1471 31.262 11.3966ZM32.0518 10.7314C32.0518 10.773 32.0518 10.773 32.0518 10.7314C32.1349 10.7314 32.1766 10.6898 32.2181 10.6483C32.3428 10.482 32.3844 10.3158 32.426 10.1079C32.426 10.0663 32.426 10.0248 32.426 9.98318C32.426 9.77532 32.3429 9.52589 32.2181 9.31803C32.0934 9.48432 31.9687 9.6506 31.9271 9.81689C32.0518 10.191 32.0934 10.4404 32.0518 10.7314ZM32.6338 9.89999C32.6338 9.9416 32.6338 9.9416 32.6338 9.89999C32.7169 9.89999 32.7586 9.85839 32.8001 9.77527C32.8417 9.65055 32.8832 9.52585 32.8832 9.35956C32.8832 9.31795 32.8832 9.23484 32.8832 9.19326C32.8416 8.94384 32.7169 8.69441 32.5091 8.48655C32.426 8.65284 32.3844 8.86069 32.3844 9.02698C32.5091 9.35956 32.5923 9.60898 32.6338 9.89999ZM33.0496 8.94384C33.0496 8.98544 33.0496 8.98544 33.0496 8.94384C33.1327 8.90223 33.1327 8.86074 33.1743 8.77756C33.1743 8.73595 33.1743 8.73595 33.1743 8.69446C33.1743 8.52816 33.1327 8.36188 33.0912 8.19559C33.0081 7.94617 32.8002 7.77987 32.5507 7.61358C32.5091 7.69668 32.5091 7.82145 32.5091 7.90459C32.5091 7.98769 32.5091 8.07087 32.5507 8.15402C32.8002 8.44502 32.9664 8.69441 33.0496 8.94384ZM33.2158 7.94612C33.2575 7.90451 33.2989 7.8214 33.2989 7.77983C33.2573 7.57198 33.2158 7.40568 33.0911 7.23939C32.9248 7.03154 32.7169 6.86525 32.4259 6.7821C32.4259 6.98997 32.4676 7.19782 32.5507 7.36411C32.8417 7.48883 33.0496 7.69668 33.2158 7.94612ZM33.1742 6.74054C33.0911 6.53268 33.008 6.3664 32.8417 6.24168C32.6338 6.07539 32.4259 5.99224 32.135 5.95068C32.1766 6.15853 32.2597 6.32482 32.3844 6.44953C32.6754 6.53263 32.9248 6.69897 33.1327 6.86525H33.1743C33.1743 6.86525 33.1742 6.82364 33.1742 6.74054ZM32.8417 5.95068C32.8417 5.86758 32.8001 5.82596 32.8001 5.74281C32.6754 5.57653 32.5506 5.45181 32.3843 5.36867C32.1349 5.24396 31.8855 5.20239 31.5945 5.24396C31.7192 5.41024 31.8023 5.57653 31.9686 5.70124C32.3012 5.70124 32.5922 5.78434 32.8417 5.95068ZM32.6754 11.2719C32.9248 11.1888 33.1327 10.9809 33.299 10.7314C33.008 10.6898 32.717 10.6898 32.4675 10.773C32.2597 10.8561 32.0518 11.064 31.8855 11.2719C32.0102 11.2719 32.1765 11.3135 32.3012 11.355C32.4259 11.355 32.5507 11.355 32.6754 11.2719ZM33.3821 10.3157C33.59 10.1494 33.7562 9.89999 33.881 9.60899C33.59 9.60899 33.299 9.69209 33.0911 9.85842C32.8832 10.0247 32.717 10.2326 32.6338 10.482C32.7585 10.4404 32.9248 10.4404 33.0495 10.4404C33.1743 10.4404 33.299 10.3988 33.3821 10.3157ZM34.1304 8.40341C33.881 8.48651 33.6315 8.61127 33.4237 8.81913C33.2574 9.02698 33.1743 9.27641 33.1327 9.56742C33.2574 9.52581 33.3821 9.48432 33.5484 9.4427C33.6731 9.3596 33.7562 9.27641 33.8394 9.19328C34.0472 8.98541 34.1304 8.69441 34.1304 8.40341ZM33.881 5.9091C33.6731 6.11696 33.5068 6.32482 33.4237 6.61582C33.3821 6.69892 33.3821 6.82369 33.3821 6.94839C33.3821 7.11469 33.4237 7.28097 33.4652 7.40568C33.5483 7.28097 33.673 7.19783 33.7562 7.11469C33.8393 6.98997 33.8809 6.86525 33.9225 6.74054C33.9641 6.65744 33.9641 6.53268 33.9641 6.44954C34.0057 6.28325 33.9641 6.11696 33.881 5.9091ZM33.0495 5.57653C33.0495 5.82596 33.1326 6.07539 33.299 6.32482C33.3406 6.2001 33.4237 6.07539 33.5068 5.95068C33.5484 5.82596 33.5899 5.70124 33.5899 5.57653C33.5899 5.28552 33.5068 5.0361 33.3405 4.78667C33.1742 5.0361 33.0495 5.28552 33.0495 5.57653ZM32.3844 4.37095C32.3844 4.45405 32.3844 4.57881 32.426 4.66195C32.4676 4.91138 32.6338 5.11924 32.8417 5.3271C32.8833 5.20239 32.9248 5.0361 32.9664 4.91138C32.9664 4.86977 32.9664 4.86977 32.9664 4.82828C32.9664 4.74518 32.9664 4.66198 32.9248 4.53727C32.8417 4.28784 32.717 4.03841 32.4675 3.83055C32.4259 3.99684 32.3844 4.16309 32.3844 4.37095ZM32.2597 4.8698C32.0934 4.7451 31.9271 4.66195 31.7608 4.57881C31.5114 4.4957 31.2204 4.5372 30.9709 4.62041C31.0957 4.7867 31.2619 4.91141 31.4282 4.99456C31.7192 4.95295 32.0518 4.95295 32.3012 5.03616H32.3428C32.3012 4.99456 32.3012 4.953 32.2597 4.8698ZM31.4698 3.29008C31.4698 3.49794 31.5114 3.7058 31.5945 3.91366C31.7192 4.16309 31.9271 4.32938 32.1765 4.45409C32.1765 4.28781 32.1765 4.16309 32.2181 3.99681C32.1765 3.87209 32.1765 3.74737 32.0934 3.66422C31.9687 3.4148 31.7608 3.20694 31.5114 3.08223C31.4698 3.16533 31.4698 3.20694 31.4698 3.29008ZM30.3889 3.37318C30.472 3.66418 30.6384 3.91362 30.8462 4.03834C31.0541 4.16304 31.3035 4.24619 31.553 4.28776C31.4699 4.20466 31.4282 4.12147 31.3451 3.99676C31.3035 3.91366 31.262 3.7889 31.2204 3.70575C31.1788 3.66415 31.1788 3.66415 31.1373 3.62265C30.971 3.45636 30.7215 3.37318 30.3889 3.37318ZM27.1463 9.89995C27.1463 10.1078 27.3126 10.3572 27.6868 10.3572H28.3935C28.3104 10.6067 28.2272 10.9808 28.2272 11.355C28.2272 11.8538 28.3103 12.2695 28.4766 12.5605C27.9362 12.4774 27.5621 12.3527 27.1879 12.1448H27.1463L27.0632 12.3527H27.1048C27.4374 12.519 27.7284 12.6021 28.1025 12.7268C28.1025 12.7268 28.3935 12.7684 28.6014 12.8099C28.5598 12.8515 28.5183 12.9346 28.5183 13.0178C28.5183 13.1841 28.643 13.3088 28.8093 13.3088C28.9756 13.3088 29.1003 13.1841 29.1003 13.0178C29.1003 12.9347 29.0587 12.8515 29.0172 12.8099C29.2251 12.7683 29.4745 12.7268 29.4745 12.7268C29.8486 12.6437 30.1812 12.5605 30.5138 12.3527H30.5554L30.4723 12.1032H30.4307C30.0565 12.3111 29.6824 12.4358 29.142 12.519C29.2667 12.228 29.3914 11.8122 29.3914 11.3134C29.3914 10.9392 29.3498 10.5651 29.2251 10.3157H29.9318C30.306 10.3157 30.4722 10.1078 30.4722 9.85837C30.4722 9.69208 30.3475 9.5258 30.1397 9.5258C29.9734 9.5258 29.8071 9.65052 29.8071 9.85837C29.8071 9.89998 29.8071 9.94147 29.8487 9.98309C29.8903 10.0247 29.8903 10.1078 29.7656 10.1078H29.3499V4.8282C29.3499 4.12147 29.3083 3.24846 28.8926 2.41704L28.7679 2.1676L28.6432 2.41704C28.2275 3.24846 28.1859 4.12147 28.1859 4.8282V10.1078H27.7702C27.6454 10.1078 27.6871 10.0247 27.6871 9.98309C27.6871 9.94149 27.7287 9.89999 27.7287 9.85837C27.7287 9.69208 27.604 9.5258 27.4377 9.5258C27.313 9.56741 27.1463 9.73366 27.1463 9.89995ZM26.2733 10.5235C26.1902 10.3572 26.0655 10.2325 25.8992 10.1078C25.8576 10.2325 25.8161 10.3572 25.8161 10.4819C25.8161 10.6067 25.8577 10.773 25.8992 10.8977C25.9408 11.1055 26.0655 11.2302 26.1902 11.3965C26.2318 11.3965 26.3149 11.4381 26.3565 11.4381V11.3965C26.2734 11.1471 26.2317 10.8561 26.2733 10.5235ZM26.0239 5.24392C25.7745 5.20231 25.4835 5.24392 25.234 5.36862C25.0678 5.45172 24.9015 5.57649 24.8183 5.74277C24.8183 5.82587 24.8183 5.86749 24.7767 5.95063H24.8183C25.0678 5.78434 25.3588 5.7012 25.6913 5.7012C25.816 5.57649 25.9408 5.4102 26.0239 5.24392ZM25.7329 9.85837C25.6913 9.69208 25.5666 9.5258 25.4419 9.35951C25.3172 9.56738 25.234 9.77523 25.234 10.0247C25.234 10.0663 25.234 10.1078 25.234 10.1494C25.234 10.3572 25.3171 10.5235 25.4419 10.6898C25.4835 10.7314 25.5666 10.7729 25.6082 10.8145V10.7729C25.5666 10.4403 25.6082 10.1909 25.7329 9.85837ZM24.7767 9.40108C24.7767 9.5258 24.8184 9.65052 24.8598 9.8168C24.9015 9.85841 24.9429 9.8999 24.9846 9.94152C24.9846 9.94152 24.9846 9.89991 25.0262 9.89991C25.0678 9.60891 25.1509 9.3179 25.3172 9.06848C25.3172 8.86062 25.2341 8.69433 25.1509 8.52804C24.943 8.73591 24.8183 8.98533 24.7767 9.23477C24.7767 9.27638 24.7767 9.35951 24.7767 9.40108ZM25.1093 8.23708C25.1509 8.15397 25.1509 8.07078 25.1509 7.98765C25.1509 7.90455 25.1093 7.77978 25.1093 7.69664C24.8599 7.86293 24.6936 8.02922 24.5689 8.27865C24.4858 8.44494 24.4858 8.61122 24.4858 8.77751C24.4858 8.81912 24.4858 8.81912 24.4858 8.86061C24.5274 8.90222 24.5689 8.98532 24.5689 9.02689C24.5689 9.02689 24.6105 9.02689 24.6105 8.98529C24.6936 8.69429 24.8599 8.44494 25.1093 8.23708ZM24.4857 6.7405C24.4857 6.7821 24.4857 6.8652 24.4857 6.90678H24.5274C24.7352 6.69892 24.9846 6.5742 25.2756 6.49106C25.4004 6.32478 25.4835 6.15849 25.5251 5.99221C25.2341 6.03381 24.9846 6.11691 24.7768 6.28321C24.6521 6.36631 24.5273 6.5742 24.4857 6.7405ZM24.361 7.77978C24.4026 7.82139 24.4026 7.9045 24.4026 7.98765C24.4026 7.98765 24.4026 7.98765 24.4442 7.98765C24.6105 7.73821 24.8184 7.53036 25.1094 7.40564C25.1925 7.23936 25.2341 7.0315 25.2341 6.82364C24.9431 6.90674 24.7353 7.07307 24.569 7.28092C24.4442 7.40564 24.361 7.57193 24.361 7.77978ZM24.1947 8.81909C24.0285 8.61122 23.779 8.4865 23.488 8.40337C23.5296 8.69437 23.6127 8.94379 23.779 9.15166C23.8621 9.23476 23.9869 9.31794 24.07 9.40108C24.1947 9.44269 24.3195 9.48418 24.4442 9.5258C24.4442 9.27636 24.3611 9.02694 24.1947 8.81909ZM23.779 9.60895C23.8621 9.89995 24.0285 10.1494 24.2363 10.3157C24.3194 10.3988 24.4442 10.4404 24.5689 10.4819C24.7352 10.4819 24.8599 10.4819 24.9846 10.5236C24.8599 10.2741 24.7352 10.0247 24.5273 9.89998C24.361 9.69212 24.07 9.60895 23.779 9.60895ZM24.361 10.773C24.5273 11.0224 24.6936 11.1887 24.9846 11.3134C25.1093 11.355 25.234 11.3965 25.3588 11.3965C25.4835 11.3549 25.6498 11.3549 25.7745 11.3134C25.6082 11.1055 25.4003 10.8977 25.1925 10.8145C24.943 10.6898 24.652 10.6898 24.361 10.773ZM25.1925 11.7291C25.4003 11.937 25.6498 12.0617 25.9408 12.1032C26.1902 12.1448 26.4812 12.0616 26.7306 11.9785C26.5228 11.7707 26.2733 11.646 25.9823 11.6044C25.7329 11.5213 25.4419 11.6044 25.1925 11.7291ZM27.3542 11.9785C27.3542 11.9369 27.3542 11.9369 27.3542 11.8954C27.3542 11.646 27.2711 11.3966 27.1463 11.1887C26.9801 10.9809 26.7722 10.8146 26.5228 10.6899C26.5228 10.7315 26.5228 10.7315 26.5228 10.773C26.5228 11.0224 26.6059 11.2718 26.7306 11.4797C26.8553 11.7291 27.0632 11.8954 27.3542 11.9785ZM26.2733 3.99676C26.2317 4.07986 26.1486 4.20462 26.0655 4.28776C26.3149 4.28776 26.5643 4.20466 26.7722 4.03834C26.9801 3.87204 27.1463 3.62262 27.2711 3.37318C26.9801 3.37318 26.6891 3.45628 26.4812 3.62262C26.4396 3.66422 26.4396 3.66422 26.3981 3.70572C26.3565 3.78882 26.3149 3.91362 26.2733 3.99676ZM25.4419 3.99676C25.4835 4.16304 25.4835 4.28776 25.4835 4.45404C25.7329 4.32933 25.9408 4.12147 26.0239 3.91362C26.1487 3.70575 26.1902 3.4979 26.1902 3.29003C26.1902 3.20693 26.1902 3.16533 26.1486 3.08218C25.8992 3.2069 25.6913 3.41475 25.5666 3.66418C25.525 3.7889 25.4835 3.87204 25.4419 3.99676ZM25.3172 5.07762C25.6498 4.99452 25.9408 4.99452 26.2318 5.03602C26.398 4.95292 26.5643 4.82816 26.6891 4.66187C26.4396 4.57877 26.1486 4.53715 25.8992 4.62027C25.6913 4.66187 25.525 4.74499 25.4003 4.91127C25.3587 4.95287 25.3587 4.99443 25.3172 5.07762ZM24.652 4.8282C24.652 4.8698 24.652 4.8698 24.652 4.9113C24.7351 5.03602 24.7767 5.20231 24.7767 5.32702C24.9846 5.11916 25.1093 4.9113 25.1925 4.66187C25.2341 4.57877 25.2341 4.45401 25.2341 4.37087C25.2341 4.20458 25.1925 3.99673 25.1094 3.83044C24.9015 4.0383 24.7352 4.24615 24.6521 4.53715C24.6937 4.62025 24.652 4.70348 24.652 4.8282ZM24.07 5.57649C24.07 5.7012 24.1116 5.82591 24.1531 5.95063C24.2362 6.07534 24.3194 6.20006 24.361 6.32478C24.4857 6.11691 24.6104 5.86749 24.6104 5.57649C24.6104 5.32705 24.4857 5.03605 24.361 4.78663C24.1947 5.03605 24.07 5.28548 24.07 5.57649ZM23.6543 6.4495C23.6543 6.5742 23.6543 6.65735 23.6959 6.7405C23.7375 6.8652 23.779 6.98992 23.8622 7.11464C23.9869 7.19774 24.0701 7.28092 24.1532 7.40564C24.1948 7.23936 24.2363 7.07307 24.2363 6.94835C24.2363 6.82364 24.2363 6.7405 24.1947 6.61578C24.1116 6.36635 23.9453 6.11691 23.7374 5.90906C23.6958 6.07534 23.6543 6.28321 23.6543 6.4495ZM23.4465 7.32249C23.4465 7.53036 23.4881 7.77978 23.6127 7.94608C23.6543 8.07078 23.7375 8.15393 23.8622 8.23708C23.9869 8.27868 24.1116 8.36179 24.2363 8.44494C24.2363 8.40333 24.2363 8.32022 24.2363 8.27865C24.2363 8.07078 24.1947 7.86293 24.07 7.65508C23.9453 7.40564 23.7375 7.19779 23.4465 7.07307C23.4465 7.19779 23.4465 7.28092 23.4465 7.32249ZM13.3445 10.6067C13.6355 10.3988 14.0097 10.3157 14.467 10.3157C14.9658 10.3157 15.4647 10.3988 16.0051 10.5651C16.5455 10.6898 17.1691 10.8561 17.7511 10.8145C17.7511 10.5235 17.7511 4.70348 17.7511 3.62262C17.7511 3.53952 17.7511 3.4979 17.7511 3.45633C17.1275 3.49793 16.504 3.33161 15.922 3.2069C15.4231 3.08218 14.9242 2.95746 14.5085 2.99904C13.885 2.99904 13.5524 3.2069 13.3445 3.37318V3.62262V10.6067ZM8.64692 10.773C9.22892 10.8146 9.81093 10.6899 10.3929 10.5235C10.9334 10.3988 11.4322 10.2741 11.9311 10.2741C12.3884 10.2741 12.7625 10.3988 13.0535 10.5651V3.62262V3.37318C12.8457 3.16533 12.5131 2.99904 11.8895 2.99904C11.4322 2.99904 10.9749 3.08214 10.4761 3.2069C9.89406 3.37318 9.31206 3.4979 8.64692 3.45633C8.64692 3.49793 8.64692 3.53943 8.64692 3.62262C8.64692 4.66191 8.64692 10.5235 8.64692 10.773ZM7.52447 11.937C7.52447 11.937 12.3884 11.937 12.5547 11.937C12.6794 12.1448 12.8872 12.3111 13.1782 12.3111C13.4692 12.3111 13.7187 12.1448 13.8018 11.937C13.9681 11.937 18.832 11.937 18.832 11.937V3.62262H18.6657H18.2084L18.25 3.7889V3.8305V11.355C17.8759 11.355 13.8018 11.355 13.594 11.355C13.5109 11.4797 13.4277 11.5213 13.1783 11.5213C12.9704 11.5213 12.8873 11.4797 12.8041 11.355C12.5963 11.355 8.8548 11.355 8.10651 11.355V3.8305V3.7889L8.14812 3.62262H7.52455L7.52447 11.937ZM9.35364 28.6072L21.2016 17.9649L33.0911 28.6488C33.881 27.1522 34.4214 25.6972 34.8787 24.3253L21.2016 12.0201L7.56605 24.2838C7.98176 25.6556 8.56377 27.1106 9.35364 28.6072ZM11.8895 8.4865C12.1805 8.4865 12.4299 8.52811 12.5962 8.61122V8.23708C12.3884 8.15397 12.1389 8.15397 11.8895 8.11236C11.3907 8.11236 10.8918 8.23708 10.3514 8.36179C9.93563 8.4865 9.51992 8.56965 9.06264 8.61122V8.94379C9.51992 8.90219 9.97721 8.77751 10.4345 8.69437C10.9749 8.61127 11.4322 8.4865 11.8895 8.4865ZM11.8895 9.35951C12.1805 9.35951 12.4299 9.40112 12.5962 9.48423V9.11008C12.3884 9.02698 12.1389 8.98536 11.8895 8.98536C11.3907 8.98536 10.8918 9.11008 10.3514 9.2348C9.93563 9.35951 9.51992 9.44266 9.06264 9.48423V9.8168C9.51992 9.77519 9.97721 9.65052 10.4345 9.56738C10.9749 9.44266 11.4322 9.31794 11.8895 9.35951ZM11.8895 4.24619C12.1805 4.24619 12.4299 4.32929 12.5962 4.37091V3.99676C12.3884 3.91366 12.1389 3.91366 11.8895 3.87204C11.3907 3.87204 10.8918 3.99676 10.3514 4.12147C9.93563 4.24619 9.51992 4.32933 9.06264 4.37091V4.70348C9.51992 4.66187 9.97721 4.57876 10.4345 4.45404C10.9749 4.32933 11.4322 4.24619 11.8895 4.24619ZM15.922 6.20006C16.3377 6.32478 16.795 6.40792 17.2938 6.4495V6.11691C16.8781 6.07531 16.4208 5.99221 16.0051 5.86749C15.4647 5.74277 14.9658 5.61806 14.467 5.61806C14.2175 5.61806 13.9681 5.65967 13.7602 5.74277V6.11691C13.9265 6.03381 14.176 5.99221 14.467 5.99221C14.9242 5.9091 15.4231 6.03381 15.922 6.20006ZM15.922 4.49562C16.3377 4.62033 16.795 4.70348 17.2938 4.74505V4.41248C16.8781 4.37087 16.4208 4.28776 16.0051 4.16304C15.4647 4.03834 14.9658 3.91362 14.467 3.91362C14.2175 3.91362 13.9681 3.95522 13.7602 4.03834V4.41248C13.9265 4.32938 14.176 4.28776 14.467 4.28776C14.9242 4.24616 15.4231 4.32937 15.922 4.49562ZM15.922 7.86293C16.3377 7.94603 16.8365 8.07078 17.2938 8.11236V7.77978C16.8365 7.73818 16.4208 7.65508 16.0051 7.53036C15.4647 7.40564 14.9658 7.28092 14.5085 7.28092C14.2591 7.28092 14.0097 7.32253 13.8018 7.36402V7.73817C13.9681 7.65507 14.2175 7.61346 14.5085 7.61346C14.9242 7.61346 15.4231 7.73821 15.922 7.86293ZM15.922 5.32705C16.3377 5.45177 16.795 5.53491 17.2938 5.57649V5.24392C16.8781 5.20231 16.4208 5.1192 16.0051 4.99448C15.4647 4.86976 14.9658 4.74505 14.467 4.74505C14.2175 4.74505 13.9681 4.78666 13.7602 4.86976V5.24392C13.9265 5.16082 14.176 5.1192 14.467 5.1192C14.9242 5.07759 15.4231 5.2023 15.922 5.32705ZM15.922 8.73594C16.3377 8.86066 16.795 8.94379 17.2938 8.98536V8.65279C16.8781 8.61119 16.4208 8.4865 16.0051 8.40337C15.4647 8.27865 14.9658 8.15393 14.467 8.15393C14.2175 8.15393 13.9681 8.19554 13.7602 8.27865V8.65279C13.9265 8.56969 14.176 8.52807 14.467 8.52807C14.9242 8.48647 15.4231 8.61118 15.922 8.73594ZM15.922 9.56738C16.3377 9.69208 16.795 9.77523 17.2938 9.8168V9.48423C16.8781 9.44262 16.4208 9.35951 16.0051 9.2348C15.4647 9.11008 14.9658 8.98536 14.467 8.98536C14.2175 8.98536 13.9681 9.02697 13.7602 9.11008V9.48423C13.9265 9.40113 14.176 9.35951 14.467 9.35951C14.9242 9.3179 15.4231 9.44261 15.922 9.56738ZM42.4448 27.2354L42.3617 27.4432C41.5718 30.0622 40.2415 32.6813 39.2853 34.3857L39.0775 34.7183L37.7056 33.4711C37.664 33.5542 37.5809 33.679 37.5393 33.7621C34.0473 39.3327 29.1418 43.3652 23.2802 45.5269L21.2016 46.2752L19.123 45.5269C13.303 43.4068 8.35595 39.3327 4.9055 33.7621C4.8639 33.679 4.8224 33.5543 4.73921 33.4711L3.32578 34.7183L3.11791 34.3441C2.16177 32.5981 0.873042 29.9791 0.0416066 27.4016L0 27.2354L3.36732 24.2006L3.78303 23.8265L3.94931 24.3253C4.11561 24.9489 4.32346 25.5309 4.53132 26.1129L5.48747 25.2399L5.86161 24.9074L6.0279 25.4062C6.73462 27.5264 7.69078 29.5218 8.81321 31.3094C11.7648 36.007 15.8804 39.4159 20.7443 41.2035C20.7443 41.2035 21.0769 41.3282 21.2432 41.3698C21.4095 41.3282 21.742 41.2035 21.742 41.2035C26.6059 39.4159 30.7631 36.007 33.6731 31.3094C34.7956 29.5218 35.7517 27.5264 36.4584 25.4062L36.6247 24.9074L37.955 26.1129C38.1629 25.5309 38.3707 24.9489 38.537 24.3253L38.7033 23.8265L42.4448 27.2354ZM2.7853 32.224L2.16172 28.2747L3.99088 26.6118C3.78302 26.1129 3.61673 25.5725 3.45044 25.0321C2.91001 25.5309 1.03928 27.1938 0.789852 27.4432C1.33029 29.1061 2.03701 30.769 2.7853 32.224ZM4.40659 32.8891C3.99088 32.1824 3.57516 31.4341 3.24259 30.6858L3.69988 33.5543C3.8246 33.388 4.11559 33.1385 4.40659 32.8891ZM39.2022 30.6858C38.8696 31.4341 38.4539 32.1824 38.0381 32.8891C38.3291 33.1385 38.5786 33.388 38.7449 33.5543L39.2022 30.6858ZM39.4516 28.3994C39.1606 28.1499 37.373 26.5286 36.8741 26.0714C36.1674 28.0668 35.2944 29.9791 34.2135 31.6835C31.2204 36.5059 26.9801 39.9979 21.9499 41.8686L21.2016 42.1181L20.4949 41.8686C15.4647 40.0395 11.2659 36.5059 8.2312 31.6835C7.15033 29.9791 6.27732 28.0668 5.5706 26.0714C5.03018 26.5286 3.28416 28.1499 2.99316 28.3994C3.6583 30.1454 4.53131 31.8498 5.48746 33.388C8.89634 38.8339 13.7187 42.7832 19.414 44.8618C19.414 44.8618 21.0769 45.4438 21.2432 45.5269C21.451 45.4438 23.1139 44.8618 23.1139 44.8618C28.8092 42.7832 33.6315 38.7923 37.0404 33.388C37.9134 31.8914 38.7864 30.187 39.4516 28.3994ZM41.6549 27.4016C41.4055 27.1522 39.5347 25.4893 38.9943 24.9905C38.828 25.5309 38.6617 26.0714 38.4539 26.5702L40.283 28.2331L39.6594 32.224C40.3662 30.769 41.1145 29.1061 41.6549 27.4016ZM5.82004 32.4734L5.86165 32.6397L5.73693 32.7228C5.65383 32.5981 5.61221 32.4734 5.52906 32.3071C5.44596 32.1824 5.36278 32.0576 5.27964 31.8914L5.40436 31.8497L5.52906 31.9745C5.65378 31.8497 5.86165 31.6835 5.94478 31.5172L5.65378 30.9767L5.07178 31.1015L5.11339 31.2677L5.03029 31.3094C4.98868 31.1846 4.90557 31.1015 4.864 30.9768C4.82239 30.8937 4.7809 30.8105 4.69771 30.6858L4.82242 30.6442L4.94714 30.7689C5.36286 30.7689 6.23587 30.6026 6.77629 30.5195C6.8594 30.6442 6.98416 30.7273 7.06729 30.8105L7.1089 30.9767L6.56847 31.6419C6.27748 31.9329 5.94475 32.3487 5.82004 32.4734ZM6.15261 31.351L6.65147 30.8105L5.90317 30.9768L6.15261 31.351ZM9.18734 34.4273L9.27044 34.3442C9.18734 34.2611 9.14574 34.1779 9.06259 34.0532C8.97949 33.9701 8.93787 33.8453 8.85473 33.7622L8.73002 33.8453L8.81312 34.0116C8.52211 34.2194 7.85697 34.7598 7.85697 34.7598C8.02325 34.261 8.23111 33.679 8.43896 33.1801C8.35586 33.097 8.31426 33.0138 8.23111 32.9307C8.1895 32.8476 8.10639 32.7644 8.06482 32.6813L7.98172 32.7644L8.06482 32.9307C7.94011 33.0554 7.81539 33.1385 7.6491 33.2632L7.19182 33.5958C7.02553 33.7205 6.90081 33.8037 6.73453 33.8868L6.60981 33.7621L6.52671 33.8452C6.60981 33.9283 6.65143 34.0115 6.73456 34.1362C6.81767 34.2193 6.85928 34.3441 6.94243 34.4272L7.02553 34.3441L6.90081 34.1362C7.19182 33.9284 7.56597 33.6374 7.89854 33.3879C7.69067 33.8868 7.52439 34.4272 7.31653 35.0092C7.35814 35.0508 7.39963 35.1339 7.44125 35.1755C7.48285 35.2171 7.52435 35.3002 7.56597 35.3418C7.73225 35.2171 7.89854 35.0508 8.14797 34.8845L8.60526 34.552C8.77155 34.4272 8.93783 34.3441 9.06255 34.261L9.18734 34.4273ZM9.35364 35.9654C8.89635 36.3811 8.93792 37.0047 9.31203 37.3789C9.56145 37.6283 9.81089 37.7946 10.2682 37.8362L10.3098 37.5867C10.0604 37.5451 9.8525 37.462 9.72778 37.2957C9.43678 37.0047 9.43678 36.589 9.76939 36.2564C10.102 35.9239 10.4761 36.0486 10.684 36.298C10.8087 36.4228 10.8918 36.589 10.8918 36.7553L10.8087 36.9216L10.8918 37.0463C11.0165 36.9632 11.1828 36.8385 11.3075 36.7969C11.2244 36.5475 11.0997 36.3812 10.9334 36.1733C10.4761 35.6329 9.81093 35.5497 9.35364 35.9654ZM13.3861 39.79C13.012 40.2473 12.4299 40.2889 11.8479 39.8316C11.3075 39.3744 11.2244 38.8339 11.6401 38.2935C12.0142 37.8362 12.6378 37.7946 13.1782 38.2519C13.7187 38.7092 13.8018 39.2912 13.3861 39.79ZM12.9704 38.5013C12.6794 38.2519 12.3052 38.3766 12.0142 38.6676C11.7232 39.0002 11.7232 39.3743 12.0142 39.6237C12.3052 39.8732 12.6794 39.7485 12.9704 39.4575C13.2198 39.1249 13.2614 38.7092 12.9704 38.5013ZM16.2961 41.1619C16.1714 41.4113 15.8804 41.4529 15.5894 41.3282C15.631 41.536 15.7141 42.2428 15.7557 42.3675L15.7973 42.4506L15.7142 42.5753C15.5479 42.4506 15.34 42.3674 15.1738 42.2843C15.1738 41.9517 15.1321 41.4529 15.0907 41.1619L14.9659 41.0788L14.8828 41.245C14.7581 41.4113 14.675 41.5776 14.6334 41.7023L14.7581 41.8271L14.675 41.9518C14.5503 41.8687 14.4256 41.7855 14.3009 41.7023C14.1762 41.6192 14.0514 41.536 13.8852 41.4529L13.9683 41.3282L14.1345 41.4113C14.2593 41.2866 14.3424 41.1203 14.4671 40.954L14.7581 40.4551C14.8828 40.2889 14.966 40.1226 15.0491 39.9978L14.9244 39.8731L15.0075 39.7484C15.0906 39.8315 15.2154 39.8731 15.2985 39.9563C15.4232 40.0394 15.5479 40.081 15.6727 40.1641C15.7974 40.2472 15.9221 40.2889 16.0468 40.372C16.4625 40.6214 16.4624 40.9125 16.2961 41.1619ZM15.6725 40.4552C15.5478 40.3721 15.5062 40.3721 15.4231 40.3305C15.3815 40.4136 15.2984 40.5383 15.2152 40.663L15.1321 40.7878C15.1738 40.8294 15.2152 40.8709 15.2569 40.9125C15.5063 41.0788 15.7142 41.0788 15.8389 40.8709C15.922 40.7046 15.8804 40.5799 15.6725 40.4552ZM18.832 42.7001C18.7904 43.0742 18.7489 43.6146 18.7489 43.8225L18.8736 43.9056L18.832 44.0303C18.7073 43.9472 18.541 43.9056 18.4163 43.8225C18.2916 43.7394 18.1253 43.6977 18.0006 43.6562L18.0422 43.5314L18.2085 43.5731C18.2501 43.4068 18.2916 43.1573 18.2916 42.9911L17.7096 42.7416L17.3354 43.1989L17.4601 43.282L17.4185 43.4067C17.2938 43.3651 17.1691 43.282 17.0859 43.2404C17.0028 43.1988 16.8781 43.1573 16.7949 43.1157L16.8365 42.991L17.0028 43.0326C17.3354 42.7832 17.9174 42.1596 18.3331 41.7023C18.4994 41.7439 18.6241 41.7439 18.7488 41.7854L18.9151 41.9101L18.832 42.7001ZM18.4163 41.9518L17.9174 42.5338L18.3331 42.7416L18.4163 41.9518ZM24.5273 43.4068C24.4442 43.2405 24.361 43.1158 24.2779 42.9079L24.07 42.4091C23.9869 42.2012 23.9038 42.0765 23.8622 41.9102L24.0285 41.8271L23.9869 41.7024C23.8621 41.7855 23.6959 41.8271 23.5711 41.9102C23.4464 41.9518 23.2801 42.035 23.1554 42.0765L23.197 42.2012L23.3633 42.1596C23.4464 42.3259 23.5296 42.4506 23.6127 42.6585L23.8206 43.1574C23.9037 43.3652 23.9453 43.4899 24.0285 43.6562L23.8622 43.7393L23.9038 43.864C24.0285 43.7809 24.1948 43.7393 24.3195 43.6562C24.4442 43.6146 24.6105 43.5315 24.7352 43.4899L24.6936 43.3652L24.5273 43.4068ZM28.1025 41.4945C28.0194 41.3698 27.8946 41.2035 27.8115 41.0372L27.5205 40.5383C27.3958 40.372 27.3126 40.2058 27.2711 40.081L27.3958 39.9563L27.3127 39.8316C27.188 39.9147 27.0632 39.9979 26.9801 40.0395C26.8554 40.1226 26.7307 40.1642 26.606 40.2473C26.6891 40.4968 26.8554 41.4945 26.897 41.7023C26.6891 41.536 25.9408 40.954 25.7745 40.7462C25.6498 40.8293 25.5251 40.9125 25.4419 40.954C25.3172 41.0371 25.1925 41.0788 25.0678 41.1619L25.1509 41.2866L25.3172 41.245L25.4419 41.4944C25.5666 41.7439 26.0239 42.4922 26.107 42.7L25.9823 42.8247L26.0654 42.9495C26.1485 42.9078 26.2733 42.8247 26.3564 42.7832C26.4395 42.7416 26.5643 42.6584 26.6474 42.6169L26.5643 42.4922L26.398 42.5753C26.3149 42.4505 26.1902 42.2843 26.107 42.118L25.9408 41.827C25.816 41.5775 25.6913 41.4113 25.6498 41.3281C26.3565 41.9517 26.7722 42.2427 26.9385 42.409L27.1879 42.2427L26.8553 40.5798C26.8969 40.6629 27.0216 40.8293 27.1463 41.0787L27.3126 41.3697C27.4373 41.536 27.4789 41.7023 27.5621 41.8685L27.4373 41.9933L27.479 42.118C27.6037 42.0349 27.7284 41.9517 27.8531 41.8685C27.9778 41.7854 28.1441 41.7023 28.2688 41.6191L28.2272 41.4944L28.1025 41.4945ZM30.0148 40.0395C29.8901 39.9147 29.7654 39.79 29.6406 39.6237L29.3912 39.2912C29.2665 39.1665 29.1418 39.0002 29.0586 38.8339C29.1003 38.7923 29.1417 38.7092 29.2249 38.6676C29.4328 38.5013 29.5991 38.5429 29.7238 38.6676C29.8485 38.8339 29.8901 39.0417 29.6822 39.1665C29.6406 39.2081 29.5991 39.2496 29.5575 39.2496L29.6406 39.499C29.7237 39.4574 29.8069 39.3743 29.89 39.3327C30.3057 39.0001 30.3057 38.5844 30.0979 38.2934C29.89 38.044 29.5574 38.0024 29.2248 38.2934C29.1417 38.3765 29.0586 38.4597 28.9338 38.5428C28.8091 38.6676 28.6844 38.7507 28.6013 38.8338C28.5182 38.9169 28.3934 39.0001 28.2687 39.0833L28.3518 39.1664L28.5181 39.0833C28.6428 39.208 28.7675 39.3327 28.8922 39.499L29.2248 39.9563C29.3495 40.1226 29.4742 40.2473 29.5574 40.372L29.4327 40.4967L29.5158 40.5798C29.6405 40.4967 29.7652 40.372 29.8899 40.2888C30.0146 40.2057 30.1394 40.1225 30.3056 39.9562L30.2225 39.8731L30.0148 40.0395ZM33.299 37.0463L33.3821 37.1294C33.2574 37.2125 33.1742 37.3373 33.0495 37.462C32.9248 37.5867 32.8416 37.7114 32.7169 37.7946L32.6338 37.7114L32.7169 37.5867C32.5922 37.5036 32.3428 37.3789 32.1765 37.2957L31.7192 37.753L32.0102 38.2519L32.1349 38.1688L32.218 38.2519C32.1349 38.335 32.0517 38.4182 31.9686 38.5013C31.8855 38.5844 31.8023 38.6676 31.7607 38.7507L31.6776 38.6676L31.7607 38.5429C31.636 38.1688 31.2203 37.3789 30.9709 36.8385C31.054 36.7138 31.1371 36.589 31.1787 36.4643L31.345 36.3812L32.0933 36.7138C32.4259 36.8801 32.9247 37.088 33.091 37.1295L33.299 37.0463ZM32.0102 37.171L31.3035 36.8384L31.6777 37.5036L32.0102 37.171ZM35.4191 34.3441L35.5022 34.4272C35.3775 34.5935 35.2528 34.7598 35.1697 34.9261C34.7955 34.9261 34.2966 34.8845 34.0056 34.8845L33.9225 35.0092L34.0472 35.1339C34.2135 35.2586 34.3383 35.3418 34.5045 35.4249L34.6293 35.3002L34.754 35.3833C34.6709 35.508 34.5461 35.6327 34.463 35.7575C34.3799 35.8822 34.2967 36.0069 34.172 36.1316L34.0472 36.0485L34.1304 35.8822C34.0056 35.7575 33.8809 35.6744 33.7146 35.5496L33.2574 35.2171C33.0911 35.0923 32.9663 35.0092 32.8001 34.8845L32.6753 35.0092L32.5506 34.9261C32.6337 34.843 32.7169 34.7598 32.7585 34.6351C32.8416 34.5104 32.9248 34.4272 33.0079 34.3025C33.091 34.1778 33.1742 34.0947 33.2574 33.97C33.5899 33.5127 33.8809 33.5542 34.0888 33.7205C34.2966 33.8868 34.3382 34.1778 34.2135 34.4272C34.4214 34.4272 35.1281 34.3856 35.2528 34.3856L35.4191 34.3441ZM33.881 34.1779C33.7562 34.0531 33.59 34.0947 33.4652 34.3026C33.3821 34.3857 33.3405 34.4688 33.299 34.5104C33.3821 34.552 33.4652 34.6767 33.6315 34.7598L33.7562 34.8429C33.7979 34.8013 33.8394 34.7598 33.881 34.7182C34.0472 34.5104 34.0472 34.3441 33.881 34.1779ZM36.8326 32.4318C36.4584 33.0554 35.918 33.2217 35.3775 32.8891C34.8787 32.5981 34.7124 32.0161 35.0865 31.3925C35.4607 30.769 35.9596 30.6027 36.5416 30.9353C37.0404 31.1847 37.2067 31.8083 36.8326 32.4318ZM36.2506 31.3925C35.8764 31.1847 35.5023 31.2263 35.2944 31.5173C35.0865 31.8498 35.2528 32.1824 35.627 32.4318C36.0011 32.6397 36.3753 32.5981 36.5831 32.3071C36.791 31.9745 36.6247 31.6004 36.2506 31.3925ZM21.2016 43.1573C20.9937 43.1573 20.7859 43.3652 20.7859 43.6146C20.7859 43.8641 20.9937 44.0719 21.2016 44.0719C21.451 44.0719 21.6589 43.8641 21.6589 43.6146C21.6589 43.3652 21.451 43.1573 21.2016 43.1573ZM4.9886 29.314C5.23803 29.314 5.44589 29.1061 5.44589 28.8982C5.44589 28.6488 5.23803 28.4409 4.9886 28.4409C4.73917 28.4409 4.57289 28.6488 4.57289 28.8982C4.57289 29.1061 4.78074 29.314 4.9886 29.314ZM37.4977 29.314C37.7471 29.314 37.955 29.1061 37.955 28.8982C37.955 28.6488 37.7471 28.4409 37.4977 28.4409C37.2898 28.4409 37.082 28.6488 37.082 28.8982C37.0404 29.1061 37.2483 29.314 37.4977 29.314Z" fill="black"/>
</svg>
