<svg width="154" height="26" viewBox="0 0 154 26" fill="none" xmlns="http://www.w3.org/2000/svg">
<path d="M56.6478 21.3607V15.1347C56.7297 13.6192 55.6852 12.2675 54.1902 11.9603C56.6887 12.0627 56.6478 9.01121 56.6478 9.01121V3.54304C56.7297 1.80224 55.4804 0.26624 53.7601 0H30.4333V25.3952H53.3505C56.5863 25.3952 56.6478 21.3607 56.6478 21.3607ZM45.3838 9.91233H40.8577V4.60801H45.3428C47.9233 7.55713 45.3838 9.91233 45.3838 9.91233ZM45.3838 20.2752H40.8577V14.9709H45.3428C47.9233 17.92 45.3838 20.2752 45.3838 20.2752Z" fill="#010101"/>
<path d="M76.8206 15.8106H79.1554V24.9447H90.1122V0.143433H79.1554V8.72456H76.8206V0.143433H65.8638V24.9447H76.8206V15.8106Z" fill="#010101"/>
<path d="M153.6 0.143433H142.643V24.9447H153.6V0.143433Z" fill="#010101"/>
<path d="M124.273 0.143433H116.449V24.9447H127.386V15.8106H137.318V9.37992H127.386V6.34888H139.018V0.143433H124.273Z" fill="#010101"/>
<path d="M113.726 8.97021H106.865V16.0768H113.726V8.97021Z" fill="#010101"/>
<path d="M104.53 0.143433H93.5733V24.9447H104.53V0.143433Z" fill="#010101"/>
<path d="M25.9072 20.5619V0H15.5443V18.6983C15.4624 19.3331 14.9095 19.8042 14.2746 19.8247C13.6397 19.8861 12.9843 19.8861 12.3495 19.8247C11.6122 19.9066 10.9363 19.4355 10.752 18.7187V13.2506H0V21.1763C0 23.2039 1.4336 24.9242 3.42016 25.3338H23.2858C26.2349 24.7194 25.9277 20.5415 25.9277 20.5415L25.9072 20.5619Z" fill="#010101"/>
</svg>
