<svg width="129" height="31" viewBox="0 0 129 31" fill="none" xmlns="http://www.w3.org/2000/svg">
<path d="M74.6731 26.8468C74.6731 27.0912 74.7398 27.2246 74.8953 27.2246C75.0064 27.2246 75.0953 27.1801 75.2065 27.1134L115.299 1.04453C116.01 0.577827 116.654 0.333362 117.61 0.333362H126.433C127.789 0.333362 128.7 1.24455 128.7 2.60022V19.4239C128.7 21.4463 128.255 22.6242 126.433 23.7131L115.743 30.1359C115.61 30.2248 115.477 30.2693 115.388 30.2693C115.254 30.2693 115.143 30.1804 115.143 29.8026V10.1564C115.143 9.93419 115.077 9.77862 114.921 9.77862C114.81 9.77862 114.721 9.82307 114.61 9.88974L85.2962 28.9358C84.4739 29.4692 83.8072 29.6248 83.0516 29.6248H63.6055C62.2498 29.6248 61.3386 28.7136 61.3386 27.3579V3.1336C61.3386 2.95581 61.2497 2.80024 61.1164 2.80024C61.0052 2.80024 60.9163 2.84469 60.8052 2.91136L41.4702 14.5346C41.2702 14.6457 41.2258 14.7568 41.2258 14.8457C41.2258 14.9346 41.248 15.0013 41.4036 15.1346L55.2047 28.9358C55.3825 29.1136 55.5159 29.2692 55.5159 29.4025C55.5159 29.5581 55.3159 29.647 55.0714 29.647H42.5814C41.6036 29.647 40.8479 29.4914 40.3146 28.958L31.9361 20.5795C31.8472 20.4907 31.7805 20.4462 31.6916 20.4462C31.6249 20.4462 31.5138 20.4906 31.4249 20.5351L17.4237 28.958C16.5792 29.4692 16.0014 29.6248 15.1569 29.6248H2.26686C0.91119 29.6248 0 28.7136 0 27.3579V10.8454C0 8.80076 0.444484 7.6451 2.26686 6.55612L13.0233 0.0888969C13.1345 0.0222245 13.2234 0 13.3123 0C13.4678 0 13.5567 0.177793 13.5567 0.533379V22.6242C13.5567 22.8464 13.6234 22.9575 13.779 22.9575C13.8679 22.9575 13.979 22.8909 14.0901 22.8242L50.4266 0.977862C51.2933 0.466707 51.8267 0.311138 52.8268 0.311138H72.384C73.7397 0.311138 74.6509 1.22233 74.6509 2.578L74.6731 26.8468Z" fill="black"/>
</svg>
