<svg width="54" height="58" viewBox="0 0 54 58" fill="none" xmlns="http://www.w3.org/2000/svg">
<path d="M52.5161 38.7974L49.6665 33.8967C53.8253 18.4833 38.173 4.70746 23.4243 10.8039C23.1648 10.9093 23.0412 11.2052 23.1466 11.4646C23.252 11.724 23.5479 11.8477 23.8073 11.7423C26.0894 10.812 28.5114 10.3499 30.9959 10.3803C42.9252 10.3418 51.9708 22.3968 48.6346 33.8358C48.5981 33.9675 48.6164 34.1074 48.6853 34.2249L51.6423 39.308C51.9362 39.8147 51.8206 40.4511 51.3666 40.82L48.8555 42.867C48.738 42.9642 48.6691 43.1081 48.6691 43.2601V44.5289C48.6691 44.914 48.3833 45.2342 48.0043 45.2828H45.4588C44.5974 45.2828 43.8982 44.5815 43.8982 43.7202C43.8982 43.4405 43.6712 43.2135 43.3915 43.2135C43.1118 43.2135 42.8848 43.4405 42.8848 43.7202C42.8848 45.141 44.0401 46.2962 45.4588 46.2962H48.0043C48.3833 46.3448 48.6691 46.665 48.6691 47.0501V47.8365C48.6691 47.9844 48.6265 48.1304 48.5434 48.254L47.907 49.2248C47.8381 49.3302 47.8097 49.4599 47.83 49.5856L48.1016 51.2495C48.359 52.5709 47.0922 53.8377 45.7728 53.5803C42.2726 52.7939 35.2195 51.209 31.7152 50.4226C30.7687 50.2341 30.0817 49.3971 30.0817 48.4324V47.0907C30.0817 46.811 29.8547 46.584 29.575 46.584C29.2953 46.584 29.0683 46.811 29.0683 47.0907V48.4324C29.0683 49.8795 30.0979 51.134 31.5065 51.4137L38.2006 52.9175L38.0446 55.9819H16.5731L17.548 42.0665C17.5581 41.9246 17.5075 41.7848 17.4082 41.6814C15.3997 39.5817 13.8979 37.0077 13.0648 34.2432C12.9838 33.9757 12.7 33.8237 12.4325 33.9048C12.165 33.9858 12.0129 34.2676 12.094 34.5371C12.9513 37.3847 14.4815 40.0359 16.5204 42.2207L15.5232 56.4568C15.5131 56.5967 15.5617 56.7345 15.659 56.8379C15.7543 56.9412 15.8901 57 16.0299 57H38.5266C38.7961 57 39.0191 56.7892 39.0332 56.5197L39.2055 53.1472C39.2359 53.1532 45.5635 54.578 45.592 54.5821C47.6005 54.9651 49.4752 53.1025 49.1043 51.092L48.8652 49.6226C49.1813 49.12 49.7286 48.4735 49.686 47.8432V47.0568C49.686 46.5663 49.4874 46.1184 49.1631 45.7961C49.4874 45.4739 49.686 45.026 49.686 44.5355V43.5079L52.0107 41.6129C52.8538 40.9259 53.0686 39.7443 52.5214 38.8039L52.5161 38.7974Z" fill="#325C45" stroke="#325C45" stroke-width="0.5"/>
<path d="M46.7398 27.3059C46.9627 27.468 47.2789 27.4214 47.4451 27.1944C47.6113 26.9695 47.5626 26.6512 47.3356 26.4851C47.2627 26.4324 45.4994 25.1718 41.5635 25.1718C41.2838 25.1718 41.0568 25.3987 41.0568 25.6784C41.0568 25.9581 41.2838 26.1851 41.5635 26.1851C45.1164 26.1851 46.7114 27.2856 46.7378 27.3039L46.7398 27.3059Z" fill="#325C45" stroke="#325C45" stroke-width="0.5"/>
<path d="M19.0241 33.666C18.6775 35.2124 19.9138 36.7446 21.5007 36.7264C22.7614 36.7264 23.8072 35.8001 23.9997 34.5922L32.0013 34.2436C32.9033 38.4248 38.9067 37.8958 39.0322 33.5849C39.0322 31.6717 37.5081 30.1111 35.6111 30.0442L34.5511 20.2712C34.5207 19.9936 34.2714 19.7909 33.9917 19.8213C33.714 19.8517 33.5114 20.101 33.5418 20.3807L34.6018 30.1536C34.0789 30.2874 33.6005 30.5367 33.1993 30.8772L27.1983 25.5429C28.3049 24.1141 28.615 21.915 27.9056 20.2087L31.8537 18.2346C33.2117 19.9188 35.9883 18.9561 35.9903 16.7652C35.9518 14.25 32.5895 13.5528 31.5396 15.8005L17.7394 12.8961C17.863 10.993 16.3085 9.3615 14.4054 9.36757C10.8971 9.41216 9.80262 14.0473 12.8569 15.6726L10.212 23.4086C10.1208 23.6741 10.2627 23.9619 10.5282 24.0511C10.7856 24.1403 11.0815 24.0024 11.1707 23.7349L13.8156 15.9989C14.6283 16.157 15.5262 15.9644 16.1929 15.5307L18.6858 18.3884C17.2711 19.8072 16.73 22.2028 17.4759 24.1404L12.0747 26.6819C10.052 23.5891 5.21607 24.9774 5.18182 28.7208C5.22033 32.5229 10.1676 33.8647 12.1297 30.6665L19.0184 33.666L19.0241 33.666ZM21.5007 35.713C20.6617 35.713 19.9807 35.032 19.9807 34.1929C20.0597 32.1784 22.9417 32.1784 23.0208 34.1929C23.0208 35.032 22.3398 35.713 21.5007 35.713ZM22.7168 27.8089C24.1882 27.8089 25.5279 27.2333 26.525 26.299L32.526 31.6332C32.2159 32.1014 32.0132 32.6445 31.9565 33.2303L23.9548 33.5789C23.74 32.7216 23.0914 32.0365 22.2544 31.7751L22.6577 27.8067C22.676 27.8067 22.6962 27.8087 22.7145 27.8087L22.7168 27.8089ZM38.0186 33.5852C38.0186 34.9816 36.8816 36.1186 35.4852 36.1186C32.1248 35.9788 32.1248 31.1896 35.4852 31.0518C36.8816 31.0518 38.0186 32.1888 38.0186 33.5852ZM33.6611 15.4458C34.3867 15.4458 34.9785 16.0376 34.9785 16.7632C34.9116 18.5083 32.4107 18.5083 32.3438 16.7632C32.3438 16.0377 32.9355 15.4458 33.6611 15.4458ZM31.3324 16.7916C31.3344 16.9761 31.3608 17.1544 31.4033 17.3267L27.4532 19.3007C25.844 16.6072 22.0074 15.8046 19.4536 17.7219L16.9607 14.8642C17.2039 14.5764 17.3985 14.244 17.5343 13.8853L31.3325 16.7896L31.3324 16.7916ZM12.0765 12.7098C12.0765 11.4248 13.1222 10.379 14.4072 10.379C17.5 10.5067 17.498 14.9128 14.4072 15.0405C13.1222 15.0405 12.0765 13.9947 12.0765 12.7098ZM18.3472 24.8518C18.6006 24.7322 18.71 24.4282 18.5884 24.1749C17.1474 21.232 19.4356 17.6203 22.7169 17.6753C25.2321 17.6753 27.2771 19.7202 27.2771 22.2355C27.2872 26.2383 22.3926 28.3054 19.5369 25.5046C19.3363 25.31 19.016 25.3141 18.8195 25.5147C18.6249 25.7154 18.6289 26.0356 18.8296 26.2322C19.616 26.9983 20.5928 27.505 21.6488 27.7077L21.2455 31.674C20.4956 31.749 19.841 32.1543 19.4275 32.7401L12.5388 29.7405C12.7394 29.0636 12.7273 28.2691 12.5104 27.6003L18.3453 24.854L18.3472 24.8518ZM8.93485 31.4567C7.42698 31.4567 6.19877 30.2285 6.19877 28.7206C6.34874 25.0907 11.5211 25.0927 11.671 28.7206C11.671 30.2285 10.4427 31.4567 8.93485 31.4567Z" fill="#325C45" stroke="#325C45" stroke-width="0.5"/>
<circle opacity="0.1" cx="22.8" cy="22.8" r="22.8" fill="url(#paint0_linear_70_156)"/>
<defs>
<linearGradient id="paint0_linear_70_156" x1="12.4364" y1="4.66364" x2="33.1636" y2="41.4545" gradientUnits="userSpaceOnUse">
<stop stop-color="#325C45"/>
<stop offset="1" stop-color="white"/>
</linearGradient>
</defs>
</svg>
