<svg width="15" height="13" viewBox="0 0 15 13" fill="none" xmlns="http://www.w3.org/2000/svg">
<path d="M5.83333 1.16914L4.5 2.50247M10.5 11.1691V12.5025M0.5 6.50247H13.8333M3.83333 11.1691V12.5025M5.16667 1.8358L4.24733 0.916472C4.05454 0.722785 3.80976 0.589115 3.54259 0.531633C3.27542 0.474152 2.99732 0.495322 2.74193 0.592583C2.48654 0.689843 2.26481 0.859027 2.10356 1.07967C1.94231 1.3003 1.84845 1.56294 1.83333 1.8358V9.83581C1.83333 10.1894 1.97381 10.5286 2.22386 10.7786C2.47391 11.0287 2.81304 11.1691 3.16667 11.1691H11.1667C11.5203 11.1691 11.8594 11.0287 12.1095 10.7786C12.3595 10.5286 12.5 10.1894 12.5 9.83581V6.50247" stroke="#687D92" stroke-linecap="round" stroke-linejoin="round"/>
</svg>
