<svg width="37" height="37" viewBox="0 0 37 37" fill="none" xmlns="http://www.w3.org/2000/svg">
<path d="M0 4C0 1.79086 1.79086 0 4 0H33C35.2091 0 37 1.79086 37 4V33C37 35.2091 35.2091 37 33 37H4C1.79086 37 0 35.2091 0 33V4Z" fill="#0A4773"/>
<path d="M13.25 11H23.75C24.1642 11 24.5 11.3358 24.5 11.75V26.1075C24.5 26.3145 24.3321 26.4825 24.125 26.4825C24.0546 26.4825 23.9855 26.4626 23.9258 26.4252L18.5 23.0235L13.0742 26.4252C12.8987 26.5352 12.6673 26.4822 12.5573 26.3067C12.5199 26.247 12.5 26.178 12.5 26.1075V11.75C12.5 11.3358 12.8358 11 13.25 11ZM23 12.5H14V24.0743L18.5 21.253L23 24.0743V12.5Z" fill="white"/>
</svg>
