<svg width="13" height="13" viewBox="0 0 13 13" fill="none" xmlns="http://www.w3.org/2000/svg">
<path d="M6.50016 11.9167C3.50862 11.9167 1.0835 9.49156 1.0835 6.50004C1.0835 3.5085 3.50862 1.08337 6.50016 1.08337C9.49168 1.08337 11.9168 3.5085 11.9168 6.50004C11.9168 9.49156 9.49168 11.9167 6.50016 11.9167ZM6.50016 10.8334C8.89341 10.8334 10.8335 8.89329 10.8335 6.50004C10.8335 4.10681 8.89341 2.16671 6.50016 2.16671C4.10693 2.16671 2.16683 4.10681 2.16683 6.50004C2.16683 8.89329 4.10693 10.8334 6.50016 10.8334ZM6.50016 5.73402L8.03221 4.20194L8.79824 4.96797L7.26619 6.50004L8.79824 8.03209L8.03221 8.79811L6.50016 7.26607L4.9681 8.79811L4.20207 8.03209L5.73414 6.50004L4.20207 4.96797L4.9681 4.20194L6.50016 5.73402Z" fill="#7B8189"/>
</svg>
