<svg width="12" height="12" viewBox="0 0 12 12" fill="none" xmlns="http://www.w3.org/2000/svg">
<path d="M0 2.07692C0 1.52609 0.218818 0.997815 0.608317 0.608317C0.997815 0.218818 1.52609 0 2.07692 0H9.92308C10.4739 0 11.0022 0.218818 11.3917 0.608317C11.7812 0.997815 12 1.52609 12 2.07692V9.92308C12 10.4739 11.7812 11.0022 11.3917 11.3917C11.0022 11.7812 10.4739 12 9.92308 12H7.13954C7.43039 11.7437 7.66421 11.4293 7.82585 11.0769H9.92308C10.2291 11.0769 10.5226 10.9554 10.739 10.739C10.9554 10.5226 11.0769 10.2291 11.0769 9.92308V2.07692C11.0769 1.7709 10.9554 1.47742 10.739 1.26103C10.5226 1.04464 10.2291 0.923077 9.92308 0.923077H2.07692C1.7709 0.923077 1.47742 1.04464 1.26103 1.26103C1.04464 1.47742 0.923077 1.7709 0.923077 2.07692V4.17415C0.57074 4.33579 0.256265 4.56961 0 4.86046V2.07692ZM2.07692 4.61538C1.52609 4.61538 0.997815 4.8342 0.608317 5.2237C0.218818 5.6132 0 6.14147 0 6.69231V9.92308C0 10.4739 0.218818 11.0022 0.608317 11.3917C0.997815 11.7812 1.52609 12 2.07692 12H5.30769C5.58044 12 5.85051 11.9463 6.1025 11.8419C6.35448 11.7375 6.58344 11.5845 6.7763 11.3917C6.96916 11.1988 7.12214 10.9699 7.22652 10.7179C7.33089 10.4659 7.38462 10.1958 7.38462 9.92308V6.69231C7.38462 6.41956 7.33089 6.14949 7.22652 5.8975C7.12214 5.64552 6.96916 5.41656 6.7763 5.2237C6.58344 5.03084 6.35448 4.87786 6.1025 4.77348C5.85051 4.66911 5.58044 4.61538 5.30769 4.61538H2.07692ZM0.923077 6.69231C0.923077 6.38629 1.04464 6.0928 1.26103 5.87642C1.47742 5.66003 1.7709 5.53846 2.07692 5.53846H5.30769C5.61371 5.53846 5.9072 5.66003 6.12358 5.87642C6.33997 6.0928 6.46154 6.38629 6.46154 6.69231V9.92308C6.46154 10.2291 6.33997 10.5226 6.12358 10.739C5.9072 10.9554 5.61371 11.0769 5.30769 11.0769H2.07692C1.7709 11.0769 1.47742 10.9554 1.26103 10.739C1.04464 10.5226 0.923077 10.2291 0.923077 9.92308V6.69231Z" fill="#687D92"/>
</svg>
