<svg width="44" height="40" viewBox="0 0 44 40" fill="none" xmlns="http://www.w3.org/2000/svg">
<path d="M22 21.16L30.48 29.64L27.64 32.48L24 28.84V40H20V28.84L16.36 32.48L13.52 29.64L22 21.16ZM22 0C24.3467 0 26.56 0.560001 28.64 1.68C30.6133 2.74667 32.2533 4.22667 33.56 6.12C34.8667 8.01333 35.6533 10.1067 35.92 12.4C37.4667 12.8267 38.8533 13.5533 40.08 14.58C41.3067 15.6067 42.2667 16.8533 42.96 18.32C43.6533 19.7867 44 21.3467 44 23C44 24.8933 43.56 26.64 42.68 28.24C41.8 29.84 40.5933 31.1533 39.06 32.18C37.5267 33.2067 35.84 33.8 34 33.96V29.92C35.12 29.76 36.14 29.3533 37.06 28.7C37.98 28.0467 38.7 27.22 39.22 26.22C39.74 25.22 40 24.1467 40 23C40 21.72 39.6867 20.5467 39.06 19.48C38.4333 18.4133 37.5867 17.5667 36.52 16.94C35.4533 16.3133 34.28 16 33 16C32.5733 16 32.16 16.04 31.76 16.12C31.92 15.4267 32 14.72 32 14C32 12.1867 31.5533 10.5133 30.66 8.98C29.7667 7.44667 28.5533 6.23333 27.02 5.34C25.4867 4.44667 23.8133 4 22 4C20.1867 4 18.5133 4.44667 16.98 5.34C15.4467 6.23333 14.2333 7.44667 13.34 8.98C12.4467 10.5133 12 12.1867 12 14C12 14.72 12.08 15.4267 12.24 16.12C11.8133 16.04 11.4 16 11 16C9.72 16 8.54667 16.3133 7.48 16.94C6.41333 17.5667 5.56667 18.4133 4.94 19.48C4.31333 20.5467 4 21.72 4 23C4 24.12 4.24667 25.1667 4.74 26.14C5.23333 27.1133 5.90667 27.9267 6.76 28.58C7.61333 29.2333 8.57333 29.6667 9.64 29.88L10 29.92V33.96C8.16 33.8 6.47333 33.2067 4.94 32.18C3.40667 31.1533 2.2 29.84 1.32 28.24C0.44 26.64 0 24.8933 0 23C0 21.3467 0.346667 19.7867 1.04 18.32C1.73333 16.8533 2.69333 15.6067 3.92 14.58C5.14667 13.5533 6.53333 12.8267 8.08 12.4C8.34667 10.1067 9.13333 8.01333 10.44 6.12C11.7467 4.22667 13.3867 2.74667 15.36 1.68C17.44 0.560001 19.6533 0 22 0Z" fill="#28A745"/>
</svg>
