<svg width="15" height="16" viewBox="0 0 15 16" fill="none" xmlns="http://www.w3.org/2000/svg">
<path d="M7.5 9.939V11.5061C7.0308 11.3402 6.52598 11.25 6 11.25C3.51472 11.25 1.5 13.2647 1.5 15.75H0C0 12.4363 2.68629 9.75 6 9.75C6.51795 9.75 7.0206 9.81562 7.5 9.939ZM6 9C3.51375 9 1.5 6.98625 1.5 4.5C1.5 2.01375 3.51375 0 6 0C8.48625 0 10.5 2.01375 10.5 4.5C10.5 6.98625 8.48625 9 6 9ZM6 7.5C7.6575 7.5 9 6.1575 9 4.5C9 2.8425 7.6575 1.5 6 1.5C4.3425 1.5 3 2.8425 3 4.5C3 6.1575 4.3425 7.5 6 7.5ZM10.5 12V9.75H12V12H14.25V13.5H12V15.75H10.5V13.5H8.25V12H10.5Z" fill="white"/>
</svg>
