<svg width="24" height="24" viewBox="0 0 24 24" fill="none" xmlns="http://www.w3.org/2000/svg">
<g clip-path="url(#clip0_1018_2119)">
<path d="M4.2 23.2C3.595 23.2 3.07708 22.9845 2.64625 22.5537C2.21542 22.1229 2 21.605 2 21V5.59995C2 4.99495 2.21542 4.47703 2.64625 4.0462C3.07708 3.61537 3.595 3.39995 4.2 3.39995H8.82C9.05833 2.73995 9.45708 2.20828 10.0163 1.80495C10.5754 1.40162 11.2033 1.19995 11.9 1.19995C12.5967 1.19995 13.2246 1.40162 13.7837 1.80495C14.3429 2.20828 14.7417 2.73995 14.98 3.39995H19.6C20.205 3.39995 20.7229 3.61537 21.1538 4.0462C21.5846 4.47703 21.8 4.99495 21.8 5.59995V21C21.8 21.605 21.5846 22.1229 21.1538 22.5537C20.7229 22.9845 20.205 23.2 19.6 23.2H4.2ZM4.2 21H19.6V5.59995H4.2V21ZM6.4 18.8H14.1V16.6H6.4V18.8ZM6.4 14.4H17.4V12.2H6.4V14.4ZM6.4 9.99995H17.4V7.79995H6.4V9.99995ZM11.9 4.77495C12.1383 4.77495 12.3354 4.69703 12.4913 4.5412C12.6471 4.38537 12.725 4.18828 12.725 3.94995C12.725 3.71162 12.6471 3.51453 12.4913 3.3587C12.3354 3.20287 12.1383 3.12495 11.9 3.12495C11.6617 3.12495 11.4646 3.20287 11.3087 3.3587C11.1529 3.51453 11.075 3.71162 11.075 3.94995C11.075 4.18828 11.1529 4.38537 11.3087 4.5412C11.4646 4.69703 11.6617 4.77495 11.9 4.77495ZM4.2 21V5.59995V21Z" fill="white"/>
</g>
<defs>
<clipPath id="clip0_1018_2119">
<rect width="24" height="24" fill="white"/>
</clipPath>
</defs>
</svg>
