<svg width="54" height="57" viewBox="0 0 54 57" fill="none" xmlns="http://www.w3.org/2000/svg">
<circle opacity="0.1" cx="22.8" cy="22.8" r="22.8" fill="url(#paint0_linear_608_383)"/>
<path d="M30.4964 23.4185H30.4886C26.1563 23.4243 22.6448 26.932 22.6311 31.2642C22.6252 35.6024 26.1388 39.1237 30.4769 39.1296C34.815 39.1354 38.3364 35.6219 38.3422 31.2838C38.3481 26.9456 34.8365 23.4243 30.4964 23.4185ZM30.4964 37.7031C26.9458 37.7089 24.0635 34.8344 24.0576 31.2838C24.0518 27.7332 26.9263 24.8508 30.4769 24.845C30.4808 24.845 30.4847 24.845 30.4886 24.845C34.0334 24.8489 36.9079 27.7195 36.9157 31.2642C36.9216 34.8149 34.0471 37.6972 30.4964 37.7031Z" fill="#152D55"/>
<path d="M31.8995 29.5661C31.8819 29.9609 32.1887 30.295 32.5834 30.3126C32.9782 30.3302 33.3123 30.0234 33.3299 29.6287C33.3319 29.6033 33.3299 29.5798 33.3299 29.5544C33.2537 28.3741 32.3744 27.401 31.2058 27.2095V26.4806C31.2058 26.0859 30.8853 25.7654 30.4906 25.7654C30.0959 25.7654 29.7754 26.0859 29.7754 26.4806V27.2017C28.6049 27.3971 27.7255 28.3722 27.6493 29.5564C27.7255 30.7367 28.6088 31.7059 29.7754 31.8915V33.8066C29.3963 33.6913 29.1247 33.361 29.0817 32.9683C29.0778 32.5735 28.7553 32.257 28.3586 32.2609C27.962 32.2648 27.6473 32.5872 27.6512 32.9839C27.7275 34.1642 28.6068 35.1373 29.7754 35.3288V36.0499C29.7754 36.4446 30.0959 36.7651 30.4906 36.7651C30.8853 36.7651 31.2058 36.4446 31.2058 36.0499V35.3288C32.3783 35.1354 33.2596 34.1583 33.3299 32.9722C33.2596 31.786 32.3704 30.809 31.196 30.6272V28.7239C31.579 28.8373 31.8565 29.1695 31.8995 29.5661ZM29.7734 30.3869C29.4002 30.2696 29.1286 29.9452 29.0797 29.5564C29.1207 29.1636 29.3943 28.8333 29.7734 28.72V30.3869ZM31.8995 32.9683C31.8506 33.363 31.5732 33.6913 31.1941 33.8066V32.1319C31.579 32.2413 31.8585 32.5716 31.8995 32.9683Z" fill="#152D55"/>
<path d="M53.5999 44.7809C53.596 44.777 53.5902 44.7711 53.5862 44.7672L53.4299 44.6109C52.0816 43.2645 50.2427 42.5239 48.3355 42.5591C48.2828 42.5551 48.23 42.563 48.1792 42.5786H48.1597C47.6242 42.5981 47.0947 42.6783 46.5768 42.8131C46.4009 42.8717 46.2446 42.9108 46.0883 42.9694L45.717 43.1062V29.955L45.8538 30.0722C46.4146 30.4846 47.0927 30.7112 47.7884 30.7171C49.5588 30.7171 50.9931 29.2828 50.9931 27.5123C50.9931 26.5177 50.532 25.5778 49.7425 24.972L45.717 21.8649V11.8012C45.7209 11.3635 45.3692 11.0039 44.9315 11C44.9256 11 44.9217 11 44.9158 11H40.1087C39.671 10.9961 39.3114 11.3479 39.3075 11.7856C39.3075 11.7915 39.3075 11.7954 39.3075 11.8012V16.9406L32.4231 11.6644C31.2858 10.7792 29.6913 10.7792 28.554 11.6644L22.8479 16.0417L22.8284 16.0807L22.4571 16.3543L16.7316 20.7511L11.2405 24.972C10.2322 25.736 9.77098 27.0258 10.068 28.2549C10.3318 29.6189 11.4945 30.6272 12.8819 30.6976C13.6831 30.7699 14.4804 30.5471 15.1292 30.0722V30.0527C15.1683 30.0332 15.2073 29.9941 15.2855 29.955V37.4979C15.1311 36.9273 14.8263 36.4075 14.4062 35.9932C13.7515 35.3288 12.8565 34.9556 11.9244 34.9575H7.80123C7.385 34.9673 7.04889 35.3034 7.03912 35.7196V54.9677C7.03912 55.3879 7.38109 55.7298 7.80123 55.7298H11.9244C13.3861 55.7357 14.6954 54.8309 15.2073 53.463C15.3637 53.0722 15.4438 52.654 15.4418 52.2319V52.1929L18.7228 53.463L25.4841 56.0816C27.0415 56.6873 28.6986 57 30.3694 57C32.5677 56.9941 34.7329 56.4587 36.6812 55.4367L40.4135 53.463L43.6183 51.763L50.2818 48.226L51.767 47.4444L53.3107 46.6236C53.4201 46.5689 53.5198 46.4966 53.6038 46.4087C54.0533 45.9573 54.0494 45.2284 53.5999 44.7809ZM13.9176 52.2319C13.9215 52.4039 13.8961 52.5759 13.8395 52.74C13.7945 52.8963 13.7281 53.0468 13.644 53.1875C13.5893 53.2852 13.5248 53.3771 13.4486 53.4591L13.4467 53.463C13.3607 53.5647 13.2689 53.6624 13.1731 53.7562C13.1536 53.7562 13.134 53.7952 13.134 53.7952C13.1223 53.7952 13.1145 53.8031 13.1145 53.8148C13.0168 53.8539 12.9191 53.932 12.8018 53.9907C12.667 54.063 12.5224 54.1157 12.3719 54.147C12.2254 54.1861 12.0749 54.2076 11.9225 54.2056H8.56138V36.4817H11.9244C13.0207 36.4935 13.9059 37.3787 13.9176 38.475V52.2319ZM40.9021 12.622H44.1068V20.6338L40.9021 18.1717V12.622ZM14.1502 28.7825C13.8277 29.0307 13.4213 29.144 13.0168 29.0952C12.3152 29.0991 11.7212 28.5793 11.6293 27.8836C11.4867 27.2583 11.7231 26.6076 12.2351 26.2226L16.3779 23.0179L23.4322 17.6245L23.7644 17.3705L23.9794 17.175L29.5291 12.9346C30.0997 12.5184 30.8735 12.5184 31.4441 12.9346L48.7576 26.2422C49.4611 26.76 49.6096 27.7488 49.0918 28.4523C48.785 28.8685 48.2964 29.1069 47.7806 29.0952C47.4347 29.103 47.0966 28.9916 46.823 28.7825C45.9241 28.079 31.7177 17.1555 30.9751 16.5888C30.6898 16.3875 30.3107 16.3797 30.0176 16.5693C29.9981 16.6084 14.1697 28.7825 14.1502 28.7825ZM38.8991 43.9387C38.4106 42.6919 37.2088 41.8712 35.8702 41.8693H30.0977C28.085 39.7295 25.2789 38.5121 22.3399 38.5082H16.8683V28.7239C18.0408 27.825 29.1598 19.266 30.4886 18.2303L44.1088 28.7239L44.1068 43.6924L43.6632 43.8566L43.4248 43.9426L43.0223 44.095L39.0945 45.5215C39.0945 45.4043 39.1336 45.2675 39.1336 45.1307C39.1375 44.7223 39.0574 44.3158 38.8991 43.9387ZM50.872 46.1918L49.2305 47.0516L40.3666 51.7571L37.1619 53.4572L35.9894 54.0825C32.9136 55.7083 29.2829 55.9155 26.0429 54.6492L22.975 53.4572H22.9652L18.5684 51.7571L15.4418 50.5514V40.0382H22.3399C24.9604 40.0382 27.4538 41.1716 29.1793 43.1453C29.3337 43.3036 29.5447 43.3935 29.7655 43.3993H35.8624C36.1887 43.3974 36.5092 43.4931 36.7808 43.6729C36.8727 43.7276 36.9586 43.7921 37.0349 43.8683C37.1208 43.9328 37.1931 44.011 37.2498 44.1028C37.3084 44.1829 37.3612 44.2689 37.4061 44.3568C37.4648 44.4526 37.5058 44.5581 37.5234 44.6695C37.5644 44.7692 37.584 44.8747 37.582 44.9822C37.5976 45.033 37.6055 45.0857 37.6016 45.1385C37.6035 45.2987 37.5781 45.457 37.5234 45.6075C37.5214 45.6231 37.5156 45.6368 37.5038 45.6466C37.4706 45.7912 37.412 45.9299 37.3299 46.053C37.2283 46.2074 37.1013 46.3461 36.9586 46.4634C36.8668 46.5474 36.7613 46.6119 36.646 46.6588C36.646 46.6686 36.6382 46.6783 36.6264 46.6783H36.6069C36.3763 46.7956 36.1223 46.8562 35.8643 46.8542H24.292C24.1924 46.8542 24.0927 46.8757 24.0009 46.9128C23.9051 46.9539 23.8191 47.0125 23.7468 47.0887C23.6941 47.1376 23.655 47.1981 23.6296 47.2646C23.571 47.3721 23.5378 47.4932 23.5319 47.6163C23.5319 48.0365 23.8739 48.3784 24.294 48.3784H35.8624C36.6538 48.3745 37.4179 48.0834 38.0119 47.5577L38.6372 47.3232L44.0697 45.33L44.8904 45.0369L46.571 44.4311L46.61 44.4116C46.8875 44.3099 47.1767 44.2376 47.4699 44.1966V44.181C47.5089 44.181 47.5676 44.1614 47.6242 44.1614C48.3512 44.0305 49.0976 44.0579 49.8128 44.2396C50.2447 44.3451 50.659 44.5093 51.0439 44.7281C51.2198 44.8258 51.3957 44.9235 51.5715 45.0408C51.7767 45.1854 51.9721 45.3417 52.1578 45.5098L50.872 46.1918Z" fill="#152D55"/>
<defs>
<linearGradient id="paint0_linear_608_383" x1="12.4364" y1="4.66364" x2="33.1636" y2="41.4545" gradientUnits="userSpaceOnUse">
<stop stop-color="#2A4570"/>
<stop offset="1" stop-color="white"/>
</linearGradient>
</defs>
</svg>
