<svg width="21" height="21" viewBox="0 0 21 21" fill="none" xmlns="http://www.w3.org/2000/svg">
<path d="M5.91672 14.484C3.70805 12.271 2.00949 9.60226 0.93985 6.66435C0.351375 5.05811 0.890553 3.29371 2.10037 2.0839L2.84906 1.33624C3.05034 1.13455 3.28942 0.974542 3.55261 0.865368C3.81581 0.756193 4.09795 0.699997 4.38289 0.699997C4.66783 0.699997 4.94997 0.756193 5.21317 0.865368C5.47636 0.974542 5.71544 1.13455 5.91672 1.33624L7.66982 3.08934C7.87151 3.29062 8.03152 3.5297 8.1407 3.79289C8.24987 4.05609 8.30607 4.33823 8.30607 4.62317C8.30607 4.90811 8.24987 5.19026 8.1407 5.45345C8.03152 5.71665 7.87151 5.95573 7.66982 6.15701L7.23848 6.58835C7.06583 6.76097 6.92887 6.96591 6.83542 7.19146C6.74198 7.41702 6.69389 7.65877 6.69389 7.90292C6.69389 8.14707 6.74198 8.38882 6.83542 8.61438C6.92887 8.83993 7.06583 9.04487 7.23848 9.21749L11.1822 13.1622C11.3548 13.3349 11.5597 13.4718 11.7853 13.5653C12.0109 13.6587 12.2526 13.7068 12.4968 13.7068C12.7409 13.7068 12.9827 13.6587 13.2082 13.5653C13.4338 13.4718 13.6387 13.3349 13.8113 13.1622L14.2437 12.7309C14.445 12.5292 14.6841 12.3692 14.9473 12.26C15.2104 12.1508 15.4926 12.0946 15.7775 12.0946C16.0625 12.0946 16.3446 12.1508 16.6078 12.26C16.871 12.3692 17.1101 12.5292 17.3114 12.7309L19.0645 14.484C19.2662 14.6853 19.4262 14.9243 19.5353 15.1875C19.6445 15.4507 19.7007 15.7329 19.7007 16.0178C19.7007 16.3028 19.6445 16.5849 19.5353 16.8481C19.4262 17.1113 19.2662 17.3504 19.0645 17.5516L18.3168 18.2993C17.107 19.5102 15.3426 20.0493 13.7364 19.4609C10.7984 18.3912 8.12969 16.6927 5.91672 14.484Z" stroke="white" stroke-width="1.4" stroke-linejoin="round"/>
</svg>
