<svg width="542" height="168" viewBox="0 0 542 168" fill="none" xmlns="http://www.w3.org/2000/svg">
<path fill-rule="evenodd" clip-rule="evenodd" d="M0 145.31V79.8893V65.97H31.7321C55.3625 65.97 71.5661 81.2812 71.5661 105.64C71.5661 130.695 55.3625 145.31 31.7321 145.31H0ZM16.8788 79.8893V130.695H32.4073C47.2606 130.695 56.0376 120.255 56.0376 104.944C56.0376 90.3288 47.2606 79.1934 32.4073 79.1934H16.8788V79.8893ZM137.731 92.4167L127.604 123.735L120.177 146.006H101.273V145.31C93.171 118.863 85.7443 93.1127 77.6425 66.6659V65.97H95.8716L105.324 97.9844L112.75 125.127L131.655 65.97H143.807L163.387 125.127L171.489 97.9844L180.941 65.97H198.495V66.6659C190.393 93.1127 182.966 118.863 174.864 145.31V146.006H155.285L137.731 92.4167ZM227.526 97.2885H263.984V65.274H280.188V145.31H263.984V111.904H227.526V145.31H211.323V65.97H227.526V97.2885Z" fill="#2F3A8C"/>
<path fill-rule="evenodd" clip-rule="evenodd" d="M304.476 41.5293H307.189C307.732 41.5293 307.732 41.5292 307.732 42.178V159.604C307.732 160.253 307.732 160.253 307.189 160.253H304.476C303.933 160.253 303.933 160.253 303.933 159.604V42.178C303.933 41.5292 303.933 41.5293 304.476 41.5293Z" fill="#2F3A8C"/>
<path fill-rule="evenodd" clip-rule="evenodd" d="M383.715 102.791H396.537L399.387 106.59C399.387 107.065 399.862 107.065 400.336 107.065H404.136C404.611 107.065 405.085 106.115 404.611 105.64L395.113 88.5438C394.163 87.1191 393.213 86.1693 391.313 86.1693H389.414C387.654 86.1693 387.116 86.9859 386.291 88.2392C386.226 88.3381 386.159 88.4397 386.09 88.5438L376.592 105.64C376.117 106.59 376.117 107.065 377.067 107.065H380.866C381.341 107.065 381.816 107.065 381.816 106.59L383.715 102.791ZM394.163 98.5166H386.09L390.364 90.9183L394.163 98.5166ZM483.443 107.065C483.918 107.065 484.393 106.115 483.918 105.64L479.169 99.9413C481.948 99.478 482.92 97.2074 484.289 94.0109L484.393 93.7676V92.3429C484.393 88.0689 482.018 86.1693 477.744 86.1693H462.073C461.123 86.1693 460.648 86.6442 460.648 87.594V106.115C460.648 106.59 461.123 107.065 461.598 107.065H464.922C465.397 107.065 465.872 106.59 465.872 106.115V100.891H474.42L478.694 106.59C478.694 107.065 479.169 107.065 479.644 107.065H483.443ZM475.37 96.617H464.922V90.9183V90.4434H475.37C477.269 90.4434 477.744 91.3932 477.744 92.8179V94.2425C477.744 96.1421 476.795 96.617 475.37 96.617ZM338.6 94.2425H325.778V87.1191C325.778 86.6442 325.303 86.1693 324.828 86.1693H321.504C321.029 86.1693 320.554 86.6442 320.554 87.1191V106.115C320.554 106.59 321.029 107.065 321.504 107.065H324.828C325.303 107.065 325.778 106.59 325.778 106.115V98.9915H338.6V106.115C338.6 106.59 339.075 107.065 339.55 107.065H342.874C343.349 107.065 343.824 106.59 343.824 106.115V87.1191C343.824 86.6442 343.349 86.1693 342.874 86.1693H339.55C339.075 86.1693 338.6 86.6442 338.6 87.1191V94.2425ZM370.418 94.2425H354.747C354.747 91.868 355.696 90.9183 358.071 90.4434H370.893C371.368 90.4434 371.843 89.9685 371.843 89.4936V86.6442C371.843 86.1693 371.368 85.6944 370.893 85.6944H358.071C352.372 85.6944 349.523 87.594 349.523 93.7676V98.5166C349.523 104.69 352.372 106.59 358.071 106.59H370.893C371.368 106.59 371.843 106.115 371.843 105.64V102.791C371.843 102.316 371.368 101.841 370.893 101.841H358.071C355.221 101.841 354.747 101.366 354.747 98.5166H370.418C370.893 98.5166 371.368 98.0417 371.368 97.5668V95.1923C371.368 94.7174 370.893 94.2425 370.418 94.2425ZM418.382 106.115V90.9183H426.931C427.406 90.9183 427.88 90.4433 427.88 89.9685V87.1191C427.88 86.6442 427.406 86.1693 426.931 86.1693H404.611C404.136 86.1693 403.661 86.6442 403.661 87.1191V89.9685C403.661 90.4433 404.136 90.9183 404.611 90.9183H413.159V106.115C413.159 106.59 413.634 107.065 414.108 107.065H417.433C417.908 107.065 418.382 106.59 418.382 106.115ZM453.05 94.2425H436.903C436.903 91.868 437.853 90.9183 440.228 90.4434H453.05C453.525 90.4434 454 89.9685 454 89.4936V86.6442C454 86.1693 453.525 85.6944 453.05 85.6944H440.228C434.529 85.6944 431.68 87.594 431.68 93.7676V98.5166C431.68 104.69 434.529 106.59 440.228 106.59H453.05C453.525 106.59 454 106.115 454 105.64V102.791C454 102.316 453.525 101.841 453.05 101.841H440.703C437.853 101.841 437.378 101.366 437.378 98.5166H453.05C453.525 98.5166 454 98.0417 454 97.5668V95.1923C454 94.7174 453.525 94.2425 453.05 94.2425Z" fill="#2F3A8C"/>
<path fill-rule="evenodd" clip-rule="evenodd" d="M458.749 134.609H445.927L444.027 138.408C444.027 138.883 443.552 138.883 443.077 138.883H439.278C438.328 138.883 438.328 138.408 438.803 137.458L448.301 120.362C448.371 120.257 448.438 120.155 448.503 120.056C449.328 118.803 449.865 117.987 451.625 117.987H453.525C455.424 117.987 456.374 118.937 457.324 120.362L466.822 137.458C467.297 137.933 466.822 138.883 466.347 138.883H462.548C462.073 138.883 461.598 138.883 461.598 138.408L458.749 134.609ZM448.301 130.335H456.374L452.575 122.736L448.301 130.335ZM419.332 132.709V137.933C419.332 138.408 418.858 138.883 418.383 138.883H415.058C414.584 138.883 414.109 138.408 414.109 137.933V119.412C414.109 118.462 414.584 117.987 415.533 117.987H431.205C435.479 117.987 437.853 119.887 437.853 124.161V126.061C437.853 130.335 435.479 132.234 431.205 132.234H419.332V132.709ZM419.332 122.736V127.96H429.78C431.205 127.96 432.155 127.485 432.155 125.586V124.636C432.155 123.211 431.68 122.261 429.78 122.261H419.332V122.736ZM326.253 117.987H339.075C339.55 117.987 340.025 118.462 340.025 118.937V121.787C340.025 122.261 339.55 122.736 339.075 122.736H326.253C323.404 122.736 322.929 123.686 322.929 126.061V130.335C322.929 133.184 323.404 134.134 326.253 134.134H339.075C339.55 134.134 340.025 134.609 340.025 135.084V137.933C340.025 138.408 339.55 138.883 339.075 138.883H326.253C320.554 138.883 317.705 136.983 317.705 130.81V126.061C317.705 119.887 320.554 117.987 326.253 117.987ZM353.797 117.987H362.82C368.519 117.987 371.368 119.887 371.368 126.061V130.81C371.368 136.983 368.519 138.883 362.82 138.883H353.797C348.098 138.883 345.249 136.983 345.249 130.81V126.061C345.249 119.887 348.098 117.987 353.797 117.987ZM350.473 126.535V130.81C350.473 133.659 350.948 134.134 353.797 134.134H362.345C365.194 134.134 365.669 133.184 365.669 130.81V126.535C365.669 123.686 365.194 123.211 362.345 123.211H353.797C350.948 122.736 350.473 123.686 350.473 126.535ZM381.816 123.211V137.933C381.816 138.408 381.341 138.883 380.866 138.883H378.017C377.542 138.883 377.067 138.408 377.067 137.933V121.312C377.067 118.937 377.542 117.987 379.916 117.987H383.24C385.14 117.987 386.09 118.462 386.565 120.362L392.738 134.134H393.213L399.387 120.362C400.337 118.462 400.812 117.987 402.711 117.987H405.561C407.935 117.987 408.41 119.412 408.41 121.312V137.933C408.41 138.408 407.935 138.883 407.46 138.883H404.611C404.136 138.883 403.661 138.408 403.661 137.933V123.211L397.962 136.033C397.012 137.933 396.063 138.883 394.163 138.883H392.738C390.364 138.883 389.414 137.933 388.939 136.033L381.816 123.211ZM475.845 123.211V137.933C475.845 138.408 475.37 138.883 474.895 138.883H472.046C471.571 138.883 471.096 138.408 471.096 137.933V121.312C471.096 119.412 471.571 117.987 473.945 117.987H476.32C478.219 117.987 478.694 118.462 480.119 119.887L491.042 134.134V119.412C491.042 118.937 491.517 118.462 491.991 118.462H494.841C495.316 118.462 495.791 118.937 495.791 119.412V136.033C495.791 137.933 495.316 139.358 492.941 139.358H490.567C488.667 139.358 488.192 138.883 486.768 137.458L475.845 123.211ZM513.362 128.435L520.96 118.462C521.233 118.189 521.349 118.073 521.489 118.024C521.592 117.987 521.708 117.987 521.91 117.987H525.709C526.184 117.987 526.659 118.462 526.184 119.412L515.736 132.709V137.933C515.736 138.408 515.261 138.883 514.786 138.883H511.462C510.987 138.883 510.512 138.408 510.512 137.933V132.709L500.54 119.412C500.065 118.937 500.54 117.987 501.014 117.987H504.814C505.288 117.987 505.763 117.987 505.763 118.462L513.362 128.435Z" fill="#2F3A8C"/>
<path fill-rule="evenodd" clip-rule="evenodd" d="M336.226 51.0271H322.454C321.504 51.0271 321.029 51.502 321.029 51.502V70.4978C321.029 71.4476 321.504 71.9225 322.454 71.9225H336.226C342.4 71.9225 345.724 69.548 345.724 63.3744V59.5753C345.724 53.4016 342.4 51.0271 336.226 51.0271ZM326.253 68.1234V56.251H335.751C339.075 56.251 340.025 57.2008 340.025 60.525V63.8493C340.025 67.1736 339.075 68.1234 335.751 68.1234H326.253ZM356.647 51.0271H353.322C352.373 51.0271 351.898 51.502 352.373 51.9769V71.4476C352.373 71.9225 352.847 72.3974 353.322 72.3974H356.647C357.121 72.3974 357.596 71.9225 357.596 71.4476V51.9769C357.596 51.502 357.121 51.0271 356.647 51.0271ZM385.14 51.0271H369.469C366.144 51.0271 363.77 52.9267 364.245 56.251V58.6255C364.245 61.9497 366.619 63.8493 369.944 63.8493H380.866C381.341 63.8493 381.816 64.3242 381.816 65.274V66.2238C381.816 67.1735 381.816 67.6485 380.866 67.6485H365.195C364.72 67.6485 364.245 68.1234 364.245 68.5982V71.4476C364.245 71.9225 364.72 72.3974 365.195 72.3974H381.341C384.665 72.3974 387.04 70.4978 387.04 67.1736V64.7991C387.04 61.4748 384.665 59.5753 381.341 59.5753H370.419C369.944 59.5753 369.469 59.1004 369.469 58.1506V57.2008C369.469 56.251 369.469 55.7761 370.419 55.7761H385.14C385.615 55.7761 386.09 55.3012 386.09 54.8263V51.9769C386.09 51.502 385.615 51.0271 385.14 51.0271ZM414.584 51.0271H401.287C395.113 51.0271 392.739 53.4016 392.739 59.1003V64.3242C392.739 70.4979 395.588 72.3974 401.287 72.3974H414.584C415.059 72.3974 415.534 71.9225 415.534 71.4476V68.5982C415.534 68.1234 415.059 67.6485 414.584 67.6485H401.287C398.437 67.6485 397.962 66.6987 397.962 63.8493V59.5753C397.962 56.7259 398.437 55.7761 401.287 55.7761H414.584C415.059 55.7761 415.534 55.3012 415.534 54.8263V51.9769C415.534 51.502 415.059 51.0271 414.584 51.0271ZM438.803 51.0271H429.78C424.082 51.0271 421.232 53.4016 421.232 59.1003V64.3242C421.232 70.4979 424.082 72.3974 429.78 72.3974H438.803C444.502 72.3974 447.352 70.4979 447.352 64.3242V59.1003C447.352 52.9267 444.502 51.0271 438.803 51.0271ZM426.456 63.8493V59.5753C426.456 56.7259 426.931 56.251 430.255 55.7761H438.803C441.653 55.7761 442.128 56.7259 442.128 59.5753V63.8493C442.128 66.6987 441.653 67.6485 438.803 67.6485H429.78C426.931 67.6485 426.456 66.6987 426.456 63.8493ZM458.274 51.0271H454.95C454.475 51.0271 454 51.502 454 51.9769V64.3242C454 70.4979 456.849 72.3974 462.548 72.3974H470.621C476.32 72.3974 479.169 70.4979 479.169 64.3242V51.9769C479.169 51.502 478.695 51.0271 478.22 51.0271H474.895C474.421 51.0271 473.946 51.502 473.946 51.9769V63.8493C473.946 66.6987 473.471 67.6485 470.621 67.6485H462.548C459.699 67.6485 459.224 66.6987 459.224 63.8493V51.9769C459.224 51.502 458.749 51.0271 458.274 51.0271ZM491.517 71.4476V56.251L502.439 70.4978C503.864 71.9225 504.339 72.3974 506.238 72.3974H508.613C510.987 72.3974 511.462 71.4476 511.462 69.0732V51.9769C511.462 51.502 510.987 51.0271 510.513 51.0271H507.188C506.713 51.0271 506.238 51.502 506.238 51.9769V67.1736L495.316 52.9267C493.891 51.502 493.416 51.0271 491.517 51.0271H489.142C486.768 51.0271 486.293 51.9769 486.293 54.3514V71.4476C486.293 71.9225 486.768 72.3974 487.243 72.3974H490.567C491.042 72.3974 491.517 71.9225 491.517 71.4476ZM532.358 71.4476V56.251H540.906C541.381 56.251 541.856 55.7761 541.856 55.3012V52.4518C541.856 51.9769 541.381 51.502 540.906 51.502H518.111C517.636 51.502 517.161 51.9769 517.161 52.4518V55.3012C517.161 55.7761 517.636 56.251 518.111 56.251H527.134V71.4476C527.134 71.9225 527.609 72.3974 528.084 72.3974H531.408C531.883 72.3974 532.358 71.9225 532.358 71.4476Z" fill="#2F3A8C"/>
<path d="M95.5625 42.3694L97.2278 44.0713C95.8553 45.3523 93.7691 46.5235 91.1522 46.5235C87.1811 46.5235 84.5642 43.687 84.5642 40.1734C84.5642 36.733 87.1994 33.8416 91.0607 33.8416C93.2567 33.8416 95.4161 34.7017 96.8435 35.9278L95.1965 37.648C94.0985 36.6964 92.5613 36.1108 91.2803 36.1108C88.8647 36.1108 87.3092 37.9591 87.3092 40.1917C87.3092 42.4426 88.9013 44.2726 91.3718 44.2726C93.0005 44.2726 94.5194 43.4125 95.5625 42.3694ZM103.108 39.2839C102.468 39.2839 102.066 39.7775 101.572 40.4173V46.1575H99.1227V39.7592C99.1227 39.0097 99.0496 38.2236 98.8667 37.2364H101.097C101.17 37.6203 101.243 38.1139 101.28 38.5709C101.828 37.6569 102.468 36.9439 103.62 36.9439C104.077 36.9439 104.68 37.0719 104.991 37.3095L104.314 39.5398C104.04 39.4301 103.437 39.2839 103.108 39.2839ZM105.446 41.6604C105.446 39.0097 107.402 36.9439 110.29 36.9439C113.197 36.9439 115.171 39.0097 115.171 41.6604C115.171 44.3111 113.197 46.4317 110.29 46.4317C107.402 46.4317 105.446 44.3111 105.446 41.6604ZM107.95 41.6604C107.95 43.1411 108.809 44.4208 110.29 44.4208C111.807 44.4208 112.685 43.1411 112.685 41.6604C112.685 40.1979 111.807 38.9731 110.29 38.9731C108.809 38.9731 107.95 40.1979 107.95 41.6604ZM122.014 37.2364H124.226L125.834 42.94H125.944L127.333 37.2364H129.838L127.004 46.1575H124.683L123.129 40.6915H123.019L121.447 46.1575H119.144L116.31 37.2364H118.869L120.295 42.94H120.405L122.014 37.2364ZM133.896 38.4064C134.572 37.602 135.505 36.9439 136.894 36.9439C138.704 36.9439 140.148 38.2967 140.148 40.1613V46.1575H137.698V40.2528C137.698 39.5764 137.095 39.0097 136.218 39.0097C135.34 39.0097 134.682 39.5946 134.17 40.1613V46.1575H131.739V39.7775C131.739 39.0279 131.684 38.2236 131.483 37.2364H133.713C133.786 37.5838 133.86 37.9859 133.896 38.4064ZM150.092 46.1575H147.46V34.2201H150.092V38.644H155.723V34.2201H158.355V46.1575H155.723V40.856H150.092V46.1575ZM160.788 41.6604C160.788 39.0097 162.744 36.9439 165.632 36.9439C168.539 36.9439 170.513 39.0097 170.513 41.6604C170.513 44.3111 168.539 46.4317 165.632 46.4317C162.744 46.4317 160.788 44.3111 160.788 41.6604ZM163.292 41.6604C163.292 43.1411 164.152 44.4208 165.632 44.4208C167.15 44.4208 168.027 43.1411 168.027 41.6604C168.027 40.1979 167.15 38.9731 165.632 38.9731C164.152 38.9731 163.292 40.1979 163.292 41.6604ZM180.826 40.1613V46.1575H178.358V40.2528C178.358 39.5764 177.791 39.0097 176.969 39.0097C176.201 39.0097 175.616 39.5764 175.177 40.1613V46.1575H172.746V39.7592C172.746 39.0097 172.691 38.2236 172.49 37.2364H174.738C174.812 37.5838 174.866 38.0042 174.903 38.4064C175.561 37.6752 176.42 36.9439 177.7 36.9439C178.852 36.9439 179.82 37.5655 180.314 38.5161C180.954 37.6569 182.014 36.9439 183.312 36.9439C185.085 36.9439 186.456 38.2967 186.456 40.1613V46.1575H184.007V40.2528C184.007 39.5581 183.385 39.0097 182.599 39.0097C181.831 39.0097 181.228 39.5764 180.826 40.1613ZM196.281 43.5616L197.432 45.1154C196.445 45.865 194.837 46.4317 193.228 46.4317C190.212 46.4317 188.566 44.2745 188.566 41.7701C188.566 39.0645 190.541 36.9439 193.301 36.9439C195.476 36.9439 197.78 38.2601 197.78 41.5507C197.78 41.6969 197.78 41.8797 197.743 42.3002H190.961C191.162 43.5616 192.04 44.4756 193.539 44.4756C194.508 44.4756 195.568 44.0917 196.281 43.5616ZM193.283 38.8086C191.985 38.8086 191.29 39.6678 191.016 40.6732H195.312C195.294 39.4118 194.215 38.8086 193.283 38.8086ZM214.478 35.4632L212.979 37.2913C212.266 36.7611 210.767 36.0116 208.793 36.0116C207.605 36.0116 206.545 36.4503 206.545 37.4741C206.545 38.5344 208.117 38.6075 209.671 38.7354C211.846 38.8817 215.246 39.1376 215.246 42.4282C215.246 45.3714 212.797 46.5231 209.872 46.5231C206.782 46.5231 204.698 45.2983 203.309 44.1648L204.79 42.3733C205.795 43.1777 207.495 44.3842 209.908 44.3842C211.426 44.3842 212.632 43.7992 212.632 42.6841C212.632 41.5324 211.407 41.2765 209.616 41.1302C207.002 40.9657 203.93 40.6732 203.93 37.6386C203.93 34.7502 206.618 33.8545 208.866 33.8545C211.352 33.8545 213.455 34.7685 214.478 35.4632ZM224.523 43.5616L225.675 45.1154C224.688 45.865 223.079 46.4317 221.47 46.4317C218.454 46.4317 216.809 44.2745 216.809 41.7701C216.809 39.0645 218.783 36.9439 221.543 36.9439C223.719 36.9439 226.022 38.2601 226.022 41.5507C226.022 41.6969 226.022 41.8797 225.986 42.3002H219.203C219.405 43.5616 220.282 44.4756 221.781 44.4756C222.75 44.4756 223.81 44.0917 224.523 43.5616ZM221.525 38.8086C220.227 38.8086 219.533 39.6678 219.258 40.6732H223.554C223.536 39.4118 222.457 38.8086 221.525 38.8086ZM232.198 39.2839C231.558 39.2839 231.156 39.7775 230.663 40.4173V46.1575H228.213V39.7592C228.213 39.0097 228.14 38.2236 227.957 37.2364H230.187C230.261 37.6203 230.334 38.1139 230.37 38.5709C230.919 37.6569 231.558 36.9439 232.71 36.9439C233.167 36.9439 233.77 37.0719 234.081 37.3095L233.405 39.5398C233.131 39.4301 232.527 39.2839 232.198 39.2839ZM241.671 37.2364H244.194L240.337 46.1575H238.38L234.542 37.2364H237.247L239.349 42.8669H239.459L241.671 37.2364ZM248.3 46.1575H245.869V37.2364H248.3V46.1575ZM245.631 34.5309C245.631 33.7996 246.253 33.1964 247.075 33.1964C247.898 33.1964 248.538 33.8179 248.538 34.5309C248.538 35.2438 247.898 35.8288 247.075 35.8288C246.253 35.8288 245.631 35.2438 245.631 34.5309ZM259.289 38.4612L257.771 40.0699C257.04 39.357 256.199 39.0097 255.486 39.0097C254.17 39.0097 253.11 40.0334 253.11 41.6604C253.11 43.2874 254.243 44.3842 255.578 44.3842C256.473 44.3842 257.296 43.8358 257.973 43.1777L259.472 44.6767C259.088 45.1337 257.589 46.4317 255.304 46.4317C252.726 46.4317 250.514 44.5305 250.514 41.6604C250.514 38.8086 252.653 36.9439 255.304 36.9439C256.675 36.9439 258.119 37.4192 259.289 38.4612ZM268.315 43.5616L269.467 45.1154C268.48 45.865 266.871 46.4317 265.262 46.4317C262.246 46.4317 260.601 44.2745 260.601 41.7701C260.601 39.0645 262.575 36.9439 265.335 36.9439C267.511 36.9439 269.814 38.2601 269.814 41.5507C269.814 41.6969 269.814 41.8797 269.777 42.3002H262.995C263.196 43.5616 264.074 44.4756 265.573 44.4756C266.542 44.4756 267.602 44.0917 268.315 43.5616ZM265.317 38.8086C264.019 38.8086 263.324 39.6678 263.05 40.6732H267.346C267.328 39.4118 266.249 38.8086 265.317 38.8086ZM279.555 37.858L278.696 39.5946C277.709 39.1376 276.429 38.7903 275.478 38.7903C274.564 38.7903 273.998 39.0828 273.998 39.6495C273.998 40.399 274.985 40.4538 275.752 40.4904C277.361 40.5635 280.048 40.7463 280.048 43.3239C280.048 45.4445 278.202 46.4682 275.807 46.4682C273.742 46.4682 272.206 45.7004 271.274 45.1154L272.133 43.3788C272.992 43.9089 274.436 44.5853 275.844 44.5853C276.977 44.5853 277.617 44.1648 277.617 43.5433C277.617 42.7024 276.52 42.611 275.734 42.5561C273.796 42.4465 271.584 42.3185 271.584 39.9054C271.584 37.6386 273.577 36.9074 275.387 36.9074C276.996 36.9074 278.805 37.4923 279.555 37.858Z" fill="#2F3A8C"/>
<path fill-rule="evenodd" clip-rule="evenodd" d="M41.9155 25.3322L29.8526 22.0149L34.3762 38.6015L41.9155 25.3322ZM88.3579 16.5866C88.3579 19.6023 85.9453 22.0149 82.9296 22.0149C82.3264 22.0149 82.0248 22.0149 81.4217 21.7133L75.3902 44.6329H71.4698L53.6769 13.5708L35.884 44.6329H31.9636L25.9321 21.7133C25.6305 21.7133 25.0274 22.0149 24.4242 22.0149C21.4085 22.0149 18.9959 19.6023 18.9959 16.5866C18.9959 13.5708 21.4085 11.1582 24.4242 11.1582C27.44 11.1582 29.8526 13.5708 29.8526 16.5866C29.8526 17.1897 29.8526 17.4913 29.551 18.0944L44.3281 22.0149L50.9627 9.95194C49.4549 9.04722 48.2486 7.23777 48.2486 5.42833C48.2486 2.41259 50.6612 0 53.6769 0C56.6926 0 59.1052 2.41259 59.1052 5.42833C59.1052 7.53935 57.8989 9.04722 56.3911 9.95194L63.3273 21.7133L78.1044 17.7929C78.1044 17.4913 77.8028 16.8881 77.8028 16.285C77.8028 13.2693 80.2154 10.8567 83.2311 10.8567C86.2469 10.8567 88.3579 13.5708 88.3579 16.5866ZM65.1367 25.3322L72.676 38.6015L77.1997 22.0149L65.1367 25.3322Z" fill="#2F3A8C"/>
<path fill-rule="evenodd" clip-rule="evenodd" d="M49.1535 33.475H53.3756V37.697H49.1535V33.475ZM53.9787 33.475H58.2007V37.697H53.9787V33.475ZM58.2007 38.6017V42.8238H53.9787V38.6017H58.2007ZM53.074 42.5222H48.8519V38.3002H53.074V42.5222Z" fill="#25702C"/>
<path d="M322.133 160.257H318.18L324.655 146.302H327.753L334.229 160.257H330.147L329.249 158.12H323.009L322.133 160.257ZM326.065 150.747L324.206 155.214H328.053L326.193 150.747H326.065ZM348.119 146.302H351.88V160.257H348.717L342.563 152.671H342.541V160.257H338.78V146.302H341.921L348.097 153.91H348.119V146.302ZM364.848 160.257H358.416V146.302H364.848C367.455 146.302 369.379 147.029 370.682 148.397C371.879 149.658 372.541 151.367 372.541 153.269C372.541 155.214 371.858 157.009 370.575 158.27C369.357 159.467 367.605 160.257 364.848 160.257ZM362.155 157.116H364.763C366.194 157.116 366.921 156.795 367.541 156.197C368.267 155.492 368.673 154.615 368.673 153.312C368.673 152.094 368.31 151.196 367.648 150.491C367.028 149.829 366.301 149.444 364.763 149.444H362.155V157.116ZM389.135 160.257H385.395V146.302H393.174C395.161 146.302 396.593 146.858 397.554 147.905C398.281 148.696 398.708 149.7 398.708 150.833C398.708 152.051 398.196 153.141 397.341 153.953C396.422 154.829 395.118 155.342 393.174 155.342H389.135V160.257ZM393.387 149.337H389.135V152.307H393.387C393.857 152.307 394.242 152.179 394.499 151.923C394.776 151.645 394.969 151.239 394.969 150.833C394.969 150.427 394.798 150.021 394.52 149.743C394.221 149.444 393.815 149.337 393.387 149.337ZM403.737 146.302H407.476V157.116H415.319V160.257H403.737V146.302ZM429.262 146.302H433.002V155.171C433.002 158.697 430.267 160.685 426.442 160.685C422.787 160.685 419.902 158.697 419.902 155.171V146.302H423.663V155.171C423.663 156.731 424.946 157.565 426.442 157.565C428.087 157.565 429.262 156.731 429.262 155.171V146.302ZM454.636 160.257H450.875V153.547H450.768L447.584 158.74H446.259L443.075 153.547H442.968V160.257H439.314V146.302H442.733L447.007 153.355H447.05L451.303 146.302H454.636V160.257ZM469.795 160.257H461.182V146.302H469.474C471.333 146.302 472.722 146.837 473.577 147.756C474.112 148.333 474.411 149.038 474.411 149.764C474.411 150.854 473.727 151.859 472.68 152.5C474.282 153.248 475.116 154.38 475.116 155.919C475.116 157.094 474.624 158.12 473.812 158.932C472.787 159.894 471.59 160.257 469.795 160.257ZM469.496 154.402H464.944V157.329H469.496C470.115 157.329 470.564 157.18 470.842 156.902C471.098 156.646 471.248 156.282 471.248 155.876C471.248 155.492 471.098 155.128 470.842 154.872C470.5 154.53 470.115 154.402 469.496 154.402ZM469.004 149.23H464.944V151.709H469.004C469.581 151.709 469.966 151.581 470.222 151.324C470.436 151.111 470.564 150.812 470.564 150.47C470.564 150.128 470.436 149.85 470.222 149.636C469.987 149.401 469.688 149.23 469.004 149.23ZM484.474 160.257H480.735V146.302H484.474V160.257ZM500.36 146.302H504.121V160.257H500.958L494.803 152.671H494.782V160.257H491.021V146.302H494.162L500.338 153.91H500.36V146.302ZM524.034 148.333L521.662 150.641C520.38 149.593 518.585 149.016 517.302 149.016C514.995 149.016 513.392 150.961 513.392 153.291C513.392 155.47 514.802 157.522 517.516 157.522C518.563 157.522 519.696 157.265 520.487 156.774V154.872H516.469V151.966H524.055V158.377C522.154 159.766 519.568 160.642 517.388 160.642C512.879 160.642 509.524 157.351 509.524 153.269C509.524 149.187 512.943 145.875 517.281 145.875C519.461 145.875 521.918 146.73 524.034 148.333Z" fill="#25702C"/>
</svg>
