<svg width="44" height="53" viewBox="0 0 44 53" fill="none" xmlns="http://www.w3.org/2000/svg">
<path fill-rule="evenodd" clip-rule="evenodd" d="M21.7271 8.90011C24.904 8.90011 27.7794 10.1882 29.8613 12.2699C31.9431 14.3516 33.2311 17.2269 33.2311 20.4041C33.2311 23.5813 31.943 26.4563 29.8613 28.5383C27.7796 30.62 24.9044 31.9081 21.7271 31.9081C18.5502 31.9081 15.6749 30.62 13.5929 28.5383C11.5112 26.4566 10.2232 23.5813 10.2232 20.4041C10.2232 17.2269 11.5113 14.3518 13.5929 12.2699C15.6746 10.1882 18.5499 8.90011 21.7271 8.90011ZM26.3603 16.3223L20.7135 22.8514C20.6986 22.8687 20.6739 22.891 20.6418 22.9207C20.5181 23.027 20.3673 23.0789 20.219 23.0789C20.0682 23.0789 19.9174 23.027 19.7962 22.9207C19.7814 22.9058 19.7567 22.8836 19.727 22.849L17.1014 19.7981C16.7924 19.4396 16.2534 19.4001 15.895 19.7066C15.5365 20.0157 15.4969 20.5546 15.806 20.9131L18.4315 23.9639C18.5008 24.0455 18.5848 24.1271 18.6812 24.2087C19.1213 24.5894 19.6702 24.7798 20.219 24.7798C20.7704 24.7798 21.3192 24.5919 21.7593 24.2137C21.8384 24.1469 21.92 24.0628 22.004 23.9639L27.6508 17.4348C27.9599 17.0788 27.9203 16.5398 27.5643 16.2333C27.2058 15.9267 26.6668 15.9663 26.3603 16.3223ZM35.4831 31.9103H37.1618C37.6414 31.9103 38.0839 31.7818 38.4622 31.5642L38.4597 31.5617C38.8602 31.3293 39.1841 31.0005 39.4066 30.6148H39.4042L39.4066 30.6124C39.6316 30.2217 39.7577 29.7743 39.7577 29.3193C39.7577 28.8867 39.6465 28.4417 39.4042 28.0213H39.4017L37.4362 24.6194L40.843 22.6539C41.2559 22.4141 41.5723 22.0877 41.7875 21.7119C42.0199 21.309 42.1361 20.8565 42.1361 20.409C42.1361 19.9615 42.0199 19.5091 41.7875 19.1061H41.785C41.5773 18.7501 41.2806 18.4336 40.895 18.1988C40.8777 18.1864 40.8579 18.1765 40.8406 18.1641L37.4337 16.1962L39.372 12.8387C39.3819 12.8239 39.3894 12.8091 39.3992 12.7942C39.6415 12.374 39.7528 11.9289 39.7528 11.4963C39.7528 11.0611 39.6391 10.6359 39.4314 10.2577C39.4215 10.2379 39.4116 10.2181 39.4017 10.2008C39.1767 9.81263 38.8529 9.48135 38.4548 9.25142V9.25389L38.4523 9.25142C38.0716 9.03138 37.634 8.90529 37.1544 8.90529H33.2259V4.97679C33.2259 4.49716 33.0973 4.05463 32.8797 3.67634H32.8773C32.6449 3.27583 32.316 2.95197 31.9304 2.72944V2.73191L31.9279 2.72944C31.5373 2.50446 31.0898 2.37837 30.6348 2.37837C30.2022 2.37837 29.7572 2.48962 29.3369 2.73191V2.73438L25.9325 4.69989L23.9917 1.34C23.9843 1.3227 23.9744 1.30786 23.967 1.29303C23.7272 0.880155 23.4008 0.563724 23.025 0.348596V0.351068L23.0225 0.348596C22.6196 0.116196 22.1696 0 21.7221 0C21.2746 0 20.8222 0.116196 20.4192 0.348596C20.0459 0.563686 19.717 0.880143 19.4772 1.29303H19.4797L17.5142 4.69988L14.1543 2.75911C14.1394 2.74922 14.1246 2.73933 14.1098 2.73192C13.6895 2.48963 13.2445 2.37838 12.8118 2.37838C12.3767 2.37838 11.9514 2.49211 11.5732 2.69978C11.5534 2.70967 11.5336 2.71956 11.5163 2.72945C11.1282 2.95195 10.7969 3.2783 10.567 3.67635H10.5694L10.567 3.67882C10.3469 4.05709 10.2208 4.49718 10.2208 4.9768V8.9053L6.29479 8.90036C5.81517 8.90036 5.37264 9.02891 4.99434 9.24648C4.5963 9.47641 4.27244 9.8077 4.04744 10.1959H4.04991L4.04744 10.1983C3.82246 10.589 3.69637 11.0364 3.69637 11.4914C3.69637 11.924 3.80763 12.369 4.04991 12.7894L6.01543 16.1913L2.61104 18.1568V18.1593C2.21795 18.3867 1.91383 18.6933 1.69876 19.0443C1.6864 19.0616 1.67404 19.0814 1.66415 19.1012C1.43175 19.5042 1.31555 19.9566 1.31555 20.4041C1.31555 20.8516 1.43175 21.304 1.66415 21.707H1.66662C1.88419 22.0828 2.20064 22.4116 2.61105 22.649L6.01544 24.6145L4.04992 28.0164H4.0524L4.04992 28.0189C3.80764 28.4392 3.69638 28.8842 3.69638 29.3144C3.69638 29.7742 3.82247 30.2193 4.04745 30.6124C4.26008 30.9783 4.56417 31.2972 4.93746 31.5271C4.95476 31.5395 4.97454 31.5519 4.99185 31.5617C5.37012 31.7818 5.81268 31.9079 6.2923 31.9079H7.87952L0.113663 45.3649C-0.121206 45.7728 0.0197134 46.292 0.427646 46.5269C0.632849 46.6431 0.865248 46.6678 1.07537 46.6109L8.97224 44.4427L11.0416 52.3617C11.1602 52.8166 11.625 53.091 12.0799 52.9724C12.3098 52.913 12.4928 52.7647 12.604 52.5743L19.8528 40.0173C20.0234 40.1978 20.2187 40.3486 20.4264 40.4673V40.4648L20.4289 40.4673C20.8318 40.6997 21.2818 40.8159 21.7293 40.8159C22.1768 40.8159 22.6292 40.6997 23.0322 40.4673C23.2176 40.361 23.3907 40.2299 23.5489 40.0742L30.7433 52.5394C30.8521 52.7471 31.0424 52.9078 31.2847 52.9721C31.7396 53.0907 32.2044 52.8163 32.3231 52.3614L34.3924 44.4424L42.2893 46.6106C42.4994 46.6675 42.7318 46.6452 42.937 46.5266C43.3449 46.2917 43.4858 45.7725 43.251 45.3646L35.4831 31.9103ZM24.5824 38.4642L31.2008 49.9231L32.9636 43.1762L32.966 43.1663C33.0897 42.7114 33.5569 42.4444 34.0118 42.568L40.7391 44.4173L33.5175 31.9097H33.2332V35.8382C33.2332 36.3153 33.1046 36.7554 32.8871 37.1362C32.6547 37.5392 32.3234 37.863 31.9377 38.0855C31.9179 38.0954 31.8981 38.1078 31.8783 38.1152C31.5001 38.3204 31.0749 38.4366 30.6397 38.4366C30.2071 38.4366 29.7621 38.3253 29.3418 38.0831C29.3269 38.0756 29.3121 38.0658 29.2973 38.0559L25.9398 36.1176L24.5824 38.4642ZM9.84752 31.9103L2.62597 44.418L9.35321 42.5687C9.80565 42.4451 10.2754 42.7121 10.399 43.167L10.4014 43.1769L12.1617 49.9212L18.8244 38.3832L17.5165 36.1161L14.1146 38.0816V38.0841C13.6943 38.3263 13.2493 38.4376 12.8166 38.4376C12.3593 38.4376 11.9142 38.3115 11.5236 38.0865L11.5211 38.0841V38.0865C11.133 37.864 10.8017 37.5377 10.5718 37.1396C10.3517 36.7614 10.2256 36.3188 10.2256 35.8392L10.2232 31.9107L9.84752 31.9103ZM20.5425 37.9453C20.5474 37.9527 20.5499 37.9601 20.5549 37.9675L20.9603 38.6672C21.0444 38.8106 21.1556 38.9194 21.2817 38.9911V38.9936C21.4152 39.0702 21.571 39.1073 21.7317 39.1073C21.8899 39.1073 22.0457 39.0678 22.1792 38.9911C22.3053 38.9194 22.4165 38.8106 22.5006 38.6672L24.8913 34.5261H24.8938C25.1286 34.1206 25.6478 33.9797 26.0533 34.2146L30.1524 36.5806C30.1672 36.588 30.1845 36.5979 30.1994 36.6053C30.3428 36.6869 30.4936 36.7265 30.6419 36.7265C30.7903 36.7265 30.9312 36.6918 31.0548 36.6276L31.0844 36.6103C31.2204 36.5311 31.3342 36.4199 31.4108 36.2889C31.4825 36.1652 31.5245 36.0144 31.5245 35.8389V31.055C31.5245 30.5827 31.9077 30.1995 32.38 30.1995H37.1639C37.3345 30.1995 37.4853 30.1575 37.6089 30.0858V30.0882L37.6114 30.0858C37.7449 30.0091 37.8537 29.8954 37.9328 29.7594H37.9353C38.0094 29.6284 38.0515 29.4751 38.0515 29.3169C38.0515 29.1685 38.0144 29.0153 37.9303 28.8743H37.9328L35.5668 24.7777C35.5569 24.7628 35.5495 24.748 35.5396 24.7332C35.3047 24.3252 35.4432 23.8036 35.8511 23.5687L39.9947 21.178C40.1381 21.0964 40.2469 20.9827 40.3186 20.8591C40.3952 20.7256 40.4348 20.5698 40.4348 20.4116C40.4348 20.2534 40.3952 20.0976 40.3186 19.9641H40.3211L40.3186 19.9617C40.2518 19.8479 40.1554 19.7441 40.0293 19.665C40.017 19.6576 40.0046 19.6526 39.9947 19.6452L35.8511 17.2545V17.252C35.4456 17.0171 35.3047 16.498 35.5396 16.0925L37.9056 11.9934C37.913 11.9785 37.9229 11.9612 37.9303 11.9464C38.0119 11.803 38.0515 11.6522 38.0515 11.5039C38.0515 11.3555 38.0169 11.2146 37.9526 11.091L37.9353 11.0613C37.8586 10.9278 37.7474 10.8116 37.6089 10.735V10.7325C37.4853 10.6608 37.3345 10.6213 37.1614 10.6213L32.3775 10.6114C31.9053 10.6114 31.522 10.2282 31.522 9.75592V4.97197C31.522 4.80138 31.48 4.65057 31.4083 4.52695H31.4108L31.4083 4.52448C31.3317 4.39097 31.2179 4.28219 31.082 4.20308V4.2006C30.9509 4.12643 30.7976 4.08441 30.6394 4.08441C30.4911 4.08441 30.3378 4.12149 30.1969 4.20555V4.20308L26.0508 6.59626C25.6428 6.83112 25.1237 6.69021 24.8888 6.28227L22.5253 2.18808C22.5154 2.17324 22.5055 2.15841 22.4981 2.14358C22.414 2.00018 22.3028 1.8914 22.1767 1.8197V1.81723C22.0432 1.74059 21.8874 1.7035 21.7267 1.7035C21.5685 1.7035 21.4127 1.74306 21.2792 1.8197C21.1531 1.89139 21.0419 2.00018 20.9578 2.14357H20.9553L18.5646 6.28473C18.3298 6.69266 17.8106 6.83359 17.4027 6.59871L13.3035 4.23269C13.2887 4.22527 13.2714 4.21538 13.2566 4.20797C13.1132 4.12638 12.9623 4.08682 12.814 4.08682C12.6657 4.08682 12.5247 4.12143 12.4011 4.18571L12.3715 4.20302C12.2355 4.27966 12.1218 4.39339 12.0426 4.52936H12.0402C11.9685 4.65298 11.9289 4.80379 11.9289 4.97685V9.7608C11.9289 10.233 11.5457 10.6162 11.0735 10.6162L6.29446 10.6113C6.12388 10.6113 5.97306 10.6533 5.84945 10.725C5.71348 10.8041 5.60222 10.9179 5.52311 11.0514H5.52064C5.44646 11.1824 5.40444 11.3332 5.40444 11.4939C5.40444 11.6423 5.44152 11.7955 5.52558 11.9365L7.91629 16.0801C8.15363 16.488 8.01271 17.0097 7.60478 17.2445L3.46115 19.6352V19.6328L3.45868 19.6352C3.32765 19.7094 3.22875 19.8083 3.15706 19.922C3.15211 19.9344 3.1447 19.9443 3.13728 19.9566C3.06064 20.0901 3.02108 20.2459 3.02108 20.4041C3.02108 20.5623 3.06064 20.7181 3.13728 20.8516H3.13481L3.13728 20.8541C3.20897 20.9777 3.31529 21.0865 3.46115 21.1705L7.60478 23.5612C8.01271 23.7961 8.15116 24.3202 7.91629 24.7257L5.52559 28.8693H5.52311C5.44152 29.0127 5.40444 29.1635 5.40444 29.3143C5.40444 29.4725 5.44647 29.6258 5.52311 29.7569C5.59481 29.883 5.69618 29.9893 5.81485 30.0659C5.82721 30.0709 5.8371 30.0783 5.84946 30.0857C5.97308 30.1574 6.12389 30.1994 6.29448 30.1994H11.0784C11.5506 30.1994 11.9339 30.5826 11.9339 31.0549V35.8388C11.9339 36.0094 11.9759 36.1602 12.0476 36.2838C12.1267 36.4198 12.2404 36.531 12.3764 36.6102V36.6126C12.5074 36.6868 12.6607 36.7288 12.819 36.7288C12.9673 36.7288 13.1206 36.6917 13.2615 36.6077V36.6102L17.3582 34.2441C17.373 34.2342 17.3878 34.2268 17.4027 34.2169C17.8106 33.9796 18.3323 34.1205 18.5671 34.5285L20.5425 37.9453ZM28.6539 13.4794C26.8813 11.7067 24.4337 10.6115 21.7292 10.6115C19.0245 10.6115 16.5769 11.7068 14.8045 13.4794C13.0318 15.252 11.9366 17.6996 11.9366 20.4041C11.9366 23.1085 13.0319 25.5564 14.8045 27.3288C16.5772 29.1015 19.0248 30.1967 21.7292 30.1967C24.4339 30.1967 26.8815 29.1014 28.6539 27.3288C30.4266 25.5561 31.5218 23.1085 31.5218 20.4041C31.5218 17.6996 30.4265 15.2518 28.6539 13.4794Z" fill="#169C86"/>
</svg>
