<svg width="54" height="54" viewBox="0 0 54 54" fill="none" xmlns="http://www.w3.org/2000/svg">
<path d="M30.9754 0.5H16.6733C14.8423 0.50554 13.0388 0.945735 11.4111 1.78437C9.78346 2.623 8.37817 3.83611 7.31087 5.32388C2.84616 11.6674 0.465968 19.2429 0.500368 27C0.466135 34.7573 2.8463 42.3331 7.31087 48.677C8.37831 50.1646 9.78366 51.3775 11.4113 52.2159C13.039 53.0544 14.8424 53.4945 16.6733 53.5H49.0837C50.2546 53.4986 51.3772 53.0328 52.2052 52.2048C53.0332 51.3769 53.499 50.2543 53.5004 49.0833V27C53.5004 12.3879 43.3959 0.5 30.9754 0.5ZM16.6733 51.7333C15.1227 51.7283 13.5954 51.3551 12.2171 50.6446C10.8388 49.934 9.64896 48.9064 8.7454 47.6461C4.49594 41.603 2.23185 34.3875 2.26703 27C2.23157 19.6127 4.49569 12.3974 8.7454 6.35473C9.64877 5.09426 10.8386 4.06636 12.2169 3.35563C13.5952 2.6449 15.1226 2.27167 16.6733 2.26667H22.9026C14.457 6.09415 8.45037 15.734 8.45037 27C8.45037 38.1883 14.4968 47.8908 22.9459 51.7333H16.6733ZM29.7387 50.5656C29.7148 50.9454 29.6928 51.3137 29.6769 51.6733C19.6113 50.9207 11.4201 41.4566 10.3407 29.65H16.8509C17.246 32.6727 18.3955 35.5473 20.1934 38.009C20.2131 38.052 20.2361 38.0933 20.2623 38.1326C21.9338 40.4082 24.2441 42.1352 26.8997 43.0943C29.9092 44.0987 29.9772 46.7054 29.7387 50.5656ZM34.067 30.2595C33.6663 29.6501 33.1439 29.13 32.5328 28.7319C31.9216 28.3339 31.2348 28.0663 30.5154 27.9461C29.796 27.8259 29.0595 27.8555 28.3521 28.0333C27.6447 28.211 26.9817 28.5329 26.4045 28.9789C25.8274 29.4249 25.3486 29.9853 24.9981 30.625C24.6477 31.2647 24.4332 31.9698 24.3681 32.6963C24.3029 33.4228 24.3886 34.1549 24.6196 34.8467C24.8506 35.5385 25.2221 36.1751 25.7107 36.7167H21.4451C19.4575 33.8682 18.4026 30.4733 18.4258 27C18.4258 18.7196 24.0553 11.9833 30.9754 11.9833C37.8954 11.9833 43.5249 18.7196 43.5249 27C43.5249 27.2862 43.5152 27.5803 43.4993 27.8833H38.4837C37.6086 27.884 36.7472 28.1013 35.9765 28.5159C35.2058 28.9306 34.5498 29.5296 34.067 30.2595ZM34.544 36.7167H33.59C33.7634 36.5252 33.9228 36.3215 34.067 36.1072C34.2112 36.3215 34.3706 36.5252 34.544 36.7167ZM33.1837 33.1833C33.1837 33.8822 32.9765 34.5653 32.5882 35.1464C32.2 35.7274 31.6481 36.1803 31.0025 36.4477C30.3569 36.7151 29.6464 36.7851 28.961 36.6488C28.2756 36.5124 27.6461 36.1759 27.1519 35.6818C26.6578 35.1876 26.3213 34.5581 26.1849 33.8727C26.0486 33.1873 26.1186 32.4768 26.386 31.8312C26.6534 31.1856 27.1063 30.6337 27.6874 30.2455C28.2684 29.8572 28.9515 29.65 29.6504 29.65C30.5875 29.65 31.4862 30.0223 32.1488 30.6849C32.8114 31.3475 33.1837 32.2462 33.1837 33.1833ZM51.7337 49.0833C51.7337 49.7862 51.4545 50.4602 50.9575 50.9572C50.4606 51.4541 49.7865 51.7333 49.0837 51.7333H31.4409C31.4568 51.3924 31.478 51.0399 31.501 50.6733C31.5487 49.8978 31.599 49.0542 31.5893 48.2H51.7337V49.0833ZM51.7337 46.4333H31.4621C31.3812 45.2925 30.9564 44.2029 30.2438 43.3083C29.5312 42.4137 28.5642 41.7561 27.4703 41.4222C25.7408 40.8051 24.1758 39.7997 22.8955 38.4833H51.7337V46.4333ZM51.7337 36.7167H38.4837C37.5466 36.7167 36.6479 36.3444 35.9853 35.6818C35.3226 35.0191 34.9504 34.1204 34.9504 33.1833C34.9504 32.2462 35.3226 31.3475 35.9853 30.6849C36.6479 30.0223 37.5466 29.65 38.4837 29.65H51.7337V36.7167ZM51.7337 27.8833H45.2695C45.2836 27.5821 45.2915 27.2888 45.2915 27C45.2915 17.7453 38.8697 10.2167 30.9754 10.2167C23.081 10.2167 16.6592 17.7453 16.6592 27C16.6592 27.2959 16.6804 27.5892 16.6936 27.8833H10.2356C10.2268 27.5892 10.217 27.2959 10.217 27C10.217 13.3622 19.5291 2.26667 30.9754 2.26667C42.4216 2.26667 51.7337 13.3622 51.7337 27V27.8833Z" fill="#169C86" stroke="#169C86"/>
</svg>
