<svg width="48" height="47" viewBox="0 0 48 47" fill="none" xmlns="http://www.w3.org/2000/svg">
<path fill-rule="evenodd" clip-rule="evenodd" d="M0.78318 20.9656C0.627606 20.9109 0.514079 20.974 0.438395 21.1169C0.324869 21.2221 0.442601 21.3818 0.350098 21.4954C0.350098 21.6762 0.350098 21.8612 0.350098 22.042C0.350098 22.7021 0.350098 23.358 0.350098 24.0182C0.463624 24.1191 0.572944 24.2536 0.745336 24.1738C0.917729 24.0939 0.905115 23.9299 0.90091 23.7743C0.884092 22.9502 0.896706 22.1303 0.963981 21.3062C0.976595 21.1548 0.942958 21.0202 0.78318 20.9656Z" fill="#169C86" stroke="#169C86" stroke-width="0.7"/>
<path fill-rule="evenodd" clip-rule="evenodd" d="M27.1381 19.7968C27.0624 19.5781 27.1087 19.5108 27.3063 19.4352C28.8957 18.8171 30.2369 17.8542 31.3302 16.5381C32.7387 14.8394 33.4956 12.8843 33.6049 10.681C33.6554 9.70552 33.5628 8.73844 33.3064 7.79239C33.3148 7.75455 33.3022 7.72932 33.2727 7.70409C33.2139 7.49386 33.1508 7.28783 33.0919 7.07759C32.7766 6.05165 32.2678 5.12242 31.6203 4.27307C30.6154 2.94439 29.354 1.93106 27.8361 1.23308C27.7604 1.19944 27.6847 1.1616 27.5964 1.18263C27.588 1.09012 27.5039 1.08592 27.445 1.06069C26.8984 0.837842 26.3392 0.665451 25.7632 0.551925C25.3805 0.47624 24.9979 0.417373 24.6111 0.350098C24.035 0.350098 23.4632 0.350098 22.8872 0.350098C22.6811 0.421577 22.4625 0.41317 22.2523 0.446807C20.4316 0.74534 18.8128 1.46854 17.3916 2.65847C16.1849 3.6676 15.2809 4.88695 14.6586 6.32075C13.8639 8.1624 13.6621 10.0755 14.0237 12.0475C14.1246 12.5899 14.2507 13.1281 14.4778 13.6327C14.4652 13.7336 14.5072 13.8135 14.5703 13.885C14.625 14.091 14.7259 14.276 14.8184 14.4652C14.9067 14.6586 14.9823 14.8521 15.1169 15.0202C15.1295 15.0917 15.1589 15.1506 15.2178 15.1926C15.2388 15.2389 15.2515 15.2851 15.2767 15.3272C16.2564 16.9418 17.5935 18.1738 19.2711 19.0399C19.5949 19.2081 19.9271 19.3511 20.2676 19.4772C20.3812 19.5193 20.4358 19.5655 20.3686 19.6874C20.3349 19.7463 20.3265 19.822 20.3139 19.8809C20.2592 20.1121 20.2298 20.3476 20.3643 20.5662C20.3686 20.5746 20.3686 20.583 20.3728 20.5915C20.5199 21.0329 20.9488 21.3567 21.4323 21.3609C22.967 21.3651 24.4975 21.3693 26.0323 21.3609C26.8227 21.3525 27.3988 20.541 27.1381 19.7968ZM15.3187 14.4274C15.3019 14.4232 15.2893 14.419 15.2809 14.4106C15.2893 14.4148 15.3019 14.419 15.3229 14.4232C15.3187 14.4232 15.3187 14.4274 15.3187 14.4274ZM26.1416 20.7134C26.0112 20.7554 25.8809 20.7596 25.7463 20.7596C24.405 20.7596 23.0595 20.7596 21.7183 20.7596C21.6552 20.7596 21.5921 20.7596 21.529 20.7554C21.2473 20.7344 21.0371 20.6125 20.9236 20.3434C20.9067 20.2971 20.8899 20.2509 20.8521 20.2172C20.8521 20.2088 20.8563 20.2004 20.8563 20.192C20.8647 20.1542 20.8647 20.1163 20.8479 20.0785C20.8395 20.0659 20.8311 20.0533 20.8269 20.0448C20.8395 20.0028 20.8353 19.9565 20.8437 19.9145C20.8605 19.8977 20.8857 19.8809 20.9152 19.864C21.0623 19.7337 21.1969 19.5907 21.3945 19.5319C21.4155 19.5277 21.4281 19.5024 21.4197 19.4772H21.4239C21.5248 19.5613 21.651 19.5361 21.7645 19.5361C23.0806 19.5361 24.3966 19.5361 25.7085 19.5361C25.8346 19.5361 25.9608 19.5361 26.0827 19.5655C26.3518 19.6286 26.5578 19.8682 26.5663 20.1289C26.5831 20.3854 26.4065 20.6209 26.1416 20.7134ZM21.3987 19.4478C21.4113 19.4436 21.4239 19.4394 21.4365 19.4478C21.445 19.452 21.4534 19.4562 21.466 19.4604C21.4449 19.4604 21.4281 19.4604 21.4071 19.4604C21.4029 19.4562 21.4029 19.452 21.3987 19.4478ZM23.0091 5.93392C23.0638 5.93813 23.1142 5.92972 23.1605 5.9171C23.4127 5.89187 23.665 5.89187 23.9173 5.89187C23.972 5.9129 24.035 5.9171 24.0939 5.93392C24.4849 5.97597 24.876 6.05586 25.2376 6.20302C26.4443 6.69497 27.3231 7.52329 27.7646 8.76788C28.1851 9.9536 28.0926 11.1015 27.5249 12.2241C27.3693 12.5353 27.1633 12.653 26.8143 12.6488C24.9643 12.6362 23.1142 12.6404 21.2642 12.6404C21.0413 12.6404 20.8142 12.6446 20.5914 12.6404C20.3812 12.6362 20.1667 12.6236 20.0448 12.4049C20.0196 12.3629 19.9733 12.3377 19.9187 12.3503C19.9144 12.3587 19.9144 12.3671 19.9144 12.3755C19.9102 12.3713 19.9102 12.3629 19.9102 12.3587C19.885 12.2367 19.8346 12.1232 19.7841 12.0097C19.4183 11.1982 19.2922 10.3446 19.4561 9.47006C19.8009 7.6242 21.1506 6.29552 23.0091 5.93392ZM19.8934 13.2248C20.8395 13.2206 21.7855 13.2206 22.7274 13.2206C24.2873 13.2206 25.8515 13.2248 27.4114 13.2206C27.794 13.2206 28.122 13.3216 28.3322 13.6537C28.5088 13.9312 28.534 14.234 28.3785 14.5325C28.2019 14.8731 27.916 15.0455 27.5291 15.0455C26.2467 15.0455 24.9685 15.0455 23.686 15.0455V15.0497C22.412 15.0497 21.138 15.0539 19.864 15.0497C19.372 15.0497 18.9894 14.7343 18.9221 14.2928C18.838 13.6916 19.2543 13.2291 19.8934 13.2248ZM24.2579 18.939C24.2579 18.9306 24.2537 18.9222 24.2537 18.9096C24.0182 18.8129 23.7701 18.8759 23.5263 18.8633C23.274 18.8507 23.2488 18.8381 23.2488 18.5858C23.2446 18.0476 23.2488 17.5094 23.2488 16.9712C23.2488 16.6138 23.2488 16.2564 23.2488 15.9032C23.2488 15.7435 23.3118 15.672 23.4716 15.6762C23.6188 15.6804 23.7659 15.6762 23.9131 15.6762C24.1906 15.6804 24.2074 15.693 24.2074 15.9747C24.2074 16.7358 24.2074 17.501 24.2074 18.2621C24.2074 18.3714 24.1906 18.4891 24.2621 18.5858C24.2705 18.5858 24.2831 18.5858 24.2915 18.5858C24.2915 18.59 24.2873 18.59 24.2873 18.5942C24.2327 18.6279 24.2327 18.6825 24.2453 18.7372C24.2579 18.7582 24.2705 18.775 24.2831 18.7876C24.2789 18.8339 24.2747 18.8801 24.2705 18.9264C24.2663 18.9306 24.2621 18.9348 24.2579 18.939ZM26.2551 18.9222C26.2173 18.9054 26.171 18.9096 26.129 18.9138C25.78 18.9138 25.4268 18.9138 25.0778 18.9138C24.9853 18.9138 24.8844 18.9264 24.8802 18.7918C24.8928 17.8458 24.8844 16.8955 24.8844 15.9453C24.8844 15.8738 24.8886 15.7981 24.8507 15.7392C24.9264 15.6552 25.0358 15.6678 25.1367 15.6678C25.9019 15.6678 26.663 15.6636 27.4282 15.6678C27.6174 15.6678 27.8024 15.6425 27.9874 15.5921C28.5509 15.4365 29.0176 14.9193 29.0765 14.3769C29.1521 13.7084 28.8578 13.0903 28.2944 12.8086C28.0085 12.6656 28.0799 12.632 28.1724 12.4344C28.6266 11.4967 28.8116 10.5044 28.6434 9.47426C28.4289 8.17502 27.8066 7.09021 26.7513 6.28291C25.9986 5.70687 25.1493 5.37049 24.2032 5.2906C24.0729 5.28219 23.9804 5.2864 23.9131 5.30322C23.6146 5.2864 23.3202 5.32004 23.0217 5.36629C23.0175 5.36629 23.0091 5.36629 23.0049 5.36629C22.967 5.36208 22.9292 5.36629 22.8872 5.38731C22.0925 5.52607 21.3735 5.84142 20.7428 6.33757C19.3342 7.46022 18.7203 8.94027 18.8591 10.7273C18.9053 11.3369 19.0861 11.9172 19.3889 12.4554C19.4057 12.5143 19.4225 12.5731 19.473 12.6152C19.4772 12.6614 19.4561 12.6993 19.4267 12.7329C19.1702 12.7876 18.9558 12.9095 18.7876 13.1113C18.7371 13.1197 18.7035 13.1492 18.6909 13.1996C18.3377 13.6495 18.2452 14.1331 18.468 14.6713C18.4849 14.7469 18.5017 14.8184 18.5521 14.8773C18.5521 14.8983 18.5521 14.9193 18.5563 14.9446C18.6152 15.1001 18.7287 15.2095 18.8591 15.3146C19.1702 15.5584 19.5276 15.6552 19.9187 15.6552C20.7091 15.6552 21.4996 15.6552 22.2901 15.6552C22.5634 15.6552 22.5676 15.6594 22.5676 15.9411C22.5676 16.7316 22.5676 17.522 22.5676 18.3125C22.5676 18.8591 22.5676 18.8591 22.0252 18.8591C21.651 18.8591 21.2684 18.8213 20.911 18.9853C20.8311 19.0231 20.747 18.9895 20.6671 18.96C20.0742 18.7582 19.515 18.4891 18.981 18.1653C17.4968 17.2698 16.3447 16.0588 15.5205 14.5325C15.4827 14.461 15.4575 14.3769 15.3734 14.3391C15.3776 14.3265 15.3818 14.3139 15.3818 14.297C15.3313 14.0237 15.1716 13.7967 15.0791 13.5402C14.6123 12.2536 14.3811 10.9375 14.4862 9.56677C14.5745 8.43571 14.8394 7.35511 15.3103 6.32916C15.6803 5.51766 16.1765 4.77763 16.7651 4.10488C17.8668 2.85189 19.2081 1.95208 20.789 1.42229C21.9832 1.01864 23.2109 0.867276 24.4723 0.972393C25.124 1.02705 25.759 1.14899 26.3897 1.32559C26.6714 1.40548 26.9321 1.55684 27.2306 1.58207C27.239 1.57787 27.2474 1.57366 27.2558 1.56946C27.3357 1.70821 27.4913 1.72924 27.6174 1.7881C28.9545 2.39778 30.0561 3.30599 30.9812 4.43705C31.7464 5.3747 32.2846 6.43428 32.642 7.59057C32.663 7.65784 32.6546 7.75035 32.7387 7.77978C32.7387 7.77978 32.7387 7.77978 32.7345 7.77978C32.6967 7.89331 32.7429 8.00262 32.7682 8.10774C32.991 9.08323 33.0625 10.0671 32.9658 11.0678C32.8102 12.6993 32.272 14.1835 31.326 15.5248C30.279 17.0133 28.9167 18.1023 27.239 18.8003C26.9237 18.939 26.6083 19.0988 26.2551 18.9222Z" fill="#169C86" stroke="#169C86" stroke-width="0.7"/>
<path fill-rule="evenodd" clip-rule="evenodd" d="M30.9728 35.1059C30.7374 33.9959 30.4683 32.8901 30.4388 31.7548C30.4094 30.7457 30.4262 29.7366 30.4178 28.7316C30.4178 28.6475 30.422 28.5635 30.4094 28.4794C30.3926 28.3448 30.3043 28.2691 30.1739 28.2565C30.0436 28.2439 29.9343 28.2944 29.8922 28.4247C29.8712 28.4878 29.867 28.5635 29.867 28.6307C29.867 29.5431 29.867 30.4514 29.867 31.3638C29.867 31.7506 29.8964 32.1332 29.9511 32.5159C29.9805 32.8985 30.0436 33.2769 30.1151 33.6553C30.1193 33.7647 30.1403 33.874 30.1613 33.9833C30.237 34.3449 30.3884 34.7023 30.3463 35.0723C30.216 36.2917 30.0226 37.4984 29.8418 38.7094C29.7829 39.1046 29.7198 39.4956 29.6652 39.8909C29.6357 40.0885 29.7324 40.2399 29.8922 40.2525C30.073 40.2651 30.1823 40.1684 30.2076 39.9876C30.2118 39.9582 30.2202 39.9329 30.2244 39.9035C30.3295 39.1971 30.4346 38.4907 30.5397 37.7843C30.5944 37.4269 30.6449 37.0695 30.6995 36.7121C30.9518 37.7717 31.0569 38.8397 31.0317 39.9203C31.0275 40.1348 31.1242 40.2483 31.2966 40.2483C31.4606 40.2483 31.5699 40.1305 31.5783 39.9245C31.5867 39.6302 31.5909 39.3359 31.5825 39.0415C31.5363 37.7044 31.2461 36.4052 30.9728 35.1059Z" fill="#169C86" stroke="#169C86" stroke-width="0.7"/>
<path fill-rule="evenodd" clip-rule="evenodd" d="M42.1742 39.7439C41.9892 38.4699 41.8042 37.1959 41.6108 35.9218C41.5183 35.3164 41.5057 34.7235 41.6528 34.1138C41.8547 33.2645 41.9808 32.3941 41.985 31.5153C41.9892 30.5398 41.9892 29.5686 41.985 28.5931C41.985 28.3534 41.9009 28.2483 41.7159 28.2483C41.5309 28.2483 41.4468 28.3576 41.4468 28.5931C41.4468 29.455 41.4552 30.317 41.4468 31.179C41.4426 31.6541 41.4132 32.1292 41.3501 32.6043C41.1987 33.7648 40.917 34.9001 40.6858 36.0438C40.4293 37.301 40.2232 38.5624 40.2779 39.8532C40.2905 40.1223 40.3662 40.2401 40.5512 40.2443C40.7404 40.2443 40.8287 40.1223 40.8245 39.8574C40.8245 39.6556 40.8245 39.4496 40.8245 39.2478C40.8245 38.39 40.9549 37.5491 41.1567 36.7081C41.2618 37.4229 41.3669 38.1335 41.472 38.8483C41.5267 39.2141 41.5814 39.5799 41.636 39.9499C41.6654 40.1518 41.7874 40.2695 41.9472 40.2443C42.1364 40.2148 42.1994 40.0887 42.1826 39.9079C42.1868 39.8532 42.1826 39.7986 42.1742 39.7439Z" fill="#169C86" stroke="#169C86" stroke-width="0.7"/>
<path fill-rule="evenodd" clip-rule="evenodd" d="M44.7979 37.7256C44.7853 37.1033 44.7685 36.481 44.7096 35.8587C44.6465 35.2196 44.5582 34.5805 44.5835 33.9329C44.6423 32.4277 44.7012 30.9224 44.6339 29.4171C44.6003 28.635 44.5582 27.853 44.4027 27.0793C44.3438 26.642 44.2387 26.2131 44.0453 25.8137C44.0369 25.8095 44.0242 25.8053 44.0158 25.8011C44.0242 25.8011 44.0369 25.8053 44.0453 25.8137C43.9654 25.5782 43.8266 25.389 43.6374 25.2334C43.5996 25.1452 43.5197 25.0989 43.4482 25.04C42.7208 24.464 41.8799 24.094 41.0431 23.724C40.4418 23.4549 39.8196 23.2362 39.2351 22.9335C38.7053 22.6602 38.4068 22.2355 38.432 21.6216C38.4362 21.567 38.432 21.5081 38.4152 21.4576C38.3731 21.3105 38.268 21.2306 38.1167 21.2516C37.9779 21.2684 37.8896 21.3651 37.8854 21.5081C37.8518 22.1851 38.0368 22.7695 38.6044 23.19C38.8945 23.4044 39.2141 23.5558 39.5463 23.6945C40.4208 24.0688 41.3122 24.4135 42.149 24.8676C42.7628 25.1998 43.3893 25.5236 43.6542 26.2426C43.7551 26.6126 43.8519 26.9868 43.9065 27.3652C44.121 28.8663 44.1294 30.38 44.1083 31.8937C44.0915 33.0962 43.9528 34.2987 44.121 35.5013C44.2597 36.5104 44.2387 37.5279 44.2723 38.5413C44.2891 39.0038 44.2891 39.4663 44.2975 39.9288C44.3018 40.1264 44.4195 40.2484 44.5877 40.2484C44.7474 40.2442 44.8442 40.1306 44.8484 39.933C44.8484 39.8994 44.8484 39.8615 44.8484 39.8279C44.8273 39.1257 44.8147 38.4277 44.7979 37.7256Z" fill="#169C86"/>
<path d="M44.0453 25.8137C44.2387 26.2131 44.3438 26.642 44.4027 27.0793C44.5582 27.853 44.6003 28.635 44.6339 29.4171C44.7012 30.9224 44.6423 32.4277 44.5835 33.9329C44.5582 34.5805 44.6465 35.2196 44.7096 35.8587C44.7685 36.481 44.7853 37.1033 44.7979 37.7256C44.8147 38.4278 44.8273 39.1257 44.8484 39.8279C44.8484 39.8615 44.8484 39.8994 44.8484 39.933C44.8442 40.1306 44.7474 40.2442 44.5877 40.2484C44.4195 40.2484 44.3018 40.1264 44.2975 39.9288C44.2891 39.4663 44.2891 39.0038 44.2723 38.5413C44.2387 37.5279 44.2597 36.5104 44.121 35.5013C43.9528 34.2987 44.0915 33.0962 44.1083 31.8937C44.1294 30.38 44.121 28.8663 43.9065 27.3652C43.8519 26.9868 43.7551 26.6126 43.6542 26.2426C43.3893 25.5236 42.7628 25.1998 42.149 24.8676C41.3122 24.4135 40.4208 24.0688 39.5463 23.6945C39.2141 23.5558 38.8945 23.4044 38.6044 23.19C38.0368 22.7695 37.8518 22.1851 37.8854 21.5081C37.8896 21.3651 37.9779 21.2684 38.1167 21.2516C38.268 21.2306 38.3731 21.3105 38.4152 21.4576C38.432 21.5081 38.4362 21.567 38.432 21.6216C38.4068 22.2355 38.7053 22.6602 39.2351 22.9335C39.8196 23.2362 40.4418 23.4549 41.0431 23.724C41.8799 24.094 42.7208 24.464 43.4482 25.04C43.5197 25.0989 43.5996 25.1452 43.6374 25.2334C43.8266 25.389 43.9654 25.5782 44.0453 25.8137ZM44.0453 25.8137C44.0369 25.8095 44.0242 25.8053 44.0158 25.8011C44.0242 25.8011 44.0369 25.8053 44.0453 25.8137Z" stroke="#169C86" stroke-width="0.7"/>
<path fill-rule="evenodd" clip-rule="evenodd" d="M33.9834 21.5459C33.9749 21.3693 33.853 21.239 33.6974 21.2516C33.5208 21.2642 33.4409 21.3735 33.4325 21.5417C33.4283 21.5964 33.4325 21.6552 33.4325 21.7099C33.4241 22.2144 33.1971 22.5887 32.7766 22.8578C32.5453 23.0049 32.2931 23.1058 32.0408 23.2152C31.1662 23.5894 30.2748 23.93 29.4423 24.3841C28.9503 24.6532 28.45 24.9181 28.0926 25.3638C27.5964 25.986 27.4997 26.7513 27.3946 27.5081C27.3357 27.8109 27.2979 28.1136 27.2979 28.4206C27.2559 28.5215 27.2601 28.6224 27.2685 28.7275C27.2516 28.9504 27.2306 29.1732 27.2222 29.396C27.1802 30.5986 27.1928 31.8053 27.2432 33.0079C27.2853 33.996 27.2474 34.9757 27.1465 35.9638C27.012 37.2672 27.054 38.5791 27.012 39.8867C27.0036 40.1138 27.1003 40.2357 27.2727 40.2483C27.4535 40.2567 27.5586 40.1348 27.5628 39.8951C27.5796 39.1257 27.6006 38.3562 27.6175 37.5868C27.6343 36.6744 27.731 35.7703 27.8067 34.8663C27.8739 34.0296 27.7941 33.1887 27.773 32.3477C27.7436 31.0737 27.7478 29.7997 27.8151 28.5257C27.8445 28.4668 27.8487 28.4079 27.8361 28.3449C27.8445 28.2524 27.8487 28.1599 27.8571 28.0674C27.8697 28.0127 27.8866 27.9622 27.8908 27.9076C27.937 27.4283 28.0253 26.9573 28.1472 26.4906C28.2692 26.0281 28.5046 25.6539 28.9041 25.368C29.5768 24.8928 30.3253 24.5649 31.0737 24.2285C31.6918 23.951 32.3393 23.7323 32.9364 23.4086C33.6722 23.0049 34.0128 22.3784 33.9834 21.5459ZM27.8235 28.0505C27.8235 28.0463 27.8235 28.0421 27.8235 28.0337H27.8277C27.8277 28.0421 27.8235 28.0463 27.8235 28.0505Z" fill="#169C86" stroke="#169C86" stroke-width="0.7"/>
<path fill-rule="evenodd" clip-rule="evenodd" d="M22.2482 33.8658C22.2187 33.8616 22.1935 33.8658 22.1641 33.8616C20.9952 33.8279 19.8263 33.7775 18.6574 33.7607C17.766 33.748 16.9713 33.4916 16.2901 32.9155C16.0547 32.6843 15.7561 32.5833 15.4408 32.5497C14.7344 32.474 14.0785 32.6464 13.4646 32.987C13.1408 33.1678 12.8128 33.3444 12.4597 33.4621C11.9173 33.6471 11.3706 33.706 10.8661 33.3654C9.99991 32.7768 9.55422 31.6205 9.99992 30.5062C10.3321 29.6821 10.988 29.2785 11.8668 29.3668C12.0854 29.3878 12.2831 29.3584 12.4765 29.2743C12.611 29.2154 12.7414 29.1523 12.8717 29.0766C12.9348 29.043 12.9852 29.022 13.0357 29.0851C13.1408 29.2154 13.2922 29.2154 13.4351 29.2322C13.7042 29.2616 13.9775 29.2911 14.2508 29.3247C14.5704 29.3668 14.5704 29.3668 14.5914 29.6905C14.5914 29.7115 14.5914 29.7326 14.5914 29.7536C14.6082 30.2708 14.9825 30.5651 15.4954 30.4726C15.8486 30.4095 16.1472 30.2287 16.4541 30.0647C17.3917 29.5602 18.3883 29.2827 19.4563 29.3289C20.272 29.3668 21.0877 29.4467 21.9076 29.5013C22.122 29.5139 22.2397 29.4172 22.2482 29.249C22.2566 29.0808 22.143 28.9673 21.937 28.9547C21.4955 28.9211 21.0582 28.8748 20.6167 28.8664C20.4107 28.8622 20.3392 28.7865 20.314 28.5931C20.0743 26.8482 19.4941 25.2252 18.4681 23.7829C18.1612 23.3499 17.8417 22.9252 17.417 22.5972C17.295 22.4206 17.1311 22.2945 16.9503 22.181C16.7568 22.038 16.5676 21.8866 16.3658 21.7563C15.4576 21.1845 14.4695 20.8817 13.3889 20.8817C11.9425 20.8817 10.4919 20.8901 9.04545 20.8817C8.26758 20.8775 7.51495 20.9826 6.78753 21.2517C6.47639 21.3737 6.18627 21.5376 5.90035 21.7058C5.8625 21.7226 5.82046 21.7437 5.78261 21.7605C5.65227 21.853 5.52192 21.9413 5.39158 22.0338C5.21919 22.1389 5.09725 22.3029 4.93747 22.4248C4.90804 22.4543 4.88281 22.4837 4.85338 22.5131C4.62633 22.7065 4.36564 22.8621 4.21847 23.1396C4.17222 23.1901 4.12176 23.2405 4.07551 23.2952C3.26401 24.3001 2.68376 25.4354 2.29273 26.6632C1.8218 28.1432 1.66623 29.6695 1.75453 31.2168C1.77555 31.6121 1.78816 32.0115 1.90169 32.3983C1.91851 32.781 2.01942 33.1468 2.11192 33.5168C2.41887 34.7109 2.88138 35.8336 3.57515 36.8595C4.07551 37.5995 4.65996 38.2639 5.39158 38.7853C5.54295 38.924 5.71113 39.0333 5.89614 39.1216C5.93819 39.1721 5.99285 39.2015 6.06012 39.2141C6.62776 39.5631 7.24585 39.7902 7.90178 39.8701C8.99499 40.0004 10.0966 39.9205 11.194 39.9247C11.2697 39.9289 11.3496 39.9331 11.4253 39.9331C14.4863 39.9331 17.5473 39.9331 20.6083 39.9331C21.0204 39.9331 21.4367 39.9331 21.8487 39.9331C22.0421 39.9331 22.1599 39.8448 22.1641 39.6472C22.1683 39.2141 22.1683 38.7769 22.1641 38.3438C22.1641 38.2092 22.1178 38.0957 21.9622 38.0663C21.7983 38.0032 21.6301 38.0368 21.4661 38.0368C18.8171 38.0368 16.1724 38.0326 13.5234 38.0368C13.0021 38.0368 12.5059 37.9401 12.035 37.7257C10.5886 37.074 9.73922 35.8798 9.10852 34.4881C9.02863 34.3157 9.13375 34.3241 9.24728 34.3241C10.3027 34.3241 11.3622 34.3241 12.4176 34.3241C12.6825 34.3241 12.9474 34.3199 13.2165 34.3157C13.309 34.3199 13.3973 34.3241 13.4898 34.3241C15.8654 34.3409 18.2411 34.282 20.6125 34.3745C21.1423 34.3956 21.6763 34.4166 22.2061 34.4334C22.4121 34.4418 22.5383 34.3409 22.5467 34.1769C22.5635 33.9961 22.45 33.8826 22.2482 33.8658ZM8.65021 39.3066C7.96485 39.3108 7.32153 39.1427 6.69924 38.8609C6.49741 38.7684 6.29559 38.6675 6.09376 38.5792C6.08956 38.5792 6.08115 38.5792 6.07694 38.5792C6.06433 38.4825 5.97603 38.4489 5.90875 38.4026C4.83656 37.6458 4.0587 36.6451 3.48265 35.4804C3.03275 34.5764 2.72581 33.6177 2.52398 32.6254C2.49876 32.4993 2.49876 32.3605 2.42728 32.2428C2.43148 32.2302 2.43989 32.2175 2.4441 32.2049C2.46932 32.1166 2.45671 32.0241 2.4441 31.9358C2.38943 31.591 2.36421 31.2421 2.34318 30.8931C2.30534 30.2161 2.34739 29.535 2.43148 28.8622C2.60387 27.5461 2.97389 26.2889 3.58356 25.1074C3.93255 24.4305 4.38666 23.8292 4.88702 23.2616C4.91224 23.2153 4.94588 23.1733 4.97532 23.1354C5.02577 23.0934 5.07202 23.0471 5.11407 22.9967C5.1435 22.9714 5.17294 22.9504 5.20237 22.9252C5.21919 22.9084 5.2276 22.8916 5.236 22.8705C5.3201 22.8831 5.35374 22.8285 5.35374 22.7486C5.36215 22.7444 5.37056 22.7402 5.37897 22.736C5.37897 22.736 5.37897 22.736 5.37897 22.7318C5.52613 22.7192 5.77 22.53 5.84568 22.3702C5.91296 22.3912 5.93398 22.3534 5.93398 22.2945C5.9466 22.3029 5.96342 22.3029 5.98023 22.2945C6.23252 22.1852 6.49321 22.08 6.68242 21.8656C6.69503 21.874 6.70765 21.8782 6.72446 21.8782C6.76651 21.8656 6.80015 21.8488 6.82538 21.8278C6.95572 21.7815 7.07345 21.7016 7.2038 21.668C7.22062 21.6806 7.24164 21.6848 7.27107 21.689C7.59063 21.6386 7.89757 21.5166 8.21713 21.5082C9.02022 21.4872 9.82332 21.504 10.6264 21.4662C10.6937 21.462 10.7652 21.4704 10.8282 21.504C10.824 21.5208 10.8114 21.5292 10.7988 21.5376C9.30614 22.387 8.29281 23.6694 7.55699 25.1873C7.04822 26.2343 6.73287 27.3443 6.56469 28.4964C6.50582 28.8958 6.41752 29.2953 6.4848 29.7073C6.49741 29.7284 6.50582 29.7452 6.51423 29.7662C6.51423 29.7788 6.51423 29.7956 6.51423 29.8083C6.51423 29.8125 6.51423 29.8167 6.51423 29.8251C6.50582 29.8209 6.49321 29.8209 6.48059 29.8167C6.43855 29.8503 6.42173 29.8966 6.42173 29.947C6.40491 30.2666 6.40491 30.5861 6.42173 30.9057C6.42593 30.9561 6.43855 31.0024 6.48059 31.036C6.49741 31.0402 6.50582 31.0402 6.51843 31.036C6.51843 31.0402 6.51843 31.0402 6.51843 31.0444C6.51843 31.1075 6.51003 31.1706 6.51423 31.2336C6.59412 32.5455 6.86742 33.8153 7.36778 35.0347C7.50654 35.3753 7.64949 35.7158 7.85132 36.027C7.84711 36.0396 7.83871 36.0522 7.8345 36.069C7.8345 36.1741 7.89337 36.254 7.94382 36.3381C8.44839 37.2043 9.06647 37.978 9.84434 38.6129C10.1723 38.882 10.5129 39.13 10.8829 39.3024C10.1597 39.3024 9.40705 39.3024 8.65021 39.3066ZM9.41546 36.2751C10.5213 37.8308 11.9887 38.6928 13.9481 38.6717C16.37 38.6423 18.7961 38.6633 21.218 38.6633C21.3105 38.6633 21.3988 38.6717 21.4913 38.6549C21.5334 38.6465 21.5922 38.6507 21.6133 38.6087C21.6133 38.6087 21.6132 38.6087 21.6175 38.6129C21.5418 38.7054 21.5712 38.8189 21.5628 38.9282C21.5544 39.0502 21.588 39.1721 21.525 39.2898C21.5207 39.294 21.5165 39.2982 21.5123 39.3024C21.4367 39.2856 21.3568 39.294 21.2769 39.294C18.6111 39.294 15.9411 39.294 13.2754 39.294C13.1829 39.294 13.0946 39.294 13.0021 39.3066C12.9558 39.315 12.9096 39.3319 12.8591 39.3403C12.7414 39.3108 12.6194 39.2898 12.4933 39.2772C12.4849 39.2688 12.4765 39.2562 12.4723 39.2436C12.077 39.1427 11.7154 38.945 11.3202 38.8315C11.3076 38.8357 11.295 38.8399 11.2823 38.8441C11.0805 38.7222 10.8787 38.596 10.6727 38.4741C10.6685 38.4573 10.6601 38.4447 10.6516 38.4279C10.6096 38.3606 10.5423 38.3227 10.4792 38.2765C10.1975 38.0789 9.94525 37.8476 9.70979 37.5995C9.28091 37.1496 8.89408 36.6619 8.58294 36.1195C8.5493 36.0606 8.52407 35.9807 8.43157 35.9933C8.43157 35.9891 8.43157 35.9849 8.43157 35.9849C8.41054 35.9345 8.39372 35.8798 8.36429 35.8336C7.6579 34.5301 7.26266 33.1342 7.1113 31.6667C7.0272 30.872 7.04822 30.0732 7.08186 29.2785C7.08186 29.2743 7.08186 29.2743 7.08186 29.2701C7.21641 29.2616 7.17016 29.1439 7.17857 29.0724C7.33414 27.7017 7.68734 26.3941 8.33065 25.1663C8.97818 23.9427 9.81911 22.9 11.0259 22.1852C11.9887 21.6175 13.0231 21.3989 14.1331 21.5503C14.9572 21.6638 15.6888 22.0002 16.3616 22.4795C16.4205 22.5215 16.4709 22.593 16.555 22.5636C16.5676 22.572 16.5802 22.5804 16.5971 22.5888C16.6055 22.593 16.6139 22.5972 16.6265 22.6014C16.6854 22.6645 16.7568 22.715 16.8325 22.757C16.8283 22.7696 16.8241 22.7822 16.8199 22.799C16.8367 22.8537 16.8746 22.8958 16.9208 22.9294C17.2067 23.1396 17.417 23.4213 17.6398 23.6904C18.3672 24.5608 18.8802 25.5531 19.246 26.6211C19.4563 27.2308 19.5992 27.8615 19.7043 28.4964C19.7169 28.5637 19.7422 28.6394 19.6707 28.6898C19.5193 28.8075 19.1914 28.6898 19.1577 28.5006C19.0063 27.6134 18.7541 26.7557 18.3714 25.9357C17.9426 25.0107 17.3749 24.1866 16.6139 23.497C16.5466 23.434 16.4793 23.3667 16.3742 23.4171C16.3742 23.4213 16.3742 23.4255 16.3742 23.4298C16.3742 23.4255 16.3742 23.4255 16.3742 23.4213C16.3027 23.2868 16.1682 23.2153 16.0505 23.1312C14.5746 22.0632 12.6405 22.0254 11.1268 23.0345C9.899 23.8502 9.10011 25.0023 8.54509 26.3394C7.927 27.8236 7.70416 29.3794 7.76723 30.9814C7.78404 31.3808 7.80927 31.7845 7.89337 32.1797C7.86814 32.2133 7.87234 32.2722 7.86393 32.3143C7.85973 32.3437 7.86814 32.3058 7.86393 32.3353C7.86393 32.3983 7.87234 32.4614 7.88496 32.5245C8.12883 33.8742 8.60816 35.144 9.41546 36.2751ZM10.2438 33.7102C9.88218 33.7144 9.52058 33.7102 9.15477 33.7102C8.88988 33.7102 8.83522 33.664 8.75953 33.4033C8.63339 32.9576 8.51986 32.5119 8.461 32.0494C8.461 32.0073 8.43577 31.9695 8.40634 31.9358C8.40213 31.8601 8.39372 31.7845 8.38531 31.7088C8.40213 31.6331 8.39372 31.549 8.39793 31.4733C8.39372 31.4102 8.39793 31.343 8.35168 31.2883C8.34327 31.2841 8.33486 31.2841 8.32645 31.2799C8.32224 30.788 8.29702 30.296 8.32645 29.7998C8.40634 28.4628 8.70067 27.1887 9.29773 25.9862C9.78548 25.0023 10.4288 24.1361 11.358 23.5265C12.5311 22.757 13.7673 22.6098 15.0666 23.1901C15.445 23.3583 15.7729 23.6063 16.1135 23.8418H16.1177C16.1135 23.846 16.1093 23.8544 16.1051 23.8586C16.1261 23.9806 16.2228 24.0436 16.3027 24.1193C16.555 24.3632 16.7905 24.6197 17.0007 24.9014C17.7828 25.9526 18.2159 27.1509 18.4681 28.4207C18.527 28.7108 18.5144 28.7319 18.2285 28.7865C17.3917 28.9379 16.6097 29.2322 15.8823 29.6737C15.7561 29.7494 15.6216 29.8083 15.4744 29.8377C15.281 29.8839 15.2305 29.8503 15.2095 29.6569C15.1969 29.5518 15.1801 29.4509 15.1633 29.3457C15.117 28.9799 14.9741 28.8244 14.6167 28.7487C14.3434 28.6898 14.0616 28.6688 13.7841 28.6352C13.5949 28.6141 13.4351 28.5595 13.3048 28.4165C13.166 28.2693 12.9979 28.2609 12.8255 28.3576C12.7456 28.3997 12.6741 28.4586 12.5984 28.509C12.3714 28.6478 12.1443 28.7739 11.8542 28.7361C11.0973 28.6436 10.4414 28.9169 9.93684 29.4509C9.40705 30.0143 9.19682 30.7417 9.22205 31.5069C9.25148 32.3437 9.60047 33.0627 10.2228 33.6345C10.2396 33.6598 10.2732 33.6724 10.2438 33.7102ZM13.3847 33.7144C13.4057 33.7102 13.4309 33.706 13.452 33.6934C13.5276 33.6597 13.6033 33.6177 13.6748 33.5757C14.4022 33.172 15.1464 32.9576 15.9495 33.3654C15.9706 33.3654 15.9874 33.3654 16.0042 33.3612C16.1009 33.542 16.2397 33.6682 16.4583 33.6808C16.4625 33.6808 16.4667 33.6808 16.4709 33.6808C16.4289 33.7228 16.37 33.7018 16.3196 33.7018C15.3399 33.7102 14.3602 33.706 13.3847 33.7144C13.3679 33.7186 13.3468 33.7186 13.3258 33.7144C13.3468 33.7144 13.3637 33.7144 13.3847 33.7144Z" fill="#169C86"/>
<path d="M13.3847 33.7144C13.4057 33.7102 13.4309 33.706 13.452 33.6934C13.5276 33.6597 13.6033 33.6177 13.6748 33.5757C14.4022 33.172 15.1464 32.9576 15.9495 33.3654C15.9706 33.3654 15.9874 33.3654 16.0042 33.3612C16.1009 33.542 16.2397 33.6682 16.4583 33.6808C16.4625 33.6808 16.4667 33.6808 16.4709 33.6808C16.4289 33.7228 16.37 33.7018 16.3196 33.7018C15.3399 33.7102 14.3602 33.706 13.3847 33.7144ZM13.3847 33.7144C13.3679 33.7186 13.3468 33.7186 13.3258 33.7144C13.3468 33.7144 13.3637 33.7144 13.3847 33.7144ZM22.2482 33.8658C22.2187 33.8616 22.1935 33.8658 22.1641 33.8616C20.9952 33.8279 19.8263 33.7775 18.6574 33.7607C17.766 33.748 16.9713 33.4916 16.2901 32.9155C16.0547 32.6843 15.7561 32.5833 15.4408 32.5497C14.7344 32.474 14.0785 32.6464 13.4646 32.987C13.1408 33.1678 12.8128 33.3444 12.4597 33.4621C11.9173 33.6471 11.3706 33.706 10.8661 33.3654C9.99991 32.7768 9.55422 31.6205 9.99991 30.5062C10.3321 29.6821 10.988 29.2785 11.8668 29.3668C12.0854 29.3878 12.2831 29.3584 12.4765 29.2743C12.611 29.2154 12.7414 29.1523 12.8717 29.0766C12.9348 29.043 12.9852 29.022 13.0357 29.0851C13.1408 29.2154 13.2922 29.2154 13.4351 29.2322C13.7042 29.2616 13.9775 29.2911 14.2508 29.3247C14.5704 29.3668 14.5704 29.3668 14.5914 29.6905C14.5914 29.7115 14.5914 29.7326 14.5914 29.7536C14.6082 30.2708 14.9825 30.5651 15.4954 30.4726C15.8486 30.4095 16.1472 30.2287 16.4541 30.0647C17.3917 29.5602 18.3883 29.2827 19.4563 29.3289C20.272 29.3668 21.0877 29.4467 21.9076 29.5013C22.122 29.5139 22.2397 29.4172 22.2482 29.249C22.2566 29.0808 22.143 28.9673 21.937 28.9547C21.4955 28.9211 21.0582 28.8748 20.6167 28.8664C20.4107 28.8622 20.3392 28.7865 20.314 28.5931C20.0743 26.8482 19.4941 25.2252 18.4681 23.7829C18.1612 23.3499 17.8417 22.9252 17.417 22.5972C17.295 22.4206 17.1311 22.2945 16.9503 22.181C16.7568 22.038 16.5676 21.8866 16.3658 21.7563C15.4576 21.1845 14.4695 20.8817 13.3889 20.8817C11.9425 20.8817 10.4919 20.8901 9.04545 20.8817C8.26758 20.8775 7.51494 20.9826 6.78753 21.2517C6.47639 21.3737 6.18627 21.5376 5.90035 21.7058C5.8625 21.7226 5.82046 21.7437 5.78261 21.7605C5.65227 21.853 5.52192 21.9413 5.39158 22.0338C5.21919 22.1389 5.09725 22.3029 4.93747 22.4248C4.90804 22.4543 4.88281 22.4837 4.85338 22.5131C4.62633 22.7065 4.36564 22.8621 4.21847 23.1396C4.17222 23.1901 4.12176 23.2405 4.07551 23.2952C3.26401 24.3001 2.68376 25.4354 2.29273 26.6632C1.8218 28.1432 1.66623 29.6695 1.75453 31.2168C1.77555 31.6121 1.78816 32.0115 1.90169 32.3983C1.91851 32.781 2.01942 33.1468 2.11192 33.5168C2.41887 34.7109 2.88138 35.8336 3.57515 36.8595C4.07551 37.5995 4.65996 38.2639 5.39158 38.7853C5.54295 38.924 5.71113 39.0333 5.89614 39.1216C5.93819 39.1721 5.99285 39.2015 6.06012 39.2141C6.62776 39.5631 7.24585 39.7902 7.90178 39.8701C8.99499 40.0004 10.0966 39.9205 11.194 39.9247C11.2697 39.9289 11.3496 39.9331 11.4253 39.9331C14.4863 39.9331 17.5473 39.9331 20.6083 39.9331C21.0204 39.9331 21.4367 39.9331 21.8487 39.9331C22.0421 39.9331 22.1599 39.8448 22.1641 39.6472C22.1683 39.2141 22.1683 38.7769 22.1641 38.3438C22.1641 38.2092 22.1178 38.0957 21.9622 38.0663C21.7983 38.0032 21.6301 38.0368 21.4661 38.0368C18.8171 38.0368 16.1724 38.0326 13.5234 38.0368C13.0021 38.0368 12.5059 37.9401 12.035 37.7257C10.5886 37.074 9.73922 35.8798 9.10852 34.4881C9.02863 34.3157 9.13375 34.3241 9.24728 34.3241C10.3027 34.3241 11.3622 34.3241 12.4176 34.3241C12.6825 34.3241 12.9474 34.3199 13.2165 34.3157C13.309 34.3199 13.3973 34.3241 13.4898 34.3241C15.8654 34.3409 18.2411 34.282 20.6125 34.3745C21.1423 34.3956 21.6763 34.4166 22.2061 34.4334C22.4121 34.4418 22.5383 34.3409 22.5467 34.1769C22.5635 33.9961 22.45 33.8826 22.2482 33.8658ZM8.65021 39.3066C7.96485 39.3108 7.32153 39.1427 6.69924 38.8609C6.49741 38.7684 6.29559 38.6675 6.09376 38.5792C6.08956 38.5792 6.08115 38.5792 6.07694 38.5792C6.06433 38.4825 5.97603 38.4489 5.90875 38.4026C4.83656 37.6458 4.0587 36.6451 3.48265 35.4804C3.03275 34.5764 2.72581 33.6177 2.52398 32.6254C2.49876 32.4993 2.49876 32.3605 2.42728 32.2428C2.43148 32.2302 2.43989 32.2175 2.4441 32.2049C2.46932 32.1166 2.45671 32.0241 2.4441 31.9358C2.38943 31.591 2.36421 31.2421 2.34318 30.8931C2.30534 30.2161 2.34739 29.535 2.43148 28.8622C2.60387 27.5461 2.97389 26.2889 3.58356 25.1074C3.93255 24.4305 4.38666 23.8292 4.88702 23.2616C4.91224 23.2153 4.94588 23.1733 4.97532 23.1354C5.02577 23.0934 5.07202 23.0471 5.11407 22.9967C5.1435 22.9714 5.17294 22.9504 5.20237 22.9252C5.21919 22.9084 5.2276 22.8916 5.236 22.8705C5.3201 22.8831 5.35374 22.8285 5.35374 22.7486C5.36215 22.7444 5.37056 22.7402 5.37897 22.736C5.37897 22.736 5.37897 22.736 5.37897 22.7318C5.52613 22.7192 5.77 22.53 5.84568 22.3702C5.91296 22.3912 5.93398 22.3534 5.93398 22.2945C5.9466 22.3029 5.96342 22.3029 5.98023 22.2945C6.23252 22.1852 6.49321 22.08 6.68242 21.8656C6.69503 21.874 6.70765 21.8782 6.72446 21.8782C6.76651 21.8656 6.80015 21.8488 6.82538 21.8278C6.95572 21.7815 7.07345 21.7016 7.2038 21.668C7.22062 21.6806 7.24164 21.6848 7.27107 21.689C7.59063 21.6386 7.89757 21.5166 8.21713 21.5082C9.02022 21.4872 9.82332 21.504 10.6264 21.4662C10.6937 21.462 10.7652 21.4704 10.8282 21.504C10.824 21.5208 10.8114 21.5292 10.7988 21.5376C9.30614 22.387 8.29281 23.6694 7.55699 25.1873C7.04822 26.2343 6.73287 27.3443 6.56469 28.4964C6.50582 28.8958 6.41752 29.2953 6.4848 29.7073C6.49741 29.7284 6.50582 29.7452 6.51423 29.7662C6.51423 29.7788 6.51423 29.7956 6.51423 29.8083C6.51423 29.8125 6.51423 29.8167 6.51423 29.8251C6.50582 29.8209 6.49321 29.8209 6.48059 29.8167C6.43855 29.8503 6.42173 29.8966 6.42173 29.947C6.40491 30.2666 6.40491 30.5861 6.42173 30.9057C6.42593 30.9561 6.43855 31.0024 6.48059 31.036C6.49741 31.0402 6.50582 31.0402 6.51843 31.036C6.51843 31.0402 6.51843 31.0402 6.51843 31.0444C6.51843 31.1075 6.51003 31.1706 6.51423 31.2336C6.59412 32.5455 6.86742 33.8153 7.36778 35.0347C7.50654 35.3753 7.64949 35.7158 7.85132 36.027C7.84711 36.0396 7.83871 36.0522 7.8345 36.069C7.8345 36.1741 7.89337 36.254 7.94382 36.3381C8.44839 37.2043 9.06647 37.978 9.84434 38.6129C10.1723 38.882 10.5129 39.13 10.8829 39.3024C10.1597 39.3024 9.40705 39.3024 8.65021 39.3066ZM9.41546 36.2751C10.5213 37.8308 11.9887 38.6928 13.9481 38.6717C16.37 38.6423 18.7961 38.6633 21.218 38.6633C21.3105 38.6633 21.3988 38.6717 21.4913 38.6549C21.5334 38.6465 21.5922 38.6507 21.6133 38.6087C21.6133 38.6087 21.6132 38.6087 21.6175 38.6129C21.5418 38.7054 21.5712 38.8189 21.5628 38.9282C21.5544 39.0502 21.588 39.1721 21.525 39.2898C21.5207 39.294 21.5165 39.2982 21.5123 39.3024C21.4367 39.2856 21.3568 39.294 21.2769 39.294C18.6111 39.294 15.9411 39.294 13.2754 39.294C13.1829 39.294 13.0946 39.294 13.0021 39.3066C12.9558 39.315 12.9096 39.3319 12.8591 39.3403C12.7414 39.3108 12.6194 39.2898 12.4933 39.2772C12.4849 39.2688 12.4765 39.2562 12.4723 39.2436C12.077 39.1427 11.7154 38.945 11.3202 38.8315C11.3076 38.8357 11.295 38.8399 11.2823 38.8441C11.0805 38.7222 10.8787 38.596 10.6727 38.4741C10.6685 38.4573 10.6601 38.4447 10.6516 38.4279C10.6096 38.3606 10.5423 38.3227 10.4792 38.2765C10.1975 38.0789 9.94525 37.8476 9.70979 37.5995C9.28091 37.1496 8.89408 36.6619 8.58294 36.1195C8.5493 36.0606 8.52407 35.9807 8.43157 35.9933C8.43157 35.9891 8.43157 35.9849 8.43157 35.9849C8.41054 35.9345 8.39372 35.8798 8.36429 35.8336C7.6579 34.5301 7.26266 33.1342 7.1113 31.6667C7.0272 30.872 7.04822 30.0732 7.08186 29.2785C7.08186 29.2743 7.08186 29.2743 7.08186 29.2701C7.21641 29.2616 7.17016 29.1439 7.17857 29.0724C7.33414 27.7017 7.68734 26.3941 8.33065 25.1663C8.97818 23.9427 9.81911 22.9 11.0259 22.1852C11.9887 21.6175 13.0231 21.3989 14.1331 21.5503C14.9572 21.6638 15.6888 22.0002 16.3616 22.4795C16.4205 22.5215 16.4709 22.593 16.555 22.5636C16.5676 22.572 16.5802 22.5804 16.5971 22.5888C16.6055 22.593 16.6139 22.5972 16.6265 22.6014C16.6854 22.6645 16.7568 22.715 16.8325 22.757C16.8283 22.7696 16.8241 22.7822 16.8199 22.799C16.8367 22.8537 16.8746 22.8958 16.9208 22.9294C17.2067 23.1396 17.417 23.4213 17.6398 23.6904C18.3672 24.5608 18.8802 25.5531 19.246 26.6211C19.4563 27.2308 19.5992 27.8615 19.7043 28.4964C19.7169 28.5637 19.7422 28.6394 19.6707 28.6898C19.5193 28.8075 19.1914 28.6898 19.1577 28.5006C19.0063 27.6134 18.7541 26.7557 18.3714 25.9357C17.9426 25.0107 17.3749 24.1866 16.6139 23.497C16.5466 23.434 16.4793 23.3667 16.3742 23.4171C16.3742 23.4213 16.3742 23.4255 16.3742 23.4298C16.3742 23.4255 16.3742 23.4255 16.3742 23.4213C16.3027 23.2868 16.1682 23.2153 16.0505 23.1312C14.5746 22.0632 12.6405 22.0254 11.1268 23.0345C9.899 23.8502 9.10011 25.0023 8.54509 26.3394C7.927 27.8236 7.70416 29.3794 7.76723 30.9814C7.78404 31.3808 7.80927 31.7845 7.89337 32.1797C7.86814 32.2133 7.87234 32.2722 7.86393 32.3143C7.85973 32.3437 7.86814 32.3058 7.86393 32.3353C7.86393 32.3983 7.87234 32.4614 7.88496 32.5245C8.12883 33.8742 8.60816 35.144 9.41546 36.2751ZM10.2438 33.7102C9.88218 33.7144 9.52058 33.7102 9.15477 33.7102C8.88988 33.7102 8.83522 33.664 8.75953 33.4033C8.63339 32.9576 8.51986 32.5119 8.461 32.0494C8.461 32.0073 8.43577 31.9695 8.40634 31.9358C8.40213 31.8601 8.39372 31.7845 8.38531 31.7088C8.40213 31.6331 8.39372 31.549 8.39793 31.4733C8.39372 31.4102 8.39793 31.343 8.35168 31.2883C8.34327 31.2841 8.33486 31.2841 8.32645 31.2799C8.32224 30.788 8.29702 30.296 8.32645 29.7998C8.40634 28.4628 8.70067 27.1887 9.29773 25.9862C9.78548 25.0023 10.4288 24.1361 11.358 23.5265C12.5311 22.757 13.7673 22.6098 15.0666 23.1901C15.445 23.3583 15.7729 23.6063 16.1135 23.8418H16.1177C16.1135 23.846 16.1093 23.8544 16.1051 23.8586C16.1261 23.9806 16.2228 24.0436 16.3027 24.1193C16.555 24.3632 16.7905 24.6197 17.0007 24.9014C17.7828 25.9526 18.2159 27.1509 18.4681 28.4207C18.527 28.7108 18.5144 28.7319 18.2285 28.7865C17.3917 28.9379 16.6097 29.2322 15.8823 29.6737C15.7561 29.7494 15.6216 29.8083 15.4744 29.8377C15.281 29.8839 15.2305 29.8503 15.2095 29.6569C15.1969 29.5518 15.1801 29.4509 15.1633 29.3457C15.117 28.9799 14.9741 28.8244 14.6167 28.7487C14.3434 28.6898 14.0616 28.6688 13.7841 28.6352C13.5949 28.6141 13.4351 28.5595 13.3048 28.4165C13.166 28.2693 12.9979 28.2609 12.8255 28.3576C12.7456 28.3997 12.6741 28.4586 12.5984 28.509C12.3714 28.6478 12.1443 28.7739 11.8542 28.7361C11.0973 28.6436 10.4414 28.9169 9.93684 29.4509C9.40705 30.0143 9.19682 30.7417 9.22205 31.5069C9.25148 32.3437 9.60047 33.0627 10.2228 33.6345C10.2396 33.6598 10.2732 33.6724 10.2438 33.7102Z" stroke="#169C86" stroke-width="0.7"/>
<path fill-rule="evenodd" clip-rule="evenodd" d="M22.349 30.6029C22.3658 30.4431 22.2607 30.317 22.0546 30.2875C21.1548 30.1614 20.255 30.0226 19.3426 30.0395C19.1408 30.0395 18.9348 30.0353 18.7329 30.0395C18.5227 30.0479 18.4134 30.1488 18.4176 30.3254C18.4218 30.502 18.5311 30.5903 18.7456 30.5861C19.4057 30.5651 20.0616 30.5819 20.7176 30.6618C21.1422 30.7164 21.5627 30.7795 21.9874 30.8257C22.2018 30.8552 22.328 30.7627 22.349 30.6029Z" fill="#169C86" stroke="#169C86" stroke-width="0.7"/>
<path fill-rule="evenodd" clip-rule="evenodd" d="M21.8235 32.7304C21.546 32.7472 21.2685 32.7808 20.9868 32.7892C20.2636 32.8145 19.5488 32.7262 18.834 32.6631C18.6322 32.6463 18.5187 32.7262 18.5018 32.8901C18.485 33.0836 18.5691 33.1887 18.7709 33.2097C19.4017 33.2686 20.0366 33.3443 20.6715 33.3527C21.0625 33.3316 21.4535 33.3148 21.8446 33.2854C22.0001 33.2728 22.1347 33.2097 22.1557 33.0289C22.1852 32.8481 22.0422 32.7178 21.8235 32.7304Z" fill="#169C86" stroke="#169C86" stroke-width="0.7"/>
<path fill-rule="evenodd" clip-rule="evenodd" d="M9.39444 5.30322C9.48274 5.31163 9.5374 5.25697 9.60047 5.21072C10.2648 4.68513 10.967 4.2142 11.6734 3.75169C11.8668 3.62555 11.9215 3.4952 11.829 3.34383C11.728 3.17985 11.5767 3.16303 11.3748 3.28917C11.0763 3.48259 10.7736 3.6718 10.4792 3.87362C10.0672 4.16375 9.66354 4.46228 9.25989 4.76081C9.14216 4.84491 9.06647 4.95843 9.12113 5.10139C9.16318 5.22753 9.2683 5.2906 9.39444 5.30322Z" fill="#169C86" stroke="#169C86" stroke-width="0.7"/>
<path fill-rule="evenodd" clip-rule="evenodd" d="M2.62477 13.6665C2.77193 13.7421 2.88126 13.6833 2.96955 13.5656C2.99899 13.5277 3.02001 13.4815 3.04103 13.4394C3.40684 12.7078 3.77685 11.9804 4.20994 11.2866C4.25198 11.2151 4.29823 11.1437 4.29823 11.0385C4.29403 10.9418 4.25198 10.8535 4.14687 10.8031C3.9997 10.7274 3.85254 10.7947 3.73901 10.9881C3.39002 11.5683 3.06206 12.1612 2.75511 12.7583C2.65841 12.9433 2.57011 13.1325 2.49863 13.3301C2.44817 13.4646 2.48181 13.595 2.62477 13.6665Z" fill="#169C86" stroke="#169C86" stroke-width="0.7"/>
<path fill-rule="evenodd" clip-rule="evenodd" d="M36.01 42.3001C35.8838 42.2245 35.7661 42.2665 35.6568 42.338C34.9462 42.7879 34.2104 43.1915 33.4535 43.5573C33.2559 43.6541 33.1928 43.7802 33.2601 43.9358C33.3274 44.104 33.4787 44.1586 33.6806 44.0619C34.4795 43.6835 35.2489 43.2546 35.9931 42.7837C36.0814 42.729 36.1445 42.6617 36.1361 42.544C36.1487 42.4389 36.1025 42.3548 36.01 42.3001Z" fill="#169C86" stroke="#169C86" stroke-width="0.7"/>
<path fill-rule="evenodd" clip-rule="evenodd" d="M15.1673 44.1671C15.1547 44.1629 15.1421 44.1587 15.1295 44.1503C14.3684 43.8433 13.6284 43.4985 12.9052 43.1033C12.8421 43.0697 12.779 43.0444 12.7076 43.0444C12.5772 43.0528 12.4763 43.1033 12.4469 43.2421C12.4132 43.3808 12.4553 43.4859 12.5856 43.5574C12.9935 43.7887 13.4182 43.9947 13.8428 44.1881C14.2128 44.3563 14.5829 44.5161 14.9571 44.6758C15.1715 44.7684 15.3355 44.7221 15.4028 44.5539C15.47 44.3983 15.3944 44.268 15.1673 44.1671Z" fill="#169C86" stroke="#169C86" stroke-width="0.7"/>
<path fill-rule="evenodd" clip-rule="evenodd" d="M34.4627 3.10852C35.2279 3.5458 35.9806 4.00411 36.7038 4.51288C36.7963 4.58015 36.9056 4.57595 37.0023 4.52129C37.0822 4.47504 37.1453 4.40356 37.1326 4.29844C37.1368 4.18071 37.0738 4.10082 36.9813 4.03775C36.2581 3.51637 35.5012 3.05385 34.7192 2.62918C34.5636 2.54509 34.429 2.57872 34.3323 2.72168C34.2482 2.85203 34.2987 3.01601 34.4627 3.10852Z" fill="#169C86" stroke="#169C86" stroke-width="0.7"/>
<path fill-rule="evenodd" clip-rule="evenodd" d="M5.58914 9.09595C5.70266 9.10856 5.76994 9.03708 5.83301 8.9614C6.3628 8.29285 6.93043 7.66215 7.5317 7.05667C7.66205 6.92633 7.67046 6.73712 7.56113 6.62359C7.46022 6.51848 7.27942 6.52268 7.14907 6.65303C6.50996 7.27952 5.92551 7.95227 5.36629 8.65025C5.2864 8.74696 5.29481 8.86048 5.34947 8.9656C5.39152 9.0581 5.47561 9.10856 5.58914 9.09595Z" fill="#169C86" stroke="#169C86" stroke-width="0.7"/>
<path fill-rule="evenodd" clip-rule="evenodd" d="M38.8062 6.19458C39.4495 6.77062 40.0466 7.38451 40.6268 8.01942C40.774 8.1834 40.9211 8.20022 41.0473 8.0951C41.1776 7.98578 41.1734 7.81759 41.0305 7.65361C40.4586 6.98927 39.8321 6.37959 39.1888 5.78673C39.1257 5.73207 39.0543 5.71525 38.9744 5.70264C38.8566 5.70684 38.7641 5.7573 38.7179 5.87503C38.6716 6.00117 38.7095 6.10628 38.8062 6.19458Z" fill="#169C86" stroke="#169C86" stroke-width="0.7"/>
<path fill-rule="evenodd" clip-rule="evenodd" d="M45.9626 17.5977C46.1308 17.5557 46.198 17.4211 46.156 17.2571C45.9374 16.3868 45.6556 15.5374 45.3361 14.7007C45.2898 14.5787 45.2057 14.5031 45.109 14.4989C44.8694 14.4946 44.739 14.6712 44.8147 14.8773C45.1174 15.7056 45.3992 16.5423 45.622 17.3917C45.6683 17.5557 45.7944 17.6398 45.9626 17.5977Z" fill="#169C86" stroke="#169C86" stroke-width="0.7"/>
<path fill-rule="evenodd" clip-rule="evenodd" d="M2.03198 15.9789C2.04039 15.7939 1.95209 15.6846 1.80073 15.6635C1.61152 15.6383 1.51481 15.7686 1.46015 15.941C1.21207 16.7273 1.01445 17.5262 0.825239 18.3293C0.821034 18.3503 0.81683 18.3714 0.812625 18.3924C0.774783 18.6236 0.846262 18.7708 1.01445 18.8086C1.19946 18.8507 1.30878 18.7666 1.35923 18.5143C1.49378 17.8794 1.64936 17.2487 1.83016 16.6264C1.89323 16.4036 1.96891 16.1849 2.03198 15.9789Z" fill="#169C86" stroke="#169C86" stroke-width="0.7"/>
<path fill-rule="evenodd" clip-rule="evenodd" d="M30.8552 44.6214C30.46 44.7433 30.069 44.8737 29.6737 44.983C29.249 45.0965 28.8202 45.189 28.3913 45.2984C28.2315 45.3362 28.1222 45.4245 28.1432 45.6095C28.1642 45.7735 28.2651 45.8492 28.4417 45.8534C28.467 45.8492 28.5006 45.845 28.5342 45.8408C29.3794 45.66 30.2161 45.4287 31.036 45.1512C31.2463 45.0797 31.3346 44.9368 31.2757 44.777C31.2168 44.6088 31.0613 44.5583 30.8552 44.6214Z" fill="#169C86" stroke="#169C86" stroke-width="0.7"/>
<path fill-rule="evenodd" clip-rule="evenodd" d="M46.8918 22.3449C46.8497 21.5502 46.7951 20.7765 46.69 20.0113C46.6605 19.7926 46.5386 19.6833 46.3704 19.7127C46.198 19.7422 46.1223 19.8809 46.1476 20.0996C46.177 20.3266 46.2022 20.5579 46.2275 20.7849C46.2905 21.403 46.3284 22.0253 46.3452 22.6476C46.3494 22.8368 46.4671 22.9545 46.6227 22.9503C46.7783 22.9461 46.8918 22.82 46.896 22.6434C46.896 22.5341 46.8918 22.429 46.8918 22.3449Z" fill="#169C86" stroke="#169C86" stroke-width="0.7"/>
<path fill-rule="evenodd" clip-rule="evenodd" d="M20.3728 45.5758C19.5109 45.437 18.6531 45.273 17.8038 45.0502C17.644 45.0081 17.5052 45.0544 17.4548 45.2268C17.4043 45.3992 17.4884 45.5295 17.6818 45.5842C17.829 45.6262 17.9804 45.6641 18.1275 45.6977C18.8507 45.8659 19.574 46.0215 20.3224 46.114C20.478 46.114 20.6041 46.0593 20.6209 45.8743C20.6377 45.7019 20.5494 45.601 20.3728 45.5758Z" fill="#169C86" stroke="#169C86" stroke-width="0.7"/>
<path fill-rule="evenodd" clip-rule="evenodd" d="M46.5386 25.099C46.3536 25.0822 46.2484 25.1999 46.2232 25.4522C46.1391 26.2805 45.9962 27.1004 45.828 27.9161C45.7859 28.1222 45.8574 28.2609 46.0214 28.2945C46.1896 28.3282 46.3241 28.2357 46.3662 28.0381C46.547 27.1971 46.6815 26.3478 46.7698 25.5447C46.7824 25.2335 46.7152 25.12 46.5386 25.099Z" fill="#169C86" stroke="#169C86" stroke-width="0.7"/>
<path fill-rule="evenodd" clip-rule="evenodd" d="M25.6624 45.7144C25.1789 45.7439 24.6995 45.7733 24.2791 45.7985C23.8376 45.7985 23.4591 45.7943 23.0849 45.7985C22.8537 45.8027 22.7275 45.9625 22.7906 46.1517C22.8411 46.2989 22.9504 46.3451 23.1017 46.3451C23.9721 46.3619 24.8383 46.3367 25.7044 46.2568C25.9189 46.24 26.0324 46.1265 26.0156 45.9457C25.9946 45.7817 25.8852 45.7018 25.6624 45.7144Z" fill="#169C86" stroke="#169C86" stroke-width="0.7"/>
<path fill-rule="evenodd" clip-rule="evenodd" d="M43.1748 11.522C43.3514 11.8248 43.5196 12.1275 43.692 12.4345C43.7635 12.5564 43.8686 12.6195 44.0073 12.5816C44.1335 12.548 44.2049 12.4597 44.2092 12.2915C44.2134 12.2579 44.1923 12.2032 44.1629 12.1443C43.7466 11.3665 43.2925 10.618 42.788 9.89062C42.7417 9.82755 42.6913 9.76869 42.6072 9.76028C42.5021 9.75187 42.3927 9.74346 42.3255 9.84437C42.2414 9.97051 42.2582 10.0925 42.3381 10.2144C42.6324 10.6433 42.9141 11.0721 43.1748 11.522Z" fill="#169C86" stroke="#169C86" stroke-width="0.7"/>
<path fill-rule="evenodd" clip-rule="evenodd" d="M40.8495 28.4711C40.7486 28.2483 40.6351 28.0296 40.53 27.811C40.4164 27.5797 40.3071 27.5335 40.0548 27.6091C39.7857 27.689 39.5377 27.8194 39.3064 27.9792C39.2391 28.0254 39.1761 28.0801 39.0794 28.0338C38.743 27.874 38.3814 27.9077 38.0282 27.9497C37.7086 27.9876 37.3891 28.017 37.0653 28.0128C36.956 28.0128 36.9013 27.9708 36.8635 27.874C36.7794 27.6428 36.7121 27.4073 36.6869 27.1635C36.6659 26.9658 36.5608 26.8775 36.3631 26.8944C36.0856 26.9196 35.8081 26.949 35.5306 26.9869C35.2951 27.0205 35.2237 27.113 35.211 27.3485C35.1984 27.6764 35.2489 27.9918 35.3666 28.2945C35.3961 28.3744 35.4255 28.4417 35.3708 28.53C35.1816 28.8369 35.1312 29.1817 35.127 29.5853C35.1396 30.0563 35.2279 30.565 35.4339 31.0486C35.6946 31.6583 36.0604 32.2049 36.464 32.7262C36.8214 33.1888 37.2125 33.6176 37.7086 33.933C38.2889 34.303 38.9196 34.2105 39.3653 33.6891C39.7395 33.2518 39.9077 32.7305 39.9539 32.1712C40.0128 31.4901 39.9329 30.8131 39.8404 30.1404C39.7857 29.7367 39.8404 29.3919 40.2483 29.1859C40.3912 29.1144 40.5216 29.0219 40.6687 28.9546C40.9252 28.8411 40.9673 28.7276 40.8495 28.4711ZM35.7661 27.5881C35.7829 27.5124 35.8291 27.5082 35.888 27.504C35.9679 27.4998 36.0562 27.5166 36.1277 27.4578C36.1487 27.4283 36.1697 27.4031 36.1907 27.3737C36.2118 27.3443 36.2202 27.3022 36.1865 27.2812C36.1445 27.2475 36.1109 27.2686 36.0898 27.319C36.052 27.4241 35.9469 27.4073 35.8964 27.3737C35.8249 27.3274 35.867 27.2349 35.9048 27.1719C35.9637 27.0752 36.0562 27.0331 36.1739 27.0499C36.2917 27.0667 36.3926 27.113 36.4262 27.2349C36.4935 27.4746 36.4767 27.7227 36.4472 27.9623C36.4262 28.1347 36.2706 28.0254 36.1739 28.017C35.8922 28.0801 35.703 27.8867 35.7661 27.5881ZM39.4283 31.6625C39.4241 32.1965 39.3527 32.7052 39.0667 33.1677C38.764 33.6513 38.3519 33.7396 37.902 33.3948C37.1788 32.8398 36.6617 32.1124 36.1991 31.3387C35.8964 30.8341 35.724 30.2833 35.682 29.6947C35.6694 29.476 35.6862 29.2616 35.745 29.0514C35.8502 28.6771 36.1108 28.4795 36.4935 28.5258C37.0695 28.593 37.6372 28.5636 38.209 28.4837C38.373 28.4585 38.5454 28.4501 38.7093 28.4879C39.0878 28.5762 39.3358 28.9168 39.3274 29.3751C39.1719 30.1151 39.4368 30.8846 39.4283 31.6625ZM40.2314 28.5426C40.1053 28.6267 39.9792 28.7108 39.8404 28.7991C39.7353 28.7402 39.7353 28.6141 39.6638 28.5384C39.6134 28.4837 39.626 28.4375 39.6848 28.3996C39.7437 28.3618 39.7984 28.3239 39.8614 28.2903C40.0675 28.181 40.2104 28.2567 40.2398 28.4879C40.2441 28.5047 40.2441 28.5342 40.2314 28.5426Z" fill="#169C86" stroke="#169C86" stroke-width="0.7"/>
<path fill-rule="evenodd" clip-rule="evenodd" d="M15.5079 8.87719C15.9914 8.86878 16.4749 8.87719 16.9585 8.87298C17.3159 8.86878 17.299 8.94866 17.3075 8.52399C17.3117 8.34739 17.2444 8.31376 17.0846 8.31796C16.8281 8.33058 16.5674 8.32217 16.3067 8.32217C16.0755 8.32217 15.8442 8.32217 15.613 8.32217C15.2892 8.32217 15.2976 8.32217 15.285 8.64593C15.2766 8.82253 15.3313 8.88139 15.5079 8.87719Z" fill="#169C86" stroke="#169C86" stroke-width="0.7"/>
<path fill-rule="evenodd" clip-rule="evenodd" d="M15.4659 7.91019C15.7392 7.90178 16.0125 7.90598 16.2816 7.90598C16.2816 7.90598 16.2816 7.90598 16.2816 7.91019C16.5045 7.91019 16.7273 7.91439 16.9502 7.91019C17.337 7.90598 17.2949 7.97326 17.2949 7.54438C17.2949 7.53177 17.2949 7.51495 17.2949 7.50234C17.3034 7.38881 17.2445 7.35938 17.1436 7.35938C16.5759 7.36358 16.0125 7.36358 15.4449 7.35938C15.3103 7.35938 15.2725 7.41824 15.2809 7.53597C15.2851 7.59904 15.2893 7.66211 15.2809 7.72518C15.2725 7.86814 15.3314 7.91439 15.4659 7.91019Z" fill="#169C86" stroke="#169C86" stroke-width="0.7"/>
<path fill-rule="evenodd" clip-rule="evenodd" d="M31.7465 11.9466C31.469 11.9508 31.1873 11.9466 30.9098 11.9466C30.6239 11.9466 30.338 11.9508 30.052 11.9424C29.9259 11.9382 29.8712 11.9844 29.8839 12.1106C29.8881 12.1652 29.8881 12.2241 29.8839 12.2788C29.8754 12.4343 29.9343 12.4974 30.1025 12.4932C30.5776 12.4806 31.0528 12.489 31.5279 12.489C31.9189 12.489 31.9147 12.489 31.8979 12.0854C31.8895 11.976 31.8516 11.9424 31.7465 11.9466Z" fill="#169C86" stroke="#169C86" stroke-width="0.7"/>
<path fill-rule="evenodd" clip-rule="evenodd" d="M30.1908 11.6228C30.2496 11.7153 30.359 11.7153 30.4473 11.7489C31.0149 11.9592 31.6961 11.7237 31.9694 11.2317C32.3057 10.6263 32.1922 9.99136 31.6918 9.57089C31.0401 9.02007 29.888 9.28076 29.6526 10.2689C29.497 10.6179 29.7325 11.3705 30.1908 11.6228ZM30.8299 9.84419C31.1158 9.82317 31.3429 9.92828 31.4984 10.189C31.6792 10.4917 31.6246 10.887 31.3597 11.1014C31.0569 11.3453 30.6533 11.3326 30.3884 11.0678C30.3085 10.9879 30.2118 10.908 30.1992 10.7776C30.1992 10.6389 30.2034 10.4959 30.2034 10.3572C30.3085 10.0586 30.5103 9.86942 30.8299 9.84419Z" fill="#169C86" stroke="#169C86" stroke-width="0.7"/>
<path fill-rule="evenodd" clip-rule="evenodd" d="M17.5389 10.2775C17.5305 10.2648 17.5179 10.2564 17.5137 10.2438C17.4254 9.7729 17.1227 9.49119 16.6938 9.35243C16.2607 9.21368 15.8402 9.27254 15.4912 9.57528C14.9951 10.0042 14.8816 10.7232 15.2137 11.2277C15.5879 11.7954 16.2313 11.9762 16.8704 11.6902C16.8956 11.6818 16.9166 11.6692 16.9376 11.6566C17.2656 11.4716 17.4758 11.1983 17.5473 10.8157C17.5515 10.803 17.5515 10.7904 17.5557 10.7778C17.6146 10.6054 17.623 10.4414 17.5389 10.2775ZM15.9622 11.1184C15.7561 10.9881 15.6048 10.6937 15.6426 10.4751C15.6889 10.206 15.9285 9.94949 16.1724 9.91165C16.4835 9.8612 16.7064 9.96632 16.8578 10.2354C16.8914 10.2943 16.925 10.3573 16.9545 10.4204C16.9587 10.4246 16.9629 10.433 16.9629 10.4372C16.9545 10.4499 16.9503 10.4667 16.9503 10.4835C16.9545 10.6769 16.8872 10.8451 16.7653 10.9965C16.7484 11.0175 16.7358 11.0385 16.7358 11.0595C16.492 11.2319 16.2355 11.2908 15.9622 11.1184Z" fill="#169C86" stroke="#169C86" stroke-width="0.7"/>
<path fill-rule="evenodd" clip-rule="evenodd" d="M5.07614 35.5392C4.20577 33.769 3.86099 31.8895 3.92827 29.9259C3.94088 29.4929 3.98713 29.0598 4.04179 28.6309C4.05861 28.4753 4.01656 28.3408 3.84838 28.3071C3.67598 28.2693 3.54564 28.3408 3.5078 28.53C3.49518 28.5847 3.47836 28.6393 3.47416 28.694C3.4237 29.2532 3.35222 29.8082 3.37325 30.3086C3.35222 30.9519 3.39848 31.5321 3.47416 32.1082C3.61712 33.1846 3.88622 34.2358 4.3193 35.2365C4.53794 35.7452 4.80284 36.2288 5.09296 36.6997C5.16444 36.8132 5.25695 36.8931 5.3999 36.8721C5.52184 36.8553 5.59753 36.7712 5.63116 36.6534C5.6648 36.5399 5.59332 36.4516 5.54287 36.3591C5.38729 36.0858 5.2149 35.8209 5.07614 35.5392Z" fill="#169C86" stroke="#169C86" stroke-width="0.7"/>
<path fill-rule="evenodd" clip-rule="evenodd" d="M6.26609 23.0595C6.11892 22.9334 5.93392 22.9923 5.7405 23.2319C5.08037 24.0476 4.55899 24.9474 4.18056 25.9271C4.06283 26.2341 3.96192 26.5452 3.87783 26.7849C3.8568 27.0288 3.93669 27.1381 4.09227 27.1675C4.27727 27.2054 4.36977 27.0876 4.42443 26.9194C4.80286 25.7001 5.36208 24.569 6.1862 23.5851C6.38802 23.3371 6.41325 23.1857 6.26609 23.0595Z" fill="#169C86" stroke="#169C86" stroke-width="0.7"/>
<path fill-rule="evenodd" clip-rule="evenodd" d="M38.7641 30.1614C38.6758 30.1529 38.5833 30.1529 38.4908 30.1614C38.3437 30.1782 38.2932 30.1235 38.3016 29.9764C38.3226 29.6694 38.3311 29.3625 38.3479 29.0555C38.3563 28.8915 38.3058 28.757 38.1376 28.7149C37.9821 28.6771 37.8727 28.757 37.7971 28.8957C37.6667 29.1354 37.5322 29.3709 37.3976 29.6105C37.1579 30.0394 36.9141 30.4599 36.6828 30.893C36.5525 31.1368 36.6702 31.3261 36.9435 31.3345C37.036 31.3387 37.1243 31.3387 37.2168 31.3345C37.3303 31.3261 37.3598 31.3765 37.3598 31.4816C37.3556 31.6498 37.3598 31.818 37.3598 31.9862C37.3556 31.9862 37.3514 31.9862 37.343 31.9862C37.3345 32.1628 37.3219 32.3352 37.3177 32.5118C37.3177 32.6505 37.385 32.7557 37.5238 32.7935C37.6541 32.8313 37.7634 32.7767 37.8307 32.6631C38.2259 31.9694 38.617 31.2756 38.9996 30.5776C39.1047 30.3758 38.9828 30.1824 38.7641 30.1614ZM38.1965 30.893C38.1208 31.0149 38.0493 31.1411 37.9526 31.3008C37.9064 31.1326 37.9737 30.9645 37.8349 30.8551C37.7046 30.7542 37.5532 30.8131 37.3892 30.7668C37.4943 30.5818 37.591 30.4052 37.6919 30.2286C37.7046 30.2328 37.7214 30.237 37.734 30.2412C37.734 30.3085 37.7256 30.38 37.734 30.4473C37.7592 30.6617 37.9064 30.7206 38.0914 30.708C38.2764 30.6954 38.2722 30.7668 38.1965 30.893Z" fill="#169C86" stroke="#169C86" stroke-width="0.7"/>
</svg>
