<svg width="58" height="57" viewBox="0 0 58 57" fill="none" xmlns="http://www.w3.org/2000/svg">
<path d="M52.5923 8.90646C52.8285 8.90646 53.055 8.81263 53.222 8.64561C53.3891 8.47858 53.4829 8.25205 53.4829 8.01584V0.890866C53.4829 0.654658 53.3891 0.428125 53.222 0.261101C53.055 0.0940773 52.8285 0.000244141 52.5923 0.000244141C52.3561 0.000244141 52.1295 0.0940773 51.9625 0.261101C51.7955 0.428125 51.7017 0.654658 51.7017 0.890866V8.01584C51.7017 8.25205 51.7955 8.47858 51.9625 8.64561C52.1295 8.81263 52.3561 8.90646 52.5923 8.90646Z" fill="#169C86"/>
<path d="M49.0298 5.34398C49.266 5.34398 49.4925 5.25014 49.6595 5.08312C49.8266 4.91609 49.9204 4.68956 49.9204 4.45335V0.890866C49.9204 0.654658 49.8266 0.428125 49.6595 0.261101C49.4925 0.0940773 49.266 0.000244141 49.0298 0.000244141C48.7936 0.000244141 48.567 0.0940773 48.4 0.261101C48.233 0.428125 48.1392 0.654658 48.1392 0.890866V4.45335C48.1392 4.68956 48.233 4.91609 48.4 5.08312C48.567 5.25014 48.7936 5.34398 49.0298 5.34398Z" fill="#169C86"/>
<path d="M56.1548 0.000244141C55.9186 0.000244141 55.692 0.0940773 55.525 0.261101C55.358 0.428125 55.2642 0.654658 55.2642 0.890866V4.45335C55.2642 4.68956 55.358 4.91609 55.525 5.08312C55.692 5.25014 55.9186 5.34398 56.1548 5.34398C56.391 5.34398 56.6175 5.25014 56.7845 5.08312C56.9516 4.91609 57.0454 4.68956 57.0454 4.45335V0.890866C57.0454 0.654658 56.9516 0.428125 56.7845 0.261101C56.6175 0.0940773 56.391 0.000244141 56.1548 0.000244141Z" fill="#169C86"/>
<path d="M29.4359 34.1199C29.5822 34.1197 29.7262 34.0834 29.8551 34.0142C29.984 33.9451 30.0939 33.8453 30.1751 33.7236L30.2909 33.5544C30.3579 33.4585 30.4053 33.3503 30.4304 33.2361C30.4556 33.1219 30.458 33.0038 30.4375 32.8886C30.4171 32.7735 30.3741 32.6635 30.3111 32.5649C30.2482 32.4663 30.1664 32.3811 30.0705 32.3142C29.9746 32.2472 29.8664 32.1998 29.7522 32.1747C29.638 32.1495 29.5199 32.1471 29.4047 32.1676C29.2896 32.188 29.1796 32.231 29.081 32.294C28.9824 32.3569 28.8972 32.4387 28.8303 32.5346L28.6922 32.735C28.6026 32.8693 28.5512 33.0255 28.5435 33.1868C28.5358 33.348 28.5721 33.5084 28.6484 33.6507C28.7248 33.7929 28.8385 33.9117 28.9772 33.9944C29.1159 34.077 29.2744 34.1204 29.4359 34.1199Z" fill="#169C86"/>
<path d="M52.5655 41.561C52.45 41.5419 52.3318 41.5458 52.2178 41.5724C52.1038 41.599 51.9962 41.6478 51.901 41.716C51.8059 41.7843 51.7252 41.8706 51.6634 41.9701C51.6017 42.0696 51.5602 42.1802 51.5413 42.2958C51.5413 42.4249 51.4967 42.5585 51.47 42.6876C51.442 42.8042 51.4378 42.9253 51.4576 43.0436C51.4775 43.1619 51.5211 43.2749 51.5857 43.3759C51.6503 43.477 51.7347 43.5639 51.8338 43.6315C51.9328 43.6991 52.0445 43.7461 52.1621 43.7695C52.2798 43.7929 52.4009 43.7923 52.5183 43.7677C52.6357 43.7432 52.7469 43.6952 52.8453 43.6266C52.9437 43.558 53.0272 43.4702 53.0908 43.3686C53.1545 43.2669 53.1969 43.1534 53.2156 43.035C53.2468 42.8836 53.2735 42.7366 53.2958 42.5897C53.3156 42.4742 53.3124 42.3559 53.2864 42.2416C53.2603 42.1273 53.212 42.0193 53.1442 41.9237C53.0763 41.8282 52.9903 41.7469 52.891 41.6847C52.7917 41.6225 52.6811 41.5804 52.5655 41.561Z" fill="#169C86"/>
<path d="M52.1958 34.5474C52.1503 34.4356 52.0825 34.3343 51.9966 34.2495C51.9106 34.1648 51.8084 34.0983 51.696 34.0543C51.5837 34.0103 51.4635 33.9895 51.3429 33.9934C51.2223 33.9972 51.1037 34.0255 50.9943 34.0765C50.885 34.1276 50.7871 34.2003 50.7068 34.2903C50.6264 34.3804 50.5651 34.4858 50.5267 34.6002C50.4883 34.7146 50.4736 34.8356 50.4834 34.9559C50.4932 35.0762 50.5274 35.1932 50.5838 35.2999C50.6417 35.4202 50.6951 35.5404 50.7486 35.6651C50.8419 35.8824 51.0177 36.0537 51.2373 36.1414C51.4569 36.2291 51.7024 36.226 51.9197 36.1327C52.137 36.0394 52.3084 35.8635 52.3961 35.6439C52.4838 35.4243 52.4806 35.1788 52.3873 34.9615C52.325 34.8101 52.2611 34.672 52.1958 34.5474Z" fill="#169C86"/>
<path d="M49.9204 31.1364C49.8414 31.0486 49.746 30.9773 49.6395 30.9265C49.533 30.8757 49.4175 30.8463 49.2996 30.8401C49.1818 30.8339 49.0639 30.851 48.9526 30.8903C48.8414 30.9297 48.739 30.9906 48.6512 31.0696C48.5635 31.1485 48.4922 31.244 48.4414 31.3505C48.3906 31.457 48.3612 31.5724 48.355 31.6903C48.3488 31.8081 48.3659 31.9261 48.4052 32.0373C48.4446 32.1486 48.5055 32.251 48.5844 32.3387L48.8472 32.6371C48.9165 32.7436 49.0078 32.8341 49.115 32.9024C49.2222 32.9708 49.3428 33.0154 49.4686 33.0332C49.5945 33.0511 49.7227 33.0418 49.8447 33.006C49.9667 32.9702 50.0796 32.9086 50.1758 32.8256C50.272 32.7425 50.3493 32.6398 50.4025 32.5244C50.4558 32.4089 50.4837 32.2834 50.4844 32.1563C50.4851 32.0292 50.4585 31.9034 50.4066 31.7874C50.3546 31.6714 50.2784 31.5678 50.1831 31.4837L49.9204 31.1364Z" fill="#169C86"/>
<path d="M32.4375 31.2121L32.7492 30.9627C32.9125 30.8114 33.0133 30.6044 33.0316 30.3825C33.0499 30.1606 32.9844 29.9399 32.8481 29.7639C32.7117 29.5879 32.5144 29.4694 32.295 29.4316C32.0756 29.3938 31.85 29.4396 31.6626 29.56L31.3064 29.845C31.2117 29.9182 31.1328 30.0098 31.0743 30.1142C31.0158 30.2187 30.9789 30.3338 30.9659 30.4528C30.953 30.5718 30.9641 30.6922 30.9987 30.8068C31.0333 30.9214 31.0906 31.0279 31.1673 31.1198C31.244 31.2117 31.3384 31.2873 31.4449 31.3419C31.5514 31.3965 31.6678 31.4291 31.7872 31.4377C31.9066 31.4464 32.0265 31.4308 32.1398 31.392C32.253 31.3533 32.3573 31.2921 32.4464 31.2121H32.4375Z" fill="#169C86"/>
<path d="M42.8978 28.8786C43.0126 28.9129 43.1331 28.9238 43.2522 28.9105C43.3713 28.8972 43.4864 28.86 43.5908 28.8011C43.6951 28.7423 43.7865 28.663 43.8595 28.568C43.9325 28.4729 43.9856 28.3642 44.0155 28.2482C44.0455 28.1322 44.0518 28.0113 44.034 27.8929C44.0161 27.7744 43.9746 27.6607 43.9118 27.5587C43.849 27.4567 43.7663 27.3683 43.6686 27.299C43.5709 27.2297 43.4602 27.1808 43.3431 27.1552L42.8978 27.0484C42.6721 27.0087 42.4398 27.0576 42.2491 27.1848C42.0585 27.3121 41.9243 27.5079 41.8744 27.7316C41.8245 27.9553 41.8628 28.1896 41.9812 28.3859C42.0997 28.5821 42.2892 28.725 42.5104 28.7851L42.8978 28.8786Z" fill="#169C86"/>
<path d="M35.1538 29.4397C35.2687 29.4454 35.3837 29.4288 35.4923 29.3907L35.8619 29.2482C36.0857 29.1638 36.2668 28.9939 36.3653 28.7759C36.4639 28.558 36.4718 28.3098 36.3873 28.086C36.3029 27.8622 36.133 27.6811 35.915 27.5825C35.6971 27.484 35.4489 27.4761 35.2251 27.5605L34.7798 27.7297C34.5889 27.8081 34.4313 27.9503 34.3336 28.132C34.236 28.3137 34.2045 28.5237 34.2444 28.726C34.2844 28.9284 34.3933 29.1106 34.5527 29.2416C34.712 29.3726 34.9119 29.4442 35.1182 29.4442L35.1538 29.4397Z" fill="#169C86"/>
<path d="M46.1663 30.2813C46.2651 30.3439 46.3753 30.3864 46.4906 30.4064C46.6058 30.4264 46.7239 30.4234 46.838 30.3978C46.9521 30.3722 47.0601 30.3243 47.1557 30.2569C47.2513 30.1896 47.3328 30.104 47.3953 30.0052C47.4579 29.9064 47.5004 29.7962 47.5204 29.6809C47.5404 29.5657 47.5375 29.4476 47.5118 29.3335C47.4862 29.2194 47.4383 29.1114 47.371 29.0158C47.3036 28.9202 47.2181 28.8387 47.1193 28.7762L46.7274 28.5401C46.6263 28.4704 46.5118 28.4224 46.3912 28.3991C46.2707 28.3757 46.1466 28.3775 46.0267 28.4045C45.9069 28.4314 45.7939 28.4828 45.6949 28.5555C45.5959 28.6281 45.513 28.7205 45.4514 28.8268C45.3898 28.933 45.3509 29.0509 45.337 29.1729C45.3231 29.2949 45.3347 29.4185 45.3708 29.5359C45.407 29.6532 45.4671 29.7618 45.5473 29.8549C45.6275 29.9479 45.726 30.0234 45.8368 30.0765L46.1663 30.2813Z" fill="#169C86"/>
<path d="M53.4116 38.9337C53.3968 38.7823 53.379 38.6339 53.3582 38.4884C53.3263 38.2522 53.2019 38.0384 53.0123 37.8939C52.8227 37.7494 52.5835 37.6862 52.3473 37.718C52.1111 37.7499 51.8972 37.8743 51.7528 38.0639C51.6083 38.2535 51.545 38.4927 51.5769 38.7289C51.5769 38.858 51.6126 38.9916 51.6259 39.1252C51.6491 39.3449 51.7531 39.5481 51.9177 39.6954C52.0822 39.8427 52.2957 39.9236 52.5165 39.9223H52.6101C52.7281 39.9113 52.8427 39.8767 52.9472 39.8208C53.0517 39.7648 53.144 39.6886 53.2186 39.5965C53.2933 39.5044 53.3488 39.3984 53.3819 39.2846C53.4151 39.1708 53.4252 39.0515 53.4116 38.9337Z" fill="#169C86"/>
<path d="M38.9569 28.5402L39.3532 28.5135C39.5887 28.502 39.81 28.3975 39.9686 28.2231C40.1272 28.0486 40.2102 27.8183 40.1993 27.5828C40.1959 27.4643 40.1689 27.3476 40.1198 27.2397C40.0707 27.1317 40.0005 27.0347 39.9134 26.9542C39.8263 26.8737 39.724 26.8115 39.6125 26.7711C39.501 26.7307 39.3826 26.7129 39.2642 26.7189L38.8188 26.7501C38.7019 26.7548 38.587 26.7824 38.4807 26.8315C38.3745 26.8806 38.2789 26.9501 38.1995 27.0361C38.1201 27.1221 38.0584 27.2229 38.018 27.3328C37.9776 27.4426 37.9592 27.5594 37.9638 27.6763C37.9685 27.7933 37.9962 27.9082 38.0453 28.0144C38.0944 28.1207 38.1639 28.2163 38.2499 28.2957C38.3359 28.375 38.4367 28.4367 38.5466 28.4772C38.6564 28.5176 38.7731 28.536 38.8901 28.5313L38.9569 28.5402Z" fill="#169C86"/>
<path d="M50.3391 45.8983C50.2445 46.1057 50.233 46.3415 50.307 46.5571C50.381 46.7727 50.5349 46.9517 50.7369 47.0573C50.9389 47.1629 51.1738 47.187 51.393 47.1246C51.6123 47.0623 51.7993 46.9182 51.9155 46.7222L52.0224 46.5129C52.0793 46.4081 52.1146 46.2929 52.1262 46.1742C52.1378 46.0555 52.1255 45.9357 52.0899 45.8219C52.0543 45.708 51.9962 45.6025 51.9191 45.5116C51.8419 45.4206 51.7473 45.3461 51.6408 45.2924C51.5343 45.2387 51.4181 45.2069 51.2991 45.199C51.1801 45.1911 51.0607 45.2071 50.9481 45.2462C50.8354 45.2852 50.7317 45.3465 50.6432 45.4264C50.5546 45.5063 50.483 45.6032 50.4326 45.7113L50.3391 45.8983Z" fill="#169C86"/>
<path d="M42.35 23.3167V14.2501C42.35 13.5415 42.0685 12.8619 41.5674 12.3609C41.0663 11.8598 40.3867 11.5783 39.6781 11.5783H28.5453V0.80621C28.543 0.698016 28.5194 0.591338 28.4759 0.49227C28.4323 0.393203 28.3697 0.303687 28.2915 0.228837C28.2133 0.153986 28.1212 0.0952688 28.0203 0.056038C27.9195 0.0168072 27.8119 -0.00216791 27.7037 0.000196697H4.44956C4.34137 -0.00216791 4.23377 0.0168072 4.13291 0.056038C4.03205 0.0952688 3.93991 0.153986 3.86175 0.228837C3.7836 0.303687 3.72095 0.393203 3.6774 0.49227C3.63384 0.591338 3.61024 0.698016 3.60792 0.80621V15.2209C3.60966 15.3295 3.63284 15.4367 3.67613 15.5362C3.71943 15.6358 3.78198 15.7259 3.8602 15.8012C3.93842 15.8765 4.03075 15.9356 4.1319 15.9751C4.23304 16.0146 4.341 16.0338 4.44956 16.0314H12.9595V17.8126H0.936055C0.699848 17.8126 0.473314 17.9065 0.30629 18.0735C0.139266 18.2405 0.0454333 18.467 0.0454333 18.7033V29.836C0.0454333 30.0722 0.139266 30.2988 0.30629 30.4658C0.473314 30.6328 0.699848 30.7267 0.936055 30.7267C1.17226 30.7267 1.3988 30.6328 1.56582 30.4658C1.73284 30.2988 1.82668 30.0722 1.82668 29.836V23.1564H30.3266V24.0782C30.9035 23.7394 31.4981 23.4317 32.1078 23.1564V18.7033C32.1078 18.467 32.014 18.2405 31.847 18.0735C31.6799 17.9065 31.4534 17.8126 31.2172 17.8126H19.1938V16.0314H27.7037C27.8123 16.0338 27.9202 16.0146 28.0214 15.9751C28.1225 15.9356 28.2148 15.8765 28.2931 15.8012C28.3713 15.7259 28.4338 15.6358 28.4771 15.5362C28.5204 15.4367 28.5436 15.3295 28.5453 15.2209V13.3595H39.6781C39.9143 13.3595 40.1409 13.4534 40.3079 13.6204C40.4749 13.7874 40.5687 14.0139 40.5687 14.2501V23.1564H40.0477C36.9865 23.1525 33.981 23.975 31.3483 25.537C28.7156 27.0991 26.5534 29.3428 25.0897 32.0314C25.0276 32.1344 24.9869 32.2489 24.9702 32.3681C24.9536 32.4872 24.9612 32.6085 24.9927 32.7246C25.0242 32.8407 25.0788 32.9492 25.1534 33.0436C25.228 33.138 25.3209 33.2164 25.4266 33.2739C25.5322 33.3314 25.6485 33.3669 25.7682 33.3782C25.888 33.3896 26.0088 33.3765 26.1234 33.3399C26.238 33.3033 26.344 33.2438 26.435 33.1651C26.5259 33.0864 26.6 32.9901 26.6528 32.882C28.2689 29.9157 30.825 27.5708 33.9192 26.2158C37.0134 24.8608 40.4702 24.5726 43.7461 25.3965C47.022 26.2204 49.9311 28.1098 52.016 30.7674C54.101 33.4251 55.2435 36.7003 55.264 40.0782C55.2651 43.6728 53.9774 47.1487 51.6347 49.875H48.139C48.139 48.5391 48.139 46.9716 48.139 46.3125C48.139 45.8401 47.9514 45.3871 47.6173 45.053C47.2833 44.719 46.8302 44.5313 46.3578 44.5313H44.7413C45.3703 44.2258 45.9184 43.7766 46.3415 43.2199C46.7645 42.6631 47.0505 42.0146 47.1763 41.3268C47.3021 40.6391 47.2642 39.9313 47.0657 39.2609C46.8671 38.5905 46.5134 37.9762 46.0333 37.4679C45.5532 36.9596 44.9602 36.5715 44.3022 36.335C43.6442 36.0985 42.9397 36.0202 42.2459 36.1066C41.552 36.1929 40.8883 36.4415 40.3083 36.8321C39.7284 37.2227 39.2486 37.7443 38.9077 38.3548C38.2309 36.3866 36.4897 35.1798 33.8534 35.1798H15.6981C15.3728 35.1607 15.0526 35.2676 14.8039 35.4781C14.5552 35.6887 14.3971 35.9869 14.3622 36.3109L0.851446 37.5755C0.615238 37.5862 0.392928 37.6902 0.23342 37.8647C0.073912 38.0393 -0.00972713 38.27 0.000902217 38.5062C0.0115316 38.7424 0.115559 38.9648 0.290099 39.1243C0.464639 39.2838 0.695395 39.3674 0.931602 39.3568H1.01621L14.2954 38.1055V39.8065L0.878165 40.6972C0.641957 40.7125 0.421523 40.8211 0.265356 40.999C0.109188 41.1768 0.0300798 41.4095 0.0454333 41.6457C0.0607868 41.8819 0.169345 42.1023 0.347225 42.2585C0.525106 42.4147 0.757738 42.4938 0.993946 42.4784L14.2954 41.5922V44.086H0.936055C0.78063 44.0869 0.628155 44.1285 0.493786 44.2066C0.359417 44.2848 0.247832 44.3967 0.17012 44.5313H0.0454333V57H55.264C55.7364 57 56.1895 56.8123 56.5235 56.4783C56.8576 56.1442 57.0452 55.6912 57.0452 55.2188V51.6563C57.0452 51.1839 56.8576 50.7308 56.5235 50.3967C56.1895 50.0627 55.7364 49.875 55.264 49.875H53.8924C55.9442 47.0206 57.0471 43.5935 57.0452 40.0782C57.0317 35.9811 55.5364 32.0272 52.8354 28.9464C50.1344 25.8656 46.4101 23.866 42.35 23.3167ZM26.7641 1.78144V8.90642H19.7861L17.889 4.12378C17.8203 3.9498 17.6986 3.80189 17.541 3.70101C17.3835 3.60013 17.1982 3.55141 17.0114 3.56176C16.8247 3.57211 16.6459 3.641 16.5005 3.75867C16.3551 3.87633 16.2504 4.03679 16.2013 4.21729L15.1548 8.01579L14.7407 6.32361C14.7004 6.15718 14.613 6.00588 14.489 5.88784C14.3649 5.7698 14.2095 5.69003 14.0412 5.65807C13.873 5.62612 13.6991 5.64334 13.5404 5.70767C13.3818 5.772 13.245 5.88072 13.1465 6.0208L11.7527 8.01579H5.38916V1.78144H26.7641ZM17.4126 16.0314V17.8126H14.7407V16.0314H17.4126ZM30.3266 19.5939V21.3751H1.82668V19.5939H30.3266ZM5.38916 14.2501V9.79704H12.2158C12.3612 9.79947 12.5051 9.76625 12.6347 9.70026C12.7643 9.63428 12.8758 9.53755 12.9595 9.41852L13.4894 8.6615L14.2375 11.7787C14.2817 11.9706 14.3883 12.1424 14.5406 12.2673C14.6929 12.3922 14.8823 12.4631 15.0791 12.4689C15.2743 12.4691 15.4642 12.4051 15.6194 12.2868C15.7747 12.1685 15.8869 12.0025 15.9386 11.8143L17.1988 7.24986L18.3388 10.1221C18.4057 10.293 18.5237 10.439 18.6768 10.5402C18.8298 10.6415 19.0104 10.693 19.1938 10.6877H26.7641V14.2501H5.38916ZM42.7953 37.8516C43.3237 37.8516 43.8403 38.0083 44.2797 38.3019C44.7191 38.5955 45.0615 39.0128 45.2638 39.501C45.466 39.9892 45.5189 40.5265 45.4158 41.0447C45.3127 41.563 45.0582 42.0391 44.6846 42.4128C44.3109 42.7865 43.8348 43.0409 43.3165 43.144C42.7983 43.2471 42.261 43.1942 41.7728 42.992C41.2846 42.7897 40.8673 42.4473 40.5737 42.0079C40.2801 41.5685 40.1234 41.0519 40.1234 40.5235C40.1234 39.8149 40.4049 39.1353 40.906 38.6342C41.4071 38.1331 42.0867 37.8516 42.7953 37.8516ZM40.8671 44.5313H37.9726C38.4374 44.0241 38.7747 43.4135 38.9567 42.75C39.4 43.5207 40.0638 44.1411 40.8626 44.5313H40.8671ZM33.8534 36.961C36.2403 36.961 37.4516 38.1188 37.4516 40.4077V40.6393C37.4516 43.6674 35.9375 44.086 34.2988 44.086H16.0766V36.961H33.8534ZM1.82668 46.3125H46.3578C46.3578 46.9716 46.3578 48.5391 46.3578 49.875H1.82668V46.3125ZM55.264 55.2188H1.82668V51.6563H55.264V55.2188Z" fill="#169C86"/>
</svg>
