<svg width="80" height="41" viewBox="0 0 80 41" fill="none" xmlns="http://www.w3.org/2000/svg">
<path d="M67.6802 0.00749969H50.8282C48.1485 0.00749969 45.6368 1.3669 43.5899 3.6989C41.5391 6.027 39.961 9.3473 39.1407 13.2887C37.6212 14.2496 36.5899 15.9371 36.5899 17.8668C36.5899 19.1559 37.0508 20.3473 37.8087 21.277H35.9689V18.2575C35.9689 16.3864 34.4884 14.8669 32.6603 14.8669H10.7813C7.1407 14.8669 4.1407 17.6677 3.6602 21.2771H2C0.8984 21.2771 0 22.1677 0 23.2771V26.9763C0 28.0779 0.89844 28.9763 2 28.9763H3.5898V39.0073C3.5898 40.1089 4.48042 41.0073 5.5898 41.0073H41.9998C43.1014 41.0073 43.9998 40.1089 43.9998 39.0073V35.5971C45.9881 37.6869 48.3514 38.808 50.8279 38.808H76.9999C78.6483 38.808 79.9999 37.4564 79.9999 35.808V19.41C79.9999 8.711 74.4687 0 67.6799 0L67.6802 0.00749969ZM48.5392 6.4372C52.2306 6.4372 55.34 12.3786 55.34 19.4062C55.34 26.4374 52.2306 32.3752 48.5392 32.3752C46.879 32.3752 45.2775 31.1643 44.0001 28.9768H48.5392C50.6095 28.9768 52.258 26.4573 52.84 22.426C52.9806 21.4846 53.0588 20.4768 53.0588 19.4065C53.0588 14.6565 51.508 9.8479 48.5393 9.8479C47.0588 9.8479 45.7892 11.1565 44.9689 13.3596C44.3283 12.9377 43.5979 12.6487 42.8088 12.5315C44.0471 8.82058 46.219 6.44168 48.5393 6.44168L48.5392 6.4372ZM46.5587 14.988C47.1173 12.9372 47.9806 11.8474 48.5392 11.8474C49.5392 11.8474 51.0587 14.8669 51.0587 19.406C51.0587 20.0544 51.0196 20.6755 50.9571 21.2771H46.1876C46.9494 20.3474 47.3985 19.156 47.3985 17.8669C47.3985 16.8083 47.09 15.8161 46.5587 14.988ZM42.0001 14.4685C43.879 14.4685 45.3985 15.988 45.3985 17.8669C45.3985 19.7458 43.879 21.2771 42.0001 21.2771C40.1212 21.2771 38.5899 19.7459 38.5899 17.8669C38.5899 15.9879 40.1211 14.4685 42.0001 14.4685ZM10.7811 16.8669H32.6601C33.3789 16.8669 33.9687 17.4958 33.9687 18.2575V21.277H5.6797C6.12892 18.7653 8.2498 16.8669 10.7811 16.8669ZM42.0001 39.0079H5.5901V28.9769H42.0001V39.0079ZM2.0001 26.9769V23.2777H50.6481C50.0973 25.7894 49.1169 26.9691 48.5387 26.9691H1.9997L2.0001 26.9769ZM50.8281 36.8089C48.3086 36.8089 45.8984 35.2308 44 32.3792V32.2776C45.3516 33.637 46.8984 34.3792 48.5391 34.3792C53.4688 34.3792 57.3399 27.8089 57.3399 19.4102C57.3399 11.0118 53.4688 4.44121 48.5391 4.44121C46.7774 4.44121 45.1289 5.30059 43.75 6.81231C45.6211 3.82401 48.1289 2.02321 50.8281 2.02321C56.5195 2.02321 61.1481 9.82401 61.1481 19.4142C61.1481 29.0044 56.5192 36.8122 50.8281 36.8122V36.8089ZM78.0001 35.8167C78.0001 36.3675 77.5509 36.8167 77.0001 36.8167H56.2381C60.3279 33.6565 63.1483 27.0472 63.1483 19.4067C63.1483 11.7661 60.328 5.17668 56.2381 2.00868H67.6791C73.3705 2.00868 77.9991 9.81728 77.9991 19.4187L78.0001 35.8167Z" fill="#169C86"/>
<path d="M32.0313 18.3354H24.8008C24.25 18.3354 23.8008 18.7847 23.8008 19.3354C23.8008 19.8862 24.25 20.3354 24.8008 20.3354H32.0313C32.5821 20.3354 33.0313 19.8862 33.0313 19.3354C33.0313 18.7847 32.5821 18.3354 32.0313 18.3354Z" fill="#169C86"/>
<path d="M68.6021 11.2455C67.774 11.2455 66.9927 11.6049 66.4537 12.2338C65.9146 12.8549 65.6724 13.683 65.7935 14.515C66.0318 16.1048 66.1529 17.7533 66.1529 19.4056C66.1529 21.054 66.0318 22.7142 65.7935 24.304C65.6724 25.1321 65.9146 25.9642 66.4537 26.5852C66.9927 27.2141 67.7818 27.5735 68.6021 27.5735H72.1529C73.7232 27.5735 75.0045 26.2923 75.0045 24.7219V19.4133C75.0045 17.3039 74.7662 15.2844 74.2857 13.3821C73.9654 12.1204 72.8365 11.2415 71.524 11.2415H68.6021L68.6021 11.2455ZM72.3404 13.8783C72.7818 15.6088 73.0005 17.4799 73.0005 19.4174V24.726C73.0005 25.1947 72.6216 25.5776 72.149 25.5776H68.5982C68.3482 25.5776 68.1294 25.4682 67.9693 25.2885C67.8091 25.0971 67.7388 24.8588 67.7701 24.6088C67.981 23.2377 68.0708 21.8276 68.1099 20.4096H71.1294C71.6802 20.4096 72.1294 19.9682 72.1294 19.4096C72.1294 18.851 71.6802 18.4096 71.1294 18.4096H68.1099C68.0708 16.9994 67.9693 15.5893 67.7701 14.2182C67.731 13.9682 67.8013 13.7299 67.9693 13.5385C68.0591 13.4291 68.2701 13.2495 68.5982 13.2495H71.5201C71.9107 13.2495 72.2505 13.5111 72.3404 13.8783Z" fill="#169C86"/>
</svg>
