<svg width="51" height="51" viewBox="0 0 51 51" fill="none" xmlns="http://www.w3.org/2000/svg">
<path d="M50.9512 37.0841C51.1578 32.5347 50.708 27.8707 49.614 23.2194C48.8238 19.8498 47.4198 16.7954 45.3269 13.8793C43.8924 11.8837 40.1605 7.22179 36.4774 7.01556C35.1726 6.94195 33.9488 7.45516 33.0067 8.502H33.0047C31.5257 10.1479 31.1975 12.5566 31.0759 14.6952C31.003 15.9506 30.8571 17.2122 30.6565 18.4717C29.4247 17.8706 28.2252 16.973 27.4675 15.5703C27.0198 14.7484 26.7949 13.7261 26.7949 12.5299L26.7969 1.30858C26.7969 0.586819 26.2154 0 25.5002 0H25.4982H25.4962C24.7789 0 24.1995 0.586819 24.1995 1.30858L24.2015 12.5299C24.2015 13.7261 23.9766 14.7484 23.5309 15.5703C22.7711 16.975 21.5758 17.8726 20.3419 18.4717C20.1433 17.2122 19.9954 15.9506 19.9225 14.6952C19.7989 12.5566 19.4748 10.1479 17.9917 8.49991C17.0496 7.45304 15.8501 6.93573 14.521 7.01346C10.8377 7.21997 7.10565 11.8838 5.67516 13.8793C3.58223 16.793 2.17819 19.8475 1.38603 23.2194C0.291954 27.869 -0.157835 32.535 0.0488541 37.0841C0.176493 39.9262 0.573591 43.5532 2.53079 46.4179C4.62372 49.4829 8.50169 50.7771 11.4291 50.9673C11.7026 50.9857 11.9781 50.9959 12.2577 50.9959C16.6928 50.9959 21.7986 48.7325 23.2691 43.5061C25.204 36.6277 22.8983 28.5229 21.3706 23.1577C21.1782 22.485 21.008 21.8083 20.852 21.1315C22.5478 20.422 24.2922 19.2463 25.5017 17.3223C26.7092 19.2443 28.4537 20.422 30.1515 21.1335C29.9955 21.8103 29.8253 22.487 29.6348 23.1598C28.1092 28.5249 25.8016 36.6319 27.7344 43.5082C29.2053 48.7343 34.3111 50.998 38.7457 50.998C39.0233 50.998 39.3008 50.9898 39.5744 50.9693C41.6187 50.8364 44.1148 50.1494 46.1532 48.7141L48.0374 50.6156C48.2907 50.8712 48.6209 51 48.9532 51C49.2854 51 49.6177 50.8732 49.8689 50.6156C50.3754 50.1044 50.3754 49.2763 49.8689 48.7652L48.0556 46.9352C48.1934 46.7634 48.3453 46.606 48.473 46.4199C50.424 43.5533 50.8215 39.9263 50.9512 37.0841ZM18.8746 23.8816C20.7852 30.6004 22.3696 37.1045 20.769 42.7906C19.5999 46.9494 15.1793 48.5829 11.5932 48.3562C9.37673 48.211 6.23225 47.2296 4.66225 44.9314C3.08798 42.6291 2.75572 39.6112 2.63622 36.9653C2.44172 32.6572 2.86922 28.2365 3.90655 23.8245C4.61971 20.7964 5.88397 18.0464 7.77426 15.4172C9.78612 12.616 12.6976 9.74107 14.6648 9.63062C14.7033 9.62858 14.7397 9.62858 14.7762 9.62858C15.2766 9.62858 15.6798 9.82691 16.0729 10.2644C17.0109 11.3093 17.2378 13.1699 17.3351 14.8506C17.4222 16.3432 17.5924 17.8419 17.8457 19.3345C17.1082 19.4961 16.472 19.5758 16.083 19.6044L12.813 16.977C12.2538 16.5272 11.4393 16.6213 10.9916 17.1856C10.5458 17.7499 10.639 18.5739 11.1982 19.0237L14.0692 21.3301C13.5322 22.6141 13.2364 23.8471 13.1919 25.0759C13.1858 25.1331 13.1595 25.1842 13.1595 25.2435C13.1595 28.2226 10.7606 30.6412 7.80888 30.6412C7.09369 30.6412 6.51221 31.228 6.51221 31.9497C6.51221 32.6715 7.09369 33.2583 7.80888 33.2583C10.4569 33.2583 12.7909 31.9313 14.2378 29.9133C14.5599 30.6452 14.9286 31.3916 15.4007 32.1828L16.2152 33.5466C16.4583 33.9535 16.8879 34.1804 17.3275 34.1804C17.5564 34.1804 17.7854 34.1212 17.9941 33.9944C18.608 33.6202 18.8045 32.8167 18.4358 32.1992L17.6213 30.8354C15.5567 27.3758 15.2569 25.0918 16.5191 22.1925C16.9952 22.1516 17.6375 22.0657 18.3729 21.9062C18.5269 22.5666 18.689 23.225 18.8754 23.8813L18.8746 23.8816ZM39.0016 43.3019C36.1064 43.3019 33.75 40.924 33.75 38.0022C33.75 35.0804 36.1043 32.7025 39.0016 32.7025C41.8968 32.7025 44.2531 35.0804 44.2531 38.0022C44.2551 40.922 41.8988 43.3019 39.0016 43.3019ZM48.3599 36.9637C48.2404 39.6115 47.9061 42.6293 46.3339 44.9298C46.2974 44.983 46.2528 45.0239 46.2143 45.075L44.6381 43.4842C45.9996 42.0591 46.8485 40.1289 46.8485 37.9987C46.8485 33.6333 43.3292 30.0818 39.0036 30.0818C34.678 30.0818 31.1587 33.6333 31.1587 37.9987C31.1587 42.364 34.678 45.9156 39.0036 45.9156C40.2699 45.9156 41.4531 45.5823 42.5127 45.0404L44.2774 46.8213C42.7254 47.7843 40.8655 48.2567 39.4027 48.3528C35.8045 48.5797 31.394 46.944 30.2249 42.7871C28.6243 37.1011 30.2087 30.599 32.1212 23.8781C32.3076 23.2239 32.4697 22.5655 32.6257 21.9071C33.3632 22.0666 34.0075 22.1504 34.4816 22.1934C34.9698 23.3179 35.2251 24.3116 35.2474 25.2358V25.428C35.2474 25.6591 35.2333 25.9044 35.2069 26.1498C35.1259 26.8695 35.6364 27.5177 36.3455 27.5994C36.3962 27.6056 36.4468 27.6076 36.4955 27.6076C37.1458 27.6076 37.705 27.1148 37.782 26.4483C37.8205 26.1007 37.8408 25.7531 37.8408 25.426V25.2031C37.8104 23.9743 37.5024 22.6943 36.9311 21.3223L39.7979 19.0201C40.3571 18.5703 40.4523 17.7463 40.0046 17.1819C39.5588 16.6156 38.7424 16.5215 38.1832 16.9734L34.9111 19.6008C34.5221 19.5701 33.8859 19.4924 33.1485 19.3329C33.4017 17.8403 33.5739 16.3416 33.6611 14.8469C33.7583 13.1642 33.9852 11.3036 34.9213 10.2608C35.3427 9.79051 35.7985 9.60241 36.3293 9.62696C38.2967 9.73737 41.208 12.6121 43.2198 15.4156C45.1122 18.047 46.3744 20.797 47.0855 23.8214C48.1269 28.2378 48.5564 32.6601 48.3599 36.9637Z" fill="#169C86"/>
</svg>
