<svg width="35" height="48" viewBox="0 0 35 48" fill="none" xmlns="http://www.w3.org/2000/svg">
<path d="M31.8736 48H3.07362C1.37745 47.9979 0.00201359 46.6225 0 44.9263V7.56288C0.00201669 5.86671 1.3775 4.49127 3.07362 4.48926H10.6163C11.062 4.48926 11.423 4.85228 11.423 5.29598C11.423 5.7417 11.062 6.10271 10.6163 6.10271H3.07362C2.26689 6.10473 1.61547 6.75615 1.61345 7.56288V44.9263C1.61547 45.7331 2.26689 46.3845 3.07362 46.3865H31.8736C32.6804 46.3845 33.3338 45.7331 33.3338 44.9263V7.56288C33.3338 6.75816 32.6804 6.10473 31.8736 6.10271H24.3753C23.9296 6.10271 23.5686 5.7417 23.5686 5.29598C23.5686 4.85228 23.9296 4.48926 24.3753 4.48926H31.8736C33.5698 4.49329 34.9453 5.86676 34.9473 7.56288V44.9263C34.9452 46.6225 33.5718 47.9979 31.8736 48Z" fill="#169C86"/>
<path d="M31.6231 45.4832H3.32333C2.87761 45.4832 2.5166 45.1222 2.5166 44.6765V7.81332C2.5166 7.3676 2.87761 7.00659 3.32333 7.00659H31.6231C31.8389 7.00659 32.0425 7.0913 32.1938 7.24256C32.3451 7.39382 32.4298 7.59752 32.4298 7.81333V44.6765C32.4298 44.8923 32.3451 45.096 32.1938 45.2473C32.0426 45.3985 31.8389 45.4832 31.6231 45.4832ZM4.12773 43.8698H30.8161V8.62005H4.12928L4.12773 43.8698Z" fill="#169C86"/>
<path d="M23.2211 18.2277C21.6218 18.2257 20.1798 17.2616 19.5667 15.7833C18.9556 14.305 19.2944 12.6048 20.4258 11.4733C21.5573 10.3419 23.2575 10.003 24.7358 10.6162C26.2141 11.2273 27.1782 12.6713 27.1782 14.2706C27.1762 16.4548 25.4053 18.2236 23.2211 18.2277ZM23.2211 11.9273C22.2732 11.9293 21.4201 12.5001 21.0571 13.3753C20.6961 14.2506 20.8957 15.257 21.5653 15.9266C22.2369 16.5982 23.2433 16.7979 24.1186 16.4349C24.9939 16.0718 25.5647 15.2187 25.5647 14.2708C25.5627 12.978 24.5139 11.9293 23.2211 11.9273Z" fill="#169C86"/>
<path d="M18.0457 20.255C17.719 20.255 17.4245 20.0594 17.2995 19.7589C17.1744 19.4563 17.243 19.1095 17.4729 18.8775L20.4256 15.933C20.7402 15.6184 21.2505 15.6184 21.5671 15.933C21.8817 16.2476 21.8817 16.7579 21.5671 17.0745L18.6165 20.0251V20.0231C18.4652 20.1743 18.2595 20.257 18.0457 20.255Z" fill="#169C86"/>
<path d="M18.3526 32.4142H18.3244C17.9997 32.4042 17.7133 32.1984 17.5984 31.8959L15.634 26.7287L14.555 29.3506L14.557 29.3526C14.432 29.6551 14.1375 29.8548 13.8108 29.8568H11.1527C10.707 29.8568 10.3459 29.4938 10.3459 29.0501C10.3459 28.6044 10.707 28.2434 11.1527 28.2434H13.2704L14.9201 24.2319H14.9181C15.0431 23.9254 15.3436 23.7277 15.6744 23.7318C16.0051 23.7358 16.3016 23.9415 16.4186 24.2501L18.4273 29.5319L20.8011 24.4031C20.9282 24.1288 21.2005 23.9473 21.503 23.9372C21.8055 23.9251 22.0899 24.0845 22.2371 24.3487L24.5 28.3924V28.3903C24.7178 28.7816 24.5786 29.2737 24.1874 29.4915C23.7981 29.7093 23.306 29.5682 23.0882 29.1789L21.5998 26.5208L19.0869 31.9482C18.9537 32.2346 18.6673 32.4163 18.3526 32.4142Z" fill="#169C86"/>
<path d="M13.4636 11.9272H7.60873C7.16301 11.9272 6.802 11.5662 6.802 11.1204C6.802 10.6767 7.16301 10.3137 7.60873 10.3137H13.4636C13.9093 10.3137 14.2704 10.6767 14.2704 11.1204C14.2704 11.5662 13.9093 11.9272 13.4636 11.9272Z" fill="#169C86"/>
<path d="M13.4636 14.8036H7.60873C7.16301 14.8036 6.802 14.4406 6.802 13.9969C6.802 13.5512 7.16301 13.1902 7.60873 13.1902H13.4636C13.9093 13.1902 14.2704 13.5512 14.2704 13.9969C14.2704 14.4406 13.9093 14.8036 13.4636 14.8036Z" fill="#169C86"/>
<path d="M13.4636 17.6752H7.60873C7.16301 17.6752 6.802 17.3142 6.802 16.8685C6.802 16.4248 7.16301 16.0618 7.60873 16.0618H13.4636C13.9093 16.0618 14.2704 16.4248 14.2704 16.8685C14.2704 17.3142 13.9093 17.6752 13.4636 17.6752Z" fill="#169C86"/>
<path d="M13.4636 20.5512H7.60873C7.16301 20.5512 6.802 20.1902 6.802 19.7445C6.802 19.2988 7.16301 18.9377 7.60873 18.9377H13.4636C13.9093 18.9377 14.2704 19.2988 14.2704 19.7445C14.2704 20.1902 13.9093 20.5512 13.4636 20.5512Z" fill="#169C86"/>
<path d="M27.1699 35.8549H7.60653C7.16082 35.8549 6.7998 35.4939 6.7998 35.0482C6.7998 34.6025 7.16082 34.2415 7.60653 34.2415H27.1699C27.6156 34.2415 27.9766 34.6025 27.9766 35.0482C27.9766 35.4939 27.6156 35.8549 27.1699 35.8549Z" fill="#169C86"/>
<path d="M27.1699 38.7309H7.60653C7.16082 38.7309 6.7998 38.3679 6.7998 37.9242C6.7998 37.4784 7.16082 37.1174 7.60653 37.1174H27.1699C27.6156 37.1174 27.9766 37.4784 27.9766 37.9242C27.9766 38.3679 27.6156 38.7309 27.1699 38.7309Z" fill="#169C86"/>
<path d="M27.1699 41.603H7.60653C7.16082 41.603 6.7998 41.2419 6.7998 40.7962C6.7998 40.3525 7.16082 39.9895 7.60653 39.9895H27.1699C27.6156 39.9895 27.9766 40.3525 27.9766 40.7962C27.9766 41.2419 27.6156 41.603 27.1699 41.603Z" fill="#169C86"/>
<path d="M27.1699 23.4255H7.60653C7.16082 23.4255 6.7998 23.0645 6.7998 22.6187C6.7998 22.173 7.16082 21.812 7.60653 21.812H27.1699C27.6156 21.812 27.9766 22.173 27.9766 22.6187C27.9766 23.0645 27.6156 23.4255 27.1699 23.4255Z" fill="#169C86"/>
<path d="M24.2296 8.61987H10.7169C10.2712 8.61987 9.91016 8.25684 9.91016 7.81314V4.15264C9.91016 3.70693 10.2712 3.34592 10.7169 3.34592H12.9677C13.3549 1.40172 15.0611 0 17.0436 0H17.6023C19.5828 0.00201669 21.287 1.40373 21.6742 3.34592H24.2295C24.4433 3.34592 24.649 3.43062 24.8003 3.58188C24.9516 3.73314 25.0363 3.93886 25.0363 4.15266V7.81316C25.0363 8.02694 24.9516 8.23064 24.8003 8.38192C24.649 8.53318 24.4434 8.61987 24.2296 8.61987ZM11.5239 7.00642H23.4232V4.95937H20.9465C20.5008 4.95937 20.1398 4.59836 20.1398 4.15264C20.1377 2.75098 19.0023 1.61547 17.6026 1.61345H17.0439C15.6423 1.61547 14.5068 2.75093 14.5048 4.15264C14.5048 4.36642 14.4201 4.57214 14.2688 4.72342C14.1175 4.87468 13.9118 4.95939 13.698 4.95939H11.5239L11.5239 7.00642Z" fill="#169C86"/>
</svg>
