<svg width="80" height="41" viewBox="0 0 80 41" fill="none" xmlns="http://www.w3.org/2000/svg">
<path d="M67.6802 0.00749969H50.8282C48.1485 0.00749969 45.6368 1.3669 43.5899 3.6989C41.5391 6.027 39.961 9.3473 39.1407 13.2887C37.6212 14.2496 36.5899 15.9371 36.5899 17.8668C36.5899 19.1559 37.0508 20.3473 37.8087 21.277H35.9689V18.2575C35.9689 16.3864 34.4884 14.8669 32.6603 14.8669H10.7813C7.1407 14.8669 4.1407 17.6677 3.6602 21.2771H2C0.8984 21.2771 0 22.1677 0 23.2771V26.9763C0 28.0779 0.89844 28.9763 2 28.9763H3.5898V39.0073C3.5898 40.1089 4.48042 41.0073 5.5898 41.0073H41.9998C43.1014 41.0073 43.9998 40.1089 43.9998 39.0073V35.5971C45.9881 37.6869 48.3514 38.808 50.8279 38.808H76.9999C78.6483 38.808 79.9999 37.4564 79.9999 35.808V19.41C79.9999 8.711 74.4687 0 67.6799 0L67.6802 0.00749969ZM48.5392 6.4372C52.2306 6.4372 55.34 12.3786 55.34 19.4062C55.34 26.4374 52.2306 32.3752 48.5392 32.3752C46.879 32.3752 45.2775 31.1643 44.0001 28.9768H48.5392C50.6095 28.9768 52.258 26.4573 52.84 22.426C52.9806 21.4846 53.0588 20.4768 53.0588 19.4065C53.0588 14.6565 51.508 9.8479 48.5393 9.8479C47.0588 9.8479 45.7892 11.1565 44.9689 13.3596C44.3283 12.9377 43.5979 12.6487 42.8088 12.5315C44.0471 8.82058 46.219 6.44168 48.5393 6.44168L48.5392 6.4372ZM46.5587 14.988C47.1173 12.9372 47.9806 11.8474 48.5392 11.8474C49.5392 11.8474 51.0587 14.8669 51.0587 19.406C51.0587 20.0544 51.0196 20.6755 50.9571 21.2771H46.1876C46.9494 20.3474 47.3985 19.156 47.3985 17.8669C47.3985 16.8083 47.09 15.8161 46.5587 14.988ZM42.0001 14.4685C43.879 14.4685 45.3985 15.988 45.3985 17.8669C45.3985 19.7458 43.879 21.2771 42.0001 21.2771C40.1212 21.2771 38.5899 19.7459 38.5899 17.8669C38.5899 15.9879 40.1211 14.4685 42.0001 14.4685ZM10.7811 16.8669H32.6601C33.3789 16.8669 33.9687 17.4958 33.9687 18.2575V21.277H5.6797C6.12892 18.7653 8.2498 16.8669 10.7811 16.8669ZM42.0001 39.0079H5.5901V28.9769H42.0001V39.0079ZM2.0001 26.9769V23.2777H50.6481C50.0973 25.7894 49.1169 26.9691 48.5387 26.9691H1.9997L2.0001 26.9769ZM50.8281 36.8089C48.3086 36.8089 45.8984 35.2308 44 32.3792V32.2776C45.3516 33.637 46.8984 34.3792 48.5391 34.3792C53.4688 34.3792 57.3399 27.8089 57.3399 19.4102C57.3399 11.0118 53.4688 4.44121 48.5391 4.44121C46.7774 4.44121 45.1289 5.30059 43.75 6.81231C45.6211 3.82401 48.1289 2.02321 50.8281 2.02321C56.5195 2.02321 61.1481 9.82401 61.1481 19.4142C61.1481 29.0044 56.5192 36.8122 50.8281 36.8122V36.8089ZM78.0001 35.8167C78.0001 36.3675 77.5509 36.8167 77.0001 36.8167H56.2381C60.3279 33.6565 63.1483 27.0472 63.1483 19.4067C63.1483 11.7661 60.328 5.17668 56.2381 2.00868H67.6791C73.3705 2.00868 77.9991 9.81728 77.9991 19.4187L78.0001 35.8167Z" fill="#169C86"/>
<path d="M32.0313 18.3354H24.8008C24.25 18.3354 23.8008 18.7847 23.8008 19.3354C23.8008 19.8862 24.25 20.3354 24.8008 20.3354H32.0313C32.5821 20.3354 33.0313 19.8862 33.0313 19.3354C33.0313 18.7847 32.5821 18.3354 32.0313 18.3354Z" fill="#169C86"/>
<path d="M68.6018 11.2453C67.7737 11.2453 66.9924 11.6046 66.4534 12.2335C65.9144 12.8546 65.6722 13.6827 65.7933 14.5147C66.0316 16.1045 66.1527 17.753 66.1527 19.4053C66.1527 21.0537 66.0316 22.7139 65.7933 24.3037C65.6722 25.1319 65.9144 25.9639 66.4534 26.5849C66.9925 27.2138 67.7815 27.5732 68.6018 27.5732H72.1526C73.7229 27.5732 75.0042 26.292 75.0042 24.7216V19.413C75.0042 17.3036 74.766 15.2841 74.2855 13.3818C73.9652 12.1201 72.8363 11.2412 71.5238 11.2412H68.6019L68.6018 11.2453ZM72.3401 13.8781C72.7816 15.6086 73.0003 17.4797 73.0003 19.4172V24.7257C73.0003 25.1945 72.6214 25.5773 72.1487 25.5773H68.5979C68.3479 25.5773 68.1292 25.4679 67.969 25.2882C67.8089 25.0968 67.7386 24.8586 67.7698 24.6086C67.9808 23.2375 68.0706 21.8274 68.1097 20.4094H71.1292C71.6799 20.4094 72.1292 19.968 72.1292 19.4094C72.1292 18.8508 71.6799 18.4094 71.1292 18.4094H68.1097C68.0706 16.9992 67.969 15.5891 67.7698 14.218C67.7308 13.968 67.8011 13.7297 67.969 13.5383C68.0589 13.4289 68.2698 13.2492 68.5979 13.2492H71.5198C71.9105 13.2492 72.2503 13.5109 72.3401 13.8781Z" fill="#169C86"/>
</svg>
