<svg width="47" height="52" viewBox="0 0 47 52" fill="none" xmlns="http://www.w3.org/2000/svg">
<path fill-rule="evenodd" clip-rule="evenodd" d="M23.1979 18.6819C24.6986 18.6819 26.0597 19.2959 27.0416 20.2848C28.0257 21.2761 28.6354 22.6447 28.6354 24.1585C28.6354 25.6701 28.0258 27.041 27.0416 28.0323C26.0574 29.0235 24.6986 29.6352 23.1979 29.6352C21.6973 29.6352 20.3361 29.0212 19.352 28.0323C18.3678 27.041 17.7605 25.6724 17.7605 24.1585C17.7605 22.647 18.3701 21.2761 19.352 20.2848C20.3384 19.2959 21.6973 18.6819 23.1979 18.6819ZM8.27211 14.9254L9.29117 18.1078C9.29582 18.1242 9.30746 18.1382 9.31909 18.1476C9.33305 18.157 9.34934 18.164 9.36795 18.164L12.6881 18.157C12.9231 18.157 13.1418 18.2296 13.3186 18.3585C13.4978 18.4898 13.6351 18.6749 13.7072 18.8999C13.7793 19.1248 13.777 19.3568 13.7095 19.5678C13.642 19.7787 13.5071 19.9685 13.3186 20.1068L10.629 22.0659C10.6127 22.0776 10.6034 22.0916 10.5988 22.1057C10.5941 22.1198 10.5941 22.1385 10.6011 22.1573L11.6318 25.335C11.7039 25.5576 11.7016 25.7896 11.6341 26.0005C11.5667 26.2138 11.4317 26.4036 11.2433 26.5419C11.0548 26.6801 10.8361 26.7481 10.6151 26.7481C10.394 26.7481 10.1753 26.6778 9.98685 26.5395L7.30421 24.5687C7.29025 24.5593 7.27396 24.5523 7.25535 24.5523C7.23906 24.5523 7.22045 24.557 7.20649 24.5687L4.52384 26.5395C4.33538 26.6778 4.11435 26.7481 3.89563 26.7481C3.6746 26.7481 3.45356 26.6801 3.26742 26.5419C3.07896 26.4036 2.94402 26.2138 2.87654 26.0005C2.80907 25.7896 2.80674 25.5576 2.87887 25.335L3.9096 22.1573C3.91658 22.1385 3.91658 22.1198 3.91193 22.1057C3.90728 22.0916 3.89797 22.0776 3.88168 22.0659L1.19207 20.1068C1.0036 19.9685 0.86866 19.7787 0.801187 19.5678C0.733714 19.3568 0.731386 19.1248 0.803514 18.8999C0.875642 18.6749 1.01291 18.4898 1.19207 18.3585C1.36889 18.2296 1.5876 18.1546 1.8226 18.157L5.14274 18.164C5.16136 18.164 5.17764 18.1593 5.1916 18.1476C5.20324 18.1382 5.21487 18.1242 5.21952 18.1078L6.23858 14.9254C6.31071 14.7004 6.44798 14.5153 6.62713 14.384C6.80629 14.2528 7.02499 14.1778 7.25766 14.1778C7.49033 14.1778 7.70671 14.2528 7.8882 14.384C8.0627 14.5129 8.19999 14.7004 8.27211 14.9254ZM8.34889 18.4101L7.32983 15.2277C7.32285 15.2089 7.31355 15.1949 7.30191 15.1855C7.29261 15.1785 7.27399 15.1738 7.25305 15.1738C7.23211 15.1738 7.21583 15.1785 7.20419 15.1855C7.19256 15.1949 7.18325 15.2089 7.17627 15.2277L6.15721 18.4101C6.08509 18.6374 5.94782 18.8225 5.76866 18.9538C5.59183 19.0826 5.37313 19.1576 5.13813 19.1576L1.81799 19.1506C1.79937 19.1506 1.78309 19.1553 1.76913 19.1647C1.75749 19.174 1.74819 19.1881 1.74121 19.2069C1.73423 19.2256 1.73423 19.242 1.73888 19.2561C1.74353 19.2701 1.75284 19.2842 1.76913 19.2959L4.45874 21.255C4.64953 21.3933 4.78215 21.5831 4.84962 21.794C4.91709 22.0049 4.91942 22.2369 4.8473 22.4619L3.81656 25.6396C3.80958 25.6584 3.80958 25.6771 3.81424 25.6912C3.81889 25.7029 3.8282 25.717 3.84448 25.7287C3.86077 25.7404 3.87706 25.7474 3.89102 25.7474C3.9073 25.7474 3.92359 25.7404 3.93755 25.731L6.62019 23.7602C6.81098 23.6196 7.03202 23.5493 7.25073 23.5493C7.46943 23.5493 7.68814 23.6196 7.88126 23.7602L10.5639 25.731C10.5802 25.7427 10.5965 25.7474 10.6104 25.7474C10.6244 25.7474 10.6407 25.7404 10.657 25.7287C10.6733 25.717 10.6826 25.7029 10.6872 25.6912C10.6919 25.6771 10.6919 25.6584 10.6849 25.6396L9.65416 22.4619C9.58203 22.2369 9.58435 22.0049 9.65183 21.794C9.7193 21.5831 9.85425 21.3933 10.0427 21.255L12.7323 19.2959C12.7486 19.2842 12.7579 19.2701 12.7626 19.2561C12.7672 19.242 12.7672 19.2233 12.7602 19.2069C12.7533 19.1881 12.744 19.174 12.7323 19.1647C12.7184 19.1553 12.7021 19.1506 12.6835 19.1506L9.36332 19.1576C9.12833 19.1576 8.90962 19.085 8.73279 18.9538C8.55829 18.8249 8.42102 18.6374 8.34889 18.4101ZM40.2614 14.9254L41.2805 18.1078C41.2851 18.1242 41.2968 18.1382 41.3084 18.1476C41.3224 18.157 41.3386 18.164 41.3573 18.164L44.6774 18.157C44.9124 18.157 45.1311 18.2296 45.3079 18.3585C45.4871 18.4898 45.6244 18.6749 45.6965 18.8999C45.7686 19.1248 45.7663 19.3568 45.6988 19.5678C45.6313 19.7787 45.4964 19.9685 45.3079 20.1068L42.6183 22.0659C42.602 22.0776 42.5927 22.0916 42.5881 22.1057C42.5834 22.1198 42.5834 22.1385 42.5904 22.1573L43.6211 25.335C43.6933 25.5576 43.6909 25.7896 43.6235 26.0005C43.556 26.2138 43.421 26.4036 43.2326 26.5419C43.0441 26.6801 42.8254 26.7481 42.6044 26.7481C42.3833 26.7481 42.1646 26.6778 41.9762 26.5395L39.2935 24.5687C39.2795 24.5593 39.2633 24.5523 39.2446 24.5523C39.2284 24.5523 39.2098 24.557 39.1958 24.5687L36.5131 26.5395C36.3247 26.6778 36.1037 26.7481 35.8849 26.7481C35.6639 26.7481 35.4429 26.6801 35.2567 26.5419C35.0683 26.4036 34.9333 26.2138 34.8658 26.0005C34.7984 25.7896 34.796 25.5576 34.8682 25.335L35.8989 22.1573C35.9059 22.1385 35.9059 22.1198 35.9012 22.1057C35.8966 22.0916 35.8849 22.0776 35.871 22.0659L33.1814 20.1068C32.9929 19.9685 32.858 19.7787 32.7905 19.5678C32.723 19.3568 32.7207 19.1248 32.7928 18.8999C32.8649 18.6749 33.0022 18.4898 33.1814 18.3585C33.3582 18.2296 33.5769 18.1546 33.8119 18.157L37.132 18.164C37.1507 18.164 37.1669 18.1593 37.1809 18.1476C37.1925 18.1382 37.2042 18.1242 37.2088 18.1078L38.2279 14.9254C38.3 14.7004 38.4373 14.5153 38.6164 14.384C38.7979 14.2528 39.0143 14.1778 39.247 14.1778C39.4796 14.1778 39.696 14.2528 39.8775 14.384C40.0543 14.5129 40.1916 14.7004 40.2614 14.9254ZM40.3405 18.4101L39.3215 15.2277C39.3145 15.2089 39.3052 15.1949 39.2935 15.1855C39.2842 15.1785 39.2679 15.1738 39.2447 15.1738C39.2237 15.1738 39.2075 15.1785 39.1958 15.1855C39.1842 15.1949 39.1749 15.2089 39.1679 15.2277L38.1488 18.4101C38.0767 18.6374 37.9394 18.8225 37.7603 18.9538C37.5835 19.0826 37.3648 19.1576 37.1298 19.1576L33.8096 19.1506C33.791 19.1506 33.7747 19.1553 33.7608 19.1647C33.7491 19.174 33.7398 19.1881 33.7328 19.2069C33.7282 19.2256 33.7259 19.242 33.7305 19.2561C33.7352 19.2701 33.7468 19.2842 33.7608 19.2959L36.4504 21.255C36.6388 21.3933 36.7738 21.5831 36.8413 21.794C36.9087 22.0049 36.9111 22.2369 36.8389 22.4619L35.8082 25.6396C35.8012 25.6584 35.8012 25.6771 35.8059 25.6912C35.8105 25.7029 35.8198 25.717 35.8361 25.7287C35.8524 25.7404 35.8687 25.7474 35.8826 25.7474C35.8989 25.7474 35.9152 25.7404 35.9292 25.731L38.6118 23.7602C38.8026 23.6196 39.0236 23.5493 39.2424 23.5493C39.4611 23.5493 39.6798 23.6196 39.8729 23.7602L42.5555 25.731C42.5718 25.7427 42.5881 25.7474 42.6021 25.7474C42.616 25.7474 42.6323 25.7404 42.6509 25.7287C42.6672 25.717 42.6765 25.7029 42.6812 25.6912C42.6858 25.6771 42.6858 25.6584 42.6788 25.6396L41.6481 22.4619C41.576 22.2369 41.5783 22.0049 41.6458 21.794C41.7133 21.5808 41.8482 21.3933 42.0367 21.255L44.7263 19.2959C44.7426 19.2842 44.7519 19.2701 44.7565 19.2561C44.7612 19.242 44.7612 19.2233 44.7542 19.2069C44.7472 19.1881 44.7379 19.174 44.7263 19.1647C44.7123 19.1553 44.696 19.1506 44.6774 19.1506L41.3573 19.1576C41.1223 19.1576 40.9036 19.085 40.7267 18.9538C40.5499 18.8249 40.4127 18.6374 40.3405 18.4101ZM24.3378 1.59362L25.5825 5.47909C25.5965 5.52361 25.6221 5.55876 25.657 5.58454C25.6919 5.61032 25.7338 5.62438 25.7803 5.62438L29.8334 5.61735C30.0963 5.61735 30.3406 5.69937 30.5384 5.84467C30.7385 5.98996 30.892 6.19853 30.9734 6.44927C31.0549 6.70002 31.0526 6.96014 30.9758 7.19684C30.899 7.43352 30.7501 7.64443 30.5384 7.7991L27.2554 10.1918C27.2159 10.2199 27.1903 10.2574 27.1787 10.2949C27.167 10.3347 27.167 10.3793 27.181 10.4261L28.4397 14.3069C28.5212 14.5577 28.5188 14.8154 28.442 15.0521C28.3653 15.2912 28.2164 15.5021 28.0046 15.6567C27.7929 15.8114 27.5486 15.8887 27.2996 15.8887C27.053 15.8887 26.8087 15.8114 26.597 15.6544L23.3234 13.2477C23.2861 13.2219 23.2443 13.2078 23.2 13.2078C23.1558 13.2078 23.114 13.2219 23.0767 13.2477L19.8031 15.6544C19.5914 15.8091 19.3471 15.8887 19.0981 15.8887C18.8515 15.8887 18.6049 15.8114 18.3931 15.6567C18.1814 15.5021 18.0325 15.2888 17.9557 15.0521C17.8789 14.8154 17.8766 14.5577 17.958 14.3069L19.2191 10.4261C19.2331 10.3793 19.2354 10.3347 19.2214 10.2949C19.2098 10.2551 19.1819 10.2199 19.1447 10.1918L15.8594 7.79442C15.6477 7.63975 15.4988 7.42884 15.422 7.19216C15.3452 6.95548 15.3429 6.69769 15.4243 6.44459C15.5058 6.19384 15.6593 5.98528 15.8594 5.83999C16.0572 5.69469 16.3015 5.61267 16.5644 5.61267L20.6175 5.6197C20.664 5.6197 20.7082 5.60564 20.7408 5.57986C20.7733 5.55643 20.8013 5.51894 20.8152 5.47441L22.06 1.58894C22.1414 1.33819 22.2926 1.12963 22.4927 0.982002C22.6951 0.834367 22.9371 0.75 23.1977 0.75C23.4583 0.75 23.7026 0.834361 23.9027 0.982002C24.1028 1.13433 24.2564 1.34055 24.3378 1.59362ZM24.6403 5.78139L23.3955 1.89593C23.3816 1.84906 23.356 1.8139 23.3234 1.79047C23.2932 1.76704 23.2489 1.75532 23.2001 1.75532C23.1512 1.75532 23.107 1.76938 23.0768 1.79047C23.0419 1.81391 23.0163 1.8514 23.0023 1.89827L21.7576 5.78374C21.6761 6.03683 21.5226 6.24539 21.3225 6.39302C21.1247 6.53831 20.8804 6.62033 20.6175 6.62033L16.5644 6.6133C16.5179 6.6133 16.476 6.62737 16.4411 6.65314C16.4086 6.67658 16.383 6.71407 16.3667 6.7586C16.3527 6.80312 16.3527 6.84999 16.3643 6.88749C16.376 6.92498 16.4039 6.96248 16.4411 6.99059L19.7241 9.38327C19.9358 9.53794 20.087 9.74885 20.1615 9.98787C20.2382 10.2246 20.2406 10.4847 20.1591 10.7354L18.8981 14.6162C18.8818 14.6631 18.8818 14.7076 18.8958 14.7475C18.9074 14.785 18.933 14.8201 18.9725 14.8482C19.0121 14.8763 19.054 14.8927 19.0958 14.8927C19.1377 14.8927 19.1796 14.8787 19.2168 14.8506L22.4905 12.4439C22.7045 12.2868 22.9488 12.2072 23.1954 12.2072C23.4397 12.2072 23.6864 12.2868 23.9004 12.4439L27.1741 14.8506C27.2113 14.8787 27.2555 14.8927 27.295 14.8927C27.3346 14.8927 27.3788 14.8787 27.4184 14.8482C27.4579 14.8201 27.4835 14.785 27.4951 14.7475C27.5068 14.7076 27.5068 14.6631 27.4928 14.6162L26.2317 10.7354C26.1503 10.4847 26.1526 10.2246 26.2294 9.98787C26.3062 9.75118 26.4551 9.54028 26.6668 9.38327L29.9498 6.99059C29.9893 6.96247 30.0149 6.92732 30.0265 6.88749C30.0405 6.84765 30.0382 6.80312 30.0242 6.7586C30.0103 6.71407 29.9847 6.67658 29.9498 6.65314C29.9149 6.62737 29.873 6.6133 29.8264 6.6133L25.7734 6.62033C25.5105 6.62033 25.2662 6.53831 25.0684 6.39302C24.8753 6.24538 24.7217 6.03446 24.6403 5.78139ZM31.9832 39.3819L30.4638 38.4984V50.2485C30.4638 50.525 30.2405 50.7477 29.9683 50.7477L16.4296 50.75C16.1551 50.75 15.9341 50.525 15.9341 50.2508L15.9317 38.4983L14.4124 39.3818C13.961 39.6443 13.512 39.8365 13.0466 39.9607C12.5767 40.0872 12.095 40.1482 11.5762 40.1482H3.90745C3.07685 40.1482 2.32064 39.806 1.77391 39.2553C1.22715 38.7046 0.887442 37.943 0.887442 37.1064C0.887442 36.2698 1.22713 35.5081 1.77391 34.9574C2.32068 34.4067 3.07685 34.0646 3.90745 34.0646H11.3689C11.8016 34.0646 12.2018 34.0154 12.5811 33.9122C12.965 33.8091 13.3349 33.6498 13.7072 33.4342L17.6393 31.147C17.6486 31.1399 17.6602 31.1353 17.6695 31.1306C17.8603 31.0228 18.0534 30.9408 18.2489 30.8845C18.4513 30.8259 18.6607 30.7931 18.8724 30.7837C19.3796 30.7087 21.2968 30.6689 23.1977 30.6689C25.0986 30.6689 27.0158 30.7064 27.523 30.7837C27.7347 30.7931 27.9441 30.8283 28.1465 30.8845C28.3513 30.9431 28.556 31.0298 28.7538 31.147H28.7561L32.6882 33.4342C33.0605 33.6498 33.4304 33.8091 33.8143 33.9122C34.1959 34.0154 34.5937 34.0646 35.0288 34.0646H42.4903C43.3209 34.0646 44.0747 34.4067 44.6238 34.9574C45.1706 35.5081 45.5103 36.2674 45.5103 37.1064C45.5103 37.943 45.1706 38.7023 44.6238 39.2553C44.077 39.806 43.3209 40.1482 42.4903 40.1482H34.8192C34.3026 40.1482 33.8187 40.0872 33.3487 39.9607C32.8834 39.8365 32.4345 39.6444 31.9832 39.3819ZM30.2172 37.2025L32.4811 38.5195C32.8534 38.7351 33.2233 38.8945 33.6072 38.9976C33.9888 39.1007 34.3866 39.1499 34.8217 39.1499H42.4904C43.0465 39.1499 43.5538 38.9202 43.9213 38.55C44.2889 38.1797 44.5169 37.6688 44.5169 37.1088C44.5169 36.5487 44.2889 36.0378 43.9213 35.6676C43.5537 35.2973 43.0465 35.0677 42.4904 35.0677H35.029C34.5125 35.0677 34.0285 35.0067 33.5585 34.8802C33.0909 34.7536 32.6418 34.5638 32.1928 34.3014L28.2607 32.0142C28.1397 31.9439 28.0117 31.89 27.8768 31.8501C27.7372 31.8103 27.5976 31.7868 27.4603 31.7822C27.437 31.7822 27.4138 31.7798 27.3905 31.7751C27.0229 31.7072 25.1197 31.6744 23.1978 31.6744C21.3016 31.6744 19.4217 31.7072 19.0215 31.7728C18.9935 31.7798 18.9656 31.7822 18.9377 31.7822C18.8027 31.7868 18.6631 31.8103 18.5212 31.8501C18.3933 31.8876 18.2723 31.9368 18.1583 32.0001L18.135 32.0142L14.2029 34.3014C13.7515 34.5638 13.3025 34.7536 12.8371 34.8802C12.3671 35.0067 11.8855 35.0677 11.369 35.0677H3.9076C3.35152 35.0677 2.84428 35.2973 2.47672 35.6676C2.1091 36.0379 1.88109 36.5488 1.88109 37.1088C1.88109 37.6689 2.1091 38.1798 2.47672 38.55C2.84434 38.9202 3.35158 39.1499 3.9076 39.1499H11.5763C12.0091 39.1499 12.4092 39.1007 12.7908 38.9976C13.1747 38.8945 13.5447 38.7351 13.9169 38.5195L16.1412 37.226C16.2227 37.1674 16.3204 37.1346 16.4298 37.1346C16.7043 37.1346 16.9253 37.3595 16.9253 37.6337V49.7492H29.4728V37.6337C29.4728 37.5494 29.4938 37.4626 29.5403 37.383C29.6776 37.1463 29.9799 37.0642 30.2172 37.2025ZM26.341 20.9926C25.536 20.1817 24.4262 19.6802 23.1977 19.6802C21.9692 19.6802 20.8594 20.1817 20.0544 20.9926C19.2494 21.8034 18.7515 22.9212 18.7515 24.1585C18.7515 25.3959 19.2494 26.5137 20.0544 27.3245C20.8595 28.1354 21.9692 28.6369 23.1977 28.6369C24.4262 28.6369 25.536 28.1354 26.341 27.3245C27.1461 26.5137 27.644 25.3959 27.644 24.1585C27.644 22.9212 27.146 21.8034 26.341 20.9926Z" fill="#169C86" stroke="#169C86" stroke-width="1.5"/>
</svg>
