<svg width="48" height="47" viewBox="0 0 48 47" fill="none" xmlns="http://www.w3.org/2000/svg">
<path fill-rule="evenodd" clip-rule="evenodd" d="M0.782691 20.9658C0.627118 20.9112 0.513591 20.9742 0.437907 21.1172C0.32438 21.2223 0.442112 21.3821 0.349609 21.4956C0.349609 21.6764 0.349609 21.8614 0.349609 22.0422C0.349609 22.7024 0.349609 23.3583 0.349609 24.0184C0.463136 24.1193 0.572456 24.2539 0.744848 24.174C0.91724 24.0941 0.904627 23.9301 0.900422 23.7746C0.883603 22.9504 0.896217 22.1305 0.963492 21.3064C0.976106 21.155 0.942469 21.0205 0.782691 20.9658Z" fill="#169C86" stroke="#169C86" stroke-width="0.7"/>
<path fill-rule="evenodd" clip-rule="evenodd" d="M27.1381 19.7968C27.0624 19.5781 27.1087 19.5108 27.3063 19.4352C28.8957 18.8171 30.2369 17.8542 31.3302 16.5381C32.7387 14.8394 33.4956 12.8843 33.6049 10.681C33.6554 9.70552 33.5628 8.73844 33.3064 7.79239C33.3148 7.75455 33.3022 7.72932 33.2727 7.70409C33.2139 7.49386 33.1508 7.28783 33.0919 7.07759C32.7766 6.05165 32.2678 5.12242 31.6203 4.27307C30.6154 2.94439 29.354 1.93106 27.8361 1.23308C27.7604 1.19944 27.6847 1.1616 27.5964 1.18263C27.588 1.09012 27.5039 1.08592 27.445 1.06069C26.8984 0.837842 26.3392 0.665451 25.7632 0.551925C25.3805 0.47624 24.9979 0.417373 24.6111 0.350098C24.035 0.350098 23.4632 0.350098 22.8872 0.350098C22.6811 0.421577 22.4625 0.41317 22.2523 0.446807C20.4316 0.74534 18.8128 1.46854 17.3916 2.65847C16.1849 3.6676 15.2809 4.88695 14.6586 6.32075C13.8639 8.1624 13.6621 10.0755 14.0237 12.0475C14.1246 12.5899 14.2507 13.1281 14.4778 13.6327C14.4652 13.7336 14.5072 13.8135 14.5703 13.885C14.625 14.091 14.7259 14.276 14.8184 14.4652C14.9067 14.6586 14.9823 14.8521 15.1169 15.0202C15.1295 15.0917 15.1589 15.1506 15.2178 15.1926C15.2388 15.2389 15.2515 15.2851 15.2767 15.3272C16.2564 16.9418 17.5935 18.1738 19.2711 19.0399C19.5949 19.2081 19.9271 19.3511 20.2676 19.4772C20.3812 19.5193 20.4358 19.5655 20.3686 19.6874C20.3349 19.7463 20.3265 19.822 20.3139 19.8809C20.2592 20.1121 20.2298 20.3476 20.3643 20.5662C20.3686 20.5746 20.3686 20.583 20.3728 20.5915C20.5199 21.0329 20.9488 21.3567 21.4323 21.3609C22.967 21.3651 24.4975 21.3693 26.0323 21.3609C26.8227 21.3525 27.3988 20.541 27.1381 19.7968ZM15.3187 14.4274C15.3019 14.4232 15.2893 14.419 15.2809 14.4106C15.2893 14.4148 15.3019 14.419 15.3229 14.4232C15.3187 14.4232 15.3187 14.4274 15.3187 14.4274ZM26.1416 20.7134C26.0112 20.7554 25.8809 20.7596 25.7463 20.7596C24.405 20.7596 23.0595 20.7596 21.7183 20.7596C21.6552 20.7596 21.5921 20.7596 21.529 20.7554C21.2473 20.7344 21.0371 20.6125 20.9236 20.3434C20.9067 20.2971 20.8899 20.2509 20.8521 20.2172C20.8521 20.2088 20.8563 20.2004 20.8563 20.192C20.8647 20.1542 20.8647 20.1163 20.8479 20.0785C20.8395 20.0659 20.8311 20.0533 20.8269 20.0448C20.8395 20.0028 20.8353 19.9565 20.8437 19.9145C20.8605 19.8977 20.8857 19.8809 20.9152 19.864C21.0623 19.7337 21.1969 19.5907 21.3945 19.5319C21.4155 19.5277 21.4281 19.5024 21.4197 19.4772H21.4239C21.5248 19.5613 21.651 19.5361 21.7645 19.5361C23.0806 19.5361 24.3966 19.5361 25.7085 19.5361C25.8346 19.5361 25.9608 19.5361 26.0827 19.5655C26.3518 19.6286 26.5578 19.8682 26.5663 20.1289C26.5831 20.3854 26.4065 20.6209 26.1416 20.7134ZM21.3987 19.4478C21.4113 19.4436 21.4239 19.4394 21.4365 19.4478C21.445 19.452 21.4534 19.4562 21.466 19.4604C21.4449 19.4604 21.4281 19.4604 21.4071 19.4604C21.4029 19.4562 21.4029 19.452 21.3987 19.4478ZM23.0091 5.93392C23.0638 5.93813 23.1142 5.92972 23.1605 5.9171C23.4127 5.89187 23.665 5.89187 23.9173 5.89187C23.972 5.9129 24.035 5.9171 24.0939 5.93392C24.4849 5.97597 24.876 6.05586 25.2376 6.20302C26.4443 6.69497 27.3231 7.52329 27.7646 8.76788C28.1851 9.9536 28.0926 11.1015 27.5249 12.2241C27.3693 12.5353 27.1633 12.653 26.8143 12.6488C24.9643 12.6362 23.1142 12.6404 21.2642 12.6404C21.0413 12.6404 20.8142 12.6446 20.5914 12.6404C20.3812 12.6362 20.1667 12.6236 20.0448 12.4049C20.0196 12.3629 19.9733 12.3377 19.9187 12.3503C19.9144 12.3587 19.9144 12.3671 19.9144 12.3755C19.9102 12.3713 19.9102 12.3629 19.9102 12.3587C19.885 12.2367 19.8346 12.1232 19.7841 12.0097C19.4183 11.1982 19.2922 10.3446 19.4561 9.47006C19.8009 7.6242 21.1506 6.29552 23.0091 5.93392ZM19.8934 13.2248C20.8395 13.2206 21.7855 13.2206 22.7274 13.2206C24.2873 13.2206 25.8515 13.2248 27.4114 13.2206C27.794 13.2206 28.122 13.3216 28.3322 13.6537C28.5088 13.9312 28.534 14.234 28.3785 14.5325C28.2019 14.8731 27.916 15.0455 27.5291 15.0455C26.2467 15.0455 24.9685 15.0455 23.686 15.0455V15.0497C22.412 15.0497 21.138 15.0539 19.864 15.0497C19.372 15.0497 18.9894 14.7343 18.9221 14.2928C18.838 13.6916 19.2543 13.2291 19.8934 13.2248ZM24.2579 18.939C24.2579 18.9306 24.2537 18.9222 24.2537 18.9096C24.0182 18.8129 23.7701 18.8759 23.5263 18.8633C23.274 18.8507 23.2488 18.8381 23.2488 18.5858C23.2446 18.0476 23.2488 17.5094 23.2488 16.9712C23.2488 16.6138 23.2488 16.2564 23.2488 15.9032C23.2488 15.7435 23.3118 15.672 23.4716 15.6762C23.6188 15.6804 23.7659 15.6762 23.9131 15.6762C24.1906 15.6804 24.2074 15.693 24.2074 15.9747C24.2074 16.7358 24.2074 17.501 24.2074 18.2621C24.2074 18.3714 24.1906 18.4891 24.2621 18.5858C24.2705 18.5858 24.2831 18.5858 24.2915 18.5858C24.2915 18.59 24.2873 18.59 24.2873 18.5942C24.2327 18.6279 24.2327 18.6825 24.2453 18.7372C24.2579 18.7582 24.2705 18.775 24.2831 18.7876C24.2789 18.8339 24.2747 18.8801 24.2705 18.9264C24.2663 18.9306 24.2621 18.9348 24.2579 18.939ZM26.2551 18.9222C26.2173 18.9054 26.171 18.9096 26.129 18.9138C25.78 18.9138 25.4268 18.9138 25.0778 18.9138C24.9853 18.9138 24.8844 18.9264 24.8802 18.7918C24.8928 17.8458 24.8844 16.8955 24.8844 15.9453C24.8844 15.8738 24.8886 15.7981 24.8507 15.7392C24.9264 15.6552 25.0358 15.6678 25.1367 15.6678C25.9019 15.6678 26.663 15.6636 27.4282 15.6678C27.6174 15.6678 27.8024 15.6425 27.9874 15.5921C28.5509 15.4365 29.0176 14.9193 29.0765 14.3769C29.1521 13.7084 28.8578 13.0903 28.2944 12.8086C28.0085 12.6656 28.0799 12.632 28.1724 12.4344C28.6266 11.4967 28.8116 10.5044 28.6434 9.47426C28.4289 8.17502 27.8066 7.09021 26.7513 6.28291C25.9986 5.70687 25.1493 5.37049 24.2032 5.2906C24.0729 5.28219 23.9804 5.2864 23.9131 5.30322C23.6146 5.2864 23.3202 5.32004 23.0217 5.36629C23.0175 5.36629 23.0091 5.36629 23.0049 5.36629C22.967 5.36208 22.9292 5.36629 22.8872 5.38731C22.0925 5.52607 21.3735 5.84142 20.7428 6.33757C19.3342 7.46022 18.7203 8.94027 18.8591 10.7273C18.9053 11.3369 19.0861 11.9172 19.3889 12.4554C19.4057 12.5143 19.4225 12.5731 19.473 12.6152C19.4772 12.6614 19.4561 12.6993 19.4267 12.7329C19.1702 12.7876 18.9558 12.9095 18.7876 13.1113C18.7371 13.1197 18.7035 13.1492 18.6909 13.1996C18.3377 13.6495 18.2452 14.1331 18.468 14.6713C18.4849 14.7469 18.5017 14.8184 18.5521 14.8773C18.5521 14.8983 18.5521 14.9193 18.5563 14.9446C18.6152 15.1001 18.7287 15.2095 18.8591 15.3146C19.1702 15.5584 19.5276 15.6552 19.9187 15.6552C20.7091 15.6552 21.4996 15.6552 22.2901 15.6552C22.5634 15.6552 22.5676 15.6594 22.5676 15.9411C22.5676 16.7316 22.5676 17.522 22.5676 18.3125C22.5676 18.8591 22.5676 18.8591 22.0252 18.8591C21.651 18.8591 21.2684 18.8213 20.911 18.9853C20.8311 19.0231 20.747 18.9895 20.6671 18.96C20.0742 18.7582 19.515 18.4891 18.981 18.1653C17.4968 17.2698 16.3447 16.0588 15.5205 14.5325C15.4827 14.461 15.4575 14.3769 15.3734 14.3391C15.3776 14.3265 15.3818 14.3139 15.3818 14.297C15.3313 14.0237 15.1716 13.7967 15.0791 13.5402C14.6123 12.2536 14.3811 10.9375 14.4862 9.56677C14.5745 8.43571 14.8394 7.35511 15.3103 6.32916C15.6803 5.51766 16.1765 4.77763 16.7651 4.10488C17.8668 2.85189 19.2081 1.95208 20.789 1.42229C21.9832 1.01864 23.2109 0.867276 24.4723 0.972393C25.124 1.02705 25.759 1.14899 26.3897 1.32559C26.6714 1.40548 26.9321 1.55684 27.2306 1.58207C27.239 1.57787 27.2474 1.57366 27.2558 1.56946C27.3357 1.70821 27.4913 1.72924 27.6174 1.7881C28.9545 2.39778 30.0561 3.30599 30.9812 4.43705C31.7464 5.3747 32.2846 6.43428 32.642 7.59057C32.663 7.65784 32.6546 7.75035 32.7387 7.77978C32.7387 7.77978 32.7387 7.77978 32.7345 7.77978C32.6967 7.89331 32.7429 8.00262 32.7682 8.10774C32.991 9.08323 33.0625 10.0671 32.9658 11.0678C32.8102 12.6993 32.272 14.1835 31.326 15.5248C30.279 17.0133 28.9167 18.1023 27.239 18.8003C26.9237 18.939 26.6083 19.0988 26.2551 18.9222Z" fill="#169C86" stroke="#169C86" stroke-width="0.7"/>
<path fill-rule="evenodd" clip-rule="evenodd" d="M30.9721 35.1062C30.7366 33.9962 30.4675 32.8903 30.4381 31.7551C30.4087 30.7459 30.4255 29.7368 30.4171 28.7319C30.4171 28.6478 30.4213 28.5637 30.4087 28.4796C30.3918 28.3451 30.3035 28.2694 30.1732 28.2568C30.0429 28.2441 29.9335 28.2946 29.8915 28.4249C29.8705 28.488 29.8663 28.5637 29.8663 28.631C29.8663 29.5434 29.8663 30.4516 29.8663 31.364C29.8663 31.7509 29.8957 32.1335 29.9504 32.5161C29.9798 32.8987 30.0429 33.2772 30.1143 33.6556C30.1185 33.7649 30.1396 33.8742 30.1606 33.9835C30.2363 34.3451 30.3876 34.7025 30.3456 35.0726C30.2153 36.2919 30.0218 37.4987 29.841 38.7096C29.7822 39.1048 29.7191 39.4959 29.6644 39.8911C29.635 40.0887 29.7317 40.2401 29.8915 40.2527C30.0723 40.2653 30.1816 40.1686 30.2068 39.9878C30.211 39.9584 30.2195 39.9332 30.2237 39.9037C30.3288 39.1973 30.4339 38.491 30.539 37.7846C30.5937 37.4272 30.6441 37.0698 30.6988 36.7124C30.9511 37.772 31.0562 38.84 31.031 39.9206C31.0268 40.135 31.1235 40.2485 31.2959 40.2485C31.4598 40.2485 31.5692 40.1308 31.5776 39.9248C31.586 39.6304 31.5902 39.3361 31.5818 39.0418C31.5355 37.7047 31.2454 36.4054 30.9721 35.1062Z" fill="#169C86" stroke="#169C86" stroke-width="0.7"/>
<path fill-rule="evenodd" clip-rule="evenodd" d="M42.1737 39.7437C41.9887 38.4696 41.8037 37.1956 41.6103 35.9216C41.5178 35.3161 41.5052 34.7233 41.6523 34.1136C41.8542 33.2642 41.9803 32.3939 41.9845 31.5151C41.9887 30.5396 41.9887 29.5683 41.9845 28.5928C41.9845 28.3532 41.9004 28.248 41.7154 28.248C41.5304 28.248 41.4463 28.3574 41.4463 28.5928C41.4463 29.4548 41.4547 30.3168 41.4463 31.1787C41.4421 31.6538 41.4127 32.129 41.3496 32.6041C41.1982 33.7646 40.9165 34.8999 40.6853 36.0435C40.4288 37.3007 40.2227 38.5621 40.2774 39.853C40.29 40.1221 40.3657 40.2398 40.5507 40.244C40.7399 40.244 40.8282 40.1221 40.824 39.8572C40.824 39.6554 40.824 39.4493 40.824 39.2475C40.824 38.3898 40.9544 37.5488 41.1562 36.7079C41.2613 37.4227 41.3664 38.1333 41.4715 38.8481C41.5262 39.2139 41.5809 39.5797 41.6355 39.9497C41.665 40.1515 41.7869 40.2692 41.9467 40.244C42.1359 40.2146 42.199 40.0884 42.1821 39.9076C42.1863 39.853 42.1821 39.7983 42.1737 39.7437Z" fill="#169C86" stroke="#169C86" stroke-width="0.7"/>
<path fill-rule="evenodd" clip-rule="evenodd" d="M44.7972 37.7253C44.7846 37.103 44.7677 36.4807 44.7089 35.8584C44.6458 35.2193 44.5575 34.5802 44.5827 33.9327C44.6416 32.4274 44.7005 30.9221 44.6332 29.4169C44.5996 28.6348 44.5575 27.8527 44.4019 27.0791C44.3431 26.6418 44.2379 26.2129 44.0445 25.8135C44.0361 25.8092 44.0235 25.805 44.0151 25.8008C44.0235 25.8008 44.0361 25.805 44.0445 25.8135C43.9646 25.578 43.8259 25.3888 43.6367 25.2332C43.5988 25.1449 43.5189 25.0987 43.4475 25.0398C42.7201 24.4637 41.8791 24.0937 41.0424 23.7237C40.4411 23.4546 39.8188 23.236 39.2344 22.9332C38.7046 22.6599 38.406 22.2353 38.4313 21.6214C38.4355 21.5667 38.4313 21.5079 38.4145 21.4574C38.3724 21.3102 38.2673 21.2303 38.1159 21.2514C37.9772 21.2682 37.8889 21.3649 37.8847 21.5079C37.851 22.1848 38.036 22.7693 38.6037 23.1897C38.8938 23.4042 39.2133 23.5555 39.5455 23.6943C40.4201 24.0685 41.3115 24.4133 42.1482 24.8674C42.7621 25.1996 43.3886 25.5233 43.6535 26.2423C43.7544 26.6123 43.8511 26.9866 43.9058 27.365C44.1202 28.8661 44.1286 30.3797 44.1076 31.8934C44.0908 33.096 43.952 34.2985 44.1202 35.501C44.259 36.5102 44.2379 37.5277 44.2716 38.541C44.2884 39.0035 44.2884 39.4661 44.2968 39.9286C44.301 40.1262 44.4188 40.2481 44.5869 40.2481C44.7467 40.2439 44.8434 40.1304 44.8476 39.9328C44.8476 39.8991 44.8476 39.8613 44.8476 39.8277C44.8266 39.1255 44.814 38.4275 44.7972 37.7253Z" fill="#169C86"/>
<path d="M44.0445 25.8135C44.2379 26.2129 44.3431 26.6418 44.4019 27.0791C44.5575 27.8527 44.5996 28.6348 44.6332 29.4169C44.7005 30.9221 44.6416 32.4274 44.5827 33.9327C44.5575 34.5802 44.6458 35.2193 44.7089 35.8584C44.7677 36.4807 44.7846 37.103 44.7972 37.7253C44.814 38.4275 44.8266 39.1255 44.8476 39.8277C44.8476 39.8613 44.8476 39.8991 44.8476 39.9328C44.8434 40.1304 44.7467 40.2439 44.5869 40.2481C44.4188 40.2481 44.301 40.1262 44.2968 39.9286C44.2884 39.4661 44.2884 39.0035 44.2716 38.541C44.2379 37.5277 44.259 36.5102 44.1202 35.501C43.952 34.2985 44.0908 33.096 44.1076 31.8934C44.1286 30.3797 44.1202 28.8661 43.9058 27.365C43.8511 26.9866 43.7544 26.6123 43.6535 26.2423C43.3886 25.5233 42.7621 25.1996 42.1482 24.8674C41.3115 24.4133 40.4201 24.0685 39.5455 23.6943C39.2133 23.5555 38.8938 23.4042 38.6037 23.1897C38.036 22.7693 37.851 22.1848 37.8847 21.5079C37.8889 21.3649 37.9772 21.2682 38.1159 21.2514C38.2673 21.2303 38.3724 21.3102 38.4145 21.4574C38.4313 21.5079 38.4355 21.5667 38.4313 21.6214C38.406 22.2353 38.7046 22.6599 39.2344 22.9332C39.8188 23.236 40.4411 23.4546 41.0424 23.7237C41.8791 24.0937 42.7201 24.4637 43.4475 25.0398C43.5189 25.0987 43.5988 25.1449 43.6367 25.2332C43.8259 25.3888 43.9646 25.578 44.0445 25.8135ZM44.0445 25.8135C44.0361 25.8092 44.0235 25.805 44.0151 25.8008C44.0235 25.8008 44.0361 25.805 44.0445 25.8135Z" stroke="#169C86" stroke-width="0.7"/>
<path fill-rule="evenodd" clip-rule="evenodd" d="M33.9826 21.5461C33.9742 21.3696 33.8523 21.2392 33.6967 21.2518C33.5201 21.2644 33.4402 21.3738 33.4318 21.5419C33.4276 21.5966 33.4318 21.6555 33.4318 21.7101C33.4234 22.2147 33.1963 22.5889 32.7759 22.858C32.5446 23.0052 32.2923 23.1061 32.0401 23.2154C31.1655 23.5896 30.2741 23.9302 29.4416 24.3843C28.9496 24.6534 28.4492 24.9183 28.0919 25.364C27.5957 25.9863 27.499 26.7515 27.3939 27.5084C27.335 27.8111 27.2972 28.1139 27.2972 28.4208C27.2551 28.5217 27.2593 28.6226 27.2677 28.7277C27.2509 28.9506 27.2299 29.1734 27.2215 29.3963C27.1794 30.5988 27.1921 31.8056 27.2425 33.0081C27.2846 33.9962 27.2467 34.9759 27.1458 35.964C27.0112 37.2675 27.0533 38.5793 27.0112 39.887C27.0028 40.114 27.0995 40.236 27.2719 40.2486C27.4527 40.257 27.5579 40.1351 27.5621 39.8954C27.5789 39.1259 27.5999 38.3565 27.6167 37.587C27.6335 36.6746 27.7303 35.7706 27.8059 34.8666C27.8732 34.0299 27.7933 33.1889 27.7723 32.348C27.7429 31.074 27.7471 29.7999 27.8143 28.5259C27.8438 28.4671 27.848 28.4082 27.8354 28.3451C27.8438 28.2526 27.848 28.1601 27.8564 28.0676C27.869 28.013 27.8858 27.9625 27.89 27.9078C27.9363 27.4285 28.0246 26.9576 28.1465 26.4909C28.2684 26.0283 28.5039 25.6541 28.9034 25.3682C29.5761 24.8931 30.3245 24.5651 31.073 24.2287C31.6911 23.9512 32.3386 23.7326 32.9357 23.4088C33.6715 23.0052 34.0121 22.3787 33.9826 21.5461ZM27.8228 28.0508C27.8228 28.0466 27.8228 28.0424 27.8228 28.034H27.827C27.827 28.0424 27.8228 28.0466 27.8228 28.0508Z" fill="#169C86" stroke="#169C86" stroke-width="0.7"/>
<path fill-rule="evenodd" clip-rule="evenodd" d="M22.2477 33.8655C22.2182 33.8613 22.193 33.8655 22.1636 33.8613C20.9947 33.8277 19.8258 33.7772 18.6569 33.7604C17.7655 33.7478 16.9708 33.4913 16.2896 32.9153C16.0542 32.684 15.7556 32.5831 15.4403 32.5495C14.7339 32.4738 14.078 32.6462 13.4641 32.9868C13.1403 33.1676 12.8124 33.3442 12.4592 33.4619C11.9168 33.6469 11.3702 33.7058 10.8656 33.3652C9.99943 32.7765 9.55373 31.6202 9.99943 30.506C10.3316 29.6819 10.9875 29.2782 11.8663 29.3665C12.0849 29.3875 12.2826 29.3581 12.476 29.274C12.6105 29.2152 12.7409 29.1521 12.8712 29.0764C12.9343 29.0428 12.9847 29.0217 13.0352 29.0848C13.1403 29.2152 13.2917 29.2152 13.4347 29.232C13.7038 29.2614 13.9771 29.2908 14.2504 29.3245C14.5699 29.3665 14.5699 29.3665 14.5909 29.6903C14.5909 29.7113 14.5909 29.7323 14.5909 29.7534C14.6078 30.2705 14.982 30.5649 15.4949 30.4724C15.8481 30.4093 16.1467 30.2285 16.4536 30.0645C17.3913 29.5599 18.3878 29.2824 19.4558 29.3287C20.2715 29.3665 21.0872 29.4464 21.9071 29.5011C22.1215 29.5137 22.2393 29.417 22.2477 29.2488C22.2561 29.0806 22.1426 28.9671 21.9365 28.9545C21.495 28.9208 21.0577 28.8746 20.6163 28.8662C20.4102 28.862 20.3387 28.7863 20.3135 28.5929C20.0738 26.8479 19.4936 25.2249 18.4677 23.7827C18.1607 23.3496 17.8412 22.9249 17.4165 22.597C17.2946 22.4204 17.1306 22.2942 16.9498 22.1807C16.7564 22.0378 16.5671 21.8864 16.3653 21.756C15.4571 21.1842 14.469 20.8815 13.3884 20.8815C11.942 20.8815 10.4914 20.8899 9.04496 20.8815C8.2671 20.8773 7.51446 20.9824 6.78705 21.2515C6.4759 21.3734 6.18578 21.5374 5.89986 21.7056C5.86202 21.7224 5.81997 21.7434 5.78213 21.7602C5.65178 21.8528 5.52144 21.9411 5.39109 22.0336C5.2187 22.1387 5.09676 22.3026 4.93699 22.4246C4.90755 22.454 4.88232 22.4835 4.85289 22.5129C4.62584 22.7063 4.36515 22.8619 4.21798 23.1394C4.17173 23.1898 4.12128 23.2403 4.07502 23.295C3.26352 24.2999 2.68327 25.4351 2.29224 26.6629C1.82131 28.143 1.66574 29.6693 1.75404 31.2166C1.77506 31.6118 1.78768 32.0113 1.9012 32.3981C1.91802 32.7807 2.01893 33.1465 2.11144 33.5165C2.41838 34.7107 2.88089 35.8333 3.57467 36.8593C4.07502 37.5993 4.65948 38.2636 5.39109 38.785C5.54246 38.9238 5.71065 39.0331 5.89565 39.1214C5.9377 39.1718 5.99236 39.2013 6.05964 39.2139C6.62727 39.5629 7.24536 39.7899 7.90129 39.8698C8.99451 40.0002 10.0961 39.9203 11.1936 39.9245C11.2692 39.9287 11.3491 39.9329 11.4248 39.9329C14.4858 39.9329 17.5468 39.9329 20.6078 39.9329C21.0199 39.9329 21.4362 39.9329 21.8482 39.9329C22.0416 39.9329 22.1594 39.8446 22.1636 39.647C22.1678 39.2139 22.1678 38.7766 22.1636 38.3435C22.1636 38.209 22.1173 38.0954 21.9618 38.066C21.7978 38.0029 21.6296 38.0366 21.4656 38.0366C18.8166 38.0366 16.1719 38.0324 13.5229 38.0366C13.0016 38.0366 12.5054 37.9399 12.0345 37.7254C10.5881 37.0737 9.73874 35.8796 9.10803 34.4878C9.02814 34.3154 9.13326 34.3238 9.24679 34.3238C10.3022 34.3238 11.3617 34.3238 12.4171 34.3238C12.682 34.3238 12.9469 34.3196 13.216 34.3154C13.3085 34.3196 13.3968 34.3238 13.4893 34.3238C15.865 34.3407 18.2406 34.2818 20.6121 34.3743C21.1418 34.3953 21.6758 34.4163 22.2056 34.4332C22.4117 34.4416 22.5378 34.3407 22.5462 34.1767C22.563 33.9959 22.4495 33.8824 22.2477 33.8655ZM8.64972 39.3064C7.96436 39.3106 7.32104 39.1424 6.69875 38.8607C6.49692 38.7682 6.2951 38.6673 6.09327 38.579C6.08907 38.579 6.08066 38.579 6.07645 38.579C6.06384 38.4823 5.97554 38.4486 5.90827 38.4024C4.83607 37.6455 4.05821 36.6448 3.48217 35.4801C3.03226 34.5761 2.72532 33.6175 2.5235 32.6252C2.49827 32.499 2.49827 32.3603 2.42679 32.2425C2.43099 32.2299 2.4394 32.2173 2.44361 32.2047C2.46884 32.1164 2.45622 32.0239 2.44361 31.9356C2.38895 31.5908 2.36372 31.2418 2.34269 30.8928C2.30485 30.2159 2.3469 29.5347 2.43099 28.862C2.60339 27.5459 2.9734 26.2887 3.58308 25.1072C3.93206 24.4302 4.38617 23.829 4.88653 23.2613C4.91176 23.2151 4.9454 23.173 4.97483 23.1352C5.02528 23.0931 5.07154 23.0469 5.11358 22.9964C5.14302 22.9712 5.17245 22.9502 5.20188 22.9249C5.2187 22.9081 5.22711 22.8913 5.23552 22.8703C5.31961 22.8829 5.35325 22.8282 5.35325 22.7483C5.36166 22.7441 5.37007 22.7399 5.37848 22.7357C5.37848 22.7357 5.37848 22.7357 5.37848 22.7315C5.52564 22.7189 5.76951 22.5297 5.8452 22.3699C5.91247 22.391 5.9335 22.3531 5.9335 22.2942C5.94611 22.3027 5.96293 22.3027 5.97975 22.2942C6.23203 22.1849 6.49272 22.0798 6.68193 21.8654C6.69454 21.8738 6.70716 21.878 6.72398 21.878C6.76602 21.8654 6.79966 21.8485 6.82489 21.8275C6.95523 21.7813 7.07297 21.7014 7.20331 21.6677C7.22013 21.6804 7.24115 21.6846 7.27059 21.6888C7.59014 21.6383 7.89708 21.5164 8.21664 21.508C9.01973 21.4869 9.82283 21.5038 10.6259 21.4659C10.6932 21.4617 10.7647 21.4701 10.8277 21.5038C10.8235 21.5206 10.8109 21.529 10.7983 21.5374C9.30565 22.3867 8.29232 23.6692 7.5565 25.1871C7.04774 26.234 6.73239 27.3441 6.5642 28.4962C6.50533 28.8956 6.41703 29.295 6.48431 29.7071C6.49692 29.7281 6.50533 29.7449 6.51374 29.766C6.51374 29.7786 6.51374 29.7954 6.51374 29.808C6.51374 29.8122 6.51374 29.8164 6.51374 29.8248C6.50533 29.8206 6.49272 29.8206 6.4801 29.8164C6.43806 29.8501 6.42124 29.8963 6.42124 29.9468C6.40442 30.2663 6.40442 30.5859 6.42124 30.9054C6.42544 30.9559 6.43806 31.0021 6.4801 31.0358C6.49692 31.04 6.50533 31.04 6.51795 31.0358C6.51795 31.04 6.51795 31.04 6.51795 31.0442C6.51795 31.1073 6.50954 31.1703 6.51374 31.2334C6.59363 32.5453 6.86693 33.8151 7.36729 35.0344C7.50605 35.375 7.64901 35.7156 7.85083 36.0267C7.84663 36.0394 7.83822 36.052 7.83401 36.0688C7.83401 36.1739 7.89288 36.2538 7.94333 36.3379C8.4479 37.2041 9.06599 37.9777 9.84385 38.6126C10.1718 38.8817 10.5124 39.1298 10.8824 39.3022C10.1592 39.3022 9.40656 39.3022 8.64972 39.3064ZM9.41497 36.2748C10.5208 37.8306 11.9882 38.6925 13.9476 38.6715C16.3695 38.6421 18.7956 38.6631 21.2175 38.6631C21.31 38.6631 21.3983 38.6715 21.4908 38.6547C21.5329 38.6463 21.5917 38.6505 21.6128 38.6084C21.6128 38.6084 21.6128 38.6084 21.617 38.6126C21.5413 38.7051 21.5707 38.8187 21.5623 38.928C21.5539 39.0499 21.5875 39.1718 21.5245 39.2896C21.5203 39.2938 21.5161 39.298 21.5118 39.3022C21.4362 39.2854 21.3563 39.2938 21.2764 39.2938C18.6106 39.2938 15.9406 39.2938 13.2749 39.2938C13.1824 39.2938 13.0941 39.2938 13.0016 39.3064C12.9553 39.3148 12.9091 39.3316 12.8586 39.34C12.7409 39.3106 12.6189 39.2896 12.4928 39.277C12.4844 39.2686 12.476 39.2559 12.4718 39.2433C12.0765 39.1424 11.7149 38.9448 11.3197 38.8313C11.3071 38.8355 11.2945 38.8397 11.2819 38.8439C11.08 38.7219 10.8782 38.5958 10.6722 38.4739C10.668 38.4571 10.6596 38.4444 10.6512 38.4276C10.6091 38.3603 10.5418 38.3225 10.4788 38.2762C10.197 38.0786 9.94476 37.8474 9.7093 37.5993C9.28042 37.1494 8.89359 36.6617 8.58245 36.1192C8.54881 36.0604 8.52358 35.9805 8.43108 35.9931C8.43108 35.9889 8.43108 35.9847 8.43108 35.9847C8.41005 35.9342 8.39324 35.8796 8.3638 35.8333C7.65742 34.5299 7.26218 33.1339 7.11081 31.6665C7.02671 30.8718 7.04774 30.0729 7.08137 29.2782C7.08137 29.274 7.08137 29.274 7.08137 29.2698C7.21592 29.2614 7.16967 29.1437 7.17808 29.0722C7.33365 27.7015 7.68685 26.3938 8.33017 25.166C8.97769 23.9425 9.81862 22.8997 11.0254 22.1849C11.9882 21.6173 13.0226 21.3986 14.1326 21.55C14.9567 21.6635 15.6884 21.9999 16.3611 22.4792C16.42 22.5213 16.4704 22.5928 16.5545 22.5633C16.5671 22.5718 16.5798 22.5802 16.5966 22.5886C16.605 22.5928 16.6134 22.597 16.626 22.6012C16.6849 22.6643 16.7564 22.7147 16.832 22.7568C16.8278 22.7694 16.8236 22.782 16.8194 22.7988C16.8362 22.8535 16.8741 22.8955 16.9203 22.9291C17.2063 23.1394 17.4165 23.4211 17.6393 23.6902C18.3667 24.5606 18.8797 25.5529 19.2455 26.6209C19.4558 27.2305 19.5987 27.8612 19.7038 28.4962C19.7164 28.5634 19.7417 28.6391 19.6702 28.6896C19.5188 28.8073 19.1909 28.6896 19.1572 28.5004C19.0059 27.6132 18.7536 26.7554 18.371 25.9355C17.9421 25.0105 17.3744 24.1863 16.6134 23.4968C16.5461 23.4337 16.4788 23.3664 16.3737 23.4169C16.3737 23.4211 16.3737 23.4253 16.3737 23.4295C16.3737 23.4253 16.3737 23.4253 16.3737 23.4211C16.3022 23.2865 16.1677 23.2151 16.05 23.131C14.5741 22.063 12.64 22.0251 11.1263 23.0343C9.89851 23.85 9.09962 25.0021 8.5446 26.3392C7.92652 27.8234 7.70367 29.3791 7.76674 30.9811C7.78356 31.3806 7.80878 31.7842 7.89288 32.1795C7.86765 32.2131 7.87185 32.272 7.86344 32.314C7.85924 32.3434 7.86765 32.3056 7.86344 32.335C7.86344 32.3981 7.87185 32.4612 7.88447 32.5242C8.12834 33.8739 8.60767 35.1438 9.41497 36.2748ZM10.2433 33.71C9.88169 33.7142 9.52009 33.71 9.15428 33.71C8.88939 33.71 8.83473 33.6637 8.75904 33.403C8.6329 32.9573 8.51938 32.5116 8.46051 32.0491C8.46051 32.0071 8.43528 31.9692 8.40585 31.9356C8.40165 31.8599 8.39324 31.7842 8.38483 31.7085C8.40165 31.6328 8.39324 31.5488 8.39744 31.4731C8.39324 31.41 8.39744 31.3427 8.35119 31.2881C8.34278 31.2839 8.33437 31.2839 8.32596 31.2797C8.32176 30.7877 8.29653 30.2958 8.32596 29.7996C8.40585 28.4625 8.70018 27.1885 9.29724 25.986C9.78499 25.0021 10.4283 24.1359 11.3575 23.5262C12.5306 22.7568 13.7668 22.6096 15.0661 23.1898C15.4445 23.358 15.7725 23.6061 16.113 23.8416H16.1172C16.113 23.8458 16.1088 23.8542 16.1046 23.8584C16.1256 23.9803 16.2224 24.0434 16.3022 24.1191C16.5545 24.3629 16.79 24.6194 17.0002 24.9011C17.7823 25.9523 18.2154 27.1507 18.4677 28.4205C18.5265 28.7106 18.5139 28.7316 18.228 28.7863C17.3913 28.9376 16.6092 29.232 15.8818 29.6735C15.7556 29.7491 15.6211 29.808 15.4739 29.8374C15.2805 29.8837 15.2301 29.8501 15.209 29.6566C15.1964 29.5515 15.1796 29.4506 15.1628 29.3455C15.1165 28.9797 14.9736 28.8241 14.6162 28.7484C14.3429 28.6896 14.0612 28.6685 13.7836 28.6349C13.5944 28.6139 13.4347 28.5592 13.3043 28.4163C13.1656 28.2691 12.9974 28.2607 12.825 28.3574C12.7451 28.3994 12.6736 28.4583 12.5979 28.5088C12.3709 28.6475 12.1438 28.7737 11.8537 28.7358C11.0968 28.6433 10.4409 28.9166 9.93636 29.4506C9.40657 30.014 9.19633 30.7415 9.22156 31.5067C9.25099 32.3434 9.59998 33.0624 10.2223 33.6343C10.2391 33.6595 10.2727 33.6721 10.2433 33.71ZM13.3842 33.7142C13.4052 33.71 13.4304 33.7058 13.4515 33.6931C13.5272 33.6595 13.6028 33.6175 13.6743 33.5754C14.4017 33.1718 15.146 32.9573 15.9491 33.3652C15.9701 33.3652 15.9869 33.3652 16.0037 33.361C16.1004 33.5418 16.2392 33.6679 16.4578 33.6805C16.462 33.6805 16.4662 33.6805 16.4704 33.6805C16.4284 33.7226 16.3695 33.7016 16.3191 33.7016C15.3394 33.71 14.3597 33.7058 13.3842 33.7142C13.3674 33.7184 13.3464 33.7184 13.3253 33.7142C13.3464 33.7142 13.3632 33.7142 13.3842 33.7142Z" fill="#169C86"/>
<path d="M13.3842 33.7142C13.4052 33.71 13.4304 33.7058 13.4515 33.6931C13.5272 33.6595 13.6028 33.6175 13.6743 33.5754C14.4017 33.1718 15.146 32.9573 15.9491 33.3652C15.9701 33.3652 15.9869 33.3652 16.0037 33.361C16.1004 33.5418 16.2392 33.6679 16.4578 33.6805C16.462 33.6805 16.4662 33.6805 16.4704 33.6805C16.4284 33.7226 16.3695 33.7016 16.3191 33.7016C15.3394 33.71 14.3597 33.7058 13.3842 33.7142ZM13.3842 33.7142C13.3674 33.7184 13.3464 33.7184 13.3253 33.7142C13.3464 33.7142 13.3632 33.7142 13.3842 33.7142ZM22.2477 33.8655C22.2182 33.8613 22.193 33.8655 22.1636 33.8613C20.9947 33.8277 19.8258 33.7772 18.6569 33.7604C17.7655 33.7478 16.9708 33.4913 16.2896 32.9153C16.0542 32.684 15.7556 32.5831 15.4403 32.5495C14.7339 32.4738 14.078 32.6462 13.4641 32.9868C13.1403 33.1676 12.8124 33.3442 12.4592 33.4619C11.9168 33.6469 11.3702 33.7058 10.8656 33.3652C9.99943 32.7765 9.55373 31.6202 9.99943 30.506C10.3316 29.6819 10.9875 29.2782 11.8663 29.3665C12.0849 29.3875 12.2826 29.3581 12.476 29.274C12.6105 29.2152 12.7409 29.1521 12.8712 29.0764C12.9343 29.0428 12.9847 29.0217 13.0352 29.0848C13.1403 29.2152 13.2917 29.2152 13.4347 29.232C13.7038 29.2614 13.9771 29.2908 14.2504 29.3245C14.5699 29.3665 14.5699 29.3665 14.5909 29.6903C14.5909 29.7113 14.5909 29.7323 14.5909 29.7534C14.6078 30.2705 14.982 30.5649 15.4949 30.4724C15.8481 30.4093 16.1467 30.2285 16.4536 30.0645C17.3913 29.5599 18.3878 29.2824 19.4558 29.3287C20.2715 29.3665 21.0872 29.4464 21.9071 29.5011C22.1215 29.5137 22.2393 29.417 22.2477 29.2488C22.2561 29.0806 22.1426 28.9671 21.9365 28.9545C21.495 28.9208 21.0577 28.8746 20.6163 28.8662C20.4102 28.862 20.3387 28.7863 20.3135 28.5929C20.0738 26.8479 19.4936 25.2249 18.4677 23.7827C18.1607 23.3496 17.8412 22.9249 17.4165 22.597C17.2946 22.4204 17.1306 22.2942 16.9498 22.1807C16.7564 22.0378 16.5671 21.8864 16.3653 21.756C15.4571 21.1842 14.469 20.8815 13.3884 20.8815C11.942 20.8815 10.4914 20.8899 9.04496 20.8815C8.2671 20.8773 7.51446 20.9824 6.78705 21.2515C6.4759 21.3734 6.18578 21.5374 5.89986 21.7056C5.86202 21.7224 5.81997 21.7434 5.78213 21.7602C5.65178 21.8528 5.52144 21.9411 5.39109 22.0336C5.2187 22.1387 5.09676 22.3026 4.93698 22.4246C4.90755 22.454 4.88232 22.4835 4.85289 22.5129C4.62584 22.7063 4.36515 22.8619 4.21798 23.1394C4.17173 23.1898 4.12128 23.2403 4.07502 23.295C3.26352 24.2999 2.68327 25.4351 2.29224 26.6629C1.82131 28.143 1.66574 29.6693 1.75404 31.2166C1.77506 31.6118 1.78768 32.0113 1.9012 32.3981C1.91802 32.7807 2.01893 33.1465 2.11144 33.5165C2.41838 34.7107 2.88089 35.8333 3.57467 36.8593C4.07502 37.5993 4.65948 38.2636 5.39109 38.785C5.54246 38.9238 5.71065 39.0331 5.89565 39.1214C5.9377 39.1718 5.99236 39.2013 6.05964 39.2139C6.62727 39.5629 7.24536 39.7899 7.90129 39.8698C8.99451 40.0002 10.0961 39.9203 11.1936 39.9245C11.2692 39.9287 11.3491 39.9329 11.4248 39.9329C14.4858 39.9329 17.5468 39.9329 20.6078 39.9329C21.0199 39.9329 21.4362 39.9329 21.8482 39.9329C22.0416 39.9329 22.1594 39.8446 22.1636 39.647C22.1678 39.2139 22.1678 38.7766 22.1636 38.3435C22.1636 38.209 22.1173 38.0954 21.9618 38.066C21.7978 38.0029 21.6296 38.0366 21.4656 38.0366C18.8166 38.0366 16.1719 38.0324 13.5229 38.0366C13.0016 38.0366 12.5054 37.9399 12.0345 37.7254C10.5881 37.0737 9.73874 35.8796 9.10803 34.4878C9.02814 34.3154 9.13326 34.3238 9.24679 34.3238C10.3022 34.3238 11.3617 34.3238 12.4171 34.3238C12.682 34.3238 12.9469 34.3196 13.216 34.3154C13.3085 34.3196 13.3968 34.3238 13.4893 34.3238C15.865 34.3407 18.2406 34.2818 20.6121 34.3743C21.1418 34.3953 21.6758 34.4163 22.2056 34.4332C22.4117 34.4416 22.5378 34.3407 22.5462 34.1767C22.563 33.9959 22.4495 33.8824 22.2477 33.8655ZM8.64972 39.3064C7.96436 39.3106 7.32104 39.1424 6.69875 38.8607C6.49692 38.7682 6.2951 38.6673 6.09327 38.579C6.08907 38.579 6.08066 38.579 6.07645 38.579C6.06384 38.4823 5.97554 38.4486 5.90827 38.4024C4.83607 37.6455 4.05821 36.6448 3.48217 35.4801C3.03226 34.5761 2.72532 33.6175 2.5235 32.6252C2.49827 32.499 2.49827 32.3603 2.42679 32.2425C2.43099 32.2299 2.4394 32.2173 2.44361 32.2047C2.46884 32.1164 2.45622 32.0239 2.44361 31.9356C2.38895 31.5908 2.36372 31.2418 2.34269 30.8928C2.30485 30.2159 2.3469 29.5347 2.43099 28.862C2.60339 27.5459 2.9734 26.2887 3.58308 25.1072C3.93206 24.4302 4.38617 23.829 4.88653 23.2613C4.91176 23.2151 4.9454 23.173 4.97483 23.1352C5.02528 23.0931 5.07154 23.0469 5.11358 22.9964C5.14302 22.9712 5.17245 22.9502 5.20188 22.9249C5.2187 22.9081 5.22711 22.8913 5.23552 22.8703C5.31961 22.8829 5.35325 22.8282 5.35325 22.7483C5.36166 22.7441 5.37007 22.7399 5.37848 22.7357C5.37848 22.7357 5.37848 22.7357 5.37848 22.7315C5.52564 22.7189 5.76951 22.5297 5.8452 22.3699C5.91247 22.391 5.9335 22.3531 5.9335 22.2942C5.94611 22.3027 5.96293 22.3027 5.97975 22.2942C6.23203 22.1849 6.49272 22.0798 6.68193 21.8654C6.69454 21.8738 6.70716 21.878 6.72398 21.878C6.76602 21.8654 6.79966 21.8485 6.82489 21.8275C6.95523 21.7813 7.07297 21.7014 7.20331 21.6677C7.22013 21.6804 7.24115 21.6846 7.27059 21.6888C7.59014 21.6383 7.89708 21.5164 8.21664 21.508C9.01973 21.4869 9.82283 21.5038 10.6259 21.4659C10.6932 21.4617 10.7647 21.4701 10.8277 21.5038C10.8235 21.5206 10.8109 21.529 10.7983 21.5374C9.30565 22.3867 8.29232 23.6692 7.5565 25.1871C7.04774 26.234 6.73239 27.3441 6.5642 28.4962C6.50533 28.8956 6.41703 29.295 6.48431 29.7071C6.49692 29.7281 6.50533 29.7449 6.51374 29.766C6.51374 29.7786 6.51374 29.7954 6.51374 29.808C6.51374 29.8122 6.51374 29.8164 6.51374 29.8248C6.50533 29.8206 6.49272 29.8206 6.4801 29.8164C6.43806 29.8501 6.42124 29.8963 6.42124 29.9468C6.40442 30.2663 6.40442 30.5859 6.42124 30.9054C6.42544 30.9559 6.43806 31.0021 6.4801 31.0358C6.49692 31.04 6.50533 31.04 6.51795 31.0358C6.51795 31.04 6.51795 31.04 6.51795 31.0442C6.51795 31.1073 6.50954 31.1703 6.51374 31.2334C6.59363 32.5453 6.86693 33.8151 7.36729 35.0344C7.50605 35.375 7.64901 35.7156 7.85083 36.0267C7.84663 36.0394 7.83822 36.052 7.83401 36.0688C7.83401 36.1739 7.89288 36.2538 7.94333 36.3379C8.4479 37.2041 9.06599 37.9777 9.84385 38.6126C10.1718 38.8817 10.5124 39.1298 10.8824 39.3022C10.1592 39.3022 9.40656 39.3022 8.64972 39.3064ZM9.41497 36.2748C10.5208 37.8306 11.9882 38.6925 13.9476 38.6715C16.3695 38.6421 18.7956 38.6631 21.2175 38.6631C21.31 38.6631 21.3983 38.6715 21.4908 38.6547C21.5329 38.6463 21.5917 38.6505 21.6128 38.6084C21.6128 38.6084 21.6128 38.6084 21.617 38.6126C21.5413 38.7051 21.5707 38.8187 21.5623 38.928C21.5539 39.0499 21.5875 39.1718 21.5245 39.2896C21.5203 39.2938 21.5161 39.298 21.5118 39.3022C21.4362 39.2854 21.3563 39.2938 21.2764 39.2938C18.6106 39.2938 15.9406 39.2938 13.2749 39.2938C13.1824 39.2938 13.0941 39.2938 13.0016 39.3064C12.9553 39.3148 12.9091 39.3316 12.8586 39.34C12.7409 39.3106 12.6189 39.2896 12.4928 39.277C12.4844 39.2686 12.476 39.2559 12.4718 39.2433C12.0765 39.1424 11.7149 38.9448 11.3197 38.8313C11.3071 38.8355 11.2945 38.8397 11.2819 38.8439C11.08 38.7219 10.8782 38.5958 10.6722 38.4739C10.668 38.4571 10.6596 38.4444 10.6512 38.4276C10.6091 38.3603 10.5418 38.3225 10.4788 38.2762C10.197 38.0786 9.94476 37.8474 9.7093 37.5993C9.28042 37.1494 8.89359 36.6617 8.58245 36.1192C8.54881 36.0604 8.52358 35.9805 8.43108 35.9931C8.43108 35.9889 8.43108 35.9847 8.43108 35.9847C8.41005 35.9342 8.39324 35.8796 8.3638 35.8333C7.65742 34.5299 7.26218 33.1339 7.11081 31.6665C7.02671 30.8718 7.04774 30.0729 7.08137 29.2782C7.08137 29.274 7.08137 29.274 7.08137 29.2698C7.21592 29.2614 7.16967 29.1437 7.17808 29.0722C7.33365 27.7015 7.68685 26.3938 8.33017 25.166C8.97769 23.9425 9.81862 22.8997 11.0254 22.1849C11.9882 21.6173 13.0226 21.3986 14.1326 21.55C14.9567 21.6635 15.6884 21.9999 16.3611 22.4792C16.42 22.5213 16.4704 22.5928 16.5545 22.5633C16.5671 22.5718 16.5798 22.5802 16.5966 22.5886C16.605 22.5928 16.6134 22.597 16.626 22.6012C16.6849 22.6643 16.7564 22.7147 16.832 22.7568C16.8278 22.7694 16.8236 22.782 16.8194 22.7988C16.8362 22.8535 16.8741 22.8955 16.9203 22.9291C17.2063 23.1394 17.4165 23.4211 17.6393 23.6902C18.3667 24.5606 18.8797 25.5529 19.2455 26.6209C19.4558 27.2305 19.5987 27.8612 19.7038 28.4962C19.7164 28.5634 19.7417 28.6391 19.6702 28.6896C19.5188 28.8073 19.1909 28.6896 19.1572 28.5004C19.0059 27.6132 18.7536 26.7554 18.371 25.9355C17.9421 25.0105 17.3744 24.1863 16.6134 23.4968C16.5461 23.4337 16.4788 23.3664 16.3737 23.4169C16.3737 23.4211 16.3737 23.4253 16.3737 23.4295C16.3737 23.4253 16.3737 23.4253 16.3737 23.4211C16.3022 23.2865 16.1677 23.2151 16.05 23.131C14.5741 22.063 12.64 22.0251 11.1263 23.0343C9.89851 23.85 9.09962 25.0021 8.5446 26.3392C7.92652 27.8234 7.70367 29.3791 7.76674 30.9811C7.78356 31.3806 7.80878 31.7842 7.89288 32.1795C7.86765 32.2131 7.87185 32.272 7.86344 32.314C7.85924 32.3434 7.86765 32.3056 7.86344 32.335C7.86344 32.3981 7.87185 32.4612 7.88447 32.5242C8.12834 33.8739 8.60767 35.1438 9.41497 36.2748ZM10.2433 33.71C9.88169 33.7142 9.52009 33.71 9.15428 33.71C8.88939 33.71 8.83473 33.6637 8.75904 33.403C8.6329 32.9573 8.51938 32.5116 8.46051 32.0491C8.46051 32.0071 8.43528 31.9692 8.40585 31.9356C8.40165 31.8599 8.39324 31.7842 8.38483 31.7085C8.40165 31.6328 8.39324 31.5488 8.39744 31.4731C8.39324 31.41 8.39744 31.3427 8.35119 31.2881C8.34278 31.2839 8.33437 31.2839 8.32596 31.2797C8.32176 30.7877 8.29653 30.2958 8.32596 29.7996C8.40585 28.4625 8.70018 27.1885 9.29724 25.986C9.78499 25.0021 10.4283 24.1359 11.3575 23.5262C12.5306 22.7568 13.7668 22.6096 15.0661 23.1898C15.4445 23.358 15.7725 23.6061 16.113 23.8416H16.1172C16.113 23.8458 16.1088 23.8542 16.1046 23.8584C16.1256 23.9803 16.2224 24.0434 16.3022 24.1191C16.5545 24.3629 16.79 24.6194 17.0002 24.9011C17.7823 25.9523 18.2154 27.1507 18.4677 28.4205C18.5265 28.7106 18.5139 28.7316 18.228 28.7863C17.3913 28.9376 16.6092 29.232 15.8818 29.6735C15.7556 29.7491 15.6211 29.808 15.4739 29.8374C15.2805 29.8837 15.2301 29.8501 15.209 29.6566C15.1964 29.5515 15.1796 29.4506 15.1628 29.3455C15.1165 28.9797 14.9736 28.8241 14.6162 28.7484C14.3429 28.6896 14.0612 28.6685 13.7836 28.6349C13.5944 28.6139 13.4347 28.5592 13.3043 28.4163C13.1656 28.2691 12.9974 28.2607 12.825 28.3574C12.7451 28.3994 12.6736 28.4583 12.5979 28.5088C12.3709 28.6475 12.1438 28.7737 11.8537 28.7358C11.0968 28.6433 10.4409 28.9166 9.93636 29.4506C9.40657 30.014 9.19633 30.7415 9.22156 31.5067C9.25099 32.3434 9.59998 33.0624 10.2223 33.6343C10.2391 33.6595 10.2727 33.6721 10.2433 33.71Z" stroke="#169C86" stroke-width="0.7"/>
<path fill-rule="evenodd" clip-rule="evenodd" d="M22.3485 30.6029C22.3653 30.4431 22.2602 30.317 22.0542 30.2875C21.1544 30.1614 20.2546 30.0226 19.3421 30.0395C19.1403 30.0395 18.9343 30.0353 18.7325 30.0395C18.5222 30.0479 18.4129 30.1488 18.4171 30.3254C18.4213 30.502 18.5306 30.5903 18.7451 30.5861C19.4052 30.5651 20.0611 30.5819 20.7171 30.6618C21.1417 30.7164 21.5622 30.7795 21.9869 30.8257C22.2013 30.8552 22.3275 30.7627 22.3485 30.6029Z" fill="#169C86" stroke="#169C86" stroke-width="0.7"/>
<path fill-rule="evenodd" clip-rule="evenodd" d="M21.8228 32.7306C21.5453 32.7474 21.2678 32.7811 20.9861 32.7895C20.2629 32.8147 19.5481 32.7264 18.8333 32.6633C18.6315 32.6465 18.5179 32.7264 18.5011 32.8904C18.4843 33.0838 18.5684 33.1889 18.7702 33.2099C19.4009 33.2688 20.0358 33.3445 20.6707 33.3529C21.0618 33.3319 21.4528 33.3151 21.8438 33.2856C21.9994 33.273 22.134 33.2099 22.155 33.0291C22.1844 32.8483 22.0415 32.718 21.8228 32.7306Z" fill="#169C86" stroke="#169C86" stroke-width="0.7"/>
<path fill-rule="evenodd" clip-rule="evenodd" d="M9.39395 5.30322C9.48225 5.31163 9.53691 5.25697 9.59998 5.21072C10.2643 4.68513 10.9665 4.2142 11.6729 3.75169C11.8663 3.62555 11.921 3.4952 11.8285 3.34383C11.7276 3.17985 11.5762 3.16303 11.3744 3.28917C11.0758 3.48259 10.7731 3.6718 10.4788 3.87362C10.0667 4.16375 9.66305 4.46228 9.2594 4.76081C9.14167 4.84491 9.06599 4.95843 9.12065 5.10139C9.16269 5.22753 9.26781 5.2906 9.39395 5.30322Z" fill="#169C86" stroke="#169C86" stroke-width="0.7"/>
<path fill-rule="evenodd" clip-rule="evenodd" d="M2.62477 13.6662C2.77193 13.7419 2.88126 13.683 2.96955 13.5653C2.99899 13.5275 3.02001 13.4812 3.04103 13.4392C3.40684 12.7076 3.77685 11.9801 4.20994 11.2864C4.25198 11.2149 4.29823 11.1434 4.29823 11.0383C4.29403 10.9416 4.25198 10.8533 4.14687 10.8028C3.9997 10.7271 3.85254 10.7944 3.73901 10.9878C3.39002 11.5681 3.06206 12.1609 2.75511 12.758C2.65841 12.943 2.57011 13.1322 2.49863 13.3298C2.44817 13.4644 2.48181 13.5947 2.62477 13.6662Z" fill="#169C86" stroke="#169C86" stroke-width="0.7"/>
<path fill-rule="evenodd" clip-rule="evenodd" d="M36.0092 42.3004C35.8831 42.2247 35.7654 42.2668 35.656 42.3382C34.9454 42.7881 34.2096 43.1918 33.4528 43.5576C33.2552 43.6543 33.1921 43.7804 33.2594 43.936C33.3266 44.1042 33.478 44.1589 33.6798 44.0622C34.4787 43.6837 35.2482 43.2549 35.9924 42.7839C36.0807 42.7293 36.1438 42.662 36.1354 42.5443C36.148 42.4391 36.1017 42.355 36.0092 42.3004Z" fill="#169C86" stroke="#169C86" stroke-width="0.7"/>
<path fill-rule="evenodd" clip-rule="evenodd" d="M15.1671 44.1671C15.1544 44.1629 15.1418 44.1587 15.1292 44.1503C14.3682 43.8433 13.6281 43.4985 12.9049 43.1033C12.8419 43.0697 12.7788 43.0444 12.7073 43.0444C12.577 43.0528 12.4761 43.1033 12.4466 43.2421C12.413 43.3808 12.455 43.4859 12.5854 43.5574C12.9932 43.7887 13.4179 43.9947 13.8426 44.1881C14.2126 44.3563 14.5826 44.5161 14.9568 44.6758C15.1713 44.7684 15.3352 44.7221 15.4025 44.5539C15.4698 44.3983 15.3941 44.268 15.1671 44.1671Z" fill="#169C86" stroke="#169C86" stroke-width="0.7"/>
<path fill-rule="evenodd" clip-rule="evenodd" d="M34.4624 3.10827C35.2277 3.54556 35.9803 4.00387 36.7035 4.51263C36.796 4.57991 36.9053 4.57571 37.0021 4.52105C37.0819 4.47479 37.145 4.40331 37.1324 4.2982C37.1366 4.18046 37.0735 4.10058 36.981 4.03751C36.2578 3.51613 35.501 3.05361 34.7189 2.62894C34.5633 2.54484 34.4288 2.57848 34.3321 2.72144C34.248 2.85178 34.2984 3.01577 34.4624 3.10827Z" fill="#169C86" stroke="#169C86" stroke-width="0.7"/>
<path fill-rule="evenodd" clip-rule="evenodd" d="M5.5884 9.0957C5.70193 9.10832 5.7692 9.03684 5.83228 8.96115C6.36207 8.29261 6.9297 7.6619 7.53097 7.05643C7.66131 6.92608 7.66972 6.73688 7.5604 6.62335C7.45949 6.51823 7.27869 6.52244 7.14834 6.65278C6.50923 7.27928 5.92478 7.95203 5.36556 8.65001C5.28567 8.74671 5.29408 8.86024 5.34874 8.96536C5.39078 9.05786 5.47488 9.10832 5.5884 9.0957Z" fill="#169C86" stroke="#169C86" stroke-width="0.7"/>
<path fill-rule="evenodd" clip-rule="evenodd" d="M38.8052 6.19458C39.4485 6.77062 40.0456 7.38451 40.6258 8.01942C40.773 8.1834 40.9202 8.20022 41.0463 8.0951C41.1766 7.98578 41.1724 7.81759 41.0295 7.65361C40.4576 6.98927 39.8311 6.37959 39.1878 5.78673C39.1248 5.73207 39.0533 5.71525 38.9734 5.70264C38.8557 5.70684 38.7632 5.7573 38.7169 5.87503C38.6707 6.00117 38.7085 6.10628 38.8052 6.19458Z" fill="#169C86" stroke="#169C86" stroke-width="0.7"/>
<path fill-rule="evenodd" clip-rule="evenodd" d="M45.9623 17.598C46.1305 17.5559 46.1978 17.4214 46.1558 17.2574C45.9371 16.387 45.6554 15.5377 45.3358 14.7009C45.2896 14.579 45.2055 14.5033 45.1088 14.4991C44.8691 14.4949 44.7388 14.6715 44.8145 14.8775C45.1172 15.7058 45.3989 16.5426 45.6218 17.3919C45.668 17.5559 45.7942 17.64 45.9623 17.598Z" fill="#169C86" stroke="#169C86" stroke-width="0.7"/>
<path fill-rule="evenodd" clip-rule="evenodd" d="M2.03101 15.9791C2.03942 15.7941 1.95112 15.6848 1.79975 15.6638C1.61054 15.6385 1.51383 15.7689 1.45917 15.9413C1.21109 16.7276 1.01347 17.5265 0.824262 18.3295C0.820058 18.3506 0.815853 18.3716 0.811649 18.3926C0.773806 18.6239 0.845286 18.771 1.01347 18.8089C1.19848 18.8509 1.3078 18.7668 1.35826 18.5145C1.49281 17.8796 1.64838 17.2489 1.82918 16.6267C1.89225 16.4038 1.96794 16.1852 2.03101 15.9791Z" fill="#169C86" stroke="#169C86" stroke-width="0.7"/>
<path fill-rule="evenodd" clip-rule="evenodd" d="M30.8543 44.6214C30.459 44.7433 30.068 44.8737 29.6727 44.983C29.2481 45.0965 28.8192 45.189 28.3903 45.2984C28.2305 45.3362 28.1212 45.4245 28.1422 45.6095C28.1633 45.7735 28.2642 45.8492 28.4408 45.8534C28.466 45.8492 28.4996 45.845 28.5333 45.8408C29.3784 45.66 30.2151 45.4287 31.0351 45.1512C31.2453 45.0797 31.3336 44.9368 31.2747 44.777C31.2159 44.6088 31.0603 44.5583 30.8543 44.6214Z" fill="#169C86" stroke="#169C86" stroke-width="0.7"/>
<path fill-rule="evenodd" clip-rule="evenodd" d="M46.8915 22.3449C46.8495 21.5502 46.7948 20.7765 46.6897 20.0113C46.6603 19.7926 46.5384 19.6833 46.3702 19.7127C46.1978 19.7422 46.1221 19.8809 46.1473 20.0996C46.1767 20.3266 46.202 20.5579 46.2272 20.7849C46.2903 21.403 46.3281 22.0253 46.3449 22.6476C46.3491 22.8368 46.4669 22.9545 46.6224 22.9503C46.778 22.9461 46.8915 22.82 46.8958 22.6434C46.8958 22.5341 46.8915 22.429 46.8915 22.3449Z" fill="#169C86" stroke="#169C86" stroke-width="0.7"/>
<path fill-rule="evenodd" clip-rule="evenodd" d="M20.3719 45.5758C19.5099 45.437 18.6522 45.273 17.8028 45.0502C17.643 45.0081 17.5043 45.0544 17.4538 45.2268C17.4034 45.3992 17.4875 45.5295 17.6809 45.5842C17.828 45.6262 17.9794 45.6641 18.1266 45.6977C18.8498 45.8659 19.573 46.0215 20.3214 46.114C20.477 46.114 20.6031 46.0593 20.6199 45.8743C20.6368 45.7019 20.5485 45.601 20.3719 45.5758Z" fill="#169C86" stroke="#169C86" stroke-width="0.7"/>
<path fill-rule="evenodd" clip-rule="evenodd" d="M46.5378 25.0987C46.3528 25.0819 46.2477 25.1997 46.2225 25.4519C46.1384 26.2803 45.9954 27.1002 45.8272 27.9159C45.7852 28.1219 45.8567 28.2607 46.0207 28.2943C46.1888 28.3279 46.3234 28.2354 46.3654 28.0378C46.5462 27.1969 46.6808 26.3475 46.7691 25.5444C46.7817 25.2333 46.7144 25.1198 46.5378 25.0987Z" fill="#169C86" stroke="#169C86" stroke-width="0.7"/>
<path fill-rule="evenodd" clip-rule="evenodd" d="M25.6614 45.7147C25.1779 45.7441 24.6985 45.7735 24.2781 45.7988C23.8366 45.7988 23.4582 45.7946 23.0839 45.7988C22.8527 45.803 22.7265 45.9627 22.7896 46.152C22.8401 46.2991 22.9494 46.3454 23.1008 46.3454C23.9711 46.3622 24.8373 46.337 25.7035 46.2571C25.9179 46.2403 26.0314 46.1267 26.0146 45.9459C25.9936 45.7819 25.8843 45.7021 25.6614 45.7147Z" fill="#169C86" stroke="#169C86" stroke-width="0.7"/>
<path fill-rule="evenodd" clip-rule="evenodd" d="M43.1746 11.5218C43.3512 11.8245 43.5193 12.1273 43.6917 12.4342C43.7632 12.5561 43.8683 12.6192 44.0071 12.5814C44.1332 12.5477 44.2047 12.4594 44.2089 12.2913C44.2131 12.2576 44.1921 12.203 44.1627 12.1441C43.7464 11.3662 43.2923 10.6178 42.7877 9.89038C42.7415 9.82731 42.691 9.76845 42.6069 9.76004C42.5018 9.75163 42.3925 9.74322 42.3252 9.84413C42.2411 9.97027 42.2579 10.0922 42.3378 10.2141C42.6322 10.643 42.9139 11.0719 43.1746 11.5218Z" fill="#169C86" stroke="#169C86" stroke-width="0.7"/>
<path fill-rule="evenodd" clip-rule="evenodd" d="M40.8495 28.4709C40.7486 28.248 40.6351 28.0294 40.53 27.8107C40.4164 27.5795 40.3071 27.5332 40.0548 27.6089C39.7857 27.6888 39.5377 27.8191 39.3064 27.9789C39.2391 28.0252 39.1761 28.0798 39.0794 28.0336C38.743 27.8738 38.3814 27.9074 38.0282 27.9495C37.7086 27.9873 37.3891 28.0168 37.0653 28.0126C36.956 28.0126 36.9013 27.9705 36.8635 27.8738C36.7794 27.6425 36.7121 27.4071 36.6869 27.1632C36.6659 26.9656 36.5608 26.8773 36.3631 26.8941C36.0856 26.9193 35.8081 26.9488 35.5306 26.9866C35.2951 27.0202 35.2237 27.1128 35.211 27.3482C35.1984 27.6762 35.2489 27.9915 35.3666 28.2943C35.3961 28.3742 35.4255 28.4414 35.3708 28.5297C35.1816 28.8367 35.1312 29.1815 35.127 29.5851C35.1396 30.056 35.2279 30.5648 35.4339 31.0483C35.6946 31.658 36.0604 32.2046 36.464 32.726C36.8214 33.1885 37.2125 33.6174 37.7086 33.9327C38.2889 34.3028 38.9196 34.2103 39.3653 33.6889C39.7395 33.2516 39.9077 32.7302 39.9539 32.171C40.0128 31.4898 39.9329 30.8129 39.8404 30.1401C39.7857 29.7365 39.8404 29.3917 40.2483 29.1857C40.3912 29.1142 40.5216 29.0217 40.6687 28.9544C40.9252 28.8409 40.9673 28.7273 40.8495 28.4709ZM35.7661 27.5879C35.7829 27.5122 35.8291 27.508 35.888 27.5038C35.9679 27.4996 36.0562 27.5164 36.1277 27.4575C36.1487 27.4281 36.1697 27.4029 36.1907 27.3734C36.2118 27.344 36.2202 27.302 36.1865 27.2809C36.1445 27.2473 36.1109 27.2683 36.0898 27.3188C36.052 27.4239 35.9469 27.4071 35.8964 27.3734C35.8249 27.3272 35.867 27.2347 35.9048 27.1716C35.9637 27.0749 36.0562 27.0329 36.1739 27.0497C36.2917 27.0665 36.3926 27.1127 36.4262 27.2347C36.4935 27.4744 36.4767 27.7224 36.4472 27.9621C36.4262 28.1345 36.2706 28.0252 36.1739 28.0168C35.8922 28.0798 35.703 27.8864 35.7661 27.5879ZM39.4283 31.6622C39.4241 32.1962 39.3527 32.705 39.0667 33.1675C38.764 33.651 38.3519 33.7393 37.902 33.3945C37.1788 32.8395 36.6617 32.1121 36.1991 31.3385C35.8964 30.8339 35.724 30.2831 35.682 29.6944C35.6694 29.4758 35.6862 29.2613 35.745 29.0511C35.8502 28.6769 36.1108 28.4793 36.4935 28.5255C37.0695 28.5928 37.6372 28.5634 38.209 28.4835C38.373 28.4583 38.5454 28.4498 38.7093 28.4877C39.0878 28.576 39.3358 28.9166 39.3274 29.3749C39.1719 30.1149 39.4368 30.8844 39.4283 31.6622ZM40.2314 28.5423C40.1053 28.6264 39.9792 28.7105 39.8404 28.7988C39.7353 28.74 39.7353 28.6138 39.6638 28.5381C39.6134 28.4835 39.626 28.4372 39.6848 28.3994C39.7437 28.3615 39.7984 28.3237 39.8614 28.2901C40.0675 28.1807 40.2104 28.2564 40.2398 28.4877C40.2441 28.5045 40.2441 28.5339 40.2314 28.5423Z" fill="#169C86" stroke="#169C86" stroke-width="0.7"/>
<path fill-rule="evenodd" clip-rule="evenodd" d="M15.5079 8.87743C15.9914 8.86902 16.4749 8.87743 16.9585 8.87323C17.3159 8.86902 17.299 8.94891 17.3075 8.52424C17.3117 8.34764 17.2444 8.314 17.0846 8.31821C16.8281 8.33082 16.5674 8.32241 16.3067 8.32241C16.0755 8.32241 15.8442 8.32241 15.613 8.32241C15.2892 8.32241 15.2976 8.32241 15.285 8.64617C15.2766 8.82277 15.3313 8.88164 15.5079 8.87743Z" fill="#169C86" stroke="#169C86" stroke-width="0.7"/>
<path fill-rule="evenodd" clip-rule="evenodd" d="M15.4654 7.91019C15.7387 7.90178 16.012 7.90598 16.2811 7.90598C16.2811 7.90598 16.2811 7.90598 16.2811 7.91019C16.504 7.91019 16.7268 7.91439 16.9497 7.91019C17.3365 7.90598 17.2945 7.97326 17.2945 7.54438C17.2945 7.53177 17.2945 7.51495 17.2945 7.50234C17.3029 7.38881 17.244 7.35938 17.1431 7.35938C16.5755 7.36358 16.012 7.36358 15.4444 7.35938C15.3098 7.35938 15.272 7.41824 15.2804 7.53597C15.2846 7.59904 15.2888 7.66211 15.2804 7.72518C15.272 7.86814 15.3309 7.91439 15.4654 7.91019Z" fill="#169C86" stroke="#169C86" stroke-width="0.7"/>
<path fill-rule="evenodd" clip-rule="evenodd" d="M31.7463 11.9468C31.4688 11.9511 31.1871 11.9468 30.9095 11.9468C30.6236 11.9468 30.3377 11.9511 30.0518 11.9426C29.9257 11.9384 29.871 11.9847 29.8836 12.1108C29.8878 12.1655 29.8878 12.2244 29.8836 12.279C29.8752 12.4346 29.9341 12.4977 30.1022 12.4935C30.5774 12.4808 31.0525 12.4893 31.5276 12.4893C31.9187 12.4893 31.9145 12.4893 31.8976 12.0856C31.8892 11.9763 31.8514 11.9426 31.7463 11.9468Z" fill="#169C86" stroke="#169C86" stroke-width="0.7"/>
<path fill-rule="evenodd" clip-rule="evenodd" d="M30.1905 11.6228C30.2494 11.7153 30.3587 11.7153 30.447 11.7489C31.0146 11.9592 31.6958 11.7237 31.9691 11.2317C32.3055 10.6263 32.192 9.99136 31.6916 9.57089C31.0399 9.02007 29.8878 9.28076 29.6523 10.2689C29.4968 10.6179 29.7322 11.3705 30.1905 11.6228ZM30.8296 9.84419C31.1156 9.82317 31.3426 9.92828 31.4982 10.189C31.679 10.4917 31.6243 10.887 31.3594 11.1014C31.0567 11.3453 30.653 11.3326 30.3882 11.0678C30.3083 10.9879 30.2116 10.908 30.1989 10.7776C30.1989 10.6389 30.2031 10.4959 30.2031 10.3572C30.3083 10.0586 30.5101 9.86942 30.8296 9.84419Z" fill="#169C86" stroke="#169C86" stroke-width="0.7"/>
<path fill-rule="evenodd" clip-rule="evenodd" d="M17.5387 10.2775C17.5303 10.2648 17.5177 10.2564 17.5134 10.2438C17.4251 9.7729 17.1224 9.49119 16.6935 9.35243C16.2604 9.21368 15.84 9.27254 15.491 9.57528C14.9948 10.0042 14.8813 10.7232 15.2135 11.2277C15.5877 11.7954 16.231 11.9762 16.8701 11.6902C16.8954 11.6818 16.9164 11.6692 16.9374 11.6566C17.2654 11.4716 17.4756 11.1983 17.5471 10.8157C17.5513 10.803 17.5513 10.7904 17.5555 10.7778C17.6144 10.6054 17.6228 10.4414 17.5387 10.2775ZM15.9619 11.1184C15.7559 10.9881 15.6045 10.6937 15.6424 10.4751C15.6886 10.206 15.9283 9.94949 16.1722 9.91165C16.4833 9.8612 16.7061 9.96632 16.8575 10.2354C16.8912 10.2943 16.9248 10.3573 16.9542 10.4204C16.9584 10.4246 16.9626 10.433 16.9626 10.4372C16.9542 10.4499 16.95 10.4667 16.95 10.4835C16.9542 10.6769 16.887 10.8451 16.765 10.9965C16.7482 11.0175 16.7356 11.0385 16.7356 11.0595C16.4917 11.2319 16.2352 11.2908 15.9619 11.1184Z" fill="#169C86" stroke="#169C86" stroke-width="0.7"/>
<path fill-rule="evenodd" clip-rule="evenodd" d="M5.07614 35.5392C4.20577 33.769 3.86099 31.8895 3.92827 29.9259C3.94088 29.4929 3.98713 29.0598 4.04179 28.6309C4.05861 28.4753 4.01656 28.3408 3.84838 28.3071C3.67598 28.2693 3.54564 28.3408 3.5078 28.53C3.49518 28.5847 3.47836 28.6393 3.47416 28.694C3.4237 29.2532 3.35222 29.8082 3.37325 30.3086C3.35222 30.9519 3.39848 31.5321 3.47416 32.1082C3.61712 33.1846 3.88622 34.2358 4.3193 35.2365C4.53794 35.7452 4.80284 36.2288 5.09296 36.6997C5.16444 36.8132 5.25695 36.8931 5.3999 36.8721C5.52184 36.8553 5.59753 36.7712 5.63116 36.6534C5.6648 36.5399 5.59332 36.4516 5.54287 36.3591C5.38729 36.0858 5.2149 35.8209 5.07614 35.5392Z" fill="#169C86" stroke="#169C86" stroke-width="0.7"/>
<path fill-rule="evenodd" clip-rule="evenodd" d="M6.2656 23.0598C6.11843 22.9336 5.93343 22.9925 5.74001 23.2322C5.07988 24.0479 4.5585 24.9477 4.18008 25.9274C4.06234 26.2343 3.96143 26.5455 3.87734 26.7851C3.85631 27.029 3.9362 27.1383 4.09178 27.1678C4.27678 27.2056 4.36929 27.0879 4.42395 26.9197C4.80237 25.7003 5.36159 24.5693 6.18571 23.5854C6.38754 23.3373 6.41276 23.1859 6.2656 23.0598Z" fill="#169C86" stroke="#169C86" stroke-width="0.7"/>
<path fill-rule="evenodd" clip-rule="evenodd" d="M38.7634 30.1614C38.6751 30.1529 38.5826 30.1529 38.4901 30.1614C38.3429 30.1782 38.2925 30.1235 38.3009 29.9764C38.3219 29.6694 38.3303 29.3625 38.3471 29.0555C38.3555 28.8915 38.3051 28.757 38.1369 28.7149C37.9813 28.6771 37.872 28.757 37.7963 28.8957C37.666 29.1354 37.5314 29.3709 37.3969 29.6105C37.1572 30.0394 36.9133 30.4599 36.6821 30.893C36.5517 31.1368 36.6695 31.3261 36.9428 31.3345C37.0353 31.3387 37.1236 31.3387 37.2161 31.3345C37.3296 31.3261 37.359 31.3765 37.359 31.4816C37.3548 31.6498 37.359 31.818 37.359 31.9862C37.3548 31.9862 37.3506 31.9862 37.3422 31.9862C37.3338 32.1628 37.3212 32.3352 37.317 32.5118C37.317 32.6505 37.3843 32.7557 37.523 32.7935C37.6534 32.8313 37.7627 32.7767 37.83 32.6631C38.2252 31.9694 38.6162 31.2756 38.9989 30.5776C39.104 30.3758 38.982 30.1824 38.7634 30.1614ZM38.1958 30.893C38.1201 31.0149 38.0486 31.1411 37.9519 31.3008C37.9056 31.1326 37.9729 30.9645 37.8342 30.8551C37.7038 30.7542 37.5525 30.8131 37.3885 30.7668C37.4936 30.5818 37.5903 30.4052 37.6912 30.2286C37.7038 30.2328 37.7206 30.237 37.7333 30.2412C37.7333 30.3085 37.7248 30.38 37.7333 30.4473C37.7585 30.6617 37.9056 30.7206 38.0907 30.708C38.2757 30.6954 38.2715 30.7668 38.1958 30.893Z" fill="#169C86" stroke="#169C86" stroke-width="0.7"/>
</svg>
