<svg width="54" height="48" viewBox="0 0 54 48" fill="none" xmlns="http://www.w3.org/2000/svg">
<path fill-rule="evenodd" clip-rule="evenodd" d="M0.302983 29.025C0.778155 28.7944 1.23365 28.4177 1.7285 28.3558C7.89168 27.5686 14.0605 26.8263 20.2265 26.0699C20.3333 26.0559 20.4345 26.0025 20.6398 25.935C20.6567 25.5638 20.6876 25.1674 20.6904 24.7709C20.6932 20.3763 20.6876 15.9788 20.6932 11.5842C20.7017 5.11455 25.4112 0.351581 31.8584 0.31503C35.3983 0.292536 38.9382 0.292535 42.4752 0.33471C42.9082 0.340333 43.3356 0.688982 43.7658 0.877364C43.7321 0.998266 43.7011 1.11636 43.6674 1.23726C45.5287 1.23726 47.3957 1.32442 49.2486 1.21476C51.2701 1.09386 52.6113 1.86145 53.3002 3.76214C53.3002 10.6957 53.3002 17.6265 53.3002 24.5601C53.2271 25.0718 53.1371 25.5807 53.0809 26.0924C52.8334 28.3221 52.4426 30.5489 50.3254 31.7861C49.3217 32.3709 49.0827 33.0007 49.0995 34.0579C49.1473 36.9905 47.9243 38.6437 45.1604 39.5491C37.5661 42.0346 29.9661 44.4976 22.3802 47.0028C20.488 47.627 18.6632 47.5848 16.8187 46.8791C13.6612 45.6729 10.4925 44.4864 7.32935 43.2914C5.125 42.4592 4.02845 40.9156 3.98346 38.5256C3.95816 37.1114 3.9441 35.6915 3.9919 34.2772C4.01439 33.594 3.80633 33.2538 3.10341 33.1722C1.5598 32.9951 0.620701 32.1207 0.300171 30.5939C0.302983 30.0681 0.302983 29.5452 0.302983 29.025ZM28.9314 24.9425C28.9314 20.9752 28.9174 17.1429 28.9342 13.3078C28.9483 10.0575 31.4929 7.37513 34.6588 7.33858C38.6823 7.29078 42.7058 7.31328 46.7293 7.33296C48.1323 7.33858 49.0321 8.22988 49.0883 9.62166C49.1277 10.6254 49.0742 11.6348 49.1192 12.6386C49.1333 12.9197 49.3301 13.1953 49.4651 13.4652C49.6281 13.7857 49.9599 14.095 49.9655 14.4127C50.0077 16.9461 49.9936 19.4794 49.9796 22.0127C49.9768 22.2939 49.9093 22.7887 49.7828 22.8196C48.8746 23.0446 49.1136 23.7531 49.0883 24.3267C48.9336 27.8357 47.9327 29.0138 44.5165 29.6661C44.4434 29.6801 44.3675 29.6857 44.2944 29.697C42.6383 29.9866 42.3937 30.3521 42.7255 32.2922C45.0029 31.8367 47.3704 31.6989 49.4454 30.5602C50.1511 30.175 50.764 29.2977 51.0312 28.5133C51.4417 27.2986 51.6891 25.9743 51.706 24.695C51.7931 18.0286 51.7931 11.3593 51.8016 4.6928C51.8044 3.21948 51.1633 2.63747 49.6478 2.63466C43.614 2.62903 37.5773 2.61216 31.5435 2.64028C26.5359 2.66277 22.6783 6.59068 22.6698 11.6208C22.6642 15.9057 22.6698 20.1879 22.6698 24.4729C22.6698 24.8609 22.6698 25.2517 22.6698 25.7241C24.8348 25.4514 26.8199 25.2039 28.9314 24.9425ZM47.584 24.8806C47.6403 24.456 47.6825 24.2761 47.6825 24.0961C47.6881 19.4035 47.6796 14.708 47.6965 10.0153C47.6993 8.99466 47.1286 8.7641 46.2626 8.76691C42.5736 8.77816 38.8875 8.74442 35.1986 8.78097C32.2492 8.80909 30.416 10.6901 30.3991 13.6395C30.3851 16.4343 30.3963 19.2263 30.3963 22.0211C30.3963 22.904 30.3963 23.7869 30.3963 24.9284C36.1912 23.5282 41.8426 23.9809 47.584 24.8806ZM41.2128 30.3746C40.9316 30.3746 40.7826 30.3521 40.642 30.3774C34.2595 31.6202 27.8742 32.8517 21.4974 34.1226C19.9284 34.4347 19.234 35.3456 19.2227 36.9652C19.2002 39.7206 19.2143 42.476 19.2227 45.2315C19.2227 45.4761 19.3043 45.7179 19.3745 46.1228C20.2012 45.9625 20.98 45.8894 21.7054 45.656C29.4431 43.1536 37.1781 40.6344 44.9045 38.0955C47.1904 37.3447 48.2082 35.2388 47.48 32.8404C46.1782 33.1075 44.8792 33.4225 43.5634 33.6333C41.7414 33.9229 40.8613 33.0176 41.1369 31.2294C41.1734 30.9847 41.1819 30.7317 41.2128 30.3746ZM17.9406 34.5246C13.8496 36.0064 9.68553 34.8114 5.43147 33.6727C5.43147 35.3456 5.42866 36.8302 5.43147 38.312C5.43709 40.2689 6.10627 41.2642 7.91699 41.9559C10.9002 43.0918 13.889 44.2108 16.8778 45.3299C17.1336 45.4255 17.4064 45.4761 17.9434 45.6195C17.9406 41.8687 17.9406 38.2838 17.9406 34.5246ZM43.9176 26.0025C43.538 25.8647 43.3497 25.755 43.1472 25.7297C40.001 25.2967 36.8688 25.308 33.7056 25.7353C27.2613 26.6098 20.7973 27.3492 14.3388 28.1449C11.1476 28.5386 7.95635 28.935 4.76511 29.3287C4.75386 29.4186 4.74542 29.5086 4.73418 29.5986C7.64988 30.1159 10.4278 31.4093 13.4869 31.0803C15.5535 30.8582 17.6032 30.4786 19.6529 30.13C27.6774 28.772 35.6935 27.3999 43.9176 26.0025ZM2.00123 30.3634C1.90564 30.5011 1.81004 30.6361 1.71444 30.7739C2.1868 31.0775 2.62261 31.5274 3.13996 31.6595C5.65922 32.309 8.18129 32.981 10.7399 33.4253C12.2132 33.6811 13.7962 33.7458 15.2695 33.5152C20.5217 32.6942 25.7542 31.7383 30.9839 30.7795C35.7385 29.9079 40.4818 28.98 45.2222 28.0381C45.8071 27.9228 46.3441 27.5742 46.9008 27.3324C46.853 27.2087 46.808 27.0849 46.7602 26.9612C46.1838 27.0512 45.6046 27.1327 45.0282 27.2312C35.9353 28.7748 26.8311 30.2565 17.755 31.8929C14.1364 32.5452 10.619 32.7223 7.07068 31.5752C5.42304 31.0438 3.69386 30.7598 2.00123 30.3634Z" fill="#169C86" stroke="#169C86" stroke-width="0.6"/>
</svg>
