<svg width="58" height="57" viewBox="0 0 58 57" fill="none" xmlns="http://www.w3.org/2000/svg">
<path d="M52.5918 8.90622C52.828 8.90622 53.0545 8.81239 53.2216 8.64536C53.3886 8.47834 53.4824 8.25181 53.4824 8.0156V0.890622C53.4824 0.654414 53.3886 0.427881 53.2216 0.260857C53.0545 0.0938331 52.828 0 52.5918 0C52.3556 0 52.1291 0.0938331 51.962 0.260857C51.795 0.427881 51.7012 0.654414 51.7012 0.890622V8.0156C51.7012 8.25181 51.795 8.47834 51.962 8.64536C52.1291 8.81239 52.3556 8.90622 52.5918 8.90622Z" fill="#169C86"/>
<path d="M49.0293 5.34373C49.2655 5.34373 49.492 5.2499 49.6591 5.08287C49.8261 4.91585 49.9199 4.68932 49.9199 4.45311V0.890622C49.9199 0.654414 49.8261 0.427881 49.6591 0.260857C49.492 0.0938331 49.2655 0 49.0293 0C48.7931 0 48.5666 0.0938331 48.3995 0.260857C48.2325 0.427881 48.1387 0.654414 48.1387 0.890622V4.45311C48.1387 4.68932 48.2325 4.91585 48.3995 5.08287C48.5666 5.2499 48.7931 5.34373 49.0293 5.34373Z" fill="#169C86"/>
<path d="M56.1543 0C55.9181 0 55.6916 0.0938331 55.5245 0.260857C55.3575 0.427881 55.2637 0.654414 55.2637 0.890622V4.45311C55.2637 4.68932 55.3575 4.91585 55.5245 5.08287C55.6916 5.2499 55.9181 5.34373 56.1543 5.34373C56.3905 5.34373 56.617 5.2499 56.7841 5.08287C56.9511 4.91585 57.0449 4.68932 57.0449 4.45311V0.890622C57.0449 0.654414 56.9511 0.427881 56.7841 0.260857C56.617 0.0938331 56.3905 0 56.1543 0Z" fill="#169C86"/>
<path d="M29.4364 34.1199C29.5827 34.1197 29.7267 34.0834 29.8556 34.0142C29.9845 33.9451 30.0944 33.8453 30.1756 33.7236L30.2914 33.5544C30.3584 33.4585 30.4058 33.3503 30.4309 33.2361C30.4561 33.1219 30.4585 33.0038 30.438 32.8886C30.4176 32.7735 30.3746 32.6635 30.3116 32.5649C30.2487 32.4663 30.1669 32.3811 30.071 32.3142C29.9751 32.2472 29.8669 32.1998 29.7527 32.1747C29.6384 32.1495 29.5204 32.1471 29.4052 32.1676C29.2901 32.188 29.1801 32.231 29.0815 32.294C28.9829 32.3569 28.8977 32.4387 28.8308 32.5346L28.6927 32.735C28.6031 32.8693 28.5517 33.0255 28.544 33.1868C28.5363 33.348 28.5725 33.5084 28.6489 33.6507C28.7253 33.7929 28.839 33.9117 28.9777 33.9944C29.1164 34.077 29.2749 34.1204 29.4364 34.1199Z" fill="#169C86"/>
<path d="M52.5655 41.5612C52.45 41.5421 52.3318 41.546 52.2178 41.5726C52.1038 41.5992 51.9962 41.648 51.901 41.7163C51.8059 41.7845 51.7252 41.8708 51.6634 41.9703C51.6017 42.0698 51.5602 42.1805 51.5413 42.296C51.5413 42.4252 51.4967 42.5587 51.47 42.6879C51.442 42.8045 51.4378 42.9256 51.4576 43.0438C51.4775 43.1621 51.5211 43.2752 51.5857 43.3762C51.6503 43.4772 51.7347 43.5641 51.8338 43.6318C51.9328 43.6994 52.0445 43.7463 52.1621 43.7697C52.2798 43.7931 52.4009 43.7925 52.5183 43.768C52.6357 43.7434 52.7469 43.6954 52.8453 43.6268C52.9437 43.5582 53.0272 43.4705 53.0908 43.3688C53.1545 43.2672 53.1969 43.1537 53.2156 43.0352C53.2468 42.8838 53.2735 42.7369 53.2958 42.5899C53.3156 42.4744 53.3124 42.3561 53.2864 42.2418C53.2603 42.1276 53.212 42.0195 53.1442 41.924C53.0763 41.8284 52.9903 41.7472 52.891 41.6849C52.7917 41.6227 52.6811 41.5807 52.5655 41.5612Z" fill="#169C86"/>
<path d="M52.1958 34.5476C52.1503 34.4358 52.0825 34.3345 51.9966 34.2498C51.9106 34.165 51.8084 34.0986 51.696 34.0546C51.5837 34.0105 51.4635 33.9898 51.3429 33.9936C51.2223 33.9974 51.1037 34.0257 50.9943 34.0768C50.885 34.1278 50.7871 34.2006 50.7068 34.2906C50.6264 34.3806 50.5651 34.486 50.5267 34.6004C50.4883 34.7149 50.4736 34.8359 50.4834 34.9562C50.4932 35.0765 50.5274 35.1935 50.5838 35.3002C50.6417 35.4204 50.6951 35.5406 50.7486 35.6653C50.8419 35.8826 51.0177 36.054 51.2373 36.1417C51.4569 36.2294 51.7024 36.2262 51.9197 36.1329C52.137 36.0396 52.3084 35.8638 52.3961 35.6442C52.4838 35.4245 52.4806 35.179 52.3873 34.9617C52.325 34.8103 52.2611 34.6723 52.1958 34.5476Z" fill="#169C86"/>
<path d="M49.9201 31.1364C49.8412 31.0486 49.7457 30.9773 49.6392 30.9265C49.5327 30.8757 49.4173 30.8463 49.2994 30.8401C49.1816 30.8339 49.0636 30.851 48.9524 30.8903C48.8411 30.9297 48.7387 30.9906 48.651 31.0696C48.5633 31.1485 48.492 31.244 48.4411 31.3505C48.3903 31.457 48.361 31.5724 48.3548 31.6903C48.3486 31.8081 48.3656 31.9261 48.405 32.0373C48.4444 32.1486 48.5053 32.251 48.5842 32.3387L48.8469 32.6371C48.9163 32.7436 49.0076 32.8341 49.1148 32.9024C49.222 32.9708 49.3425 33.0154 49.4684 33.0332C49.5943 33.0511 49.7225 33.0418 49.8444 33.006C49.9664 32.9702 50.0793 32.9086 50.1755 32.8256C50.2717 32.7425 50.3491 32.6398 50.4023 32.5244C50.4555 32.4089 50.4834 32.2834 50.4841 32.1563C50.4848 32.0292 50.4583 31.9034 50.4063 31.7874C50.3544 31.6714 50.2782 31.5678 50.1829 31.4837L49.9201 31.1364Z" fill="#169C86"/>
<path d="M32.4377 31.2118L32.7494 30.9625C32.9128 30.8112 33.0135 30.6042 33.0318 30.3823C33.0501 30.1604 32.9846 29.9397 32.8483 29.7637C32.712 29.5877 32.5146 29.4691 32.2952 29.4314C32.0758 29.3936 31.8502 29.4394 31.6629 29.5597L31.3066 29.8447C31.2119 29.918 31.133 30.0095 31.0745 30.114C31.016 30.2184 30.9792 30.3336 30.9662 30.4526C30.9532 30.5716 30.9643 30.692 30.9989 30.8066C31.0335 30.9212 31.0909 31.0276 31.1675 31.1196C31.2442 31.2115 31.3386 31.287 31.4451 31.3417C31.5517 31.3963 31.6681 31.4289 31.7875 31.4375C31.9069 31.4461 32.0268 31.4306 32.14 31.3918C32.2533 31.353 32.3576 31.2918 32.4466 31.2118H32.4377Z" fill="#169C86"/>
<path d="M42.8973 28.8788C43.0121 28.9132 43.1326 28.924 43.2517 28.9107C43.3708 28.8974 43.4859 28.8602 43.5903 28.8014C43.6946 28.7425 43.786 28.6632 43.859 28.5682C43.932 28.4732 43.9851 28.3644 44.0151 28.2484C44.045 28.1324 44.0513 28.0116 44.0335 27.8931C44.0156 27.7746 43.9741 27.661 43.9113 27.5589C43.8485 27.4569 43.7658 27.3686 43.6681 27.2992C43.5704 27.2299 43.4597 27.181 43.3427 27.1555L42.8973 27.0486C42.6716 27.0089 42.4393 27.0578 42.2486 27.1851C42.058 27.3123 41.9238 27.5082 41.8739 27.7319C41.824 27.9556 41.8623 28.1899 41.9807 28.3861C42.0992 28.5823 42.2887 28.7253 42.5099 28.7853L42.8973 28.8788Z" fill="#169C86"/>
<path d="M35.1538 29.4397C35.2687 29.4454 35.3837 29.4288 35.4923 29.3907L35.8619 29.2482C36.0857 29.1638 36.2668 28.9939 36.3653 28.7759C36.4639 28.558 36.4718 28.3098 36.3873 28.086C36.3029 27.8622 36.133 27.6811 35.915 27.5825C35.6971 27.484 35.4489 27.4761 35.2251 27.5605L34.7798 27.7297C34.5889 27.8081 34.4313 27.9503 34.3336 28.132C34.236 28.3137 34.2045 28.5237 34.2444 28.726C34.2844 28.9284 34.3933 29.1106 34.5527 29.2416C34.712 29.3726 34.9119 29.4442 35.1182 29.4442L35.1538 29.4397Z" fill="#169C86"/>
<path d="M46.166 30.2813C46.2649 30.3439 46.3751 30.3864 46.4903 30.4064C46.6056 30.4264 46.7236 30.4234 46.8378 30.3978C46.9519 30.3722 47.0598 30.3243 47.1555 30.2569C47.2511 30.1896 47.3325 30.104 47.3951 30.0052C47.4577 29.9064 47.5002 29.7962 47.5202 29.6809C47.5401 29.5657 47.5372 29.4476 47.5116 29.3335C47.486 29.2194 47.4381 29.1114 47.3707 29.0158C47.3034 28.9202 47.2178 28.8387 47.119 28.7762L46.7271 28.5401C46.626 28.4704 46.5116 28.4224 46.391 28.3991C46.2704 28.3757 46.1463 28.3775 46.0265 28.4045C45.9067 28.4314 45.7937 28.4828 45.6947 28.5555C45.5957 28.6281 45.5128 28.7205 45.4512 28.8268C45.3896 28.933 45.3506 29.0509 45.3367 29.1729C45.3229 29.2949 45.3344 29.4185 45.3706 29.5359C45.4068 29.6532 45.4669 29.7618 45.547 29.8549C45.6272 29.9479 45.7258 30.0234 45.8365 30.0765L46.166 30.2813Z" fill="#169C86"/>
<path d="M53.4121 38.9337C53.3973 38.7823 53.3794 38.6339 53.3587 38.4884C53.3268 38.2522 53.2024 38.0384 53.0128 37.8939C52.8232 37.7494 52.584 37.6862 52.3478 37.718C52.1116 37.7499 51.8977 37.8743 51.7533 38.0639C51.6088 38.2535 51.5455 38.4927 51.5774 38.7289C51.5774 38.858 51.613 38.9916 51.6264 39.1252C51.6496 39.3449 51.7536 39.5481 51.9181 39.6954C52.0827 39.8427 52.2962 39.9236 52.517 39.9223H52.6105C52.7286 39.9113 52.8432 39.8767 52.9477 39.8208C53.0522 39.7648 53.1445 39.6886 53.2191 39.5965C53.2938 39.5044 53.3493 39.3984 53.3824 39.2846C53.4156 39.1708 53.4257 39.0515 53.4121 38.9337Z" fill="#169C86"/>
<path d="M38.9566 28.5402L39.353 28.5135C39.5885 28.502 39.8098 28.3975 39.9684 28.2231C40.127 28.0486 40.21 27.8183 40.1991 27.5828C40.1957 27.4643 40.1686 27.3476 40.1195 27.2397C40.0704 27.1317 40.0003 27.0347 39.9132 26.9542C39.8261 26.8737 39.7238 26.8115 39.6123 26.7711C39.5008 26.7307 39.3823 26.7129 39.2639 26.7189L38.8186 26.7501C38.7016 26.7548 38.5867 26.7824 38.4805 26.8315C38.3742 26.8806 38.2787 26.9501 38.1993 27.0361C38.1199 27.1221 38.0582 27.2229 38.0178 27.3328C37.9773 27.4426 37.9589 27.5594 37.9636 27.6763C37.9683 27.7933 37.9959 27.9082 38.045 28.0144C38.0941 28.1207 38.1636 28.2163 38.2497 28.2957C38.3357 28.375 38.4365 28.4367 38.5463 28.4772C38.6562 28.5176 38.7729 28.536 38.8899 28.5313L38.9566 28.5402Z" fill="#169C86"/>
<path d="M50.3391 45.8986C50.2445 46.106 50.233 46.3417 50.307 46.5573C50.381 46.7729 50.5349 46.952 50.7369 47.0575C50.9389 47.1631 51.1738 47.1872 51.393 47.1249C51.6123 47.0625 51.7993 46.9185 51.9155 46.7224L52.0224 46.5131C52.0793 46.4083 52.1146 46.2931 52.1262 46.1745C52.1378 46.0558 52.1255 45.9359 52.0899 45.8221C52.0543 45.7083 51.9962 45.6028 51.9191 45.5118C51.8419 45.4209 51.7473 45.3463 51.6408 45.2926C51.5343 45.2389 51.4181 45.2072 51.2991 45.1992C51.1801 45.1913 51.0607 45.2073 50.9481 45.2464C50.8354 45.2855 50.7317 45.3468 50.6432 45.4267C50.5546 45.5066 50.483 45.6035 50.4326 45.7115L50.3391 45.8986Z" fill="#169C86"/>
<path d="M42.35 23.3167V14.2501C42.35 13.5415 42.0685 12.8619 41.5674 12.3609C41.0663 11.8598 40.3867 11.5783 39.6781 11.5783H28.5453V0.80621C28.543 0.698016 28.5194 0.591338 28.4759 0.49227C28.4323 0.393203 28.3697 0.303687 28.2915 0.228837C28.2133 0.153986 28.1212 0.0952688 28.0203 0.056038C27.9195 0.0168072 27.8119 -0.00216791 27.7037 0.000196697H4.44956C4.34137 -0.00216791 4.23377 0.0168072 4.13291 0.056038C4.03205 0.0952688 3.93991 0.153986 3.86175 0.228837C3.7836 0.303687 3.72095 0.393203 3.6774 0.49227C3.63384 0.591338 3.61024 0.698016 3.60792 0.80621V15.2209C3.60966 15.3295 3.63284 15.4367 3.67613 15.5362C3.71943 15.6358 3.78198 15.7259 3.8602 15.8012C3.93842 15.8765 4.03075 15.9356 4.1319 15.9751C4.23304 16.0146 4.341 16.0338 4.44956 16.0314H12.9595V17.8126H0.936055C0.699848 17.8126 0.473314 17.9065 0.30629 18.0735C0.139266 18.2405 0.0454333 18.467 0.0454333 18.7033V29.836C0.0454333 30.0722 0.139266 30.2988 0.30629 30.4658C0.473314 30.6328 0.699848 30.7267 0.936055 30.7267C1.17226 30.7267 1.3988 30.6328 1.56582 30.4658C1.73284 30.2988 1.82668 30.0722 1.82668 29.836V23.1564H30.3266V24.0782C30.9035 23.7394 31.4981 23.4317 32.1078 23.1564V18.7033C32.1078 18.467 32.014 18.2405 31.847 18.0735C31.6799 17.9065 31.4534 17.8126 31.2172 17.8126H19.1938V16.0314H27.7037C27.8123 16.0338 27.9202 16.0146 28.0214 15.9751C28.1225 15.9356 28.2148 15.8765 28.2931 15.8012C28.3713 15.7259 28.4338 15.6358 28.4771 15.5362C28.5204 15.4367 28.5436 15.3295 28.5453 15.2209V13.3595H39.6781C39.9143 13.3595 40.1409 13.4534 40.3079 13.6204C40.4749 13.7874 40.5687 14.0139 40.5687 14.2501V23.1564H40.0477C36.9865 23.1525 33.981 23.975 31.3483 25.537C28.7156 27.0991 26.5534 29.3428 25.0897 32.0314C25.0276 32.1344 24.9869 32.2489 24.9702 32.3681C24.9536 32.4872 24.9612 32.6085 24.9927 32.7246C25.0242 32.8407 25.0788 32.9492 25.1534 33.0436C25.228 33.138 25.3209 33.2164 25.4266 33.2739C25.5322 33.3314 25.6485 33.3669 25.7682 33.3782C25.888 33.3896 26.0088 33.3765 26.1234 33.3399C26.238 33.3033 26.344 33.2438 26.435 33.1651C26.5259 33.0864 26.6 32.9901 26.6528 32.882C28.2689 29.9157 30.825 27.5708 33.9192 26.2158C37.0134 24.8608 40.4702 24.5726 43.7461 25.3965C47.022 26.2204 49.9311 28.1098 52.016 30.7674C54.101 33.4251 55.2435 36.7003 55.264 40.0782C55.2651 43.6728 53.9774 47.1487 51.6347 49.875H48.139C48.139 48.5391 48.139 46.9716 48.139 46.3125C48.139 45.8401 47.9514 45.3871 47.6173 45.053C47.2833 44.719 46.8302 44.5313 46.3578 44.5313H44.7413C45.3703 44.2258 45.9184 43.7766 46.3415 43.2199C46.7645 42.6631 47.0505 42.0146 47.1763 41.3268C47.3021 40.6391 47.2642 39.9313 47.0657 39.2609C46.8671 38.5905 46.5134 37.9762 46.0333 37.4679C45.5532 36.9596 44.9602 36.5715 44.3022 36.335C43.6442 36.0985 42.9397 36.0202 42.2459 36.1066C41.552 36.1929 40.8883 36.4415 40.3083 36.8321C39.7284 37.2227 39.2486 37.7443 38.9077 38.3548C38.2309 36.3866 36.4897 35.1798 33.8534 35.1798H15.6981C15.3728 35.1607 15.0526 35.2676 14.8039 35.4781C14.5552 35.6887 14.3971 35.9869 14.3622 36.3109L0.851446 37.5755C0.615238 37.5862 0.392928 37.6902 0.23342 37.8647C0.073912 38.0393 -0.00972713 38.27 0.000902217 38.5062C0.0115316 38.7424 0.115559 38.9648 0.290099 39.1243C0.464639 39.2838 0.695395 39.3674 0.931602 39.3568H1.01621L14.2954 38.1055V39.8065L0.878165 40.6972C0.641957 40.7125 0.421523 40.8211 0.265356 40.999C0.109188 41.1768 0.0300798 41.4095 0.0454333 41.6457C0.0607868 41.8819 0.169345 42.1023 0.347225 42.2585C0.525106 42.4147 0.757738 42.4938 0.993946 42.4784L14.2954 41.5922V44.086H0.936055C0.78063 44.0869 0.628155 44.1285 0.493786 44.2066C0.359417 44.2848 0.247832 44.3967 0.17012 44.5313H0.0454333V57H55.264C55.7364 57 56.1895 56.8123 56.5235 56.4783C56.8576 56.1442 57.0452 55.6912 57.0452 55.2188V51.6563C57.0452 51.1839 56.8576 50.7308 56.5235 50.3967C56.1895 50.0627 55.7364 49.875 55.264 49.875H53.8924C55.9442 47.0206 57.0471 43.5935 57.0452 40.0782C57.0317 35.9811 55.5364 32.0272 52.8354 28.9464C50.1344 25.8656 46.4101 23.866 42.35 23.3167ZM26.7641 1.78144V8.90642H19.7861L17.889 4.12378C17.8203 3.9498 17.6986 3.80189 17.541 3.70101C17.3835 3.60013 17.1982 3.55141 17.0114 3.56176C16.8247 3.57211 16.6459 3.641 16.5005 3.75867C16.3551 3.87633 16.2504 4.03679 16.2013 4.21729L15.1548 8.01579L14.7407 6.32361C14.7004 6.15718 14.613 6.00588 14.489 5.88784C14.3649 5.7698 14.2095 5.69003 14.0412 5.65807C13.873 5.62612 13.6991 5.64334 13.5404 5.70767C13.3818 5.772 13.245 5.88072 13.1465 6.0208L11.7527 8.01579H5.38916V1.78144H26.7641ZM17.4126 16.0314V17.8126H14.7407V16.0314H17.4126ZM30.3266 19.5939V21.3751H1.82668V19.5939H30.3266ZM5.38916 14.2501V9.79704H12.2158C12.3612 9.79947 12.5051 9.76625 12.6347 9.70026C12.7643 9.63428 12.8758 9.53755 12.9595 9.41852L13.4894 8.6615L14.2375 11.7787C14.2817 11.9706 14.3883 12.1424 14.5406 12.2673C14.6929 12.3922 14.8823 12.4631 15.0791 12.4689C15.2743 12.4691 15.4642 12.4051 15.6194 12.2868C15.7747 12.1685 15.8869 12.0025 15.9386 11.8143L17.1988 7.24986L18.3388 10.1221C18.4057 10.293 18.5237 10.439 18.6768 10.5402C18.8298 10.6415 19.0104 10.693 19.1938 10.6877H26.7641V14.2501H5.38916ZM42.7953 37.8516C43.3237 37.8516 43.8403 38.0083 44.2797 38.3019C44.7191 38.5955 45.0615 39.0128 45.2638 39.501C45.466 39.9892 45.5189 40.5265 45.4158 41.0447C45.3127 41.563 45.0582 42.0391 44.6846 42.4128C44.3109 42.7865 43.8348 43.0409 43.3165 43.144C42.7983 43.2471 42.261 43.1942 41.7728 42.992C41.2846 42.7897 40.8673 42.4473 40.5737 42.0079C40.2801 41.5685 40.1234 41.0519 40.1234 40.5235C40.1234 39.8149 40.4049 39.1353 40.906 38.6342C41.4071 38.1331 42.0867 37.8516 42.7953 37.8516ZM40.8671 44.5313H37.9726C38.4374 44.0241 38.7747 43.4135 38.9567 42.75C39.4 43.5207 40.0638 44.1411 40.8626 44.5313H40.8671ZM33.8534 36.961C36.2403 36.961 37.4516 38.1188 37.4516 40.4077V40.6393C37.4516 43.6674 35.9375 44.086 34.2988 44.086H16.0766V36.961H33.8534ZM1.82668 46.3125H46.3578C46.3578 46.9716 46.3578 48.5391 46.3578 49.875H1.82668V46.3125ZM55.264 55.2188H1.82668V51.6563H55.264V55.2188Z" fill="#169C86"/>
</svg>
