<svg width="32" height="51" viewBox="0 0 32 51" fill="none" xmlns="http://www.w3.org/2000/svg">
<path d="M15.8489 12.6454C19.2378 12.6454 21.9966 9.88676 21.9966 6.49767C21.9966 3.10875 19.238 0.349976 15.8489 0.349976C12.4598 0.349976 9.70117 3.10859 9.70117 6.49767C9.70117 9.8866 12.4598 12.6454 15.8489 12.6454ZM15.8489 1.77045C18.4583 1.77045 20.5761 3.89036 20.5761 6.49773C20.5761 9.10719 18.4562 11.225 15.8489 11.225C13.2394 11.225 11.1216 9.10509 11.1216 6.49773C11.1216 3.88826 13.2394 1.77045 15.8489 1.77045Z" fill="#169C86" stroke="#169C86" stroke-width="0.7"/>
<path d="M28.6165 18.5553H25.5239C23.1897 15.5908 19.601 13.828 15.8489 13.828C12.0944 13.828 8.50823 15.5928 6.17394 18.5553H3.08126C1.57484 18.5553 0.349976 19.7822 0.349976 21.2866V47.6039C0.349976 49.1103 1.57693 50.3352 3.08126 50.3352H28.6187C30.1251 50.3352 31.35 49.1082 31.35 47.6039V21.2887C31.35 19.7823 30.123 18.5553 28.6165 18.5553ZM15.8489 15.242C18.7861 15.242 21.6034 16.4584 23.6478 18.5489L8.04998 18.551C10.0943 16.4626 12.9117 15.242 15.8489 15.242ZM29.9359 47.6059C29.9359 48.3328 29.3434 48.9232 28.6186 48.9232H3.08116C2.35419 48.9232 1.76384 48.3307 1.76384 47.6059L1.76174 21.2886C1.76174 20.5616 2.35424 19.9712 3.07906 19.9712H28.6165C29.3434 19.9712 29.9338 20.5637 29.9338 21.2886L29.9359 47.6059Z" fill="#169C86" stroke="#169C86" stroke-width="0.7"/>
<path d="M25.9064 29.7744C23.3201 29.3164 20.5972 29.0475 17.8219 28.9572V25.2615C20.3389 25.3581 22.3727 25.6376 24.7345 26.0578C24.7765 26.0641 24.8206 26.0683 24.8584 26.0683C25.1967 26.0683 25.4929 25.8267 25.5581 25.4821C25.6274 25.0956 25.369 24.73 24.9824 24.6586C22.541 24.2237 20.4421 23.9316 17.8241 23.835V23.1522C17.8241 22.066 16.9375 21.1772 15.8491 21.1772C14.7629 21.1772 13.8742 22.0638 13.8742 23.1522V23.835C11.25 23.9317 9.15113 24.2216 6.71582 24.6586C6.32924 24.7279 6.07502 25.0935 6.14016 25.4821C6.19899 25.8267 6.50153 26.0683 6.8398 26.0683C6.88182 26.0683 6.91964 26.062 6.96376 26.0578C9.32947 25.6376 11.3591 25.354 13.8763 25.2615V28.9572C11.0946 29.0496 8.37994 29.3185 5.79177 29.7744C5.40519 29.8438 5.15097 30.2093 5.2161 30.598C5.27493 30.9426 5.57748 31.1842 5.91575 31.1842C5.95777 31.1842 5.99559 31.1779 6.03971 31.1737C8.54623 30.7282 11.1809 30.4698 13.8763 30.3774V34.0667C11.2521 34.1634 9.15325 34.4533 6.71794 34.8903C6.33136 34.9596 6.07714 35.3252 6.14228 35.7139C6.20111 36.0584 6.50365 36.3 6.84192 36.3C6.88394 36.3 6.92176 36.2937 6.96588 36.2895C9.32739 35.8693 11.3612 35.5857 13.8784 35.4932V37.5963H10.1071C8.32128 37.5963 6.86949 39.0481 6.86949 40.834V44.7439C6.86949 46.5844 8.39061 48.0782 10.2689 48.0782C11.893 48.0782 13.2586 46.9962 13.5927 45.4436L13.9646 43.7166C14.0612 43.2753 14.4268 42.9791 14.8785 42.9791H16.8303C17.282 42.9791 17.6476 43.2753 17.7443 43.7166L18.1161 45.4436C18.4502 46.992 19.8159 48.0782 21.4399 48.0782C23.3119 48.0782 24.8393 46.5823 24.8393 44.7439V40.834C24.8393 39.0481 23.3876 37.5963 21.6017 37.5963H17.8304V35.4932C20.3474 35.5899 22.3812 35.8693 24.743 36.2895C24.785 36.2958 24.8291 36.3 24.8669 36.3C25.2052 36.3 25.5014 36.0584 25.5666 35.7139C25.6359 35.3273 25.3775 34.9617 24.9909 34.8903C22.5495 34.4554 20.4506 34.1633 17.8326 34.0667V30.3774C20.5281 30.4635 23.1628 30.7261 25.6691 31.1737C25.7112 31.18 25.7553 31.1842 25.7931 31.1842C26.1314 31.1842 26.4276 30.9425 26.4927 30.598C26.5516 30.2114 26.2951 29.8395 25.9064 29.7744ZM23.4105 40.8236V44.7336C23.4105 45.8093 22.5386 46.6476 21.425 46.6476C20.4565 46.6476 19.6833 46.0404 19.4837 45.1307L19.1118 43.4037C18.8744 42.3112 17.9332 41.5485 16.8154 41.5485H14.8636C13.7459 41.5485 12.8046 42.3133 12.5672 43.4037L12.1953 45.1307C12.0021 46.0341 11.2226 46.6476 10.254 46.6476C9.14049 46.6476 8.26857 45.803 8.26857 44.7336V40.8236C8.26857 39.8172 9.08584 39 10.0922 39H21.5765C22.5934 39 23.4105 39.8172 23.4105 40.8236ZM15.2942 37.586V23.1607C15.2942 22.8539 15.5421 22.606 15.8489 22.606C16.1556 22.606 16.4035 22.854 16.4035 23.1607V37.586H15.2942Z" fill="#169C86" stroke="#169C86" stroke-width="0.7"/>
</svg>
