<svg width="49" height="49" viewBox="0 0 49 49" fill="none" xmlns="http://www.w3.org/2000/svg">
<path d="M11.5837 40.1078C11.6087 40.1495 11.6399 40.1891 11.6733 40.2224C11.6858 40.2349 11.7004 40.2453 11.7129 40.2557C11.7295 40.2703 11.7462 40.287 11.7649 40.3016L15.2879 42.6475C15.5316 42.8037 15.8087 42.8871 16.0879 42.8871C16.3337 42.8871 16.5775 42.8225 16.8024 42.6975C17.2962 42.4121 17.5691 41.9079 17.5295 41.3495L17.265 37.1306C17.265 37.1264 17.2629 37.1223 17.2629 37.1181C17.2608 37.0868 17.2545 37.0556 17.2462 37.0264C17.242 37.016 17.242 37.0056 17.2379 36.9931C17.2254 36.9535 17.2087 36.9139 17.1879 36.8764L8.65878 22.0987V9.11468C8.65878 5.92079 11.2505 3.3251 14.438 3.3251H17.2276C17.5505 3.3251 17.811 3.06467 17.811 2.74385V1.96046C17.811 1.63336 18.0714 1.36667 18.3922 1.36667H32.5672C32.888 1.36667 33.1484 1.63335 33.1484 1.96046V7.80444C33.1484 8.12946 32.8922 8.38569 32.5672 8.38569L18.3901 8.38361C18.063 8.38361 17.8088 8.12735 17.8088 7.80236V5.1168C17.8088 4.79596 17.5484 4.53342 17.2255 4.53342C16.9046 4.53342 16.6442 4.79384 16.6442 5.1168V7.80236C16.6442 8.7649 17.4276 9.54825 18.3901 9.54825H32.565C33.5276 9.54825 34.3109 8.76485 34.3109 7.80236V1.95837C34.3109 0.989585 33.5275 0.199951 32.565 0.199951L18.3901 0.202034C17.4276 0.202034 16.6442 0.991668 16.6442 1.96046V2.16255H14.438C10.6088 2.16255 7.49397 5.28354 7.49397 9.11698V20.0823L6.12522 17.7134C5.70855 16.9904 4.92938 16.5425 4.0898 16.5425C3.67938 16.5425 3.27732 16.6509 2.92105 16.855L1.3627 17.7551C0.256456 18.4009 -0.128986 19.8302 0.50643 20.9469L11.5817 40.1125L11.5838 40.1084L11.5837 40.1078ZM7.53786 22.4841C7.55661 22.53 7.58161 22.5716 7.61077 22.6112L15.8897 36.9537L14.5939 37.6995L6.21893 23.1843C6.05851 22.9072 5.70226 22.8092 5.42517 22.9717C5.146 23.1322 5.05225 23.4884 5.21266 23.7655L13.5898 38.2808L12.3043 39.0225L3.36028 23.5509L6.95406 21.4717L7.53786 22.4841ZM16.2275 41.6828C16.1254 41.7391 16.0129 41.7287 15.9233 41.6703L13.19 39.8515L16.1629 38.1368L16.3691 41.4224C16.3775 41.537 16.3275 41.6266 16.2275 41.6828ZM1.9485 18.7592L3.50269 17.8612C3.68186 17.7591 3.88394 17.7029 4.09022 17.7029C4.51522 17.7029 4.90686 17.9279 5.11731 18.2925L6.36943 20.4634L2.77565 22.5447L1.5173 20.3655C1.2048 19.8134 1.40267 19.0779 1.9485 18.7592ZM46.6484 25.8555H43.4629L43.4609 9.11502C43.4609 5.27945 40.3463 2.16059 36.5168 2.16059H36.1022C35.7814 2.16059 35.521 2.42102 35.521 2.74398C35.521 3.06482 35.7814 3.32523 36.1022 3.32523H36.5168C39.7044 3.32523 42.2961 5.92326 42.2961 9.11481V25.8553H24.4853C23.6311 25.8553 22.9353 26.5511 22.9353 27.4053L22.9374 43.9767C22.9374 44.8309 23.6333 45.5267 24.4874 45.5267H40.3957C39.3457 46.483 37.9665 47.0351 36.5187 47.0351H14.4396C11.2521 47.0351 8.66042 44.4433 8.66042 41.2557V36.3929C8.66042 36.0721 8.4 35.8096 8.07706 35.8096C7.75622 35.8096 7.49583 36.07 7.49583 36.3929V41.2557C7.49583 45.085 10.6104 48.2 14.4399 48.2H36.5189C38.6564 48.2 40.6751 47.2062 41.9834 45.5269H46.6501C47.5043 45.5269 48.2001 44.8311 48.2001 43.9769L48.198 27.4055C48.198 26.5513 47.5025 25.8555 46.6484 25.8555ZM47.0338 43.9773C47.0338 44.1857 46.8567 44.3628 46.6484 44.3628L24.4856 44.3648C24.2773 44.3648 24.1002 44.1877 24.1002 43.9794V27.4059C24.1002 27.1955 24.2773 27.0205 24.4856 27.0205H46.6463C46.8546 27.0205 47.0317 27.1975 47.0317 27.4059L47.0338 43.9773ZM24.39 29.2956V27.8893C24.39 27.5685 24.6504 27.3081 24.9734 27.3081H26.3671C26.688 27.3081 26.9484 27.5685 26.9484 27.8893C26.9484 28.2102 26.6879 28.4706 26.3671 28.4706H25.5546V29.2956C25.5546 29.6165 25.2942 29.8769 24.9734 29.8769C24.6505 29.879 24.39 29.6164 24.39 29.2956ZM46.7463 27.8893V29.2956C46.7463 29.6165 46.4859 29.8769 46.1651 29.8769C45.8422 29.8769 45.5818 29.6164 45.5818 29.2956V28.4706H44.7588C44.438 28.4706 44.1776 28.2101 44.1776 27.8893C44.1776 27.5685 44.438 27.3081 44.7588 27.3081H46.1651C46.4859 27.3081 46.7463 27.5685 46.7463 27.8893ZM26.9484 43.4943C26.9484 43.8151 26.688 44.0755 26.3672 44.0755H24.9734C24.6505 44.0755 24.3901 43.8151 24.3901 43.4943V42.088C24.3901 41.765 24.6505 41.5046 24.9734 41.5046C25.2943 41.5046 25.5546 41.765 25.5546 42.088V42.913H26.3671C26.688 42.913 26.9484 43.1734 26.9484 43.4943ZM46.7463 42.088V43.4943C46.7463 43.8151 46.4859 44.0755 46.1651 44.0755H44.7589C44.438 44.0755 44.1776 43.8151 44.1776 43.4943C44.1776 43.1734 44.4381 42.913 44.7589 42.913H45.5818V42.088C45.5818 41.765 45.8422 41.5046 46.1652 41.5046C46.486 41.5067 46.7463 41.7671 46.7463 42.088ZM44.2443 40.44C44.2818 41.1255 43.863 41.7317 43.2026 41.9401C42.5026 42.1776 41.7463 42.3484 40.9693 42.4463C40.9109 42.4526 40.8526 42.4526 40.7943 42.4422C39.2505 42.1672 38.9047 41.1546 38.6255 40.3421C38.3151 39.44 38.0401 38.6503 36.1422 38.3983V42.586C36.1422 42.9068 35.8818 43.1693 35.5588 43.1693C35.238 43.1693 34.9776 42.9089 34.9776 42.586V38.4003C33.0901 38.6524 32.813 39.442 32.5047 40.3421C32.2276 41.1546 31.8797 42.1692 30.3359 42.4442C30.3026 42.4505 30.2672 42.4526 30.2338 42.4526C30.2088 42.4526 30.1859 42.4505 30.1609 42.4484C29.388 42.3526 28.6297 42.1796 27.9047 41.9401C27.2713 41.7338 26.8546 41.1359 26.8734 40.4504L26.8984 40.1212C26.9234 39.8004 27.2005 39.5608 27.5234 39.5858C27.8442 39.6108 28.0838 39.8899 28.0588 40.2108L28.0359 40.5108C28.0338 40.6483 28.1234 40.7879 28.2692 40.8338C28.8984 41.0442 29.5505 41.1942 30.2151 41.2817C30.8213 41.1546 31.0484 40.8796 31.2317 40.4316C30.088 40.3712 28.9796 40.1233 27.9255 39.6879C27.3234 39.4504 26.9525 38.8712 26.99 38.217L27.0005 37.8524C27.0109 37.5315 27.2775 37.2836 27.6005 37.2878C27.9213 37.2982 28.1734 37.5649 28.165 37.8878L28.1525 38.267C28.1442 38.4378 28.215 38.5503 28.3609 38.6066C29.413 39.0399 30.5213 39.2608 31.663 39.2753C31.8067 38.9545 32.0005 38.6316 32.2901 38.3357H31.7776C30.4255 38.3357 29.0776 37.992 27.8817 37.3419C27.3713 37.069 27.0755 36.5461 27.0921 35.9481L27.115 35.4106C27.1296 35.0897 27.4046 34.8356 27.7213 34.8543C28.0421 34.8689 28.2921 35.1397 28.2775 35.4606L28.2546 35.9918C28.2505 36.1398 28.3088 36.2523 28.4317 36.3189C29.4609 36.8773 30.6171 37.1711 31.7754 37.1711H34.9734V36.2148H31.7754C30.4275 36.2148 29.1463 35.7793 28.0692 34.9543C27.4442 34.4772 27.2963 33.5876 27.7275 32.9271L27.8046 32.8063C27.9775 32.5354 28.3359 32.4542 28.6088 32.6271C28.8796 32.8 28.9588 33.1605 28.7879 33.4313L28.7088 33.5584C28.6025 33.7188 28.6338 33.9188 28.7775 34.0272C29.6504 34.6959 30.6879 35.048 31.7775 35.048H34.9755V34.1043H31.7775C30.838 34.1043 29.9171 33.7647 29.19 33.148C28.6066 32.6396 28.4879 31.8083 28.9046 31.1667L29.0921 30.9021C29.2796 30.6396 29.6421 30.5791 29.9046 30.7666C30.165 30.9541 30.2254 31.3166 30.04 31.5792L29.8671 31.8208C29.7858 31.95 29.8129 32.1458 29.9483 32.2646C30.4608 32.6979 31.1129 32.9396 31.7775 32.9396H34.9754V31.9958H31.7775C30.74 31.9958 29.8942 31.1458 29.8942 30.0999C29.8942 29.0603 30.74 28.2165 31.7775 28.2165C32.1004 28.2165 32.3609 28.477 32.3609 28.7978C32.3609 29.1207 32.1004 29.379 31.7775 29.379C31.3879 29.379 31.0566 29.7082 31.0566 30.0999C31.0566 30.5041 31.3796 30.8312 31.7775 30.8312H34.9754V29.6728C34.9754 29.3499 35.2358 29.0894 35.5567 29.0894C35.8775 29.0894 36.14 29.3498 36.14 29.6728V30.8312H39.3484C39.7463 30.8312 40.0692 30.5041 40.0692 30.0999C40.0692 29.7082 39.74 29.379 39.3484 29.379C39.0275 29.379 38.7671 29.1186 38.7671 28.7978C38.7671 28.4769 39.0275 28.2165 39.3484 28.2165C40.3879 28.2165 41.2317 29.0624 41.2317 30.0999C41.2317 31.1458 40.3858 31.9958 39.3484 31.9958H36.14V32.9396H39.3484C40.015 32.9396 40.6671 32.6979 41.1858 32.2604C41.315 32.1479 41.34 31.9563 41.2421 31.8083L41.0775 31.5646C40.9004 31.2979 40.9713 30.9354 41.24 30.7562C41.5067 30.577 41.8692 30.65 42.0483 30.9166L42.2088 31.1583C42.6338 31.7854 42.5213 32.6396 41.9463 33.1418C41.2108 33.7647 40.2921 34.1043 39.3504 34.1043H36.1421V35.0481H39.3504C40.44 35.0481 41.4775 34.696 42.3504 34.0272C42.4879 33.9188 42.5233 33.7126 42.4254 33.5647L42.3483 33.4605C42.1587 33.2001 42.2171 32.8355 42.4754 32.648C42.7358 32.4584 43.1004 32.5167 43.2879 32.7772L43.3796 32.9042C43.8212 33.5772 43.6754 34.4647 43.0608 34.9481C41.9775 35.7773 40.6941 36.2148 39.3462 36.2148H36.1379V37.1711H39.3462C40.5067 37.1711 41.6608 36.8773 42.6879 36.3189C42.8129 36.2523 42.8733 36.1398 42.8692 35.9835L42.8358 35.4731C42.815 35.1522 43.0567 34.8751 43.3775 34.8543C43.7025 34.8314 43.9754 35.0772 43.9963 35.398L44.0317 35.9293C44.0504 36.5481 43.7546 37.0689 43.2421 37.3439C42.0483 37.9918 40.7004 38.3356 39.3483 38.3356H38.8316C39.1233 38.6315 39.317 38.9544 39.4608 39.2753C40.5941 39.2607 41.7025 39.0398 42.7587 38.6086C42.9046 38.5502 42.9817 38.4294 42.9733 38.2815L42.9608 37.8856C42.9504 37.5648 43.2025 37.296 43.5254 37.2856C43.8442 37.2814 44.115 37.5294 44.1254 37.8502L44.1358 38.2294C44.1712 38.8607 43.8046 39.4378 43.1962 39.6857C42.1358 40.1191 41.0254 40.367 39.8921 40.4274C40.0775 40.8753 40.3025 41.1504 40.9109 41.2775C41.5796 41.1879 42.2276 41.04 42.8359 40.8316C42.9984 40.7816 43.0838 40.6524 43.0755 40.492L43.063 40.1837C43.0505 39.8628 43.3005 39.592 43.6213 39.5795C43.9526 39.5753 44.213 39.817 44.2255 40.1399L44.2443 40.44ZM14.9668 22.7683H17.3418C17.6626 22.7683 17.923 22.5079 17.923 22.187V19.9807H20.1293C20.4522 19.9807 20.7105 19.7203 20.7105 19.3973L20.7126 17.0222C20.7126 16.7014 20.4522 16.441 20.1314 16.441H17.9251L17.923 14.2326C17.923 13.9117 17.6626 13.6513 17.3418 13.6513H14.9668C14.646 13.6513 14.3856 13.9118 14.3856 14.2326V16.441H12.1793C11.8585 16.441 11.5981 16.7014 11.5981 17.0222V19.3953C11.5981 19.7161 11.8585 19.9786 12.1793 19.9786H14.3856V22.185C14.3856 22.5058 14.646 22.7683 14.9668 22.7683ZM12.7606 18.8139V17.6035H14.9668C15.2877 17.6035 15.548 17.3431 15.548 17.0222V14.8159H16.7585V17.0222C16.7585 17.3431 17.0189 17.6035 17.3418 17.6035H19.5481V18.8139H17.3418C17.0189 18.8139 16.7585 19.0744 16.7585 19.3952V21.6015H15.548L15.5501 19.3952C15.5501 19.0744 15.2897 18.8139 14.9689 18.8139H12.7606ZM39.3713 14.2325C39.3713 14.5534 39.1109 14.8159 38.788 14.8159H26.8381C26.5172 14.8159 26.2547 14.5555 26.2547 14.2325C26.2547 13.9117 26.5151 13.6513 26.8381 13.6513H38.788C39.1109 13.6513 39.3713 13.9117 39.3713 14.2325ZM39.3713 18.2098C39.3713 18.5306 39.1109 18.791 38.788 18.791H23.3922C23.0714 18.791 22.8088 18.5306 22.8088 18.2098C22.8088 17.8889 23.0692 17.6285 23.3922 17.6285H38.788C39.1109 17.6285 39.3713 17.8869 39.3713 18.2098ZM26.6652 21.6037C26.986 21.6037 27.2485 21.8641 27.2485 22.187C27.2485 22.5079 26.9881 22.7683 26.6652 22.7683H23.3922C23.0714 22.7683 22.8089 22.5079 22.8089 22.187C22.8089 21.8662 23.0693 21.6037 23.3922 21.6037H26.6652ZM39.3713 22.1849C39.3713 22.5058 39.1109 22.7662 38.788 22.7662H29.2941C28.9732 22.7662 28.7128 22.5057 28.7128 22.1849C28.7128 21.8641 28.9733 21.6015 29.2941 21.6015H38.7901C39.1109 21.6036 39.3713 21.864 39.3713 22.1849Z" fill="#169C86" stroke="#169C86" stroke-width="0.4"/>
</svg>
