<svg width="59" height="48" viewBox="0 0 59 48" fill="none" xmlns="http://www.w3.org/2000/svg">
<path d="M51.6739 21.8512H46.6333V16.8106C46.6333 13.0909 43.6084 10.0658 39.8885 10.0658C36.1687 10.0658 33.1438 13.0907 33.1438 16.8106V21.8512H28.1032C24.3835 21.8512 21.3584 24.8761 21.3584 28.596C21.3584 32.3158 24.3833 35.3407 28.1032 35.3407H33.1438V40.3814C33.1438 44.101 36.1687 47.1261 39.8885 47.1261C43.6084 47.1261 46.6333 44.1012 46.6333 40.3814V35.3407H51.6739C55.3936 35.3407 58.4187 32.3158 58.4187 28.596C58.4187 24.8761 55.3938 21.8512 51.6739 21.8512ZM51.6739 33.4538H45.69C45.1703 33.4538 44.7468 33.8747 44.7468 34.397V40.3809C44.7468 43.061 42.5663 45.239 39.8887 45.239C37.2087 45.239 35.0306 43.0584 35.0306 40.3809V34.397C35.0306 33.8772 34.6097 33.4538 34.0874 33.4538H28.1035C25.4235 33.4538 23.2455 31.2732 23.2455 28.5957C23.2455 25.9157 25.426 23.7376 28.1035 23.7376H34.0874C34.6072 23.7376 35.0306 23.3167 35.0306 22.7944V16.8105C35.0306 14.1305 37.2112 11.9524 39.8887 11.9524C42.5688 11.9524 44.7468 14.133 44.7468 16.8105V22.7944C44.7468 23.3142 45.1677 23.7376 45.69 23.7376H51.6739C54.354 23.7376 56.532 25.9182 56.532 28.5957C56.532 31.2758 54.3515 33.4538 51.6739 33.4538ZM30.5504 43.0734C30.918 43.4411 30.918 44.0369 30.5504 44.4071L27.2339 47.7236C27.0488 47.9087 26.8079 48 26.5671 48C26.3262 48 26.0853 47.9087 25.9003 47.7236L5.40828 27.2316C1.79008 23.6134 -0.078603 19.3893 0.00253405 15.0156C0.0735322 11.1211 1.68869 7.40369 4.54621 4.54636C7.40373 1.68904 11.1235 0.076232 15.0155 0.00268933C19.1281 -0.0759098 23.1013 1.56967 26.5649 4.76693C29.3311 2.20858 32.3839 0.661912 35.647 0.167495C38.8038 -0.31172 41.9884 0.243562 44.8584 1.77758C47.6728 3.28115 50.0232 5.67216 51.4785 8.50936C53.0277 11.5317 53.5019 14.8634 52.8502 18.1446C52.7488 18.6542 52.2544 18.9864 51.7422 18.8849C51.2326 18.7835 50.9004 18.2891 51.0019 17.7769C52.1175 12.1455 49.227 6.25024 43.9708 3.44095C38.4865 0.512425 32.2287 1.7472 27.2339 6.74219C26.8662 7.10985 26.2704 7.10985 25.9002 6.74219C18.7244 -0.433569 10.4919 1.26544 5.87686 5.88013C1.26217 10.4948 -0.436645 18.7277 6.73892 25.9035L26.5643 45.7288L29.2164 43.0767C29.5841 42.709 30.1799 42.709 30.5501 43.0767L30.5504 43.0734ZM15.342 5.72246C15.8187 5.93291 16.0342 6.4882 15.8238 6.9649C15.6134 7.44158 15.0581 7.6571 14.5814 7.44665C14.092 7.23113 12.3501 6.59218 10.4738 7.44158C8.11578 8.50902 7.62896 11.0648 7.61117 11.1739C7.53004 11.6303 7.13196 11.9498 6.68569 11.9498C6.62991 11.9498 6.57412 11.9447 6.51835 11.9345C6.00617 11.8433 5.66641 11.3514 5.75767 10.8392C5.82359 10.469 6.50563 7.17283 9.69788 5.72502C12.2867 4.5536 14.6726 5.42583 15.342 5.71995L15.342 5.72246Z" fill="#169C86"/>
</svg>
