<svg width="38" height="46" viewBox="0 0 38 46" fill="none" xmlns="http://www.w3.org/2000/svg">
<path d="M1.57973 27.4847H35.4809C35.648 27.484 35.8079 27.4172 35.9258 27.2988C36.0437 27.1804 36.1098 27.0202 36.1098 26.8531C36.1072 25.3184 35.628 23.8224 34.7384 22.5717C33.8489 21.3211 32.593 20.3775 31.1441 19.8713C31.7896 19.3643 32.2608 18.6686 32.4923 17.8811C32.7239 17.0937 32.7041 16.2536 32.4358 15.4779C32.1676 14.7022 31.6641 14.0294 30.9956 13.5533C30.3271 13.0771 29.5267 12.8212 28.7059 12.8212C27.8851 12.8212 27.0848 13.0771 26.4162 13.5533C25.7477 14.0294 25.2442 14.7022 24.976 15.4779C24.7077 16.2536 24.688 17.0937 24.9195 17.8811C25.151 18.6686 25.6223 19.3643 26.2677 19.8713C25.5154 20.1325 24.8103 20.5138 24.18 21.0004C23.3028 20.1527 22.2466 19.5126 21.0893 19.127C21.8195 18.5878 22.3608 17.8319 22.6362 16.967C22.9117 16.1022 22.9072 15.1724 22.6233 14.3103C22.3395 13.4481 21.7908 12.6976 21.0554 12.1655C20.3201 11.6334 19.4356 11.347 18.5279 11.347C17.6202 11.347 16.7357 11.6334 16.0004 12.1655C15.265 12.6976 14.7163 13.4481 14.4325 14.3103C14.1487 15.1724 14.1441 16.1022 14.4196 16.967C14.695 17.8319 15.2364 18.5878 15.9665 19.127C14.8092 19.5124 13.7531 20.1528 12.8764 21.0009C12.246 20.5142 11.541 20.1327 10.7887 19.8713C11.4344 19.3642 11.906 18.6684 12.1377 17.8807C12.3695 17.093 12.3498 16.2526 12.0815 15.4766C11.8133 14.7006 11.3097 14.0275 10.6409 13.5512C9.97218 13.0748 9.17154 12.8188 8.35046 12.8188C7.52938 12.8188 6.72873 13.0748 6.05998 13.5512C5.39123 14.0275 4.88766 14.7006 4.61938 15.4766C4.35109 16.2526 4.33145 17.093 4.56318 17.8807C4.7949 18.6684 5.26647 19.3642 5.91223 19.8713C4.46396 20.378 3.20873 21.3218 2.31982 22.5724C1.43091 23.8231 0.952185 25.3188 0.949738 26.8531C0.949737 27.0204 1.01606 27.1808 1.13416 27.2992C1.25226 27.4176 1.4125 27.4843 1.57973 27.4847ZM26.0245 16.7721C26.0239 16.2429 26.1796 15.7253 26.4723 15.2843C26.7649 14.8434 27.1813 14.4988 27.6692 14.2938C28.1571 14.0888 28.6947 14.0325 29.2144 14.1322C29.7342 14.2318 30.2129 14.4828 30.5904 14.8537C30.968 15.2245 31.2274 15.6987 31.3363 16.2166C31.4451 16.7345 31.3985 17.273 31.2022 17.7645C31.0059 18.2559 30.6687 18.6784 30.233 18.9788C29.7974 19.2793 29.2826 19.4442 28.7535 19.4529C28.7385 19.4529 28.7241 19.4529 28.7086 19.4529C28.6931 19.4529 28.6781 19.4529 28.6626 19.4529C27.9594 19.4406 27.2891 19.1529 26.7958 18.6516C26.3025 18.1503 26.0256 17.4754 26.0245 16.7721ZM28.7086 20.7204C28.7321 20.7204 28.7545 20.7172 28.778 20.7167C30.2839 20.7353 31.7305 21.3061 32.8435 22.3206C33.9565 23.3351 34.6584 24.7228 34.8162 26.2205H26.6444C26.5248 24.6686 25.9598 23.1843 25.0173 21.9457C26.0622 21.1599 27.3312 20.7293 28.6386 20.7167C28.6621 20.7172 28.6851 20.7204 28.7086 20.7204ZM15.484 15.666C15.4835 15.066 15.6601 14.4793 15.9916 13.9792C16.3231 13.4791 16.7947 13.0879 17.3475 12.8546C17.9002 12.6214 18.5095 12.5563 19.0991 12.6677C19.6886 12.7791 20.2322 13.062 20.6617 13.4808C21.0912 13.8997 21.3876 14.436 21.5138 15.0226C21.64 15.6091 21.5903 16.2199 21.3709 16.7783C21.1516 17.3368 20.7724 17.8181 20.2808 18.162C19.7892 18.5059 19.2071 18.6972 18.6073 18.7118C18.5822 18.7118 18.5576 18.7081 18.5325 18.7081C18.5073 18.7081 18.4828 18.7118 18.4576 18.7118C17.6628 18.6919 16.9071 18.3623 16.3517 17.7934C15.7962 17.2245 15.4849 16.4611 15.484 15.666ZM18.4555 19.9739C18.4817 19.9739 18.5063 19.9777 18.5325 19.9777C18.5586 19.9777 18.5832 19.9739 18.6094 19.9739C20.3107 19.9955 21.944 20.6455 23.1948 21.7989C24.4457 22.9523 25.2257 24.5275 25.3849 26.2215H11.6757C11.8349 24.5273 12.6152 22.9518 13.8664 21.7984C15.1176 20.6449 16.7512 19.9951 18.4528 19.9739H18.4555ZM5.66696 16.7721C5.6663 16.243 5.82203 15.7254 6.11458 15.2845C6.40714 14.8436 6.82346 14.499 7.31126 14.2939C7.79907 14.0889 8.33658 14.0326 8.85629 14.1321C9.37599 14.2316 9.8547 14.4824 10.2323 14.8531C10.6099 15.2238 10.8695 15.6979 10.9785 16.2157C11.0875 16.7335 11.0411 17.2719 10.845 17.7634C10.649 18.2549 10.3121 18.6775 9.8766 18.9781C9.44113 19.2787 8.92654 19.4439 8.39748 19.4529C8.38198 19.4529 8.36702 19.4529 8.35153 19.4529C8.33603 19.4529 8.32214 19.4529 8.30717 19.4529C7.60363 19.441 6.93286 19.1535 6.43912 18.6522C5.94538 18.1508 5.66812 17.4758 5.66696 16.7721ZM8.28259 20.7167C8.30557 20.7167 8.32855 20.7204 8.35153 20.7204C8.3745 20.7204 8.39801 20.7172 8.42153 20.7167C9.72888 20.7292 10.9979 21.1599 12.0428 21.9457C11.1009 23.1846 10.5361 24.6688 10.4162 26.2205H2.24072C2.39786 24.7219 3.10013 23.3332 4.21405 22.3185C5.32797 21.3038 6.77589 20.7337 8.28259 20.7167ZM15.5374 6.72424L14.9213 9.70803C14.8966 9.82657 14.9065 9.94971 14.9497 10.0628C14.9929 10.1759 15.0677 10.2742 15.1652 10.346C15.2627 10.4179 15.3788 10.4602 15.4996 10.4679C15.6204 10.4757 15.7409 10.4486 15.8468 10.3899L18.5608 8.87926L21.2085 10.3867C21.3136 10.4464 21.4336 10.4747 21.5543 10.4683C21.675 10.4618 21.7914 10.4208 21.8895 10.3502C21.9876 10.2796 22.0634 10.1823 22.1079 10.0699C22.1524 9.95749 22.1636 9.83468 22.1404 9.71605L21.5419 6.67027L23.7942 4.61784C23.8836 4.53634 23.9477 4.4309 23.9789 4.31404C24.0101 4.19718 24.0071 4.07381 23.9702 3.95861C23.9334 3.8434 23.8642 3.74121 23.7709 3.66417C23.6777 3.58713 23.5643 3.53849 23.4442 3.52402L20.361 3.14998L19.1053 0.371372C19.0555 0.261054 18.975 0.167389 18.8734 0.101542C18.7719 0.0356963 18.6535 0.000447906 18.5325 0H18.5298C18.4093 4.42422e-05 18.2914 0.0345254 18.1899 0.0993779C18.0884 0.16423 18.0076 0.25675 17.957 0.366028L16.6499 3.18311L13.6218 3.51975C13.5017 3.53326 13.388 3.58092 13.2942 3.6571C13.2004 3.73328 13.1304 3.83476 13.0926 3.94952C13.0547 4.06427 13.0506 4.18748 13.0806 4.30451C13.1107 4.42155 13.1737 4.52751 13.2622 4.60982L15.5374 6.72424ZM17.1432 4.39982C17.251 4.38789 17.354 4.34832 17.442 4.28495C17.5301 4.22157 17.6004 4.13654 17.646 4.03807L18.5228 2.14861L19.357 3.99318C19.4018 4.09197 19.4714 4.17757 19.5589 4.24176C19.6463 4.30594 19.7489 4.34657 19.8566 4.35975L21.925 4.60982L20.4289 5.97348C20.3488 6.04658 20.2889 6.13902 20.2548 6.24195C20.2207 6.34488 20.2137 6.45483 20.2344 6.56126L20.6362 8.60461L18.8771 7.60324C18.7828 7.54967 18.6763 7.52123 18.5679 7.52067C18.4594 7.52011 18.3526 7.54744 18.2578 7.60003L16.4373 8.61529L16.8471 6.6334C16.8694 6.52691 16.8638 6.41649 16.8309 6.31279C16.7981 6.20909 16.7391 6.1156 16.6596 6.04134L15.1313 4.62371L17.1432 4.39982ZM36.4096 28.8623H0.649968C0.565515 28.8598 0.481427 28.8743 0.402683 28.9049C0.323939 28.9356 0.252139 28.9817 0.191533 29.0405C0.130928 29.0994 0.0827498 29.1698 0.0498505 29.2477C0.0169512 29.3255 0 29.4091 0 29.4936C0 29.5781 0.0169512 29.6617 0.0498505 29.7395C0.0827498 29.8174 0.130928 29.8878 0.191533 29.9467C0.252139 30.0055 0.323939 30.0516 0.402683 30.0823C0.481427 30.1129 0.565515 30.1274 0.649968 30.1249H2.50255V30.9302C2.49797 31.3445 2.62706 31.7493 2.87068 32.0844C3.1143 32.4196 3.45947 32.6673 3.85499 32.7908L5.20422 33.229C5.3136 33.2613 5.41279 33.3213 5.49217 33.4032C5.57155 33.4852 5.62845 33.5862 5.65734 33.6965C5.93298 34.651 6.31438 35.5717 6.79444 36.4415C6.85236 36.5394 6.88385 36.6508 6.88582 36.7646C6.88779 36.8784 6.86016 36.9908 6.80566 37.0907L6.16016 38.3566C5.96786 38.7237 5.89904 39.1431 5.96391 39.5525C6.02879 39.9619 6.22391 40.3394 6.52031 40.6291L7.87382 41.9821C8.16346 42.2785 8.54092 42.4736 8.9502 42.5384C9.35948 42.6033 9.77878 42.5345 10.1459 42.3423L11.4117 41.6973C11.512 41.6428 11.6246 41.6152 11.7386 41.6172C11.8527 41.6191 11.9643 41.6506 12.0626 41.7085C12.932 42.1887 13.8523 42.5703 14.8064 42.8462C14.9167 42.8749 15.0177 42.9317 15.0995 43.011C15.1814 43.0903 15.2413 43.1894 15.2735 43.2987L15.7122 44.648C15.8361 45.0433 16.084 45.3882 16.4192 45.6317C16.7544 45.8752 17.159 46.0043 17.5733 45.9999H19.4879C19.9022 46.0045 20.307 45.8755 20.6422 45.6319C20.9774 45.3882 21.225 45.043 21.3485 44.6474L21.7866 43.2987C21.8189 43.1893 21.8789 43.09 21.961 43.0107C22.043 42.9314 22.1442 42.8747 22.2547 42.8462C23.2087 42.5703 24.1288 42.1887 24.9981 41.7085C25.0963 41.6504 25.208 41.6189 25.3221 41.617C25.4362 41.6152 25.5488 41.643 25.6489 41.6978L26.9142 42.3439C27.2814 42.536 27.7006 42.6048 28.1099 42.5399C28.5191 42.4751 28.8966 42.28 29.1863 41.9837L30.5409 40.6307C30.8369 40.3408 31.0316 39.9632 31.0963 39.5539C31.161 39.1445 31.0921 38.7253 30.8999 38.3582L30.255 37.0923C30.2005 36.9923 30.1729 36.8798 30.1748 36.7659C30.1768 36.652 30.2083 36.5406 30.2662 36.4425C30.7465 35.5731 31.128 34.6528 31.4038 33.6987C31.4324 33.5882 31.4891 33.4871 31.5684 33.4052C31.6478 33.3232 31.747 33.2632 31.8564 33.2311L33.2051 32.7924C33.6014 32.6693 33.9473 32.4216 34.1915 32.086C34.4357 31.7505 34.565 31.3451 34.5602 30.9302V30.1249H36.4123C36.4967 30.1274 36.5808 30.1129 36.6596 30.0823C36.7383 30.0516 36.8101 30.0055 36.8707 29.9467C36.9313 29.8878 36.9795 29.8174 37.0124 29.7395C37.0453 29.6617 37.0622 29.5781 37.0622 29.4936C37.0622 29.4091 37.0453 29.3255 37.0124 29.2477C36.9795 29.1698 36.9313 29.0994 36.8707 29.0405C36.8101 28.9817 36.7383 28.9356 36.6596 28.9049C36.5808 28.8743 36.4967 28.8598 36.4123 28.8623H36.4096ZM25.4229 30.1249C25.3809 31.9248 24.6365 33.6368 23.3487 34.895C22.0609 36.1531 20.332 36.8575 18.5317 36.8575C16.7313 36.8575 15.0024 36.1531 13.7146 34.895C12.4268 33.6368 11.6824 31.9248 11.6404 30.1249H25.4229ZM33.2949 30.9302C33.2977 31.0776 33.2523 31.2219 33.1654 31.3411C33.0786 31.4602 32.9552 31.5477 32.814 31.5901L31.4642 32.0283C31.1592 32.1252 30.8831 32.2965 30.6606 32.5266C30.4382 32.7567 30.2764 33.0384 30.1898 33.3465C29.9412 34.2101 29.5969 35.0431 29.1633 35.8302C29.0063 36.1092 28.9213 36.4229 28.916 36.743C28.9107 37.0631 28.9852 37.3794 29.1329 37.6635L29.7778 38.9305C29.8472 39.0603 29.8723 39.2093 29.8492 39.3548C29.8262 39.5002 29.7563 39.6342 29.6501 39.7363L28.2961 41.0898C28.1941 41.1959 28.0602 41.2658 27.9149 41.2888C27.7695 41.3119 27.6206 41.2868 27.4908 41.2175L26.2244 40.573C25.9402 40.4253 25.6237 40.3507 25.3034 40.356C24.9831 40.3612 24.6692 40.4461 24.39 40.603C23.603 41.0377 22.77 41.3833 21.9063 41.6332C21.5981 41.7197 21.3162 41.8815 21.0861 42.104C20.8559 42.3266 20.6848 42.6029 20.5881 42.9081L20.1494 44.2579C20.1071 44.3991 20.0198 44.5226 19.9007 44.6094C19.7816 44.6963 19.6374 44.7417 19.49 44.7388H17.5733C17.4258 44.7416 17.2815 44.6961 17.1623 44.6093C17.043 44.5225 16.9555 44.3991 16.9128 44.2579L16.4741 42.9081C16.3775 42.6031 16.2065 42.327 15.9766 42.1045C15.7467 41.882 15.465 41.7203 15.157 41.6337C14.2931 41.3839 13.4598 41.0381 12.6728 40.603C12.3935 40.4463 12.0796 40.3615 11.7594 40.3563C11.4392 40.3511 11.1227 40.4256 10.8384 40.573L9.57251 41.218C9.44262 41.2874 9.29362 41.3125 9.14817 41.2894C9.00272 41.2664 8.86878 41.1964 8.76671 41.0903L7.41535 39.7363C7.30896 39.6343 7.23887 39.5004 7.21581 39.3549C7.19275 39.2093 7.21798 39.0603 7.28764 38.9305L7.93313 37.6641C8.08073 37.3798 8.15514 37.0633 8.14964 36.7431C8.14414 36.4229 8.05889 36.1091 7.9016 35.8302C7.4668 35.0428 7.12159 34.2092 6.87245 33.3449C6.78471 33.0373 6.62202 32.7562 6.39895 32.5269C6.17588 32.2975 5.8994 32.1272 5.59429 32.031L4.24506 31.5923C4.10381 31.5501 3.98028 31.4628 3.89342 31.3437C3.80655 31.2246 3.76114 31.0803 3.76415 30.9329V30.1249H10.382C10.4066 32.27 11.276 34.3188 12.8015 35.827C14.327 37.3351 16.3857 38.181 18.5309 38.181C20.676 38.181 22.7347 37.3351 24.2602 35.827C25.7857 34.3188 26.6551 32.27 26.6797 30.1249H33.2949V30.9302Z" fill="#169C86"/>
</svg>
