<svg width="40" height="47" viewBox="0 0 40 47" fill="none" xmlns="http://www.w3.org/2000/svg">
<path d="M2.68534 0.25C1.34885 0.25 0.25 1.36099 0.25 2.71017V43.7898C0.25 45.1411 1.34885 46.25 2.68534 46.25H36.8147C38.1511 46.25 39.25 45.139 39.25 43.7898L39.248 2.71017C39.248 1.35894 38.1491 0.25 36.8126 0.25H2.68534ZM2.68534 1.89285H36.8147C37.2798 1.89285 37.6231 2.24195 37.6231 2.71017V43.7877C37.6231 44.258 37.2778 44.605 36.8147 44.605L2.68534 44.6071C2.22021 44.6071 1.87694 44.258 1.87694 43.7898L1.87491 2.71012C1.87491 2.23986 2.2202 1.8928 2.6833 1.8928L2.68534 1.89285ZM4.31227 3.5357H4.31024C3.86542 3.53775 3.50387 3.90329 3.50184 4.35507V9.28567V9.28362C3.50387 9.73541 3.86542 10.1009 4.31024 10.103C4.52554 10.103 4.73272 10.0167 4.8871 9.86478C5.03943 9.71076 5.12677 9.5013 5.12677 9.2836V5.17853H9.18702C9.40232 5.17853 9.60949 5.09023 9.76184 4.93621C9.91215 4.78219 9.99745 4.57273 9.99745 4.35503C9.99542 3.90325 9.63388 3.53771 9.18703 3.53566L4.31227 3.5357ZM30.3129 3.5357H30.3109C29.866 3.53775 29.5045 3.90329 29.5025 4.35507C29.5025 4.57275 29.5857 4.78221 29.7381 4.93625C29.8904 5.09027 30.0956 5.17857 30.3109 5.17857H34.3711V9.28364H34.3732C34.3732 9.50132 34.4605 9.71078 34.6128 9.86482C34.7652 10.0168 34.9723 10.103 35.1877 10.103C35.6345 10.101 35.9961 9.73545 35.9981 9.28366V4.35511C35.9961 3.90332 35.6345 3.53779 35.1877 3.53574L30.3129 3.5357ZM19.7492 8.4663C19.5339 8.4663 19.3267 8.5505 19.1743 8.70451C19.02 8.85853 18.9347 9.06594 18.9326 9.28363V12.5632C15.4919 12.4893 12.0493 11.9554 8.59822 10.9573C8.39104 10.8977 8.16761 10.9224 7.97872 11.0292C7.78983 11.1339 7.64968 11.3126 7.59078 11.522C7.53187 11.7335 7.55625 11.9574 7.66187 12.1484C7.76546 12.3414 7.94216 12.481 8.14934 12.5406C11.7383 13.5777 15.3353 14.1321 18.9325 14.204V17.4917C15.2155 17.4219 11.4964 16.886 7.77132 15.8817C7.56414 15.8242 7.34072 15.855 7.15386 15.9639C6.96699 16.0727 6.83091 16.2534 6.77607 16.465C6.71919 16.6744 6.74966 16.8983 6.85731 17.0872C6.96496 17.2761 7.1437 17.4137 7.35088 17.4691C11.208 18.5103 15.0693 19.0648 18.9322 19.1326V22.4203C15.2152 22.3525 11.4961 21.8166 7.77101 20.8124C7.56384 20.7549 7.34042 20.7857 7.15355 20.8945C6.96668 21.0033 6.8306 21.1841 6.77576 21.3935C6.71888 21.605 6.74935 21.8289 6.857 22.0178C6.96465 22.2067 7.14339 22.3443 7.35057 22.3998C11.2077 23.4409 15.069 23.9933 18.9319 24.0632V27.3509C15.2149 27.2831 11.4958 26.7472 7.77071 25.743C7.56353 25.6855 7.34011 25.7142 7.15324 25.8231C6.96637 25.9319 6.83029 26.1126 6.77545 26.3241C6.71858 26.5336 6.74702 26.7595 6.8567 26.9484C6.96435 27.1373 7.14309 27.2749 7.35026 27.3304C11.2074 28.3695 15.0687 28.9239 18.9316 28.9938V32.2754C15.4908 32.2035 12.0482 31.6675 8.59715 30.6715C8.38998 30.6099 8.16655 30.6366 7.97766 30.7414C7.78877 30.8481 7.64862 31.0247 7.58972 31.2363C7.53081 31.4457 7.55519 31.6716 7.66081 31.8626C7.7644 32.0536 7.9411 32.1953 8.14828 32.2548C11.7373 33.2919 15.3343 33.8463 18.9314 33.9182V37.2162C18.9335 37.4339 19.0188 37.6413 19.1731 37.7954C19.3255 37.9494 19.5326 38.0336 19.748 38.0336C20.1948 38.0315 20.5564 37.666 20.5564 37.2162V33.9182C24.1556 33.8464 27.7569 33.2919 31.3478 32.2548C31.557 32.1953 31.7317 32.0536 31.8373 31.8626C31.9409 31.6716 31.9653 31.4457 31.9064 31.2363C31.8475 31.0248 31.7074 30.8482 31.5185 30.7414C31.3296 30.6366 31.1061 30.6099 30.899 30.6715C27.446 31.6696 24.001 32.2056 20.5583 32.2774V28.9938C24.4236 28.926 28.2887 28.3716 32.1479 27.3324L32.1459 27.3304C32.3551 27.2749 32.5338 27.1373 32.6415 26.9484C32.7491 26.7574 32.7776 26.5336 32.7207 26.3241C32.6049 25.8847 32.1601 25.6259 31.7254 25.743C27.9983 26.7472 24.2774 27.2852 20.5565 27.353V24.0632C24.4217 23.9954 28.2889 23.4409 32.1461 22.3997C32.5808 22.2827 32.8367 21.833 32.7209 21.3935C32.6661 21.184 32.53 21.0033 32.3431 20.8945C32.1563 20.7856 31.9349 20.7548 31.7257 20.8123C27.9985 21.8165 24.2776 22.3525 20.5567 22.4203V19.1325C24.4219 19.0647 28.2892 18.5103 32.1463 17.4691C32.581 17.3521 32.8369 16.9023 32.7211 16.4649C32.6663 16.2534 32.5302 16.0727 32.3434 15.9638C32.1565 15.855 31.9351 15.8262 31.7259 15.8817C27.9987 16.8859 24.2778 17.4239 20.5569 17.4917V14.206C24.1581 14.1321 27.7575 13.5796 31.3484 12.5405C31.5576 12.481 31.7323 12.3393 31.8379 12.1483C31.9415 11.9573 31.9659 11.7314 31.907 11.522C31.8481 11.3125 31.7079 11.1338 31.519 11.0291C31.3301 10.9223 31.1067 10.8977 30.8995 10.9572C27.4466 11.9552 24.0016 12.4892 20.5568 12.5631V9.28358C20.5568 8.83385 20.1952 8.4683 19.7484 8.46625L19.7492 8.4663ZM4.31071 36.3884C4.09541 36.3905 3.88824 36.4767 3.73791 36.6328C3.58558 36.7868 3.50027 36.9963 3.5023 37.216V42.1446C3.50433 42.5943 3.86588 42.9599 4.3107 42.9619H9.18746C9.63431 42.9599 9.99585 42.5943 9.99788 42.1446C9.99788 41.9269 9.91258 41.7174 9.76227 41.5614C9.60994 41.4073 9.40276 41.3211 9.18745 41.319H5.1272V37.216C5.12923 36.9963 5.04392 36.7848 4.88956 36.6307C4.73722 36.4747 4.52806 36.3884 4.31071 36.3884ZM35.1881 36.3884C34.9728 36.3884 34.7636 36.4747 34.6113 36.6308C34.4569 36.7848 34.3716 36.9963 34.3736 37.216V41.3211L30.3114 41.3191C30.0961 41.3211 29.8909 41.4074 29.7386 41.5614C29.5862 41.7174 29.503 41.9269 29.503 42.1446C29.505 42.5943 29.8665 42.9599 30.3114 42.9619H35.1881C35.635 42.9599 35.9965 42.5943 35.9985 42.1446V37.216C35.9985 36.9963 35.9153 36.7868 35.7629 36.6328C35.6106 36.4767 35.4055 36.3905 35.1881 36.3884Z" fill="#169C86" stroke="#169C86" stroke-width="0.5"/>
</svg>
