<svg width="189" height="188" viewBox="0 0 189 188" fill="none" xmlns="http://www.w3.org/2000/svg">
<g opacity="0.1">
<path d="M104.97 178.206C125.422 165.336 141.458 139.864 128.97 115.822C123.182 104.635 110.477 96.9132 97.7403 98.3804C87.8548 99.5214 80.6387 108.727 87.1472 117.641C89.5217 120.651 92.5817 123.048 96.0717 124.634C99.5616 126.22 103.38 126.948 107.209 126.757C136.416 125.497 138.074 89.4116 128.11 69.5279C116.576 46.4486 93.6203 30.9317 68.4605 26.8789C64.8115 26.2868 65.4026 20.5712 69.0516 21.1633C96.3311 25.5629 120.948 42.2768 133.388 67.2568C143.544 87.5902 143.23 116.257 121.15 128.692C116.443 131.34 111.113 132.681 105.713 132.574C100.313 132.468 95.04 130.919 90.4405 128.088C82.9793 123.507 76.0228 114.168 78.9411 104.962C82.2137 94.4023 95.7454 91.5955 105.367 92.8489C110.698 93.5923 115.813 95.452 120.376 98.3065C124.939 101.161 128.849 104.946 131.85 109.415C149.443 135.783 132.433 167.686 108.519 182.714C105.434 184.65 101.835 180.177 104.97 178.206Z" fill="#F08B03"/>
<path d="M95.7358 19.4264C85.7323 20.3192 75.7897 21.7973 65.9591 23.8532L68.1439 19.8787C73.4099 30.4862 77.7319 41.5367 81.0599 52.9023C82.0737 56.4017 76.7882 58.7149 75.7817 55.1733C72.4637 43.8102 68.1467 32.763 62.881 22.161C62.712 21.7571 62.6364 21.3203 62.6598 20.8831C62.6832 20.4459 62.805 20.0196 63.0161 19.636C63.2272 19.2524 63.5222 18.9215 63.8791 18.6678C64.2359 18.4142 64.6455 18.2444 65.0771 18.1711C74.8866 16.1028 84.8085 14.6095 94.7922 13.6989C98.4515 13.3724 99.3488 19.0659 95.6587 19.3697L95.7358 19.4264Z" fill="#F08B03"/>
</g>
</svg>
