<svg width="16" height="16" viewBox="0 0 16 16" fill="none" xmlns="http://www.w3.org/2000/svg">
<path d="M15 1.49648L10.9965 1.4965V0.5C10.9965 0.22375 10.7727 0 10.4965 0C10.2203 0 9.9965 0.22375 9.9965 0.5V1.49625H5.9965V0.5C5.9965 0.22375 5.77275 0 5.4965 0C5.22025 0 4.9965 0.22375 4.9965 0.5V1.49625H1C0.44775 1.49625 0 1.944 0 2.49625V14.9963C0 15.5485 0.44775 15.9963 1 15.9963H15C15.5522 15.9963 16 15.5485 16 14.9963V2.49625C16 1.94423 15.5522 1.49648 15 1.49648ZM15 14.9963H1V2.49625H4.9965V3C4.9965 3.27623 5.22025 3.5 5.4965 3.5C5.77275 3.5 5.9965 3.27623 5.9965 3V2.4965H9.9965V3.00025C9.9965 3.2765 10.2203 3.50025 10.4965 3.50025C10.7727 3.50025 10.9965 3.2765 10.9965 3.00025V2.4965H15V14.9963ZM11.5 7.99648H12.5C12.776 7.99648 13 7.77248 13 7.49648V6.49648C13 6.22048 12.776 5.99648 12.5 5.99648H11.5C11.224 5.99648 11 6.22048 11 6.49648V7.49648C11 7.77248 11.224 7.99648 11.5 7.99648ZM11.5 11.9962H12.5C12.776 11.9962 13 11.7725 13 11.4962V10.4962C13 10.2202 12.776 9.99623 12.5 9.99623H11.5C11.224 9.99623 11 10.2202 11 10.4962V11.4962C11 11.7727 11.224 11.9962 11.5 11.9962ZM8.5 9.99623H7.5C7.224 9.99623 7 10.2202 7 10.4962V11.4962C7 11.7725 7.224 11.9962 7.5 11.9962H8.5C8.776 11.9962 9 11.7725 9 11.4962V10.4962C9 10.2205 8.776 9.99623 8.5 9.99623ZM8.5 5.99648H7.5C7.224 5.99648 7 6.22048 7 6.49648V7.49648C7 7.77248 7.224 7.99648 7.5 7.99648H8.5C8.776 7.99648 9 7.77248 9 7.49648V6.49648C9 6.22023 8.776 5.99648 8.5 5.99648ZM4.5 5.99648H3.5C3.224 5.99648 3 6.22048 3 6.49648V7.49648C3 7.77248 3.224 7.99648 3.5 7.99648H4.5C4.776 7.99648 5 7.77248 5 7.49648V6.49648C5 6.22023 4.776 5.99648 4.5 5.99648ZM4.5 9.99623H3.5C3.224 9.99623 3 10.2202 3 10.4962V11.4962C3 11.7725 3.224 11.9962 3.5 11.9962H4.5C4.776 11.9962 5 11.7725 5 11.4962V10.4962C5 10.2205 4.776 9.99623 4.5 9.99623Z" fill="#F08B03"/>
</svg>
