<svg width="12" height="7" viewBox="0 0 12 7" fill="none" xmlns="http://www.w3.org/2000/svg">
<path d="M5.65397 6.58445C5.79301 6.57304 5.9247 6.50845 6.02801 6.40104L11.0155 1.24816C11.0764 1.18531 11.1259 1.10931 11.1612 1.02449C11.1965 0.939667 11.2169 0.847691 11.2213 0.753814C11.2256 0.659937 11.2138 0.565996 11.1865 0.477359C11.1593 0.388719 11.1171 0.307115 11.0623 0.237209C11.0075 0.167304 10.9413 0.110464 10.8674 0.0699365C10.7935 0.029406 10.7134 0.00598347 10.6316 0.00100443C10.5499 -0.00397382 10.468 0.00958733 10.3908 0.0409158C10.3136 0.0722442 10.2425 0.120723 10.1816 0.183588L5.61109 4.90707L1.04054 0.183587C0.979668 0.120722 0.908579 0.0722438 0.831375 0.0409153C0.754171 0.00958691 0.672341 -0.00397426 0.590557 0.00100399C0.508773 0.00598303 0.42866 0.0294056 0.354754 0.069936C0.280871 0.110464 0.214638 0.167304 0.159902 0.237208C0.105142 0.307115 0.0629091 0.388718 0.0356331 0.477358C0.00835607 0.565996 -0.00343802 0.659936 0.000889745 0.753814C0.00524136 0.847691 0.025671 0.939666 0.0609636 1.02449C0.0962791 1.10931 0.145817 1.18531 0.206714 1.24816L5.19418 6.40104C5.25618 6.46545 5.32885 6.51488 5.40784 6.54638C5.48683 6.57789 5.57053 6.59083 5.65397 6.58445Z" fill="black"/>
</svg>
