<svg width="419" height="93" viewBox="0 0 419 93" fill="none" xmlns="http://www.w3.org/2000/svg">
<path d="M115.156 16.653C114.976 16.6079 114.795 16.5627 114.524 16.5176C114.795 16.5176 114.976 16.5627 115.156 16.653Z" fill="white"/>
<path d="M88.0267 41.7513C88.0267 42.5187 87.5301 42.4736 87.0787 42.5639C83.0159 43.1958 79.0434 44.189 75.2967 45.8141C70.2408 48.0712 65.8169 51.2311 61.8444 55.1133C61.3479 55.6098 60.9416 56.1515 60.445 56.6932C59.9485 56.1967 59.4971 55.655 59.0005 55.1584C52.139 48.342 43.9232 44.2341 34.3983 42.5639C34.308 42.5639 34.1725 42.5187 34.0823 42.5187C32.2314 42.293 32.2314 42.293 32.2314 40.3971V36.1086C32.2314 34.2578 32.2314 32.407 32.2314 30.5562C32.2314 29.9242 32.3217 29.7436 32.9989 29.9242C41.5758 32.3167 50.1527 34.6641 58.7297 37.0114C59.7679 37.2823 60.7159 37.2823 61.709 36.9663C69.0671 34.7092 76.3801 32.3618 83.8736 30.5562C85.0022 30.2853 86.0856 30.0596 87.2141 29.8339C87.7558 29.6985 88.0718 29.7887 88.0718 30.4659C87.9815 34.2578 87.9815 38.0045 88.0267 41.7513Z" fill="white"/>
<path d="M23.8804 64.9551C23.9255 63.5557 23.9255 62.2015 23.9255 60.8021C23.9255 60.2604 24.1061 60.125 24.6026 60.2152C29.9745 60.8472 35.2561 61.9306 40.3571 63.7814C40.628 63.8717 40.8988 63.9169 41.0342 64.2328C42.2079 64.1877 43.1559 64.8197 44.149 65.226C47.0381 66.4899 49.8369 67.9796 52.41 69.8756C53.2677 70.5075 53.8545 71.1395 53.6739 72.3132C53.5385 73.3966 53.6288 74.5252 53.6288 75.6086C53.0419 75.6086 52.5905 75.3377 52.2294 75.0669C48.3472 72.3132 44.0136 70.4173 39.5446 68.9276C39.4543 68.8825 39.364 68.7922 39.2737 68.747C35.211 67.5733 31.1031 66.6254 26.9049 66.0837C26.1375 65.9934 25.3701 65.8579 24.6026 65.8128C24.0158 65.7677 23.8804 65.4968 23.8804 64.9551Z" fill="white"/>
<path d="M108.069 39.4949C107.753 44.1445 107.934 48.8393 107.934 53.4889C107.889 61.479 107.934 69.4691 107.934 77.414C107.934 78.3168 107.753 78.4974 106.805 78.4523C104.368 78.2266 101.885 78.5425 99.4473 78.678C98.8604 78.7231 98.2285 78.8134 97.6416 78.7683C97.5062 78.678 97.3708 78.6328 97.2353 78.6328C97.3708 78.678 97.5062 78.678 97.6416 78.7683C89.0647 79.7614 80.8037 81.9282 72.9942 85.7652C72.8137 85.8555 72.5879 85.9458 72.4074 85.9909C72.2268 86.0812 72.0011 86.1715 71.8205 86.2618C71.4594 86.4423 71.0983 86.6681 70.692 86.8486C68.0286 88.3835 65.4555 90.0537 62.8825 91.8142C60.5351 93.4393 59.4066 93.3942 57.1043 91.6788C53.6284 89.1057 49.8365 86.9389 45.9543 85.0881C45.6383 84.9527 45.3223 84.7721 45.0063 84.5916C43.9681 84.1401 42.8847 83.6887 41.8464 83.2373C41.3498 83.1019 40.8533 82.9664 40.4019 82.6956L40.3567 82.6504C37.6934 81.8379 35.03 80.9351 32.2764 80.3934C29.613 79.8517 26.9045 79.4454 24.1508 79.3551C24.0154 79.3551 23.8349 79.31 23.6994 79.2648C23.6091 79.2648 23.5189 79.2197 23.4286 79.2197C20.9909 79.2197 18.5081 79.3551 16.0705 78.8134C14.4905 78.4523 13.8134 77.73 13.678 76.15C13.6328 75.5181 13.6328 74.8861 13.6328 74.209C13.6328 61.1178 13.678 48.0719 13.6328 34.9808C13.6328 34.0779 13.8585 33.8071 14.7614 33.8522C16.2059 33.8974 17.6956 33.9425 19.1401 33.8522C20.1332 33.8071 20.1332 34.3036 20.1332 35.0259C20.1332 46.0405 20.1332 57.0551 20.1332 68.0245C20.1332 69.0176 20.1784 70.0108 20.1332 71.0039C20.0881 71.6359 20.3138 71.9519 20.9458 71.9067C21.5326 71.9519 22.1195 71.8164 22.6612 72.0873C23.6994 72.313 24.7828 72.2678 25.8662 72.3581C30.1547 72.7644 34.398 73.6221 38.5511 74.7506C41.395 75.518 44.0584 76.6917 46.812 77.73C51.0553 79.4454 55.0278 81.6122 58.7746 84.2304C59.858 84.9978 60.5802 84.9978 61.6636 84.2304C64.2367 82.3796 66.9904 80.7545 69.9246 79.4454C72.9039 77.8203 76.0639 76.6466 79.2238 75.6083C83.5122 74.1638 87.8459 73.1256 92.36 72.629C94.3011 72.2679 96.2874 72.0421 98.2736 71.997C101.343 71.9067 101.343 71.9519 101.343 68.9274C101.343 57.6871 101.343 46.4016 101.343 35.1613C101.343 33.7619 101.343 33.7619 102.788 33.7168C103.6 33.7168 104.413 33.7168 105.225 33.7168C106.58 33.7168 107.392 34.3036 107.799 35.6579C108.115 36.8316 108.16 38.1407 108.069 39.4949Z" fill="white"/>
<path d="M23.8804 52.1801C23.8804 51.6384 24.0158 51.3224 24.6478 51.3675C29.1168 51.3675 33.4956 52.0447 37.784 53.3538C39.364 53.8955 40.9891 54.3469 42.5691 54.9789C46.4513 56.5588 49.9723 58.7708 53.2677 61.2987C53.6288 61.5696 53.6739 61.8404 53.6739 62.2016C53.6739 63.3301 53.6739 64.4587 53.6739 65.6324C53.6739 65.9032 53.8545 66.2643 53.5385 66.3997C53.2677 66.5352 52.9968 66.2643 52.7711 66.0838C50.4689 64.3684 47.9409 62.9238 45.3227 61.7502C43.4268 60.8925 41.4405 60.1702 39.4994 59.4028C36.1589 58.4548 32.8184 57.5068 29.3425 57.1457C27.8077 56.9651 26.318 56.7846 24.7832 56.8297C24.1512 56.8297 23.9255 56.6491 23.9255 55.972C23.9707 54.6629 23.9255 53.3989 23.8804 52.1801Z" fill="white"/>
<path d="M66.4035 65.948C66.2681 64.5034 66.3584 63.0589 66.4487 61.5692C66.4487 61.2984 66.6292 61.2081 66.8098 61.0727C69.8794 59.0413 72.8588 56.8294 76.3347 55.4751C77.5084 55.0237 78.7272 54.5723 79.9009 54.166C83.0608 52.902 86.3562 52.3152 89.6967 51.8638C91.5023 51.6381 93.2629 51.3672 95.1137 51.3672C95.836 51.3672 96.1068 51.5478 96.1971 52.3152C96.3325 53.5791 96.1068 54.8883 96.1519 56.1522C96.1519 56.7391 95.8359 56.7391 95.3845 56.7842C92.36 56.8745 89.3807 57.2808 86.4013 57.8676C84.054 58.319 81.7517 59.0864 79.4044 59.7636C79.4495 59.6733 79.4495 59.583 79.4946 59.4927C79.4495 59.583 79.4044 59.6733 79.4044 59.7636C76.1993 60.9373 73.1296 62.3818 70.1954 64.0972C69.112 64.7292 68.0738 65.3611 67.1709 66.264C66.7647 66.7605 66.4938 66.5348 66.4035 65.948Z" fill="white"/>
<path d="M67.3064 75.9692C70.3761 73.6219 73.8068 71.8162 77.3279 70.1911C81.4358 68.4757 85.5888 67.0312 89.9676 66.1735C91.8184 65.9478 93.6692 65.6769 95.5652 65.7221C95.836 65.7221 96.152 65.7221 96.1972 65.3158C96.3777 63.781 96.5583 62.2913 96.1972 60.7565C96.1069 60.3502 95.8812 60.1696 95.4297 60.2148C92.9018 60.6662 90.2836 60.9822 87.8008 61.6142C86.8979 61.6142 86.0403 61.8399 85.1826 62.0656C82.2032 62.7878 79.2238 63.6004 76.4702 65.0449C76.1993 65.1352 75.9285 65.2255 75.7028 65.3158C73.3103 66.4895 71.1886 68.1146 68.8864 69.4688C66.4487 70.8682 66.1327 73.0802 66.4036 75.5178C66.4487 76.1047 66.7196 76.4207 67.3064 75.9692ZM88.0265 61.7496C87.9813 61.7496 87.9362 61.7045 87.8911 61.7045C87.9814 61.7045 87.9813 61.7496 88.0265 61.7496Z" fill="white"/>
<path d="M112.403 20.0387C102.562 22.8375 92.7212 25.6814 82.8351 28.4802C76.741 30.1956 70.6017 31.8207 64.5527 33.6715C61.0768 34.7098 57.7363 34.4389 54.3055 33.4458C41.9367 29.8796 29.5679 26.494 17.199 23.0181C12.2334 21.6187 7.22268 20.3096 2.25709 18.9102C1.53482 18.7296 0.722268 18.5491 0 17.9622C1.35425 17.5559 2.61822 17.24 3.83705 16.8788C11.1049 14.6669 18.3276 12.4549 25.5954 10.243C32.8632 8.03103 40.1762 5.77395 47.444 3.47172C50.6942 2.43346 53.8993 1.3049 57.1946 0.356923C59.4066 -0.275061 61.5282 -0.00420518 63.695 0.672921C79.0884 5.68366 94.6171 10.243 110.101 15.028C111.59 15.4794 113.08 15.976 114.57 16.4725C114.795 16.5177 115.021 16.5628 115.202 16.608C116.285 16.8788 116.285 17.0594 116.285 18.549C116.285 24.5078 116.285 30.4213 116.24 36.38C116.24 36.7412 116.466 37.2829 115.969 37.4183C115.337 37.5989 114.615 37.644 113.983 37.5989C113.667 37.5537 113.802 37.0572 113.802 36.7412C113.802 31.8659 113.802 26.9906 113.802 22.1153V21.2576C113.802 19.9033 113.802 19.9033 112.403 20.0387Z" fill="white"/>
<path d="M119.851 52.5856C116.285 52.2245 112.673 52.405 108.972 52.3148C109.559 50.8251 110.461 49.6965 111.274 48.5228C111.635 47.9811 111.996 47.4394 112.448 47.0332C113.666 45.9498 113.982 44.5504 113.847 43.0155C113.802 42.4287 113.802 41.7967 113.847 41.2099C113.892 40.7585 113.531 40.1265 114.073 39.9459C114.66 39.7653 115.337 39.8556 115.969 39.9008C116.33 39.9008 116.285 40.2619 116.24 40.4876C115.698 44.1892 117.233 47.1234 119.445 49.8771C119.851 50.4188 120.167 51.0056 120.483 51.5925C120.709 52.1342 120.528 52.6307 119.851 52.5856Z" fill="white"/>
<path d="M87.8908 61.7043C87.8457 61.7043 87.8005 61.6592 87.7554 61.6592C87.8005 61.6592 87.8457 61.6592 87.8908 61.7043Z" fill="white"/>
<path d="M87.8908 61.7043C87.8457 61.7043 87.8005 61.6592 87.7554 61.6592C87.8005 61.6592 87.8457 61.6592 87.8908 61.7043Z" fill="white"/>
<path d="M154.385 50.2384H147.659L139.895 39.9009L137.908 42.3386V50.2384H132.446V24.5527H137.908V35.9736L146.982 24.5527H153.708L143.506 36.6056L154.385 50.2384Z" fill="white"/>
<path d="M172.351 50.2384H158.402V24.5527H171.945C174.292 24.5527 176.098 25.1847 177.407 26.4487C178.716 27.7126 179.348 29.2475 179.348 31.0983C179.348 32.6331 178.942 33.9422 178.084 35.0256C177.226 36.109 176.188 36.741 174.924 37.0118C176.324 37.2376 177.497 37.9147 178.445 39.1335C179.393 40.3072 179.89 41.7066 179.89 43.3317C179.89 45.3631 179.258 47.0333 177.949 48.3424C176.594 49.6064 174.744 50.2384 172.351 50.2384ZM170.726 34.7548C171.629 34.7548 172.396 34.5291 172.938 34.0325C173.48 33.5359 173.751 32.9039 173.751 32.0463C173.751 31.2337 173.48 30.6017 172.938 30.1052C172.396 29.6086 171.674 29.3377 170.726 29.3377H163.864V34.7548H170.726ZM170.952 45.4534C171.99 45.4534 172.803 45.1825 173.344 44.6859C173.931 44.1894 174.202 43.4671 174.202 42.5191C174.202 41.6615 173.931 40.9843 173.344 40.3975C172.757 39.8558 171.945 39.5849 170.952 39.5849H163.864V45.4534H170.952Z" fill="white"/>
<path d="M195.69 50.2384H185.533V24.5527H195.644C199.662 24.5527 202.957 25.7264 205.485 28.1189C208.013 30.4663 209.277 33.5811 209.277 37.4181C209.277 41.3003 208.013 44.4151 205.485 46.7625C202.957 49.0647 199.707 50.2384 195.69 50.2384ZM195.644 45.4534C198.127 45.4534 200.068 44.6859 201.513 43.1511C202.957 41.6163 203.68 39.6752 203.68 37.4181C203.68 35.0708 202.957 33.1748 201.558 31.64C200.159 30.1503 198.172 29.3829 195.644 29.3829H190.95V45.4534H195.644Z" fill="white"/>
<path d="M250.085 50.2384H243.901L242.276 45.9048H231.261L229.636 50.2384H223.452L233.338 24.5527H240.199L250.085 50.2384ZM240.786 41.0746L236.768 30.0149L232.751 41.0746H240.786Z" fill="white"/>
<path d="M265.208 50.7348C261.281 50.7348 258.03 49.5159 255.412 47.0332C252.794 44.5504 251.485 41.3453 251.485 37.4631C251.485 33.5358 252.794 30.3307 255.412 27.893C258.03 25.4102 261.281 24.1914 265.208 24.1914C269.993 24.1914 273.559 26.2679 275.907 30.4661L271.212 32.7683C270.625 31.6849 269.812 30.7821 268.729 30.105C267.646 29.3827 266.472 29.0667 265.208 29.0667C262.861 29.0667 260.92 29.8793 259.43 31.4592C257.895 33.0392 257.128 35.0706 257.128 37.5082C257.128 39.9459 257.895 41.9773 259.43 43.5572C260.965 45.1372 262.906 45.9497 265.208 45.9497C266.472 45.9497 267.646 45.5886 268.729 44.9115C269.812 44.1892 270.67 43.3315 271.212 42.2481L275.907 44.5052C273.514 48.6131 269.948 50.7348 265.208 50.7348Z" fill="white"/>
<path d="M304.436 50.2384H298.252L296.627 45.9048H285.612L283.987 50.2384H277.803L287.689 24.5527H294.55L304.436 50.2384ZM295.092 41.0746L291.074 30.0149L287.057 41.0746H295.092Z" fill="white"/>
<path d="M318.52 50.2384H308.363V24.5527H318.475C322.492 24.5527 325.788 25.7264 328.315 28.1189C330.843 30.4663 332.107 33.5811 332.107 37.4181C332.107 41.3003 330.843 44.4151 328.315 46.7625C325.833 49.0647 322.537 50.2384 318.52 50.2384ZM318.475 45.4534C320.957 45.4534 322.898 44.6859 324.343 43.1511C325.788 41.6163 326.51 39.6752 326.51 37.4181C326.51 35.0708 325.788 33.1748 324.388 31.64C322.989 30.1503 321.002 29.3829 318.475 29.3829H313.78V45.4534H318.475Z" fill="white"/>
<path d="M355.718 50.2384H337.525V24.5527H355.718V29.3829H342.988V34.7548H355.447V39.5849H342.988V45.4534H355.718V50.2384Z" fill="white"/>
<path d="M389.393 50.2384H383.886V31.7303L376.663 50.2384H374.271L367.048 31.7303V50.2384H361.586V24.5527H369.26L375.49 40.6232L381.719 24.5527H389.438V50.2384H389.393Z" fill="white"/>
<path d="M408.668 50.2384H403.206V39.7204L393.365 24.5527H399.595L405.96 34.845L412.325 24.5527H418.509L408.668 39.7204V50.2384Z" fill="white"/>
<path d="M132.446 68.7451V60.5293H133.394L137.096 66.7137H136.599L140.211 60.5293H141.159V68.7451H140.03V62.2898H140.301L137.051 67.7068H136.554L133.304 62.2898H133.575V68.7451H132.446Z" fill="white"/>
<path d="M145.763 68.8359C145.311 68.8359 144.905 68.7456 144.544 68.6102C144.183 68.4748 143.912 68.2491 143.731 67.9782C143.551 67.7074 143.46 67.3914 143.46 67.0302C143.46 66.7143 143.551 66.3983 143.686 66.1274C143.867 65.8566 144.092 65.6309 144.454 65.4503C144.815 65.2697 145.311 65.2246 145.943 65.2246H147.929V66.0371H146.034C145.492 66.0371 145.086 66.1274 144.905 66.308C144.724 66.4886 144.634 66.7143 144.634 66.9851C144.634 67.3011 144.77 67.5268 144.995 67.7074C145.221 67.8879 145.582 67.9782 145.988 67.9782C146.395 67.9782 146.801 67.8879 147.117 67.7074C147.433 67.5268 147.659 67.256 147.794 66.8948L148.02 67.6622C147.884 68.0234 147.614 68.3394 147.252 68.5199C146.801 68.7005 146.35 68.8359 145.763 68.8359ZM147.794 68.7456V67.4365L147.749 67.2108V64.9537C147.749 64.4572 147.613 64.096 147.343 63.8252C147.072 63.5543 146.666 63.4189 146.079 63.4189C145.718 63.4189 145.356 63.4641 144.995 63.5995C144.634 63.7349 144.363 63.8703 144.092 64.096L143.641 63.2383C143.957 62.9675 144.363 62.7869 144.815 62.6515C145.266 62.5161 145.718 62.4258 146.214 62.4258C147.072 62.4258 147.704 62.6515 148.2 63.0578C148.652 63.4641 148.877 64.096 148.877 64.9537V68.7005H147.794V68.7456Z" fill="white"/>
<path d="M153.211 68.8355C152.715 68.8355 152.218 68.7452 151.722 68.6098C151.27 68.4743 150.909 68.2938 150.638 68.1132L151.09 67.2104C151.36 67.3909 151.676 67.5264 152.083 67.6618C152.489 67.7972 152.85 67.8423 153.256 67.8423C153.798 67.8423 154.159 67.7521 154.385 67.6166C154.611 67.4812 154.746 67.2555 154.746 66.9847C154.746 66.8041 154.656 66.6235 154.52 66.5333C154.385 66.443 154.204 66.3527 153.979 66.3075C153.753 66.2624 153.482 66.2172 153.211 66.1721C152.94 66.127 152.67 66.0818 152.354 65.9915C152.083 65.9464 151.812 65.811 151.586 65.7207C151.36 65.5853 151.18 65.4498 151.044 65.2241C150.909 64.9984 150.819 64.7276 150.819 64.3664C150.819 64.0053 150.909 63.6442 151.135 63.3733C151.36 63.1025 151.631 62.8768 152.038 62.7413C152.444 62.6059 152.895 62.5156 153.437 62.5156C153.843 62.5156 154.25 62.5608 154.656 62.651C155.062 62.7413 155.423 62.8768 155.694 63.0573L155.197 63.9602C154.927 63.7796 154.611 63.6442 154.34 63.5539C154.024 63.4636 153.708 63.4636 153.437 63.4636C152.94 63.4636 152.579 63.5539 152.354 63.6893C152.128 63.8699 151.992 64.0504 151.992 64.3213C151.992 64.547 152.083 64.6824 152.218 64.8178C152.354 64.9533 152.534 64.9984 152.76 65.0887C152.986 65.1339 153.256 65.2241 153.527 65.2693C153.798 65.3144 154.069 65.3596 154.385 65.4498C154.656 65.495 154.927 65.6304 155.152 65.7207C155.378 65.8561 155.559 65.9915 155.694 66.2173C155.829 66.443 155.92 66.7138 155.92 67.0749C155.92 67.4361 155.829 67.7521 155.604 68.0681C155.378 68.3389 155.062 68.5646 154.656 68.7001C154.25 68.8355 153.753 68.8355 153.211 68.8355Z" fill="white"/>
<path d="M156.868 63.4641V62.5162H160.84V63.4641H156.868ZM159.892 68.836C159.26 68.836 158.764 68.6554 158.448 68.3395C158.087 68.0235 157.951 67.5269 157.951 66.8949V61.207H159.08V66.8498C159.08 67.1657 159.17 67.4366 159.35 67.6172C159.531 67.7977 159.757 67.888 160.073 67.888C160.434 67.888 160.705 67.7977 160.93 67.6172L161.292 68.4297C161.111 68.5651 160.93 68.7006 160.66 68.7457C160.434 68.7909 160.163 68.836 159.892 68.836Z" fill="white"/>
<path d="M165.671 68.8355C164.993 68.8355 164.407 68.7 163.91 68.4292C163.413 68.1583 163.007 67.7972 162.736 67.3006C162.466 66.8041 162.33 66.2624 162.33 65.6755C162.33 65.0436 162.466 64.5019 162.736 64.0505C163.007 63.5539 163.368 63.1928 163.865 62.9219C164.316 62.6511 164.858 62.5156 165.445 62.5156C166.032 62.5156 166.573 62.6511 167.025 62.9219C167.476 63.1928 167.837 63.5539 168.108 64.0505C168.379 64.547 168.514 65.0887 168.514 65.7207C168.514 65.7658 168.514 65.811 168.514 65.9013C168.514 65.9464 168.514 66.0367 168.514 66.0818H163.188V65.2693H167.883L167.431 65.5401C167.431 65.1339 167.341 64.7727 167.205 64.4567C167.025 64.1407 166.799 63.915 166.483 63.7345C166.167 63.5539 165.851 63.4636 165.445 63.4636C165.039 63.4636 164.723 63.5539 164.407 63.7345C164.091 63.915 163.865 64.1407 163.684 64.4567C163.504 64.7727 163.413 65.1339 163.413 65.5401V65.7207C163.413 66.127 163.504 66.4881 163.684 66.8492C163.865 67.1652 164.136 67.4361 164.497 67.6166C164.858 67.7972 165.219 67.8875 165.671 67.8875C166.032 67.8875 166.393 67.8424 166.664 67.7069C166.98 67.5715 167.251 67.3909 167.476 67.1652L168.108 67.8875C167.837 68.2035 167.476 68.4743 167.07 68.6549C166.619 68.7452 166.167 68.8355 165.671 68.8355Z" fill="white"/>
<path d="M170.545 68.7456V62.5161H171.629V64.1863L171.539 63.78C171.719 63.3286 171.99 63.0126 172.396 62.7869C172.803 62.5612 173.299 62.4258 173.886 62.4258V63.5092C173.841 63.5092 173.796 63.5092 173.75 63.5092C173.705 63.5092 173.66 63.5092 173.615 63.5092C173.028 63.5092 172.532 63.6898 172.171 64.0509C171.809 64.412 171.629 64.9086 171.629 65.6309V68.7456H170.545Z" fill="white"/>
<path d="M179.574 68.7451V60.5293H185.352V61.5676H180.748V68.7451H179.574ZM180.658 65.4498V64.4566H184.901V65.4498H180.658Z" fill="white"/>
<path d="M187.88 61.3422C187.654 61.3422 187.474 61.252 187.339 61.1165C187.203 60.9811 187.113 60.8005 187.113 60.62C187.113 60.3942 187.203 60.2137 187.339 60.0782C187.474 59.9428 187.654 59.8525 187.88 59.8525C188.106 59.8525 188.286 59.9428 188.422 60.0782C188.557 60.2137 188.648 60.3943 188.648 60.5748C188.648 60.8005 188.557 60.9811 188.422 61.1165C188.286 61.252 188.106 61.3422 187.88 61.3422ZM187.339 68.7455V62.5159H188.467V68.7455H187.339Z" fill="white"/>
<path d="M191.085 68.7456V62.5161H192.169V64.1863L191.988 63.7349C192.169 63.3286 192.485 63.0126 192.936 62.7869C193.343 62.5612 193.839 62.4258 194.426 62.4258C194.923 62.4258 195.374 62.5161 195.78 62.6966C196.186 62.8772 196.457 63.1932 196.683 63.5995C196.909 64.0058 196.999 64.5023 196.999 65.0892V68.6553H195.87V65.2246C195.87 64.6377 195.735 64.1863 195.419 63.8703C195.148 63.5543 194.697 63.4189 194.2 63.4189C193.794 63.4189 193.433 63.5092 193.162 63.6446C192.846 63.78 192.62 64.0509 192.485 64.3217C192.304 64.6377 192.259 64.9989 192.259 65.4503V68.6553H191.085V68.7456Z" fill="white"/>
<path d="M201.332 68.8359C200.881 68.8359 200.474 68.7456 200.113 68.6102C199.752 68.4748 199.481 68.2491 199.301 67.9782C199.12 67.7074 199.03 67.3914 199.03 67.0302C199.03 66.7143 199.12 66.3983 199.255 66.1274C199.436 65.8566 199.662 65.6309 200.023 65.4503C200.384 65.2697 200.881 65.2246 201.513 65.2246H203.499V66.0371H201.558C201.016 66.0371 200.61 66.1274 200.429 66.308C200.249 66.4886 200.158 66.7143 200.158 66.9851C200.158 67.3011 200.294 67.5268 200.519 67.7074C200.745 67.8879 201.106 67.9782 201.513 67.9782C201.919 67.9782 202.325 67.8879 202.641 67.7074C202.957 67.5268 203.183 67.256 203.318 66.8948L203.544 67.6622C203.409 68.0234 203.138 68.3394 202.777 68.5199C202.37 68.7005 201.919 68.8359 201.332 68.8359ZM203.363 68.7456V67.4365L203.318 67.2108V64.9537C203.318 64.4572 203.183 64.096 202.912 63.8252C202.641 63.5543 202.235 63.4189 201.648 63.4189C201.287 63.4189 200.926 63.4641 200.565 63.5995C200.203 63.7349 199.933 63.8703 199.662 64.096L199.21 63.2383C199.526 62.9675 199.933 62.7869 200.384 62.6515C200.835 62.5161 201.287 62.4258 201.783 62.4258C202.641 62.4258 203.273 62.6515 203.77 63.0578C204.221 63.4641 204.447 64.096 204.447 64.9537V68.7005H203.363V68.7456Z" fill="white"/>
<path d="M207.02 68.7456V62.5161H208.103V64.1863L207.923 63.7349C208.103 63.3286 208.419 63.0126 208.871 62.7869C209.277 62.5612 209.774 62.4258 210.361 62.4258C210.857 62.4258 211.308 62.5161 211.715 62.6966C212.121 62.8772 212.392 63.1932 212.618 63.5995C212.843 64.0058 212.934 64.5023 212.934 65.0892V68.6553H211.805V65.2246C211.805 64.6377 211.67 64.1863 211.354 63.8703C211.083 63.5543 210.631 63.4189 210.135 63.4189C209.729 63.4189 209.367 63.5092 209.097 63.6446C208.781 63.78 208.555 64.0509 208.419 64.3217C208.239 64.6377 208.194 64.9989 208.194 65.4503V68.6553H207.02V68.7456Z" fill="white"/>
<path d="M218.17 68.8355C217.538 68.8355 216.951 68.7 216.454 68.4292C215.958 68.1583 215.552 67.7972 215.281 67.3006C215.01 66.8041 214.875 66.2624 214.875 65.6755C214.875 65.0436 215.01 64.5019 215.281 64.0505C215.552 63.5539 215.958 63.1928 216.454 62.9219C216.951 62.6511 217.493 62.5156 218.17 62.5156C218.712 62.5156 219.253 62.6059 219.66 62.8316C220.111 63.0573 220.427 63.3733 220.698 63.8247L219.84 64.3664C219.614 64.0504 219.389 63.8247 219.118 63.6893C218.847 63.5539 218.531 63.4636 218.17 63.4636C217.764 63.4636 217.402 63.5539 217.086 63.7345C216.77 63.915 216.5 64.1859 216.319 64.5019C216.138 64.8179 216.048 65.2241 216.048 65.6755C216.048 66.127 216.138 66.4881 216.319 66.8492C216.5 67.1652 216.77 67.4361 217.086 67.6166C217.402 67.7972 217.764 67.8875 218.17 67.8875C218.486 67.8875 218.802 67.7972 219.118 67.6618C219.389 67.5264 219.66 67.3007 219.84 66.9847L220.698 67.5263C220.472 67.9778 220.111 68.2938 219.66 68.5195C219.208 68.7 218.712 68.8355 218.17 68.8355Z" fill="white"/>
<path d="M225.302 68.8355C224.625 68.8355 224.038 68.7 223.542 68.4292C223.045 68.1583 222.639 67.7972 222.368 67.3006C222.097 66.8041 221.962 66.2624 221.962 65.6755C221.962 65.0436 222.097 64.5019 222.368 64.0505C222.639 63.5539 223 63.1928 223.497 62.9219C223.948 62.6511 224.49 62.5156 225.077 62.5156C225.664 62.5156 226.205 62.6511 226.657 62.9219C227.108 63.1928 227.469 63.5539 227.74 64.0505C228.011 64.547 228.146 65.0887 228.146 65.7207C228.146 65.7658 228.146 65.811 228.146 65.9013C228.146 65.9464 228.146 66.0367 228.146 66.0818H222.865V65.2693H227.559L227.108 65.5401C227.108 65.1339 227.018 64.7727 226.882 64.4567C226.702 64.1407 226.476 63.915 226.16 63.7345C225.844 63.5539 225.528 63.4636 225.122 63.4636C224.716 63.4636 224.4 63.5539 224.084 63.7345C223.768 63.915 223.542 64.1407 223.361 64.4567C223.181 64.7727 223.09 65.1339 223.09 65.5401V65.7207C223.09 66.127 223.181 66.4881 223.361 66.8492C223.542 67.1652 223.813 67.4361 224.174 67.6166C224.535 67.7972 224.896 67.8875 225.348 67.8875C225.709 67.8875 226.07 67.8424 226.341 67.7069C226.657 67.5715 226.928 67.3909 227.153 67.1652L227.785 67.8875C227.514 68.2035 227.153 68.4743 226.747 68.6549C226.25 68.7452 225.799 68.8355 225.302 68.8355Z" fill="white"/>
<path d="M235.82 68.7451L233.066 60.5293H234.285L236.813 68.1131H236.181L238.799 60.5293H239.883L242.456 68.1131H241.869L244.442 60.5293H245.571L242.817 68.7451H241.598L239.206 61.703H239.522L237.129 68.7451H235.82Z" fill="white"/>
<path d="M247.828 61.3422C247.602 61.3422 247.422 61.252 247.286 61.1165C247.151 60.9811 247.061 60.8005 247.061 60.62C247.061 60.3942 247.151 60.2137 247.286 60.0782C247.422 59.9428 247.602 59.8525 247.828 59.8525C248.054 59.8525 248.234 59.9428 248.37 60.0782C248.505 60.2137 248.595 60.3943 248.595 60.5748C248.595 60.8005 248.505 60.9811 248.37 61.1165C248.279 61.252 248.054 61.3422 247.828 61.3422ZM247.286 68.7455V62.5159H248.415V68.7455H247.286Z" fill="white"/>
<path d="M250.085 63.4641V62.5162H254.058V63.4641H250.085ZM253.11 68.836C252.478 68.836 251.981 68.6554 251.665 68.3395C251.304 68.0235 251.169 67.5269 251.169 66.8949V61.207H252.297V66.8498C252.297 67.1657 252.388 67.4366 252.568 67.6172C252.749 67.7977 252.975 67.888 253.291 67.888C253.652 67.888 253.922 67.7977 254.148 67.6172L254.509 68.4297C254.329 68.5651 254.148 68.7006 253.877 68.7457C253.607 68.7909 253.381 68.836 253.11 68.836Z" fill="white"/>
<path d="M256.314 68.7456V60.0332H257.443V64.1863L257.217 63.7348C257.398 63.3286 257.714 63.0125 258.165 62.7868C258.572 62.5611 259.068 62.4257 259.655 62.4257C260.152 62.4257 260.603 62.516 261.009 62.6966C261.415 62.8771 261.686 63.1931 261.912 63.5994C262.138 64.0057 262.228 64.5022 262.228 65.0891V68.6553H261.099V65.2245C261.099 64.6377 260.964 64.1862 260.648 63.8703C260.377 63.5543 259.926 63.4188 259.429 63.4188C259.023 63.4188 258.662 63.5091 258.391 63.6445C258.075 63.78 257.849 64.0508 257.714 64.3217C257.533 64.6377 257.488 64.9988 257.488 65.4502V68.6553H256.314V68.7456Z" fill="white"/>
<path d="M272.205 68.8354C271.573 68.8354 270.986 68.7451 270.49 68.5194C269.948 68.2937 269.496 68.0229 269.135 67.6617C268.729 67.3006 268.458 66.8492 268.233 66.3526C268.007 65.856 267.917 65.2692 267.917 64.6823C267.917 64.0504 268.007 63.5087 268.233 63.0121C268.458 62.5155 268.774 62.0641 269.135 61.703C269.542 61.3419 269.993 61.0259 270.535 60.8453C271.076 60.6196 271.618 60.5293 272.25 60.5293C272.882 60.5293 273.469 60.6196 274.011 60.8453C274.552 61.071 275.004 61.387 275.365 61.7933L274.597 62.5155C274.281 62.1996 273.92 61.9287 273.559 61.7933C273.153 61.6127 272.747 61.5676 272.295 61.5676C271.844 61.5676 271.392 61.6579 271.031 61.7933C270.625 61.9287 270.309 62.1544 269.993 62.4704C269.722 62.7413 269.496 63.1024 269.316 63.4635C269.135 63.8698 269.09 64.2761 269.09 64.7275C269.09 65.1789 269.18 65.5852 269.316 65.9915C269.496 66.3977 269.722 66.7137 269.993 66.9846C270.264 67.2554 270.625 67.4811 271.031 67.6617C271.438 67.7971 271.844 67.8874 272.295 67.8874C272.747 67.8874 273.153 67.7971 273.559 67.6617C273.965 67.4811 274.281 67.2554 274.597 66.9394L275.365 67.6617C275.004 68.068 274.552 68.384 274.011 68.6097C273.424 68.7451 272.837 68.8354 272.205 68.8354Z" fill="white"/>
<path d="M279.607 68.8355C278.975 68.8355 278.434 68.7 277.937 68.4292C277.441 68.1583 277.079 67.7972 276.809 67.3006C276.538 66.8041 276.402 66.2624 276.402 65.6755C276.402 65.0436 276.538 64.5019 276.809 64.0505C277.079 63.5539 277.486 63.1928 277.937 62.9219C278.434 62.6511 278.975 62.5156 279.607 62.5156C280.239 62.5156 280.781 62.6511 281.278 62.9219C281.774 63.1928 282.135 63.5539 282.406 64.0505C282.677 64.5019 282.812 65.0887 282.812 65.6755C282.812 66.3075 282.677 66.8492 282.406 67.3006C282.135 67.7972 281.729 68.1583 281.278 68.4292C280.781 68.7 280.239 68.8355 279.607 68.8355ZM279.607 67.8423C280.014 67.8423 280.375 67.7521 280.691 67.5715C281.007 67.3909 281.278 67.1201 281.413 66.8041C281.594 66.4881 281.684 66.0818 281.684 65.6304C281.684 65.179 281.594 64.8178 281.413 64.4567C281.233 64.1407 281.007 63.8699 280.691 63.6893C280.375 63.5087 280.014 63.4185 279.607 63.4185C279.201 63.4185 278.84 63.5087 278.524 63.6893C278.208 63.8699 277.982 64.1407 277.757 64.4567C277.576 64.7727 277.486 65.179 277.486 65.6304C277.486 66.0818 277.576 66.443 277.757 66.8041C277.937 67.1201 278.208 67.3909 278.524 67.5715C278.84 67.7521 279.201 67.8423 279.607 67.8423Z" fill="white"/>
<path d="M284.845 68.7456V62.5161H285.928V64.1863L285.748 63.7349C285.928 63.3286 286.244 63.0126 286.696 62.7869C287.102 62.5612 287.598 62.4258 288.185 62.4258C288.682 62.4258 289.133 62.5161 289.539 62.6966C289.946 62.8772 290.217 63.1932 290.442 63.5995C290.668 64.0058 290.758 64.5023 290.758 65.0892V68.6553H289.63V65.2246C289.63 64.6377 289.494 64.1863 289.178 63.8703C288.907 63.5543 288.456 63.4189 287.96 63.4189C287.553 63.4189 287.192 63.5092 286.921 63.6446C286.605 63.78 286.38 64.0509 286.244 64.3217C286.064 64.6377 286.018 64.9989 286.018 65.4503V68.6553H284.845V68.7456Z" fill="white"/>
<path d="M292.428 63.4639V62.5159H296.401V63.4639H292.428ZM293.466 68.7455V61.9742C293.466 61.3422 293.647 60.8908 294.008 60.5297C294.369 60.1685 294.866 59.988 295.543 59.988C295.769 59.988 296.04 60.0331 296.22 60.0782C296.446 60.1234 296.626 60.2137 296.807 60.3491L296.446 61.2068C296.31 61.1165 296.175 61.0262 296.04 60.9811C295.904 60.9359 295.724 60.8908 295.588 60.8908C295.272 60.8908 295.001 60.9811 294.821 61.1617C294.64 61.3422 294.55 61.6131 294.55 61.9742V62.7868L294.595 63.2833V68.7003H293.466V68.7455ZM298.026 61.3422C297.8 61.3422 297.62 61.252 297.484 61.1165C297.349 60.9811 297.258 60.8005 297.258 60.62C297.258 60.3942 297.349 60.2137 297.484 60.0782C297.62 59.9428 297.8 59.8525 298.026 59.8525C298.252 59.8525 298.432 59.9428 298.568 60.0782C298.703 60.2137 298.793 60.3943 298.793 60.5748C298.793 60.8005 298.703 60.9811 298.568 61.1165C298.432 61.252 298.252 61.3422 298.026 61.3422ZM297.439 68.7455V62.5159H298.568V68.7455H297.439Z" fill="white"/>
<path d="M303.759 68.8358C303.172 68.8358 302.63 68.7004 302.134 68.4296C301.683 68.1587 301.276 67.7976 301.005 67.301C300.735 66.8045 300.599 66.2628 300.599 65.6308C300.599 64.9988 300.735 64.4571 301.005 63.9605C301.276 63.5091 301.637 63.1028 302.134 62.832C302.585 62.5611 303.127 62.4257 303.759 62.4257C304.301 62.4257 304.752 62.5611 305.158 62.7868C305.565 63.0125 305.926 63.3737 306.152 63.8251C306.422 64.2765 306.513 64.8634 306.513 65.5856C306.513 66.3079 306.377 66.8948 306.152 67.3462C305.926 67.7976 305.565 68.1587 305.158 68.3844C304.797 68.7004 304.301 68.8358 303.759 68.8358ZM303.849 67.8427C304.256 67.8427 304.572 67.7524 304.888 67.5719C305.204 67.3913 305.474 67.1205 305.655 66.8045C305.836 66.4885 305.926 66.0822 305.926 65.6308C305.926 65.1794 305.836 64.8182 305.655 64.4571C305.474 64.1411 305.204 63.8702 304.888 63.6897C304.572 63.5091 304.21 63.4188 303.849 63.4188C303.443 63.4188 303.082 63.5091 302.766 63.6897C302.45 63.8702 302.224 64.1411 301.999 64.4571C301.818 64.7731 301.728 65.1794 301.728 65.6308C301.728 66.0822 301.818 66.4433 301.999 66.8045C302.179 67.1205 302.45 67.3913 302.766 67.5719C303.082 67.7524 303.443 67.8427 303.849 67.8427ZM305.971 68.7456V67.0753L306.061 65.6308L305.926 64.1862V60.0332H307.054V68.7456H305.971Z" fill="white"/>
<path d="M312.426 68.8355C311.749 68.8355 311.162 68.7 310.666 68.4292C310.169 68.1583 309.763 67.7972 309.492 67.3006C309.221 66.8041 309.086 66.2624 309.086 65.6755C309.086 65.0436 309.221 64.5019 309.492 64.0505C309.763 63.5539 310.124 63.1928 310.621 62.9219C311.072 62.6511 311.614 62.5156 312.201 62.5156C312.788 62.5156 313.329 62.6511 313.781 62.9219C314.232 63.1928 314.593 63.5539 314.864 64.0505C315.135 64.547 315.27 65.0887 315.27 65.7207C315.27 65.7658 315.27 65.811 315.27 65.9013C315.27 65.9464 315.27 66.0367 315.27 66.0818H309.989V65.2693H314.683L314.232 65.5401C314.232 65.1339 314.142 64.7727 314.006 64.4567C313.826 64.1407 313.6 63.915 313.284 63.7345C312.968 63.5539 312.652 63.4636 312.246 63.4636C311.84 63.4636 311.524 63.5539 311.208 63.7345C310.892 63.915 310.666 64.1407 310.485 64.4567C310.305 64.7727 310.214 65.1339 310.214 65.5401V65.7207C310.214 66.127 310.305 66.4881 310.485 66.8492C310.666 67.1652 310.937 67.4361 311.298 67.6166C311.659 67.7972 312.02 67.8875 312.472 67.8875C312.833 67.8875 313.194 67.8424 313.465 67.7069C313.781 67.5715 314.052 67.3909 314.277 67.1652L314.909 67.8875C314.638 68.2035 314.277 68.4743 313.871 68.6549C313.42 68.7452 312.923 68.8355 312.426 68.8355Z" fill="white"/>
<path d="M317.302 68.7456V62.5161H318.385V64.1863L318.205 63.7349C318.385 63.3286 318.701 63.0126 319.153 62.7869C319.559 62.5612 320.055 62.4258 320.642 62.4258C321.139 62.4258 321.59 62.5161 321.996 62.6966C322.403 62.8772 322.674 63.1932 322.899 63.5995C323.125 64.0058 323.215 64.5023 323.215 65.0892V68.6553H322.087V65.2246C322.087 64.6377 321.951 64.1863 321.635 63.8703C321.365 63.5543 320.913 63.4189 320.417 63.4189C320.01 63.4189 319.649 63.5092 319.378 63.6446C319.062 63.78 318.837 64.0509 318.701 64.3217C318.521 64.6377 318.475 64.9989 318.475 65.4503V68.6553H317.302V68.7456Z" fill="white"/>
<path d="M328.452 68.8355C327.82 68.8355 327.233 68.7 326.736 68.4292C326.24 68.1583 325.833 67.7972 325.563 67.3006C325.292 66.8041 325.156 66.2624 325.156 65.6755C325.156 65.0436 325.292 64.5019 325.563 64.0505C325.833 63.5539 326.24 63.1928 326.736 62.9219C327.233 62.6511 327.774 62.5156 328.452 62.5156C328.993 62.5156 329.535 62.6059 329.941 62.8316C330.393 63.0573 330.709 63.3733 330.98 63.8247L330.122 64.3664C329.896 64.0504 329.67 63.8247 329.4 63.6893C329.129 63.5539 328.813 63.4636 328.452 63.4636C328.045 63.4636 327.684 63.5539 327.368 63.7345C327.052 63.915 326.781 64.1859 326.601 64.5019C326.42 64.8179 326.33 65.2241 326.33 65.6755C326.33 66.127 326.42 66.4881 326.601 66.8492C326.781 67.1652 327.052 67.4361 327.368 67.6166C327.684 67.7972 328.045 67.8875 328.452 67.8875C328.768 67.8875 329.084 67.7972 329.4 67.6618C329.67 67.5264 329.941 67.3007 330.122 66.9847L330.98 67.5263C330.754 67.9778 330.393 68.2938 329.941 68.5195C329.535 68.7 328.993 68.8355 328.452 68.8355Z" fill="white"/>
<path d="M335.584 68.8355C334.907 68.8355 334.32 68.7 333.823 68.4292C333.327 68.1583 332.92 67.7972 332.649 67.3006C332.379 66.8041 332.243 66.2624 332.243 65.6755C332.243 65.0436 332.379 64.5019 332.649 64.0505C332.92 63.5539 333.281 63.1928 333.778 62.9219C334.229 62.6511 334.771 62.5156 335.358 62.5156C335.945 62.5156 336.486 62.6511 336.938 62.9219C337.389 63.1928 337.75 63.5539 338.021 64.0505C338.292 64.547 338.428 65.0887 338.428 65.7207C338.428 65.7658 338.428 65.811 338.428 65.9013C338.428 65.9464 338.428 66.0367 338.428 66.0818H333.146V65.2693H337.841L337.389 65.5401C337.389 65.1339 337.299 64.7727 337.164 64.4567C336.983 64.1407 336.757 63.915 336.441 63.7345C336.125 63.5539 335.809 63.4636 335.403 63.4636C334.997 63.4636 334.681 63.5539 334.365 63.7345C334.049 63.915 333.823 64.1407 333.643 64.4567C333.462 64.7727 333.372 65.1339 333.372 65.5401V65.7207C333.372 66.127 333.462 66.4881 333.643 66.8492C333.823 67.1652 334.094 67.4361 334.455 67.6166C334.816 67.7972 335.177 67.8875 335.629 67.8875C335.99 67.8875 336.351 67.8424 336.622 67.7069C336.938 67.5715 337.209 67.3909 337.434 67.1652L338.066 67.8875C337.796 68.2035 337.434 68.4743 337.028 68.6549C336.577 68.7452 336.08 68.8355 335.584 68.8355Z" fill="white"/>
</svg>
