<svg width="15" height="17" viewBox="0 0 15 17" fill="none" xmlns="http://www.w3.org/2000/svg">
<path d="M7.19996 9.19331C9.38563 9.19331 11.1637 7.05573 11.1637 4.42795C11.1637 1.9386 9.53376 0.200012 7.19996 0.200012C4.86616 0.200012 3.23623 1.9386 3.23623 4.42795C3.23623 7.05573 5.0143 9.19331 7.19996 9.19331ZM7.19996 1.13061C9.01343 1.13061 10.232 2.45555 10.232 4.42795C10.232 6.5425 8.87182 8.26271 7.19996 8.26271C5.52811 8.26271 4.16789 6.54227 4.16789 4.42795C4.16789 2.45555 5.38649 1.13061 7.19996 1.13061ZM7.62946 10.1239H6.77047C2.84051 10.1239 0.200195 12.3785 0.200195 15.7347C0.200195 15.9916 0.408886 16.2 0.666023 16.2C0.923161 16.2 1.13185 15.9916 1.13185 15.7347C1.13185 12.2803 4.16928 11.0545 6.77047 11.0545H7.62946C10.2309 11.0545 13.2685 12.2806 13.2685 15.7347C13.2685 15.9916 13.4772 16.2 13.7344 16.2C13.9915 16.2 14.2002 15.9916 14.2002 15.7347C14.2002 12.3785 11.5596 10.1239 7.62946 10.1239Z" fill="black" stroke="black" stroke-width="0.4"/>
</svg>
