<svg width="293" height="65" viewBox="0 0 293 65" fill="none" xmlns="http://www.w3.org/2000/svg">
<path d="M80.4857 11.6393C80.3595 11.6077 80.2332 11.5762 80.0439 11.5446C80.2332 11.5446 80.3595 11.5762 80.4857 11.6393Z" fill="#F08B03"/>
<path d="M61.524 29.1814C61.524 29.7178 61.1769 29.6862 60.8614 29.7493C58.0219 30.191 55.2454 30.8852 52.6267 32.021C49.093 33.5985 46.0011 35.8071 43.2246 38.5204C42.8775 38.8675 42.5936 39.2461 42.2465 39.6247C41.8995 39.2776 41.584 38.899 41.2369 38.552C36.4412 33.7878 30.699 30.9167 24.0418 29.7493C23.9787 29.7493 23.884 29.7178 23.8209 29.7178C22.5273 29.56 22.5273 29.56 22.5273 28.2349V25.2376C22.5273 23.944 22.5273 22.6504 22.5273 21.3569C22.5273 20.9152 22.5904 20.7889 23.0637 20.9151C29.0583 22.5873 35.053 24.228 41.0476 25.8686C41.7733 26.0579 42.4358 26.0579 43.1299 25.8371C48.2727 24.2595 53.3839 22.6189 58.6213 21.3569C59.4101 21.1676 60.1673 21.0098 60.9561 20.852C61.3347 20.7574 61.5555 20.8205 61.5555 21.2938C61.4924 23.944 61.4924 26.5627 61.524 29.1814Z" fill="#F08B03"/>
<path d="M16.6904 45.3985C16.722 44.4205 16.722 43.4739 16.722 42.4959C16.722 42.1173 16.8482 42.0226 17.1952 42.0857C20.9498 42.5274 24.6412 43.2846 28.2064 44.5782C28.3957 44.6413 28.585 44.6729 28.6797 44.8937C29.5 44.8622 30.1626 45.3039 30.8567 45.5878C32.8759 46.4713 34.8321 47.5124 36.6305 48.8375C37.2299 49.2793 37.6401 49.721 37.5139 50.5413C37.4192 51.2985 37.4823 52.0873 37.4823 52.8445C37.0722 52.8445 36.7567 52.6552 36.5043 52.4659C33.7909 50.5413 30.762 49.2162 27.6385 48.175C27.5754 48.1434 27.5123 48.0803 27.4492 48.0488C24.6097 47.2285 21.7385 46.5659 18.8043 46.1873C18.268 46.1242 17.7316 46.0295 17.1952 45.998C16.7851 45.9664 16.6904 45.7771 16.6904 45.3985Z" fill="#BE5014"/>
<path d="M75.5324 27.6039C75.3115 30.8536 75.4377 34.1349 75.4377 37.3846C75.4062 42.9691 75.4377 48.5536 75.4377 54.1065C75.4377 54.7375 75.3115 54.8637 74.6489 54.8322C72.9452 54.6744 71.2099 54.8953 69.5062 54.9899C69.096 55.0215 68.6543 55.0846 68.2441 55.053C68.1495 54.9899 68.0548 54.9584 67.9602 54.9584C68.0548 54.9899 68.1495 54.9899 68.2441 55.053C62.2495 55.7471 56.4757 57.2616 51.0175 59.9434C50.8913 60.0065 50.7335 60.0696 50.6073 60.1011C50.4811 60.1642 50.3234 60.2273 50.1972 60.2904C49.9448 60.4166 49.6923 60.5744 49.4084 60.7006C47.5469 61.7733 45.7485 62.9407 43.9501 64.1712C42.3095 65.307 41.5207 65.2754 39.9116 64.0765C37.4822 62.2781 34.832 60.7637 32.1186 59.4701C31.8978 59.3755 31.6769 59.2493 31.456 59.1231C30.7304 58.8076 29.9732 58.492 29.2475 58.1765C28.9004 58.0819 28.5534 57.9872 28.2379 57.7979L28.2063 57.7664C26.3448 57.1985 24.4833 56.5674 22.5588 56.1888C20.6973 55.8102 18.8042 55.5263 16.8796 55.4632C16.785 55.4632 16.6588 55.4316 16.5641 55.4001C16.501 55.4001 16.4379 55.3685 16.3748 55.3685C14.6711 55.3685 12.9358 55.4632 11.2321 55.0846C10.1278 54.8322 9.65452 54.3274 9.55987 53.2231C9.52832 52.7814 9.52832 52.3397 9.52832 51.8664C9.52832 42.7167 9.55987 33.5985 9.52832 24.4488C9.52832 23.8178 9.68607 23.6285 10.3171 23.6601C11.3267 23.6916 12.3679 23.7232 13.3775 23.6601C14.0716 23.6285 14.0716 23.9756 14.0716 24.4804C14.0716 32.1788 14.0716 39.8771 14.0716 47.544C14.0716 48.2381 14.1032 48.9322 14.0716 49.6263C14.0401 50.068 14.1978 50.2889 14.6395 50.2573C15.0497 50.2889 15.4598 50.1942 15.8385 50.3835C16.5641 50.5413 17.3213 50.5097 18.0786 50.5728C21.0759 50.8568 24.0416 51.4562 26.9443 52.245C28.932 52.7814 30.7935 53.6017 32.7181 54.3274C35.6838 55.5263 38.4603 57.0407 41.079 58.8706C41.8362 59.407 42.341 59.407 43.0983 58.8706C44.8966 57.5771 46.8212 56.4412 48.872 55.5263C50.9544 54.3905 53.1629 53.5701 55.3715 52.8445C58.3688 51.8348 61.3977 51.1092 64.5527 50.7621C65.9094 50.5097 67.2976 50.352 68.6859 50.3204C70.8313 50.2573 70.8313 50.2889 70.8313 48.175C70.8313 40.3188 70.8313 32.4312 70.8313 24.5751C70.8313 23.597 70.8313 23.597 71.8409 23.5654C72.4088 23.5654 72.9768 23.5654 73.5447 23.5654C74.4912 23.5654 75.0591 23.9756 75.343 24.9221C75.5639 25.7424 75.5955 26.6574 75.5324 27.6039Z" fill="#BE5014"/>
<path d="M16.6904 36.4696C16.6904 36.091 16.7851 35.8702 17.2268 35.9017C20.3503 35.9017 23.4107 36.375 26.408 37.29C27.5123 37.6686 28.6481 37.9841 29.7524 38.4258C32.4658 39.5301 34.9267 41.076 37.2299 42.8429C37.4823 43.0322 37.5139 43.2215 37.5139 43.4739C37.5139 44.2627 37.5139 45.0514 37.5139 45.8718C37.5139 46.0611 37.6401 46.3134 37.4192 46.4081C37.2299 46.5028 37.0406 46.3135 36.8829 46.1873C35.2738 44.9883 33.5069 43.9787 31.677 43.1584C30.3519 42.5589 28.9636 42.0541 27.607 41.5177C25.2722 40.8552 22.9375 40.1926 20.5081 39.9402C19.4353 39.814 18.3942 39.6878 17.3214 39.7194C16.8797 39.7194 16.722 39.5932 16.722 39.1199C16.7535 38.2049 16.722 37.3215 16.6904 36.4696Z" fill="#BE5014"/>
<path d="M46.4111 46.0926C46.3164 45.083 46.3795 44.0734 46.4426 43.0322C46.4426 42.8429 46.5688 42.7798 46.695 42.6851C48.8405 41.2654 50.9228 39.7194 53.3522 38.7729C54.1725 38.4574 55.0244 38.1418 55.8447 37.8579C58.0533 36.9745 60.3565 36.5643 62.6912 36.2488C63.9532 36.091 65.1837 35.9017 66.4773 35.9017C66.9821 35.9017 67.1714 36.0279 67.2345 36.5643C67.3292 37.4477 67.1714 38.3627 67.203 39.2461C67.203 39.6563 66.9821 39.6563 66.6666 39.6878C64.5527 39.7509 62.4704 40.0349 60.388 40.445C58.7474 40.7605 57.1383 41.2969 55.4977 41.7702C55.5292 41.7071 55.5292 41.644 55.5608 41.5809C55.5292 41.644 55.4977 41.7071 55.4977 41.7702C53.2576 42.5905 51.1121 43.6001 49.0613 44.799C48.3041 45.2407 47.5784 45.6824 46.9474 46.3135C46.6635 46.6605 46.4742 46.5028 46.4111 46.0926Z" fill="#BE5014"/>
<path d="M47.0422 53.0968C49.1876 51.4562 51.5854 50.1942 54.0464 49.0584C56.9175 47.8594 59.8202 46.8498 62.8806 46.2503C64.1742 46.0926 65.4678 45.9033 66.7929 45.9348C66.9822 45.9348 67.203 45.9348 67.2346 45.6509C67.3608 44.5782 67.487 43.537 67.2346 42.4643C67.1715 42.1803 67.0137 42.0541 66.6982 42.0857C64.9314 42.4012 63.1015 42.622 61.3662 43.0637C60.7352 43.0637 60.1357 43.2215 59.5362 43.3792C57.4539 43.884 55.3715 44.452 53.4469 45.4616C53.2576 45.5247 53.0683 45.5878 52.9106 45.6509C51.2384 46.4712 49.7555 47.607 48.1464 48.5536C46.4427 49.5316 46.2218 51.0776 46.4111 52.7813C46.4427 53.1915 46.632 53.4124 47.0422 53.0968ZM61.5239 43.1584C61.4924 43.1584 61.4608 43.1268 61.4293 43.1268C61.4924 43.1268 61.4924 43.1584 61.5239 43.1584Z" fill="#BE5014"/>
<path d="M78.5612 14.0056C71.6832 15.9617 64.8051 17.9494 57.8955 19.9055C53.6362 21.1045 49.3453 22.2403 45.1175 23.5339C42.6881 24.2595 40.3533 24.0702 37.9555 23.3761C29.3106 20.8836 20.6657 18.5173 12.0208 16.0879C8.55024 15.1098 5.04811 14.1949 1.57753 13.2168C1.07272 13.0906 0.504811 12.9644 0 12.5542C0.946521 12.2703 1.82994 12.0494 2.68181 11.797C7.76147 10.251 12.8096 8.70506 17.8892 7.15907C22.9689 5.61309 28.0801 4.03555 33.1598 2.42647C35.4314 1.7008 37.6715 0.912027 39.9747 0.249463C41.5207 -0.192247 43.0036 -0.0029391 44.518 0.470321C55.2768 3.97245 66.1302 7.15906 76.9521 10.5034C77.9933 10.8189 79.0345 11.166 80.0756 11.5131C80.2334 11.5446 80.3912 11.5762 80.5174 11.6077C81.2746 11.797 81.2746 11.9232 81.2746 12.9644C81.2746 17.1291 81.2746 21.2622 81.243 25.4269C81.243 25.6793 81.4008 26.0579 81.0537 26.1526C80.612 26.2788 80.1072 26.3103 79.6655 26.2788C79.4446 26.2472 79.5393 25.9002 79.5393 25.6793C79.5393 22.2719 79.5393 18.8644 79.5393 15.4569V14.8574C79.5393 13.9109 79.5393 13.9109 78.5612 14.0056Z" fill="#F08B03"/>
<path d="M83.7668 36.7536C81.2743 36.5012 78.7502 36.6274 76.1631 36.5643C76.5732 35.5232 77.2043 34.7344 77.7722 33.9141C78.0246 33.5355 78.277 33.1568 78.5925 32.8729C79.4444 32.1157 79.6652 31.1376 79.5706 30.0649C79.539 29.6547 79.539 29.213 79.5706 28.8028C79.6021 28.4873 79.3497 28.0456 79.7283 27.9194C80.1385 27.7932 80.6117 27.8563 81.0534 27.8879C81.3058 27.8879 81.2743 28.1403 81.2427 28.298C80.8641 30.8852 81.9369 32.936 83.4829 34.8606C83.7668 35.2392 83.9877 35.6493 84.2085 36.0595C84.3663 36.4381 84.2401 36.7852 83.7668 36.7536Z" fill="#F08B03"/>
<path d="M61.4291 43.1269C61.3976 43.1269 61.366 43.0953 61.3345 43.0953C61.366 43.0953 61.3976 43.0953 61.4291 43.1269Z" fill="#F08B03"/>
<path d="M61.4291 43.1269C61.3976 43.1269 61.366 43.0953 61.3345 43.0953C61.366 43.0953 61.3976 43.0953 61.4291 43.1269Z" fill="#F08B03"/>
<path d="M107.903 35.113H103.202L97.7757 27.8879L96.3875 29.5916V35.113H92.5698V17.1606H96.3875V25.143L102.729 17.1606H107.43L100.3 25.5847L107.903 35.113Z" fill="black"/>
<path d="M120.461 35.113H110.711V17.1606H120.177C121.817 17.1606 123.079 17.6023 123.994 18.4858C124.909 19.3692 125.351 20.4419 125.351 21.7355C125.351 22.8082 125.067 23.7232 124.468 24.4804C123.868 25.2376 123.142 25.6793 122.259 25.8686C123.237 26.0264 124.057 26.4996 124.72 27.3515C125.382 28.1718 125.73 29.1499 125.73 30.2857C125.73 31.7055 125.288 32.8729 124.373 33.7878C123.426 34.6713 122.133 35.113 120.461 35.113ZM119.325 24.2911C119.956 24.2911 120.492 24.1333 120.871 23.7863C121.249 23.4392 121.439 22.9975 121.439 22.3981C121.439 21.8301 121.249 21.3884 120.871 21.0414C120.492 20.6943 119.987 20.505 119.325 20.505H114.529V24.2911H119.325ZM119.483 31.7686C120.208 31.7686 120.776 31.5793 121.155 31.2322C121.565 30.8852 121.754 30.3804 121.754 29.7178C121.754 29.1184 121.565 28.6451 121.155 28.2349C120.745 27.8563 120.177 27.667 119.483 27.667H114.529V31.7686H119.483Z" fill="black"/>
<path d="M136.772 35.113H129.673V17.1606H136.741C139.549 17.1606 141.852 17.981 143.619 19.6531C145.386 21.2938 146.269 23.4708 146.269 26.1526C146.269 28.866 145.386 31.0429 143.619 32.6836C141.852 34.2927 139.58 35.113 136.772 35.113ZM136.741 31.7686C138.476 31.7686 139.833 31.2322 140.842 30.1595C141.852 29.0868 142.357 27.7301 142.357 26.1526C142.357 24.512 141.852 23.1868 140.874 22.1141C139.896 21.0729 138.508 20.5366 136.741 20.5366H133.459V31.7686H136.741Z" fill="black"/>
<path d="M174.791 35.113H170.468L169.332 32.0841H161.634L160.498 35.113H156.176L163.085 17.1606H167.881L174.791 35.113ZM168.291 28.7082L165.483 20.9783L162.675 28.7082H168.291Z" fill="black"/>
<path d="M185.36 35.4601C182.616 35.4601 180.344 34.6082 178.514 32.8729C176.684 31.1376 175.769 28.8975 175.769 26.1842C175.769 23.4393 176.684 21.1992 178.514 19.4954C180.344 17.7601 182.616 16.9083 185.36 16.9083C188.705 16.9083 191.197 18.3596 192.838 21.2938L189.557 22.9029C189.147 22.1457 188.579 21.5147 187.821 21.0414C187.064 20.5366 186.244 20.3158 185.36 20.3158C183.72 20.3158 182.363 20.8837 181.322 21.9879C180.249 23.0922 179.713 24.512 179.713 26.2157C179.713 27.9195 180.249 29.3392 181.322 30.4435C182.395 31.5478 183.751 32.1157 185.36 32.1157C186.244 32.1157 187.064 31.8633 187.821 31.39C188.579 30.8852 189.178 30.2858 189.557 29.5285L192.838 31.1061C191.166 33.9772 188.673 35.4601 185.36 35.4601Z" fill="black"/>
<path d="M212.778 35.113H208.456L207.32 32.0841H199.621L198.486 35.113H194.163L201.073 17.1606H205.868L212.778 35.113ZM206.247 28.7082L203.439 20.9783L200.631 28.7082H206.247Z" fill="black"/>
<path d="M222.621 35.113H215.522V17.1606H222.59C225.398 17.1606 227.701 17.981 229.468 19.6531C231.235 21.2938 232.118 23.4708 232.118 26.1526C232.118 28.866 231.235 31.0429 229.468 32.6836C227.733 34.2927 225.429 35.113 222.621 35.113ZM222.59 31.7686C224.325 31.7686 225.682 31.2322 226.691 30.1595C227.701 29.0868 228.206 27.7301 228.206 26.1526C228.206 24.512 227.701 23.1868 226.723 22.1141C225.745 21.0729 224.357 20.5366 222.59 20.5366H219.309V31.7686H222.59Z" fill="black"/>
<path d="M248.62 35.113H235.905V17.1606H248.62V20.5366H239.722V24.2911H248.43V27.667H239.722V31.7686H248.62V35.113Z" fill="black"/>
<path d="M272.156 35.113H268.307V22.1772L263.259 35.113H261.587L256.539 22.1772V35.113H252.721V17.1606H258.085L262.439 28.3927L266.793 17.1606H272.188V35.113H272.156Z" fill="black"/>
<path d="M285.628 35.113H281.811V27.7617L274.933 17.1606H279.287L283.735 24.3542L288.184 17.1606H292.506L285.628 27.7617V35.113Z" fill="black"/>
<path d="M92.5698 48.0487V42.3065H93.2324L95.8196 46.629H95.4725L97.9965 42.3065H98.6591V48.0487H97.8703V43.537H98.0596L95.788 47.3231H95.4409L93.1693 43.537H93.3586V48.0487H92.5698Z" fill="black"/>
<path d="M101.877 48.1119C101.562 48.1119 101.278 48.0488 101.025 47.9541C100.773 47.8594 100.584 47.7017 100.457 47.5124C100.331 47.3231 100.268 47.1022 100.268 46.8498C100.268 46.629 100.331 46.4081 100.426 46.2188C100.552 46.0295 100.71 45.8718 100.962 45.7456C101.215 45.6194 101.562 45.5878 102.003 45.5878H103.392V46.1557H102.066C101.688 46.1557 101.404 46.2188 101.278 46.345C101.151 46.4712 101.088 46.629 101.088 46.8183C101.088 47.0391 101.183 47.1969 101.341 47.3231C101.499 47.4493 101.751 47.5124 102.035 47.5124C102.319 47.5124 102.603 47.4493 102.824 47.3231C103.045 47.1969 103.202 47.0076 103.297 46.7552L103.455 47.2915C103.36 47.544 103.171 47.7648 102.918 47.891C102.603 48.0172 102.287 48.1119 101.877 48.1119ZM103.297 48.0487V47.1338L103.265 46.976V45.3985C103.265 45.0514 103.171 44.799 102.981 44.6097C102.792 44.4204 102.508 44.3258 102.098 44.3258C101.846 44.3258 101.593 44.3573 101.341 44.452C101.088 44.5466 100.899 44.6413 100.71 44.799L100.394 44.1996C100.615 44.0103 100.899 43.8841 101.215 43.7894C101.53 43.6948 101.846 43.6317 102.193 43.6317C102.792 43.6317 103.234 43.7894 103.581 44.0734C103.896 44.3573 104.054 44.799 104.054 45.3985V48.0172H103.297V48.0487Z" fill="black"/>
<path d="M107.083 48.1119C106.736 48.1119 106.389 48.0488 106.042 47.9541C105.726 47.8595 105.474 47.7333 105.285 47.6071L105.6 46.976C105.789 47.1022 106.01 47.1969 106.294 47.2915C106.578 47.3862 106.831 47.4177 107.115 47.4177C107.493 47.4177 107.746 47.3546 107.903 47.26C108.061 47.1653 108.156 47.0076 108.156 46.8183C108.156 46.6921 108.093 46.5659 107.998 46.5028C107.903 46.4397 107.777 46.3766 107.619 46.345C107.462 46.3135 107.272 46.2819 107.083 46.2504C106.894 46.2188 106.704 46.1873 106.484 46.1242C106.294 46.0926 106.105 45.998 105.947 45.9349C105.789 45.8402 105.663 45.7456 105.569 45.5878C105.474 45.4301 105.411 45.2407 105.411 44.9883C105.411 44.7359 105.474 44.4835 105.632 44.2942C105.789 44.1049 105.979 43.9472 106.263 43.8525C106.547 43.7579 106.862 43.6948 107.241 43.6948C107.525 43.6948 107.809 43.7263 108.093 43.7894C108.377 43.8525 108.629 43.9472 108.818 44.0734L108.471 44.7044C108.282 44.5782 108.061 44.4835 107.872 44.4204C107.651 44.3573 107.43 44.3573 107.241 44.3573C106.894 44.3573 106.641 44.4204 106.484 44.5151C106.326 44.6413 106.231 44.7675 106.231 44.9568C106.231 45.1145 106.294 45.2092 106.389 45.3038C106.484 45.3985 106.61 45.4301 106.768 45.4932C106.925 45.5247 107.115 45.5878 107.304 45.6193C107.493 45.6509 107.683 45.6825 107.903 45.7456C108.093 45.7771 108.282 45.8718 108.44 45.9349C108.597 46.0295 108.724 46.1242 108.818 46.2819C108.913 46.4397 108.976 46.629 108.976 46.8814C108.976 47.1338 108.913 47.3546 108.755 47.5755C108.597 47.7648 108.377 47.9226 108.093 48.0172C107.809 48.1119 107.462 48.1119 107.083 48.1119Z" fill="black"/>
<path d="M109.639 44.3573V43.6948H112.415V44.3573H109.639ZM111.753 48.1119C111.311 48.1119 110.964 47.9857 110.743 47.7648C110.491 47.544 110.396 47.1969 110.396 46.7552V42.7798H111.185V46.7236C111.185 46.9445 111.248 47.1338 111.374 47.26C111.5 47.3862 111.658 47.4493 111.879 47.4493C112.131 47.4493 112.32 47.3862 112.478 47.26L112.731 47.8279C112.604 47.9225 112.478 48.0172 112.289 48.0488C112.131 48.0803 111.942 48.1119 111.753 48.1119Z" fill="black"/>
<path d="M115.791 48.1119C115.318 48.1119 114.908 48.0172 114.561 47.8279C114.214 47.6386 113.93 47.3862 113.74 47.0391C113.551 46.6921 113.457 46.3135 113.457 45.9033C113.457 45.4616 113.551 45.083 113.74 44.7675C113.93 44.4204 114.182 44.168 114.529 43.9787C114.845 43.7894 115.223 43.6948 115.634 43.6948C116.044 43.6948 116.422 43.7894 116.738 43.9787C117.053 44.168 117.306 44.4204 117.495 44.7675C117.684 45.1146 117.779 45.4931 117.779 45.9349C117.779 45.9664 117.779 45.998 117.779 46.0611C117.779 46.0926 117.779 46.1557 117.779 46.1873H114.056V45.6193H117.337L117.022 45.8087C117.022 45.5247 116.959 45.2723 116.864 45.0514C116.738 44.8306 116.58 44.6728 116.359 44.5466C116.138 44.4204 115.917 44.3573 115.634 44.3573C115.35 44.3573 115.129 44.4204 114.908 44.5466C114.687 44.6728 114.529 44.8306 114.403 45.0514C114.277 45.2723 114.214 45.5247 114.214 45.8087V45.9349C114.214 46.2188 114.277 46.4712 114.403 46.7236C114.529 46.9445 114.719 47.1338 114.971 47.26C115.223 47.3862 115.476 47.4493 115.791 47.4493C116.044 47.4493 116.296 47.4177 116.485 47.3231C116.706 47.2284 116.896 47.1022 117.053 46.9445L117.495 47.4493C117.306 47.6702 117.053 47.8594 116.769 47.9856C116.454 48.0488 116.138 48.1119 115.791 48.1119Z" fill="black"/>
<path d="M119.198 48.0487V43.6948H119.955V44.8621L119.892 44.5782C120.019 44.2627 120.208 44.0418 120.492 43.8841C120.776 43.7263 121.123 43.6317 121.533 43.6317V44.3889C121.501 44.3889 121.47 44.3889 121.438 44.3889C121.407 44.3889 121.375 44.3889 121.344 44.3889C120.934 44.3889 120.586 44.5151 120.334 44.7675C120.082 45.0199 119.955 45.367 119.955 45.8718V48.0487H119.198Z" fill="black"/>
<path d="M125.509 48.0487V42.3065H129.547V43.0322H126.329V48.0487H125.509ZM126.266 45.7456V45.0514H129.232V45.7456H126.266Z" fill="black"/>
<path d="M131.314 42.8744C131.156 42.8744 131.03 42.8113 130.936 42.7167C130.841 42.622 130.778 42.4958 130.778 42.3696C130.778 42.2119 130.841 42.0857 130.936 41.991C131.03 41.8964 131.156 41.8333 131.314 41.8333C131.472 41.8333 131.598 41.8964 131.693 41.991C131.787 42.0857 131.851 42.2119 131.851 42.3381C131.851 42.4958 131.787 42.622 131.693 42.7167C131.598 42.8113 131.472 42.8744 131.314 42.8744ZM130.936 48.0487V43.6948H131.724V48.0487H130.936Z" fill="black"/>
<path d="M133.554 48.0487V43.6948H134.311V44.8621L134.185 44.5466C134.311 44.2627 134.532 44.0418 134.848 43.8841C135.132 43.7263 135.479 43.6317 135.889 43.6317C136.236 43.6317 136.552 43.6948 136.835 43.821C137.119 43.9472 137.309 44.168 137.466 44.452C137.624 44.7359 137.687 45.083 137.687 45.4932V47.9856H136.899V45.5878C136.899 45.1776 136.804 44.8621 136.583 44.6413C136.394 44.4204 136.078 44.3258 135.731 44.3258C135.447 44.3258 135.195 44.3889 135.006 44.4835C134.785 44.5782 134.627 44.7675 134.532 44.9568C134.406 45.1776 134.375 45.43 134.375 45.7456V47.9856H133.554V48.0487Z" fill="black"/>
<path d="M140.716 48.1119C140.401 48.1119 140.117 48.0488 139.864 47.9541C139.612 47.8594 139.422 47.7017 139.296 47.5124C139.17 47.3231 139.107 47.1022 139.107 46.8498C139.107 46.629 139.17 46.4081 139.265 46.2188C139.391 46.0295 139.549 45.8718 139.801 45.7456C140.053 45.6194 140.401 45.5878 140.842 45.5878H142.23V46.1557H140.874C140.495 46.1557 140.211 46.2188 140.085 46.345C139.959 46.4712 139.896 46.629 139.896 46.8183C139.896 47.0391 139.99 47.1969 140.148 47.3231C140.306 47.4493 140.558 47.5124 140.842 47.5124C141.126 47.5124 141.41 47.4493 141.631 47.3231C141.852 47.1969 142.01 47.0076 142.104 46.7552L142.262 47.2915C142.167 47.544 141.978 47.7648 141.726 47.891C141.442 48.0172 141.126 48.1119 140.716 48.1119ZM142.136 48.0487V47.1338L142.104 46.976V45.3985C142.104 45.0514 142.01 44.799 141.82 44.6097C141.631 44.4204 141.347 44.3258 140.937 44.3258C140.684 44.3258 140.432 44.3573 140.18 44.452C139.927 44.5466 139.738 44.6413 139.549 44.799L139.233 44.1996C139.454 44.0103 139.738 43.8841 140.053 43.7894C140.369 43.6948 140.684 43.6317 141.032 43.6317C141.631 43.6317 142.073 43.7894 142.42 44.0734C142.735 44.3573 142.893 44.799 142.893 45.3985V48.0172H142.136V48.0487Z" fill="black"/>
<path d="M144.691 48.0487V43.6948H145.449V44.8621L145.322 44.5466C145.449 44.2627 145.669 44.0418 145.985 43.8841C146.269 43.7263 146.616 43.6317 147.026 43.6317C147.373 43.6317 147.689 43.6948 147.973 43.821C148.257 43.9472 148.446 44.168 148.604 44.452C148.761 44.7359 148.825 45.083 148.825 45.4932V47.9856H148.036V45.5878C148.036 45.1776 147.941 44.8621 147.72 44.6413C147.531 44.4204 147.215 44.3258 146.868 44.3258C146.584 44.3258 146.332 44.3889 146.143 44.4835C145.922 44.5782 145.764 44.7675 145.669 44.9568C145.543 45.1776 145.512 45.43 145.512 45.7456V47.9856H144.691V48.0487Z" fill="black"/>
<path d="M152.484 48.1119C152.043 48.1119 151.632 48.0172 151.285 47.8279C150.938 47.6386 150.654 47.3862 150.465 47.0391C150.276 46.6921 150.181 46.3135 150.181 45.9033C150.181 45.4616 150.276 45.083 150.465 44.7675C150.654 44.4204 150.938 44.168 151.285 43.9787C151.632 43.7894 152.011 43.6948 152.484 43.6948C152.863 43.6948 153.242 43.7579 153.526 43.9156C153.841 44.0734 154.062 44.2942 154.251 44.6097L153.652 44.9883C153.494 44.7675 153.336 44.6097 153.147 44.5151C152.958 44.4204 152.737 44.3573 152.484 44.3573C152.2 44.3573 151.948 44.4204 151.727 44.5466C151.506 44.6728 151.317 44.8621 151.191 45.083C151.065 45.3039 151.001 45.5878 151.001 45.9033C151.001 46.2188 151.065 46.4712 151.191 46.7236C151.317 46.9445 151.506 47.1338 151.727 47.26C151.948 47.3862 152.2 47.4493 152.484 47.4493C152.705 47.4493 152.926 47.3862 153.147 47.2915C153.336 47.1969 153.526 47.0391 153.652 46.8183L154.251 47.1969C154.093 47.5124 153.841 47.7332 153.526 47.891C153.21 48.0172 152.863 48.1119 152.484 48.1119Z" fill="black"/>
<path d="M157.47 48.1119C156.996 48.1119 156.586 48.0172 156.239 47.8279C155.892 47.6386 155.608 47.3862 155.419 47.0391C155.229 46.6921 155.135 46.3135 155.135 45.9033C155.135 45.4616 155.229 45.083 155.419 44.7675C155.608 44.4204 155.86 44.168 156.207 43.9787C156.523 43.7894 156.902 43.6948 157.312 43.6948C157.722 43.6948 158.101 43.7894 158.416 43.9787C158.732 44.168 158.984 44.4204 159.173 44.7675C159.363 45.1146 159.457 45.4931 159.457 45.9349C159.457 45.9664 159.457 45.998 159.457 46.0611C159.457 46.0926 159.457 46.1557 159.457 46.1873H155.766V45.6193H159.047L158.732 45.8087C158.732 45.5247 158.668 45.2723 158.574 45.0514C158.448 44.8306 158.29 44.6728 158.069 44.5466C157.848 44.4204 157.627 44.3573 157.343 44.3573C157.059 44.3573 156.839 44.4204 156.618 44.5466C156.397 44.6728 156.239 44.8306 156.113 45.0514C155.987 45.2723 155.924 45.5247 155.924 45.8087V45.9349C155.924 46.2188 155.987 46.4712 156.113 46.7236C156.239 46.9445 156.428 47.1338 156.681 47.26C156.933 47.3862 157.186 47.4493 157.501 47.4493C157.753 47.4493 158.006 47.4177 158.195 47.3231C158.416 47.2284 158.605 47.1022 158.763 46.9445L159.205 47.4493C159.015 47.6702 158.763 47.8594 158.479 47.9856C158.132 48.0488 157.817 48.1119 157.47 48.1119Z" fill="black"/>
<path d="M164.821 48.0487L162.896 42.3065H163.748L165.515 47.607H165.073L166.903 42.3065H167.66L169.459 47.607H169.048L170.847 42.3065H171.636L169.711 48.0487H168.859L167.187 43.1268H167.408L165.736 48.0487H164.821Z" fill="black"/>
<path d="M173.213 42.8744C173.055 42.8744 172.929 42.8113 172.835 42.7167C172.74 42.622 172.677 42.4958 172.677 42.3696C172.677 42.2119 172.74 42.0857 172.835 41.991C172.929 41.8964 173.055 41.8333 173.213 41.8333C173.371 41.8333 173.497 41.8964 173.592 41.991C173.686 42.0857 173.749 42.2119 173.749 42.3381C173.749 42.4958 173.686 42.622 173.592 42.7167C173.529 42.8113 173.371 42.8744 173.213 42.8744ZM172.835 48.0487V43.6948H173.623V48.0487H172.835Z" fill="black"/>
<path d="M174.791 44.3573V43.6948H177.567V44.3573H174.791ZM176.905 48.1119C176.463 48.1119 176.116 47.9857 175.895 47.7648C175.643 47.544 175.548 47.1969 175.548 46.7552V42.7798H176.337V46.7236C176.337 46.9445 176.4 47.1338 176.526 47.26C176.653 47.3862 176.81 47.4493 177.031 47.4493C177.284 47.4493 177.473 47.3862 177.631 47.26L177.883 47.8279C177.757 47.9225 177.631 48.0172 177.441 48.0488C177.252 48.0803 177.094 48.1119 176.905 48.1119Z" fill="black"/>
<path d="M179.145 48.0488V41.9595H179.933V44.8621L179.776 44.5466C179.902 44.2627 180.123 44.0418 180.438 43.8841C180.722 43.7263 181.069 43.6317 181.479 43.6317C181.826 43.6317 182.142 43.6948 182.426 43.821C182.71 43.9472 182.899 44.168 183.057 44.452C183.215 44.7359 183.278 45.083 183.278 45.4932V47.9856H182.489V45.5878C182.489 45.1776 182.394 44.8621 182.173 44.6413C181.984 44.4204 181.669 44.3258 181.322 44.3258C181.038 44.3258 180.785 44.3889 180.596 44.4835C180.375 44.5782 180.217 44.7675 180.123 44.9568C179.996 45.1776 179.965 45.43 179.965 45.7456V47.9856H179.145V48.0488Z" fill="black"/>
<path d="M190.251 48.1119C189.809 48.1119 189.399 48.0487 189.052 47.891C188.673 47.7332 188.358 47.5439 188.105 47.2915C187.821 47.0391 187.632 46.7236 187.474 46.3766C187.317 46.0295 187.253 45.6193 187.253 45.2092C187.253 44.7675 187.317 44.3889 187.474 44.0418C187.632 43.6947 187.853 43.3793 188.105 43.1268C188.389 42.8744 188.705 42.6536 189.083 42.5274C189.462 42.3696 189.841 42.3065 190.282 42.3065C190.724 42.3065 191.134 42.3696 191.513 42.5274C191.891 42.6851 192.207 42.906 192.459 43.19L191.923 43.6948C191.702 43.4739 191.45 43.2846 191.197 43.19C190.913 43.0638 190.629 43.0322 190.314 43.0322C189.998 43.0322 189.683 43.0953 189.43 43.19C189.146 43.2846 188.926 43.4424 188.705 43.6632C188.515 43.8525 188.358 44.1049 188.231 44.3573C188.105 44.6413 188.074 44.9252 188.074 45.2407C188.074 45.5563 188.137 45.8402 188.231 46.1242C188.358 46.4081 188.515 46.629 188.705 46.8183C188.894 47.0076 189.146 47.1653 189.43 47.2915C189.714 47.3862 189.998 47.4493 190.314 47.4493C190.629 47.4493 190.913 47.3862 191.197 47.2915C191.481 47.1653 191.702 47.0076 191.923 46.7867L192.459 47.2915C192.207 47.5755 191.891 47.7963 191.513 47.9541C191.103 48.0488 190.692 48.1119 190.251 48.1119Z" fill="black"/>
<path d="M195.425 48.1119C194.983 48.1119 194.604 48.0172 194.257 47.8279C193.91 47.6386 193.658 47.3862 193.469 47.0391C193.279 46.6921 193.185 46.3135 193.185 45.9033C193.185 45.4616 193.279 45.083 193.469 44.7675C193.658 44.4204 193.942 44.168 194.257 43.9787C194.604 43.7894 194.983 43.6948 195.425 43.6948C195.866 43.6948 196.245 43.7894 196.592 43.9787C196.939 44.168 197.192 44.4204 197.381 44.7675C197.57 45.083 197.665 45.4932 197.665 45.9033C197.665 46.345 197.57 46.7236 197.381 47.0391C197.192 47.3862 196.908 47.6386 196.592 47.8279C196.245 48.0172 195.866 48.1119 195.425 48.1119ZM195.425 47.4177C195.709 47.4177 195.961 47.3546 196.182 47.2284C196.403 47.1022 196.592 46.9129 196.687 46.6921C196.813 46.4712 196.876 46.1873 196.876 45.8718C196.876 45.5563 196.813 45.3038 196.687 45.0514C196.561 44.8306 196.403 44.6413 196.182 44.5151C195.961 44.3889 195.709 44.3258 195.425 44.3258C195.141 44.3258 194.888 44.3889 194.667 44.5151C194.447 44.6413 194.289 44.8306 194.131 45.0514C194.005 45.2723 193.942 45.5563 193.942 45.8718C193.942 46.1873 194.005 46.4397 194.131 46.6921C194.257 46.9129 194.447 47.1022 194.667 47.2284C194.888 47.3546 195.141 47.4177 195.425 47.4177Z" fill="black"/>
<path d="M199.085 48.0487V43.6948H199.842V44.8621L199.716 44.5466C199.842 44.2627 200.063 44.0418 200.379 43.8841C200.662 43.7263 201.01 43.6317 201.42 43.6317C201.767 43.6317 202.082 43.6948 202.366 43.821C202.65 43.9472 202.84 44.168 202.997 44.452C203.155 44.7359 203.218 45.083 203.218 45.4932V47.9856H202.429V45.5878C202.429 45.1776 202.335 44.8621 202.114 44.6413C201.925 44.4204 201.609 44.3258 201.262 44.3258C200.978 44.3258 200.726 44.3889 200.536 44.4835C200.315 44.5782 200.158 44.7675 200.063 44.9568C199.937 45.1776 199.905 45.43 199.905 45.7456V47.9856H199.085V48.0487Z" fill="black"/>
<path d="M204.385 44.3573V43.6948H207.162V44.3573H204.385ZM205.111 48.0487V43.3161C205.111 42.8744 205.237 42.5589 205.49 42.3065C205.742 42.0541 206.089 41.9279 206.562 41.9279C206.72 41.9279 206.909 41.9595 207.036 41.991C207.193 42.0226 207.319 42.0857 207.446 42.1803L207.193 42.7798C207.099 42.7167 207.004 42.6536 206.909 42.622C206.815 42.5905 206.688 42.5589 206.594 42.5589C206.373 42.5589 206.184 42.622 206.057 42.7482C205.931 42.8744 205.868 43.0637 205.868 43.3161V43.884L205.9 44.2311V48.0172H205.111V48.0487ZM208.298 42.8744C208.14 42.8744 208.014 42.8113 207.919 42.7167C207.824 42.622 207.761 42.4958 207.761 42.3696C207.761 42.2119 207.824 42.0857 207.919 41.991C208.014 41.8964 208.14 41.8333 208.298 41.8333C208.455 41.8333 208.582 41.8964 208.676 41.991C208.771 42.0857 208.834 42.2119 208.834 42.3381C208.834 42.4958 208.771 42.622 208.676 42.7167C208.582 42.8113 208.455 42.8744 208.298 42.8744ZM207.887 48.0487V43.6948H208.676V48.0487H207.887Z" fill="black"/>
<path d="M212.305 48.1119C211.895 48.1119 211.516 48.0172 211.169 47.8279C210.853 47.6386 210.569 47.3862 210.38 47.0391C210.191 46.6921 210.096 46.3135 210.096 45.8718C210.096 45.4301 210.191 45.0514 210.38 44.7044C210.569 44.3889 210.822 44.1049 211.169 43.9156C211.484 43.7263 211.863 43.6317 212.305 43.6317C212.683 43.6317 212.999 43.7263 213.283 43.8841C213.567 44.0418 213.819 44.2942 213.977 44.6097C214.166 44.9252 214.229 45.3354 214.229 45.8402C214.229 46.345 214.135 46.7552 213.977 47.0707C213.819 47.3862 213.567 47.6386 213.283 47.7964C213.03 48.0172 212.683 48.1119 212.305 48.1119ZM212.368 47.4177C212.652 47.4177 212.873 47.3546 213.094 47.2284C213.314 47.1022 213.504 46.9129 213.63 46.6921C213.756 46.4712 213.819 46.1873 213.819 45.8718C213.819 45.5563 213.756 45.3038 213.63 45.0514C213.504 44.8306 213.314 44.6413 213.094 44.5151C212.873 44.3889 212.62 44.3258 212.368 44.3258C212.084 44.3258 211.831 44.3889 211.611 44.5151C211.39 44.6413 211.232 44.8306 211.074 45.0514C210.948 45.2723 210.885 45.5563 210.885 45.8718C210.885 46.1873 210.948 46.4397 211.074 46.6921C211.2 46.9129 211.39 47.1022 211.611 47.2284C211.831 47.3546 212.084 47.4177 212.368 47.4177ZM213.851 48.0488V46.8814L213.914 45.8718L213.819 44.8621V41.9595H214.608V48.0488H213.851Z" fill="black"/>
<path d="M218.363 48.1119C217.889 48.1119 217.479 48.0172 217.132 47.8279C216.785 47.6386 216.501 47.3862 216.312 47.0391C216.122 46.6921 216.028 46.3135 216.028 45.9033C216.028 45.4616 216.122 45.083 216.312 44.7675C216.501 44.4204 216.753 44.168 217.101 43.9787C217.416 43.7894 217.795 43.6948 218.205 43.6948C218.615 43.6948 218.994 43.7894 219.309 43.9787C219.625 44.168 219.877 44.4204 220.066 44.7675C220.256 45.1146 220.35 45.4931 220.35 45.9349C220.35 45.9664 220.35 45.998 220.35 46.0611C220.35 46.0926 220.35 46.1557 220.35 46.1873H216.659V45.6193H219.94L219.625 45.8087C219.625 45.5247 219.561 45.2723 219.467 45.0514C219.341 44.8306 219.183 44.6728 218.962 44.5466C218.741 44.4204 218.52 44.3573 218.236 44.3573C217.952 44.3573 217.732 44.4204 217.511 44.5466C217.29 44.6728 217.132 44.8306 217.006 45.0514C216.88 45.2723 216.817 45.5247 216.817 45.8087V45.9349C216.817 46.2188 216.88 46.4712 217.006 46.7236C217.132 46.9445 217.321 47.1338 217.574 47.26C217.826 47.3862 218.079 47.4493 218.394 47.4493C218.647 47.4493 218.899 47.4177 219.088 47.3231C219.309 47.2284 219.498 47.1022 219.656 46.9445L220.098 47.4493C219.909 47.6702 219.656 47.8594 219.372 47.9856C219.057 48.0488 218.71 48.1119 218.363 48.1119Z" fill="black"/>
<path d="M221.77 48.0487V43.6948H222.527V44.8621L222.401 44.5466C222.527 44.2627 222.748 44.0418 223.064 43.8841C223.348 43.7263 223.695 43.6317 224.105 43.6317C224.452 43.6317 224.767 43.6948 225.051 43.821C225.335 43.9472 225.525 44.168 225.682 44.452C225.84 44.7359 225.903 45.083 225.903 45.4932V47.9856H225.114V45.5878C225.114 45.1776 225.02 44.8621 224.799 44.6413C224.61 44.4204 224.294 44.3258 223.947 44.3258C223.663 44.3258 223.411 44.3889 223.221 44.4835C223 44.5782 222.843 44.7675 222.748 44.9568C222.622 45.1776 222.59 45.43 222.59 45.7456V47.9856H221.77V48.0487Z" fill="black"/>
<path d="M229.563 48.1119C229.121 48.1119 228.711 48.0172 228.364 47.8279C228.017 47.6386 227.733 47.3862 227.544 47.0391C227.354 46.6921 227.26 46.3135 227.26 45.9033C227.26 45.4616 227.354 45.083 227.544 44.7675C227.733 44.4204 228.017 44.168 228.364 43.9787C228.711 43.7894 229.09 43.6948 229.563 43.6948C229.942 43.6948 230.32 43.7579 230.604 43.9156C230.92 44.0734 231.141 44.2942 231.33 44.6097L230.73 44.9883C230.573 44.7675 230.415 44.6097 230.226 44.5151C230.036 44.4204 229.815 44.3573 229.563 44.3573C229.279 44.3573 229.027 44.4204 228.806 44.5466C228.585 44.6728 228.396 44.8621 228.269 45.083C228.143 45.3039 228.08 45.5878 228.08 45.9033C228.08 46.2188 228.143 46.4712 228.269 46.7236C228.396 46.9445 228.585 47.1338 228.806 47.26C229.027 47.3862 229.279 47.4493 229.563 47.4493C229.784 47.4493 230.005 47.3862 230.226 47.2915C230.415 47.1969 230.604 47.0391 230.73 46.8183L231.33 47.1969C231.172 47.5124 230.92 47.7332 230.604 47.891C230.32 48.0172 229.942 48.1119 229.563 48.1119Z" fill="black"/>
<path d="M234.548 48.1119C234.074 48.1119 233.664 48.0172 233.317 47.8279C232.97 47.6386 232.686 47.3862 232.497 47.0391C232.308 46.6921 232.213 46.3135 232.213 45.9033C232.213 45.4616 232.308 45.083 232.497 44.7675C232.686 44.4204 232.939 44.168 233.286 43.9787C233.601 43.7894 233.98 43.6948 234.39 43.6948C234.8 43.6948 235.179 43.7894 235.494 43.9787C235.81 44.168 236.062 44.4204 236.251 44.7675C236.441 45.1146 236.535 45.4931 236.535 45.9349C236.535 45.9664 236.535 45.998 236.535 46.0611C236.535 46.0926 236.535 46.1557 236.535 46.1873H232.844V45.6193H236.125L235.81 45.8087C235.81 45.5247 235.747 45.2723 235.652 45.0514C235.526 44.8306 235.368 44.6728 235.147 44.5466C234.926 44.4204 234.705 44.3573 234.421 44.3573C234.137 44.3573 233.917 44.4204 233.696 44.5466C233.475 44.6728 233.317 44.8306 233.191 45.0514C233.065 45.2723 233.002 45.5247 233.002 45.8087V45.9349C233.002 46.2188 233.065 46.4712 233.191 46.7236C233.317 46.9445 233.506 47.1338 233.759 47.26C234.011 47.3862 234.264 47.4493 234.579 47.4493C234.832 47.4493 235.084 47.4177 235.273 47.3231C235.494 47.2284 235.683 47.1022 235.841 46.9445L236.283 47.4493C236.094 47.6702 235.841 47.8594 235.557 47.9856C235.242 48.0488 234.895 48.1119 234.548 48.1119Z" fill="black"/>
</svg>
