<svg width="132" height="25" viewBox="0 0 132 25" fill="none" xmlns="http://www.w3.org/2000/svg">
<path d="M12.0845 0L14.7976 8.35019H23.5776L16.4745 13.5109L19.1876 21.8611L12.0845 16.7004L4.98141 21.8611L7.69455 13.5109L0.591458 8.35019H9.37137L12.0845 0Z" fill="#F08B03"/>
<path d="M39.042 0L41.7552 8.35019H50.5351L43.432 13.5109L46.1451 21.8611L39.042 16.7004L31.9389 21.8611L34.6521 13.5109L27.549 8.35019H36.3289L39.042 0Z" fill="#F08B03"/>
<path d="M66 0L68.7132 8.35019H77.4931L70.39 13.5109L73.1031 21.8611L66 16.7004L58.8969 21.8611L61.6101 13.5109L54.507 8.35019H63.2869L66 0Z" fill="#F08B03"/>
<path d="M92.9576 0L95.6707 8.35019H104.451L97.3475 13.5109L100.061 21.8611L92.9576 16.7004L85.8545 21.8611L88.5676 13.5109L81.4645 8.35019H90.2444L92.9576 0Z" fill="#F08B03"/>
<path d="M119.916 0L122.629 8.35019H131.409L124.306 13.5109L127.019 21.8611L119.916 16.7004L112.812 21.8611L115.526 13.5109L108.423 8.35019H117.202L119.916 0Z" fill="#F08B03"/>
</svg>
