<svg width="21" height="20" viewBox="0 0 21 20" fill="none" xmlns="http://www.w3.org/2000/svg">
<path d="M17.3434 6.43628C17.8618 7.5162 18.1641 8.7257 18.1641 10C18.1641 14.4924 14.4924 18.1641 10 18.1641C5.50756 18.1641 1.83585 14.4924 1.83585 10C1.83585 5.50756 5.50756 1.83585 10 1.83585C11.8359 1.83585 13.5421 2.4406 14.9028 3.47732C15.3996 3.11015 15.8963 2.72138 16.4363 2.37581C14.6868 0.907127 12.4406 0 9.9784 0C4.49244 0 0 4.49244 0 10C0 15.5076 4.49244 20 10 20C15.5076 20 20 15.5076 20 10C20 8.18574 19.5032 6.50108 18.6609 5.0324C18.2289 5.44276 17.797 5.91793 17.3434 6.43628Z" fill="#BE5014"/>
<path d="M9.71931 9.80559C9.71931 9.80559 13.6934 4.29803 19.7841 1.38226C20.3241 1.12308 20.7992 1.92222 20.3457 2.31099C18.013 4.44921 14.6653 7.38658 10.6912 14.946C10.2809 15.7451 9.11456 15.7451 8.70419 14.946L4.94609 7.90494C4.75171 7.55937 4.8597 7.1274 5.20527 6.88982L5.70203 6.54425C5.98281 6.34986 6.37158 6.39306 6.63076 6.63064L9.71931 9.80559Z" fill="#BE5014"/>
</svg>
