<svg width="81" height="81" viewBox="0 0 81 81" fill="none" xmlns="http://www.w3.org/2000/svg">
<path d="M39.1535 0.652914C39.4756 -0.217704 40.707 -0.217704 41.0292 0.652914L51.2682 28.3234C51.3694 28.5971 51.5853 28.8129 51.859 28.9142L79.5295 39.1532C80.4001 39.4754 80.4001 40.7068 79.5295 41.0289L51.859 51.2679C51.5853 51.3692 51.3694 51.585 51.2682 51.8587L41.0292 79.5292C40.707 80.3998 39.4756 80.3998 39.1535 79.5292L28.9145 51.8587C28.8132 51.585 28.5974 51.3692 28.3236 51.2679L0.653158 41.0289C-0.21746 40.7068 -0.21746 39.4754 0.653158 39.1532L28.3236 28.9142C28.5974 28.8129 28.8132 28.5971 28.9145 28.3234L39.1535 0.652914Z" fill="white"/>
</svg>
