<svg width="211" height="351" viewBox="0 0 211 351" fill="none" xmlns="http://www.w3.org/2000/svg">
<g filter="url(#filter0_f_216_597)">
<path d="M-24.4552 42.8918C-14.793 37.0462 -4.6716 33.1017 5.64611 30.9221C12.6156 29.4496 19.5858 27.9822 26.5563 26.5143C16.2356 28.6864 6.11698 32.638 -3.53753 38.4806C-60.9243 73.1922 -79.4523 160.961 -45.8049 235.243C-17.8305 297.006 37.2114 330.168 88.2058 319.412C81.2282 320.882 74.2582 322.351 67.2892 323.822C16.2935 334.579 -39.4631 302.001 -67.4384 240.239C-101.086 165.956 -81.8412 77.6029 -24.4552 42.8921L-24.4552 42.8918Z" fill="url(#paint0_linear_216_597)"/>
<path d="M-46.5285 235.83C-12.8923 310.084 60.9051 342.154 118.299 307.44C175.687 272.733 194.936 184.373 161.292 110.118C127.653 35.8361 53.8547 3.76304 -3.53765 38.4798C-60.9244 73.1913 -80.1761 161.544 -46.5282 235.83L-46.5285 235.83Z" fill="url(#paint1_linear_216_597)"/>
<path d="M-3.53831 38.4828C1.96102 35.1548 7.59879 32.4579 13.3536 30.3369C8.07628 32.3754 2.88526 34.8902 -2.16834 37.9475C-59.5627 72.6617 -78.8074 161.012 -45.1588 235.298C-14.7452 302.443 48.5069 335.086 102.769 315.057C48.2048 336.152 -15.8535 303.541 -46.5288 235.833C-80.1768 161.547 -60.9251 73.1944 -3.53831 38.4828Z" fill="url(#paint2_linear_216_597)" style="mix-blend-mode:screen"/>
<path d="M98.4995 303.131C103.015 301.365 107.468 299.165 111.723 296.586C163.704 265.145 180.759 183.843 149.738 115.359C122.37 54.9349 64.9828 23.7423 16.2611 42.7919C11.7388 44.5601 7.28545 46.7607 3.0307 49.3399C-48.9507 80.7802 -66.001 162.093 -34.9674 230.589C-7.60467 290.999 49.7705 322.183 98.4995 303.131Z" fill="url(#paint3_linear_216_597)"/>
<g style="mix-blend-mode:multiply" opacity="0.5">
<path d="M64.853 40.414C99.5776 48.2405 130.954 76.4183 148.787 115.79C179.598 183.811 162.729 264.515 111.182 295.693C106.992 298.232 102.598 300.407 98.1196 302.158C83.0254 308.06 66.3502 309.219 49.8962 305.511C15.1808 297.686 -16.1875 269.517 -34.016 230.158C-64.84 162.126 -47.978 81.4121 3.57243 50.2331C7.76045 47.6946 12.1581 45.5183 16.6421 43.7648C31.7316 37.8651 48.4021 36.7062 64.853 40.414ZM65.0826 39.3952C48.7765 35.72 32.064 36.6133 16.2613 42.7922C11.7392 44.5605 7.28589 46.761 3.03087 49.3402C-48.9511 80.7804 -66.0009 162.094 -34.9673 230.589C-16.4825 271.398 15.7061 298.876 49.6665 306.53C65.9774 310.206 82.6893 309.313 98.5 303.131C103.015 301.366 107.468 299.165 111.723 296.586C163.704 265.146 180.759 183.843 149.738 115.359C131.247 74.5333 99.0508 47.0512 65.0823 39.3951L65.0826 39.3952Z" fill="url(#paint4_linear_216_597)"/>
</g>
<path d="M94.9547 170.346C87.7068 162.366 78.2355 159.512 68.8635 156.685C57.2741 153.192 49.322 150.314 46.9378 143.143C45.5536 138.978 45.9083 135.036 47.9874 131.455C50.5754 126.996 56.6764 122.439 65.2923 124.155C78.1119 126.701 82.242 140.297 82.6697 141.832L82.615 141.621L103.601 132.796C100.589 120.578 89.7396 98.3458 67.6319 93.1142C67.6252 93.1126 67.619 93.1118 67.6123 93.1103L67.4164 75.7515L54.4869 74.3755L54.6905 92.4103C43.795 93.7944 33.9121 100.246 27.4661 110.928C19.7379 123.736 18.2787 140.048 23.5268 155.356C31.602 178.909 49.9213 183.723 64.0878 187.446C70.8843 189.232 77.7972 191.049 80.9666 194.386C83.4431 196.993 84.5222 200.165 84.278 204.097C83.9417 209.498 81.138 215.017 77.1031 218.177C72.4647 221.811 63.5173 224.187 54.8332 220.662C47.3772 217.636 41.8245 210.905 38.4112 200.639L14.3806 214.264C20.9342 233.354 32.2306 246.214 46.7379 251.523C49.9099 252.683 53.198 253.421 56.5119 253.782L56.718 272.047L69.6131 270.38L69.4199 253.244C76.2657 251.923 82.7475 248.985 88.0887 244.566C98.4944 235.961 105.395 221.229 106.313 205.977C107.143 192.183 103.049 179.256 94.9548 170.346L94.9547 170.346Z" fill="url(#paint5_linear_216_597)" style="mix-blend-mode:screen"/>
<path d="M98.708 169.936C91.4602 161.957 81.9886 159.102 72.6166 156.276C61.0272 152.782 53.0754 149.904 50.6912 142.734C49.3067 138.568 49.662 134.627 51.7408 131.045C54.3288 126.587 60.4295 122.029 69.0454 123.745C81.865 126.292 85.995 139.888 86.4225 141.423L86.3681 141.212L107.354 132.386C104.342 120.168 93.4924 97.9363 71.385 92.7043C71.3784 92.7028 71.3721 92.702 71.3655 92.7005L71.1696 75.3414L58.2401 73.9657L58.4437 92.0005C47.5481 93.3847 37.6649 99.8365 31.2189 110.518C23.4908 123.326 22.0315 139.638 27.2797 154.946C35.3548 178.499 53.6742 183.313 67.8407 187.036C74.6372 188.822 81.5497 190.639 84.7192 193.976C87.1958 196.583 88.2752 199.755 88.0309 203.687C87.6944 209.088 84.891 214.607 80.8561 217.767C76.2176 221.401 67.2699 223.777 58.5861 220.252C51.1302 217.225 45.5774 210.495 42.1638 200.229L18.1333 213.853C24.6869 232.944 35.9832 245.804 50.4905 251.112C53.6626 252.273 56.9506 253.011 60.2646 253.371L60.4707 271.637L73.366 269.97L73.1725 252.833C80.0183 251.513 86.5002 248.574 91.8416 244.156C102.247 235.55 109.148 220.819 110.066 205.567C110.896 191.773 106.802 178.846 98.708 169.936Z" fill="url(#paint6_linear_216_597)"/>
<path d="M98.708 169.936C91.4602 161.957 81.9886 159.102 72.6166 156.276C61.0272 152.782 53.0754 149.904 50.6912 142.734C49.3067 138.568 49.662 134.627 51.7408 131.045C54.3288 126.587 60.4295 122.029 69.0454 123.745C81.865 126.292 85.995 139.888 86.4225 141.423L86.3681 141.212L107.354 132.386C104.342 120.168 93.4924 97.9363 71.385 92.7043C71.3784 92.7028 71.3721 92.702 71.3655 92.7005L71.1696 75.3414L58.2401 73.9657L58.4437 92.0005C47.5481 93.3847 37.6649 99.8365 31.2189 110.518C23.4908 123.326 22.0315 139.638 27.2797 154.946C35.3548 178.499 53.6742 183.313 67.8407 187.036C74.6372 188.822 81.5497 190.639 84.7192 193.976C87.1958 196.583 88.2752 199.755 88.0309 203.687C87.6944 209.088 84.891 214.607 80.8561 217.767C76.2176 221.401 67.2699 223.777 58.5861 220.252C51.1302 217.225 45.5774 210.495 42.1638 200.229L18.1333 213.853C24.6869 232.944 35.9832 245.804 50.4905 251.112C53.6626 252.273 56.9506 253.011 60.2646 253.371L60.4707 271.637L73.366 269.97L73.1725 252.833C80.0183 251.513 86.5002 248.574 91.8416 244.156C102.247 235.55 109.148 220.819 110.066 205.567C110.896 191.773 106.802 178.846 98.708 169.936Z" fill="url(#paint7_linear_216_597)" style="mix-blend-mode:darken"/>
<path opacity="0.4" d="M68.6923 92.7241C68.699 92.7256 68.7052 92.7264 68.7119 92.7279C90.8196 97.9599 101.669 120.192 104.681 132.41L86.0503 140.245C86.2437 140.806 86.3669 141.221 86.4228 141.421L86.3681 141.21L107.355 132.385C104.342 120.167 93.4927 97.9347 71.3853 92.7025C71.3787 92.701 71.3724 92.7004 71.3657 92.6989L71.1699 75.3398L58.2403 73.9641L58.2438 74.2739L68.4965 75.365L68.6923 92.7241ZM58.5866 220.251C51.1308 217.224 45.578 210.493 42.1644 200.227L39.9296 201.495C43.371 211.058 48.7645 217.374 55.9132 220.276C59.4556 221.714 63.0368 222.158 66.3566 221.948C63.8249 221.828 61.1947 221.31 58.5869 220.251L58.5866 220.251ZM110.066 205.565C110.896 191.771 106.802 178.844 98.7086 169.934C91.4608 161.955 81.9892 159.1 72.6172 156.274C61.0281 152.78 53.0759 149.902 50.6918 142.732C49.3073 138.567 49.6625 134.625 51.7414 131.043C53.7775 127.535 57.9964 123.98 63.8962 123.453C56.5906 122.97 51.3994 127.051 49.068 131.068C46.9889 134.65 46.6336 138.591 48.0184 142.757C50.4026 149.927 58.3547 152.806 69.9438 156.299C79.3158 159.125 88.7871 161.98 96.0353 169.959C104.129 178.869 108.223 191.796 107.393 205.59C106.475 220.842 99.5749 235.574 89.1689 244.179C83.8274 248.598 77.3458 251.537 70.4997 252.857L70.6932 269.993L60.4679 271.315L60.4712 271.635L73.3666 269.968L73.1731 252.832C80.0189 251.511 86.5008 248.572 91.8422 244.154C102.248 235.548 109.148 220.817 110.066 205.565Z" fill="url(#paint8_linear_216_597)" style="mix-blend-mode:multiply"/>
</g>
<defs>
<filter id="filter0_f_216_597" x="-92.002" y="16.4805" width="277.854" height="317.371" filterUnits="userSpaceOnUse" color-interpolation-filters="sRGB">
<feFlood flood-opacity="0" result="BackgroundImageFix"/>
<feBlend mode="normal" in="SourceGraphic" in2="BackgroundImageFix" result="shape"/>
<feGaussianBlur stdDeviation="4" result="effect1_foregroundBlur_216_597"/>
</filter>
<linearGradient id="paint0_linear_216_597" x1="-44.173" y1="41.5664" x2="32.0329" y2="359.496" gradientUnits="userSpaceOnUse">
<stop offset="0.054" stop-color="#A56008"/>
<stop offset="0.218" stop-color="#FFD44F"/>
<stop offset="0.484" stop-color="#FEEFBF"/>
<stop offset="0.653" stop-color="#FFD34C"/>
<stop offset="0.812" stop-color="#A56008"/>
<stop offset="1" stop-color="#FFB921"/>
</linearGradient>
<linearGradient id="paint1_linear_216_597" x1="166.807" y1="20.6919" x2="-59.4345" y2="335.446" gradientUnits="userSpaceOnUse">
<stop offset="0.054" stop-color="#A56008"/>
<stop offset="0.218" stop-color="#FFD44F"/>
<stop offset="0.484" stop-color="#FEEFBF"/>
<stop offset="0.653" stop-color="#FFD34C"/>
<stop offset="0.812" stop-color="#A56008"/>
<stop offset="1" stop-color="#FFB921"/>
</linearGradient>
<linearGradient id="paint2_linear_216_597" x1="129.374" y1="58.3785" x2="-59.9322" y2="321.747" gradientUnits="userSpaceOnUse">
<stop offset="0.054" stop-color="#A56008"/>
<stop offset="0.218" stop-color="#FFD44F"/>
<stop offset="0.484" stop-color="#FEEFBF"/>
<stop offset="0.653" stop-color="#FFD34C"/>
<stop offset="0.812" stop-color="#A56008"/>
<stop offset="1" stop-color="#FFB921"/>
</linearGradient>
<linearGradient id="paint3_linear_216_597" x1="-104.51" y1="65.0311" x2="371.12" y2="382.114" gradientUnits="userSpaceOnUse">
<stop offset="0.054" stop-color="#A56008"/>
<stop offset="0.218" stop-color="#FFD44F"/>
<stop offset="0.484" stop-color="#FEEFBF"/>
<stop offset="0.653" stop-color="#FFD34C"/>
<stop offset="0.812" stop-color="#A56008"/>
<stop offset="1" stop-color="#FFB921"/>
</linearGradient>
<linearGradient id="paint4_linear_216_597" x1="-44.8852" y1="104.79" x2="159.641" y2="241.136" gradientUnits="userSpaceOnUse">
<stop offset="0.054" stop-color="#A56008"/>
<stop offset="0.218" stop-color="#FFD44F"/>
<stop offset="0.484" stop-color="#FEEFBF"/>
<stop offset="0.653" stop-color="#FFD34C"/>
<stop offset="0.812" stop-color="#A56008"/>
<stop offset="1" stop-color="#FFB921"/>
</linearGradient>
<linearGradient id="paint5_linear_216_597" x1="147.179" y1="137.668" x2="-114.573" y2="244.391" gradientUnits="userSpaceOnUse">
<stop offset="0.054" stop-color="#A56008"/>
<stop offset="0.218" stop-color="#FFD44F"/>
<stop offset="0.484" stop-color="#FEEFBF"/>
<stop offset="0.653" stop-color="#FFD34C"/>
<stop offset="0.812" stop-color="#A56008"/>
<stop offset="1" stop-color="#FFB921"/>
</linearGradient>
<linearGradient id="paint6_linear_216_597" x1="239.71" y1="148.29" x2="-28.8274" y2="184.852" gradientUnits="userSpaceOnUse">
<stop offset="0.054" stop-color="#A56008"/>
<stop offset="0.218" stop-color="#FFD44F"/>
<stop offset="0.484" stop-color="#FEEFBF"/>
<stop offset="0.653" stop-color="#FFD34C"/>
<stop offset="0.812" stop-color="#A56008"/>
<stop offset="1" stop-color="#FFB921"/>
</linearGradient>
<linearGradient id="paint7_linear_216_597" x1="369.32" y1="180.863" x2="-52.2604" y2="169.898" gradientUnits="userSpaceOnUse">
<stop offset="0.054" stop-color="#A56008"/>
<stop offset="0.218" stop-color="#FFD44F"/>
<stop offset="0.484" stop-color="#FEEFBF"/>
<stop offset="0.653" stop-color="#FFD34C"/>
<stop offset="0.812" stop-color="#A56008"/>
<stop offset="1" stop-color="#FFB921"/>
</linearGradient>
<linearGradient id="paint8_linear_216_597" x1="44.4486" y1="173.793" x2="413.048" y2="149.227" gradientUnits="userSpaceOnUse">
<stop offset="0.054" stop-color="#A56008"/>
<stop offset="0.218" stop-color="#FFD44F"/>
<stop offset="0.484" stop-color="#FEEFBF"/>
<stop offset="0.653" stop-color="#FFD34C"/>
<stop offset="0.812" stop-color="#A56008"/>
<stop offset="1" stop-color="#FFB921"/>
</linearGradient>
</defs>
</svg>
