<svg width="22" height="23" viewBox="0 0 22 23" fill="none" xmlns="http://www.w3.org/2000/svg">
<path d="M6.07298 2.81069C6.70595 2.42774 7.36901 2.16933 8.04493 2.02655C8.50151 1.93008 8.95812 1.83395 9.41477 1.73779C8.73865 1.88009 8.07577 2.13896 7.4433 2.52171C3.68386 4.79569 2.47008 10.5455 4.67434 15.4118C6.50696 19.4579 10.1128 21.6304 13.4535 20.9257C12.9964 21.022 12.5397 21.1182 12.0832 21.2146C8.74245 21.9193 5.0898 19.7851 3.25711 15.739C1.05285 10.8727 2.31358 5.08464 6.07297 2.81071L6.07298 2.81069Z" fill="url(#paint0_linear_577_449)"/>
<path d="M4.62698 15.45C6.8305 20.3143 11.665 22.4153 15.4249 20.1412C19.1844 17.8675 20.4455 12.079 18.2414 7.2145C16.0377 2.34822 11.2031 0.247093 7.44333 2.52141C3.68389 4.79538 2.4227 10.5834 4.627 15.45L4.62698 15.45Z" fill="url(#paint1_linear_577_449)"/>
<path d="M7.44343 2.52126C7.80369 2.30323 8.17303 2.12656 8.55003 1.98761C8.20431 2.12115 7.86424 2.2859 7.53318 2.48618C3.77324 4.76033 2.5125 10.5482 4.71684 15.4147C6.70926 19.8135 10.8529 21.9519 14.4077 20.6398C10.8332 22.0217 6.63665 19.8854 4.62709 15.4498C2.42279 10.5833 3.68399 4.79523 7.44343 2.52126Z" fill="url(#paint2_linear_577_449)" style="mix-blend-mode:screen"/>
<path d="M14.1268 19.8588C14.4225 19.7432 14.7143 19.599 14.993 19.4301C18.3984 17.3704 19.5156 12.0442 17.4834 7.55781C15.6905 3.59938 11.931 1.55594 8.73926 2.80389C8.443 2.91972 8.15126 3.06388 7.87253 3.23285C4.46719 5.29252 3.35022 10.6194 5.38325 15.1066C7.1758 19.0641 10.9345 21.107 14.1268 19.8588Z" fill="url(#paint3_linear_577_449)"/>
<g style="mix-blend-mode:multiply" opacity="0.5">
<path d="M11.9225 2.64811C14.1974 3.16083 16.2529 5.00677 17.4211 7.58603C19.4396 12.0421 18.3345 17.3291 14.9576 19.3716C14.6831 19.5379 14.3952 19.6804 14.1019 19.7951C13.113 20.1818 12.0206 20.2577 10.9427 20.0148C8.66849 19.5022 6.61353 17.6568 5.44558 15.0783C3.42628 10.6215 4.53092 5.33392 7.90802 3.29136C8.18238 3.12507 8.47047 2.98249 8.76422 2.86762C9.75275 2.48113 10.8448 2.4052 11.9225 2.64811ZM11.9376 2.58136C10.8694 2.3406 9.77452 2.39912 8.73927 2.8039C8.44303 2.91974 8.15129 3.0639 7.87254 3.23287C4.46717 5.29253 3.35023 10.6194 5.38326 15.1066C6.59421 17.78 8.7029 19.5801 10.9277 20.0815C11.9962 20.3223 13.091 20.2638 14.1268 19.8588C14.4226 19.7432 14.7143 19.599 14.993 19.4301C18.3984 17.3704 19.5156 12.0442 17.4834 7.55782C16.272 4.88328 14.1629 3.08292 11.9376 2.58136L11.9376 2.58136Z" fill="url(#paint4_linear_577_449)"/>
</g>
<path d="M13.8951 11.1597C13.4203 10.637 12.7998 10.45 12.1858 10.2648C11.4266 10.036 10.9057 9.84743 10.7495 9.3777C10.6588 9.10483 10.682 8.84661 10.8182 8.61197C10.9878 8.3199 11.3875 8.02133 11.9519 8.13375C12.7917 8.30059 13.0623 9.19125 13.0903 9.29183L13.0867 9.27801L14.4615 8.69985C14.2642 7.89945 13.5535 6.44299 12.1052 6.10026C12.1047 6.10016 12.1043 6.10011 12.1039 6.10001L12.091 4.96282L11.244 4.87268L11.2574 6.05415C10.5436 6.14483 9.89615 6.56748 9.47387 7.26723C8.9676 8.10632 8.872 9.17494 9.21581 10.1778C9.74482 11.7207 10.9449 12.0361 11.873 12.28C12.3182 12.397 12.7711 12.516 12.9787 12.7347C13.141 12.9055 13.2117 13.1133 13.1957 13.3708C13.1736 13.7247 12.99 14.0862 12.7256 14.2932C12.4218 14.5313 11.8356 14.6869 11.2667 14.456C10.7783 14.2577 10.4145 13.8168 10.1909 13.1443L8.61664 14.0368C9.04597 15.2875 9.786 16.1299 10.7364 16.4777C10.9442 16.5537 11.1596 16.6021 11.3767 16.6257L11.3902 17.8222L12.2349 17.713L12.2223 16.5904C12.6708 16.504 13.0954 16.3114 13.4453 16.022C14.127 15.4582 14.579 14.4932 14.6392 13.494C14.6936 12.5903 14.4253 11.7435 13.8951 11.1598L13.8951 11.1597Z" fill="url(#paint5_linear_577_449)" style="mix-blend-mode:screen"/>
<path d="M14.1412 11.1324C13.6664 10.6097 13.0459 10.4227 12.4319 10.2375C11.6727 10.0087 11.1518 9.82013 10.9956 9.3504C10.9049 9.07752 10.9282 8.81931 11.0644 8.58465C11.2339 8.29259 11.6336 7.99402 12.198 8.10645C13.0378 8.27329 13.3084 9.16395 13.3364 9.26452L13.3328 9.2507L14.7076 8.67253C14.5103 7.87212 13.7995 6.41569 12.3513 6.07294C12.3508 6.07284 12.3504 6.07279 12.35 6.07269L12.3372 4.93549L11.4901 4.84536L11.5035 6.02683C10.7897 6.11751 10.1422 6.54017 9.71996 7.23991C9.21369 8.07899 9.11809 9.14762 9.4619 10.1504C9.99091 11.6934 11.191 12.0088 12.1191 12.2527C12.5643 12.3697 13.0172 12.4887 13.2248 12.7073C13.387 12.8781 13.4578 13.0859 13.4418 13.3435C13.4197 13.6973 13.2361 14.0589 12.9717 14.2659C12.6679 14.5039 12.0817 14.6596 11.5128 14.4287C11.0244 14.2304 10.6606 13.7895 10.437 13.1169L8.86271 14.0095C9.29204 15.2601 10.0321 16.1026 10.9825 16.4504C11.1903 16.5264 11.4057 16.5747 11.6228 16.5983L11.6363 17.7949L12.481 17.6857L12.4684 16.5631C12.9168 16.4766 13.3415 16.2841 13.6914 15.9946C14.3731 15.4309 14.8251 14.4658 14.8853 13.4667C14.9396 12.563 14.6714 11.7161 14.1412 11.1324Z" fill="url(#paint6_linear_577_449)"/>
<path d="M14.1412 11.1324C13.6664 10.6097 13.0459 10.4227 12.4319 10.2375C11.6727 10.0087 11.1518 9.82013 10.9956 9.3504C10.9049 9.07752 10.9282 8.81931 11.0644 8.58465C11.2339 8.29259 11.6336 7.99402 12.198 8.10645C13.0378 8.27329 13.3084 9.16395 13.3364 9.26452L13.3328 9.2507L14.7076 8.67253C14.5103 7.87212 13.7995 6.41569 12.3513 6.07294C12.3508 6.07284 12.3504 6.07279 12.35 6.07269L12.3372 4.93549L11.4901 4.84536L11.5035 6.02683C10.7897 6.11751 10.1422 6.54017 9.71996 7.23991C9.21369 8.07899 9.11809 9.14762 9.4619 10.1504C9.99091 11.6934 11.191 12.0088 12.1191 12.2527C12.5643 12.3697 13.0172 12.4887 13.2248 12.7073C13.387 12.8781 13.4578 13.0859 13.4418 13.3435C13.4197 13.6973 13.2361 14.0589 12.9717 14.2659C12.6679 14.5039 12.0817 14.6596 11.5128 14.4287C11.0244 14.2304 10.6606 13.7895 10.437 13.1169L8.86271 14.0095C9.29204 15.2601 10.0321 16.1026 10.9825 16.4504C11.1903 16.5264 11.4057 16.5747 11.6228 16.5983L11.6363 17.7949L12.481 17.6857L12.4684 16.5631C12.9168 16.4766 13.3415 16.2841 13.6914 15.9946C14.3731 15.4309 14.8251 14.4658 14.8853 13.4667C14.9396 12.563 14.6714 11.7161 14.1412 11.1324Z" fill="url(#paint7_linear_577_449)" style="mix-blend-mode:darken"/>
<path opacity="0.4" d="M12.1733 6.07489C12.1737 6.07499 12.1741 6.07505 12.1746 6.07514C13.6229 6.41789 14.3336 7.87435 14.531 8.67473L13.3104 9.188C13.3231 9.22475 13.3312 9.25192 13.3348 9.26507L13.3313 9.25123L14.7061 8.67309C14.5087 7.87268 13.798 6.41624 12.3497 6.07348C12.3493 6.07338 12.3489 6.07334 12.3484 6.07324L12.3356 4.93604L11.4886 4.84591L11.4888 4.86621L12.1605 4.93769L12.1733 6.07489ZM11.5113 14.4292C11.0228 14.2309 10.6591 13.79 10.4354 13.1175L10.289 13.2005C10.5145 13.827 10.8678 14.2408 11.3361 14.4309C11.5682 14.5251 11.8028 14.5542 12.0203 14.5404C11.8544 14.5325 11.6821 14.4986 11.5113 14.4293L11.5113 14.4292ZM14.8837 13.4672C14.9381 12.5635 14.6699 11.7167 14.1397 11.133C13.6649 10.6102 13.0444 10.4232 12.4304 10.2381C11.6712 10.0092 11.1503 9.82067 10.9941 9.35094C10.9034 9.07806 10.9266 8.81985 11.0628 8.58519C11.1962 8.35539 11.4726 8.12247 11.8591 8.08799C11.3805 8.05632 11.0404 8.32369 10.8877 8.58684C10.7515 8.82149 10.7282 9.07969 10.8189 9.35257C10.9751 9.8223 11.4961 10.0109 12.2553 10.2397C12.8692 10.4249 13.4897 10.6119 13.9645 11.1346C14.4948 11.7183 14.763 12.5652 14.7086 13.4688C14.6484 14.468 14.1964 15.433 13.5147 15.9968C13.1648 16.2863 12.7402 16.4788 12.2917 16.5653L12.3044 17.6879L11.6345 17.7745L11.6347 17.7955L12.4795 17.6862L12.4668 16.5636C12.9153 16.4771 13.3399 16.2846 13.6899 15.9951C14.3715 15.4314 14.8236 14.4664 14.8837 13.4672Z" fill="url(#paint8_linear_577_449)" style="mix-blend-mode:multiply"/>
<defs>
<linearGradient id="paint0_linear_577_449" x1="4.78125" y1="2.72387" x2="9.77354" y2="23.5516" gradientUnits="userSpaceOnUse">
<stop offset="0.054" stop-color="#A56008"/>
<stop offset="0.218" stop-color="#FFD44F"/>
<stop offset="0.484" stop-color="#FEEFBF"/>
<stop offset="0.653" stop-color="#FFD34C"/>
<stop offset="0.812" stop-color="#A56008"/>
<stop offset="1" stop-color="#FFB921"/>
</linearGradient>
<linearGradient id="paint1_linear_577_449" x1="18.6027" y1="1.35611" x2="3.7815" y2="21.9758" gradientUnits="userSpaceOnUse">
<stop offset="0.054" stop-color="#A56008"/>
<stop offset="0.218" stop-color="#FFD44F"/>
<stop offset="0.484" stop-color="#FEEFBF"/>
<stop offset="0.653" stop-color="#FFD34C"/>
<stop offset="0.812" stop-color="#A56008"/>
<stop offset="1" stop-color="#FFB921"/>
</linearGradient>
<linearGradient id="paint2_linear_577_449" x1="16.1506" y1="3.82463" x2="3.74903" y2="21.078" gradientUnits="userSpaceOnUse">
<stop offset="0.054" stop-color="#A56008"/>
<stop offset="0.218" stop-color="#FFD44F"/>
<stop offset="0.484" stop-color="#FEEFBF"/>
<stop offset="0.653" stop-color="#FFD34C"/>
<stop offset="0.812" stop-color="#A56008"/>
<stop offset="1" stop-color="#FFB921"/>
</linearGradient>
<linearGradient id="paint3_linear_577_449" x1="0.827484" y1="4.26079" x2="31.9863" y2="25.0331" gradientUnits="userSpaceOnUse">
<stop offset="0.054" stop-color="#A56008"/>
<stop offset="0.218" stop-color="#FFD44F"/>
<stop offset="0.484" stop-color="#FEEFBF"/>
<stop offset="0.653" stop-color="#FFD34C"/>
<stop offset="0.812" stop-color="#A56008"/>
<stop offset="1" stop-color="#FFB921"/>
</linearGradient>
<linearGradient id="paint4_linear_577_449" x1="4.73353" y1="6.86542" x2="18.1322" y2="15.7976" gradientUnits="userSpaceOnUse">
<stop offset="0.054" stop-color="#A56008"/>
<stop offset="0.218" stop-color="#FFD44F"/>
<stop offset="0.484" stop-color="#FEEFBF"/>
<stop offset="0.653" stop-color="#FFD34C"/>
<stop offset="0.812" stop-color="#A56008"/>
<stop offset="1" stop-color="#FFB921"/>
</linearGradient>
<linearGradient id="paint5_linear_577_449" x1="17.3164" y1="9.01899" x2="0.168807" y2="16.0105" gradientUnits="userSpaceOnUse">
<stop offset="0.054" stop-color="#A56008"/>
<stop offset="0.218" stop-color="#FFD44F"/>
<stop offset="0.484" stop-color="#FEEFBF"/>
<stop offset="0.653" stop-color="#FFD34C"/>
<stop offset="0.812" stop-color="#A56008"/>
<stop offset="1" stop-color="#FFB921"/>
</linearGradient>
<linearGradient id="paint6_linear_577_449" x1="23.3783" y1="9.71436" x2="5.78629" y2="12.1096" gradientUnits="userSpaceOnUse">
<stop offset="0.054" stop-color="#A56008"/>
<stop offset="0.218" stop-color="#FFD44F"/>
<stop offset="0.484" stop-color="#FEEFBF"/>
<stop offset="0.653" stop-color="#FFD34C"/>
<stop offset="0.812" stop-color="#A56008"/>
<stop offset="1" stop-color="#FFB921"/>
</linearGradient>
<linearGradient id="paint7_linear_577_449" x1="31.8692" y1="11.8483" x2="4.25118" y2="11.13" gradientUnits="userSpaceOnUse">
<stop offset="0.054" stop-color="#A56008"/>
<stop offset="0.218" stop-color="#FFD44F"/>
<stop offset="0.484" stop-color="#FEEFBF"/>
<stop offset="0.653" stop-color="#FFD34C"/>
<stop offset="0.812" stop-color="#A56008"/>
<stop offset="1" stop-color="#FFB921"/>
</linearGradient>
<linearGradient id="paint8_linear_577_449" x1="10.5851" y1="11.3858" x2="34.7322" y2="9.77641" gradientUnits="userSpaceOnUse">
<stop offset="0.054" stop-color="#A56008"/>
<stop offset="0.218" stop-color="#FFD44F"/>
<stop offset="0.484" stop-color="#FEEFBF"/>
<stop offset="0.653" stop-color="#FFD34C"/>
<stop offset="0.812" stop-color="#A56008"/>
<stop offset="1" stop-color="#FFB921"/>
</linearGradient>
</defs>
</svg>
