<svg width="27" height="25" viewBox="0 0 27 25" fill="none" xmlns="http://www.w3.org/2000/svg">
<path d="M6.07254 2.80874C6.70552 2.42579 7.36858 2.16738 8.0445 2.0246C8.50107 1.92813 8.95769 1.832 9.41433 1.73584C8.73822 1.87813 8.07534 2.137 7.44287 2.51976C3.68343 4.79374 2.46965 10.5435 4.67391 15.4098C6.50653 19.4559 10.1124 21.6284 13.453 20.9237C12.9959 21.0201 12.5393 21.1163 12.0828 21.2127C8.74201 21.9174 5.08937 19.7832 3.25668 15.7371C1.05242 10.8708 2.31315 5.08269 6.07254 2.80876L6.07254 2.80874Z" fill="url(#paint0_linear_284_794)"/>
<path d="M4.62655 15.4509C6.83007 20.3153 11.6646 22.4163 15.4245 20.1421C19.184 17.8684 20.445 12.0799 18.241 7.21548C16.0373 2.3492 11.2027 0.24807 7.4429 2.52238C3.68346 4.79636 2.42226 10.5844 4.62656 15.4509L4.62655 15.4509Z" fill="url(#paint1_linear_284_794)"/>
<path d="M7.44104 2.5193C7.80131 2.30128 8.17064 2.12461 8.54764 1.98565C8.20192 2.1192 7.86185 2.28395 7.53079 2.48423C3.77085 4.75838 2.51012 10.5462 4.71446 15.4128C6.70687 19.8115 10.8506 21.95 14.4053 20.6378C10.8308 22.0198 6.63427 19.8834 4.62471 15.4479C2.42041 10.5813 3.6816 4.79328 7.44104 2.5193Z" fill="url(#paint2_linear_284_794)" style="mix-blend-mode:screen"/>
<path d="M14.1263 19.8569C14.4221 19.7412 14.7138 19.5971 14.9926 19.4282C18.3979 17.3684 19.5152 12.0423 17.483 7.55585C15.6901 3.59742 11.9306 1.55398 8.73883 2.80193C8.44257 2.91777 8.15083 3.06193 7.8721 3.2309C4.46676 5.29057 3.34979 10.6174 5.38282 15.1046C7.17537 19.0621 10.934 21.105 14.1263 19.8569Z" fill="url(#paint3_linear_284_794)"/>
<g style="mix-blend-mode:multiply" opacity="0.5">
<path d="M11.9221 2.64615C14.1969 3.15887 16.2525 5.00482 17.4207 7.58408C19.4391 12.0402 18.334 17.3271 14.9572 19.3696C14.6826 19.536 14.3948 19.6785 14.1014 19.7931C13.1126 20.1798 12.0202 20.2558 10.9423 20.0128C8.66806 19.5002 6.6131 17.6548 5.44515 15.0764C3.42585 10.6196 4.53049 5.33197 7.90759 3.28941C8.18195 3.12311 8.47004 2.98054 8.76379 2.86567C9.75231 2.47918 10.8444 2.40325 11.9221 2.64615ZM11.9372 2.57941C10.8689 2.33865 9.77409 2.39717 8.73884 2.80195C8.4426 2.91779 8.15086 3.06195 7.87211 3.23091C4.46674 5.29058 3.34979 10.6175 5.38283 15.1046C6.59377 17.7781 8.70247 19.5781 10.9272 20.0796C11.9958 20.3204 13.0906 20.2619 14.1263 19.8569C14.4221 19.7413 14.7139 19.5971 14.9926 19.4282C18.3979 17.3685 19.5152 12.0423 17.483 7.55587C16.2716 4.88133 14.1624 3.08096 11.9371 2.57941L11.9372 2.57941Z" fill="url(#paint4_linear_284_794)"/>
</g>
<path d="M13.8948 11.1588C13.42 10.636 12.7995 10.449 12.1855 10.2639C11.4263 10.035 10.9054 9.84646 10.7492 9.37672C10.6585 9.10385 10.6817 8.84563 10.8179 8.61099C10.9875 8.31893 11.3871 8.02035 11.9516 8.13277C12.7914 8.29961 13.062 9.19027 13.09 9.29085L13.0864 9.27703L14.4612 8.69888C14.2639 7.89847 13.5531 6.44202 12.1048 6.09929C12.1044 6.09919 12.104 6.09913 12.1036 6.09904L12.0907 4.96185L11.2437 4.87171L11.2571 6.05317C10.5433 6.14385 9.89584 6.5665 9.47356 7.26625C8.96729 8.10534 8.87169 9.17397 9.2155 10.1768C9.74451 11.7197 10.9446 12.0351 11.8727 12.279C12.3179 12.396 12.7708 12.515 12.9784 12.7337C13.1407 12.9045 13.2113 13.1123 13.1953 13.3699C13.1733 13.7237 12.9896 14.0852 12.7253 14.2923C12.4214 14.5303 11.8353 14.686 11.2664 14.455C10.778 14.2568 10.4142 13.8158 10.1906 13.1433L8.61633 14.0359C9.04566 15.2865 9.78569 16.1289 10.7361 16.4767C10.9439 16.5527 11.1593 16.6011 11.3764 16.6247L11.3899 17.8213L12.2346 17.7121L12.222 16.5895C12.6705 16.503 13.0951 16.3105 13.445 16.021C14.1267 15.4572 14.5787 14.4922 14.6389 13.493C14.6932 12.5894 14.425 11.7425 13.8948 11.1588L13.8948 11.1588Z" fill="url(#paint5_linear_284_794)" style="mix-blend-mode:screen"/>
<path d="M14.1408 11.1315C13.666 10.6087 13.0455 10.4217 12.4315 10.2366C11.6723 10.0077 11.1514 9.81916 10.9952 9.34943C10.9045 9.07655 10.9277 8.81834 11.0639 8.58368C11.2335 8.29161 11.6331 7.99305 12.1976 8.10547C13.0374 8.27231 13.3079 9.16297 13.3359 9.26354L13.3324 9.24973L14.7072 8.67156C14.5099 7.87115 13.7991 6.41471 12.3508 6.07197C12.3504 6.07187 12.35 6.07181 12.3496 6.07172L12.3367 4.93451L11.4897 4.84439L11.503 6.02585C10.7893 6.11653 10.1418 6.5392 9.71953 7.23893C9.21326 8.07802 9.11766 9.14664 9.46147 10.1495C9.99048 11.6924 11.1906 12.0078 12.1186 12.2517C12.5639 12.3687 13.0167 12.4877 13.2244 12.7063C13.3866 12.8771 13.4573 13.0849 13.4413 13.3425C13.4193 13.6963 13.2356 14.0579 12.9713 14.2649C12.6674 14.503 12.0812 14.6586 11.5124 14.4277C11.0239 14.2294 10.6602 13.7885 10.4365 13.116L8.86228 14.0085C9.29161 15.2592 10.0316 16.1016 10.982 16.4494C11.1898 16.5254 11.4052 16.5737 11.6223 16.5974L11.6358 17.7939L12.4806 17.6847L12.4679 16.5621C12.9164 16.4756 13.341 16.2831 13.691 15.9936C14.3726 15.4299 14.8247 14.4648 14.8848 13.4657C14.9392 12.562 14.671 11.7152 14.1408 11.1315Z" fill="url(#paint6_linear_284_794)"/>
<path d="M14.1408 11.1315C13.666 10.6087 13.0455 10.4217 12.4315 10.2366C11.6723 10.0077 11.1514 9.81916 10.9952 9.34943C10.9045 9.07655 10.9277 8.81834 11.0639 8.58368C11.2335 8.29161 11.6331 7.99305 12.1976 8.10547C13.0374 8.27231 13.3079 9.16297 13.3359 9.26354L13.3324 9.24973L14.7072 8.67156C14.5099 7.87115 13.7991 6.41471 12.3508 6.07197C12.3504 6.07187 12.35 6.07181 12.3496 6.07172L12.3367 4.93451L11.4897 4.84439L11.503 6.02585C10.7893 6.11653 10.1418 6.5392 9.71953 7.23893C9.21326 8.07802 9.11766 9.14664 9.46147 10.1495C9.99048 11.6924 11.1906 12.0078 12.1186 12.2517C12.5639 12.3687 13.0167 12.4877 13.2244 12.7063C13.3866 12.8771 13.4573 13.0849 13.4413 13.3425C13.4193 13.6963 13.2356 14.0579 12.9713 14.2649C12.6674 14.503 12.0812 14.6586 11.5124 14.4277C11.0239 14.2294 10.6602 13.7885 10.4365 13.116L8.86228 14.0085C9.29161 15.2592 10.0316 16.1016 10.982 16.4494C11.1898 16.5254 11.4052 16.5737 11.6223 16.5974L11.6358 17.7939L12.4806 17.6847L12.4679 16.5621C12.9164 16.4756 13.341 16.2831 13.691 15.9936C14.3726 15.4299 14.8247 14.4648 14.8848 13.4657C14.9392 12.562 14.671 11.7152 14.1408 11.1315Z" fill="url(#paint7_linear_284_794)" style="mix-blend-mode:darken"/>
<path opacity="0.4" d="M12.1729 6.07489C12.1733 6.07499 12.1737 6.07505 12.1741 6.07514C13.6224 6.41789 14.3332 7.87435 14.5305 8.67473L13.31 9.188C13.3227 9.22475 13.3307 9.25192 13.3344 9.26507L13.3308 9.25123L14.7057 8.67309C14.5083 7.87268 13.7976 6.41624 12.3493 6.07348C12.3488 6.07338 12.3484 6.07334 12.348 6.07324L12.3352 4.93604L11.4881 4.84591L11.4884 4.86621L12.16 4.93769L12.1729 6.07489ZM11.5108 14.4292C11.0224 14.2309 10.6586 13.79 10.435 13.1175L10.2886 13.2005C10.5141 13.827 10.8674 14.2408 11.3357 14.4309C11.5678 14.5251 11.8024 14.5542 12.0199 14.5404C11.854 14.5325 11.6817 14.4986 11.5108 14.4293L11.5108 14.4292ZM14.8833 13.4672C14.9377 12.5635 14.6695 11.7167 14.1392 11.133C13.6644 10.6102 13.0439 10.4232 12.43 10.2381C11.6708 10.0092 11.1498 9.82067 10.9936 9.35094C10.9029 9.07806 10.9262 8.81985 11.0624 8.58519C11.1958 8.35539 11.4722 8.12247 11.8587 8.08799C11.3801 8.05632 11.04 8.32369 10.8873 8.58684C10.7511 8.82149 10.7278 9.07969 10.8185 9.35257C10.9747 9.8223 11.4956 10.0109 12.2548 10.2397C12.8688 10.4249 13.4893 10.6119 13.9641 11.1346C14.4944 11.7183 14.7626 12.5652 14.7082 13.4688C14.648 14.468 14.196 15.433 13.5143 15.9968C13.1644 16.2863 12.7398 16.4788 12.2913 16.5653L12.3039 17.6879L11.6341 17.7745L11.6343 17.7955L12.4791 17.6862L12.4664 16.5636C12.9149 16.4771 13.3395 16.2846 13.6894 15.9951C14.3711 15.4314 14.8231 14.4664 14.8833 13.4672Z" fill="url(#paint8_linear_284_794)" style="mix-blend-mode:multiply"/>
<path d="M14.1151 8.19445C14.6283 7.88401 15.1658 7.67453 15.7137 7.55878C16.0838 7.48058 16.454 7.40265 16.8242 7.32469C16.2761 7.44005 15.7387 7.6499 15.226 7.96019C12.1784 9.8036 11.1944 14.4647 12.9813 18.4096C14.4669 21.6896 17.39 23.4507 20.0982 22.8795C19.7276 22.9576 19.3575 23.0356 18.9874 23.1137C16.2792 23.685 13.3181 21.9549 11.8324 18.6749C10.0455 14.73 11.0676 10.0378 14.1151 8.19446L14.1151 8.19445Z" fill="url(#paint9_linear_284_794)"/>
<path d="M12.9423 18.4419C14.7286 22.3853 18.6477 24.0884 21.6957 22.2449C24.7434 20.4017 25.7656 15.7092 23.9789 11.7658C22.1925 7.82093 18.2733 6.11763 15.2254 7.96132C12.1778 9.80473 11.1554 14.4968 12.9423 18.4419L12.9423 18.4419Z" fill="url(#paint10_linear_284_794)"/>
<path d="M15.2247 7.96014C15.5167 7.78339 15.8161 7.64017 16.1217 7.52753C15.8415 7.63579 15.5658 7.76934 15.2974 7.9317C12.2494 9.77526 11.2274 14.4672 13.0143 18.4123C14.6295 21.9782 17.9886 23.7117 20.8703 22.648C17.9726 23.7683 14.5707 22.0365 12.9416 18.4408C11.1547 14.4957 12.1771 9.80355 15.2247 7.96014Z" fill="url(#paint11_linear_284_794)" style="mix-blend-mode:screen"/>
<path d="M20.6453 22.0186C20.8851 21.9249 21.1216 21.808 21.3476 21.6711C24.1081 20.0014 25.0138 15.6837 23.3664 12.0467C21.913 8.83782 18.8654 7.18129 16.2779 8.19295C16.0378 8.28685 15.8013 8.40372 15.5753 8.54069C12.8147 10.2104 11.9093 14.5286 13.5573 18.1662C15.0105 21.3744 18.0575 23.0305 20.6453 22.0186Z" fill="url(#paint12_linear_284_794)"/>
<g style="mix-blend-mode:multiply" opacity="0.5">
<path d="M18.8585 8.06667C20.7026 8.4823 22.3689 9.97873 23.3159 12.0696C24.9522 15.682 24.0563 19.9679 21.3188 21.6237C21.0963 21.7585 20.863 21.874 20.6251 21.967C19.8235 22.2804 18.938 22.342 18.0642 22.145C16.2205 21.7295 14.5547 20.2335 13.6079 18.1433C11.9709 14.5304 12.8664 10.2439 15.6041 8.58812C15.8265 8.45331 16.06 8.33774 16.2981 8.24462C17.0995 7.9313 17.9848 7.86975 18.8585 8.06667ZM18.8707 8.01256C18.0047 7.81738 17.1172 7.86483 16.2779 8.19296C16.0378 8.28687 15.8013 8.40373 15.5753 8.5407C12.8147 10.2104 11.9093 14.5287 13.5574 18.1662C14.539 20.3335 16.2484 21.7927 18.052 22.1992C18.9182 22.3944 19.8057 22.347 20.6453 22.0187C20.8851 21.9249 21.1216 21.808 21.3476 21.6711C24.1081 20.0014 25.0138 15.6837 23.3664 12.0468C22.3844 9.87862 20.6746 8.41915 18.8706 8.01256L18.8707 8.01256Z" fill="url(#paint13_linear_284_794)"/>
</g>
<path d="M20.4559 14.9638C20.071 14.5401 19.568 14.3885 19.0703 14.2384C18.4549 14.0529 18.0325 13.9 17.9059 13.5192C17.8324 13.298 17.8513 13.0887 17.9617 12.8985C18.0991 12.6617 18.4231 12.4197 18.8807 12.5108C19.5615 12.6461 19.7808 13.3681 19.8035 13.4496L19.8006 13.4384L20.9151 12.9697C20.7552 12.3209 20.179 11.1402 19.0049 10.8623C19.0046 10.8623 19.0042 10.8622 19.0039 10.8621L18.9935 9.94028L18.3068 9.8672L18.3177 10.825C17.739 10.8985 17.2142 11.2411 16.8719 11.8084C16.4614 12.4886 16.3839 13.3549 16.6627 14.1678C17.0915 15.4186 18.0644 15.6743 18.8167 15.872C19.1777 15.9668 19.5448 16.0633 19.7131 16.2406C19.8446 16.379 19.9019 16.5475 19.8889 16.7563C19.8711 17.0431 19.7222 17.3362 19.5079 17.504C19.2616 17.697 18.7864 17.8232 18.3252 17.636C17.9293 17.4753 17.6344 17.1178 17.4531 16.5726L16.1769 17.2962C16.525 18.31 17.1249 18.993 17.8953 19.2749C18.0638 19.3365 18.2384 19.3757 18.4144 19.3949L18.4253 20.3648L19.1101 20.2763L19.0999 19.3663C19.4634 19.2962 19.8077 19.1401 20.0913 18.9054C20.6439 18.4484 21.0104 17.6661 21.0591 16.8561C21.1032 16.1236 20.8858 15.4371 20.4559 14.9639L20.4559 14.9638Z" fill="url(#paint14_linear_284_794)" style="mix-blend-mode:screen"/>
<path d="M20.6552 14.9444C20.2703 14.5206 19.7673 14.369 19.2696 14.2189C18.6541 14.0334 18.2318 13.8805 18.1052 13.4997C18.0316 13.2785 18.0505 13.0692 18.1609 12.879C18.2984 12.6422 18.6223 12.4002 19.0799 12.4913C19.7607 12.6266 19.98 13.3486 20.0027 13.4301L19.9999 13.4189L21.1144 12.9502C20.9544 12.3014 20.3782 11.1207 19.2042 10.8428C19.2038 10.8428 19.2035 10.8427 19.2031 10.8426L19.1927 9.92075L18.5061 9.84769L18.5169 10.8055C17.9383 10.879 17.4134 11.2216 17.0711 11.7888C16.6607 12.4691 16.5832 13.3353 16.8619 14.1483C17.2907 15.3991 18.2636 15.6547 19.0159 15.8525C19.3769 15.9473 19.744 16.0438 19.9123 16.221C20.0438 16.3595 20.1011 16.5279 20.0882 16.7368C20.0703 17.0236 19.9214 17.3167 19.7071 17.4845C19.4608 17.6775 18.9856 17.8037 18.5244 17.6165C18.1285 17.4557 17.8336 17.0983 17.6523 16.5531L16.3761 17.2766C16.7242 18.2905 17.3241 18.9734 18.0945 19.2553C18.263 19.317 18.4376 19.3562 18.6136 19.3753L18.6245 20.3453L19.3094 20.2568L19.2991 19.3467C19.6626 19.2766 20.0069 19.1206 20.2905 18.8859C20.8431 18.4289 21.2096 17.6466 21.2584 16.8366C21.3024 16.104 21.085 15.4175 20.6552 14.9444Z" fill="url(#paint15_linear_284_794)"/>
<path d="M20.6552 14.9444C20.2703 14.5206 19.7673 14.369 19.2696 14.2189C18.6541 14.0334 18.2318 13.8805 18.1052 13.4997C18.0316 13.2785 18.0505 13.0692 18.1609 12.879C18.2984 12.6422 18.6223 12.4002 19.0799 12.4913C19.7607 12.6266 19.98 13.3486 20.0027 13.4301L19.9999 13.4189L21.1144 12.9502C20.9544 12.3014 20.3782 11.1207 19.2042 10.8428C19.2038 10.8428 19.2035 10.8427 19.2031 10.8426L19.1927 9.92075L18.5061 9.84769L18.5169 10.8055C17.9383 10.879 17.4134 11.2216 17.0711 11.7888C16.6607 12.4691 16.5832 13.3353 16.8619 14.1483C17.2907 15.3991 18.2636 15.6547 19.0159 15.8525C19.3769 15.9473 19.744 16.0438 19.9123 16.221C20.0438 16.3595 20.1011 16.5279 20.0882 16.7368C20.0703 17.0236 19.9214 17.3167 19.7071 17.4845C19.4608 17.6775 18.9856 17.8037 18.5244 17.6165C18.1285 17.4557 17.8336 17.0983 17.6523 16.5531L16.3761 17.2766C16.7242 18.2905 17.3241 18.9734 18.0945 19.2553C18.263 19.317 18.4376 19.3562 18.6136 19.3753L18.6245 20.3453L19.3094 20.2568L19.2991 19.3467C19.6626 19.2766 20.0069 19.1206 20.2905 18.8859C20.8431 18.4289 21.2096 17.6466 21.2584 16.8366C21.3024 16.104 21.085 15.4175 20.6552 14.9444Z" fill="url(#paint16_linear_284_794)" style="mix-blend-mode:darken"/>
<path opacity="0.4" d="M19.061 10.8436C19.0613 10.8436 19.0617 10.8437 19.062 10.8438C20.2361 11.1216 20.8123 12.3023 20.9722 12.9511L19.9828 13.3672C19.9931 13.397 19.9996 13.419 20.0026 13.4297L19.9997 13.4185L21.1142 12.9498C20.9542 12.3009 20.378 11.1203 19.204 10.8424C19.2036 10.8423 19.2033 10.8423 19.203 10.8422L19.1926 9.92034L18.5059 9.84729L18.5061 9.86374L19.0506 9.92168L19.061 10.8436ZM18.5243 17.6161C18.1283 17.4553 17.8335 17.0979 17.6522 16.5527L17.5335 16.62C17.7163 17.1279 18.0027 17.4633 18.3823 17.6174C18.5705 17.6938 18.7606 17.7174 18.9369 17.7062C18.8025 17.6998 18.6628 17.6723 18.5243 17.6161L18.5243 17.6161ZM21.2582 16.8362C21.3023 16.1036 21.0849 15.4171 20.655 14.9439C20.2701 14.5202 19.7671 14.3686 19.2694 14.2185C18.654 14.0329 18.2317 13.8801 18.105 13.4993C18.0315 13.2781 18.0504 13.0688 18.1608 12.8786C18.2689 12.6923 18.493 12.5034 18.8063 12.4755C18.4183 12.4498 18.1426 12.6666 18.0188 12.8799C17.9084 13.0701 17.8895 13.2794 17.9631 13.5006C18.0897 13.8814 18.512 14.0343 19.1274 14.2198C19.6252 14.3699 20.1281 14.5215 20.5131 14.9453C20.9429 15.4184 21.1603 16.1049 21.1162 16.8375C21.0675 17.6475 20.701 18.4298 20.1484 18.8868C19.8648 19.1215 19.5205 19.2776 19.157 19.3477L19.1672 20.2577L18.6242 20.3279L18.6244 20.3449L19.3092 20.2564L19.2989 19.3463C19.6625 19.2762 20.0067 19.1201 20.2904 18.8855C20.843 18.4285 21.2095 17.6462 21.2582 16.8362Z" fill="url(#paint17_linear_284_794)" style="mix-blend-mode:multiply"/>
<defs>
<linearGradient id="paint0_linear_284_794" x1="4.78082" y1="2.72191" x2="9.77311" y2="23.5497" gradientUnits="userSpaceOnUse">
<stop offset="0.054" stop-color="#A56008"/>
<stop offset="0.218" stop-color="#FFD44F"/>
<stop offset="0.484" stop-color="#FEEFBF"/>
<stop offset="0.653" stop-color="#FFD34C"/>
<stop offset="0.812" stop-color="#A56008"/>
<stop offset="1" stop-color="#FFB921"/>
</linearGradient>
<linearGradient id="paint1_linear_284_794" x1="18.6023" y1="1.35709" x2="3.78106" y2="21.9768" gradientUnits="userSpaceOnUse">
<stop offset="0.054" stop-color="#A56008"/>
<stop offset="0.218" stop-color="#FFD44F"/>
<stop offset="0.484" stop-color="#FEEFBF"/>
<stop offset="0.653" stop-color="#FFD34C"/>
<stop offset="0.812" stop-color="#A56008"/>
<stop offset="1" stop-color="#FFB921"/>
</linearGradient>
<linearGradient id="paint2_linear_284_794" x1="16.1482" y1="3.82268" x2="3.74664" y2="21.0761" gradientUnits="userSpaceOnUse">
<stop offset="0.054" stop-color="#A56008"/>
<stop offset="0.218" stop-color="#FFD44F"/>
<stop offset="0.484" stop-color="#FEEFBF"/>
<stop offset="0.653" stop-color="#FFD34C"/>
<stop offset="0.812" stop-color="#A56008"/>
<stop offset="1" stop-color="#FFB921"/>
</linearGradient>
<linearGradient id="paint3_linear_284_794" x1="0.827052" y1="4.25883" x2="31.9859" y2="25.0311" gradientUnits="userSpaceOnUse">
<stop offset="0.054" stop-color="#A56008"/>
<stop offset="0.218" stop-color="#FFD44F"/>
<stop offset="0.484" stop-color="#FEEFBF"/>
<stop offset="0.653" stop-color="#FFD34C"/>
<stop offset="0.812" stop-color="#A56008"/>
<stop offset="1" stop-color="#FFB921"/>
</linearGradient>
<linearGradient id="paint4_linear_284_794" x1="4.7331" y1="6.86347" x2="18.1317" y2="15.7956" gradientUnits="userSpaceOnUse">
<stop offset="0.054" stop-color="#A56008"/>
<stop offset="0.218" stop-color="#FFD44F"/>
<stop offset="0.484" stop-color="#FEEFBF"/>
<stop offset="0.653" stop-color="#FFD34C"/>
<stop offset="0.812" stop-color="#A56008"/>
<stop offset="1" stop-color="#FFB921"/>
</linearGradient>
<linearGradient id="paint5_linear_284_794" x1="17.3161" y1="9.01801" x2="0.168497" y2="16.0095" gradientUnits="userSpaceOnUse">
<stop offset="0.054" stop-color="#A56008"/>
<stop offset="0.218" stop-color="#FFD44F"/>
<stop offset="0.484" stop-color="#FEEFBF"/>
<stop offset="0.653" stop-color="#FFD34C"/>
<stop offset="0.812" stop-color="#A56008"/>
<stop offset="1" stop-color="#FFB921"/>
</linearGradient>
<linearGradient id="paint6_linear_284_794" x1="23.3779" y1="9.71338" x2="5.78586" y2="12.1086" gradientUnits="userSpaceOnUse">
<stop offset="0.054" stop-color="#A56008"/>
<stop offset="0.218" stop-color="#FFD44F"/>
<stop offset="0.484" stop-color="#FEEFBF"/>
<stop offset="0.653" stop-color="#FFD34C"/>
<stop offset="0.812" stop-color="#A56008"/>
<stop offset="1" stop-color="#FFB921"/>
</linearGradient>
<linearGradient id="paint7_linear_284_794" x1="31.8687" y1="11.8473" x2="4.25075" y2="11.129" gradientUnits="userSpaceOnUse">
<stop offset="0.054" stop-color="#A56008"/>
<stop offset="0.218" stop-color="#FFD44F"/>
<stop offset="0.484" stop-color="#FEEFBF"/>
<stop offset="0.653" stop-color="#FFD34C"/>
<stop offset="0.812" stop-color="#A56008"/>
<stop offset="1" stop-color="#FFB921"/>
</linearGradient>
<linearGradient id="paint8_linear_284_794" x1="10.5846" y1="11.3858" x2="34.7318" y2="9.77641" gradientUnits="userSpaceOnUse">
<stop offset="0.054" stop-color="#A56008"/>
<stop offset="0.218" stop-color="#FFD44F"/>
<stop offset="0.484" stop-color="#FEEFBF"/>
<stop offset="0.653" stop-color="#FFD34C"/>
<stop offset="0.812" stop-color="#A56008"/>
<stop offset="1" stop-color="#FFB921"/>
</linearGradient>
<linearGradient id="paint9_linear_284_794" x1="13.068" y1="8.12406" x2="17.115" y2="25.0082" gradientUnits="userSpaceOnUse">
<stop offset="0.054" stop-color="#A56008"/>
<stop offset="0.218" stop-color="#FFD44F"/>
<stop offset="0.484" stop-color="#FEEFBF"/>
<stop offset="0.653" stop-color="#FFD34C"/>
<stop offset="0.812" stop-color="#A56008"/>
<stop offset="1" stop-color="#FFB921"/>
</linearGradient>
<linearGradient id="paint10_linear_284_794" x1="24.2718" y1="7.01667" x2="12.2569" y2="23.7322" gradientUnits="userSpaceOnUse">
<stop offset="0.054" stop-color="#A56008"/>
<stop offset="0.218" stop-color="#FFD44F"/>
<stop offset="0.484" stop-color="#FEEFBF"/>
<stop offset="0.653" stop-color="#FFD34C"/>
<stop offset="0.812" stop-color="#A56008"/>
<stop offset="1" stop-color="#FFB921"/>
</linearGradient>
<linearGradient id="paint11_linear_284_794" x1="22.2832" y1="9.01672" x2="12.2298" y2="23.0033" gradientUnits="userSpaceOnUse">
<stop offset="0.054" stop-color="#A56008"/>
<stop offset="0.218" stop-color="#FFD44F"/>
<stop offset="0.484" stop-color="#FEEFBF"/>
<stop offset="0.653" stop-color="#FFD34C"/>
<stop offset="0.812" stop-color="#A56008"/>
<stop offset="1" stop-color="#FFB921"/>
</linearGradient>
<linearGradient id="paint12_linear_284_794" x1="9.86419" y1="9.37399" x2="35.1233" y2="26.2132" gradientUnits="userSpaceOnUse">
<stop offset="0.054" stop-color="#A56008"/>
<stop offset="0.218" stop-color="#FFD44F"/>
<stop offset="0.484" stop-color="#FEEFBF"/>
<stop offset="0.653" stop-color="#FFD34C"/>
<stop offset="0.812" stop-color="#A56008"/>
<stop offset="1" stop-color="#FFB921"/>
</linearGradient>
<linearGradient id="paint13_linear_284_794" x1="13.0306" y1="11.4855" x2="23.8923" y2="18.7263" gradientUnits="userSpaceOnUse">
<stop offset="0.054" stop-color="#A56008"/>
<stop offset="0.218" stop-color="#FFD44F"/>
<stop offset="0.484" stop-color="#FEEFBF"/>
<stop offset="0.653" stop-color="#FFD34C"/>
<stop offset="0.812" stop-color="#A56008"/>
<stop offset="1" stop-color="#FFB921"/>
</linearGradient>
<linearGradient id="paint14_linear_284_794" x1="23.2294" y1="13.2284" x2="9.32864" y2="18.8962" gradientUnits="userSpaceOnUse">
<stop offset="0.054" stop-color="#A56008"/>
<stop offset="0.218" stop-color="#FFD44F"/>
<stop offset="0.484" stop-color="#FEEFBF"/>
<stop offset="0.653" stop-color="#FFD34C"/>
<stop offset="0.812" stop-color="#A56008"/>
<stop offset="1" stop-color="#FFB921"/>
</linearGradient>
<linearGradient id="paint15_linear_284_794" x1="28.1433" y1="13.7948" x2="13.8822" y2="15.7365" gradientUnits="userSpaceOnUse">
<stop offset="0.054" stop-color="#A56008"/>
<stop offset="0.218" stop-color="#FFD44F"/>
<stop offset="0.484" stop-color="#FEEFBF"/>
<stop offset="0.653" stop-color="#FFD34C"/>
<stop offset="0.812" stop-color="#A56008"/>
<stop offset="1" stop-color="#FFB921"/>
</linearGradient>
<linearGradient id="paint16_linear_284_794" x1="35.0265" y1="15.5246" x2="12.6378" y2="14.9423" gradientUnits="userSpaceOnUse">
<stop offset="0.054" stop-color="#A56008"/>
<stop offset="0.218" stop-color="#FFD44F"/>
<stop offset="0.484" stop-color="#FEEFBF"/>
<stop offset="0.653" stop-color="#FFD34C"/>
<stop offset="0.812" stop-color="#A56008"/>
<stop offset="1" stop-color="#FFB921"/>
</linearGradient>
<linearGradient id="paint17_linear_284_794" x1="17.7735" y1="15.1489" x2="37.3485" y2="13.8442" gradientUnits="userSpaceOnUse">
<stop offset="0.054" stop-color="#A56008"/>
<stop offset="0.218" stop-color="#FFD44F"/>
<stop offset="0.484" stop-color="#FEEFBF"/>
<stop offset="0.653" stop-color="#FFD34C"/>
<stop offset="0.812" stop-color="#A56008"/>
<stop offset="1" stop-color="#FFB921"/>
</linearGradient>
</defs>
</svg>
