<svg width="32" height="30" viewBox="0 0 32 30" fill="none" xmlns="http://www.w3.org/2000/svg">
<path d="M16.1785 2.44874C16.7301 2.11501 17.308 1.88981 17.897 1.76538C18.2949 1.68131 18.6929 1.59753 19.0908 1.51372C18.5016 1.63773 17.9239 1.86334 17.3727 2.1969C14.0964 4.17863 13.0386 9.18945 14.9596 13.4303C16.5567 16.9565 19.6991 18.8497 22.6105 18.2356C22.2121 18.3196 21.8142 18.4034 21.4163 18.4874C18.5049 19.1016 15.3217 17.2416 13.7245 13.7155C11.8036 9.47465 12.9023 4.43044 16.1785 2.44876L16.1785 2.44874Z" fill="url(#paint0_linear_284_795)"/>
<path d="M14.9163 13.4662C16.8366 17.7054 21.0498 19.5364 24.3265 17.5545C27.6029 15.573 28.7018 10.5284 26.7811 6.28915C24.8606 2.04827 20.6473 0.217178 17.3707 2.1992C14.0944 4.18093 12.9953 9.2251 14.9163 13.4662L14.9163 13.4662Z" fill="url(#paint1_linear_284_795)"/>
<path d="M17.3698 2.19702C17.6837 2.00702 18.0056 1.85305 18.3342 1.73196C18.0329 1.84834 17.7365 1.99191 17.448 2.16646C14.1713 4.14834 13.0726 9.19236 14.9936 13.4335C16.73 17.2669 20.3411 19.1305 23.439 17.987C20.3239 19.1913 16.6667 17.3296 14.9154 13.464C12.9944 9.22292 14.0935 4.17875 17.3698 2.19702Z" fill="url(#paint2_linear_284_795)" style="mix-blend-mode:screen"/>
<path d="M23.1966 17.3089C23.4544 17.2081 23.7087 17.0825 23.9516 16.9353C26.9193 15.1403 27.8929 10.4986 26.1219 6.5888C24.5594 3.1391 21.2831 1.35827 18.5015 2.44584C18.2434 2.54679 17.9891 2.67242 17.7462 2.81967C14.7785 4.61464 13.8051 9.25692 15.5768 13.1674C17.139 16.6163 20.4146 18.3967 23.1966 17.3089Z" fill="url(#paint3_linear_284_795)"/>
<g style="mix-blend-mode:multiply" opacity="0.5">
<path d="M21.2757 2.31008C23.2582 2.75691 25.0495 4.36561 26.0676 6.6134C27.8267 10.4968 26.8636 15.1043 23.9207 16.8843C23.6815 17.0293 23.4306 17.1534 23.1749 17.2534C22.3132 17.5903 21.3612 17.6565 20.4218 17.4448C18.4399 16.9981 16.649 15.3899 15.6312 13.1428C13.8714 9.25877 14.834 4.65072 17.7771 2.87067C18.0162 2.72574 18.2673 2.60149 18.5233 2.50138C19.3848 2.16456 20.3365 2.09839 21.2757 2.31008ZM21.2888 2.25192C20.3579 2.04209 19.4037 2.0931 18.5016 2.44585C18.2434 2.54681 17.9891 2.67244 17.7462 2.81969C14.7785 4.61465 13.8051 9.25695 15.5768 13.1674C16.6322 15.4973 18.4699 17.066 20.4087 17.503C21.3399 17.7129 22.294 17.6619 23.1967 17.3089C23.4544 17.2082 23.7087 17.0825 23.9516 16.9353C26.9193 15.1403 27.8929 10.4986 26.1219 6.58881C25.0662 4.258 23.2281 2.68901 21.2888 2.25191L21.2888 2.25192Z" fill="url(#paint4_linear_284_795)"/>
</g>
<path d="M22.9939 9.72186C22.5801 9.26631 22.0394 9.10333 21.5043 8.94197C20.8426 8.74252 20.3887 8.5782 20.2525 8.16884C20.1735 7.93104 20.1938 7.706 20.3125 7.50152C20.4602 7.24699 20.8085 6.98678 21.3004 7.08476C22.0323 7.23016 22.2681 8.00635 22.2925 8.094L22.2894 8.08196L23.4875 7.57811C23.3156 6.88057 22.6961 5.6113 21.434 5.31261C21.4336 5.31253 21.4333 5.31248 21.4329 5.31239L21.4217 4.32136L20.6835 4.2428L20.6951 5.27243C20.0731 5.35145 19.5089 5.71978 19.1409 6.3296C18.6997 7.06085 18.6163 7.99214 18.916 8.86609C19.377 10.2107 20.4229 10.4856 21.2317 10.6981C21.6197 10.8001 22.0143 10.9038 22.1953 11.0944C22.3367 11.2432 22.3983 11.4243 22.3843 11.6488C22.3651 11.9571 22.2051 12.2722 21.9747 12.4526C21.7099 12.6601 21.1991 12.7958 20.7033 12.5945C20.2776 12.4217 19.9606 12.0375 19.7657 11.4514L18.3938 12.2292C18.768 13.3191 19.4129 14.0533 20.2411 14.3564C20.4222 14.4226 20.6099 14.4647 20.7991 14.4853L20.8109 15.5281L21.5471 15.4329L21.5361 14.4546C21.9269 14.3792 22.297 14.2115 22.6019 13.9592C23.196 13.4679 23.5899 12.6269 23.6423 11.7561C23.6897 10.9686 23.456 10.2306 22.9939 9.7219L22.9939 9.72186Z" fill="url(#paint5_linear_284_795)" style="mix-blend-mode:screen"/>
<path d="M23.2087 9.70237C22.795 9.24682 22.2542 9.08383 21.7192 8.92248C21.0575 8.72302 20.6035 8.55871 20.4674 8.14935C20.3884 7.91154 20.4086 7.68651 20.5273 7.48201C20.6751 7.22748 21.0234 6.96729 21.5153 7.06527C22.2472 7.21066 22.4829 7.98686 22.5074 8.0745L22.5042 8.06246L23.7024 7.5586C23.5304 6.86106 22.911 5.5918 21.6488 5.2931C21.6485 5.29302 21.6481 5.29297 21.6477 5.29288L21.6365 4.30183L20.8984 4.22329L20.91 5.25292C20.288 5.33194 19.7237 5.70028 19.3557 6.31009C18.9145 7.04134 18.8312 7.97263 19.1308 8.84657C19.5918 10.1912 20.6377 10.4661 21.4465 10.6786C21.8345 10.7806 22.2292 10.8843 22.4101 11.0748C22.5515 11.2237 22.6131 11.4048 22.5992 11.6293C22.58 11.9376 22.4199 12.2527 22.1896 12.4331C21.9247 12.6406 21.4139 12.7762 20.9181 12.575C20.4925 12.4022 20.1755 12.0179 19.9806 11.4318L18.6086 12.2097C18.9828 13.2996 19.6277 14.0338 20.4559 14.3368C20.637 14.4031 20.8248 14.4452 21.014 14.4658L21.0257 15.5086L21.7619 15.4134L21.7509 14.4351C22.1417 14.3597 22.5118 14.1919 22.8167 13.9397C23.4108 13.4484 23.8048 12.6073 23.8572 11.7366C23.9046 10.9491 23.6708 10.2111 23.2087 9.70237Z" fill="url(#paint6_linear_284_795)"/>
<path d="M23.2087 9.70237C22.795 9.24682 22.2542 9.08383 21.7192 8.92248C21.0575 8.72302 20.6035 8.55871 20.4674 8.14935C20.3884 7.91154 20.4086 7.68651 20.5273 7.48201C20.6751 7.22748 21.0234 6.96729 21.5153 7.06527C22.2472 7.21066 22.4829 7.98686 22.5074 8.0745L22.5042 8.06246L23.7024 7.5586C23.5304 6.86106 22.911 5.5918 21.6488 5.2931C21.6485 5.29302 21.6481 5.29297 21.6477 5.29288L21.6365 4.30183L20.8984 4.22329L20.91 5.25292C20.288 5.33194 19.7237 5.70028 19.3557 6.31009C18.9145 7.04134 18.8312 7.97263 19.1308 8.84657C19.5918 10.1912 20.6377 10.4661 21.4465 10.6786C21.8345 10.7806 22.2292 10.8843 22.4101 11.0748C22.5515 11.2237 22.6131 11.4048 22.5992 11.6293C22.58 11.9376 22.4199 12.2527 22.1896 12.4331C21.9247 12.6406 21.4139 12.7762 20.9181 12.575C20.4925 12.4022 20.1755 12.0179 19.9806 11.4318L18.6086 12.2097C18.9828 13.2996 19.6277 14.0338 20.4559 14.3368C20.637 14.4031 20.8248 14.4452 21.014 14.4658L21.0257 15.5086L21.7619 15.4134L21.7509 14.4351C22.1417 14.3597 22.5118 14.1919 22.8167 13.9397C23.4108 13.4484 23.8048 12.6073 23.8572 11.7366C23.9046 10.9491 23.6708 10.2111 23.2087 9.70237Z" fill="url(#paint7_linear_284_795)" style="mix-blend-mode:darken"/>
<path opacity="0.4" d="M21.4943 5.29134C21.4946 5.29142 21.495 5.29147 21.4954 5.29156C22.7575 5.59026 23.3769 6.85953 23.5489 7.55705L22.4852 8.00436C22.4963 8.03638 22.5033 8.06006 22.5065 8.07152L22.5034 8.05946L23.7015 7.55562C23.5296 6.85808 22.9101 5.58882 21.648 5.2901C21.6476 5.29002 21.6473 5.28999 21.6469 5.2899L21.6357 4.29885L20.8975 4.22031L20.8977 4.23799L21.4831 4.30028L21.4943 5.29134ZM20.9173 12.572C20.4916 12.3992 20.1746 12.0149 19.9797 11.4288L19.8522 11.5012C20.0486 12.0472 20.3566 12.4078 20.7647 12.5734C20.9669 12.6555 21.1714 12.6809 21.3609 12.6689C21.2164 12.662 21.0662 12.6325 20.9173 12.572L20.9173 12.572ZM23.8564 11.7336C23.9037 10.9461 23.67 10.2081 23.2079 9.69938C22.7941 9.24382 22.2534 9.08084 21.7183 8.91948C21.0567 8.72003 20.6027 8.55572 20.4666 8.14635C20.3875 7.90855 20.4078 7.68352 20.5265 7.47902C20.6428 7.27876 20.8836 7.07576 21.2204 7.04572C20.8034 7.01812 20.507 7.25112 20.3739 7.48046C20.2552 7.68495 20.2349 7.90996 20.314 8.14778C20.4501 8.55714 20.9041 8.72147 21.5657 8.9209C22.1008 9.08227 22.6415 9.24525 23.0553 9.7008C23.5174 10.2095 23.7511 10.9475 23.7037 11.735C23.6513 12.6058 23.2574 13.4468 22.6633 13.9381C22.3583 14.1904 21.9883 14.3582 21.5974 14.4335L21.6085 15.4119L21.0247 15.4873L21.0249 15.5056L21.7611 15.4104L21.7501 14.4321C22.1409 14.3567 22.511 14.1889 22.8159 13.9367C23.41 13.4454 23.8039 12.6044 23.8564 11.7336Z" fill="url(#paint8_linear_284_795)" style="mix-blend-mode:multiply"/>
<path d="M5.78039 10.3136C6.38291 9.94905 7.01407 9.70308 7.65747 9.56716C8.09209 9.47534 8.52674 9.38383 8.96141 9.29229C8.31782 9.42774 7.68684 9.67416 7.08479 10.0385C3.50622 12.2031 2.35083 17.6762 4.44904 22.3084C6.1935 26.1599 9.62585 28.2278 12.8058 27.5571C12.3707 27.6488 11.9361 27.7403 11.5015 27.8321C8.32144 28.5029 4.84451 26.4714 3.1 22.6199C1.00178 17.9877 2.20186 12.4781 5.78039 10.3136L5.78039 10.3136Z" fill="url(#paint9_linear_284_795)"/>
<path d="M4.40333 22.3422C6.50084 26.9726 11.1028 28.9724 14.6818 26.8077C18.2604 24.6434 19.4608 19.1334 17.3628 14.503C15.2651 9.8708 10.6631 7.87076 7.08419 10.0357C3.50561 12.2002 2.30509 17.7098 4.40335 22.3422L4.40333 22.3422Z" fill="url(#paint10_linear_284_795)"/>
<path d="M7.08343 10.0367C7.42636 9.82921 7.77793 9.66103 8.13679 9.52876C7.8077 9.65588 7.48399 9.81271 7.16886 10.0034C3.58981 12.1681 2.38973 17.6775 4.48802 22.3099C6.38458 26.497 10.3289 28.5326 13.7126 27.2836C10.3101 28.5991 6.31547 26.5655 4.40259 22.3433C2.30433 17.7109 3.50485 12.2013 7.08343 10.0367Z" fill="url(#paint11_linear_284_795)" style="mix-blend-mode:screen"/>
<path d="M13.4485 26.5411C13.7301 26.4311 14.0078 26.2938 14.2731 26.1331C17.5146 24.1724 18.5781 19.1025 16.6437 14.8319C14.937 11.0639 11.3584 9.1188 8.32022 10.3067C8.03821 10.417 7.7605 10.5542 7.49518 10.715C4.25367 12.6756 3.19044 17.7462 5.12566 22.0175C6.83197 25.7846 10.4098 27.7292 13.4485 26.5411Z" fill="url(#paint12_linear_284_795)"/>
<g style="mix-blend-mode:multiply" opacity="0.5">
<path d="M11.3504 10.1584C13.5157 10.6465 15.4724 12.4036 16.5844 14.8588C18.5057 19.1005 17.4538 24.1331 14.2394 26.0774C13.9781 26.2357 13.7041 26.3713 13.4248 26.4805C12.4836 26.8485 11.4437 26.9208 10.4177 26.6896C8.25285 26.2017 6.29675 24.445 5.18499 21.9906C3.26284 17.7482 4.31433 12.715 7.52896 10.7707C7.79012 10.6124 8.06435 10.4767 8.34397 10.3674C9.28494 9.99948 10.3245 9.92721 11.3504 10.1584ZM11.3647 10.0949C10.3478 9.86571 9.30567 9.92142 8.32023 10.3067C8.03823 10.417 7.76053 10.5542 7.49519 10.7151C4.25365 12.6756 3.19044 17.7463 5.12567 22.0175C6.27836 24.5624 8.28561 26.2758 10.4033 26.7531C11.4205 26.9824 12.4626 26.9267 13.4485 26.5412C13.7301 26.4311 14.0078 26.2938 14.2731 26.1331C17.5146 24.1724 18.5781 19.1025 16.6437 14.8319C15.4906 12.2861 13.4829 10.5723 11.3647 10.0949L11.3647 10.0949Z" fill="url(#paint13_linear_284_795)"/>
</g>
<path d="M13.2261 18.2592C12.7742 17.7616 12.1835 17.5836 11.5991 17.4073C10.8764 17.1895 10.3805 17.01 10.2319 16.5629C10.1455 16.3031 10.1677 16.0573 10.2973 15.834C10.4587 15.5559 10.8391 15.2717 11.3764 15.3788C12.1758 15.5376 12.4334 16.3854 12.4601 16.4811L12.4566 16.468L13.7653 15.9176C13.5775 15.1557 12.9009 13.7693 11.5223 13.4431C11.5219 13.443 11.5215 13.4429 11.5211 13.4429L11.5089 12.3604L10.7026 12.2746L10.7153 13.3992C10.0359 13.4855 9.41958 13.8878 9.01762 14.5539C8.5357 15.3526 8.4447 16.3699 8.77197 17.3244C9.27553 18.7932 10.4179 19.0934 11.3013 19.3255C11.7251 19.4369 12.1562 19.5502 12.3539 19.7583C12.5083 19.9209 12.5756 20.1187 12.5603 20.3639C12.5394 20.7007 12.3645 21.0448 12.1129 21.2419C11.8237 21.4685 11.2657 21.6167 10.7242 21.3969C10.2593 21.2081 9.91299 20.7884 9.70014 20.1482L8.20162 20.9978C8.6103 22.1883 9.31473 22.9902 10.2194 23.3213C10.4172 23.3936 10.6222 23.4396 10.8289 23.4622L10.8417 24.6011L11.6459 24.4972L11.6338 23.4286C12.0607 23.3463 12.4649 23.163 12.798 22.8875C13.4469 22.3508 13.8772 21.4322 13.9344 20.4811C13.9862 19.6209 13.7309 18.8148 13.2261 18.2592L13.2261 18.2592Z" fill="url(#paint14_linear_284_795)" style="mix-blend-mode:screen"/>
<path d="M13.4605 18.2319C13.0086 17.7343 12.4179 17.5563 11.8335 17.38C11.1108 17.1622 10.6149 16.9827 10.4663 16.5356C10.3799 16.2758 10.4021 16.03 10.5317 15.8066C10.6931 15.5286 11.0735 15.2444 11.6108 15.3514C12.4102 15.5103 12.6678 16.3581 12.6944 16.4538L12.691 16.4407L13.9997 15.8903C13.8119 15.1284 13.1353 13.742 11.7567 13.4158C11.7563 13.4157 11.7559 13.4156 11.7555 13.4155L11.7433 12.333L10.937 12.2473L10.9497 13.3719C10.2703 13.4582 9.65395 13.8605 9.25199 14.5266C8.77007 15.3253 8.67907 16.3425 9.00634 17.2971C9.5099 18.7658 10.6523 19.066 11.5357 19.2982C11.9595 19.4096 12.3906 19.5229 12.5882 19.731C12.7426 19.8935 12.81 20.0913 12.7947 20.3366C12.7737 20.6733 12.5989 21.0175 12.3473 21.2146C12.0581 21.4412 11.5001 21.5893 10.9586 21.3695C10.4936 21.1808 10.1474 20.7611 9.9345 20.1209L8.43598 20.9705C8.84466 22.161 9.54908 22.9629 10.4537 23.2939C10.6515 23.3663 10.8566 23.4123 11.0632 23.4348L11.0761 24.5738L11.8802 24.4698L11.8682 23.4012C12.2951 23.3189 12.6993 23.1357 13.0323 22.8601C13.6812 22.3235 14.1115 21.4049 14.1688 20.4538C14.2206 19.5936 13.9652 18.7875 13.4605 18.2319Z" fill="url(#paint15_linear_284_795)"/>
<path d="M13.4605 18.2319C13.0086 17.7343 12.4179 17.5563 11.8335 17.38C11.1108 17.1622 10.6149 16.9827 10.4663 16.5356C10.3799 16.2758 10.4021 16.03 10.5317 15.8066C10.6931 15.5286 11.0735 15.2444 11.6108 15.3514C12.4102 15.5103 12.6678 16.3581 12.6944 16.4538L12.691 16.4407L13.9997 15.8903C13.8119 15.1284 13.1353 13.742 11.7567 13.4158C11.7563 13.4157 11.7559 13.4156 11.7555 13.4155L11.7433 12.333L10.937 12.2473L10.9497 13.3719C10.2703 13.4582 9.65395 13.8605 9.25199 14.5266C8.77007 15.3253 8.67907 16.3425 9.00634 17.2971C9.5099 18.7658 10.6523 19.066 11.5357 19.2982C11.9595 19.4096 12.3906 19.5229 12.5882 19.731C12.7426 19.8935 12.81 20.0913 12.7947 20.3366C12.7737 20.6733 12.5989 21.0175 12.3473 21.2146C12.0581 21.4412 11.5001 21.5893 10.9586 21.3695C10.4936 21.1808 10.1474 20.7611 9.9345 20.1209L8.43598 20.9705C8.84466 22.161 9.54908 22.9629 10.4537 23.2939C10.6515 23.3663 10.8566 23.4123 11.0632 23.4348L11.0761 24.5738L11.8802 24.4698L11.8682 23.4012C12.2951 23.3189 12.6993 23.1357 13.0323 22.8601C13.6812 22.3235 14.1115 21.4049 14.1688 20.4538C14.2206 19.5936 13.9652 18.7875 13.4605 18.2319Z" fill="url(#paint16_linear_284_795)" style="mix-blend-mode:darken"/>
<path opacity="0.4" d="M11.5886 13.4213C11.589 13.4214 11.5894 13.4215 11.5898 13.4215C12.9684 13.7478 13.645 15.1342 13.8328 15.8961L12.671 16.3847C12.6831 16.4196 12.6908 16.4455 12.6942 16.458L12.6908 16.4448L13.9995 15.8945C13.8117 15.1326 13.1351 13.7462 11.7565 13.42C11.7561 13.4199 11.7557 13.4198 11.7553 13.4197L11.7431 12.3372L10.9368 12.2515L10.937 12.2708L11.5764 12.3388L11.5886 13.4213ZM10.9584 21.3737C10.4935 21.185 10.1472 20.7653 9.93434 20.1251L9.79498 20.2041C10.0096 20.8005 10.3459 21.1943 10.7917 21.3753C11.0126 21.465 11.2359 21.4927 11.4429 21.4795C11.2851 21.4721 11.1211 21.4398 10.9584 21.3737L10.9584 21.3737ZM14.1686 20.458C14.2204 19.5978 13.9651 18.7917 13.4604 18.2361C13.0084 17.7385 12.4178 17.5604 11.8333 17.3842C11.1107 17.1664 10.6148 16.9869 10.4661 16.5397C10.3798 16.28 10.4019 16.0342 10.5316 15.8108C10.6585 15.5921 10.9216 15.3704 11.2895 15.3376C10.8339 15.3074 10.5102 15.5619 10.3648 15.8124C10.2352 16.0358 10.213 16.2815 10.2994 16.5413C10.4481 16.9884 10.9439 17.1679 11.6666 17.3858C12.2511 17.562 12.8417 17.74 13.2937 18.2376C13.7984 18.7932 14.0537 19.5993 14.0019 20.4595C13.9447 21.4106 13.5144 22.3292 12.8655 22.8659C12.5324 23.1414 12.1282 23.3247 11.7013 23.407L11.7134 24.4756L11.0757 24.5581L11.0759 24.578L11.8801 24.474L11.868 23.4054C12.2949 23.3231 12.6991 23.1398 13.0322 22.8643C13.6811 22.3277 14.1114 21.4091 14.1686 20.458Z" fill="url(#paint17_linear_284_795)" style="mix-blend-mode:multiply"/>
<path d="M17.1992 11.717C17.768 11.3728 18.3638 11.1406 18.9712 11.0123C19.3815 10.9256 19.7918 10.8392 20.2022 10.7528C19.5946 10.8807 18.9989 11.1133 18.4306 11.4573C15.0522 13.5007 13.9615 18.6676 15.9423 23.0406C17.5891 26.6766 20.8294 28.6288 23.8315 27.9956C23.4207 28.0822 23.0104 28.1686 22.6001 28.2552C19.598 28.8885 16.3156 26.9706 14.6687 23.3347C12.6879 18.9617 13.8209 13.7604 17.1992 11.717L17.1992 11.717Z" fill="url(#paint18_linear_284_795)"/>
<path d="M15.8977 23.0772C17.8779 27.4485 22.2223 29.3364 25.601 27.2929C28.9794 25.2496 30.1126 20.0479 28.132 15.6766C26.1517 11.3036 21.8072 9.4155 18.4286 11.4593C15.0502 13.5027 13.9169 18.704 15.8977 23.0772L15.8977 23.0772Z" fill="url(#paint19_linear_284_795)"/>
<path d="M18.4297 11.4578C18.7535 11.2619 19.0854 11.1031 19.4241 10.9783C19.1135 11.0983 18.8079 11.2463 18.5104 11.4263C15.1316 13.4699 13.9987 18.6711 15.9795 23.0443C17.77 26.9971 21.4936 28.9187 24.688 27.7396C21.4758 28.9815 17.7047 27.0617 15.8989 23.0758C13.918 18.7026 15.0514 13.5013 18.4297 11.4578Z" fill="url(#paint20_linear_284_795)" style="mix-blend-mode:screen"/>
<path d="M24.4367 27.0398C24.7025 26.9359 24.9646 26.8064 25.2151 26.6546C28.2753 24.8036 29.2793 20.0174 27.4531 15.9858C25.8419 12.4286 22.4636 10.5923 19.5953 11.7138C19.3291 11.8179 19.0669 11.9474 18.8165 12.0993C15.7563 13.9501 14.7526 18.737 16.5795 22.7693C18.1904 26.3256 21.568 28.1614 24.4367 27.0398Z" fill="url(#paint21_linear_284_795)"/>
<g style="mix-blend-mode:multiply" opacity="0.5">
<path d="M22.4559 11.5738C24.5002 12.0345 26.3473 13.6934 27.3971 16.0112C29.2109 20.0155 28.2179 24.7665 25.1833 26.602C24.9366 26.7515 24.6779 26.8795 24.4143 26.9826C23.5257 27.33 22.5441 27.3983 21.5754 27.1799C19.5317 26.7193 17.6851 25.061 16.6355 22.7439C14.821 18.7389 15.8136 13.9873 18.8484 12.1518C19.0949 12.0024 19.3538 11.8743 19.6178 11.7711C20.5061 11.4237 21.4875 11.3555 22.4559 11.5738ZM22.4694 11.5138C21.5095 11.2975 20.5257 11.3501 19.5954 11.7138C19.3291 11.8179 19.067 11.9474 18.8165 12.0993C15.7563 13.9502 14.7526 18.7371 16.5795 22.7693C17.6677 25.1718 19.5627 26.7893 21.5619 27.2399C22.5221 27.4564 23.5059 27.4038 24.4367 27.0398C24.7025 26.9359 24.9647 26.8064 25.2152 26.6546C28.2753 24.8037 29.2793 20.0174 27.4531 15.9858C26.3645 13.5824 24.4691 11.9645 22.4694 11.5138L22.4694 11.5138Z" fill="url(#paint22_linear_284_795)"/>
</g>
<path d="M24.2306 19.2197C23.8039 18.7499 23.2463 18.5819 22.6946 18.4155C22.0123 18.2098 21.5442 18.0404 21.4038 17.6183C21.3223 17.373 21.3432 17.141 21.4656 16.9302C21.618 16.6677 21.9771 16.3994 22.4844 16.5004C23.239 16.6503 23.4822 17.4507 23.5074 17.5411L23.5041 17.5287L24.7396 17.0091C24.5623 16.2899 23.9236 14.9811 22.6221 14.6731C22.6217 14.673 22.6213 14.6729 22.6209 14.6728L22.6094 13.6509L21.8483 13.5699L21.8602 14.6316C21.2188 14.7131 20.637 15.0929 20.2575 15.7217C19.8026 16.4758 19.7167 17.4361 20.0256 18.3372C20.501 19.7238 21.5795 20.0072 22.4134 20.2264C22.8136 20.3315 23.2205 20.4384 23.4071 20.6349C23.5529 20.7884 23.6164 20.9751 23.602 21.2066C23.5822 21.5246 23.4172 21.8494 23.1797 22.0355C22.9066 22.2494 22.3799 22.3893 21.8686 22.1818C21.4297 22.0036 21.1028 21.6074 20.9019 21.003L19.4872 21.8051C19.873 22.9289 20.538 23.686 21.3921 23.9985C21.5788 24.0668 21.7724 24.1103 21.9675 24.1315L21.9796 25.2068L22.7387 25.1086L22.7273 24.0998C23.1304 24.0221 23.5119 23.8491 23.8264 23.589C24.439 23.0824 24.8452 22.2152 24.8992 21.3173C24.9481 20.5052 24.7071 19.7442 24.2306 19.2197L24.2306 19.2197Z" fill="url(#paint23_linear_284_795)" style="mix-blend-mode:screen"/>
<path d="M24.4513 19.1963C24.0246 18.7265 23.467 18.5585 22.9153 18.3921C22.233 18.1864 21.7649 18.017 21.6246 17.5949C21.5431 17.3496 21.564 17.1176 21.6864 16.9067C21.8387 16.6443 22.1979 16.376 22.7051 16.477C23.4598 16.6269 23.7029 17.4273 23.7281 17.5177L23.7249 17.5053L24.9603 16.9857C24.783 16.2664 24.1443 14.9577 22.8428 14.6497C22.8424 14.6496 22.842 14.6495 22.8417 14.6494L22.8301 13.6275L22.069 13.5465L22.081 14.6082C21.4395 14.6897 20.8577 15.0695 20.4782 15.6983C20.0233 16.4523 19.9374 17.4126 20.2463 18.3138C20.7217 19.7003 21.8002 19.9837 22.6342 20.2029C23.0343 20.3081 23.4412 20.415 23.6278 20.6115C23.7736 20.765 23.8371 20.9517 23.8227 21.1832C23.8029 21.5011 23.6379 21.826 23.4004 22.0121C23.1273 22.226 22.6005 22.3659 22.0893 22.1583C21.6504 21.9801 21.3235 21.5839 21.1226 20.9796L19.7079 21.7817C20.0937 22.9055 20.7587 23.6626 21.6128 23.9751C21.7995 24.0434 21.9931 24.0868 22.1882 24.1081L22.2003 25.1833L22.9594 25.0852L22.948 24.0764C23.351 23.9987 23.7326 23.8257 24.0471 23.5655C24.6597 23.0589 25.0659 22.1917 25.1199 21.2938C25.1688 20.4818 24.9278 19.7208 24.4513 19.1963Z" fill="url(#paint24_linear_284_795)"/>
<path d="M24.4513 19.1963C24.0246 18.7265 23.467 18.5585 22.9153 18.3921C22.233 18.1864 21.7649 18.017 21.6246 17.5949C21.5431 17.3496 21.564 17.1176 21.6864 16.9067C21.8387 16.6443 22.1979 16.376 22.7051 16.477C23.4598 16.6269 23.7029 17.4273 23.7281 17.5177L23.7249 17.5053L24.9603 16.9857C24.783 16.2664 24.1443 14.9577 22.8428 14.6497C22.8424 14.6496 22.842 14.6495 22.8417 14.6494L22.8301 13.6275L22.069 13.5465L22.081 14.6082C21.4395 14.6897 20.8577 15.0695 20.4782 15.6983C20.0233 16.4523 19.9374 17.4126 20.2463 18.3138C20.7217 19.7003 21.8002 19.9837 22.6342 20.2029C23.0343 20.3081 23.4412 20.415 23.6278 20.6115C23.7736 20.765 23.8371 20.9517 23.8227 21.1832C23.8029 21.5011 23.6379 21.826 23.4004 22.0121C23.1273 22.226 22.6005 22.3659 22.0893 22.1583C21.6504 21.9801 21.3235 21.5839 21.1226 20.9796L19.7079 21.7817C20.0937 22.9055 20.7587 23.6626 21.6128 23.9751C21.7995 24.0434 21.9931 24.0868 22.1882 24.1081L22.2003 25.1833L22.9594 25.0852L22.948 24.0764C23.351 23.9987 23.7326 23.8257 24.0471 23.5655C24.6597 23.0589 25.0659 22.1917 25.1199 21.2938C25.1688 20.4818 24.9278 19.7208 24.4513 19.1963Z" fill="url(#paint25_linear_284_795)" style="mix-blend-mode:darken"/>
<path opacity="0.4" d="M22.6825 14.6515C22.6829 14.6516 22.6833 14.6517 22.6837 14.6517C23.9852 14.9598 24.6239 16.2686 24.8012 16.9878L23.7044 17.4491C23.7158 17.4821 23.723 17.5065 23.7263 17.5183L23.7231 17.5059L24.9586 16.9863C24.7812 16.2671 24.1425 14.9583 22.8411 14.6502C22.8407 14.6502 22.8403 14.6501 22.8399 14.65L22.8284 13.6281L22.0672 13.5471L22.0674 13.5654L22.671 13.6296L22.6825 14.6515ZM22.0876 22.159C21.6487 21.9808 21.3218 21.5846 21.1209 20.9802L20.9893 21.0548C21.1919 21.6178 21.5094 21.9896 21.9302 22.1605C22.1388 22.2451 22.3496 22.2712 22.545 22.2589C22.396 22.2518 22.2412 22.2213 22.0876 22.159L22.0876 22.159ZM25.1182 21.2944C25.1671 20.4824 24.9261 19.7214 24.4496 19.1969C24.0229 18.7271 23.4653 18.5591 22.9136 18.3927C22.2314 18.187 21.7632 18.0176 21.6229 17.5955C21.5414 17.3503 21.5623 17.1182 21.6847 16.9073C21.8045 16.7008 22.0529 16.4915 22.4002 16.4605C21.9701 16.4321 21.6645 16.6724 21.5273 16.9088C21.4049 17.1197 21.384 17.3517 21.4655 17.5969C21.6058 18.019 22.074 18.1885 22.7562 18.3941C23.3079 18.5605 23.8655 18.7286 24.2922 19.1983C24.7687 19.7229 25.0097 20.4839 24.9608 21.2959C24.9068 22.1938 24.5006 23.061 23.888 23.5676C23.5735 23.8277 23.192 24.0008 22.7889 24.0785L22.8003 25.0873L22.1984 25.1651L22.1986 25.1839L22.9577 25.0858L22.9463 24.077C23.3493 23.9993 23.7309 23.8263 24.0454 23.5661C24.658 23.0595 25.0642 22.1923 25.1182 21.2944Z" fill="url(#paint26_linear_284_795)" style="mix-blend-mode:multiply"/>
<defs>
<linearGradient id="paint0_linear_284_795" x1="15.0528" y1="2.37307" x2="19.4035" y2="20.5241" gradientUnits="userSpaceOnUse">
<stop offset="0.054" stop-color="#A56008"/>
<stop offset="0.218" stop-color="#FFD44F"/>
<stop offset="0.484" stop-color="#FEEFBF"/>
<stop offset="0.653" stop-color="#FFD34C"/>
<stop offset="0.812" stop-color="#A56008"/>
<stop offset="1" stop-color="#FFB921"/>
</linearGradient>
<linearGradient id="paint1_linear_284_795" x1="27.0959" y1="1.18367" x2="14.1795" y2="19.1534" gradientUnits="userSpaceOnUse">
<stop offset="0.054" stop-color="#A56008"/>
<stop offset="0.218" stop-color="#FFD44F"/>
<stop offset="0.484" stop-color="#FEEFBF"/>
<stop offset="0.653" stop-color="#FFD34C"/>
<stop offset="0.812" stop-color="#A56008"/>
<stop offset="1" stop-color="#FFB921"/>
</linearGradient>
<linearGradient id="paint2_linear_284_795" x1="24.9579" y1="3.33289" x2="14.1502" y2="18.3689" gradientUnits="userSpaceOnUse">
<stop offset="0.054" stop-color="#A56008"/>
<stop offset="0.218" stop-color="#FFD44F"/>
<stop offset="0.484" stop-color="#FEEFBF"/>
<stop offset="0.653" stop-color="#FFD34C"/>
<stop offset="0.812" stop-color="#A56008"/>
<stop offset="1" stop-color="#FFB921"/>
</linearGradient>
<linearGradient id="paint3_linear_284_795" x1="11.6066" y1="3.7155" x2="38.7609" y2="21.8182" gradientUnits="userSpaceOnUse">
<stop offset="0.054" stop-color="#A56008"/>
<stop offset="0.218" stop-color="#FFD44F"/>
<stop offset="0.484" stop-color="#FEEFBF"/>
<stop offset="0.653" stop-color="#FFD34C"/>
<stop offset="0.812" stop-color="#A56008"/>
<stop offset="1" stop-color="#FFB921"/>
</linearGradient>
<linearGradient id="paint4_linear_284_795" x1="15.0106" y1="5.98539" x2="26.6873" y2="13.7696" gradientUnits="userSpaceOnUse">
<stop offset="0.054" stop-color="#A56008"/>
<stop offset="0.218" stop-color="#FFD44F"/>
<stop offset="0.484" stop-color="#FEEFBF"/>
<stop offset="0.653" stop-color="#FFD34C"/>
<stop offset="0.812" stop-color="#A56008"/>
<stop offset="1" stop-color="#FFB921"/>
</linearGradient>
<linearGradient id="paint5_linear_284_795" x1="25.9755" y1="7.85623" x2="11.0317" y2="13.9492" gradientUnits="userSpaceOnUse">
<stop offset="0.054" stop-color="#A56008"/>
<stop offset="0.218" stop-color="#FFD44F"/>
<stop offset="0.484" stop-color="#FEEFBF"/>
<stop offset="0.653" stop-color="#FFD34C"/>
<stop offset="0.812" stop-color="#A56008"/>
<stop offset="1" stop-color="#FFB921"/>
</linearGradient>
<linearGradient id="paint6_linear_284_795" x1="31.2587" y1="8.46653" x2="15.9276" y2="10.5539" gradientUnits="userSpaceOnUse">
<stop offset="0.054" stop-color="#A56008"/>
<stop offset="0.218" stop-color="#FFD44F"/>
<stop offset="0.484" stop-color="#FEEFBF"/>
<stop offset="0.653" stop-color="#FFD34C"/>
<stop offset="0.812" stop-color="#A56008"/>
<stop offset="1" stop-color="#FFB921"/>
</linearGradient>
<linearGradient id="paint7_linear_284_795" x1="38.6583" y1="10.3262" x2="14.5898" y2="9.70021" gradientUnits="userSpaceOnUse">
<stop offset="0.054" stop-color="#A56008"/>
<stop offset="0.218" stop-color="#FFD44F"/>
<stop offset="0.484" stop-color="#FEEFBF"/>
<stop offset="0.653" stop-color="#FFD34C"/>
<stop offset="0.812" stop-color="#A56008"/>
<stop offset="1" stop-color="#FFB921"/>
</linearGradient>
<linearGradient id="paint8_linear_284_795" x1="20.1102" y1="9.91969" x2="41.154" y2="8.51715" gradientUnits="userSpaceOnUse">
<stop offset="0.054" stop-color="#A56008"/>
<stop offset="0.218" stop-color="#FFD44F"/>
<stop offset="0.484" stop-color="#FEEFBF"/>
<stop offset="0.653" stop-color="#FFD34C"/>
<stop offset="0.812" stop-color="#A56008"/>
<stop offset="1" stop-color="#FFB921"/>
</linearGradient>
<linearGradient id="paint9_linear_284_795" x1="4.55081" y1="10.2309" x2="9.30293" y2="30.0567" gradientUnits="userSpaceOnUse">
<stop offset="0.054" stop-color="#A56008"/>
<stop offset="0.218" stop-color="#FFD44F"/>
<stop offset="0.484" stop-color="#FEEFBF"/>
<stop offset="0.653" stop-color="#FFD34C"/>
<stop offset="0.812" stop-color="#A56008"/>
<stop offset="1" stop-color="#FFB921"/>
</linearGradient>
<linearGradient id="paint10_linear_284_795" x1="17.7067" y1="8.92642" x2="3.59852" y2="28.5541" gradientUnits="userSpaceOnUse">
<stop offset="0.054" stop-color="#A56008"/>
<stop offset="0.218" stop-color="#FFD44F"/>
<stop offset="0.484" stop-color="#FEEFBF"/>
<stop offset="0.653" stop-color="#FFD34C"/>
<stop offset="0.812" stop-color="#A56008"/>
<stop offset="1" stop-color="#FFB921"/>
</linearGradient>
<linearGradient id="paint11_linear_284_795" x1="15.3717" y1="11.2774" x2="3.56676" y2="27.7008" gradientUnits="userSpaceOnUse">
<stop offset="0.054" stop-color="#A56008"/>
<stop offset="0.218" stop-color="#FFD44F"/>
<stop offset="0.484" stop-color="#FEEFBF"/>
<stop offset="0.653" stop-color="#FFD34C"/>
<stop offset="0.812" stop-color="#A56008"/>
<stop offset="1" stop-color="#FFB921"/>
</linearGradient>
<linearGradient id="paint12_linear_284_795" x1="0.789069" y1="11.6935" x2="30.4488" y2="31.4665" gradientUnits="userSpaceOnUse">
<stop offset="0.054" stop-color="#A56008"/>
<stop offset="0.218" stop-color="#FFD44F"/>
<stop offset="0.484" stop-color="#FEEFBF"/>
<stop offset="0.653" stop-color="#FFD34C"/>
<stop offset="0.812" stop-color="#A56008"/>
<stop offset="1" stop-color="#FFB921"/>
</linearGradient>
<linearGradient id="paint13_linear_284_795" x1="4.5072" y1="14.1728" x2="17.2612" y2="22.6753" gradientUnits="userSpaceOnUse">
<stop offset="0.054" stop-color="#A56008"/>
<stop offset="0.218" stop-color="#FFD44F"/>
<stop offset="0.484" stop-color="#FEEFBF"/>
<stop offset="0.653" stop-color="#FFD34C"/>
<stop offset="0.812" stop-color="#A56008"/>
<stop offset="1" stop-color="#FFB921"/>
</linearGradient>
<linearGradient id="paint14_linear_284_795" x1="16.4828" y1="16.2214" x2="0.160213" y2="22.8766" gradientUnits="userSpaceOnUse">
<stop offset="0.054" stop-color="#A56008"/>
<stop offset="0.218" stop-color="#FFD44F"/>
<stop offset="0.484" stop-color="#FEEFBF"/>
<stop offset="0.653" stop-color="#FFD34C"/>
<stop offset="0.812" stop-color="#A56008"/>
<stop offset="1" stop-color="#FFB921"/>
</linearGradient>
<linearGradient id="paint15_linear_284_795" x1="22.2532" y1="16.882" x2="5.50757" y2="19.162" gradientUnits="userSpaceOnUse">
<stop offset="0.054" stop-color="#A56008"/>
<stop offset="0.218" stop-color="#FFD44F"/>
<stop offset="0.484" stop-color="#FEEFBF"/>
<stop offset="0.653" stop-color="#FFD34C"/>
<stop offset="0.812" stop-color="#A56008"/>
<stop offset="1" stop-color="#FFB921"/>
</linearGradient>
<linearGradient id="paint16_linear_284_795" x1="30.3356" y1="18.9133" x2="4.0463" y2="18.2295" gradientUnits="userSpaceOnUse">
<stop offset="0.054" stop-color="#A56008"/>
<stop offset="0.218" stop-color="#FFD44F"/>
<stop offset="0.484" stop-color="#FEEFBF"/>
<stop offset="0.653" stop-color="#FFD34C"/>
<stop offset="0.812" stop-color="#A56008"/>
<stop offset="1" stop-color="#FFB921"/>
</linearGradient>
<linearGradient id="paint17_linear_284_795" x1="10.0768" y1="18.4767" x2="33.0622" y2="16.9448" gradientUnits="userSpaceOnUse">
<stop offset="0.054" stop-color="#A56008"/>
<stop offset="0.218" stop-color="#FFD44F"/>
<stop offset="0.484" stop-color="#FEEFBF"/>
<stop offset="0.653" stop-color="#FFD34C"/>
<stop offset="0.812" stop-color="#A56008"/>
<stop offset="1" stop-color="#FFB921"/>
</linearGradient>
<linearGradient id="paint18_linear_284_795" x1="16.0384" y1="11.6389" x2="20.5246" y2="30.3553" gradientUnits="userSpaceOnUse">
<stop offset="0.054" stop-color="#A56008"/>
<stop offset="0.218" stop-color="#FFD44F"/>
<stop offset="0.484" stop-color="#FEEFBF"/>
<stop offset="0.653" stop-color="#FFD34C"/>
<stop offset="0.812" stop-color="#A56008"/>
<stop offset="1" stop-color="#FFB921"/>
</linearGradient>
<linearGradient id="paint19_linear_284_795" x1="28.4567" y1="10.4121" x2="15.1379" y2="28.9415" gradientUnits="userSpaceOnUse">
<stop offset="0.054" stop-color="#A56008"/>
<stop offset="0.218" stop-color="#FFD44F"/>
<stop offset="0.484" stop-color="#FEEFBF"/>
<stop offset="0.653" stop-color="#FFD34C"/>
<stop offset="0.812" stop-color="#A56008"/>
<stop offset="1" stop-color="#FFB921"/>
</linearGradient>
<linearGradient id="paint20_linear_284_795" x1="26.2542" y1="12.6291" x2="15.1098" y2="28.1335" gradientUnits="userSpaceOnUse">
<stop offset="0.054" stop-color="#A56008"/>
<stop offset="0.218" stop-color="#FFD44F"/>
<stop offset="0.484" stop-color="#FEEFBF"/>
<stop offset="0.653" stop-color="#FFD34C"/>
<stop offset="0.812" stop-color="#A56008"/>
<stop offset="1" stop-color="#FFB921"/>
</linearGradient>
<linearGradient id="paint21_linear_284_795" x1="12.4856" y1="13.023" x2="40.4858" y2="31.6895" gradientUnits="userSpaceOnUse">
<stop offset="0.054" stop-color="#A56008"/>
<stop offset="0.218" stop-color="#FFD44F"/>
<stop offset="0.484" stop-color="#FEEFBF"/>
<stop offset="0.653" stop-color="#FFD34C"/>
<stop offset="0.812" stop-color="#A56008"/>
<stop offset="1" stop-color="#FFB921"/>
</linearGradient>
<linearGradient id="paint22_linear_284_795" x1="15.9957" y1="15.3636" x2="28.036" y2="23.3903" gradientUnits="userSpaceOnUse">
<stop offset="0.054" stop-color="#A56008"/>
<stop offset="0.218" stop-color="#FFD44F"/>
<stop offset="0.484" stop-color="#FEEFBF"/>
<stop offset="0.653" stop-color="#FFD34C"/>
<stop offset="0.812" stop-color="#A56008"/>
<stop offset="1" stop-color="#FFB921"/>
</linearGradient>
<linearGradient id="paint23_linear_284_795" x1="27.305" y1="17.2959" x2="11.8958" y2="23.5787" gradientUnits="userSpaceOnUse">
<stop offset="0.054" stop-color="#A56008"/>
<stop offset="0.218" stop-color="#FFD44F"/>
<stop offset="0.484" stop-color="#FEEFBF"/>
<stop offset="0.653" stop-color="#FFD34C"/>
<stop offset="0.812" stop-color="#A56008"/>
<stop offset="1" stop-color="#FFB921"/>
</linearGradient>
<linearGradient id="paint24_linear_284_795" x1="32.752" y1="17.9219" x2="16.9433" y2="20.0744" gradientUnits="userSpaceOnUse">
<stop offset="0.054" stop-color="#A56008"/>
<stop offset="0.218" stop-color="#FFD44F"/>
<stop offset="0.484" stop-color="#FEEFBF"/>
<stop offset="0.653" stop-color="#FFD34C"/>
<stop offset="0.812" stop-color="#A56008"/>
<stop offset="1" stop-color="#FFB921"/>
</linearGradient>
<linearGradient id="paint25_linear_284_795" x1="40.3821" y1="19.8395" x2="15.5638" y2="19.194" gradientUnits="userSpaceOnUse">
<stop offset="0.054" stop-color="#A56008"/>
<stop offset="0.218" stop-color="#FFD44F"/>
<stop offset="0.484" stop-color="#FEEFBF"/>
<stop offset="0.653" stop-color="#FFD34C"/>
<stop offset="0.812" stop-color="#A56008"/>
<stop offset="1" stop-color="#FFB921"/>
</linearGradient>
<linearGradient id="paint26_linear_284_795" x1="21.2553" y1="19.424" x2="42.9546" y2="17.9778" gradientUnits="userSpaceOnUse">
<stop offset="0.054" stop-color="#A56008"/>
<stop offset="0.218" stop-color="#FFD44F"/>
<stop offset="0.484" stop-color="#FEEFBF"/>
<stop offset="0.653" stop-color="#FFD34C"/>
<stop offset="0.812" stop-color="#A56008"/>
<stop offset="1" stop-color="#FFB921"/>
</linearGradient>
</defs>
</svg>
