<svg width="1648" height="1296" viewBox="0 0 1648 1296" fill="none" xmlns="http://www.w3.org/2000/svg">
<path d="M713.26 649.546C706.723 665.298 690.697 671.281 681.548 660.986C662.721 639.804 672.021 552.601 684.782 548.499C697.355 544.456 726.906 616.677 713.26 649.546Z" stroke="white" stroke-opacity="0.05" stroke-miterlimit="10"/>
<path d="M755.136 610.516C767.63 574.536 678.682 514.12 657.682 539.058C644.769 554.391 646.384 591.509 650.627 621.776C654.61 650.192 670.897 690.794 697.947 700.811C712.307 706.115 732.765 702.931 739.93 691.698C745.474 683.004 742.98 671.267 743.902 668.678C738.827 656.335 736.854 654.524 735.664 644.69C734.107 631.836 751.701 620.411 755.136 610.516Z" stroke="white" stroke-opacity="0.05" stroke-miterlimit="10"/>
<path d="M798.884 574.011C792.271 532.223 662.351 486.812 632.452 532.143C613.411 561.012 621.819 611.342 631.885 646.423C641.132 678.647 671.992 732.305 716.216 743.161C741.912 749.471 778.062 741.804 788.518 719.832C796.85 702.319 789.685 679.753 789.134 675.779C776.611 652.294 770.24 650.395 765.95 632.908C760.278 609.755 801.661 591.475 798.884 574.011Z" stroke="white" stroke-opacity="0.05" stroke-miterlimit="10"/>
<path d="M842.341 540.148C830.151 494.009 645.838 462.147 606.938 527.869C581.834 570.286 596.893 633.844 612.859 673.711C627.299 709.775 672.736 776.265 734.2 788.153C771.268 795.326 823.027 783.357 836.82 750.613C847.908 724.303 836.53 690.702 834.081 685.531C816.951 649.382 803.339 648.925 795.952 623.758C786.111 590.328 848.712 564.311 842.341 540.148Z" stroke="white" stroke-opacity="0.05" stroke-miterlimit="10"/>
<path d="M883.823 508.325C866.236 457.23 627.533 439.606 579.442 525.637C548.406 581.659 569.95 658.418 591.848 703.035C611.449 742.981 671.463 822.218 750.208 835.202C798.612 843.182 866.002 826.966 883.154 783.446C896.985 748.324 880.762 703.954 877.062 697.331C851.033 650.734 834.406 649.53 823.973 616.691C809.964 572.977 894.348 538.911 883.823 508.325Z" stroke="white" stroke-opacity="0.05" stroke-miterlimit="10"/>
<path d="M928.936 817.707C945.507 773.787 924.462 718.677 919.489 710.559C884.617 653.64 865.045 651.535 851.468 611.036C833.363 557.031 939.743 514.713 924.779 477.958C901.792 421.501 608.393 418.332 551.422 524.86C514.249 594.369 542.455 684.477 570.316 733.819C595.057 777.639 669.646 869.566 765.687 883.675C825.424 892.444 908.45 872.01 928.936 817.707Z" stroke="white" stroke-opacity="0.05" stroke-miterlimit="10"/>
<path d="M959.167 342.452C959.31 359.752 989.047 380.499 994.013 364.983C996.884 356.022 992.342 332.297 984.259 322.978C972.884 309.854 959.065 330.547 959.167 342.452Z" stroke="white" stroke-opacity="0.05" stroke-miterlimit="10"/>
<path d="M989.846 389.467C993.837 387.775 995.61 379.847 1000.47 372.614C1010.33 357.941 1015.02 355.836 1020.97 345.415C1023.29 341.35 1026.34 335.882 1024.95 330.543C1022.8 322.369 1013.53 320.328 997.197 309.952C975.974 296.5 970.487 291.406 959.241 295.249C956.627 296.145 948.157 297.304 942.992 303.783C935.85 312.755 941.367 323.272 936.64 336.42C930.971 352.21 920.882 360.038 925.34 366.89C928.481 371.717 937.082 371.897 952.058 375.512C963.467 378.265 970.953 379.996 977.059 383.344C984.329 387.36 985.411 391.351 989.846 389.467Z" stroke="white" stroke-opacity="0.05" stroke-miterlimit="10"/>
<path d="M981.531 415.915C988.605 415.621 992.029 404.411 1002.25 395.172C1023.22 376.224 1038.2 385.002 1053.52 369.814C1060.03 363.37 1066.33 353.258 1065.11 343.123C1063.37 328.739 1048.64 323.908 1018.79 301.765C979.751 272.816 972.107 260.484 951.303 263.188C947.064 263.741 930.783 264.279 920.985 275.592C907.918 290.68 919.806 308.766 909.984 332.388C899.025 358.783 875.596 368.647 880.445 377.547C883.811 383.729 897.37 381.361 923.816 386.111C942.612 389.475 953.598 391.553 962.595 398.275C973.943 406.76 973.848 416.232 981.531 415.915Z" stroke="white" stroke-opacity="0.05" stroke-miterlimit="10"/>
<path d="M973.304 442.383C983.443 443.527 988.541 429.01 1004.13 417.75C1036.21 394.566 1061.28 414.555 1086.17 394.234C1096.82 385.537 1106.35 370.619 1105.35 355.722C1103.98 335.074 1083.91 327.444 1040.47 293.568C983.699 249.031 973.705 229.85 943.454 231.109C937.556 231.357 913.506 231.242 899.056 247.383C880.074 268.592 898.356 294.285 883.411 328.336C867.161 365.361 830.405 377.228 835.626 388.202C839.24 395.732 857.741 390.909 895.655 396.709C921.839 400.713 936.271 403.126 948.212 413.209C963.6 426.203 962.383 441.158 973.304 442.383Z" stroke="white" stroke-opacity="0.05" stroke-miterlimit="10"/>
<path d="M965.1 468.917C978.292 471.483 985.082 453.702 1006.02 440.395C1049.23 413.024 1084.31 444.265 1118.84 418.717C1133.62 407.796 1146.37 388.036 1145.63 368.383C1144.6 341.455 1119.12 331.148 1062.16 285.452C987.569 225.468 975.25 199.363 935.624 199.13C928.067 199.085 896.27 198.33 877.149 219.279C852.276 246.635 876.941 279.884 856.856 324.387C835.34 372.052 785.219 385.92 790.827 398.923C794.674 407.807 818.134 400.525 867.513 407.373C901.088 412.029 918.947 414.763 933.848 428.204C953.256 445.722 950.913 466.156 965.1 468.917Z" stroke="white" stroke-opacity="0.05" stroke-miterlimit="10"/>
<path d="M956.899 495.498C939.441 491.201 942.917 465.294 919.489 443.259C901.626 426.454 880.347 423.4 839.375 418.092C778.535 410.21 750.114 419.941 746.036 409.703C740.039 394.653 803.524 378.787 830.306 320.476C855.534 265.544 824.434 224.667 855.246 191.211C879.005 165.419 918.547 166.853 927.802 167.188C976.792 168.965 991.446 201.953 1083.87 277.388C1154.34 334.909 1185.22 347.881 1185.9 381.105C1186.4 405.509 1170.41 430.122 1151.51 443.259C1107.3 474.019 1062.21 431.464 1007.91 463.087C981.602 478.411 973.141 499.498 956.899 495.498Z" stroke="white" stroke-opacity="0.05" stroke-miterlimit="10"/>
<path d="M675.899 275.652C678.166 280.167 673.798 289.646 666.992 290.485C659.271 291.435 652.885 280.708 654.869 275.995C657.22 270.42 672.899 269.661 675.899 275.652Z" stroke="white" stroke-opacity="0.05" stroke-miterlimit="10"/>
<path d="M634.879 262.93C642.011 255.234 655.097 251.872 677.528 248.023C699.771 244.211 715.695 244.809 716.852 248.161C717.475 249.988 712.596 255.162 709.022 259.6C702.348 267.909 703.089 282.132 702.367 285.777C699.722 299.124 694.81 303.044 685.4 308.622C681.054 311.203 671.418 317.224 660.081 319.874C642.913 323.916 637.623 342.032 630.742 339.825C624.998 337.968 623.604 320.02 623.441 308.381C623.206 291.703 623.868 274.826 634.879 262.93Z" stroke="white" stroke-opacity="0.05" stroke-miterlimit="10"/>
<path d="M615.71 249.591C628.452 236.942 649.837 231.966 689.83 224.302C730.014 216.516 757.578 216.565 758.606 220.401C759.392 223.28 749.457 232.603 742.356 240.526C728.915 255.463 731.125 282.201 730.264 287.711C726.417 312.839 717.2 319.032 699.779 328.77C692.524 332.827 674.839 343.958 653.952 349.03C621.956 356.835 613.578 393.841 601.717 390.779C591.838 388.22 590.323 353.902 591.135 332.309C592.311 301.819 594.17 270.963 615.71 249.591Z" stroke="white" stroke-opacity="0.05" stroke-miterlimit="10"/>
<path d="M596.662 236.325C615.013 218.712 644.712 212.18 702.254 200.657C760.393 188.955 799.531 188.409 800.506 192.718C801.412 196.665 786.448 210.129 775.803 221.515C755.559 243.04 759.281 282.327 758.306 289.705C753.424 326.608 739.771 335.108 714.301 348.98C704.139 354.517 678.401 370.75 647.977 378.249C601.149 389.807 589.691 445.708 572.844 441.799C558.832 438.536 557.136 387.84 558.991 356.298C561.466 312.005 564.572 267.123 596.662 236.325Z" stroke="white" stroke-opacity="0.05" stroke-miterlimit="10"/>
<path d="M577.629 223.103C601.588 200.514 639.604 192.434 714.695 177.052C790.779 161.418 841.481 160.275 842.422 165.071C843.415 170.09 823.482 187.702 809.285 202.543C782.284 230.699 787.481 282.489 786.366 291.736C780.512 340.414 762.388 351.285 728.843 369.229C715.783 376.269 681.985 397.58 642.018 407.502C580.362 422.824 565.82 497.618 543.989 492.851C525.851 488.889 524.041 421.817 526.86 380.322C530.741 322.244 534.977 263.313 577.629 223.103Z" stroke="white" stroke-opacity="0.05" stroke-miterlimit="10"/>
<path d="M814.435 293.783C807.632 354.232 784.959 367.376 743.391 389.492C727.41 397.995 685.573 424.428 636.069 436.775C559.577 455.841 541.956 549.54 515.145 543.924C492.849 539.257 490.959 455.81 494.738 404.363C500.029 332.478 505.387 259.507 558.602 209.894C588.172 182.329 634.494 172.705 727.141 153.46C821.177 133.925 883.43 132.182 884.345 137.445C885.403 143.546 860.538 165.28 842.777 183.583C809.024 218.374 815.685 282.663 814.435 293.783Z" stroke="white" stroke-opacity="0.05" stroke-miterlimit="10"/>
<path d="M996.199 785.296C970.125 778.433 982.373 729.166 923.644 670.521C902.6 649.507 880.588 635.417 877.164 607.605C876.82 604.798 873.8 576.935 891.524 557.271C913.819 532.532 944.75 547.631 987.886 518.758C1003.78 508.124 999.162 506.354 1011.69 498.549C1065.18 465.238 1119.49 516.043 1173.81 486.728C1198.81 473.234 1204.55 453.173 1207.82 455.08C1221.83 463.308 1066.46 803.843 996.199 785.296Z" stroke="white" stroke-opacity="0.05" stroke-miterlimit="10"/>
<path d="M912.811 599.976C913.038 598.29 911.678 579.919 924.208 567.317C940.03 551.382 961.816 562.74 991.227 544.484C1002.06 537.765 999.122 536.831 1007.69 532.049C1044.25 511.649 1081.02 548.262 1116.81 530.333C1133.37 522.036 1137.17 508.938 1138.79 510.886C1146.17 519.698 1037.19 744.471 989.776 726.815C971.993 720.196 978.303 684.059 940.001 642.709C926.083 627.675 910.457 617.494 912.811 599.976Z" stroke="white" stroke-opacity="0.05" stroke-miterlimit="10"/>
<path d="M948.46 592.349C949.658 591.869 949.632 582.885 956.892 577.363C966.308 570.195 978.854 577.828 994.563 570.21C1000.33 567.416 999.098 567.301 1003.68 565.547C1023.4 558.015 1042.53 580.514 1059.81 573.935C1067.94 570.859 1069.33 565.139 1069.76 566.664C1068.2 577.813 1007.82 684.871 983.352 668.357C973.79 661.909 974.248 638.828 956.354 614.919C949.552 605.833 944.572 599.884 948.46 592.349Z" stroke="white" stroke-opacity="0.05" stroke-miterlimit="10"/>
<path d="M984.107 584.724C1001.24 590.643 1007.07 613.94 1000.73 622.474C991.378 635.058 979.195 624.324 976.927 609.891C975.246 599.104 964.495 577.953 984.107 584.724Z" stroke="white" stroke-opacity="0.05" stroke-miterlimit="10"/>
<g opacity="0.72" filter="url(#filter0_f_195_500)">
<circle cx="547" cy="295.262" r="143" fill="#F76729"/>
</g>
<g opacity="0.72" filter="url(#filter1_f_195_500)">
<ellipse cx="1061" cy="709.5" rx="183" ry="182.5" fill="#FDAB4D"/>
</g>
<defs>
<filter id="filter0_f_195_500" x="0" y="-251.738" width="1094" height="1094" filterUnits="userSpaceOnUse" color-interpolation-filters="sRGB">
<feFlood flood-opacity="0" result="BackgroundImageFix"/>
<feBlend mode="normal" in="SourceGraphic" in2="BackgroundImageFix" result="shape"/>
<feGaussianBlur stdDeviation="202" result="effect1_foregroundBlur_195_500"/>
</filter>
<filter id="filter1_f_195_500" x="474" y="123" width="1174" height="1173" filterUnits="userSpaceOnUse" color-interpolation-filters="sRGB">
<feFlood flood-opacity="0" result="BackgroundImageFix"/>
<feBlend mode="normal" in="SourceGraphic" in2="BackgroundImageFix" result="shape"/>
<feGaussianBlur stdDeviation="202" result="effect1_foregroundBlur_195_500"/>
</filter>
</defs>
</svg>
