<svg width="11" height="6" viewBox="0 0 11 6" fill="none" xmlns="http://www.w3.org/2000/svg">
<path d="M5.27155 5.70404C5.44228 5.70009 5.60544 5.63364 5.72948 5.51755L10.0394 1.4254C10.171 1.29949 10.2466 1.12713 10.2499 0.946122C10.2531 0.765109 10.1837 0.590203 10.0568 0.459743C9.92988 0.329282 9.75584 0.25391 9.57283 0.250148C9.38982 0.246386 9.21277 0.31454 9.08048 0.439672L5.25001 4.0789L1.41952 0.439672C1.28723 0.31454 1.11019 0.246385 0.927178 0.250147C0.744168 0.25391 0.57013 0.329282 0.443214 0.459743C0.316298 0.590203 0.246853 0.765108 0.250109 0.946121C0.253365 1.12713 0.329049 1.29949 0.460577 1.4254L4.77053 5.51755C4.83726 5.58009 4.91595 5.62881 5.00199 5.66083C5.08803 5.69286 5.17969 5.70755 5.27155 5.70404Z" fill="white" stroke="white" stroke-width="0.5"/>
</svg>
