<svg width="1022" height="1185" viewBox="0 0 1022 1185" fill="none" xmlns="http://www.w3.org/2000/svg">
<g opacity="0.98" filter="url(#filter0_f_216_537)">
<path d="M608.009 592.5C608.009 767 649.825 781 562.363 781C474.902 781 404 696.606 404 592.5C404 488.394 474.902 404 562.363 404C649.825 404 608.009 428 608.009 592.5Z" fill="#F76729"/>
<path d="M562.363 404.5C573.288 404.5 582.174 404.875 589.368 405.848C596.565 406.821 602.034 408.39 606.144 410.754C610.239 413.11 613.002 416.267 614.78 420.464C616.565 424.677 617.365 429.959 617.484 436.571C617.723 449.813 615.236 468.182 612.679 493.599C610.124 518.991 607.509 551.353 607.509 592.5C607.509 636.146 610.124 669.757 612.679 695.619C615.236 721.508 617.723 739.561 617.484 752.178C617.365 758.477 616.565 763.361 614.788 767.156C613.02 770.932 610.27 773.662 606.176 775.636C602.064 777.618 596.591 778.839 589.386 779.561C582.185 780.282 573.293 780.5 562.363 780.5C475.256 780.5 404.5 696.415 404.5 592.5C404.5 488.585 475.256 404.5 562.363 404.5Z" stroke="black"/>
</g>
<defs>
<filter id="filter0_f_216_537" x="0" y="0" width="1022" height="1185" filterUnits="userSpaceOnUse" color-interpolation-filters="sRGB">
<feFlood flood-opacity="0" result="BackgroundImageFix"/>
<feBlend mode="normal" in="SourceGraphic" in2="BackgroundImageFix" result="shape"/>
<feGaussianBlur stdDeviation="202" result="effect1_foregroundBlur_216_537"/>
</filter>
</defs>
</svg>
