<svg width="13" height="10" viewBox="0 0 13 10" fill="none" xmlns="http://www.w3.org/2000/svg">
<path opacity="0.2" d="M12.2265 4.69495C7.5489 4.69495 6.89408 4.69495 2.24038 4.69495C2.23242 4.71816 2.22447 4.74138 2.22447 4.7646C2.33584 4.81877 2.44721 4.87294 2.55858 4.93485C4.07004 5.73197 4.89736 6.99342 5.20761 8.60313C5.22352 8.66505 5.15193 8.74243 5.12011 8.81982C5.04851 8.77339 4.93714 8.7347 4.91327 8.66505C4.78599 8.30131 4.72235 7.91436 4.57121 7.56611C3.88707 5.97188 2.66995 5.02772 0.911884 4.74138C0.800513 4.7259 0.720963 4.57886 0.609593 4.48599C1.23009 4.28478 1.77898 4.16869 2.26424 3.94426C3.68024 3.28645 4.49961 2.15656 4.83372 0.678412C4.8735 0.492676 4.84963 0.206335 5.21556 0.330159C4.92918 2.15656 4.27687 3.03106 2.16878 4.37765C2.39152 4.37765 2.54267 4.37765 2.69382 4.37765C7.07705 4.37765 7.46936 4.37765 11.8605 4.38539C12.0276 4.38539 12.2981 4.28478 12.2265 4.69495Z" fill="white" stroke="white" stroke-width="0.6"/>
</svg>
