<svg width="607" height="1094" viewBox="0 0 607 1094" fill="none" xmlns="http://www.w3.org/2000/svg">
<path d="M103.234 668.047C100.613 681.638 94.1876 686.8 90.5194 677.917C82.9711 659.641 86.6997 584.403 91.8163 580.863C96.8573 577.375 108.706 639.688 103.234 668.047Z" stroke="white" stroke-opacity="0.07" stroke-miterlimit="10"/>
<path d="M120.024 634.372C125.033 603.329 89.3696 551.202 80.95 572.718C75.7726 585.947 76.4199 617.972 78.1213 644.087C79.7182 668.605 86.2485 703.636 97.0939 712.279C102.851 716.855 111.054 714.108 113.927 704.416C116.15 696.915 115.15 686.789 115.519 684.554C113.485 673.905 112.694 672.342 112.216 663.857C111.592 652.767 118.646 642.91 120.024 634.372Z" stroke="white" stroke-opacity="0.07" stroke-miterlimit="10"/>
<path d="M137.564 602.876C134.913 566.821 82.822 527.641 70.8342 566.752C63.1997 591.661 66.5707 635.085 70.6069 665.353C74.3145 693.156 86.6873 739.452 104.419 748.819C114.722 754.264 129.215 747.648 133.408 728.691C136.749 713.581 133.876 694.11 133.655 690.682C128.634 670.419 126.079 668.781 124.36 653.693C122.085 633.716 138.677 617.944 137.564 602.876Z" stroke="white" stroke-opacity="0.07" stroke-miterlimit="10"/>
<path d="M154.987 573.657C150.099 533.848 76.2 506.357 60.6031 563.063C50.5379 599.66 56.5757 654.498 62.9772 688.895C68.7665 720.011 86.9846 777.379 111.628 787.636C126.49 793.825 147.243 783.498 152.773 755.246C157.219 732.546 152.657 703.555 151.675 699.094C144.807 667.904 139.349 667.51 136.387 645.796C132.442 616.953 157.541 594.505 154.987 573.657Z" stroke="white" stroke-opacity="0.07" stroke-miterlimit="10"/>
<path d="M171.619 546.2C164.567 502.115 68.8606 486.908 49.5791 561.137C37.1353 609.473 45.7731 675.7 54.5531 714.196C62.4121 748.662 86.4743 817.028 118.047 828.23C137.454 835.115 164.473 821.124 171.351 783.575C176.896 753.271 170.391 714.989 168.908 709.275C158.472 669.071 151.805 668.031 147.622 639.698C142.005 601.981 175.839 572.589 171.619 546.2Z" stroke="white" stroke-opacity="0.07" stroke-miterlimit="10"/>
<path d="M189.708 813.136C196.351 775.242 187.914 727.693 185.92 720.689C171.938 671.579 164.091 669.763 158.647 634.82C151.388 588.224 194.041 551.712 188.041 520C178.824 471.289 61.1877 468.554 38.3454 560.467C23.4409 620.44 34.7499 698.185 45.921 740.757C55.8407 778.565 85.7465 857.88 124.254 870.053C148.205 877.62 181.494 859.989 189.708 813.136Z" stroke="white" stroke-opacity="0.07" stroke-miterlimit="10"/>
<path d="M201.828 403.086C201.886 418.012 213.809 435.913 215.8 422.526C216.951 414.794 215.13 394.324 211.889 386.283C207.328 374.96 201.787 392.814 201.828 403.086Z" stroke="white" stroke-opacity="0.07" stroke-miterlimit="10"/>
<path d="M214.129 443.651C215.729 442.191 216.44 435.351 218.388 429.11C222.343 416.45 224.221 414.634 226.606 405.642C227.538 402.136 228.762 397.418 228.202 392.811C227.343 385.758 223.625 383.998 217.076 375.046C208.567 363.439 206.367 359.044 201.858 362.36C200.81 363.133 197.414 364.133 195.343 369.723C192.48 377.464 194.692 386.537 192.796 397.882C190.523 411.506 186.478 418.26 188.266 424.172C189.525 428.337 192.973 428.491 198.978 431.611C203.552 433.986 206.554 435.479 209.002 438.368C211.917 441.833 212.351 445.277 214.129 443.651Z" stroke="white" stroke-opacity="0.07" stroke-miterlimit="10"/>
<path d="M210.795 466.466C213.631 466.213 215.004 456.54 219.102 448.569C227.51 432.221 233.518 439.794 239.66 426.69C242.267 421.13 244.793 412.405 244.304 403.661C243.608 391.25 237.704 387.082 225.733 367.977C210.082 343 207.017 332.36 198.676 334.692C196.976 335.17 190.448 335.634 186.52 345.395C181.28 358.413 186.047 374.017 182.109 394.399C177.715 417.172 168.321 425.683 170.265 433.362C171.615 438.695 177.052 436.653 187.655 440.751C195.191 443.653 199.595 445.446 203.203 451.247C207.753 458.567 207.715 466.739 210.795 466.466Z" stroke="white" stroke-opacity="0.07" stroke-miterlimit="10"/>
<path d="M207.497 489.307C211.562 490.294 213.606 477.768 219.854 468.053C232.718 448.05 242.772 465.296 252.751 447.764C257.02 440.26 260.84 427.389 260.441 414.535C259.89 396.72 251.844 390.137 234.425 360.909C211.665 322.482 207.657 305.933 195.529 307.019C193.164 307.233 183.521 307.134 177.727 321.06C170.117 339.359 177.447 361.527 171.455 390.907C164.939 422.852 150.202 433.091 152.296 442.559C153.744 449.056 161.162 444.895 176.364 449.899C186.862 453.354 192.648 455.436 197.436 464.135C203.606 475.347 203.118 488.25 207.497 489.307Z" stroke="white" stroke-opacity="0.07" stroke-miterlimit="10"/>
<path d="M204.206 512.198C209.495 514.412 212.218 499.071 220.612 487.589C237.939 463.973 252.001 490.928 265.848 468.885C271.772 459.463 276.887 442.414 276.587 425.457C276.175 402.224 265.962 393.331 243.124 353.904C213.215 302.149 208.276 279.626 192.388 279.426C189.358 279.386 176.609 278.735 168.943 296.81C158.97 320.412 168.859 349.1 160.807 387.497C152.179 428.622 132.084 440.588 134.332 451.807C135.875 459.473 145.281 453.189 165.079 459.098C178.541 463.115 185.701 465.474 191.676 477.071C199.457 492.185 198.518 509.816 204.206 512.198Z" stroke="white" stroke-opacity="0.07" stroke-miterlimit="10"/>
<path d="M200.919 535.132C193.919 531.425 195.313 509.072 185.919 490.06C178.757 475.561 170.225 472.926 153.798 468.346C129.404 461.546 118.009 469.942 116.374 461.109C113.97 448.123 139.424 434.433 150.162 384.123C160.277 336.727 147.807 301.459 160.161 272.593C169.687 250.339 185.542 251.576 189.252 251.866C208.894 253.399 214.77 281.861 251.827 346.946C280.083 396.576 292.462 407.768 292.736 436.433C292.938 457.489 286.524 478.726 278.948 490.06C261.221 516.6 243.144 479.884 221.373 507.168C210.823 520.39 207.431 538.583 200.919 535.132Z" stroke="white" stroke-opacity="0.07" stroke-miterlimit="10"/>
<path d="M88.2538 345.45C89.163 349.346 87.4115 357.524 84.6829 358.248C81.5873 359.068 79.0268 349.813 79.8223 345.746C80.7648 340.936 87.0511 340.281 88.2538 345.45Z" stroke="white" stroke-opacity="0.07" stroke-miterlimit="10"/>
<path d="M71.8071 334.474C74.6663 327.834 79.9132 324.933 88.907 321.612C97.8249 318.323 104.21 318.839 104.673 321.731C104.923 323.307 102.967 327.772 101.534 331.601C98.8584 338.77 99.1552 351.042 98.866 354.187C97.8055 365.702 95.8358 369.084 92.0631 373.897C90.3208 376.124 86.457 381.319 81.9114 383.606C75.0283 387.093 72.9073 402.724 70.1482 400.819C67.8452 399.217 67.2861 383.731 67.221 373.689C67.1268 359.299 67.3922 344.738 71.8071 334.474Z" stroke="white" stroke-opacity="0.07" stroke-miterlimit="10"/>
<path d="M64.1198 322.966C69.2288 312.052 77.803 307.759 93.8377 301.146C109.949 294.428 121.001 294.471 121.413 297.781C121.728 300.264 117.745 308.308 114.898 315.145C109.509 328.032 110.395 351.101 110.05 355.855C108.507 377.536 104.812 382.879 97.827 391.282C94.9181 394.782 87.8271 404.385 79.4528 408.762C66.6242 415.496 63.2651 447.425 58.5094 444.783C54.5487 442.576 53.9411 412.966 54.2669 394.335C54.7382 368.028 55.4836 341.406 64.1198 322.966Z" stroke="white" stroke-opacity="0.07" stroke-miterlimit="10"/>
<path d="M56.4828 311.519C63.8403 296.323 75.7478 290.687 98.819 280.744C122.129 270.648 137.822 270.177 138.213 273.895C138.576 277.3 132.576 288.917 128.308 298.741C120.192 317.312 121.684 351.209 121.293 357.576C119.335 389.415 113.861 396.749 103.649 408.718C99.5748 413.495 89.2554 427.501 77.0571 433.971C58.2815 443.943 53.6875 492.175 46.9331 488.803C41.3149 485.987 40.6347 442.246 41.3786 415.031C42.371 376.815 43.6165 338.092 56.4828 311.519Z" stroke="white" stroke-opacity="0.07" stroke-miterlimit="10"/>
<path d="M48.8527 300.111C58.4586 280.621 73.701 273.65 103.808 260.378C134.314 246.889 154.642 245.902 155.02 250.041C155.418 254.37 147.426 269.567 141.734 282.371C130.908 306.665 132.991 351.349 132.544 359.327C130.197 401.327 122.931 410.707 109.481 426.189C104.245 432.263 90.6933 450.65 74.6689 459.211C49.9481 472.43 44.1179 536.963 35.3649 532.85C28.0923 529.432 27.3665 471.562 28.4969 435.76C30.0529 385.65 31.7514 334.804 48.8527 300.111Z" stroke="white" stroke-opacity="0.07" stroke-miterlimit="10"/>
<path d="M143.798 361.093C141.071 413.248 131.98 424.589 115.314 443.671C108.906 451.007 92.1322 473.814 72.2838 484.466C41.6146 500.917 34.5495 581.761 23.7996 576.915C14.8604 572.888 14.1028 500.89 15.6179 456.502C17.7391 394.479 19.8876 331.519 41.2237 288.713C53.0796 264.93 71.652 256.626 108.799 240.021C146.501 223.167 171.462 221.663 171.828 226.204C172.253 231.468 162.283 250.22 155.162 266.012C141.629 296.03 144.3 351.499 143.798 361.093Z" stroke="white" stroke-opacity="0.07" stroke-miterlimit="10"/>
<path d="M216.676 785.173C206.221 779.251 211.132 736.744 187.585 686.145C179.148 668.014 170.322 655.857 168.949 631.861C168.811 629.439 167.601 605.399 174.707 588.433C183.646 567.087 196.047 580.115 213.342 555.204C219.714 546.028 217.864 544.501 222.888 537.767C244.335 509.026 266.107 552.861 287.887 527.568C297.913 515.925 300.214 498.616 301.523 500.262C307.14 507.361 244.847 801.176 216.676 785.173Z" stroke="white" stroke-opacity="0.07" stroke-miterlimit="10"/>
<path d="M183.242 625.277C183.333 623.823 182.787 607.972 187.811 597.099C194.155 583.35 202.89 593.15 214.682 577.398C219.024 571.601 217.847 570.795 221.282 566.669C235.939 549.068 250.685 580.658 265.033 565.189C271.675 558.03 273.198 546.729 273.847 548.41C276.804 556.013 233.112 749.948 214.1 734.715C206.97 729.003 209.5 697.824 194.143 662.148C188.563 649.176 182.297 640.392 183.242 625.277Z" stroke="white" stroke-opacity="0.07" stroke-miterlimit="10"/>
<path d="M197.535 618.696C198.016 618.281 198.005 610.531 200.916 605.766C204.691 599.581 209.722 606.167 216.02 599.595C218.332 597.183 217.838 597.084 219.676 595.571C227.581 589.073 235.253 608.484 242.181 602.808C245.441 600.154 245.997 595.218 246.171 596.535C245.542 606.154 221.335 698.524 211.525 684.275C207.691 678.712 207.875 658.798 200.701 638.17C197.973 630.33 195.977 625.197 197.535 618.696Z" stroke="white" stroke-opacity="0.07" stroke-miterlimit="10"/>
<path d="M211.828 612.119C218.7 617.225 221.036 637.327 218.495 644.69C214.744 655.547 209.859 646.286 208.95 633.833C208.275 624.525 203.965 606.276 211.828 612.119Z" stroke="white" stroke-opacity="0.07" stroke-miterlimit="10"/>
<g opacity="0.98" filter="url(#filter0_f_159_914)">
<circle cx="60" cy="547" r="143" fill="#F76729"/>
</g>
<defs>
<filter id="filter0_f_159_914" x="-487" y="0" width="1094" height="1094" filterUnits="userSpaceOnUse" color-interpolation-filters="sRGB">
<feFlood flood-opacity="0" result="BackgroundImageFix"/>
<feBlend mode="normal" in="SourceGraphic" in2="BackgroundImageFix" result="shape"/>
<feGaussianBlur stdDeviation="202" result="effect1_foregroundBlur_159_914"/>
</filter>
</defs>
</svg>
