<svg width="9" height="5" viewBox="0 0 9 5" fill="none" xmlns="http://www.w3.org/2000/svg">
<path d="M4.26724 4.61323C4.40382 4.61007 4.53436 4.55691 4.63358 4.46404L8.08154 1.19032C8.18676 1.08959 8.24731 0.951707 8.24991 0.806897C8.25252 0.662087 8.19697 0.522163 8.09544 0.417794C7.9939 0.313426 7.85467 0.253128 7.70826 0.250118C7.56186 0.247108 7.42021 0.301632 7.31438 0.401738L4.25 3.31312L1.18562 0.401737C1.07978 0.301632 0.938152 0.247108 0.791743 0.250118C0.645334 0.253128 0.506104 0.313426 0.404572 0.417794C0.303039 0.522162 0.247482 0.662087 0.250087 0.806897C0.252692 0.951707 0.313239 1.08959 0.418461 1.19032L3.86643 4.46404C3.91981 4.51407 3.98276 4.55305 4.0516 4.57867C4.12043 4.60429 4.19375 4.61604 4.26724 4.61323Z" fill="#F76729" stroke="#F76729" stroke-width="0.5"/>
</svg>
