<svg width="13" height="10" viewBox="0 0 13 10" fill="none" xmlns="http://www.w3.org/2000/svg">
<path opacity="0.2" d="M0.311615 4.5741C4.98919 4.5741 5.64401 4.5741 10.2977 4.5741C10.3057 4.55088 10.3136 4.52766 10.3136 4.50445C10.2022 4.45027 10.0909 4.3961 9.97951 4.33419C8.46805 3.53707 7.64072 2.27562 7.33048 0.66591C7.31457 0.603998 7.38616 0.526608 7.41798 0.449218C7.48958 0.495652 7.60095 0.534347 7.62481 0.603998C7.75209 0.96773 7.81573 1.35468 7.96688 1.70293C8.65101 3.29717 9.86814 4.24132 11.6262 4.52766C11.7376 4.54314 11.8171 4.69018 11.9285 4.78305C11.308 4.98426 10.7591 5.10035 10.2738 5.32478C8.85785 5.98259 8.03848 7.11249 7.70436 8.59063C7.66459 8.77637 7.68845 9.06271 7.32252 8.93889C7.6089 7.11248 8.26122 6.23798 10.3693 4.8914C10.1466 4.8914 9.99542 4.8914 9.84427 4.8914C5.46104 4.8914 5.06873 4.8914 0.677546 4.88366C0.51049 4.88366 0.24002 4.98426 0.311615 4.5741Z" fill="white" stroke="white" stroke-width="0.6"/>
</svg>
