<svg width="739" height="1094" viewBox="0 0 739 1094" fill="none" xmlns="http://www.w3.org/2000/svg">
<path d="M221.6 512.926C215.033 527.125 198.931 532.518 189.739 523.237C170.824 504.143 180.167 425.536 192.988 421.838C205.621 418.194 235.311 483.296 221.6 512.926Z" stroke="white" stroke-opacity="0.07" stroke-miterlimit="10"/>
<path d="M263.672 477.742C276.225 445.309 186.858 390.848 165.759 413.328C152.785 427.149 154.407 460.608 158.671 487.892C162.673 513.507 179.037 550.107 206.214 559.137C220.641 563.918 241.196 561.048 248.395 550.922C253.964 543.084 251.458 532.505 252.385 530.171C247.286 519.045 245.304 517.412 244.108 508.547C242.544 496.96 260.221 486.662 263.672 477.742Z" stroke="white" stroke-opacity="0.07" stroke-miterlimit="10"/>
<path d="M307.627 444.838C300.983 407.17 170.452 366.235 140.412 407.097C121.281 433.121 129.728 478.49 139.843 510.113C149.133 539.161 180.138 587.53 224.57 597.316C250.388 603.004 286.707 596.092 297.213 576.286C305.584 560.5 298.386 540.158 297.832 536.576C285.25 515.405 278.848 513.694 274.539 497.93C268.84 477.059 310.417 460.581 307.627 444.838Z" stroke="white" stroke-opacity="0.07" stroke-miterlimit="10"/>
<path d="M351.288 414.313C339.04 372.722 153.86 344 114.777 403.245C89.5546 441.481 104.684 498.773 120.726 534.71C135.233 567.22 180.885 627.156 242.638 637.872C279.88 644.338 331.883 633.549 345.741 604.032C356.881 580.316 345.45 550.027 342.989 545.366C325.779 512.78 312.102 512.368 304.681 489.682C294.793 459.547 357.689 436.094 351.288 414.313Z" stroke="white" stroke-opacity="0.07" stroke-miterlimit="10"/>
<path d="M392.966 385.625C375.296 339.567 135.469 323.679 87.1522 401.231C55.9699 451.731 77.6148 520.924 99.6164 561.143C119.31 597.151 179.606 668.578 258.722 680.282C307.354 687.476 375.061 672.858 392.294 633.628C406.19 601.968 389.891 561.972 386.174 556.001C360.022 513.997 343.317 512.911 332.834 483.31C318.759 443.904 403.541 413.196 392.966 385.625Z" stroke="white" stroke-opacity="0.07" stroke-miterlimit="10"/>
<path d="M438.292 664.512C454.941 624.922 433.797 575.243 428.8 567.926C393.764 516.617 374.101 514.72 360.459 478.212C342.269 429.531 449.15 391.384 434.115 358.252C411.02 307.36 116.24 304.503 59 400.531C21.6517 463.189 49.9904 544.415 77.9835 588.893C102.841 628.394 177.781 711.259 274.274 723.978C334.292 731.883 417.709 713.463 438.292 664.512Z" stroke="white" stroke-opacity="0.07" stroke-miterlimit="10"/>
<path d="M468.665 236.102C468.809 251.697 498.685 270.399 503.675 256.413C506.56 248.335 501.996 226.948 493.875 218.547C482.447 206.717 468.562 225.37 468.665 236.102Z" stroke="white" stroke-opacity="0.07" stroke-miterlimit="10"/>
<path d="M499.489 278.483C503.499 276.958 505.28 269.811 510.162 263.291C520.072 250.065 524.78 248.167 530.756 238.773C533.091 235.109 536.158 230.18 534.753 225.367C532.601 217.999 523.284 216.159 506.874 206.806C485.552 194.68 480.039 190.088 468.74 193.552C466.113 194.36 457.604 195.405 452.415 201.245C445.239 209.333 450.782 218.813 446.032 230.665C440.337 244.899 430.2 251.955 434.68 258.132C437.835 262.483 446.476 262.645 461.523 265.904C472.985 268.385 480.507 269.945 486.642 272.964C493.946 276.583 495.033 280.182 499.489 278.483Z" stroke="white" stroke-opacity="0.07" stroke-miterlimit="10"/>
<path d="M491.133 302.321C498.241 302.056 501.681 291.951 511.95 283.623C533.019 266.542 548.072 274.455 563.465 260.764C569.998 254.955 576.328 245.84 575.101 236.704C573.359 223.738 558.563 219.383 528.565 199.423C489.345 173.327 481.664 162.211 460.763 164.648C456.504 165.147 440.147 165.632 430.302 175.829C417.173 189.431 429.117 205.734 419.249 227.028C408.239 250.82 384.699 259.712 389.571 267.735C392.953 273.307 406.576 271.173 433.146 275.455C452.031 278.487 463.068 280.36 472.108 286.42C483.509 294.068 483.414 302.606 491.133 302.321Z" stroke="white" stroke-opacity="0.07" stroke-miterlimit="10"/>
<path d="M482.869 326.185C493.055 327.216 498.177 314.13 513.835 303.98C546.069 283.082 571.264 301.1 596.269 282.782C606.968 274.942 616.539 261.495 615.541 248.066C614.159 229.453 593.998 222.575 550.348 192.038C493.313 151.891 483.272 134.602 452.879 135.736C446.952 135.959 422.789 135.856 408.271 150.406C389.2 169.524 407.568 192.685 392.552 223.379C376.226 256.755 339.297 267.452 344.543 277.345C348.173 284.133 366.761 279.785 404.854 285.013C431.162 288.622 445.661 290.798 457.659 299.886C473.119 311.6 471.896 325.081 482.869 326.185Z" stroke="white" stroke-opacity="0.07" stroke-miterlimit="10"/>
<path d="M474.626 350.101C487.88 352.414 494.703 336.385 515.736 324.39C559.156 299.717 594.393 327.879 629.091 304.849C643.936 295.004 656.754 277.192 656.003 259.476C654.969 235.203 629.376 225.911 572.147 184.72C497.201 130.648 484.823 107.116 445.011 106.907C437.418 106.865 405.472 106.185 386.261 125.069C361.271 149.728 386.052 179.701 365.873 219.817C344.254 262.783 293.898 275.285 299.532 287.006C303.398 295.014 326.967 288.45 376.579 294.623C410.313 298.82 428.256 301.285 443.227 313.4C462.726 329.192 460.373 347.612 474.626 350.101Z" stroke="white" stroke-opacity="0.07" stroke-miterlimit="10"/>
<path d="M466.387 374.062C448.846 370.188 452.338 346.835 428.8 326.972C410.853 311.823 389.473 309.07 348.309 304.285C287.182 297.181 258.627 305.952 254.53 296.724C248.505 283.157 312.289 268.854 339.196 216.291C364.543 166.774 333.297 129.926 364.255 99.7678C388.125 76.5181 427.854 77.8106 437.152 78.113C486.373 79.7148 501.096 109.451 593.956 177.45C664.762 229.302 695.78 240.995 696.468 270.944C696.973 292.942 680.902 315.129 661.918 326.972C617.496 354.7 572.197 316.339 517.642 344.845C491.206 358.659 482.705 377.667 466.387 374.062Z" stroke="white" stroke-opacity="0.07" stroke-miterlimit="10"/>
<path d="M184.062 175.885C186.34 179.955 181.951 188.499 175.114 189.256C167.356 190.112 160.94 180.443 162.934 176.194C165.295 171.169 181.048 170.485 184.062 175.885Z" stroke="white" stroke-opacity="0.07" stroke-miterlimit="10"/>
<path d="M142.849 164.416C150.014 157.479 163.162 154.448 185.699 150.979C208.046 147.543 224.046 148.082 225.208 151.103C225.834 152.75 220.932 157.415 217.341 161.415C210.636 168.905 211.38 181.726 210.655 185.012C207.998 197.043 203.062 200.576 193.608 205.605C189.242 207.932 179.56 213.359 168.169 215.748C150.921 219.391 145.606 235.722 138.692 233.732C132.921 232.058 131.52 215.879 131.357 205.388C131.121 190.353 131.786 175.14 142.849 164.416Z" stroke="white" stroke-opacity="0.07" stroke-miterlimit="10"/>
<path d="M123.588 152.394C136.391 140.992 157.876 136.507 198.057 129.598C238.431 122.579 266.125 122.624 267.157 126.081C267.947 128.677 257.965 137.081 250.831 144.223C237.327 157.687 239.547 181.789 238.682 186.756C234.816 209.407 225.557 214.99 208.054 223.769C200.764 227.425 182.995 237.459 162.01 242.031C129.864 249.067 121.446 282.426 109.529 279.666C99.6042 277.359 98.0818 246.424 98.8981 226.959C100.079 199.474 101.947 171.66 123.588 152.394Z" stroke="white" stroke-opacity="0.07" stroke-miterlimit="10"/>
<path d="M104.452 140.435C122.889 124.559 152.728 118.671 210.541 108.283C268.953 97.7344 308.276 97.2428 309.255 101.127C310.166 104.684 295.132 116.822 284.436 127.085C264.097 146.488 267.836 181.903 266.857 188.554C261.952 221.82 248.234 229.482 222.644 241.986C212.435 246.978 186.576 261.61 156.008 268.37C108.96 278.789 97.4477 329.179 80.5219 325.656C66.4437 322.714 64.7391 277.015 66.6032 248.582C69.0901 208.655 72.211 168.198 104.452 140.435Z" stroke="white" stroke-opacity="0.07" stroke-miterlimit="10"/>
<path d="M85.3287 128.519C109.4 108.157 147.595 100.874 223.04 87.0076C299.482 72.9148 350.423 71.8836 351.369 76.2077C352.366 80.7312 332.339 96.6079 318.075 109.986C290.947 135.367 296.168 182.051 295.048 190.387C289.167 234.267 270.958 244.067 237.254 260.242C224.133 266.588 190.175 285.799 150.02 294.742C88.0737 308.554 73.4639 375.976 51.5303 371.678C33.306 368.107 31.4874 307.646 34.3198 270.242C38.219 217.888 42.4751 164.766 85.3287 128.519Z" stroke="white" stroke-opacity="0.07" stroke-miterlimit="10"/>
<path d="M323.25 192.231C316.416 246.721 293.636 258.569 251.872 278.505C235.816 286.17 193.782 309.998 144.045 321.128C67.1923 338.315 49.4884 422.778 22.5507 417.715C0.15007 413.508 -1.74833 338.287 2.04839 291.911C7.36378 227.112 12.7475 161.333 66.2129 116.61C95.9222 91.7623 142.462 83.0866 235.546 65.7387C330.024 48.1296 392.571 46.5588 393.49 51.3022C394.553 56.8018 369.57 76.3943 351.726 92.8932C317.814 124.255 324.507 182.207 323.25 192.231Z" stroke="white" stroke-opacity="0.07" stroke-miterlimit="10"/>
<path d="M505.871 635.297C479.674 629.11 491.979 584.7 432.974 531.835C411.831 512.893 389.715 500.191 386.275 475.121C385.93 472.59 382.896 447.474 400.703 429.748C423.103 407.447 454.179 421.058 497.518 395.032C513.484 385.445 508.848 383.85 521.439 376.814C575.18 346.786 629.74 392.584 684.317 366.159C709.44 353.994 715.207 335.911 718.488 337.63C732.562 345.047 576.464 652.016 505.871 635.297Z" stroke="white" stroke-opacity="0.07" stroke-miterlimit="10"/>
<path d="M422.09 468.242C422.318 466.722 420.951 450.162 433.54 438.801C449.437 424.437 471.325 434.676 500.875 418.219C511.757 412.163 508.806 411.321 517.414 407.01C554.143 388.621 591.092 421.625 627.047 405.463C643.692 397.984 647.509 386.177 649.134 387.934C656.544 395.877 547.058 598.494 499.417 582.579C481.55 576.612 487.89 544.037 449.407 506.763C435.424 493.21 419.724 484.033 422.09 468.242Z" stroke="white" stroke-opacity="0.07" stroke-miterlimit="10"/>
<path d="M457.908 461.366C459.112 460.932 459.086 452.835 466.379 447.857C475.84 441.395 488.445 448.276 504.228 441.409C510.022 438.89 508.784 438.787 513.39 437.205C533.197 430.416 552.424 450.697 569.782 444.767C577.953 441.994 579.346 436.837 579.783 438.212C578.207 448.263 517.547 544.768 492.964 529.881C483.358 524.069 483.817 503.263 465.84 481.711C459.005 473.52 454.002 468.158 457.908 461.366Z" stroke="white" stroke-opacity="0.07" stroke-miterlimit="10"/>
<path d="M493.722 454.494C510.941 459.828 516.795 480.83 510.428 488.523C501.028 499.866 488.787 490.19 486.509 477.18C484.819 467.456 474.018 448.389 493.722 454.494Z" stroke="white" stroke-opacity="0.07" stroke-miterlimit="10"/>
<g opacity="0.98" filter="url(#filter0_f_176_916)">
<circle cx="562.5" cy="547" r="143" fill="#F76729"/>
</g>
<defs>
<filter id="filter0_f_176_916" x="15.5" y="0" width="1094" height="1094" filterUnits="userSpaceOnUse" color-interpolation-filters="sRGB">
<feFlood flood-opacity="0" result="BackgroundImageFix"/>
<feBlend mode="normal" in="SourceGraphic" in2="BackgroundImageFix" result="shape"/>
<feGaussianBlur stdDeviation="202" result="effect1_foregroundBlur_176_916"/>
</filter>
</defs>
</svg>
