<svg width="31" height="30" viewBox="0 0 31 30" fill="none" xmlns="http://www.w3.org/2000/svg">
<path d="M14.3887 1.69092C14.6881 0.769678 15.9917 0.769631 16.291 1.69092L18.541 8.61572C18.9426 9.85169 20.094 10.6888 21.3936 10.689H28.6748C29.6435 10.689 30.0464 11.9282 29.2627 12.4976L23.3721 16.7778C22.3209 17.5417 21.8808 18.8955 22.2822 20.1313L24.5322 27.0562C24.8316 27.9775 23.7769 28.7437 22.9932 28.1743L17.1025 23.895C16.0511 23.1312 14.6276 23.1311 13.5762 23.895L7.68555 28.1743C6.90183 28.7437 5.84713 27.9775 6.14648 27.0562L8.39648 20.1313C8.79799 18.8953 8.35804 17.5417 7.30664 16.7778L1.41602 12.4976C0.632766 11.9281 1.03545 10.6891 2.00391 10.689H9.28516C10.5848 10.689 11.737 9.85179 12.1387 8.61572L14.3887 1.69092Z" fill="#090808" stroke="#F76729" stroke-width="2"/>
</svg>
