<svg width="25" height="25" viewBox="0 0 25 25" fill="none" xmlns="http://www.w3.org/2000/svg">
<path d="M11.1806 0.653154C11.5028 -0.217464 12.7342 -0.21746 13.0563 0.653158L15.7402 7.90614C15.8415 8.17986 16.0573 8.39567 16.331 8.49695L23.584 11.1808C24.4546 11.503 24.4546 12.7343 23.584 13.0565L16.331 15.7403C16.0573 15.8416 15.8415 16.0574 15.7402 16.3312L13.0563 23.5842C12.7342 24.4548 11.5028 24.4548 11.1806 23.5841L8.49677 16.3312C8.39549 16.0574 8.17968 15.8416 7.90596 15.7403L0.652971 13.0565C-0.217647 12.7343 -0.217643 11.503 0.652975 11.1808L7.90596 8.49695C8.17968 8.39567 8.39549 8.17986 8.49677 7.90614L11.1806 0.653154Z" fill="#FDAB4D"/>
</svg>
