<svg width="309" height="50" viewBox="0 0 309 50" fill="none" xmlns="http://www.w3.org/2000/svg">
<path d="M41.7238 13.1664C41.4833 12.5953 41.4833 12.0843 41.7238 11.6634C41.9642 11.2426 42.4452 11.0322 43.2268 11.0322H48.6376C48.9984 11.0322 49.299 11.1524 49.5395 11.3628C49.7799 11.6033 49.9603 11.8738 50.0505 12.2045L56.2429 29.8199L62.3151 12.2045C62.4654 11.7235 62.6758 11.4229 62.9163 11.2726C63.1568 11.1223 63.5175 11.0322 63.9384 11.0322H69.5596C69.9805 11.0322 70.2811 11.0923 70.5216 11.2125C70.7621 11.3327 70.9124 11.453 71.0025 11.6634C71.0927 11.8438 71.1228 12.0542 71.0927 12.2646C71.0627 12.5051 71.0025 12.7155 70.9124 12.9259C70.3713 14.3087 69.74 15.7817 69.1087 17.4049C68.4474 19.0282 67.7861 20.7116 67.0646 22.4851C66.3432 24.2286 65.6518 26.0323 64.9003 27.8359C64.1788 29.6395 63.4574 31.4431 62.766 33.1866C62.0746 34.9301 61.4133 36.6135 60.752 38.2368C60.1207 39.86 59.5195 41.333 58.9784 42.6857C58.4373 44.0384 57.9864 45.2108 57.5956 46.2328C57.2048 47.2549 56.9042 48.0364 56.6938 48.6076L56.7539 48.4873C56.6638 48.8781 56.4834 49.2088 56.2128 49.4493C55.9423 49.6898 55.6417 49.81 55.2509 49.81H50.2308C49.5695 49.81 49.1186 49.6898 48.8781 49.4192C48.6376 49.1787 48.5174 48.788 48.5174 48.307C48.5174 48.1266 48.5475 47.9763 48.6076 47.8561C48.6677 47.7659 48.6978 47.6757 48.7278 47.6457L52.1547 38.7177L41.7238 13.1664Z" fill="#FFA559"/>
<path d="M97.7262 19.2987C96.9747 17.5552 95.9526 16.0522 94.66 14.7596C93.3674 13.467 91.8644 12.445 90.1209 11.7235C88.3774 11.0021 86.5137 10.6113 84.5297 10.6113C83.177 10.6113 81.9144 10.7917 80.682 11.1223C79.4495 11.453 78.3072 11.934 77.225 12.5352C76.1729 13.1364 75.1809 13.8879 74.3392 14.7596C73.4675 15.6314 72.716 16.5933 72.1148 17.6454C71.4835 18.6975 71.0025 19.8398 70.6719 21.1024C70.3412 22.3348 70.1608 23.6274 70.1608 24.9801C70.1608 26.3329 70.3412 27.5954 70.6719 28.8279C71.0025 30.0603 71.4835 31.2026 72.1148 32.2848C72.746 33.3369 73.4675 34.2989 74.3392 35.1706C75.211 36.0424 76.1729 36.7939 77.225 37.3951C78.2771 38.0263 79.4495 38.4772 80.682 38.838C81.9144 39.1686 83.207 39.349 84.5297 39.349C85.8524 39.349 87.1149 39.1686 88.3474 38.838C89.5498 38.5073 90.6921 38.0263 91.7742 37.3951C92.8264 36.7638 93.7883 36.0424 94.66 35.1706C95.5318 34.2989 96.2833 33.3369 96.8845 32.2848C97.5158 31.2327 97.9967 30.0603 98.3274 28.8279C98.6581 27.5954 98.8384 26.3028 98.8384 24.9801C98.8384 22.936 98.4777 21.0422 97.7262 19.2987ZM90.2111 27.6555C89.9406 28.4972 89.5197 29.2187 88.9786 29.8199C88.4375 30.4211 87.8063 30.902 87.0247 31.2628C86.2732 31.6235 85.4014 31.8038 84.4395 31.8038C83.4475 31.8038 82.5758 31.6235 81.7942 31.2628C81.0126 30.902 80.3513 30.4211 79.8102 29.8199C79.2691 29.2187 78.8483 28.4972 78.5477 27.6555C78.2471 26.8138 78.0968 25.912 78.0968 24.9501C78.0968 24.0182 78.2471 23.1164 78.5477 22.2747C78.8483 21.433 79.2691 20.6815 79.8102 20.0503C80.3513 19.419 81.0126 18.908 81.7942 18.5172C82.5758 18.1565 83.4475 17.946 84.4395 17.946C85.4014 17.946 86.2431 18.1264 87.0247 18.5172C87.7762 18.8779 88.4375 19.3889 88.9786 20.0503C89.5197 20.6815 89.9105 21.433 90.2111 22.2747C90.4816 23.1164 90.6319 24.0182 90.6319 24.9501C90.6319 25.912 90.4816 26.8138 90.2111 27.6555Z" fill="#FFA559"/>
<path d="M126.795 38.4472C126.614 38.5975 126.404 38.7177 126.193 38.7478C125.983 38.7778 125.773 38.8079 125.592 38.8079H122.286C122.015 38.8079 121.805 38.7478 121.594 38.6576C121.414 38.5674 121.233 38.4472 121.113 38.2668C120.993 38.1165 120.873 37.9362 120.782 37.7257C120.692 37.5153 120.632 37.3049 120.572 37.0945L120.121 34.9602C119.911 35.4111 119.55 35.8921 119.039 36.4031C118.528 36.9141 117.897 37.365 117.145 37.7859C116.394 38.2067 115.522 38.5674 114.56 38.838C113.568 39.1085 112.516 39.2588 111.374 39.2588C109.72 39.2588 108.247 38.9281 106.955 38.2969C105.662 37.6656 104.58 36.7939 103.708 35.6816C102.836 34.5694 102.145 33.2768 101.694 31.8038C101.243 30.3309 101.003 28.7377 101.003 27.0844V12.7756C101.003 12.2346 101.123 11.8137 101.364 11.5131C101.604 11.2426 101.995 11.0923 102.506 11.0923H107.556C108.187 11.0923 108.608 11.1824 108.849 11.4229C109.089 11.6334 109.209 12.0542 109.209 12.6554V26.904C109.209 27.5353 109.329 28.1365 109.57 28.6776C109.81 29.2487 110.141 29.7297 110.532 30.1806C110.923 30.6014 111.404 30.9622 111.975 31.2026C112.516 31.4431 113.117 31.5634 113.718 31.5634C114.229 31.5634 114.8 31.4732 115.432 31.2928C116.033 31.1125 116.604 30.8419 117.145 30.4812C117.656 30.1205 118.107 29.6395 118.468 29.0383C118.829 28.4672 118.979 27.7457 118.979 26.9341V12.7155C118.979 12.475 119.039 12.2346 119.129 11.964C119.219 11.7235 119.37 11.5131 119.55 11.3929C119.73 11.2726 119.911 11.1825 120.091 11.1524C120.271 11.1223 120.452 11.0923 120.662 11.0923H125.592C126.223 11.0923 126.674 11.2426 126.945 11.5432C127.215 11.8438 127.366 12.2646 127.366 12.7756V37.2448C127.366 37.5153 127.306 37.7859 127.185 37.9963C127.065 38.2368 126.885 38.4171 126.674 38.5374L126.795 38.4472Z" fill="#FFA559"/>
<path d="M130.432 12.6855C130.432 12.4149 130.492 12.1744 130.582 11.964C130.672 11.7536 130.823 11.6033 130.973 11.453C131.123 11.3027 131.334 11.2125 131.544 11.1524C131.755 11.0923 131.965 11.0622 132.175 11.0622H135.482C135.843 11.0622 136.143 11.1824 136.354 11.3929C136.564 11.6033 136.745 11.9039 136.925 12.2346C137.075 12.5652 137.225 12.956 137.316 13.3468C137.436 13.7676 137.556 14.1584 137.737 14.5191C138.187 14.0382 138.608 13.5572 139.029 13.1063C139.45 12.6253 139.931 12.2346 140.412 11.8738C140.923 11.5131 141.464 11.2125 142.035 10.972C142.636 10.7616 143.298 10.6414 144.049 10.6414C144.831 10.6414 145.552 10.7015 146.153 10.8217C146.785 10.942 147.356 11.1223 147.927 11.3328C148.468 11.5732 149.039 11.8438 149.58 12.2045C150.121 12.5652 150.723 12.956 151.354 13.437C151.985 13.7977 152.286 14.2185 152.286 14.7296C152.286 15.0602 152.165 15.421 151.925 15.8418L149.941 19.2386C149.55 19.8098 149.069 20.0803 148.468 20.0803C148.167 20.0803 147.837 19.9901 147.476 19.8398C146.845 19.2386 146.214 18.7577 145.552 18.4871C144.891 18.1865 144.169 18.0362 143.328 18.0362C142.757 18.0362 142.246 18.1264 141.825 18.2767C141.404 18.427 141.013 18.6675 140.652 18.9681C140.292 19.2687 139.961 19.5993 139.66 20.0202C139.36 20.441 139.059 20.8919 138.729 21.3729V37.2147C138.729 37.7558 138.578 38.1766 138.338 38.4772C138.067 38.7478 137.616 38.8981 136.985 38.8981H132.055C130.913 38.8981 130.342 38.3269 130.342 37.2147V12.6855H130.432Z" fill="#FFA559"/>
<path d="M181.715 19.2987C181.023 17.5552 180.092 16.0522 178.889 14.7596C177.687 13.467 176.244 12.445 174.59 11.7235C172.907 11.0021 171.103 10.6113 169.12 10.6113C168.308 10.6113 167.586 10.7015 166.925 10.8217C166.264 10.972 165.663 11.1824 165.121 11.4229C164.58 11.6634 164.069 11.9941 163.588 12.3548C163.107 12.7155 162.687 13.1063 162.266 13.5572V4.44893C162.266 3.96796 162.115 3.57718 161.785 3.27658C161.454 2.94591 161.033 2.79561 160.462 2.79561H155.502C155.322 2.79561 155.111 2.82568 154.931 2.91586C154.721 3.00604 154.57 3.09621 154.42 3.24651C154.27 3.39682 154.149 3.57718 154.059 3.75754C153.969 3.96797 153.909 4.17838 153.909 4.44893V37.1245C153.909 38.2368 154.48 38.8079 155.652 38.8079H159.981C160.252 38.8079 160.492 38.7779 160.642 38.6877C160.793 38.6276 160.943 38.5073 161.033 38.357C161.154 38.2067 161.244 38.0564 161.334 37.846C161.424 37.6356 161.544 37.3951 161.665 37.1245L162.055 36.0724C162.446 36.4632 162.897 36.854 163.408 37.2448C163.919 37.6356 164.46 37.9662 165.061 38.2969C165.663 38.5975 166.294 38.838 166.985 39.0484C167.677 39.2288 168.368 39.3189 169.12 39.3189C171.103 39.3189 172.937 38.9582 174.59 38.2067C176.274 37.4552 177.687 36.4331 178.889 35.1706C180.092 33.878 181.023 32.375 181.715 30.6014C182.406 28.8579 182.737 26.9641 182.737 24.9501C182.737 22.936 182.406 21.0422 181.715 19.2987ZM174.41 27.6555C174.11 28.4972 173.689 29.2187 173.118 29.8199C172.576 30.4211 171.885 30.902 171.134 31.2628C170.352 31.6235 169.48 31.8038 168.518 31.8038C167.586 31.8038 166.715 31.6235 165.903 31.2928C165.091 30.9622 164.37 30.4812 163.769 29.91C163.168 29.3088 162.657 28.6175 162.296 27.8058C161.935 26.9942 161.725 26.1525 161.665 25.2206V24.92C161.665 23.9882 161.845 23.0863 162.206 22.2447C162.566 21.403 163.047 20.6515 163.649 20.0202C164.25 19.3889 164.971 18.8779 165.813 18.4871C166.655 18.1264 167.556 17.916 168.518 17.916C169.48 17.916 170.352 18.0963 171.134 18.4871C171.915 18.8478 172.576 19.3589 173.118 20.0202C173.659 20.6515 174.11 21.403 174.41 22.2447C174.711 23.0863 174.861 23.9882 174.861 24.92C174.861 25.912 174.711 26.8138 174.41 27.6555Z" fill="white"/>
<path d="M184.961 12.6855C184.961 12.4149 185.021 12.1744 185.112 11.964C185.202 11.7536 185.352 11.6033 185.502 11.453C185.683 11.3328 185.863 11.2125 186.074 11.1524C186.284 11.0923 186.494 11.0622 186.705 11.0622H190.011C190.372 11.0622 190.673 11.1824 190.883 11.3929C191.094 11.6033 191.274 11.9039 191.454 12.2346C191.605 12.5652 191.755 12.956 191.845 13.3468C191.965 13.7676 192.086 14.1584 192.266 14.5191C192.717 14.0382 193.138 13.5572 193.559 13.1063C193.979 12.6253 194.46 12.2346 194.941 11.8738C195.452 11.5131 195.993 11.2125 196.565 10.972C197.166 10.7616 197.827 10.6414 198.579 10.6414C199.36 10.6414 200.082 10.7015 200.683 10.8217C201.314 10.942 201.885 11.1223 202.456 11.3328C202.998 11.5732 203.569 11.8438 204.11 12.2045C204.651 12.5652 205.252 12.956 205.883 13.437C206.515 13.7977 206.815 14.2185 206.815 14.7296C206.815 15.0602 206.695 15.421 206.454 15.8418L204.47 19.2386C204.08 19.8098 203.599 20.0803 202.998 20.0803C202.697 20.0803 202.366 19.9901 202.006 19.8398C201.374 19.2386 200.743 18.7577 200.082 18.4871C199.42 18.1865 198.699 18.0362 197.857 18.0362C197.286 18.0362 196.775 18.1264 196.354 18.2767C195.933 18.427 195.543 18.6675 195.182 18.9681C194.821 19.2687 194.49 19.5993 194.19 20.0202C193.889 20.441 193.589 20.8919 193.258 21.3729V37.2147C193.258 37.7558 193.108 38.1766 192.867 38.4772C192.597 38.7478 192.146 38.8981 191.514 38.8981H186.585C185.442 38.8981 184.871 38.3269 184.871 37.2147V12.6855H184.961Z" fill="white"/>
<path d="M235.733 11.8738C235.643 11.6634 235.493 11.4831 235.282 11.3328C235.132 11.1825 234.922 11.0622 234.711 11.0322C234.501 11.0021 234.29 10.972 234.14 10.972H230.894C230.593 10.972 230.382 11.0021 230.202 11.0322C230.052 11.0622 229.902 11.1524 229.811 11.2426C229.691 11.3628 229.601 11.5131 229.511 11.7536C229.421 11.9941 229.3 12.2646 229.15 12.6554L228.519 14.6394C228.128 14.0682 227.677 13.5572 227.136 13.0462C226.595 12.5352 226.024 12.1444 225.362 11.7837C224.701 11.4229 224.01 11.1524 223.228 10.942C222.447 10.7315 221.605 10.6414 220.703 10.6414C218.719 10.6414 216.855 11.0021 215.112 11.7536C213.368 12.5051 211.865 13.4971 210.573 14.7897C209.28 16.0823 208.288 17.5853 207.537 19.3288C206.785 21.0723 206.424 22.9661 206.424 24.9802C206.424 26.3329 206.605 27.5954 206.935 28.8279C207.266 30.0603 207.747 31.2026 208.378 32.2848C209.01 33.3369 209.731 34.2989 210.603 35.1706C211.475 36.0424 212.406 36.7939 213.489 37.3951C214.541 38.0263 215.683 38.4772 216.885 38.838C218.118 39.1686 219.38 39.349 220.703 39.349C221.455 39.349 222.176 39.2588 222.867 39.0785C223.559 38.8981 224.22 38.6576 224.821 38.357C225.423 38.0564 225.994 37.7257 226.475 37.335C226.986 36.9442 227.437 36.5834 227.827 36.1626L228.098 37.1546C228.188 37.3951 228.278 37.6356 228.338 37.846C228.429 38.0564 228.519 38.2368 228.639 38.3871C228.759 38.5374 228.91 38.6576 229.09 38.7177C229.27 38.8079 229.541 38.838 229.841 38.838H234.14C234.29 38.838 234.501 38.8079 234.711 38.7778C234.922 38.7478 235.132 38.6275 235.282 38.4772C235.493 38.357 235.643 38.1766 235.733 37.9362C235.823 37.6957 235.853 37.4853 235.853 37.2147V12.5652C235.853 12.2947 235.823 12.0542 235.733 11.8738ZM227.016 27.6555C226.655 28.4972 226.174 29.2187 225.573 29.8199C224.942 30.4211 224.22 30.902 223.378 31.2628C222.537 31.6235 221.635 31.8038 220.643 31.8038C219.681 31.8038 218.839 31.6235 218.058 31.2628C217.276 30.902 216.615 30.4211 216.044 29.8199C215.503 29.2187 215.052 28.4671 214.751 27.6555C214.45 26.8138 214.3 25.912 214.3 24.9501C214.3 24.0182 214.45 23.1164 214.751 22.2747C215.052 21.433 215.473 20.6815 216.044 20.0503C216.585 19.419 217.276 18.908 218.058 18.5172C218.839 18.1565 219.711 17.946 220.643 17.946C221.605 17.946 222.537 18.1264 223.378 18.5172C224.22 18.8779 224.942 19.3889 225.573 20.0503C226.204 20.6815 226.685 21.433 227.016 22.2747C227.376 23.1164 227.527 24.0182 227.527 24.9501C227.527 25.912 227.346 26.8138 227.016 27.6555Z" fill="white"/>
<path d="M239.491 11.453C239.671 11.3027 239.882 11.1825 240.092 11.1524C240.302 11.1223 240.513 11.0923 240.693 11.0923H244C244.27 11.0923 244.481 11.1524 244.691 11.2426C244.872 11.3327 245.052 11.453 245.172 11.6334C245.292 11.7837 245.413 11.964 245.503 12.1744C245.593 12.3849 245.653 12.5953 245.743 12.8057L246.194 14.7296C246.405 14.2787 246.765 13.8278 247.246 13.3468C247.727 12.8658 248.329 12.445 249.05 12.0542C249.771 11.6634 250.613 11.3327 251.545 11.0923C252.477 10.8518 253.559 10.7015 254.701 10.7015C256.355 10.7015 257.858 11.0321 259.15 11.6634C260.443 12.2947 261.555 13.1664 262.487 14.2787C263.389 15.3909 264.08 16.6835 264.561 18.1564C265.042 19.6294 265.283 21.2226 265.283 22.8759V37.1847C265.283 37.7257 265.162 38.1466 264.922 38.4472C264.681 38.7177 264.291 38.868 263.78 38.868H258.729C258.098 38.868 257.677 38.7779 257.437 38.5374C257.196 38.3269 257.076 37.9061 257.076 37.3049V23.0563C257.076 22.425 256.926 21.8238 256.655 21.2827C256.385 20.7116 255.994 20.2306 255.513 19.8098C255.062 19.3889 254.521 19.0282 253.92 18.7877C253.319 18.5472 252.717 18.427 252.116 18.427C251.605 18.427 251.064 18.5472 250.523 18.7877C249.982 19.0282 249.471 19.3589 249.02 19.7497C248.569 20.1705 248.178 20.6515 247.848 21.2226C247.547 21.7938 247.367 22.395 247.306 23.0563V37.2748C247.306 37.5153 247.246 37.7558 247.156 38.0263C247.066 38.2668 246.916 38.4772 246.735 38.5975C246.555 38.7177 246.375 38.8079 246.194 38.838C246.014 38.868 245.833 38.8981 245.623 38.8981H240.693C240.062 38.8981 239.611 38.7478 239.34 38.4472C239.07 38.1466 238.92 37.7257 238.92 37.2147V12.7456C238.92 12.475 238.98 12.2045 239.1 11.9941C239.22 11.7536 239.401 11.5732 239.611 11.453H239.491Z" fill="white"/>
<path d="M296.155 3.75754C296.034 3.54712 295.914 3.36676 295.734 3.24651C295.553 3.09621 295.373 2.97598 295.163 2.91586C294.952 2.82568 294.742 2.79561 294.561 2.79561H289.631C289.06 2.79561 288.639 2.94591 288.339 3.27658C288.068 3.60724 287.918 3.99802 287.918 4.44893V13.5572C287.497 13.1063 287.076 12.7155 286.625 12.3548C286.175 11.9941 285.663 11.6634 285.122 11.4229C284.581 11.1524 283.98 10.972 283.319 10.8217C282.657 10.6714 281.936 10.6113 281.124 10.6113C279.14 10.6113 277.307 10.972 275.653 11.7235C273.97 12.475 272.557 13.467 271.355 14.7596C270.152 16.0522 269.22 17.5552 268.529 19.2987C267.838 21.0422 267.507 22.936 267.507 24.9501C267.507 26.9641 267.838 28.8279 268.529 30.6014C269.22 32.3449 270.152 33.878 271.355 35.1706C272.557 36.4632 274 37.4853 275.653 38.2067C277.337 38.9582 279.14 39.3189 281.124 39.3189C281.876 39.3189 282.597 39.2288 283.289 39.0484C283.98 38.868 284.611 38.5975 285.183 38.2969C285.784 37.9963 286.325 37.6356 286.836 37.2448C287.347 36.854 287.798 36.4632 288.189 36.0724L288.609 37.1245C288.73 37.3951 288.85 37.6356 288.94 37.846C289.03 38.0564 289.12 38.2368 289.241 38.357C289.361 38.5073 289.481 38.5975 289.631 38.6877C289.782 38.7478 290.022 38.8079 290.323 38.8079H294.621C295.794 38.8079 296.395 38.2368 296.395 37.1245V4.44893C296.305 4.20844 296.245 3.96797 296.155 3.75754ZM288.549 25.2808C288.519 26.2126 288.309 27.0543 287.918 27.8659C287.557 28.6776 287.046 29.369 286.445 29.9401C285.844 30.5413 285.122 30.9922 284.281 31.3229C283.469 31.6535 282.567 31.8339 281.635 31.8339C280.673 31.8339 279.832 31.6535 279.05 31.2928C278.269 30.9321 277.607 30.4511 277.036 29.8499C276.495 29.2487 276.044 28.5273 275.744 27.6856C275.443 26.8439 275.293 25.9421 275.293 24.9802C275.293 24.0483 275.443 23.1465 275.744 22.3048C276.044 21.4631 276.465 20.7116 277.036 20.0803C277.577 19.449 278.269 18.938 279.05 18.5472C279.832 18.1865 280.704 17.9761 281.635 17.9761C282.627 17.9761 283.529 18.1565 284.371 18.5472C285.213 18.908 285.934 19.419 286.565 20.0803C287.197 20.7116 287.678 21.4631 288.008 22.3048C288.369 23.1465 288.519 24.0483 288.519 24.9802V25.2808H288.549Z" fill="white"/>
<path d="M300.303 32.5253C300.303 32.2247 300.393 32.0143 300.543 31.8339C300.694 31.6535 300.934 31.5634 301.265 31.5634H307.066C307.307 31.5634 307.547 31.6535 307.758 31.8339C307.968 32.0143 308.089 32.2548 308.089 32.5253V37.8159C308.089 38.0865 307.998 38.2969 307.848 38.5073C307.668 38.7177 307.427 38.8079 307.097 38.8079H301.295C300.664 38.8079 300.333 38.4772 300.333 37.8159V32.5253H300.303Z" fill="#FFA559"/>
<path d="M0 1.68338C0 1.08217 0.12024 0.631264 0.390783 0.390781C0.661326 0.150298 1.05211 0 1.62326 0H6.70346C7.21448 0 7.63533 0.120238 7.93593 0.390781C8.23654 0.631264 8.4169 1.08217 8.4169 1.68338V5.95195C8.4169 6.13231 8.38684 6.31268 8.29666 6.5231C8.20647 6.73352 8.11629 6.91388 7.96599 7.12431C7.81569 7.30467 7.63533 7.48502 7.4249 7.60526C7.21448 7.72551 6.974 7.78563 6.70346 7.78563H1.62326C0.541087 7.78563 0 7.18442 0 5.98201V1.68338Z" fill="white"/>
<path d="M0 12.7456C0 12.2947 0.12024 11.8738 0.390783 11.5432C0.661326 11.2125 1.05211 11.0322 1.62326 11.0322H6.64334C6.8237 11.0322 7.00406 11.0622 7.21448 11.1524C7.42491 11.2426 7.60527 11.3628 7.78563 11.5131C7.96599 11.6634 8.11629 11.8438 8.23654 12.0542C8.35678 12.2646 8.4169 12.5051 8.4169 12.7456V37.1245C8.4169 37.6656 8.2666 38.0865 7.96599 38.3871C7.66539 38.6576 7.21448 38.8079 6.64334 38.8079H1.62326C0.541087 38.8079 0 38.2368 0 37.1245V12.7456Z" fill="white"/>
<path d="M39.2588 3.75754C39.1386 3.54712 39.0183 3.36676 38.838 3.24651C38.6576 3.09621 38.4772 2.97598 38.2668 2.91586C38.0564 2.82568 37.846 2.79561 37.6656 2.79561H32.7357C32.1646 2.79561 31.7437 2.94591 31.4431 3.27658C31.1726 3.60724 31.0223 3.99802 31.0223 4.44893V13.5572C30.6014 13.1063 30.1806 12.7155 29.7297 12.3548C29.2788 11.9941 28.7677 11.6634 28.2267 11.4229C27.6856 11.1524 27.0844 10.972 26.423 10.8217C25.7617 10.6714 25.0403 10.6113 24.2286 10.6113C22.2447 10.6113 20.411 10.972 18.7577 11.7235C17.0743 12.475 15.6614 13.467 14.459 14.7596C13.2566 16.0522 12.3247 17.5552 11.6334 19.2987C10.942 21.0422 10.6113 22.936 10.6113 24.9501C10.6113 26.9641 10.942 28.8279 11.6334 30.6014C12.3247 32.3449 13.2566 33.878 14.459 35.1706C15.6614 36.4632 17.1043 37.4853 18.7577 38.2067C20.441 38.9582 22.2447 39.3189 24.2286 39.3189C24.9801 39.3189 25.7016 39.2288 26.393 39.0484C27.0844 38.868 27.7156 38.5975 28.2868 38.2969C28.888 37.9963 29.4291 37.6356 29.9401 37.2448C30.4511 36.854 30.902 36.4632 31.2928 36.0724L31.7137 37.1245C31.8339 37.3951 31.9541 37.6356 32.0443 37.846C32.1345 38.0564 32.2247 38.2368 32.3449 38.357C32.4652 38.5073 32.5854 38.5975 32.7357 38.6877C32.886 38.7478 33.1265 38.8079 33.4271 38.8079H37.7257C38.8981 38.8079 39.4993 38.2368 39.4993 37.1245V4.44893C39.4091 4.20844 39.349 3.96797 39.2588 3.75754ZM31.6535 25.2808C31.6235 26.2126 31.4131 27.0543 31.0223 27.8659C30.6616 28.6776 30.1505 29.369 29.5493 29.9401C28.9481 30.5413 28.2267 30.9922 27.385 31.3229C26.5733 31.6535 25.6715 31.8339 24.7397 31.8339C23.7777 31.8339 22.936 31.6535 22.1545 31.2928C21.3729 30.9321 20.7116 30.4511 20.1404 29.8499C19.5993 29.2487 19.1484 28.5273 18.8478 27.6856C18.5472 26.8439 18.3969 25.9421 18.3969 24.9802C18.3969 24.0483 18.5472 23.1465 18.8478 22.3048C19.1484 21.4631 19.5693 20.7116 20.1404 20.0803C20.6815 19.449 21.3729 18.938 22.1545 18.5472C22.936 18.1865 23.8078 17.9761 24.7397 17.9761C25.7317 17.9761 26.6335 18.1565 27.4752 18.5472C28.3168 18.908 29.0383 19.419 29.6696 20.0803C30.3008 20.7116 30.7818 21.4631 31.1125 22.3048C31.4732 23.1465 31.6235 24.0483 31.6235 24.9802V25.2808H31.6535Z" fill="white"/>
</svg>
