<svg width="49" height="34" viewBox="0 0 49 34" fill="none" xmlns="http://www.w3.org/2000/svg">
<path d="M37.5098 34C40.5028 34 43.3167 32.8345 45.4331 30.7183C47.5495 28.602 48.715 25.7883 48.715 22.7955C48.715 21.2567 48.4598 19.8012 47.9565 18.4695C47.4369 17.0948 46.6654 15.8856 45.6636 14.8755C43.5322 12.7267 40.4603 11.5909 36.7802 11.5909C36.7521 11.5909 36.7307 11.5893 36.7152 11.5873C36.6036 11.2838 36.7198 9.98158 38.0667 7.81172C39.4788 5.53691 41.6117 3.35046 43.9184 1.81311C44.2813 1.5712 44.4431 1.12029 44.3167 0.702869C44.1904 0.28545 43.8057 0 43.3695 0C41.4635 0 37.2221 1.28822 33.3498 4.83725C30.1359 7.78292 26.3047 13.1631 26.3047 22.0658C26.3047 25.4311 27.4657 28.4894 29.5737 30.6772C31.6383 32.82 34.4567 34 37.5098 34Z" fill="white"/>
<path d="M3.26905 30.6773C5.33359 32.82 8.152 34 11.2052 34C14.1982 34 17.0121 32.8345 19.1284 30.7183C21.2448 28.602 22.4103 25.7883 22.4103 22.7955C22.4103 21.2567 22.1551 19.8012 21.6518 18.4695C21.1322 17.0948 20.3607 15.8856 19.3589 14.8755C17.2275 12.7267 14.1556 11.5909 10.4755 11.5909C10.4474 11.5909 10.426 11.5893 10.4105 11.5873C10.2989 11.2838 10.4152 9.98158 11.762 7.81172C13.1741 5.53686 15.307 3.35046 17.6137 1.81311C17.9766 1.5712 18.1384 1.12029 18.0121 0.702869C17.8857 0.28545 17.501 0 17.0649 0C15.1588 0 10.9174 1.28822 7.04516 4.83725C3.83118 7.78292 0 13.1631 0 22.0658C4.95911e-05 25.4312 1.16102 28.4894 3.26905 30.6773Z" fill="white"/>
</svg>
