<svg width="73" height="89" viewBox="0 0 73 89" fill="none" xmlns="http://www.w3.org/2000/svg">
<path d="M66.7344 0C69.6488 0 72.0214 2.10081 72.0215 4.69629V59.6855C72.0214 62.2753 69.6488 64.3838 66.7344 64.3838H58.9141V65.6094C58.9141 65.6817 58.908 65.7538 58.8965 65.8252L56.8887 79.8184H58.6543C59.0595 79.8184 59.4488 79.9791 59.7354 80.2656C60.0219 80.5522 60.1826 80.9415 60.1826 81.3467V87.4717C60.1825 87.8767 60.0217 88.2653 59.7354 88.5518C59.4488 88.8383 59.0595 88.999 58.6543 88.999H34.3291C33.9239 88.999 33.5346 88.8383 33.248 88.5518C32.9616 88.2653 32.8009 87.8767 32.8008 87.4717V81.3467C32.8008 80.9415 32.9615 80.5522 33.248 80.2656C33.5346 79.9791 33.9239 79.8184 34.3291 79.8184H34.7148L25.0381 67.4736C24.2527 66.637 23.8209 65.5304 23.8291 64.3838H5.28613C2.37191 64.3836 9.65313e-05 62.2828 0 59.6855V4.69629C5.14021e-05 2.10093 2.37188 0.000187824 5.28613 0H66.7344ZM35.8564 85.9434H57.127V82.874H55.1484C55.1419 82.8741 55.1354 82.875 55.1289 82.875H37.8535C37.8483 82.875 37.8431 82.8741 37.8379 82.874H35.8564V85.9434ZM36.8145 42.7061C36.4403 42.7061 36.081 42.8545 35.8164 43.1191C35.5518 43.3837 35.4034 43.743 35.4033 44.1172V47.1816C35.4072 47.2256 35.4102 47.2699 35.4102 47.3145C35.4102 47.3587 35.4071 47.4026 35.4033 47.4463V64.9814C35.4031 65.2654 35.3234 65.5438 35.1738 65.7852C35.0243 66.0263 34.8106 66.2211 34.5566 66.3477C34.3023 66.4742 34.0172 66.5272 33.7344 66.501C33.4516 66.4747 33.1818 66.3704 32.9551 66.1992L29.4297 63.5254C29.3734 63.4837 29.3197 63.4375 29.2705 63.3877C29.1402 63.2538 28.9844 63.1475 28.8125 63.0742C28.6405 63.0008 28.4556 62.9623 28.2686 62.9609C28.0817 62.9596 27.8965 62.9955 27.7236 63.0664C27.5506 63.1374 27.393 63.2418 27.2607 63.374C27.216 63.4187 27.1749 63.4666 27.1367 63.5166C27.0943 63.6049 27.0434 63.6885 26.9844 63.7676C26.9736 63.7904 26.9627 63.8135 26.9531 63.8369C26.8823 64.0098 26.8464 64.195 26.8477 64.3818C26.849 64.5689 26.8875 64.7538 26.9609 64.9258C27.0343 65.0978 27.1413 65.2534 27.2754 65.3838C27.3186 65.4273 27.3593 65.4735 27.3975 65.5215L38.5986 79.8184H53.8047L55.8623 65.4951V62.8984C55.8619 62.8842 55.8604 62.8697 55.8604 62.8555C55.8604 62.8411 55.8619 62.8268 55.8623 62.8125V61.9004C55.8618 61.5264 55.7126 61.1679 55.4482 60.9033C55.1837 60.6387 54.8244 60.4898 54.4502 60.4893C54.0768 60.4918 53.7192 60.6412 53.4551 60.9053C53.191 61.1694 53.0416 61.5269 53.0391 61.9004C53.0391 62.3055 52.8782 62.694 52.5918 62.9805C52.3053 63.267 51.916 63.4287 51.5107 63.4287C51.1057 63.4286 50.7171 63.2669 50.4307 62.9805C50.1443 62.694 49.9834 62.3055 49.9834 61.9004V57.6514C49.9904 57.4618 49.9593 57.2719 49.8916 57.0947C49.8239 56.9176 49.7205 56.7557 49.5889 56.6191C49.4573 56.4827 49.2995 56.374 49.125 56.2998C48.9505 56.2257 48.7628 56.1875 48.5732 56.1875C48.3835 56.1875 48.1951 56.2256 48.0205 56.2998C47.846 56.374 47.6882 56.4827 47.5566 56.6191C47.4251 56.7556 47.3226 56.9177 47.2549 57.0947C47.1871 57.2719 47.1551 57.4618 47.1621 57.6514C47.1621 57.6585 47.1612 57.6657 47.1611 57.6729V62.3096C47.161 62.7146 47.0003 63.1032 46.7139 63.3896C46.4274 63.6761 46.0389 63.8368 45.6338 63.8369C45.2286 63.8369 44.8393 63.6762 44.5527 63.3896C44.2663 63.1032 44.1056 62.7146 44.1055 62.3096V57.6514C44.1055 57.643 44.1063 57.6343 44.1064 57.626V53.9424C44.093 53.5768 43.9382 53.2304 43.6748 52.9766C43.4114 52.7227 43.0601 52.5811 42.6943 52.5811C42.3285 52.5811 41.9773 52.7227 41.7139 52.9766C41.4505 53.2304 41.2957 53.5768 41.2822 53.9424V62.3096C41.2821 62.7146 41.1214 63.1032 40.835 63.3896C40.5485 63.6761 40.1599 63.8368 39.7549 63.8369C39.3497 63.8369 38.9604 63.6762 38.6738 63.3896C38.3874 63.1032 38.2267 62.7146 38.2266 62.3096V47.3359C38.2265 47.3288 38.2256 47.3216 38.2256 47.3145C38.2256 47.307 38.2265 47.2994 38.2266 47.292V44.1172C38.2265 43.743 38.0771 43.3837 37.8125 43.1191C37.5478 42.8547 37.1886 42.7061 36.8145 42.7061ZM3.05566 59.6855C3.05579 60.5754 4.07743 61.328 5.28613 61.3281H25.0684C25.0892 61.3064 25.1096 61.2841 25.1309 61.2627C25.9489 60.4417 27.0541 59.9706 28.2129 59.9492C29.3714 59.9278 30.4931 60.3575 31.3408 61.1475L32.3418 61.9121V48.8418H15.9941C10.809 48.8416 6.5918 44.2582 6.5918 38.6338C6.56858 35.9914 7.53292 33.4351 9.29492 31.4658C10.1333 30.5143 11.1637 29.7509 12.3184 29.2266C13.4731 28.7022 14.726 28.4289 15.9941 28.4238H56.0293C61.2145 28.4239 65.4315 33.0074 65.4316 38.6338C65.454 41.2751 64.4906 43.8302 62.7305 45.7998C61.8912 46.7508 60.86 47.5138 59.7051 48.0381C58.5502 48.5623 57.2976 48.836 56.0293 48.8418H41.2764V49.7021C41.9061 49.4922 42.5746 49.425 43.2334 49.5059C43.8924 49.5868 44.5256 49.8138 45.0859 50.1699C45.646 50.526 46.1198 51.0024 46.4727 51.5645C46.8256 52.1268 47.0488 52.7615 47.126 53.4209C47.7983 53.1919 48.5161 53.1258 49.2188 53.2295C49.9212 53.3332 50.5886 53.6034 51.166 54.0166C51.7436 54.43 52.2144 54.9757 52.5391 55.6074C52.8637 56.2391 53.0332 56.9392 53.0332 57.6494V57.6602C53.4887 57.5078 53.966 57.4311 54.4463 57.4316C55.6304 57.4337 56.7662 57.9049 57.6035 58.7422C58.305 59.4438 58.7482 60.3547 58.875 61.3281H66.7344C67.9433 61.3281 68.9657 60.5755 68.9658 59.6855V15.9424H3.05566V59.6855ZM15.9941 31.4795C15.1539 31.4879 14.3247 31.6739 13.5615 32.0254C12.7982 32.3769 12.118 32.8864 11.5654 33.5195C10.315 34.9275 9.63367 36.7508 9.65527 38.6338C9.65527 42.5776 12.5032 45.786 16.002 45.7861H32.3418V44.1172C32.3419 42.9326 32.8127 41.7966 33.6504 40.959C34.488 40.1213 35.624 39.6505 36.8086 39.6504C37.9934 39.6504 39.13 40.1212 39.9678 40.959C40.8054 41.7966 41.2763 42.9326 41.2764 44.1172V45.7861H56.0293C56.8711 45.7786 57.7019 45.5937 58.4668 45.2422C59.2317 44.8907 59.9138 44.381 60.4678 43.7471C61.7181 42.3397 62.3993 40.5162 62.3779 38.6338C62.3778 34.6881 59.53 31.4796 56.0312 31.4795H15.9941ZM5.28613 3.05566C4.07739 3.05583 3.05573 3.80833 3.05566 4.69629V12.8867H68.9658V4.69629C68.9658 3.80824 67.9433 3.05566 66.7344 3.05566H5.28613ZM17.2148 6.44141C17.6199 6.44141 18.0084 6.60234 18.2949 6.88867C18.5815 7.17521 18.7432 7.5645 18.7432 7.96973C18.7431 8.3748 18.5814 8.76337 18.2949 9.0498C18.0084 9.33617 17.6199 9.49707 17.2148 9.49707H11.6768C11.2715 9.49707 10.8822 9.33634 10.5957 9.0498C10.3093 8.76337 10.1485 8.37477 10.1484 7.96973C10.1484 7.5645 10.3092 7.17521 10.5957 6.88867C10.8822 6.60214 11.2715 6.44141 11.6768 6.44141H17.2148ZM27.1133 6.44141C27.5183 6.44141 27.9069 6.60234 28.1934 6.88867C28.4799 7.17521 28.6416 7.5645 28.6416 7.96973C28.6415 8.3748 28.4798 8.76337 28.1934 9.0498C27.9068 9.33617 27.5184 9.49707 27.1133 9.49707H21.5752C21.17 9.49707 20.7807 9.33634 20.4941 9.0498C20.2077 8.76337 20.047 8.37477 20.0469 7.96973C20.0469 7.5645 20.2076 7.17521 20.4941 6.88867C20.7807 6.60214 21.17 6.44141 21.5752 6.44141H27.1133ZM37.0098 6.44141C37.415 6.44141 37.8043 6.60214 38.0908 6.88867C38.3773 7.17521 38.5381 7.56452 38.5381 7.96973C38.538 8.37474 38.3771 8.76336 38.0908 9.0498C37.8043 9.33634 37.415 9.49707 37.0098 9.49707H31.4717C31.0665 9.49707 30.6772 9.33634 30.3906 9.0498C30.1043 8.76335 29.9434 8.37476 29.9434 7.96973C29.9434 7.5645 30.1041 7.17521 30.3906 6.88867C30.6772 6.60214 31.0665 6.44141 31.4717 6.44141H37.0098ZM60.3496 6.44141C60.7548 6.44141 61.1441 6.60215 61.4307 6.88867C61.7172 7.17521 61.8779 7.5645 61.8779 7.96973C61.8778 8.37478 61.7171 8.76337 61.4307 9.0498C61.1441 9.33634 60.7548 9.49707 60.3496 9.49707H45.3408C44.9356 9.49707 44.5463 9.33634 44.2598 9.0498C43.9734 8.76337 43.8126 8.37477 43.8125 7.96973C43.8125 7.5645 43.9732 7.17521 44.2598 6.88867C44.5463 6.60214 44.9356 6.44141 45.3408 6.44141H60.3496Z" fill="black"/>
</svg>
