<svg width="449" height="236" viewBox="0 0 449 236" fill="none" xmlns="http://www.w3.org/2000/svg">
<path opacity="0.02" d="M118.26 235.224C101.412 235.224 85.7519 232.2 71.2799 226.152C57.0239 220.104 44.4959 211.68 33.6959 200.88C23.1119 190.08 14.7959 177.66 8.7479 163.62C2.9159 149.364 -9.75356e-05 134.136 -9.75356e-05 117.936C-9.75356e-05 101.736 2.8079 86.508 8.4239 72.252C14.2559 57.996 22.3559 45.468 32.7239 34.668C43.3079 23.868 55.8359 15.444 70.3079 9.39596C84.7799 3.13195 100.764 -5.62668e-05 118.26 -5.62668e-05C136.836 -5.62668e-05 152.712 2.91594 165.888 8.74795C179.28 14.5799 191.052 23.5439 201.204 35.6399L169.128 63.504C155.52 49.248 138.564 42.12 118.26 42.12C103.788 42.12 91.1519 45.576 80.3519 52.488C69.7679 59.4 61.5599 68.5799 55.7279 80.028C49.8959 91.476 46.9799 104.112 46.9799 117.936C46.9799 131.76 49.8959 144.396 55.7279 155.844C61.5599 167.076 69.8759 176.148 80.6759 183.06C91.4759 189.756 104.328 193.104 119.232 193.104C130.248 193.104 139.968 191.268 148.392 187.596C156.816 183.924 164.376 178.416 171.072 171.072L204.12 199.26C195.48 209.628 183.924 218.268 169.452 225.18C155.196 231.876 138.132 235.224 118.26 235.224ZM311.075 235.224C292.715 235.224 276.623 231.552 262.799 224.208C248.975 216.648 238.283 206.28 230.723 193.104C223.163 179.712 219.383 164.376 219.383 147.096V4.21195H264.743V142.236C264.743 158.22 268.523 170.856 276.083 180.144C283.859 189.216 295.523 193.752 311.075 193.752C326.627 193.752 338.183 189.216 345.743 180.144C353.519 170.856 357.407 158.22 357.407 142.236V4.21195H402.767V147.096C402.767 164.376 398.987 179.712 391.427 193.104C383.867 206.28 373.175 216.648 359.351 224.208C345.743 231.552 329.651 235.224 311.075 235.224ZM432.084 231.012V4.21195H508.548C533.172 4.21195 551.964 9.71995 564.924 20.7359C577.884 31.7519 584.364 46.1159 584.364 63.828C584.364 74.628 581.664 84.024 576.264 92.016C571.08 99.792 561.576 106.272 547.752 111.456C566.328 115.776 579.18 122.904 586.308 132.84C593.436 142.56 597 154.44 597 168.48C597 187.488 589.764 202.716 575.292 214.164C560.82 225.396 541.272 231.012 516.648 231.012H432.084ZM477.444 97.848H504.336C516.648 97.848 525.396 95.688 530.58 91.368C535.764 86.832 538.356 80.028 538.356 70.956C538.356 63.18 535.764 56.916 530.58 52.1639C525.396 47.1959 516.648 44.7119 504.336 44.7119H477.444V97.848ZM477.444 190.188H512.436C524.748 190.188 534.252 187.92 540.948 183.384C547.644 178.632 550.992 171.288 550.992 161.352C550.992 153.144 547.644 146.664 540.948 141.912C534.252 137.16 524.748 134.784 512.436 134.784H477.444V190.188ZM589.763 231.012L682.427 4.21195H721.631L813.971 231.012H764.723L749.171 187.92H654.563L639.011 231.012H589.763ZM693.767 86.832L669.467 148.716H734.267L709.967 86.832C706.727 78.192 704.027 69.552 701.867 60.912C699.707 70.2 697.007 78.84 693.767 86.832Z" fill="#155DFC"/>
</svg>
