<svg width="73" height="72" viewBox="0 0 73 72" fill="none" xmlns="http://www.w3.org/2000/svg">
<mask id="path-1-outside-1_3_1253" maskUnits="userSpaceOnUse" x="0" y="0" width="73" height="72" fill="black">
<rect fill="white" width="73" height="72"/>
<path d="M71.0398 26.6221C70.9954 26.297 70.8866 25.984 70.7198 25.7015C70.5529 25.4189 70.3315 25.1725 70.0683 24.9766L65.0703 21.2565C64.9778 21.188 64.8727 21.1384 64.7611 21.1106C64.6494 21.0828 64.5333 21.0772 64.4195 21.0943C64.3057 21.1114 64.1963 21.1507 64.0977 21.2101C63.9991 21.2695 63.9132 21.3477 63.8449 21.4404C63.3963 22.0048 62.7605 22.39 62.0525 22.5265C61.3446 22.6629 60.6111 22.5416 59.9849 22.1844C59.6417 21.9847 59.3459 21.7132 59.1177 21.3883C58.8896 21.0634 58.7345 20.693 58.6632 20.3025C58.597 19.9426 58.6089 19.5728 58.698 19.2179C58.787 18.863 58.9513 18.5314 59.1796 18.2455L59.3021 18.088C59.3743 17.996 59.4273 17.8906 59.4581 17.7778C59.4888 17.6651 59.4967 17.5473 59.4812 17.4314C59.4657 17.3156 59.4271 17.204 59.3678 17.1033C59.3085 17.0026 59.2296 16.9148 59.1358 16.8451L55.9848 14.508L57.9104 12.8887C58.0099 12.8037 58.0891 12.6974 58.1421 12.5778C58.1951 12.4581 58.2206 12.3281 58.2168 12.1972C58.2128 12.0658 58.1792 11.937 58.1186 11.8203C58.058 11.7036 57.9719 11.6021 57.8666 11.5233L48.3522 4.47712C48.2504 4.40191 48.1335 4.34966 48.0096 4.32397C47.8857 4.29828 47.7577 4.29976 47.6344 4.32832C47.5093 4.35658 47.3919 4.41199 47.2906 4.49065C47.1892 4.5693 47.1064 4.66927 47.048 4.78347L45.9101 7.04174L43.2842 5.09858C38.6977 1.68493 22.811 -4.48591 10.2943 11.3044C10.1283 11.4669 10.0337 11.6887 10.0312 11.921C10.0288 12.1533 10.1187 12.377 10.2812 12.543C10.4437 12.709 10.6654 12.8036 10.8977 12.806C11.13 12.8085 11.3537 12.7186 11.5197 12.5561C19.5987 7.30433 28.7981 11.8821 33.9973 15.5058L31.9229 18.1317C31.5801 18.553 31.3258 19.0392 31.1754 19.5611C31.025 20.083 30.9815 20.6299 31.0476 21.169C31.1229 21.7257 31.3098 22.2615 31.597 22.7443C31.8843 23.2271 32.266 23.6469 32.7194 23.9787L30.4524 26.8409L2.76675 57.7826C2.15187 58.4306 1.67866 59.1995 1.37726 60.0404C1.07586 60.8813 0.952886 61.7758 1.01616 62.6668C1.07577 63.3425 1.27827 63.9978 1.61024 64.5893C1.94222 65.1809 2.3961 65.6951 2.94181 66.098L8.23735 70.0455C9.09957 70.678 10.1441 71.0129 11.2134 70.9996C11.5068 70.9971 11.7995 70.9708 12.0887 70.9208C12.9696 70.7645 13.8104 70.434 14.5619 69.9485C15.3135 69.463 15.9605 68.8324 16.4651 68.0936L40.0981 34.1497L42.4002 31.2437L43.0216 31.7076C43.9183 32.3715 45.0348 32.6679 46.1427 32.5361C47.2506 32.4043 48.2664 31.8543 48.9824 30.9986C49.2217 30.7142 49.5152 30.4803 49.8458 30.3105C50.1764 30.1407 50.5375 30.0384 50.908 30.0095C51.3689 29.9442 51.8387 29.9895 52.2785 30.1417C52.7184 30.2939 53.1157 30.5486 53.4376 30.8848C53.8946 31.3687 54.1571 32.0042 54.1748 32.6695C54.1926 33.3349 53.9644 33.9834 53.5339 34.491C53.3841 34.6819 53.3149 34.9238 53.3414 35.165C53.379 35.4049 53.5075 35.6212 53.7002 35.769L58.6369 39.489C59.1604 39.8884 59.819 40.068 60.4728 39.9895C61.1265 39.9111 61.724 39.5808 62.1381 39.0688L70.5672 28.4165C70.7625 28.1645 70.905 27.8757 70.9863 27.5674C71.0675 27.2591 71.0857 26.9376 71.0398 26.6221ZM48.1596 6.4903L55.9497 12.2848L54.558 13.4577L47.3543 8.09209L48.1596 6.4903ZM15.0734 67.0958C14.7019 67.6432 14.2249 68.111 13.6703 68.4717C13.1157 68.8325 12.4946 69.0789 11.8436 69.1965C11.4018 69.2808 10.9475 69.2746 10.5082 69.1783C10.0689 69.082 9.65373 68.8976 9.28771 68.6363L3.98341 64.6975C3.63642 64.4346 3.34874 64.1015 3.1391 63.7199C2.92947 63.3383 2.8026 62.9169 2.76675 62.483C2.72539 61.8441 2.81594 61.2036 3.03278 60.6013C3.24962 59.999 3.58811 59.4477 4.02718 58.9818L31.2401 28.5828L38.2425 33.8345L15.0734 67.0958ZM39.3191 32.4166L32.3693 27.2348L34.1199 25.0116L41.061 30.1846L39.3191 32.4166ZM69.158 27.3136L60.7201 37.9572C60.594 38.1059 60.4158 38.2005 60.222 38.2217C60.0282 38.2429 59.8337 38.1889 59.6785 38.071L55.302 34.8411C55.7498 34.031 55.9291 33.0998 55.8143 32.1813C55.6995 31.2628 55.2964 30.4044 54.6631 29.7294C54.1588 29.1851 53.5323 28.7686 52.8352 28.5144C52.1381 28.2602 51.3905 28.1756 50.6542 28.2677C49.4637 28.4037 48.3752 29.0046 47.6257 29.9395C47.1912 30.4235 46.5926 30.729 45.9458 30.7969C45.299 30.8648 44.65 30.6903 44.1245 30.3071L33.7522 22.5695C33.4884 22.3754 33.2658 22.1306 33.0975 21.8496C32.9292 21.5686 32.8185 21.2569 32.7719 20.9327C32.7272 20.6235 32.7469 20.3083 32.8297 20.0071C32.9126 19.7058 33.0568 19.425 33.2533 19.1821L35.8792 15.8385C35.9522 15.7469 36.0061 15.6416 36.0376 15.5289C36.0692 15.4161 36.0778 15.2981 36.063 15.182C36.0481 15.0642 36.0093 14.9507 35.9491 14.8484C35.8889 14.7461 35.8086 14.6571 35.7129 14.5868C28.1503 9.08993 20.7891 7.2343 14.5833 9.16871C18.1607 5.56992 22.8814 3.33163 27.9319 2.83953C32.9824 2.34742 38.0464 3.63231 42.2514 6.4728L57.394 17.7466C56.9136 18.6217 56.7468 19.6347 56.9213 20.6176C57.0399 21.2504 57.2916 21.8508 57.6598 22.379C58.028 22.9071 58.5043 23.351 59.057 23.6811C59.9265 24.1832 60.9318 24.3993 61.9308 24.2988C62.9298 24.1983 63.8719 23.7862 64.6239 23.1209L69.0004 26.3858C69.0774 26.4387 69.1423 26.5075 69.1906 26.5875C69.2389 26.6675 69.2695 26.7569 69.2805 26.8497C69.2939 26.9313 69.29 27.0148 69.2688 27.0947C69.2477 27.1747 69.2099 27.2493 69.158 27.3136Z"/>
</mask>
<path d="M71.0398 26.6221C70.9954 26.297 70.8866 25.984 70.7198 25.7015C70.5529 25.4189 70.3315 25.1725 70.0683 24.9766L65.0703 21.2565C64.9778 21.188 64.8727 21.1384 64.7611 21.1106C64.6494 21.0828 64.5333 21.0772 64.4195 21.0943C64.3057 21.1114 64.1963 21.1507 64.0977 21.2101C63.9991 21.2695 63.9132 21.3477 63.8449 21.4404C63.3963 22.0048 62.7605 22.39 62.0525 22.5265C61.3446 22.6629 60.6111 22.5416 59.9849 22.1844C59.6417 21.9847 59.3459 21.7132 59.1177 21.3883C58.8896 21.0634 58.7345 20.693 58.6632 20.3025C58.597 19.9426 58.6089 19.5728 58.698 19.2179C58.787 18.863 58.9513 18.5314 59.1796 18.2455L59.3021 18.088C59.3743 17.996 59.4273 17.8906 59.4581 17.7778C59.4888 17.6651 59.4967 17.5473 59.4812 17.4314C59.4657 17.3156 59.4271 17.204 59.3678 17.1033C59.3085 17.0026 59.2296 16.9148 59.1358 16.8451L55.9848 14.508L57.9104 12.8887C58.0099 12.8037 58.0891 12.6974 58.1421 12.5778C58.1951 12.4581 58.2206 12.3281 58.2168 12.1972C58.2128 12.0658 58.1792 11.937 58.1186 11.8203C58.058 11.7036 57.9719 11.6021 57.8666 11.5233L48.3522 4.47712C48.2504 4.40191 48.1335 4.34966 48.0096 4.32397C47.8857 4.29828 47.7577 4.29976 47.6344 4.32832C47.5093 4.35658 47.3919 4.41199 47.2906 4.49065C47.1892 4.5693 47.1064 4.66927 47.048 4.78347L45.9101 7.04174L43.2842 5.09858C38.6977 1.68493 22.811 -4.48591 10.2943 11.3044C10.1283 11.4669 10.0337 11.6887 10.0312 11.921C10.0288 12.1533 10.1187 12.377 10.2812 12.543C10.4437 12.709 10.6654 12.8036 10.8977 12.806C11.13 12.8085 11.3537 12.7186 11.5197 12.5561C19.5987 7.30433 28.7981 11.8821 33.9973 15.5058L31.9229 18.1317C31.5801 18.553 31.3258 19.0392 31.1754 19.5611C31.025 20.083 30.9815 20.6299 31.0476 21.169C31.1229 21.7257 31.3098 22.2615 31.597 22.7443C31.8843 23.2271 32.266 23.6469 32.7194 23.9787L30.4524 26.8409L2.76675 57.7826C2.15187 58.4306 1.67866 59.1995 1.37726 60.0404C1.07586 60.8813 0.952886 61.7758 1.01616 62.6668C1.07577 63.3425 1.27827 63.9978 1.61024 64.5893C1.94222 65.1809 2.3961 65.6951 2.94181 66.098L8.23735 70.0455C9.09957 70.678 10.1441 71.0129 11.2134 70.9996C11.5068 70.9971 11.7995 70.9708 12.0887 70.9208C12.9696 70.7645 13.8104 70.434 14.5619 69.9485C15.3135 69.463 15.9605 68.8324 16.4651 68.0936L40.0981 34.1497L42.4002 31.2437L43.0216 31.7076C43.9183 32.3715 45.0348 32.6679 46.1427 32.5361C47.2506 32.4043 48.2664 31.8543 48.9824 30.9986C49.2217 30.7142 49.5152 30.4803 49.8458 30.3105C50.1764 30.1407 50.5375 30.0384 50.908 30.0095C51.3689 29.9442 51.8387 29.9895 52.2785 30.1417C52.7184 30.2939 53.1157 30.5486 53.4376 30.8848C53.8946 31.3687 54.1571 32.0042 54.1748 32.6695C54.1926 33.3349 53.9644 33.9834 53.5339 34.491C53.3841 34.6819 53.3149 34.9238 53.3414 35.165C53.379 35.4049 53.5075 35.6212 53.7002 35.769L58.6369 39.489C59.1604 39.8884 59.819 40.068 60.4728 39.9895C61.1265 39.9111 61.724 39.5808 62.1381 39.0688L70.5672 28.4165C70.7625 28.1645 70.905 27.8757 70.9863 27.5674C71.0675 27.2591 71.0857 26.9376 71.0398 26.6221ZM48.1596 6.4903L55.9497 12.2848L54.558 13.4577L47.3543 8.09209L48.1596 6.4903ZM15.0734 67.0958C14.7019 67.6432 14.2249 68.111 13.6703 68.4717C13.1157 68.8325 12.4946 69.0789 11.8436 69.1965C11.4018 69.2808 10.9475 69.2746 10.5082 69.1783C10.0689 69.082 9.65373 68.8976 9.28771 68.6363L3.98341 64.6975C3.63642 64.4346 3.34874 64.1015 3.1391 63.7199C2.92947 63.3383 2.8026 62.9169 2.76675 62.483C2.72539 61.8441 2.81594 61.2036 3.03278 60.6013C3.24962 59.999 3.58811 59.4477 4.02718 58.9818L31.2401 28.5828L38.2425 33.8345L15.0734 67.0958ZM39.3191 32.4166L32.3693 27.2348L34.1199 25.0116L41.061 30.1846L39.3191 32.4166ZM69.158 27.3136L60.7201 37.9572C60.594 38.1059 60.4158 38.2005 60.222 38.2217C60.0282 38.2429 59.8337 38.1889 59.6785 38.071L55.302 34.8411C55.7498 34.031 55.9291 33.0998 55.8143 32.1813C55.6995 31.2628 55.2964 30.4044 54.6631 29.7294C54.1588 29.1851 53.5323 28.7686 52.8352 28.5144C52.1381 28.2602 51.3905 28.1756 50.6542 28.2677C49.4637 28.4037 48.3752 29.0046 47.6257 29.9395C47.1912 30.4235 46.5926 30.729 45.9458 30.7969C45.299 30.8648 44.65 30.6903 44.1245 30.3071L33.7522 22.5695C33.4884 22.3754 33.2658 22.1306 33.0975 21.8496C32.9292 21.5686 32.8185 21.2569 32.7719 20.9327C32.7272 20.6235 32.7469 20.3083 32.8297 20.0071C32.9126 19.7058 33.0568 19.425 33.2533 19.1821L35.8792 15.8385C35.9522 15.7469 36.0061 15.6416 36.0376 15.5289C36.0692 15.4161 36.0778 15.2981 36.063 15.182C36.0481 15.0642 36.0093 14.9507 35.9491 14.8484C35.8889 14.7461 35.8086 14.6571 35.7129 14.5868C28.1503 9.08993 20.7891 7.2343 14.5833 9.16871C18.1607 5.56992 22.8814 3.33163 27.9319 2.83953C32.9824 2.34742 38.0464 3.63231 42.2514 6.4728L57.394 17.7466C56.9136 18.6217 56.7468 19.6347 56.9213 20.6176C57.0399 21.2504 57.2916 21.8508 57.6598 22.379C58.028 22.9071 58.5043 23.351 59.057 23.6811C59.9265 24.1832 60.9318 24.3993 61.9308 24.2988C62.9298 24.1983 63.8719 23.7862 64.6239 23.1209L69.0004 26.3858C69.0774 26.4387 69.1423 26.5075 69.1906 26.5875C69.2389 26.6675 69.2695 26.7569 69.2805 26.8497C69.2939 26.9313 69.29 27.0148 69.2688 27.0947C69.2477 27.1747 69.2099 27.2493 69.158 27.3136Z" fill="#155DFC"/>
<path d="M71.0398 26.6221C70.9954 26.297 70.8866 25.984 70.7198 25.7015C70.5529 25.4189 70.3315 25.1725 70.0683 24.9766L65.0703 21.2565C64.9778 21.188 64.8727 21.1384 64.7611 21.1106C64.6494 21.0828 64.5333 21.0772 64.4195 21.0943C64.3057 21.1114 64.1963 21.1507 64.0977 21.2101C63.9991 21.2695 63.9132 21.3477 63.8449 21.4404C63.3963 22.0048 62.7605 22.39 62.0525 22.5265C61.3446 22.6629 60.6111 22.5416 59.9849 22.1844C59.6417 21.9847 59.3459 21.7132 59.1177 21.3883C58.8896 21.0634 58.7345 20.693 58.6632 20.3025C58.597 19.9426 58.6089 19.5728 58.698 19.2179C58.787 18.863 58.9513 18.5314 59.1796 18.2455L59.3021 18.088C59.3743 17.996 59.4273 17.8906 59.4581 17.7778C59.4888 17.6651 59.4967 17.5473 59.4812 17.4314C59.4657 17.3156 59.4271 17.204 59.3678 17.1033C59.3085 17.0026 59.2296 16.9148 59.1358 16.8451L55.9848 14.508L57.9104 12.8887C58.0099 12.8037 58.0891 12.6974 58.1421 12.5778C58.1951 12.4581 58.2206 12.3281 58.2168 12.1972C58.2128 12.0658 58.1792 11.937 58.1186 11.8203C58.058 11.7036 57.9719 11.6021 57.8666 11.5233L48.3522 4.47712C48.2504 4.40191 48.1335 4.34966 48.0096 4.32397C47.8857 4.29828 47.7577 4.29976 47.6344 4.32832C47.5093 4.35658 47.3919 4.41199 47.2906 4.49065C47.1892 4.5693 47.1064 4.66927 47.048 4.78347L45.9101 7.04174L43.2842 5.09858C38.6977 1.68493 22.811 -4.48591 10.2943 11.3044C10.1283 11.4669 10.0337 11.6887 10.0312 11.921C10.0288 12.1533 10.1187 12.377 10.2812 12.543C10.4437 12.709 10.6654 12.8036 10.8977 12.806C11.13 12.8085 11.3537 12.7186 11.5197 12.5561C19.5987 7.30433 28.7981 11.8821 33.9973 15.5058L31.9229 18.1317C31.5801 18.553 31.3258 19.0392 31.1754 19.5611C31.025 20.083 30.9815 20.6299 31.0476 21.169C31.1229 21.7257 31.3098 22.2615 31.597 22.7443C31.8843 23.2271 32.266 23.6469 32.7194 23.9787L30.4524 26.8409L2.76675 57.7826C2.15187 58.4306 1.67866 59.1995 1.37726 60.0404C1.07586 60.8813 0.952886 61.7758 1.01616 62.6668C1.07577 63.3425 1.27827 63.9978 1.61024 64.5893C1.94222 65.1809 2.3961 65.6951 2.94181 66.098L8.23735 70.0455C9.09957 70.678 10.1441 71.0129 11.2134 70.9996C11.5068 70.9971 11.7995 70.9708 12.0887 70.9208C12.9696 70.7645 13.8104 70.434 14.5619 69.9485C15.3135 69.463 15.9605 68.8324 16.4651 68.0936L40.0981 34.1497L42.4002 31.2437L43.0216 31.7076C43.9183 32.3715 45.0348 32.6679 46.1427 32.5361C47.2506 32.4043 48.2664 31.8543 48.9824 30.9986C49.2217 30.7142 49.5152 30.4803 49.8458 30.3105C50.1764 30.1407 50.5375 30.0384 50.908 30.0095C51.3689 29.9442 51.8387 29.9895 52.2785 30.1417C52.7184 30.2939 53.1157 30.5486 53.4376 30.8848C53.8946 31.3687 54.1571 32.0042 54.1748 32.6695C54.1926 33.3349 53.9644 33.9834 53.5339 34.491C53.3841 34.6819 53.3149 34.9238 53.3414 35.165C53.379 35.4049 53.5075 35.6212 53.7002 35.769L58.6369 39.489C59.1604 39.8884 59.819 40.068 60.4728 39.9895C61.1265 39.9111 61.724 39.5808 62.1381 39.0688L70.5672 28.4165C70.7625 28.1645 70.905 27.8757 70.9863 27.5674C71.0675 27.2591 71.0857 26.9376 71.0398 26.6221ZM48.1596 6.4903L55.9497 12.2848L54.558 13.4577L47.3543 8.09209L48.1596 6.4903ZM15.0734 67.0958C14.7019 67.6432 14.2249 68.111 13.6703 68.4717C13.1157 68.8325 12.4946 69.0789 11.8436 69.1965C11.4018 69.2808 10.9475 69.2746 10.5082 69.1783C10.0689 69.082 9.65373 68.8976 9.28771 68.6363L3.98341 64.6975C3.63642 64.4346 3.34874 64.1015 3.1391 63.7199C2.92947 63.3383 2.8026 62.9169 2.76675 62.483C2.72539 61.8441 2.81594 61.2036 3.03278 60.6013C3.24962 59.999 3.58811 59.4477 4.02718 58.9818L31.2401 28.5828L38.2425 33.8345L15.0734 67.0958ZM39.3191 32.4166L32.3693 27.2348L34.1199 25.0116L41.061 30.1846L39.3191 32.4166ZM69.158 27.3136L60.7201 37.9572C60.594 38.1059 60.4158 38.2005 60.222 38.2217C60.0282 38.2429 59.8337 38.1889 59.6785 38.071L55.302 34.8411C55.7498 34.031 55.9291 33.0998 55.8143 32.1813C55.6995 31.2628 55.2964 30.4044 54.6631 29.7294C54.1588 29.1851 53.5323 28.7686 52.8352 28.5144C52.1381 28.2602 51.3905 28.1756 50.6542 28.2677C49.4637 28.4037 48.3752 29.0046 47.6257 29.9395C47.1912 30.4235 46.5926 30.729 45.9458 30.7969C45.299 30.8648 44.65 30.6903 44.1245 30.3071L33.7522 22.5695C33.4884 22.3754 33.2658 22.1306 33.0975 21.8496C32.9292 21.5686 32.8185 21.2569 32.7719 20.9327C32.7272 20.6235 32.7469 20.3083 32.8297 20.0071C32.9126 19.7058 33.0568 19.425 33.2533 19.1821L35.8792 15.8385C35.9522 15.7469 36.0061 15.6416 36.0376 15.5289C36.0692 15.4161 36.0778 15.2981 36.063 15.182C36.0481 15.0642 36.0093 14.9507 35.9491 14.8484C35.8889 14.7461 35.8086 14.6571 35.7129 14.5868C28.1503 9.08993 20.7891 7.2343 14.5833 9.16871C18.1607 5.56992 22.8814 3.33163 27.9319 2.83953C32.9824 2.34742 38.0464 3.63231 42.2514 6.4728L57.394 17.7466C56.9136 18.6217 56.7468 19.6347 56.9213 20.6176C57.0399 21.2504 57.2916 21.8508 57.6598 22.379C58.028 22.9071 58.5043 23.351 59.057 23.6811C59.9265 24.1832 60.9318 24.3993 61.9308 24.2988C62.9298 24.1983 63.8719 23.7862 64.6239 23.1209L69.0004 26.3858C69.0774 26.4387 69.1423 26.5075 69.1906 26.5875C69.2389 26.6675 69.2695 26.7569 69.2805 26.8497C69.2939 26.9313 69.29 27.0148 69.2688 27.0947C69.2477 27.1747 69.2099 27.2493 69.158 27.3136Z" stroke="#155DFC" stroke-width="2" mask="url(#path-1-outside-1_3_1253)"/>
</svg>
