<svg width="52" height="52" viewBox="0 0 52 52" fill="none" xmlns="http://www.w3.org/2000/svg">
<path d="M3.15721 27.6005C3.08849 27.6078 3.0192 27.6078 2.95049 27.6005H0.939646C0.690436 27.6005 0.451434 27.5015 0.275216 27.3253C0.098998 27.1491 0 26.9101 0 26.6609C0 26.4117 0.098998 26.1727 0.275216 25.9965C0.451434 25.8202 0.690436 25.7212 0.939646 25.7212H2.25515C2.32551 23.8113 2.63272 21.9176 3.16974 20.0834C3.24035 19.8441 3.4031 19.6427 3.6222 19.5235C3.8413 19.4042 4.09879 19.3769 4.33803 19.4475C4.57727 19.5181 4.77867 19.6809 4.89791 19.9C5.01715 20.1191 5.04447 20.3766 4.97386 20.6158C4.48626 22.279 4.20435 23.9957 4.13444 25.7275H5.3873C5.63651 25.7275 5.87551 25.8265 6.05173 26.0027C6.22795 26.1789 6.32695 26.4179 6.32695 26.6671C6.32695 26.9164 6.22795 27.1554 6.05173 27.3316C5.87551 27.5078 5.63651 27.6068 5.3873 27.6068H3.35767C3.29082 27.6122 3.22358 27.6101 3.15721 27.6005ZM24.4183 6.65269C24.4183 6.9019 24.5173 7.1409 24.6935 7.31712C24.8697 7.49334 25.1087 7.59234 25.3579 7.59234C25.6071 7.59234 25.8461 7.49334 26.0223 7.31712C26.1986 7.1409 26.2976 6.9019 26.2976 6.65269V5.39983C28.0227 5.46954 29.733 5.74932 31.3904 6.23298C31.5089 6.26795 31.6331 6.27923 31.7559 6.2662C31.8787 6.25317 31.9978 6.21607 32.1063 6.15703C32.2148 6.09799 32.3105 6.01816 32.3882 5.92209C32.4658 5.82603 32.5238 5.71562 32.5587 5.59716C32.5937 5.4787 32.605 5.35451 32.5919 5.23169C32.5789 5.10887 32.5418 4.98981 32.4828 4.88133C32.4237 4.77284 32.3439 4.67705 32.2478 4.59941C32.1518 4.52178 32.0414 4.46383 31.9229 4.42886C30.0884 3.89429 28.1946 3.58918 26.285 3.52054V2.20504C26.285 1.95583 26.186 1.71682 26.0098 1.54061C25.8336 1.36439 25.5946 1.26539 25.3454 1.26539C25.0962 1.26539 24.8572 1.36439 24.6809 1.54061C24.5047 1.71682 24.4057 1.95583 24.4057 2.20504L24.4183 6.65269ZM6.65896 36.7589C6.54017 36.5396 6.33912 36.3765 6.10005 36.3054C5.86099 36.2344 5.60347 36.2612 5.38417 36.38C5.16487 36.4987 5.00173 36.6998 4.93066 36.9389C4.85958 37.1779 4.88639 37.4354 5.00518 37.6547C6.07686 39.6291 7.42943 41.4374 9.0206 43.0232C9.10662 43.1156 9.21036 43.1896 9.32562 43.241C9.44089 43.2923 9.56531 43.3199 9.69148 43.3222C9.81765 43.3244 9.94297 43.3012 10.06 43.2539C10.177 43.2067 10.2833 43.1363 10.3725 43.0471C10.4617 42.9579 10.5321 42.8516 10.5793 42.7346C10.6266 42.6176 10.6498 42.4923 10.6476 42.3661C10.6453 42.2399 10.6177 42.1155 10.5664 42.0002C10.515 41.885 10.441 41.7812 10.3486 41.6952C8.88593 40.2374 7.64303 38.5745 6.65896 36.7589ZM9.62197 11.921C9.8711 11.9208 10.1099 11.8216 10.286 11.6453C11.7415 10.1809 13.4022 8.93591 15.216 7.9494C15.3246 7.89058 15.4205 7.81095 15.4983 7.71506C15.5762 7.61916 15.6343 7.50888 15.6695 7.3905C15.7047 7.27213 15.7162 7.14798 15.7034 7.02515C15.6907 6.90232 15.6538 6.78321 15.595 6.67462C15.5362 6.56603 15.4565 6.47009 15.3606 6.39228C15.2647 6.31446 15.1545 6.2563 15.0361 6.22111C14.9177 6.18591 14.7936 6.17438 14.6707 6.18717C14.5479 6.19995 14.4288 6.23681 14.3202 6.29563C12.3474 7.36929 10.5411 8.72401 8.95796 10.3173C8.82671 10.4487 8.73735 10.6161 8.70116 10.7982C8.66498 10.9804 8.68358 11.1692 8.75463 11.3408C8.82568 11.5124 8.94599 11.6591 9.10037 11.7624C9.25474 11.8656 9.43625 11.9208 9.62197 11.921ZM40.3985 41.6576C38.9402 43.1181 37.2774 44.3589 35.4622 45.341C35.2429 45.4598 35.0798 45.6609 35.0087 45.8999C34.9376 46.139 34.9645 46.3965 35.0832 46.6158C35.202 46.8351 35.4031 46.9983 35.6421 47.0693C35.8812 47.1404 36.1387 47.1136 36.358 46.9948C38.3342 45.9256 40.1447 44.5752 41.7328 42.9857C41.8988 42.8075 41.9891 42.5719 41.9848 42.3285C41.9805 42.0851 41.8819 41.8528 41.7098 41.6807C41.5376 41.5085 41.3054 41.4099 41.0619 41.4056C40.8185 41.4013 40.5829 41.4916 40.4048 41.6576H40.3985ZM26.2976 48.7112V46.6127C26.2976 46.4893 26.2733 46.3671 26.226 46.2531C26.1788 46.1391 26.1096 46.0355 26.0223 45.9483C25.9351 45.861 25.8315 45.7918 25.7175 45.7446C25.6035 45.6974 25.4813 45.673 25.3579 45.673C25.2345 45.673 25.1123 45.6974 24.9983 45.7446C24.8843 45.7918 24.7807 45.861 24.6935 45.9483C24.6062 46.0355 24.537 46.1391 24.4898 46.2531C24.4426 46.3671 24.4183 46.4893 24.4183 46.6127V47.8656C22.6778 47.7954 20.9526 47.5114 19.2815 47.0199C19.1631 46.9845 19.0388 46.9728 18.9158 46.9855C18.7928 46.9981 18.6736 47.0349 18.5648 47.0936C18.456 47.1524 18.3599 47.232 18.2819 47.3279C18.2038 47.4238 18.1455 47.5341 18.1101 47.6526C18.0747 47.771 18.063 47.8953 18.0757 48.0183C18.0883 48.1413 18.1251 48.2605 18.1838 48.3693C18.2426 48.4781 18.3222 48.5742 18.4181 48.6522C18.514 48.7303 18.6243 48.7886 18.7428 48.824C20.5869 49.3653 22.4913 49.6746 24.412 49.7449V51.0604C24.412 51.3096 24.511 51.5486 24.6872 51.7248C24.8634 51.901 25.1024 52 25.3516 52C25.6009 52 25.8399 51.901 26.0161 51.7248C26.1923 51.5486 26.2913 51.3096 26.2913 51.0604V48.9493C26.2938 48.9096 26.2938 48.8699 26.2913 48.8303C26.296 48.7908 26.2981 48.751 26.2976 48.7112ZM49.7762 25.6962H45.341C45.0918 25.6962 44.8528 25.7952 44.6766 25.9714C44.5004 26.1476 44.4014 26.3866 44.4014 26.6358C44.4014 26.885 44.5004 27.124 44.6766 27.3003C44.8528 27.4765 45.0918 27.5755 45.341 27.5755H46.5939C46.5235 29.3225 46.2373 31.0542 45.742 32.731C45.7066 32.8495 45.6949 32.9737 45.7075 33.0967C45.7202 33.2197 45.7569 33.339 45.8157 33.4477C45.8744 33.5565 45.954 33.6527 46.0499 33.7307C46.1459 33.8087 46.2562 33.867 46.3746 33.9024C46.6139 33.9739 46.8717 33.9473 47.0914 33.8287C47.2002 33.7699 47.2963 33.6903 47.3743 33.5944C47.4523 33.4985 47.5107 33.3882 47.5461 33.2697C48.0937 31.418 48.4073 29.5051 48.4795 27.5755H49.795C50.0442 27.5755 50.2832 27.4765 50.4594 27.3003C50.6356 27.124 50.7346 26.885 50.7346 26.6358C50.7346 26.3866 50.6356 26.1476 50.4594 25.9714C50.2832 25.7952 50.0442 25.6962 49.795 25.6962H49.7762ZM51.9937 5.38104C51.9937 5.63025 51.8947 5.86925 51.7185 6.04547C51.5423 6.22169 51.3033 6.32068 51.0541 6.32068H47.0011L45.3849 7.93687H47.5586C47.8078 7.93687 48.0468 8.03587 48.223 8.21209C48.3993 8.38831 48.4982 8.62731 48.4982 8.87652C48.4982 9.12573 48.3993 9.36473 48.223 9.54095C48.0468 9.71717 47.8078 9.81617 47.5586 9.81617H43.5056L42.3592 10.9625C43.653 12.3571 44.7702 13.9055 45.6856 15.5731C45.7496 15.6815 45.7912 15.8018 45.8079 15.9266C45.8245 16.0515 45.8159 16.1784 45.7825 16.2999C45.7491 16.4213 45.6917 16.5349 45.6136 16.6337C45.5354 16.7325 45.4382 16.8146 45.3277 16.8751C45.2173 16.9356 45.0957 16.9732 44.9704 16.9858C44.8451 16.9984 44.7185 16.9857 44.5982 16.9484C44.4779 16.911 44.3663 16.8499 44.2701 16.7686C44.1738 16.6873 44.0949 16.5875 44.0381 16.4751C43.2088 14.9637 42.1991 13.5586 41.0312 12.2906L39.2208 14.101C42.4972 17.7237 44.2281 22.4834 44.0443 27.3646C43.8606 32.2457 41.7767 36.8618 38.2372 40.228C34.6977 43.5942 29.9829 45.4439 25.0987 45.3827C20.2145 45.3214 15.5476 43.3539 12.0937 39.9C8.63979 36.4461 6.67232 31.7792 6.61105 26.895C6.54978 22.0108 8.39957 17.296 11.7658 13.7566C15.132 10.2171 19.748 8.13316 24.6292 7.94939C29.5103 7.76563 34.27 9.49657 37.8928 12.7729L40.1229 10.5428C40.1687 10.4214 40.24 10.3111 40.3318 10.2192C40.4236 10.1274 40.5339 10.0562 40.6553 10.0104L42.1776 8.48813V4.43513C42.1776 4.18592 42.2766 3.94692 42.4528 3.7707C42.629 3.59448 42.868 3.49548 43.1172 3.49548C43.3664 3.49548 43.6054 3.59448 43.7816 3.7707C43.9579 3.94692 44.0569 4.18592 44.0569 4.43513V6.60884L45.673 4.99265V0.939646C45.673 0.690436 45.772 0.451434 45.9483 0.275216C46.1245 0.098998 46.3635 0 46.6127 0C46.8619 0 47.1009 0.098998 47.2771 0.275216C47.4533 0.451434 47.5523 0.690436 47.5523 0.939646V4.44139H51.0541C51.3033 4.44139 51.5423 4.54039 51.7185 4.71661C51.8947 4.89283 51.9937 5.13183 51.9937 5.38104ZM37.8928 15.4039L34.5038 18.7929C36.5318 21.1641 37.5628 24.2285 37.3807 27.3433C37.1985 30.4582 35.8174 33.3815 33.5269 35.5002C31.2364 37.619 28.2145 38.7685 25.0949 38.7078C21.9754 38.647 19.0005 37.3807 16.7942 35.1744C14.5879 32.9682 13.3216 29.9933 13.2609 26.8737C13.2002 23.7542 14.3497 20.7323 16.4684 18.4418C18.5872 16.1513 21.5105 14.7701 24.6253 14.588C27.7402 14.4059 30.8045 15.4369 33.1758 17.4649L36.5647 14.0759C33.2952 11.1521 29.0141 9.61899 24.6318 9.80242C20.2495 9.98585 16.1115 11.8714 13.0978 15.0582C10.084 18.2449 8.43204 22.4815 8.4932 26.8673C8.55436 31.253 10.3238 35.4419 13.4253 38.5434C16.5267 41.6449 20.7157 43.4143 25.1014 43.4755C29.4871 43.5366 33.7238 41.8847 36.9105 38.8709C40.0973 35.8571 41.9828 31.7192 42.1663 27.3369C42.3497 22.9545 40.8165 18.6735 37.8928 15.4039ZM28.4024 24.9069L26.0219 27.2873C25.8438 27.4533 25.6082 27.5437 25.3648 27.5394C25.1213 27.5351 24.8891 27.4364 24.7169 27.2643C24.5448 27.0921 24.4461 26.8599 24.4418 26.6164C24.4375 26.373 24.5279 26.1374 24.6939 25.9593L27.0743 23.5788C26.3358 23.1615 25.4711 23.0258 24.6402 23.1971C23.8094 23.3683 23.0688 23.8348 22.5555 24.5102C22.0421 25.1855 21.7909 26.024 21.8484 26.8704C21.9058 27.7167 22.268 28.5136 22.8678 29.1134C23.4676 29.7132 24.2645 30.0754 25.1108 30.1328C25.9572 30.1903 26.7957 29.9391 27.4711 29.4258C28.1464 28.9124 28.6129 28.1718 28.7841 27.341C28.9554 26.5101 28.8197 25.6454 28.4024 24.9069ZM31.8415 18.8117C29.8283 17.1401 27.2483 16.3085 24.6379 16.4898C22.0274 16.6711 19.5872 17.8512 17.8244 19.7851C16.0615 21.7189 15.1116 24.2576 15.1721 26.8737C15.2326 29.4897 16.2988 31.9818 18.1491 33.8321C19.9994 35.6824 22.4915 36.7486 25.1076 36.8091C27.7236 36.8696 30.2623 35.9197 32.1961 34.1568C34.13 32.394 35.3102 29.9538 35.4914 27.3433C35.6727 24.7329 34.8411 22.1529 33.1695 20.1397L29.7617 23.5475C30.5349 24.6528 30.8658 26.0077 30.6893 27.345C30.5128 28.6822 29.8416 29.9048 28.8081 30.7716C27.7746 31.6384 26.4538 32.0865 25.1062 32.0275C23.7586 31.9685 22.4821 31.4067 21.5283 30.4529C20.5745 29.4991 20.0127 28.2226 19.9537 26.875C19.8947 25.5274 20.3428 24.2066 21.2096 23.1731C22.0764 22.1396 23.299 21.4684 24.6362 21.2919C25.9735 21.1154 27.3284 21.4463 28.4337 22.2195L31.8415 18.8117Z" fill="#155DFC"/>
</svg>
