<svg width="43" height="52" viewBox="0 0 43 52" fill="none" xmlns="http://www.w3.org/2000/svg">
<path d="M21.2503 6.87822e-06C21.132 -0.000456565 21.0148 0.0225039 20.9054 0.0675645C20.796 0.112625 20.6966 0.178894 20.613 0.262551C20.5293 0.346208 20.4631 0.445597 20.418 0.554989C20.3729 0.66438 20.35 0.781609 20.3504 0.899917V7.83482C20.3509 7.95254 20.3745 8.06902 20.42 8.1776C20.4655 8.28618 20.5319 8.38474 20.6155 8.46766C20.699 8.55057 20.7981 8.61622 20.907 8.66084C21.016 8.70546 21.1326 8.72819 21.2503 8.72773C21.4872 8.72727 21.7142 8.6331 21.8818 8.4658C22.0495 8.2985 22.1441 8.07166 22.145 7.83482V0.899917C22.1455 0.782053 22.1227 0.665254 22.0779 0.556207C22.0332 0.44716 21.9674 0.348005 21.8843 0.264417C21.8012 0.18083 21.7024 0.114451 21.5937 0.0690802C21.4849 0.0237093 21.3682 0.000237087 21.2503 6.87822e-06ZM6.34756 3.92179C6.17636 3.91512 6.00685 3.95765 5.85908 4.04434C5.65528 4.16507 5.50755 4.36156 5.44817 4.59087C5.3888 4.82018 5.42259 5.06367 5.54219 5.26814L9.0823 11.2769C9.14209 11.3787 9.22142 11.4678 9.31573 11.5389C9.41004 11.6099 9.51746 11.6617 9.63184 11.6911C9.74621 11.7206 9.86527 11.7271 9.98219 11.7104C10.0991 11.6937 10.2116 11.6541 10.3131 11.5938C10.415 11.534 10.504 11.4546 10.5751 11.3603C10.6462 11.266 10.6979 11.1586 10.7274 11.0442C10.7568 10.9299 10.7634 10.8108 10.7467 10.6939C10.73 10.577 10.6903 10.4645 10.63 10.363L7.08289 4.36124C7.00674 4.23244 6.89955 4.12475 6.77111 4.048C6.64267 3.97124 6.49706 3.92785 6.34756 3.92179ZM36.1531 3.92179C36.0036 3.92785 35.858 3.97124 35.7296 4.04799C35.6011 4.12475 35.4939 4.23244 35.4178 4.36124L31.8724 10.363C31.8121 10.4645 31.7725 10.577 31.7557 10.6939C31.739 10.8108 31.7456 10.9299 31.775 11.0442C31.8045 11.1586 31.8562 11.266 31.9273 11.3604C31.9984 11.4547 32.0875 11.534 32.1893 11.5938C32.2908 11.6541 32.4033 11.6938 32.5202 11.7105C32.6371 11.7272 32.7562 11.7206 32.8706 11.6912C32.985 11.6617 33.0924 11.61 33.1867 11.5389C33.281 11.4678 33.3603 11.3788 33.4201 11.2769L36.9602 5.26817C37.0798 5.0637 37.1136 4.82021 37.0542 4.5909C36.9949 4.36159 36.8471 4.1651 36.6434 4.04436C36.4951 3.95735 36.3249 3.91479 36.1531 3.92179ZM7.74469 15.8482C7.58827 15.8481 7.43454 15.889 7.29879 15.9667C7.16303 16.0444 7.04997 16.1563 6.97084 16.2912L0.149726 28.0075C0.143696 28.0173 0.137856 28.0273 0.13221 28.0373L0.116456 28.0638C0.0816 28.1245 0.0539846 28.1891 0.0341748 28.2563C0.0269425 28.2846 0.0210965 28.3132 0.0166585 28.3421C0.00533555 28.4015 5.76651e-05 28.462 0.000904742 28.5225C-0.000301581 28.5493 -0.000301581 28.5762 0.000904742 28.603C0.00956724 28.6785 0.027803 28.7527 0.0551734 28.8236C0.0674724 28.8547 0.0815025 28.8851 0.0971981 28.9146C0.127433 28.9752 0.164437 29.0322 0.207501 29.0845C0.21428 29.0951 0.221284 29.1056 0.228507 29.116L20.7951 51.7083C20.8791 51.8002 20.9814 51.8736 21.0953 51.9238C21.2092 51.9741 21.3324 52 21.4569 52C21.5815 52 21.7046 51.9741 21.8186 51.9238C21.9325 51.8736 22.0347 51.8002 22.1187 51.7083L42.6783 29.116C42.6996 29.0908 42.7195 29.0645 42.7379 29.0372C42.739 29.0348 42.7401 29.0325 42.7413 29.0301C42.7767 28.9819 42.8072 28.9303 42.8323 28.876C42.8334 28.8725 42.8346 28.869 42.8357 28.8655C42.8468 28.8403 42.8568 28.8146 42.8655 28.7885C42.8736 28.7637 42.8806 28.7386 42.8865 28.7132C42.9088 28.6162 42.9147 28.5162 42.9041 28.4173C42.8921 28.3015 42.8576 28.1891 42.8026 28.0864C42.7986 28.0788 42.7946 28.0712 42.7904 28.0637L35.9413 16.2914C35.8615 16.1554 35.7474 16.0429 35.6103 15.9651C35.4732 15.8873 35.318 15.8471 35.1604 15.8484L7.74469 15.8482ZM9.3064 17.6428H19.8952L14.6008 26.7347L9.3064 17.6428ZM23.0169 17.6428H33.6005L28.3113 26.7347L23.0169 17.6428ZM7.74469 18.5287L13.0391 27.6136H2.45903L7.74469 18.5287ZM21.4569 18.5287L26.7496 27.6136H16.1625L21.4569 18.5287ZM35.1604 18.5358L40.4548 27.6137H29.873L35.1604 18.5358ZM2.92124 29.4082H13.9338L19.4383 47.5517L2.92124 29.4082ZM15.8106 29.4082H27.1015L21.4569 48.0051L15.8106 29.4082ZM28.9731 29.4082H39.9909L23.4704 47.5569L28.9731 29.4082Z" fill="#155DFC"/>
</svg>
