<svg width="35" height="52" viewBox="0 0 35 52" fill="none" xmlns="http://www.w3.org/2000/svg">
<path d="M9.35357 11.2866L13.7454 14.6799C14.132 14.9804 14.6468 15.0312 15.0775 14.8191C15.5172 14.6048 15.7933 14.1674 15.7933 13.677V12.7889C17.4215 13.3081 18.6961 14.6535 19.1291 16.3081C14.4081 17.4105 10.8823 21.6521 10.8823 26.7024C10.8823 32.5875 15.6718 37.3793 21.5593 37.3793C27.4444 37.3793 32.2363 32.5898 32.2363 26.7024C32.2363 21.6522 28.7104 17.4104 23.9895 16.3081C24.4225 14.6513 25.6971 13.3081 27.3253 12.7889V13.677C27.3253 14.1674 27.597 14.607 28.041 14.8191C28.4807 15.0334 28.9866 14.9804 29.3732 14.6799L33.765 11.2866C34.0765 11.0436 34.2621 10.6747 34.2621 10.2815C34.2621 9.88384 34.0831 9.5193 33.765 9.27634L29.3732 5.88305C28.9866 5.5826 28.4718 5.53179 28.0344 5.74387C27.5948 5.95817 27.3187 6.39556 27.3187 6.886V8.13196C26.0837 8.33299 24.8886 8.77923 23.8282 9.43538V6.93017H24.9526C25.4431 6.93017 25.8827 6.65844 26.0948 6.21441C26.3091 5.77479 26.256 5.26887 25.9556 4.88226L22.5623 0.490438C22.3215 0.178945 21.9526 0 21.5549 0C21.1573 0 20.7928 0.178945 20.5498 0.497066L17.1565 4.88889C16.8561 5.27549 16.8052 5.79026 17.0173 6.22766C17.2316 6.66728 17.669 6.94341 18.1595 6.94341H19.2839V9.44862C18.2169 8.79027 17.0284 8.34626 15.7934 8.1452V6.90366C15.7934 6.41322 15.5217 5.97361 15.0843 5.76153C14.6447 5.54724 14.1387 5.60026 13.7455 5.90071L9.35369 9.294C9.0422 9.53701 8.85662 9.90592 8.85662 10.2991C8.85883 10.6813 9.03765 11.0458 9.35357 11.2866ZM30.6035 26.7069C30.6035 31.693 26.5474 35.7489 21.5615 35.7489C16.5688 35.7511 12.5105 31.6928 12.5105 26.7069C12.5105 21.721 16.5665 17.6649 21.5524 17.6649C26.5452 17.6649 30.6035 21.7165 30.6035 26.7069ZM14.1607 7.62415V8.85908C14.1607 9.28545 14.4899 9.63892 14.9118 9.67206C16.6261 9.81123 18.2764 10.5204 19.5577 11.6691C19.8007 11.8834 20.1409 11.9409 20.4348 11.8083C20.7286 11.6757 20.9186 11.3863 20.9186 11.0638V6.12408C20.9186 5.67341 20.5541 5.31111 20.1056 5.31111H18.8994L21.5592 1.86477L24.219 5.31111L23.0128 5.3089C22.5622 5.3089 22.1999 5.67341 22.1999 6.12187V11.0616C22.1999 11.3841 22.3899 11.6735 22.6837 11.8061C22.9775 11.9387 23.3177 11.8812 23.5607 11.6669C24.842 10.5182 26.4923 9.80897 28.2066 9.66985C28.6286 9.6345 28.9577 9.28324 28.9577 8.85687V7.62194L32.404 10.2818L28.9577 12.9416V11.7752C28.9577 11.5454 28.8605 11.3201 28.6816 11.1632C28.5092 11.0064 28.2729 10.9379 28.0409 10.9622C25.2662 11.298 22.9973 13.3812 22.3679 16.0521C22.1028 16.03 21.8311 16.0234 21.5549 16.0234C21.2832 16.0234 21.0115 16.0345 20.7419 16.0521C20.1123 13.3812 17.8457 11.298 15.0689 10.9622C14.8392 10.9335 14.6072 11.0086 14.4283 11.1632C14.2559 11.3201 14.1521 11.5388 14.1521 11.7752V12.9416L10.7058 10.2818L14.1607 7.62415ZM13.8603 26.7069C13.8603 30.9485 17.311 34.4057 21.5591 34.4057C25.8073 34.4057 29.2579 30.9549 29.2579 26.7069C29.2579 22.4587 25.8072 19.0081 21.5591 19.0081C17.3131 19.0103 13.8603 22.461 13.8603 26.7069ZM27.6257 26.7069C27.6257 30.0538 24.9018 32.7713 21.5614 32.7713C18.2209 32.7713 15.497 30.0474 15.497 26.7069C15.497 23.3664 18.2209 20.6425 21.5614 20.6425C24.9018 20.6425 27.6257 23.3598 27.6257 26.7069ZM21.5551 21.8025C22.0058 21.8025 22.3681 22.167 22.3681 22.6155V23.0882C22.8806 23.2142 23.349 23.5212 23.6671 23.9587C23.9322 24.3232 23.8527 24.8357 23.4816 25.0964C23.117 25.3615 22.6045 25.282 22.3438 24.9108C22.229 24.7496 22.039 24.6501 21.8424 24.6501L21.3983 24.6524C21.0581 24.6524 20.7797 24.9285 20.7797 25.2709C20.7797 25.6112 21.0559 25.8895 21.3983 25.8895H21.7208C22.9624 25.8895 23.972 26.8992 23.972 28.1407C23.972 29.1503 23.3026 30.0097 22.3792 30.2925V30.8006C22.3792 31.2512 22.0147 31.6135 21.5662 31.6135C21.1155 31.6135 20.7532 31.249 20.7532 30.8006L20.751 30.3256C20.2385 30.1997 19.7702 29.8926 19.452 29.4552C19.1869 29.0906 19.2665 28.5781 19.6376 28.3174C20.0021 28.0523 20.5147 28.1319 20.7753 28.503C20.8902 28.6643 21.0802 28.7637 21.2768 28.7637H21.7275C22.0677 28.7637 22.3461 28.4876 22.3461 28.1451C22.3461 27.8049 22.0699 27.5265 21.7275 27.5265H21.3983C20.1567 27.5265 19.1471 26.5169 19.1471 25.2753C19.1471 24.2657 19.8165 23.4064 20.7399 23.1236V22.6155C20.7399 22.1648 21.1045 21.8025 21.5551 21.8025ZM31.7395 36.3167C30.9199 36.098 30.065 36.2063 29.3382 36.6282L21.8599 40.945C21.6059 39.721 20.6935 38.6828 19.4122 38.3359L10.6529 35.9522C9.40698 35.612 8.07263 35.9522 6.79132 36.9331L4.71468 38.5259L4.70364 38.4862C4.61085 38.1393 4.39215 37.8565 4.08063 37.6776C3.77577 37.4987 3.41125 37.4523 3.07101 37.545L0.987758 38.104C0.640918 38.1968 0.358133 38.4155 0.179194 38.727C0.000248539 39.0385 -0.0461438 39.3964 0.0466401 39.7366L3.07102 51.0125C3.2323 51.6068 3.76914 52 4.35895 52C4.47382 52 4.5887 51.9823 4.70579 51.9536L6.78684 51.3903C7.13368 51.2975 7.41646 51.0788 7.5954 50.7673C7.77434 50.4558 7.82074 50.0979 7.72795 49.7576L7.65284 49.4749C8.80158 48.6487 9.8289 48.4299 11.1146 48.7238L16.1361 49.8725C16.5867 49.9763 17.0308 50.0294 17.4571 50.0294C18.3452 50.0294 19.1825 49.804 19.9557 49.36L32.5019 42.1181C34.0129 41.2477 34.5343 39.308 33.6617 37.7904C33.2397 37.0613 32.5591 36.5354 31.7395 36.3167ZM4.56436 50.2988L1.69686 39.593L3.20354 39.1887L6.07104 49.8945L4.56436 50.2988ZM31.6886 40.702L19.1425 47.9439C18.3583 48.3989 17.4922 48.5094 16.5003 48.2796L11.4789 47.1309C9.92141 46.773 8.56499 46.9807 7.20191 47.8069L5.16944 40.2252L7.77849 38.2236C8.64892 37.5542 9.46851 37.3178 10.2196 37.5189L18.9788 39.9026C19.931 40.1633 20.4899 41.1441 20.2314 42.0963C19.9707 43.0484 18.9899 43.6074 18.0377 43.3489L13.3565 42.0742C12.9235 41.9593 12.4728 42.2133 12.358 42.6463C12.2365 43.0793 12.4971 43.53 12.9301 43.6449L17.6113 44.9196C17.9052 45.0013 18.2122 45.0411 18.506 45.0411C19.0937 45.0411 19.6769 44.8842 20.2027 44.586C20.8721 44.206 21.3735 43.6272 21.6629 42.9291L30.1462 38.0291C30.4974 37.8281 30.9128 37.7684 31.3126 37.8789C31.7102 37.9827 32.0394 38.2368 32.2471 38.588C32.6734 39.3413 32.4199 40.28 31.6886 40.702Z" fill="#155DFC"/>
</svg>
