<svg width="65" height="71" viewBox="0 0 65 71" fill="none" xmlns="http://www.w3.org/2000/svg">
<mask id="path-1-outside-1_3_1243" maskUnits="userSpaceOnUse" x="-0.700195" y="-0.699951" width="66" height="72" fill="black">
<rect fill="white" x="-0.700195" y="-0.699951" width="66" height="72"/>
<path d="M23.9897 0.300087H8.66867C8.05536 0.300087 7.56414 0.797277 7.56414 1.40461V3.58097H5.38778C4.77448 3.58097 4.28325 4.07816 4.28325 4.6855V37.2947H1.40433C0.796979 37.2947 0.299805 37.7949 0.299805 38.4081V43.5319C0.299805 44.0619 0.671954 44.5204 1.19298 44.6216L6.79908 45.7261L9.0618 51.1864L5.87321 55.938C5.57846 56.3727 5.63205 56.9652 6.01313 57.3372L13.2626 64.5867C13.6348 64.9589 14.2272 65.0214 14.6619 64.7266L19.4135 61.5381L24.8737 63.8008L25.9872 69.4069C26.0884 69.9279 26.5469 70.3 27.0768 70.3H37.3272C37.8571 70.3 38.3156 69.9279 38.4168 69.4069L39.5214 63.8008L44.9816 61.5381L49.7332 64.7266C50.1768 65.0214 50.7604 64.9678 51.1325 64.5867L58.382 57.3372C58.7541 56.9651 58.8107 56.3727 58.5219 55.938L55.3333 51.1864L57.596 45.7261L63.2021 44.6216C63.7231 44.5204 64.0953 44.0619 64.0953 43.5319V38.4081C64.0953 37.7948 63.5981 37.3036 62.9908 37.3036H60.1118V26.7255C60.1118 26.2581 59.823 25.8473 59.3884 25.6835L50.1022 22.2389L48.7803 5.70375L48.7832 1.40469C48.7832 0.791385 48.2861 0.300163 47.6787 0.300163H38.9672C38.3539 0.300163 37.8627 0.797353 37.8627 1.40469V5.69781L37.0231 16.2042L32.459 18.6694V14.0339C32.459 13.6439 32.2565 13.2807 31.9231 13.0842C31.5896 12.8817 31.1699 12.8728 30.8275 13.0604L28.3862 14.3733L28.3832 4.68546C28.3832 4.07216 27.886 3.58094 27.2787 3.58094H25.1023V1.40458C25.0934 0.797223 24.5932 0.300049 23.9889 0.300049L23.9897 0.300087ZM9.77381 2.51509H22.8792V3.5809H9.77381V2.51509ZM61.8571 42.624L56.5606 43.666C56.1944 43.7375 55.8907 43.9846 55.7508 44.3269L53.0356 50.8768C52.8957 51.2192 52.9344 51.6092 53.1368 51.9189L56.1468 56.4055L50.1805 62.3718L45.6938 59.3619C45.3842 59.1505 44.9942 59.1118 44.6518 59.2606L38.1019 61.9758C37.7595 62.1158 37.5095 62.4194 37.441 62.7856L36.399 68.0821L27.9702 68.0791L26.9192 62.7827C26.8478 62.4165 26.6007 62.1128 26.2583 61.9729L19.7084 59.2577C19.366 59.1177 18.976 59.1564 18.6664 59.3589L14.1798 62.3688L8.22237 56.4025L11.2323 51.9159C11.4437 51.6063 11.4824 51.2162 11.3335 50.8739L8.61832 44.324C8.4784 43.9816 8.17472 43.7315 7.80852 43.663L2.51209 42.621V39.5188H13.5216C14.0962 49.3164 22.2476 57.111 32.1854 57.111C42.1233 57.111 50.2838 49.3194 50.8493 39.5188H61.8557L61.8571 42.624ZM40.6803 39.5128H44.6311C44.0714 45.8811 38.7035 50.898 32.1865 50.898C25.6694 50.898 20.3104 45.8815 19.7418 39.5128H40.6803ZM17.5174 39.5128C18.086 47.1047 24.4484 53.1068 32.186 53.1068C39.9236 53.1068 46.2769 47.1018 46.8546 39.5128H48.635C48.0604 48.0902 40.9028 54.8963 32.1859 54.8963C23.4691 54.8963 16.3116 48.0904 15.7369 39.522L17.5172 39.519L17.5174 39.5128ZM57.8732 37.2948H41.7817L41.7846 21.5248L48.6143 24.0614C48.6292 24.0703 48.653 24.0763 48.6768 24.0852L57.8761 27.5001L57.8732 37.2948ZM40.0782 2.51494H46.5417V4.63771H40.0782V2.51494ZM39.9948 6.85569H46.628L47.7951 21.3902L44.4755 20.1546V14.0424C44.4755 13.6524 44.273 13.2892 43.9396 13.0927C43.6061 12.8903 43.1863 12.8813 42.844 13.0689L39.3517 14.9505L39.9948 6.85569ZM30.7772 21.4854C31.1107 21.6879 31.5305 21.6968 31.8728 21.5092L42.2543 15.9031V19.3329L41.0634 18.8893C40.721 18.7642 40.3399 18.8119 40.0452 19.0203C39.7505 19.2317 39.5719 19.5651 39.5719 19.9313V37.2972L27.2698 37.2942H20.4341V21.1966L27.7997 17.222H27.8086L30.244 15.909V20.5445C30.2321 20.9256 30.4438 21.283 30.7772 21.4854ZM26.1596 15.5816L18.794 19.5562C18.4367 19.7497 18.2104 20.1248 18.2104 20.5297V37.2973H14.5872L6.48918 37.2943V5.79864H26.1622L26.1651 15.5818L26.1596 15.5816ZM14.0183 7.69475H9.50783C8.89452 7.69475 8.4033 8.19195 8.4033 8.79928V13.3098C8.4033 13.9231 8.90049 14.4143 9.50783 14.4143H14.0183C14.6316 14.4143 15.1228 13.9171 15.1228 13.3098V8.79928C15.1228 8.19193 14.6257 7.69475 14.0183 7.69475ZM12.9049 12.2052H10.6095V9.90983H12.9049V12.2052ZM28.2343 23.9113H23.4976C22.8843 23.9113 22.393 24.4085 22.393 25.0158V29.7525C22.393 30.3659 22.8902 30.8571 23.4976 30.8571H28.2343C28.8476 30.8571 29.3388 30.3599 29.3388 29.7525V25.0158C29.3477 24.4085 28.8476 23.9113 28.2343 23.9113ZM27.1297 28.648H24.611V26.1293H27.1297V28.648ZM32.0213 30.863H36.764C37.3773 30.863 37.8686 30.3658 37.8686 29.7585V25.0218C37.8686 24.4085 37.3714 23.9173 36.764 23.9173H32.0213C31.408 23.9173 30.9168 24.4145 30.9168 25.0218V29.7585C30.9168 30.3658 31.414 30.863 32.0213 30.863ZM33.1348 26.1263H35.6624V28.645H33.1348V26.1263ZM43.9986 28.1717C43.3853 28.1717 42.8941 28.6689 42.8941 29.2762V33.1495C42.8941 33.7628 43.3913 34.254 43.9986 34.254H55.6575C56.2708 34.254 56.762 33.7568 56.762 33.1495V29.2762C56.762 28.6629 56.2648 28.1717 55.6575 28.1717H43.9986ZM54.5531 32.045H45.1122V30.3896H54.5615L54.5585 32.045H54.5531ZM23.1497 7.6946H18.6392C18.0259 7.6946 17.5346 8.19179 17.5346 8.79913V13.3096C17.5346 13.9229 18.0318 14.4141 18.6392 14.4141H23.1497C23.763 14.4141 24.2542 13.917 24.2542 13.3096V8.79913C24.2542 8.19178 23.7629 7.6946 23.1497 7.6946ZM22.0362 12.2051H19.7408V9.90968H22.0362V12.2051ZM14.0182 16.3286H9.50775C8.89445 16.3286 8.40322 16.8257 8.40322 17.4331V21.9436C8.40322 22.5569 8.90042 23.0481 9.50775 23.0481H14.0182C14.6315 23.0481 15.1228 22.5509 15.1228 21.9436V17.4331C15.1228 16.8168 14.6256 16.3286 14.0182 16.3286ZM12.9048 20.839H10.6094V18.5436H12.9048V20.839ZM14.0182 24.9535H9.50775C8.89445 24.9535 8.40322 25.4507 8.40322 26.058V30.5685C8.40322 31.1818 8.90042 31.673 9.50775 31.673H14.0182C14.6315 31.673 15.1228 31.1759 15.1228 30.5685V26.058C15.1228 25.4507 14.6256 24.9535 14.0182 24.9535ZM12.9048 29.4699H10.6094V27.1745H12.9048V29.4699Z"/>
</mask>
<path d="M23.9897 0.300087H8.66867C8.05536 0.300087 7.56414 0.797277 7.56414 1.40461V3.58097H5.38778C4.77448 3.58097 4.28325 4.07816 4.28325 4.6855V37.2947H1.40433C0.796979 37.2947 0.299805 37.7949 0.299805 38.4081V43.5319C0.299805 44.0619 0.671954 44.5204 1.19298 44.6216L6.79908 45.7261L9.0618 51.1864L5.87321 55.938C5.57846 56.3727 5.63205 56.9652 6.01313 57.3372L13.2626 64.5867C13.6348 64.9589 14.2272 65.0214 14.6619 64.7266L19.4135 61.5381L24.8737 63.8008L25.9872 69.4069C26.0884 69.9279 26.5469 70.3 27.0768 70.3H37.3272C37.8571 70.3 38.3156 69.9279 38.4168 69.4069L39.5214 63.8008L44.9816 61.5381L49.7332 64.7266C50.1768 65.0214 50.7604 64.9678 51.1325 64.5867L58.382 57.3372C58.7541 56.9651 58.8107 56.3727 58.5219 55.938L55.3333 51.1864L57.596 45.7261L63.2021 44.6216C63.7231 44.5204 64.0953 44.0619 64.0953 43.5319V38.4081C64.0953 37.7948 63.5981 37.3036 62.9908 37.3036H60.1118V26.7255C60.1118 26.2581 59.823 25.8473 59.3884 25.6835L50.1022 22.2389L48.7803 5.70375L48.7832 1.40469C48.7832 0.791385 48.2861 0.300163 47.6787 0.300163H38.9672C38.3539 0.300163 37.8627 0.797353 37.8627 1.40469V5.69781L37.0231 16.2042L32.459 18.6694V14.0339C32.459 13.6439 32.2565 13.2807 31.9231 13.0842C31.5896 12.8817 31.1699 12.8728 30.8275 13.0604L28.3862 14.3733L28.3832 4.68546C28.3832 4.07216 27.886 3.58094 27.2787 3.58094H25.1023V1.40458C25.0934 0.797223 24.5932 0.300049 23.9889 0.300049L23.9897 0.300087ZM9.77381 2.51509H22.8792V3.5809H9.77381V2.51509ZM61.8571 42.624L56.5606 43.666C56.1944 43.7375 55.8907 43.9846 55.7508 44.3269L53.0356 50.8768C52.8957 51.2192 52.9344 51.6092 53.1368 51.9189L56.1468 56.4055L50.1805 62.3718L45.6938 59.3619C45.3842 59.1505 44.9942 59.1118 44.6518 59.2606L38.1019 61.9758C37.7595 62.1158 37.5095 62.4194 37.441 62.7856L36.399 68.0821L27.9702 68.0791L26.9192 62.7827C26.8478 62.4165 26.6007 62.1128 26.2583 61.9729L19.7084 59.2577C19.366 59.1177 18.976 59.1564 18.6664 59.3589L14.1798 62.3688L8.22237 56.4025L11.2323 51.9159C11.4437 51.6063 11.4824 51.2162 11.3335 50.8739L8.61832 44.324C8.4784 43.9816 8.17472 43.7315 7.80852 43.663L2.51209 42.621V39.5188H13.5216C14.0962 49.3164 22.2476 57.111 32.1854 57.111C42.1233 57.111 50.2838 49.3194 50.8493 39.5188H61.8557L61.8571 42.624ZM40.6803 39.5128H44.6311C44.0714 45.8811 38.7035 50.898 32.1865 50.898C25.6694 50.898 20.3104 45.8815 19.7418 39.5128H40.6803ZM17.5174 39.5128C18.086 47.1047 24.4484 53.1068 32.186 53.1068C39.9236 53.1068 46.2769 47.1018 46.8546 39.5128H48.635C48.0604 48.0902 40.9028 54.8963 32.1859 54.8963C23.4691 54.8963 16.3116 48.0904 15.7369 39.522L17.5172 39.519L17.5174 39.5128ZM57.8732 37.2948H41.7817L41.7846 21.5248L48.6143 24.0614C48.6292 24.0703 48.653 24.0763 48.6768 24.0852L57.8761 27.5001L57.8732 37.2948ZM40.0782 2.51494H46.5417V4.63771H40.0782V2.51494ZM39.9948 6.85569H46.628L47.7951 21.3902L44.4755 20.1546V14.0424C44.4755 13.6524 44.273 13.2892 43.9396 13.0927C43.6061 12.8903 43.1863 12.8813 42.844 13.0689L39.3517 14.9505L39.9948 6.85569ZM30.7772 21.4854C31.1107 21.6879 31.5305 21.6968 31.8728 21.5092L42.2543 15.9031V19.3329L41.0634 18.8893C40.721 18.7642 40.3399 18.8119 40.0452 19.0203C39.7505 19.2317 39.5719 19.5651 39.5719 19.9313V37.2972L27.2698 37.2942H20.4341V21.1966L27.7997 17.222H27.8086L30.244 15.909V20.5445C30.2321 20.9256 30.4438 21.283 30.7772 21.4854ZM26.1596 15.5816L18.794 19.5562C18.4367 19.7497 18.2104 20.1248 18.2104 20.5297V37.2973H14.5872L6.48918 37.2943V5.79864H26.1622L26.1651 15.5818L26.1596 15.5816ZM14.0183 7.69475H9.50783C8.89452 7.69475 8.4033 8.19195 8.4033 8.79928V13.3098C8.4033 13.9231 8.90049 14.4143 9.50783 14.4143H14.0183C14.6316 14.4143 15.1228 13.9171 15.1228 13.3098V8.79928C15.1228 8.19193 14.6257 7.69475 14.0183 7.69475ZM12.9049 12.2052H10.6095V9.90983H12.9049V12.2052ZM28.2343 23.9113H23.4976C22.8843 23.9113 22.393 24.4085 22.393 25.0158V29.7525C22.393 30.3659 22.8902 30.8571 23.4976 30.8571H28.2343C28.8476 30.8571 29.3388 30.3599 29.3388 29.7525V25.0158C29.3477 24.4085 28.8476 23.9113 28.2343 23.9113ZM27.1297 28.648H24.611V26.1293H27.1297V28.648ZM32.0213 30.863H36.764C37.3773 30.863 37.8686 30.3658 37.8686 29.7585V25.0218C37.8686 24.4085 37.3714 23.9173 36.764 23.9173H32.0213C31.408 23.9173 30.9168 24.4145 30.9168 25.0218V29.7585C30.9168 30.3658 31.414 30.863 32.0213 30.863ZM33.1348 26.1263H35.6624V28.645H33.1348V26.1263ZM43.9986 28.1717C43.3853 28.1717 42.8941 28.6689 42.8941 29.2762V33.1495C42.8941 33.7628 43.3913 34.254 43.9986 34.254H55.6575C56.2708 34.254 56.762 33.7568 56.762 33.1495V29.2762C56.762 28.6629 56.2648 28.1717 55.6575 28.1717H43.9986ZM54.5531 32.045H45.1122V30.3896H54.5615L54.5585 32.045H54.5531ZM23.1497 7.6946H18.6392C18.0259 7.6946 17.5346 8.19179 17.5346 8.79913V13.3096C17.5346 13.9229 18.0318 14.4141 18.6392 14.4141H23.1497C23.763 14.4141 24.2542 13.917 24.2542 13.3096V8.79913C24.2542 8.19178 23.7629 7.6946 23.1497 7.6946ZM22.0362 12.2051H19.7408V9.90968H22.0362V12.2051ZM14.0182 16.3286H9.50775C8.89445 16.3286 8.40322 16.8257 8.40322 17.4331V21.9436C8.40322 22.5569 8.90042 23.0481 9.50775 23.0481H14.0182C14.6315 23.0481 15.1228 22.5509 15.1228 21.9436V17.4331C15.1228 16.8168 14.6256 16.3286 14.0182 16.3286ZM12.9048 20.839H10.6094V18.5436H12.9048V20.839ZM14.0182 24.9535H9.50775C8.89445 24.9535 8.40322 25.4507 8.40322 26.058V30.5685C8.40322 31.1818 8.90042 31.673 9.50775 31.673H14.0182C14.6315 31.673 15.1228 31.1759 15.1228 30.5685V26.058C15.1228 25.4507 14.6256 24.9535 14.0182 24.9535ZM12.9048 29.4699H10.6094V27.1745H12.9048V29.4699Z" fill="#155DFC"/>
<path d="M23.9897 0.300087H8.66867C8.05536 0.300087 7.56414 0.797277 7.56414 1.40461V3.58097H5.38778C4.77448 3.58097 4.28325 4.07816 4.28325 4.6855V37.2947H1.40433C0.796979 37.2947 0.299805 37.7949 0.299805 38.4081V43.5319C0.299805 44.0619 0.671954 44.5204 1.19298 44.6216L6.79908 45.7261L9.0618 51.1864L5.87321 55.938C5.57846 56.3727 5.63205 56.9652 6.01313 57.3372L13.2626 64.5867C13.6348 64.9589 14.2272 65.0214 14.6619 64.7266L19.4135 61.5381L24.8737 63.8008L25.9872 69.4069C26.0884 69.9279 26.5469 70.3 27.0768 70.3H37.3272C37.8571 70.3 38.3156 69.9279 38.4168 69.4069L39.5214 63.8008L44.9816 61.5381L49.7332 64.7266C50.1768 65.0214 50.7604 64.9678 51.1325 64.5867L58.382 57.3372C58.7541 56.9651 58.8107 56.3727 58.5219 55.938L55.3333 51.1864L57.596 45.7261L63.2021 44.6216C63.7231 44.5204 64.0953 44.0619 64.0953 43.5319V38.4081C64.0953 37.7948 63.5981 37.3036 62.9908 37.3036H60.1118V26.7255C60.1118 26.2581 59.823 25.8473 59.3884 25.6835L50.1022 22.2389L48.7803 5.70375L48.7832 1.40469C48.7832 0.791385 48.2861 0.300163 47.6787 0.300163H38.9672C38.3539 0.300163 37.8627 0.797353 37.8627 1.40469V5.69781L37.0231 16.2042L32.459 18.6694V14.0339C32.459 13.6439 32.2565 13.2807 31.9231 13.0842C31.5896 12.8817 31.1699 12.8728 30.8275 13.0604L28.3862 14.3733L28.3832 4.68546C28.3832 4.07216 27.886 3.58094 27.2787 3.58094H25.1023V1.40458C25.0934 0.797223 24.5932 0.300049 23.9889 0.300049L23.9897 0.300087ZM9.77381 2.51509H22.8792V3.5809H9.77381V2.51509ZM61.8571 42.624L56.5606 43.666C56.1944 43.7375 55.8907 43.9846 55.7508 44.3269L53.0356 50.8768C52.8957 51.2192 52.9344 51.6092 53.1368 51.9189L56.1468 56.4055L50.1805 62.3718L45.6938 59.3619C45.3842 59.1505 44.9942 59.1118 44.6518 59.2606L38.1019 61.9758C37.7595 62.1158 37.5095 62.4194 37.441 62.7856L36.399 68.0821L27.9702 68.0791L26.9192 62.7827C26.8478 62.4165 26.6007 62.1128 26.2583 61.9729L19.7084 59.2577C19.366 59.1177 18.976 59.1564 18.6664 59.3589L14.1798 62.3688L8.22237 56.4025L11.2323 51.9159C11.4437 51.6063 11.4824 51.2162 11.3335 50.8739L8.61832 44.324C8.4784 43.9816 8.17472 43.7315 7.80852 43.663L2.51209 42.621V39.5188H13.5216C14.0962 49.3164 22.2476 57.111 32.1854 57.111C42.1233 57.111 50.2838 49.3194 50.8493 39.5188H61.8557L61.8571 42.624ZM40.6803 39.5128H44.6311C44.0714 45.8811 38.7035 50.898 32.1865 50.898C25.6694 50.898 20.3104 45.8815 19.7418 39.5128H40.6803ZM17.5174 39.5128C18.086 47.1047 24.4484 53.1068 32.186 53.1068C39.9236 53.1068 46.2769 47.1018 46.8546 39.5128H48.635C48.0604 48.0902 40.9028 54.8963 32.1859 54.8963C23.4691 54.8963 16.3116 48.0904 15.7369 39.522L17.5172 39.519L17.5174 39.5128ZM57.8732 37.2948H41.7817L41.7846 21.5248L48.6143 24.0614C48.6292 24.0703 48.653 24.0763 48.6768 24.0852L57.8761 27.5001L57.8732 37.2948ZM40.0782 2.51494H46.5417V4.63771H40.0782V2.51494ZM39.9948 6.85569H46.628L47.7951 21.3902L44.4755 20.1546V14.0424C44.4755 13.6524 44.273 13.2892 43.9396 13.0927C43.6061 12.8903 43.1863 12.8813 42.844 13.0689L39.3517 14.9505L39.9948 6.85569ZM30.7772 21.4854C31.1107 21.6879 31.5305 21.6968 31.8728 21.5092L42.2543 15.9031V19.3329L41.0634 18.8893C40.721 18.7642 40.3399 18.8119 40.0452 19.0203C39.7505 19.2317 39.5719 19.5651 39.5719 19.9313V37.2972L27.2698 37.2942H20.4341V21.1966L27.7997 17.222H27.8086L30.244 15.909V20.5445C30.2321 20.9256 30.4438 21.283 30.7772 21.4854ZM26.1596 15.5816L18.794 19.5562C18.4367 19.7497 18.2104 20.1248 18.2104 20.5297V37.2973H14.5872L6.48918 37.2943V5.79864H26.1622L26.1651 15.5818L26.1596 15.5816ZM14.0183 7.69475H9.50783C8.89452 7.69475 8.4033 8.19195 8.4033 8.79928V13.3098C8.4033 13.9231 8.90049 14.4143 9.50783 14.4143H14.0183C14.6316 14.4143 15.1228 13.9171 15.1228 13.3098V8.79928C15.1228 8.19193 14.6257 7.69475 14.0183 7.69475ZM12.9049 12.2052H10.6095V9.90983H12.9049V12.2052ZM28.2343 23.9113H23.4976C22.8843 23.9113 22.393 24.4085 22.393 25.0158V29.7525C22.393 30.3659 22.8902 30.8571 23.4976 30.8571H28.2343C28.8476 30.8571 29.3388 30.3599 29.3388 29.7525V25.0158C29.3477 24.4085 28.8476 23.9113 28.2343 23.9113ZM27.1297 28.648H24.611V26.1293H27.1297V28.648ZM32.0213 30.863H36.764C37.3773 30.863 37.8686 30.3658 37.8686 29.7585V25.0218C37.8686 24.4085 37.3714 23.9173 36.764 23.9173H32.0213C31.408 23.9173 30.9168 24.4145 30.9168 25.0218V29.7585C30.9168 30.3658 31.414 30.863 32.0213 30.863ZM33.1348 26.1263H35.6624V28.645H33.1348V26.1263ZM43.9986 28.1717C43.3853 28.1717 42.8941 28.6689 42.8941 29.2762V33.1495C42.8941 33.7628 43.3913 34.254 43.9986 34.254H55.6575C56.2708 34.254 56.762 33.7568 56.762 33.1495V29.2762C56.762 28.6629 56.2648 28.1717 55.6575 28.1717H43.9986ZM54.5531 32.045H45.1122V30.3896H54.5615L54.5585 32.045H54.5531ZM23.1497 7.6946H18.6392C18.0259 7.6946 17.5346 8.19179 17.5346 8.79913V13.3096C17.5346 13.9229 18.0318 14.4141 18.6392 14.4141H23.1497C23.763 14.4141 24.2542 13.917 24.2542 13.3096V8.79913C24.2542 8.19178 23.7629 7.6946 23.1497 7.6946ZM22.0362 12.2051H19.7408V9.90968H22.0362V12.2051ZM14.0182 16.3286H9.50775C8.89445 16.3286 8.40322 16.8257 8.40322 17.4331V21.9436C8.40322 22.5569 8.90042 23.0481 9.50775 23.0481H14.0182C14.6315 23.0481 15.1228 22.5509 15.1228 21.9436V17.4331C15.1228 16.8168 14.6256 16.3286 14.0182 16.3286ZM12.9048 20.839H10.6094V18.5436H12.9048V20.839ZM14.0182 24.9535H9.50775C8.89445 24.9535 8.40322 25.4507 8.40322 26.058V30.5685C8.40322 31.1818 8.90042 31.673 9.50775 31.673H14.0182C14.6315 31.673 15.1228 31.1759 15.1228 30.5685V26.058C15.1228 25.4507 14.6256 24.9535 14.0182 24.9535ZM12.9048 29.4699H10.6094V27.1745H12.9048V29.4699Z" stroke="#155DFC" stroke-width="0.6" mask="url(#path-1-outside-1_3_1243)"/>
</svg>
