<svg width="64" height="71" viewBox="0 0 64 71" fill="none" xmlns="http://www.w3.org/2000/svg">
<mask id="path-1-outside-1_3_1258" maskUnits="userSpaceOnUse" x="-0.5" y="-0.5" width="64" height="72" fill="black">
<rect fill="white" x="-0.5" y="-0.5" width="64" height="72"/>
<path d="M60.4589 11.1002H55.2694C53.8991 11.1002 52.7871 12.2123 52.7871 13.5826V15.1534H45.6986C45.3948 15.1534 45.1061 15.287 44.9117 15.521L37.2277 24.7062C36.0336 23.8403 34.6208 23.266 33.0865 23.0868V10.6511H34.6543C36.0245 10.6511 37.1366 9.53906 37.1366 8.16878V2.98232C37.1366 1.61204 36.0215 0.5 34.6543 0.5H29.4648C28.0975 0.5 26.9824 1.61204 26.9824 2.98232V8.17182C26.9824 9.53906 28.0975 10.6541 29.4648 10.6541H31.0356V23.0898C29.2733 23.2934 27.6691 24.0196 26.3808 25.1104L26.1438 24.8855C26.1043 24.8308 26.0587 24.7762 26.0101 24.7275L15.8713 15.099C16.2602 14.5065 16.4881 13.8016 16.4881 13.042C16.4881 10.9729 14.8048 9.29274 12.7388 9.29274C10.6696 9.29274 8.98949 10.976 8.98949 13.042C8.98949 15.1081 10.6697 16.7913 12.7388 16.7913C13.3009 16.7913 13.8326 16.6668 14.3126 16.445L23.5064 25.1775C23.5459 25.2292 23.5854 25.2778 23.634 25.3233L24.9739 26.5964C24.0777 27.8057 23.4851 29.2489 23.2998 30.8136L10.6541 30.8167V29.2489C10.6541 27.8786 9.54209 26.7666 8.17182 26.7666H2.98232C1.61508 26.7666 0.5 27.8786 0.5 29.2489V34.4384C0.5 35.8056 1.61204 36.9207 2.98232 36.9207H8.17182C9.54209 36.9207 10.6541 35.8087 10.6541 34.4384V32.8676H23.2998C23.4639 34.2592 23.9622 35.5718 24.7157 36.7081L15.8774 49.059H10.8976C10.451 47.4882 9.0047 46.3336 7.2911 46.3336C5.22196 46.3336 3.5418 48.0169 3.5418 50.0829C3.5418 52.152 5.22507 53.8322 7.2911 53.8322C9.00167 53.8322 10.451 52.6776 10.8976 51.1068H16.403C16.7342 51.1068 17.0441 50.9488 17.2386 50.6784L26.0893 38.3181C26.8914 39.0625 27.8364 39.6611 28.8846 40.0652V49.2014L28.3377 48.0468C27.6389 46.5732 25.9861 45.8106 24.4092 46.233C22.6621 46.7009 21.5956 48.451 21.9845 50.2193L23.9017 58.9634C24.1083 59.9114 24.4881 60.8047 25.0228 61.616L29.5287 68.4461H27.3928C26.8276 68.4461 26.3689 68.9049 26.3689 69.473C26.3689 70.0382 26.8276 70.497 27.3928 70.497L50.9823 70.5C51.5475 70.5 52.0062 70.0412 52.0062 69.4761C52.0062 68.9079 51.5475 68.4491 50.9823 68.4491H48.3329V64.6238L49.9797 61.6463C50.5297 60.6498 50.8213 59.5225 50.8213 58.3831V57.0766C50.8213 57.0736 50.8244 57.0706 50.8244 57.0645V48.9153C50.8244 47.0133 49.2778 45.4668 47.3758 45.4668H47.2513C46.6162 45.4668 46.0208 45.64 45.5103 45.9408C44.9512 44.7892 43.7693 43.9902 42.4051 43.9902H42.2805C41.6972 43.9902 41.1503 44.136 40.6672 44.3912C40.178 43.0787 38.9141 42.1399 37.4344 42.1399H37.3098C36.8116 42.1399 36.3406 42.2462 35.9122 42.4376V39.7943C38.2183 38.8494 39.5703 36.4734 39.5703 36.4734C40.4302 35.0849 40.8829 33.4806 40.8829 31.843C40.8829 29.6493 40.0747 27.638 38.7439 26.0945L46.1818 17.201H52.7901V18.7687C52.7901 20.139 53.9052 21.251 55.2725 21.251H60.462C61.8322 21.251 62.9443 20.139 62.9443 18.7687V13.5792C62.9382 12.215 61.8261 11.1002 60.4589 11.1002ZM12.7384 14.7432C11.8026 14.7432 11.04 13.9806 11.04 13.0448C11.04 12.109 11.8026 11.3463 12.7384 11.3463C13.6772 11.3463 14.4368 12.109 14.4368 13.0448C14.4368 13.9775 13.6742 14.7432 12.7384 14.7432ZM8.60626 34.4375C8.60626 34.6745 8.41485 34.8689 8.17481 34.8689H2.98531C2.74832 34.8689 2.55387 34.6775 2.55387 34.4375V29.248C2.55387 29.011 2.74528 28.8165 2.98531 28.8165H8.17481C8.4118 28.8165 8.60626 29.0079 8.60626 29.248V34.4375ZM7.29066 51.7835C6.35184 51.7835 5.59223 51.0209 5.59223 50.0851C5.59223 49.1463 6.35485 48.3867 7.29066 48.3867C8.22648 48.3867 8.9891 49.1493 8.9891 50.0851C8.9891 51.0209 8.22648 51.7835 7.29066 51.7835ZM29.4646 8.59926C29.2276 8.59926 29.0332 8.40785 29.0332 8.16781V2.98135C29.0332 2.74435 29.2246 2.5499 29.4646 2.5499H34.6541C34.8911 2.5499 35.0855 2.74131 35.0855 2.98135V8.17085C35.0855 8.40784 34.8941 8.60229 34.6541 8.60229L29.4646 8.59926ZM37.3034 44.1905H37.428C38.1997 44.1905 38.8256 44.8164 38.8256 45.5882V53.6759C38.8256 54.241 39.2844 54.6998 39.8496 54.6998C40.4177 54.6998 40.8765 54.241 40.8765 53.6759V47.4382C40.8765 46.6695 41.5024 46.0405 42.2742 46.0405H42.3987C43.1674 46.0405 43.7964 46.6664 43.7964 47.4382V53.6759C43.7964 54.241 44.2552 54.6998 44.8233 54.6998C45.3885 54.6998 45.8473 54.241 45.8473 53.6759V48.9148C45.8473 48.143 46.4732 47.5171 47.2449 47.5171H47.3695C48.1412 47.5171 48.7671 48.143 48.7671 48.9148V58.3855C48.7671 59.1784 48.5636 59.9623 48.1807 60.6551L46.4064 63.8636C46.3213 64.0155 46.2788 64.1857 46.2788 64.3619V68.4545H31.9833L26.7331 60.4912C26.3381 59.8897 26.0586 59.2303 25.9067 58.5285L23.9895 49.7843C23.8376 49.0885 24.2569 48.4019 24.9436 48.2196C25.5634 48.0525 26.2105 48.3533 26.484 48.9306L28.8843 53.9894V56.4261C28.8843 56.9913 29.3431 57.45 29.9112 57.45C30.4764 57.45 30.9351 56.9913 30.9351 56.4261L30.9321 38.0324C30.9321 37.2606 31.558 36.6347 32.3298 36.6347H32.4543C33.2261 36.6347 33.852 37.2606 33.852 38.0324V53.6765C33.852 54.2417 34.3108 54.7005 34.8759 54.7005C35.4441 54.7005 35.9029 54.2417 35.9029 53.6765L35.9059 45.5888C35.9059 44.8201 36.5317 44.1905 37.3034 44.1905ZM38.8286 31.8427C38.8286 33.1006 38.4792 34.3311 37.8199 35.3945C37.7925 35.4401 37.7682 35.4857 37.75 35.5343C37.2943 36.3819 36.4101 37.102 35.8632 37.494C35.6049 35.8442 34.1769 34.5802 32.4542 34.5802H32.3296C30.4975 34.5802 28.9935 36.0174 28.8871 37.8221C26.7177 36.6645 25.2898 34.3706 25.2898 31.8427V31.8396C25.2898 28.1085 28.325 25.0733 32.0561 25.0733H32.0592H32.0622C35.7933 25.0763 38.8286 28.1116 38.8286 31.8427ZM60.8867 18.7684C60.8867 19.0054 60.6953 19.1999 60.4552 19.1999H55.2657C55.0287 19.1999 54.8343 19.0084 54.8343 18.7684V13.5789C54.8343 13.3419 55.0257 13.1475 55.2657 13.1475H60.4552C60.6922 13.1475 60.8867 13.3389 60.8867 13.5789V18.7684ZM53.8134 32.9635C51.7442 32.9635 50.0641 34.6468 50.0641 36.7128C50.0641 38.7789 51.7474 40.4621 53.8134 40.4621C55.8794 40.4621 57.5627 38.7819 57.5627 36.7128C57.5627 34.6468 55.8794 32.9635 53.8134 32.9635ZM53.8134 38.4113C52.8746 38.4113 52.115 37.6486 52.115 36.7128C52.115 35.774 52.8776 35.0144 53.8134 35.0144C54.7492 35.0144 55.5118 35.777 55.5118 36.7128C55.5118 37.6516 54.7492 38.4113 53.8134 38.4113Z"/>
</mask>
<path d="M60.4589 11.1002H55.2694C53.8991 11.1002 52.7871 12.2123 52.7871 13.5826V15.1534H45.6986C45.3948 15.1534 45.1061 15.287 44.9117 15.521L37.2277 24.7062C36.0336 23.8403 34.6208 23.266 33.0865 23.0868V10.6511H34.6543C36.0245 10.6511 37.1366 9.53906 37.1366 8.16878V2.98232C37.1366 1.61204 36.0215 0.5 34.6543 0.5H29.4648C28.0975 0.5 26.9824 1.61204 26.9824 2.98232V8.17182C26.9824 9.53906 28.0975 10.6541 29.4648 10.6541H31.0356V23.0898C29.2733 23.2934 27.6691 24.0196 26.3808 25.1104L26.1438 24.8855C26.1043 24.8308 26.0587 24.7762 26.0101 24.7275L15.8713 15.099C16.2602 14.5065 16.4881 13.8016 16.4881 13.042C16.4881 10.9729 14.8048 9.29274 12.7388 9.29274C10.6696 9.29274 8.98949 10.976 8.98949 13.042C8.98949 15.1081 10.6697 16.7913 12.7388 16.7913C13.3009 16.7913 13.8326 16.6668 14.3126 16.445L23.5064 25.1775C23.5459 25.2292 23.5854 25.2778 23.634 25.3233L24.9739 26.5964C24.0777 27.8057 23.4851 29.2489 23.2998 30.8136L10.6541 30.8167V29.2489C10.6541 27.8786 9.54209 26.7666 8.17182 26.7666H2.98232C1.61508 26.7666 0.5 27.8786 0.5 29.2489V34.4384C0.5 35.8056 1.61204 36.9207 2.98232 36.9207H8.17182C9.54209 36.9207 10.6541 35.8087 10.6541 34.4384V32.8676H23.2998C23.4639 34.2592 23.9622 35.5718 24.7157 36.7081L15.8774 49.059H10.8976C10.451 47.4882 9.0047 46.3336 7.2911 46.3336C5.22196 46.3336 3.5418 48.0169 3.5418 50.0829C3.5418 52.152 5.22507 53.8322 7.2911 53.8322C9.00167 53.8322 10.451 52.6776 10.8976 51.1068H16.403C16.7342 51.1068 17.0441 50.9488 17.2386 50.6784L26.0893 38.3181C26.8914 39.0625 27.8364 39.6611 28.8846 40.0652V49.2014L28.3377 48.0468C27.6389 46.5732 25.9861 45.8106 24.4092 46.233C22.6621 46.7009 21.5956 48.451 21.9845 50.2193L23.9017 58.9634C24.1083 59.9114 24.4881 60.8047 25.0228 61.616L29.5287 68.4461H27.3928C26.8276 68.4461 26.3689 68.9049 26.3689 69.473C26.3689 70.0382 26.8276 70.497 27.3928 70.497L50.9823 70.5C51.5475 70.5 52.0062 70.0412 52.0062 69.4761C52.0062 68.9079 51.5475 68.4491 50.9823 68.4491H48.3329V64.6238L49.9797 61.6463C50.5297 60.6498 50.8213 59.5225 50.8213 58.3831V57.0766C50.8213 57.0736 50.8244 57.0706 50.8244 57.0645V48.9153C50.8244 47.0133 49.2778 45.4668 47.3758 45.4668H47.2513C46.6162 45.4668 46.0208 45.64 45.5103 45.9408C44.9512 44.7892 43.7693 43.9902 42.4051 43.9902H42.2805C41.6972 43.9902 41.1503 44.136 40.6672 44.3912C40.178 43.0787 38.9141 42.1399 37.4344 42.1399H37.3098C36.8116 42.1399 36.3406 42.2462 35.9122 42.4376V39.7943C38.2183 38.8494 39.5703 36.4734 39.5703 36.4734C40.4302 35.0849 40.8829 33.4806 40.8829 31.843C40.8829 29.6493 40.0747 27.638 38.7439 26.0945L46.1818 17.201H52.7901V18.7687C52.7901 20.139 53.9052 21.251 55.2725 21.251H60.462C61.8322 21.251 62.9443 20.139 62.9443 18.7687V13.5792C62.9382 12.215 61.8261 11.1002 60.4589 11.1002ZM12.7384 14.7432C11.8026 14.7432 11.04 13.9806 11.04 13.0448C11.04 12.109 11.8026 11.3463 12.7384 11.3463C13.6772 11.3463 14.4368 12.109 14.4368 13.0448C14.4368 13.9775 13.6742 14.7432 12.7384 14.7432ZM8.60626 34.4375C8.60626 34.6745 8.41485 34.8689 8.17481 34.8689H2.98531C2.74832 34.8689 2.55387 34.6775 2.55387 34.4375V29.248C2.55387 29.011 2.74528 28.8165 2.98531 28.8165H8.17481C8.4118 28.8165 8.60626 29.0079 8.60626 29.248V34.4375ZM7.29066 51.7835C6.35184 51.7835 5.59223 51.0209 5.59223 50.0851C5.59223 49.1463 6.35485 48.3867 7.29066 48.3867C8.22648 48.3867 8.9891 49.1493 8.9891 50.0851C8.9891 51.0209 8.22648 51.7835 7.29066 51.7835ZM29.4646 8.59926C29.2276 8.59926 29.0332 8.40785 29.0332 8.16781V2.98135C29.0332 2.74435 29.2246 2.5499 29.4646 2.5499H34.6541C34.8911 2.5499 35.0855 2.74131 35.0855 2.98135V8.17085C35.0855 8.40784 34.8941 8.60229 34.6541 8.60229L29.4646 8.59926ZM37.3034 44.1905H37.428C38.1997 44.1905 38.8256 44.8164 38.8256 45.5882V53.6759C38.8256 54.241 39.2844 54.6998 39.8496 54.6998C40.4177 54.6998 40.8765 54.241 40.8765 53.6759V47.4382C40.8765 46.6695 41.5024 46.0405 42.2742 46.0405H42.3987C43.1674 46.0405 43.7964 46.6664 43.7964 47.4382V53.6759C43.7964 54.241 44.2552 54.6998 44.8233 54.6998C45.3885 54.6998 45.8473 54.241 45.8473 53.6759V48.9148C45.8473 48.143 46.4732 47.5171 47.2449 47.5171H47.3695C48.1412 47.5171 48.7671 48.143 48.7671 48.9148V58.3855C48.7671 59.1784 48.5636 59.9623 48.1807 60.6551L46.4064 63.8636C46.3213 64.0155 46.2788 64.1857 46.2788 64.3619V68.4545H31.9833L26.7331 60.4912C26.3381 59.8897 26.0586 59.2303 25.9067 58.5285L23.9895 49.7843C23.8376 49.0885 24.2569 48.4019 24.9436 48.2196C25.5634 48.0525 26.2105 48.3533 26.484 48.9306L28.8843 53.9894V56.4261C28.8843 56.9913 29.3431 57.45 29.9112 57.45C30.4764 57.45 30.9351 56.9913 30.9351 56.4261L30.9321 38.0324C30.9321 37.2606 31.558 36.6347 32.3298 36.6347H32.4543C33.2261 36.6347 33.852 37.2606 33.852 38.0324V53.6765C33.852 54.2417 34.3108 54.7005 34.8759 54.7005C35.4441 54.7005 35.9029 54.2417 35.9029 53.6765L35.9059 45.5888C35.9059 44.8201 36.5317 44.1905 37.3034 44.1905ZM38.8286 31.8427C38.8286 33.1006 38.4792 34.3311 37.8199 35.3945C37.7925 35.4401 37.7682 35.4857 37.75 35.5343C37.2943 36.3819 36.4101 37.102 35.8632 37.494C35.6049 35.8442 34.1769 34.5802 32.4542 34.5802H32.3296C30.4975 34.5802 28.9935 36.0174 28.8871 37.8221C26.7177 36.6645 25.2898 34.3706 25.2898 31.8427V31.8396C25.2898 28.1085 28.325 25.0733 32.0561 25.0733H32.0592H32.0622C35.7933 25.0763 38.8286 28.1116 38.8286 31.8427ZM60.8867 18.7684C60.8867 19.0054 60.6953 19.1999 60.4552 19.1999H55.2657C55.0287 19.1999 54.8343 19.0084 54.8343 18.7684V13.5789C54.8343 13.3419 55.0257 13.1475 55.2657 13.1475H60.4552C60.6922 13.1475 60.8867 13.3389 60.8867 13.5789V18.7684ZM53.8134 32.9635C51.7442 32.9635 50.0641 34.6468 50.0641 36.7128C50.0641 38.7789 51.7474 40.4621 53.8134 40.4621C55.8794 40.4621 57.5627 38.7819 57.5627 36.7128C57.5627 34.6468 55.8794 32.9635 53.8134 32.9635ZM53.8134 38.4113C52.8746 38.4113 52.115 37.6486 52.115 36.7128C52.115 35.774 52.8776 35.0144 53.8134 35.0144C54.7492 35.0144 55.5118 35.777 55.5118 36.7128C55.5118 37.6516 54.7492 38.4113 53.8134 38.4113Z" fill="#155DFC"/>
<path d="M60.4589 11.1002H55.2694C53.8991 11.1002 52.7871 12.2123 52.7871 13.5826V15.1534H45.6986C45.3948 15.1534 45.1061 15.287 44.9117 15.521L37.2277 24.7062C36.0336 23.8403 34.6208 23.266 33.0865 23.0868V10.6511H34.6543C36.0245 10.6511 37.1366 9.53906 37.1366 8.16878V2.98232C37.1366 1.61204 36.0215 0.5 34.6543 0.5H29.4648C28.0975 0.5 26.9824 1.61204 26.9824 2.98232V8.17182C26.9824 9.53906 28.0975 10.6541 29.4648 10.6541H31.0356V23.0898C29.2733 23.2934 27.6691 24.0196 26.3808 25.1104L26.1438 24.8855C26.1043 24.8308 26.0587 24.7762 26.0101 24.7275L15.8713 15.099C16.2602 14.5065 16.4881 13.8016 16.4881 13.042C16.4881 10.9729 14.8048 9.29274 12.7388 9.29274C10.6696 9.29274 8.98949 10.976 8.98949 13.042C8.98949 15.1081 10.6697 16.7913 12.7388 16.7913C13.3009 16.7913 13.8326 16.6668 14.3126 16.445L23.5064 25.1775C23.5459 25.2292 23.5854 25.2778 23.634 25.3233L24.9739 26.5964C24.0777 27.8057 23.4851 29.2489 23.2998 30.8136L10.6541 30.8167V29.2489C10.6541 27.8786 9.54209 26.7666 8.17182 26.7666H2.98232C1.61508 26.7666 0.5 27.8786 0.5 29.2489V34.4384C0.5 35.8056 1.61204 36.9207 2.98232 36.9207H8.17182C9.54209 36.9207 10.6541 35.8087 10.6541 34.4384V32.8676H23.2998C23.4639 34.2592 23.9622 35.5718 24.7157 36.7081L15.8774 49.059H10.8976C10.451 47.4882 9.0047 46.3336 7.2911 46.3336C5.22196 46.3336 3.5418 48.0169 3.5418 50.0829C3.5418 52.152 5.22507 53.8322 7.2911 53.8322C9.00167 53.8322 10.451 52.6776 10.8976 51.1068H16.403C16.7342 51.1068 17.0441 50.9488 17.2386 50.6784L26.0893 38.3181C26.8914 39.0625 27.8364 39.6611 28.8846 40.0652V49.2014L28.3377 48.0468C27.6389 46.5732 25.9861 45.8106 24.4092 46.233C22.6621 46.7009 21.5956 48.451 21.9845 50.2193L23.9017 58.9634C24.1083 59.9114 24.4881 60.8047 25.0228 61.616L29.5287 68.4461H27.3928C26.8276 68.4461 26.3689 68.9049 26.3689 69.473C26.3689 70.0382 26.8276 70.497 27.3928 70.497L50.9823 70.5C51.5475 70.5 52.0062 70.0412 52.0062 69.4761C52.0062 68.9079 51.5475 68.4491 50.9823 68.4491H48.3329V64.6238L49.9797 61.6463C50.5297 60.6498 50.8213 59.5225 50.8213 58.3831V57.0766C50.8213 57.0736 50.8244 57.0706 50.8244 57.0645V48.9153C50.8244 47.0133 49.2778 45.4668 47.3758 45.4668H47.2513C46.6162 45.4668 46.0208 45.64 45.5103 45.9408C44.9512 44.7892 43.7693 43.9902 42.4051 43.9902H42.2805C41.6972 43.9902 41.1503 44.136 40.6672 44.3912C40.178 43.0787 38.9141 42.1399 37.4344 42.1399H37.3098C36.8116 42.1399 36.3406 42.2462 35.9122 42.4376V39.7943C38.2183 38.8494 39.5703 36.4734 39.5703 36.4734C40.4302 35.0849 40.8829 33.4806 40.8829 31.843C40.8829 29.6493 40.0747 27.638 38.7439 26.0945L46.1818 17.201H52.7901V18.7687C52.7901 20.139 53.9052 21.251 55.2725 21.251H60.462C61.8322 21.251 62.9443 20.139 62.9443 18.7687V13.5792C62.9382 12.215 61.8261 11.1002 60.4589 11.1002ZM12.7384 14.7432C11.8026 14.7432 11.04 13.9806 11.04 13.0448C11.04 12.109 11.8026 11.3463 12.7384 11.3463C13.6772 11.3463 14.4368 12.109 14.4368 13.0448C14.4368 13.9775 13.6742 14.7432 12.7384 14.7432ZM8.60626 34.4375C8.60626 34.6745 8.41485 34.8689 8.17481 34.8689H2.98531C2.74832 34.8689 2.55387 34.6775 2.55387 34.4375V29.248C2.55387 29.011 2.74528 28.8165 2.98531 28.8165H8.17481C8.4118 28.8165 8.60626 29.0079 8.60626 29.248V34.4375ZM7.29066 51.7835C6.35184 51.7835 5.59223 51.0209 5.59223 50.0851C5.59223 49.1463 6.35485 48.3867 7.29066 48.3867C8.22648 48.3867 8.9891 49.1493 8.9891 50.0851C8.9891 51.0209 8.22648 51.7835 7.29066 51.7835ZM29.4646 8.59926C29.2276 8.59926 29.0332 8.40785 29.0332 8.16781V2.98135C29.0332 2.74435 29.2246 2.5499 29.4646 2.5499H34.6541C34.8911 2.5499 35.0855 2.74131 35.0855 2.98135V8.17085C35.0855 8.40784 34.8941 8.60229 34.6541 8.60229L29.4646 8.59926ZM37.3034 44.1905H37.428C38.1997 44.1905 38.8256 44.8164 38.8256 45.5882V53.6759C38.8256 54.241 39.2844 54.6998 39.8496 54.6998C40.4177 54.6998 40.8765 54.241 40.8765 53.6759V47.4382C40.8765 46.6695 41.5024 46.0405 42.2742 46.0405H42.3987C43.1674 46.0405 43.7964 46.6664 43.7964 47.4382V53.6759C43.7964 54.241 44.2552 54.6998 44.8233 54.6998C45.3885 54.6998 45.8473 54.241 45.8473 53.6759V48.9148C45.8473 48.143 46.4732 47.5171 47.2449 47.5171H47.3695C48.1412 47.5171 48.7671 48.143 48.7671 48.9148V58.3855C48.7671 59.1784 48.5636 59.9623 48.1807 60.6551L46.4064 63.8636C46.3213 64.0155 46.2788 64.1857 46.2788 64.3619V68.4545H31.9833L26.7331 60.4912C26.3381 59.8897 26.0586 59.2303 25.9067 58.5285L23.9895 49.7843C23.8376 49.0885 24.2569 48.4019 24.9436 48.2196C25.5634 48.0525 26.2105 48.3533 26.484 48.9306L28.8843 53.9894V56.4261C28.8843 56.9913 29.3431 57.45 29.9112 57.45C30.4764 57.45 30.9351 56.9913 30.9351 56.4261L30.9321 38.0324C30.9321 37.2606 31.558 36.6347 32.3298 36.6347H32.4543C33.2261 36.6347 33.852 37.2606 33.852 38.0324V53.6765C33.852 54.2417 34.3108 54.7005 34.8759 54.7005C35.4441 54.7005 35.9029 54.2417 35.9029 53.6765L35.9059 45.5888C35.9059 44.8201 36.5317 44.1905 37.3034 44.1905ZM38.8286 31.8427C38.8286 33.1006 38.4792 34.3311 37.8199 35.3945C37.7925 35.4401 37.7682 35.4857 37.75 35.5343C37.2943 36.3819 36.4101 37.102 35.8632 37.494C35.6049 35.8442 34.1769 34.5802 32.4542 34.5802H32.3296C30.4975 34.5802 28.9935 36.0174 28.8871 37.8221C26.7177 36.6645 25.2898 34.3706 25.2898 31.8427V31.8396C25.2898 28.1085 28.325 25.0733 32.0561 25.0733H32.0592H32.0622C35.7933 25.0763 38.8286 28.1116 38.8286 31.8427ZM60.8867 18.7684C60.8867 19.0054 60.6953 19.1999 60.4552 19.1999H55.2657C55.0287 19.1999 54.8343 19.0084 54.8343 18.7684V13.5789C54.8343 13.3419 55.0257 13.1475 55.2657 13.1475H60.4552C60.6922 13.1475 60.8867 13.3389 60.8867 13.5789V18.7684ZM53.8134 32.9635C51.7442 32.9635 50.0641 34.6468 50.0641 36.7128C50.0641 38.7789 51.7474 40.4621 53.8134 40.4621C55.8794 40.4621 57.5627 38.7819 57.5627 36.7128C57.5627 34.6468 55.8794 32.9635 53.8134 32.9635ZM53.8134 38.4113C52.8746 38.4113 52.115 37.6486 52.115 36.7128C52.115 35.774 52.8776 35.0144 53.8134 35.0144C54.7492 35.0144 55.5118 35.777 55.5118 36.7128C55.5118 37.6516 54.7492 38.4113 53.8134 38.4113Z" stroke="#155DFC" mask="url(#path-1-outside-1_3_1258)"/>
</svg>
