<svg width="53" height="70" viewBox="0 0 53 70" fill="none" xmlns="http://www.w3.org/2000/svg">
<path fill-rule="evenodd" clip-rule="evenodd" d="M37.6681 0.283141C38.5296 0.770019 38.957 1.77462 38.7103 2.73294L32.6559 26.25H50.3125C51.2249 26.25 52.0415 26.8164 52.3614 27.671C52.6812 28.5257 52.4368 29.4891 51.7484 30.0878L6.4904 69.4628C5.71747 70.1354 4.58135 70.1811 3.75666 69.5732C2.93195 68.9656 2.63968 67.8666 3.05333 66.9292L15.214 39.375H2.18756C1.30621 39.375 0.510951 38.8461 0.170184 38.0332C-0.170583 37.2206 0.00971154 36.2826 0.627544 35.6541L35.0318 0.654095C35.7254 -0.0516176 36.8065 -0.203736 37.6681 0.283141ZM7.40521 35H18.5705C19.31 35 19.9994 35.3737 20.4032 35.9932C20.8069 36.6127 20.8704 37.3942 20.5718 38.0708L11.0132 59.7288L44.4656 30.625H29.8338C29.1575 30.625 28.5194 30.3122 28.1048 29.7778C27.6905 29.2432 27.5468 28.5471 27.7155 27.8922L32.4431 9.52866L7.40521 35Z" fill="#155DFC"/>
</svg>
