<svg width="70" height="70" viewBox="0 0 70 70" fill="none" xmlns="http://www.w3.org/2000/svg">
<path fill-rule="evenodd" clip-rule="evenodd" d="M35.0008 0C33.8697 0 32.7417 0.0531191 31.6168 0.162478C30.8888 0.234345 30.292 0.771786 30.1451 1.48729L29.3108 5.54308C27.9172 5.8118 26.5424 6.18051 25.1988 6.64608L22.4522 3.55266C21.9648 3.00585 21.1805 2.83712 20.5149 3.14021C18.4558 4.07763 16.4904 5.2087 14.65 6.52424C14.0563 6.94919 13.8094 7.71163 14.0407 8.40531L15.3467 12.333C14.275 13.2642 13.2657 14.2703 12.3346 15.3452L8.40688 14.0391C7.7132 13.8079 6.9508 14.0516 6.5258 14.6484C5.21035 16.4888 4.0792 18.4573 3.14178 20.5133C2.83869 21.1789 3.00742 21.9632 3.55423 22.4506L6.64765 25.1972C6.18207 26.5377 5.81334 27.9156 5.54465 29.3092L1.48886 30.1436C0.773314 30.2904 0.235878 30.8872 0.164046 31.6152C-0.0546819 33.8681 -0.0546819 36.1335 0.164046 38.3832C0.235912 39.1113 0.773354 39.708 1.48886 39.8549L5.54465 40.6892C5.81337 42.0828 6.18208 43.4576 6.64765 44.8012L3.55423 47.5478C3.00742 48.0352 2.83869 48.8195 3.14178 49.4851C4.0792 51.5442 5.21027 53.5096 6.5258 55.35C6.95076 55.9437 7.71319 56.1906 8.40688 55.9594L12.3346 54.6533C13.2658 55.725 14.2719 56.7343 15.3467 57.6654L14.0407 61.5931C13.8094 62.2868 14.0532 63.0492 14.65 63.4742C16.4904 64.7897 18.4589 65.9208 20.5149 66.8582C21.1805 67.1613 21.9648 66.9926 22.4522 66.4458L25.1988 63.3524C26.5393 63.8179 27.9172 64.1867 29.3108 64.4554L30.1451 68.5111C30.292 69.2267 30.8888 69.7641 31.6168 69.836C33.8697 70.0547 36.135 70.0547 38.3848 69.836C39.1128 69.7641 39.7096 69.2267 39.8564 68.5111L40.6908 64.4554C42.0844 64.1866 43.4592 63.8179 44.8028 63.3524L47.5494 66.4458C48.0368 66.9926 48.8211 67.1613 49.4867 66.8582C51.5458 65.9208 53.5112 64.7897 55.3516 63.4742C55.9453 63.0492 56.1922 62.2868 55.9609 61.5931L54.6548 57.6654C55.7265 56.7342 56.7359 55.7281 57.667 54.6533L61.5947 55.9594C62.2884 56.1906 63.0508 55.9469 63.4758 55.35C64.7912 53.5096 65.9224 51.5411 66.8598 49.4851C67.1629 48.8195 66.9942 48.0353 66.4473 47.5478L63.3539 44.8012C63.8195 43.4607 64.1882 42.0828 64.4569 40.6892L68.5127 39.8549C69.2283 39.708 69.7657 39.1112 69.8375 38.3832C70.0563 36.1303 70.0563 33.865 69.8375 31.6152C69.7657 30.8872 69.2282 30.2904 68.5127 30.1436L64.4569 29.3092C64.1882 27.9156 63.8195 26.5408 63.3539 25.1972L66.4473 22.4506C66.9942 21.9632 67.1629 21.1789 66.8598 20.5133C65.9224 18.4542 64.7913 16.4888 63.4758 14.6484C63.0508 14.0547 62.2884 13.8078 61.5947 14.0391L57.667 15.3452C56.7358 14.2735 55.7297 13.2641 54.6548 12.333L55.9609 8.40531C56.1921 7.71163 55.9484 6.94923 55.3516 6.52424C53.5112 5.20878 51.5427 4.07763 49.4867 3.14021C48.8211 2.83712 48.0368 3.00585 47.5494 3.55266L44.8028 6.64608C43.4623 6.18051 42.0844 5.81177 40.6908 5.54308L39.8564 1.48729C39.7096 0.771746 39.1128 0.23431 38.3848 0.162478C37.2599 0.0531143 36.1289 0 35.0008 0ZM35.0008 3.33403C35.6164 3.33403 36.2288 3.34965 36.8413 3.38715L37.6536 7.32735C37.7943 8.01165 38.3442 8.53658 39.0348 8.63969C40.969 8.93653 42.8656 9.44584 44.6873 10.1551C45.3372 10.4082 46.0778 10.227 46.5402 9.70517L49.2086 6.69926C50.3085 7.25233 51.374 7.86785 52.402 8.54282C52.402 8.54594 51.1334 12.3611 51.1334 12.3611C50.9147 13.0235 51.1272 13.7516 51.674 14.1891C53.202 15.4108 54.5862 16.7981 55.8111 18.3261C56.2485 18.8698 56.9765 19.0854 57.639 18.8667L61.4573 17.5981C62.1354 18.6262 62.7478 19.6916 63.3009 20.7915L60.295 23.4599C59.7732 23.9224 59.5919 24.6629 59.845 25.3129C60.5574 27.1345 61.0636 29.0312 61.3605 30.9685C61.4667 31.6559 61.9916 32.209 62.6728 32.3496L66.613 33.162C66.6849 34.39 66.6849 35.618 66.613 36.846L62.6728 37.6584C61.9885 37.799 61.4636 38.3489 61.3605 39.0395C61.0636 40.9737 60.5543 42.8704 59.845 44.6951C59.5919 45.3419 59.7732 46.0825 60.295 46.548L63.3009 49.2165C62.7478 50.3163 62.1323 51.3818 61.4573 52.4099C61.4542 52.4099 57.639 51.1413 57.639 51.1413C56.9766 50.9226 56.2485 51.135 55.8111 51.6818C54.5894 53.2098 53.202 54.594 51.674 55.8189C51.1303 56.2564 50.9147 56.9844 51.1334 57.6469L52.402 61.4652C51.374 62.1432 50.3085 62.7557 49.2086 63.3087L46.5402 60.3028C46.0777 59.781 45.3372 59.5998 44.6873 59.8529C42.8656 60.5653 40.969 61.0714 39.0317 61.3683C38.3442 61.4745 37.7912 61.9995 37.6505 62.6806L36.8381 66.6208C35.6101 66.6927 34.3822 66.6927 33.1541 66.6208L32.3418 62.6806C32.2012 61.9963 31.6512 61.4714 30.9606 61.3683C29.0264 61.0715 27.1298 60.5621 25.305 59.8529C24.6582 59.5998 23.9177 59.781 23.4521 60.3028L20.7837 63.3087C19.6838 62.7557 18.6183 62.1401 17.5903 61.4652C17.5903 61.462 18.8589 57.6469 18.8589 57.6469C19.0776 56.9844 18.8651 56.2564 18.3183 55.8189C16.7903 54.5972 15.4061 53.2098 14.1812 51.6818C13.7438 51.1382 13.0158 50.9226 12.3533 51.1413L8.53497 52.4099C7.85692 51.3818 7.24448 50.3163 6.69142 49.2165L9.69733 46.548C10.2191 46.0856 10.4004 45.345 10.1473 44.6951C9.43485 42.8735 8.92869 40.9768 8.63184 39.0395C8.52561 38.3521 8.00066 37.799 7.31951 37.6584L3.37931 36.846C3.30744 35.618 3.30744 34.39 3.37931 33.162L7.31951 32.3496C8.00381 32.209 8.52873 31.6591 8.63184 30.9685C8.92868 29.0343 9.43799 27.1376 10.1473 25.3129C10.4004 24.6661 10.2191 23.9255 9.69733 23.4599L6.69142 20.7915C7.24448 19.6916 7.86001 18.6262 8.53497 17.5981C8.5381 17.5981 12.3533 18.8667 12.3533 18.8667C13.0157 19.0854 13.7438 18.8729 14.1812 18.3261C15.4029 16.7981 16.7903 15.414 18.3183 14.1891C18.862 13.7516 19.0776 13.0236 18.8589 12.3611L17.5903 8.54282C18.6183 7.86477 19.6838 7.25232 20.7837 6.69926L23.4521 9.70517C23.9146 10.227 24.6551 10.4082 25.305 10.1551C27.1267 9.4427 29.0233 8.93653 30.9606 8.63969C31.6481 8.53345 32.2011 8.00851 32.3418 7.32735L33.1541 3.38715C33.7666 3.35278 34.3822 3.33403 34.9946 3.33403H35.0008ZM35.0008 11.6675C22.1239 11.6675 11.669 22.1224 11.669 34.9993C11.669 47.8763 22.1239 58.3311 35.0008 58.3311C47.8778 58.3311 58.3326 47.8763 58.3326 34.9993C58.3326 22.1224 47.8778 11.6675 35.0008 11.6675ZM35.0008 15.0015C46.0372 15.0015 54.9986 23.9629 54.9986 34.9993C54.9986 46.0357 46.0372 54.9971 35.0008 54.9971C23.9644 54.9971 15.003 46.0357 15.003 34.9993C15.003 23.9629 23.9644 15.0015 35.0008 15.0015ZM35.0008 20.001C34.4353 20.001 33.9134 20.2853 33.6041 20.7603C33.6041 20.7603 29.439 27.1783 26.9392 32.9525C25.7831 35.6241 25.0019 38.1832 25.0019 39.9986C25.0019 45.5167 29.4827 49.9975 35.0008 49.9975C40.5189 49.9975 44.9997 45.5167 44.9997 39.9986C44.9997 38.1801 44.2186 35.6241 43.0624 32.9525C40.5627 27.1781 36.3976 20.7603 36.3976 20.7603C36.0882 20.2885 35.5664 20.001 35.0008 20.001ZM35.0008 24.8254C36.3851 27.1189 38.5067 30.8154 40.0034 34.2772C40.947 36.4551 41.6657 38.5173 41.6657 39.9984C41.6657 43.6792 38.6785 46.6632 35.0008 46.6632C31.3232 46.6632 28.336 43.676 28.336 39.9984C28.336 38.5173 29.0546 36.455 29.9983 34.2772C31.495 30.8182 33.6166 27.1186 35.0008 24.8254Z" fill="#155DFC"/>
</svg>
