<svg width="132" height="61" viewBox="0 0 132 61" fill="none" xmlns="http://www.w3.org/2000/svg">
<circle cx="101.21" cy="30.2998" r="30" stroke="black" stroke-width="0.6"/>
<path d="M94.8589 30.4525C100.186 30.4525 100.932 30.4525 106.233 30.4525C106.242 30.426 106.251 30.3996 106.251 30.3731C106.124 30.3114 105.997 30.2497 105.87 30.1792C104.149 29.2713 103.206 27.8346 102.853 26.0012C102.835 25.9307 102.917 25.8425 102.953 25.7544C103.034 25.8073 103.161 25.8514 103.188 25.9307C103.333 26.345 103.406 26.7857 103.578 27.1823C104.357 28.9981 105.743 30.0734 107.746 30.3996C107.873 30.4172 107.963 30.5847 108.09 30.6905C107.383 30.9196 106.758 31.0518 106.205 31.3075C104.593 32.0567 103.659 33.3436 103.279 35.0271C103.234 35.2387 103.261 35.5648 102.844 35.4238C103.17 33.3436 103.913 32.3476 106.314 30.8139C106.061 30.8139 105.888 30.8139 105.716 30.8139C100.724 30.8139 100.277 30.8139 95.2757 30.805C95.0854 30.805 94.7774 30.9196 94.8589 30.4525Z" fill="black" stroke="black" stroke-width="0.6"/>
<circle cx="30.3001" cy="30.2998" r="30" transform="rotate(180 30.3001 30.2998)" stroke="black" stroke-width="0.6"/>
<path d="M36.6496 30.1476C31.3221 30.1476 30.5763 30.1476 25.2759 30.1476C25.2668 30.1741 25.2578 30.2005 25.2578 30.227C25.3846 30.2887 25.5115 30.3504 25.6383 30.4209C27.3598 31.3288 28.3021 32.7655 28.6554 34.5989C28.6736 34.6694 28.592 34.7576 28.5558 34.8457C28.4742 34.7928 28.3474 34.7487 28.3202 34.6694C28.1752 34.2551 28.1028 33.8144 27.9306 33.4178C27.1514 31.602 25.7651 30.5267 23.7628 30.2005C23.6359 30.1829 23.5453 30.0154 23.4185 29.9096C24.1252 29.6805 24.7504 29.5483 25.3031 29.2926C26.9158 28.5434 27.8491 27.2565 28.2296 25.573C28.2749 25.3614 28.2477 25.0353 28.6645 25.1763C28.3383 27.2565 27.5954 28.2525 25.1943 29.7862C25.448 29.7862 25.6202 29.7862 25.7923 29.7862C30.7847 29.7862 31.2315 29.7862 36.2329 29.7951C36.4231 29.7951 36.7312 29.6805 36.6496 30.1476Z" fill="black" stroke="black" stroke-width="0.6"/>
</svg>
