<svg width="18" height="18" viewBox="0 0 18 18" fill="none" xmlns="http://www.w3.org/2000/svg">
<path d="M7.43716 1.78251C8.26509 0.838209 9.73491 0.838209 10.5628 1.78251C11.0312 2.3167 11.74 2.57467 12.4421 2.46651C13.6833 2.27531 14.8093 3.2201 14.8365 4.47566C14.8519 5.18592 15.2291 5.83912 15.8365 6.2076C16.9102 6.85897 17.1654 8.30647 16.3792 9.28579C15.9345 9.8398 15.8035 10.5826 16.0319 11.2553C16.4358 12.4444 15.7009 13.7173 14.4691 13.9622C13.7723 14.1007 13.1945 14.5855 12.9371 15.2477C12.4821 16.4182 11.1009 16.9209 9.99994 16.3167C9.37712 15.975 8.62288 15.975 8.00006 16.3167C6.89909 16.9209 5.51791 16.4182 5.06289 15.2477C4.80548 14.5855 4.22769 14.1007 3.53089 13.9622C2.29914 13.7173 1.56423 12.4444 1.96805 11.2553C2.1965 10.5826 2.06552 9.8398 1.62078 9.28579C0.834589 8.30647 1.08982 6.85897 2.16355 6.2076C2.77095 5.83912 3.14807 5.18592 3.16348 4.47566C3.19073 3.2201 4.31668 2.27531 5.55789 2.46651C6.26005 2.57467 6.9688 2.3167 7.43716 1.78251Z" fill="#155DFC"/>
<path fill-rule="evenodd" clip-rule="evenodd" d="M5.25049 9.11782C5.40506 8.82779 5.71421 8.46526 6.25522 8.61027C6.71895 8.75529 7.0281 9.19033 7.25996 9.77039C9.11485 7.81269 10.6606 6.43505 12.5155 6C12.7474 6 12.8246 6 12.6701 6.14502C10.6606 7.45015 8.72842 9.40785 7.18267 11.9456C7.10538 12.0181 7.0281 12.0181 6.95081 11.9456C6.64166 11.2205 6.4098 10.4955 6.02336 9.77039C5.86879 9.40785 5.63692 9.11782 5.25049 9.11782Z" fill="white"/>
</svg>
