<svg width="181" height="195" viewBox="0 0 181 195" fill="none" xmlns="http://www.w3.org/2000/svg">
<path d="M57.9326 88.5185C57.9326 88.9973 57.5535 89.0971 57.2941 89.2767C51.0288 93.3471 44.9032 97.6171 38.8574 102.027C38.6779 102.166 38.4983 102.366 38.219 102.286C36.2436 102.126 34.2882 102.246 32.4126 102.925C30.7964 103.503 29.2401 103.543 27.6438 102.865C26.8657 102.545 26.287 102.126 26.5065 101.149C26.6462 100.51 26.4067 100.011 26.0077 99.5725C25.9478 99.5126 25.888 99.4328 25.8082 99.3729C25.8481 99.2732 25.888 99.1934 25.9877 99.1335C25.6086 98.0959 25.2096 97.0783 24.8704 96.0408C23.9725 93.407 23.9924 93.4269 26.0875 91.6112C27.4842 90.414 29.0605 89.4363 30.3974 87.9199C27.8234 87.7603 25.4889 87.9797 23.1544 88.0995C22.2366 88.1394 21.7976 87.8999 21.4983 87.002C20.7201 84.8471 19.8023 82.7321 18.8046 80.218C18.0065 82.8319 17.2483 85.0267 16.6697 87.2415C16.4302 88.1593 16.0312 88.4187 15.1133 88.4586C12.7389 88.5584 10.3645 88.7579 7.7706 88.9375C9.76591 90.3741 11.5617 91.6711 13.3375 92.948C13.4572 92.968 13.5769 92.988 13.6767 93.0079C13.6967 93.0279 13.6967 93.0678 13.7166 93.1077C13.976 93.7262 13.8363 94.3049 13.3774 94.7837C12.5394 95.6816 12.1802 96.7391 12.2999 97.9762C12.3997 99.1535 11.7413 99.5126 10.7037 99.4926C10.0253 99.4727 9.26708 99.4527 8.72835 99.1135C7.35159 98.1957 5.75534 98.076 4.21896 97.7168C3.32107 97.4973 2.48305 97.1382 1.90441 96.3201C1.62506 97.2978 2.18375 98.3753 1.40558 99.2133C0.966614 95.961 1.10628 92.6887 0.966612 89.4164C0.587504 80.657 0.308164 71.8776 0.00886802 63.0983C-0.011085 62.4797 0.00886802 61.8412 0.00886802 60.9434C19.1239 70.7603 38.2788 80.198 57.9326 88.5185Z" fill="white"/>
<path d="M178.589 105.1C176.134 107.335 173.161 108.612 170.069 109.549C161.728 112.063 153.208 112.582 144.589 111.704C129.165 110.148 113.701 109.39 98.1979 109.889C89.8575 110.168 81.5171 110.567 73.2366 111.545C68.5876 112.103 63.9585 112.642 59.3294 113.42C58.7707 113.52 58.192 113.54 57.6134 113.6C57.0946 113.121 56.3963 113.141 55.7777 112.921C55.1193 112.702 54.3212 112.642 53.9221 111.944C53.104 110.527 52.7848 108.632 50.4702 108.612C51.4679 108.472 52.2061 108.133 52.8845 107.694C53.3435 107.394 52.9843 107.275 52.685 107.215C57.9726 105.698 63.3998 104.821 68.847 104.082C81.4174 102.366 94.0277 102.067 106.678 102.646C115.976 103.085 125.214 104.102 134.453 105.279C143.751 106.457 153.109 106.916 162.387 104.94C165.36 104.302 168.293 103.484 170.927 101.887C175.616 99.0541 175.915 95.5623 171.785 91.9508C170.627 90.9332 169.37 90.0353 168.034 89.2571C166.338 88.3593 164.642 87.4614 162.946 86.5635C164.841 87.1421 166.697 87.8405 168.353 88.9379C171.366 90.4743 174.319 92.0905 176.913 94.3053C177.671 94.9637 178.429 95.6421 179.107 96.4003C181.761 99.3534 181.562 102.386 178.589 105.1Z" fill="white"/>
<path d="M57.6328 113.599C56.9145 113.379 56.1363 113.439 55.398 113.2C54.4403 112.881 53.6621 112.382 53.2431 111.444C52.7842 110.406 52.2454 109.469 50.9884 109.209C50.6692 109.149 50.3299 108.93 50.4098 108.511C50.4497 108.172 50.8088 108.132 51.0682 108.032C51.6468 107.832 52.3053 107.812 52.6844 107.214C52.9837 107.274 53.3429 107.393 52.8839 107.693C52.2055 108.132 51.4872 108.471 50.4696 108.611C52.7842 108.65 53.1234 110.526 53.9215 111.943C54.3206 112.641 55.1187 112.681 55.7771 112.92C56.4156 113.14 57.114 113.12 57.6328 113.599Z" fill="white"/>
<path d="M63.3992 73.315C63.3992 68.4465 63.3793 63.558 63.3593 58.6894C63.3593 58.0908 63.5589 57.4124 62.6809 57.1331C62.2021 56.9735 62.4016 56.4746 62.4016 56.1155C62.3816 41.0509 62.3617 25.9864 62.3218 10.9418C62.3218 10.0439 62.5413 9.42536 63.2596 8.84672C66.9309 5.95353 70.5624 3.00048 74.1938 0.0673828C75.0119 0.326772 74.8922 1.06504 74.8922 1.62372C74.8922 4.51691 75.1715 7.4101 75.1715 10.2833C75.2114 21.038 74.9321 31.8127 75.2514 42.5674C75.5706 53.4817 75.2713 64.376 75.4908 75.2904C75.4908 75.6296 75.5107 75.9688 75.4309 76.288C75.1715 76.9066 74.6328 76.7669 74.1938 76.6472C70.8218 75.7892 67.4697 74.7915 64.0776 73.9336C63.7784 73.8737 63.499 73.6742 63.3992 73.315Z" fill="white"/>
<path d="M38.219 102.267C36.1439 104.003 33.8892 105.48 31.7742 107.136C25.3892 112.084 18.9643 116.973 12.9185 122.32C9.56643 125.273 6.21431 128.246 2.64272 131.379C2.54295 130.341 2.44319 129.483 2.40328 128.625C2.04413 118.988 1.70492 109.37 1.36572 99.7331C1.36572 99.5535 1.38568 99.354 1.40563 99.1545V95.3035C2.70258 97.3986 4.73779 97.4784 6.73309 97.6381C7.91032 97.7378 8.54882 98.8751 9.80586 98.9949C11.7214 99.1744 11.861 99.2542 11.861 97.3986C11.861 96.3411 12.0805 95.3834 12.9385 94.685C13.577 94.1862 13.6967 93.6075 13.3376 92.9092C13.4573 92.9291 13.577 92.9491 13.6768 92.969C13.6967 92.989 13.6967 93.0289 13.7167 93.0688C14.5746 93.4878 14.7343 94.1862 14.415 95.2437C13.7965 97.3787 13.2976 99.5735 12.719 101.928C14.7343 100.471 16.6298 99.2343 18.3857 97.8176C19.3035 97.0794 19.962 97.1392 20.8798 97.7578C22.6357 98.935 24.4514 99.9925 26.2871 101.13C26.4467 100.551 26.1275 100.072 26.0277 99.5735C25.9678 99.5136 25.908 99.4338 25.8282 99.374C25.8681 99.2742 25.908 99.1944 26.0077 99.1345C26.746 99.6134 27.2847 100.252 26.9056 101.13C26.4667 102.147 27.165 102.287 27.7636 102.527C29.5394 103.225 31.2354 102.806 33.0113 102.367C34.6873 101.968 36.4631 101.11 38.219 102.267Z" fill="white"/>
<path d="M177.072 172.68C173.621 172.68 170.368 172.68 167.116 172.68C166.437 172.68 166.438 172.082 166.278 171.663C165.46 169.707 164.662 167.752 163.903 165.777C163.624 165.038 163.225 164.779 162.407 164.779C157 164.799 151.592 164.779 146.205 164.739C145.367 164.739 145.028 165.058 144.768 165.797C144.01 167.832 143.192 169.827 142.394 171.862C142.215 172.321 142.075 172.72 141.416 172.72C138.344 172.7 135.271 172.7 131.999 172.7C133.535 168.929 134.991 165.338 136.468 161.746C138.623 156.498 140.798 151.271 142.973 146.023C143.392 145.863 143.591 146.163 143.751 146.442C144.988 148.637 147.063 149.375 149.358 149.714C149.916 149.794 150.515 149.774 150.774 150.313C150.715 150.453 150.655 150.572 150.615 150.712C150.036 152.747 148.879 154.563 148.46 156.758C151.892 156.758 155.264 156.758 158.636 156.758C160.312 156.758 160.332 156.718 159.733 155.182C158.436 151.77 157.099 148.378 155.783 144.966C155.723 144.946 155.663 144.926 155.623 144.906C155.643 144.866 155.663 144.846 155.683 144.806C156.241 143.968 156.92 144.487 157.459 144.926C158.277 145.584 159.115 146.243 159.913 146.921C161.349 148.118 163.445 147.819 164.542 146.263C164.801 145.883 164.841 145.145 165.639 145.484C167.774 150.533 169.909 155.601 172.044 160.649C173.68 164.579 175.337 168.53 177.072 172.68Z" fill="white"/>
<path d="M148.36 103.742C147.861 104.001 147.362 103.881 146.844 103.842C146.764 103.802 146.664 103.782 146.584 103.742C146.504 103.722 146.445 103.702 146.365 103.682C145.347 103.442 144.27 103.762 143.272 103.502C137.226 103.403 131.26 102.465 125.354 101.288C107.317 97.696 89.1194 95.8603 70.7227 96.5986C63.3999 96.8979 56.1171 97.5563 48.7544 98.5939C53.6429 95.2418 58.5314 91.9096 63.5795 88.4577C62.4821 87.9389 61.4645 87.4601 60.4668 86.9812C60.4868 86.9213 60.5067 86.8415 60.5267 86.7617C63.2802 86.9413 66.0138 87.1009 68.7673 87.3204C78.9633 88.1185 89.0995 89.3556 99.1358 91.311C105.521 92.5481 111.826 94.1244 118.071 95.98C118.57 96.1397 119.069 96.3192 119.568 96.4988C121.663 96.6185 123.738 96.7981 125.414 98.2746C125.614 98.3744 125.813 98.4742 126.013 98.554C126.372 98.7335 126.452 98.3744 126.611 98.1948C126.651 98.1549 126.691 98.115 126.751 98.095C126.791 98.0751 126.851 98.0751 126.91 98.095C128.347 98.6338 129.764 99.2124 131.3 99.4519C131.799 99.5317 132.158 99.8709 132.418 100.29C133.535 100.729 134.672 99.9706 135.889 100.469C137.506 101.128 139.281 101.387 140.997 101.846C141.456 101.966 141.855 102.086 141.935 101.447C142.713 101.487 143.511 101.826 144.29 101.447C144.329 101.786 144.369 102.106 144.389 102.445C144.429 103.063 144.768 103.283 145.347 103.163C145.806 103.063 146.365 103.203 146.345 102.345C146.305 101.208 146.484 100.07 146.564 98.9331C146.484 98.6138 146.425 98.2946 146.445 97.9753C146.464 97.7958 146.504 97.6162 146.604 97.4166C147.223 97.4765 147.243 97.9753 147.243 98.3544C147.263 100.23 147.223 102.106 148.36 103.722C148.34 103.722 148.34 103.722 148.36 103.742C148.34 103.742 148.34 103.742 148.36 103.742Z" fill="white"/>
<path d="M63.3999 73.3146C67.3705 74.392 71.3412 75.4695 75.2919 76.5669C75.9703 76.4073 76.5489 76.7465 77.1675 76.8862C81.0384 78.3029 84.9292 79.6397 88.7203 81.2559C89.2391 81.4754 89.8576 81.5552 90.1768 82.0939C91.0747 82.5329 91.9527 82.9719 92.8506 83.4108C94.6064 83.7301 95.9832 84.8474 97.5595 85.5458C97.8987 85.7054 98.198 85.9449 98.5372 86.1244C100.333 87.2618 102.408 88.02 103.964 89.5364C104.423 89.8557 104.902 90.1949 105.361 90.5141C105.341 90.574 105.301 90.6338 105.281 90.6937C102.847 89.8756 100.413 89.1174 97.9985 88.2395C87.2637 84.3486 76.1499 82.0341 64.9163 80.2582C57.394 79.0611 49.8118 78.2629 42.2097 77.9636C41.8705 77.9437 41.5712 77.8639 41.252 77.7242C31.8142 73.4942 22.536 68.9449 12.9785 64.8545C17.6475 65.5129 22.2966 66.1714 26.9656 66.8298C27.3048 66.5904 27.6839 66.5705 28.063 66.6104C33.0712 67.2888 38.0595 68.1268 43.0478 69.0047C43.387 69.0646 43.6863 69.2043 43.9656 69.4237C44.3647 69.4836 44.7637 69.5634 45.1428 69.6233C46.9585 69.4038 48.6745 69.8029 50.3107 70.581C51.0689 70.7207 51.8271 70.8604 52.5853 70.9801C55.4985 71.1198 58.3517 71.5388 61.0454 72.7359C61.7837 73.1749 62.6017 73.155 63.3999 73.3146Z" fill="white"/>
<path d="M126.591 98.2762C126.511 98.6353 126.431 98.9945 125.992 98.5356C126.571 98.1564 126.292 97.5579 126.292 97.079C126.312 81.9745 126.292 66.8701 126.312 51.7656C126.312 50.9276 126.072 50.4487 125.334 50.0696C124.017 49.3712 122.74 48.5931 121.443 47.8548C121.184 47.7151 120.904 47.4358 120.685 47.4757C118.789 47.7351 119.288 46.3783 119.268 45.4006C119.248 43.4651 119.308 41.5297 119.228 39.6142C119.188 38.7363 119.508 38.3372 120.306 38.0379C121.762 37.5191 123.139 36.8008 124.596 36.302C125.514 36.0027 125.713 35.5039 125.713 34.6259C125.673 31.1142 125.713 27.5825 125.673 24.0508C125.673 23.2328 125.893 22.714 126.591 22.275C127.968 21.3971 129.305 20.4393 130.622 19.5215C131.12 19.8407 130.921 20.2597 130.921 20.599C130.961 24.6095 130.961 28.6001 131.001 32.6107C131.001 33.0896 130.622 33.9475 131.859 33.7081C132.597 33.5684 132.258 34.4264 132.258 34.8055C132.298 40.8912 132.337 46.9569 132.337 53.0426C132.337 63.1788 132.318 73.2949 132.298 83.4311C131.799 83.471 131.819 82.8924 131.38 82.6928C130.821 83.5109 130.422 84.4487 129.764 85.2269C129.444 85.586 129.125 85.9452 128.706 86.2046C127.529 86.9428 126.731 86.5637 126.711 85.167C126.671 82.5931 126.691 79.9992 126.691 77.7844C126.471 83.6306 127.21 89.8161 126.97 96.0215C126.97 96.7996 127.13 97.5978 126.591 98.2762Z" fill="white"/>
<path d="M43.9452 69.4636C41.3513 69.3439 38.8372 68.7054 36.3032 68.3462C33.1905 67.8873 30.0778 67.3685 26.9651 66.8498C26.9651 61.1033 26.7457 55.3768 26.4464 49.6502C26.3666 48.1338 26.6858 47.2359 28.1623 46.4977C33.2304 43.9636 38.2187 41.25 43.2269 38.6162C43.3266 38.696 43.4464 38.7559 43.4464 38.7958C43.606 49.0317 43.7856 59.2477 43.9452 69.4636Z" fill="white"/>
<path d="M43.7861 165.118C42.6887 164.1 41.6511 163.023 40.5537 162.005C39.7357 161.247 39.0972 159.85 38.1394 159.87C37.2415 159.89 36.3835 161.048 35.4857 161.686C31.4152 164.579 26.9857 165.397 22.3765 163.422C17.8871 161.487 15.5526 157.815 14.9939 152.987C15.0138 151.49 15.0138 150.014 15.3331 148.517C16.7497 142.132 22.0573 138.162 28.5819 138.76C31.9939 139.059 34.8272 140.656 37.3014 142.91C37.9199 143.469 38.2192 143.449 38.758 142.831C40.2943 141.035 41.8307 139.239 43.5068 137.563C44.285 136.765 44.0256 136.406 43.3671 135.787C39.7556 132.375 35.4058 130.659 30.5573 129.961C21.4188 128.644 12.5596 132.555 7.9305 140.217C5.39647 144.427 4.47863 149.056 5.13708 153.964C5.19694 157.955 6.77323 161.387 9.02792 164.559C17.1089 175.893 34.4082 176.292 43.826 166.395C44.3847 165.816 44.245 165.557 43.7861 165.118ZM5.21689 151.111C5.19693 151.131 5.17698 151.151 5.15703 151.151C5.13708 151.151 5.13708 151.111 5.15703 151.071C5.17698 151.031 5.21689 151.011 5.25679 151.091C5.23684 151.091 5.23684 151.111 5.21689 151.111Z" fill="white"/>
<path d="M86.3452 160.051C85.607 164.68 83.4919 168.531 79.3018 170.766C72.3382 174.437 65.1152 174.537 58.0318 171.085C53.1833 168.731 50.8687 164.401 50.0905 159.193C49.6915 156.559 49.7513 153.906 49.8511 151.252C50.8887 150.593 51.4074 151.252 51.6868 152.09C51.9661 152.968 52.5248 153.327 53.3429 153.447C53.8217 153.526 54.2807 153.666 54.6997 153.906C56.0565 154.684 56.4556 154.604 57.3933 153.327C57.8323 152.728 58.0318 152.05 58.2513 151.352C58.4309 150.793 58.4708 150.055 59.3487 150.075C59.5682 152.609 59.1492 155.183 59.7079 157.717C60.6656 162.026 63.5389 164.421 68.0084 164.541C72.7971 164.66 75.7901 162.645 76.8875 158.535C77.1269 157.657 77.2267 156.759 77.3863 155.861C77.4861 154.923 77.8652 154.504 78.7631 155.203C80.5389 156.599 82.6739 157.218 84.749 157.996C85.6868 158.355 86.7642 158.615 86.3452 160.051Z" fill="white"/>
<path d="M124.157 171.244C121.762 172.162 119.248 172.681 116.674 172.681C109.691 172.701 102.707 172.661 95.7234 172.721C94.646 172.721 94.3467 172.462 94.3666 171.364C94.4664 167.374 94.4265 163.363 94.4664 159.372C95.7235 158.016 97.3995 157.616 99.1155 157.337C100.313 157.138 101.47 156.998 102.567 156.439C103.126 156.16 103.585 156.3 103.944 156.679C103.944 156.798 103.964 156.898 103.964 157.038C103.984 159.153 104.064 161.288 104.004 163.403C103.984 164.44 104.184 164.839 105.321 164.8C108.454 164.72 111.586 164.8 114.739 164.8C116.096 164.8 117.432 164.56 118.669 164.001C120.425 163.243 121.164 161.827 121.164 159.971C121.164 158.195 120.365 156.938 118.749 156.2C118.29 156 117.811 155.801 117.353 155.601C117.353 155.581 117.353 155.581 117.353 155.561C117.353 154.564 118.23 154.743 118.869 154.803C119.907 154.903 120.725 155.541 121.483 156.22C123.119 157.716 126.371 157.297 127.608 155.442C127.868 155.043 127.908 154.364 128.646 154.444C133.355 159.592 130.98 168.611 124.157 171.244Z" fill="white"/>
<path d="M90.2165 81.2168C90.2165 81.4961 90.1966 81.7954 90.1766 82.0748C88.4207 81.7355 86.8644 80.8177 85.1884 80.2191C82.4348 79.2215 79.7013 78.164 76.9677 77.1264C77.0076 77.0466 77.0276 76.9468 77.0475 76.8471C77.1872 76.2684 77.1273 75.6299 77.6661 75.2109C77.6661 75.2109 77.6661 75.2309 77.6461 75.2309C80.9184 76.3482 84.2306 77.4057 87.483 78.583C88.6801 79.0219 88.72 78.563 88.7001 77.6053C88.6801 76.847 88.1614 76.7872 87.6825 76.6076C84.51 75.4902 81.3374 74.3729 78.1649 73.2555C78.125 73.3553 78.105 73.455 78.0851 73.5548C78.0252 73.5149 77.9654 73.4949 77.9055 73.455C77.8855 73.4351 77.8656 73.4151 77.8456 73.3952C76.9278 72.5971 77.1074 71.5794 77.3668 70.5618C77.4466 70.482 77.5264 70.4022 77.6062 70.3623L77.6261 70.3424C80.8785 71.5196 84.1109 72.6968 87.3632 73.8541C87.7423 73.9938 88.2212 74.4327 88.5405 74.0536C88.8597 73.6546 88.74 73.036 88.6203 72.5172C88.5006 71.9985 87.9618 72.0184 87.5827 71.8787C84.4501 70.6816 81.2975 69.5043 78.1449 68.3271C78.125 68.4269 78.105 68.5266 78.0851 68.6264C78.0053 68.5865 77.9454 68.5665 77.8656 68.5266C77.8456 68.5067 77.8456 68.5067 77.8257 68.4867C76.9477 67.6487 77.0874 66.651 77.3668 65.6334C77.4466 65.5536 77.5064 65.4738 77.5862 65.4339C81.2177 66.8306 84.8292 68.2074 88.4607 69.6041C88.9595 68.2473 88.5804 67.529 87.2635 67.0501C84.0111 65.8729 80.8186 64.536 77.6062 63.279C77.6661 63.3787 77.7259 63.4785 77.7658 63.5982C77.706 63.5583 77.6461 63.4985 77.6062 63.4586C77.4865 63.3388 77.4067 63.1992 77.3268 63.0395C77.1473 62.2614 77.0076 61.4832 77.5862 60.7849C77.6661 60.7449 77.7459 60.705 77.8057 60.6651C77.8456 60.6452 77.9055 60.6252 77.9454 60.6252C77.9454 60.6851 77.9254 60.7449 77.9254 60.8048C81.4571 62.1816 84.9689 63.5583 88.5006 64.9351C88.9595 63.5384 88.5804 62.8001 87.1837 62.2813C83.9513 61.0642 80.7787 59.6475 77.5862 58.3107C77.6661 58.4304 77.7259 58.5501 77.7858 58.6898C77.7259 58.6299 77.6661 58.5701 77.6062 58.5102C77.5064 58.3905 77.4067 58.2708 77.3268 58.1111C77.1074 57.3529 77.0874 56.5748 77.3468 55.8165C77.4266 55.7168 77.4865 55.6569 77.5663 55.5971C77.5862 55.5771 77.5862 55.5771 77.6062 55.5771C77.5862 55.5971 77.5862 55.617 77.5663 55.637C81.1977 57.1933 84.8292 58.7496 88.4607 60.306C88.9395 58.8494 88.4806 58.1511 87.2036 57.6323C83.9513 56.2954 80.7787 54.7989 77.5663 53.3823V53.6018C77.4865 53.5219 77.4067 53.4421 77.3268 53.3424C76.848 52.4245 76.7283 51.5665 77.686 50.8682C77.7259 50.8482 77.7658 50.8482 77.8057 50.8482C77.8656 50.8283 77.9055 50.8283 77.9653 50.8083C77.9653 50.8682 77.9454 50.9081 77.9454 50.9679C81.4571 52.5243 84.9689 54.0607 88.5006 55.617C88.8797 54.3001 88.6801 53.502 87.2834 52.9034C84.0111 51.5466 80.8186 49.9503 77.5862 48.4539C77.5862 48.5137 77.5663 48.5736 77.5663 48.6334C77.4865 48.5736 77.4266 48.4938 77.3468 48.414C76.848 47.536 76.7482 46.678 77.4067 45.84C77.4466 45.8201 77.5064 45.8001 77.5463 45.8001C77.5463 45.8001 77.5463 45.8001 77.5663 45.8001C81.1977 47.4961 84.8292 49.2121 88.4607 50.928C88.9196 49.5313 88.5804 48.7332 87.1837 48.1147C83.9313 46.678 80.7588 45.0618 77.5663 43.5055C77.5463 43.5853 77.5463 43.6851 77.5264 43.7649C77.4466 43.6851 77.3668 43.6053 77.287 43.5055C76.7881 42.6076 76.7083 41.7496 77.3668 40.8917C77.4266 40.8518 77.4865 40.8119 77.5463 40.7719C77.5862 40.752 77.6261 40.752 77.6661 40.732C77.6461 40.7719 77.6062 40.8318 77.5663 40.8717C77.8257 40.9914 78.105 41.0912 78.3445 41.2109C81.4372 42.7473 84.5299 44.2837 87.6426 45.8001C87.9219 45.9398 88.4407 46.4586 88.5405 45.8799C88.6801 45.1417 89.0393 44.2637 87.8421 43.705C84.3703 42.0689 80.9783 40.2731 77.5463 38.5372C77.5264 38.637 77.5064 38.7168 77.4865 38.8165C77.4067 38.7367 77.3269 38.6569 77.267 38.5771C76.7881 37.6992 76.6884 36.8212 77.3468 35.9633C77.4266 35.9034 77.5064 35.8635 77.5663 35.8435C77.5862 35.8435 77.5862 35.8236 77.6062 35.8236C77.5862 35.8435 77.5862 35.8635 77.5663 35.8835C81.2975 37.5396 84.8292 39.5947 88.4607 41.4903C88.9196 40.0935 88.5205 39.2755 87.2036 38.7168C83.9114 37.36 80.8785 35.4644 77.8257 33.6088C77.7259 33.6886 77.6461 33.7485 77.5663 33.8283C77.5463 33.8083 77.5264 33.8083 77.5264 33.7884C76.848 32.9104 77.1074 31.9926 77.3867 31.0548C77.4266 31.0149 77.4865 30.975 77.5264 30.955C77.5264 30.955 77.5264 30.955 77.5463 30.9351C77.5463 30.955 77.5463 30.955 77.5463 30.975C81.1778 32.8905 84.8093 34.806 88.4607 36.7414C88.74 34.786 88.74 34.786 87.1438 33.8881C85.3879 32.9104 83.632 31.9128 81.8762 30.9351C81.8562 30.9351 81.8163 30.955 81.7963 30.955C81.7963 30.9351 81.7963 30.9151 81.7963 30.8952C81.9161 30.137 81.8362 29.3788 82.0757 28.6405C82.0956 28.6405 82.0956 28.6205 82.1156 28.6205L82.1355 28.6006C82.1355 28.6205 82.1555 28.6205 82.1555 28.6405C84.3503 29.5982 86.3656 30.9151 88.4407 32.0924C88.5205 31.813 88.5804 31.5536 88.6003 31.3142C89.0193 31.0748 89.4184 30.6957 89.9771 30.975C90.017 37.1405 90.0768 43.306 90.0968 49.4715C90.2165 60.1064 90.2165 70.6616 90.2165 81.2168Z" fill="white"/>
<path d="M128.646 144.069C126.831 144.547 125.055 145.106 123.139 144.986C121.962 144.907 120.805 144.787 120.007 143.849C119.807 143.61 119.568 143.729 119.388 143.709C119.388 143.709 119.388 143.709 119.408 143.709C119.308 140.397 118.171 138.901 114.819 138.621C111.487 138.342 108.095 138.542 104.723 138.502C103.964 138.502 104.044 139 104.044 139.479C104.044 141.834 104.084 144.188 104.044 146.543C104.024 147.401 104.363 147.6 105.142 147.6C106.199 147.58 107.277 147.66 108.334 147.72C107.795 148.478 106.538 147.72 106.319 148.319C106 149.157 105.581 149.616 104.842 149.915C103.386 150.493 102.568 150.074 102.189 148.558C101.869 147.301 100.932 146.543 99.9339 145.864C99.2156 145.385 98.3576 145.166 97.5594 144.807C96.9808 144.547 96.462 144.547 95.9433 144.946C95.5242 145.266 95.0653 145.585 94.5066 145.146C94.4867 140.557 94.4867 135.988 94.4468 131.418C94.4468 130.82 94.5066 130.421 95.2848 130.421C103.047 130.54 110.828 129.942 118.55 130.7C123.339 131.179 127.21 133.394 128.726 138.402C129.225 140.277 129.365 142.193 128.646 144.069Z" fill="white"/>
<path d="M144.25 101.428C143.471 102.565 142.673 102.007 141.895 101.428C140.638 100.55 139.082 100.51 137.705 100.011C136.568 99.6122 135.43 99.2331 134.273 98.9139C133.814 98.7742 133.595 98.5547 133.675 98.1157C133.774 97.4573 134.213 97.7566 134.552 97.8364C136.548 98.3751 138.543 98.9338 140.558 99.4526C140.937 99.5524 141.476 99.9714 141.676 99.4127C141.895 98.7941 141.197 98.8141 140.838 98.6944C138.782 97.996 136.727 97.3176 134.652 96.6592C134.133 96.4995 133.475 96.3399 133.714 95.6615C133.934 95.023 134.532 95.442 134.952 95.5617C136.707 96.0805 138.443 96.6392 140.219 97.138C140.698 97.2777 141.456 97.8963 141.676 97.158C141.875 96.4397 140.898 96.4796 140.399 96.3C138.463 95.5817 136.488 94.9233 134.532 94.2648C134.074 94.1052 133.455 93.9655 133.675 93.347C133.914 92.6287 134.473 93.1275 134.872 93.2472C136.847 93.8657 138.822 94.5042 140.798 95.1228C141.117 95.2225 141.596 95.6017 141.775 95.023C141.935 94.5242 141.396 94.4244 141.057 94.3047C138.942 93.5265 136.807 92.7484 134.672 91.9902C134.173 91.8106 133.455 91.6909 133.675 91.0125C133.914 90.2742 134.572 90.7331 135.011 90.8728C136.927 91.5113 138.822 92.2096 140.738 92.8681C141.057 92.9878 141.516 93.3869 141.736 92.8881C141.955 92.3693 141.416 92.1697 141.017 92.0101C138.862 91.192 136.687 90.374 134.532 89.5359C134.054 89.3563 133.335 89.1768 133.714 88.4784C134.034 87.8998 134.572 88.4385 134.971 88.5782C136.927 89.2566 138.862 89.9949 140.838 90.6533C141.097 90.7331 141.556 91.2918 141.775 90.6134C141.935 90.1146 141.516 89.9949 141.137 89.8552C139.162 89.077 137.206 88.2789 135.231 87.5007C134.912 87.381 134.612 87.2413 134.293 87.1216C133.914 86.9819 133.515 86.7625 133.675 86.3035C133.854 85.7249 134.353 86.0641 134.652 86.1639C136.009 86.6427 137.366 87.1615 138.723 87.6604C139.401 87.9197 140.079 88.1791 140.758 88.3787C141.077 88.4585 141.496 88.9972 141.736 88.4385C141.955 87.9197 141.416 87.7202 141.017 87.5606C139.281 86.8423 137.505 86.2038 135.829 85.3857C135.071 85.0066 133.475 85.0265 133.854 83.8693C134.074 83.2108 135.311 84.1885 136.069 84.4479C137.665 84.9866 139.221 85.6251 140.798 86.2237C141.117 86.3434 141.536 86.7824 141.755 86.2038C141.935 85.7449 141.496 85.6052 141.117 85.4456C139.042 84.5477 136.967 83.6298 134.912 82.712C134.692 82.6122 134.473 82.5125 134.253 82.4327C133.894 82.293 133.655 81.9937 133.754 81.6545C133.914 81.1956 134.333 81.4549 134.612 81.5547C136.348 82.2531 138.084 83.0312 139.82 83.6897C140.439 83.9291 141.416 84.6674 141.676 84.0289C142.035 83.1709 140.798 83.131 140.219 82.8517C138.363 81.9338 136.448 81.1357 134.572 80.2777C134.113 80.0582 133.395 79.8587 133.794 79.2003C134.133 78.6216 134.632 79.2202 135.011 79.3798C136.887 80.158 138.723 80.996 140.598 81.7542C140.937 81.8939 141.436 82.4127 141.696 81.854C141.975 81.2355 141.317 81.1158 140.878 80.9162C138.882 79.9784 136.867 79.0207 134.872 78.0629C134.652 77.9632 134.433 77.8434 134.213 77.7437C133.894 77.5841 133.555 77.3646 133.714 76.9855C133.914 76.5066 134.313 76.8059 134.572 76.9256C136.428 77.7237 138.264 78.5817 140.119 79.3798C140.598 79.5794 141.336 80.178 141.596 79.719C142.075 78.881 141.017 78.8012 140.538 78.5418C138.543 77.4843 136.508 76.4866 134.473 75.489C134.034 75.2695 133.415 75.1099 133.754 74.4913C134.094 73.8927 134.532 74.5312 134.832 74.651C136.727 75.489 138.583 76.4268 140.478 77.2648C140.818 77.4244 141.297 78.1028 141.656 77.4244C141.955 76.8458 141.336 76.6463 140.898 76.4268C138.882 75.4092 136.867 74.3716 134.852 73.3341C134.592 73.1944 134.333 73.0747 134.094 72.935C133.754 72.7355 133.595 72.4162 133.814 72.097C134.034 71.7578 134.333 72.077 134.572 72.1768C136.388 73.0547 138.204 73.9726 140.04 74.8305C140.538 75.07 141.257 75.8282 141.616 75.1697C142.035 74.4115 140.957 74.2918 140.478 74.0125C138.503 72.8951 136.508 71.8376 134.513 70.7801C134.034 70.5207 133.495 70.3411 133.894 69.4831C136.408 70.7402 138.902 71.9972 141.436 73.2742C141.975 72.516 141.476 72.2766 140.957 71.9972C138.802 70.82 136.667 69.6028 134.532 68.4057C134.133 68.1862 133.455 67.9667 133.834 67.3881C134.133 66.9491 134.592 67.5078 134.932 67.6874C136.867 68.6651 138.763 69.7226 140.698 70.7003C140.957 70.8399 141.356 71.3587 141.656 70.7402C141.855 70.2812 141.496 70.0618 141.137 69.8622C139.002 68.6451 136.867 67.408 134.752 66.1909C134.453 66.0312 134.173 65.8517 133.894 65.6521C133.694 65.4925 133.635 65.2331 133.754 64.9937C133.994 64.5547 134.233 64.9139 134.453 65.0336C136.408 66.0911 138.324 67.1686 140.299 68.2061C140.718 68.4256 141.317 69.124 141.636 68.6052C142.115 67.827 141.157 67.6275 140.658 67.3282C138.683 66.131 136.667 64.9737 134.692 63.7766C134.293 63.5371 133.635 63.3974 133.914 62.4397C135.909 63.5571 137.845 64.6944 139.82 65.732C140.399 66.0312 141.217 66.9092 141.636 66.2707C142.194 65.3927 140.937 65.2331 140.419 64.8939C138.523 63.6768 136.548 62.5395 134.612 61.3622C134.173 61.1028 133.595 60.9233 133.894 60.0453C135.989 61.2425 138.064 62.3998 140.119 63.577C140.339 63.6967 140.518 63.8763 140.738 63.9362C141.037 64.016 141.356 64.6345 141.676 64.0758C141.935 63.6369 141.596 63.3176 141.177 63.0582C139.561 62.1005 137.984 61.0829 136.368 60.1052C135.63 59.6463 134.892 59.2073 134.153 58.7484C133.874 58.5688 133.615 58.3294 133.814 57.7108C135.191 58.5289 136.528 59.3071 137.865 60.0852C138.782 60.624 139.66 61.2026 140.618 61.6815C140.917 61.8411 141.356 62.4397 141.676 61.8411C141.955 61.3223 141.496 61.0031 141.037 60.7437C140.04 60.1451 139.082 59.5066 138.104 58.8881C136.927 58.1298 135.75 57.3916 134.572 56.6334C134.173 56.374 133.675 56.1944 133.734 55.5759C134.173 55.1967 134.433 55.6357 134.732 55.8153C136.707 57.0125 138.683 58.2496 140.658 59.4268C140.937 59.5864 141.317 60.1052 141.636 59.6662C141.955 59.2073 141.656 58.8282 141.157 58.509C139.042 57.1721 136.947 55.7953 134.852 54.3986C134.413 54.0993 133.794 53.9197 133.774 52.982C135.59 54.0993 137.286 55.1369 138.982 56.1744C139.561 56.5336 140.119 56.9127 140.718 57.212C140.997 57.3517 141.356 57.8904 141.656 57.3517C141.895 56.9327 141.616 56.5536 141.197 56.2742C139.341 55.0571 137.505 53.82 135.69 52.543C134.991 52.0641 134.014 51.8247 133.734 50.5078C136.468 52.2437 139.002 53.8399 141.536 55.4561C141.935 54.5782 141.456 54.219 140.898 53.8399C138.862 52.4632 136.847 51.0465 134.832 49.6298C134.413 49.3306 133.914 49.1111 133.694 48.4925C134.413 48.3329 134.792 48.8916 135.231 49.1709C137.106 50.3482 138.942 51.5852 140.798 52.8024C141.057 52.962 141.336 53.3611 141.636 52.9021C141.815 52.5829 141.716 52.2437 141.396 52.0043C140.778 51.5453 140.159 51.0864 139.521 50.6475C137.825 49.4503 136.149 48.2531 134.453 47.036C134.113 46.7965 133.675 46.6169 133.874 45.9186C136.428 47.6146 138.942 49.2906 141.456 50.9667C142.055 50.0888 141.456 49.7296 140.898 49.3306C138.862 47.874 136.827 46.4174 134.792 44.9409C134.393 44.6416 133.834 44.462 133.814 43.5242C136.468 45.3399 138.962 47.0559 141.476 48.7719C141.955 47.9139 141.496 47.5148 140.957 47.1357C138.822 45.5794 136.667 44.0031 134.532 42.4268C134.173 42.1674 133.635 41.9878 133.894 41.2296C136.428 43.0054 138.922 44.7413 141.436 46.4972C141.975 45.6791 141.596 45.2601 140.997 44.8212C138.922 43.3247 136.887 41.7883 134.852 40.232C134.453 39.9327 133.894 39.7531 133.794 38.8552C136.428 40.7507 138.942 42.5465 141.456 44.3622C142.035 43.4843 141.516 43.0453 140.977 42.6064C138.862 40.9303 136.727 39.2742 134.612 37.5782C134.313 37.3388 133.794 37.2191 133.874 36.4808C136.248 38.2367 138.543 39.9327 140.838 41.6287C141.097 41.8282 141.277 42.1674 141.696 42.0676C141.835 40.0723 142.474 38.1768 142.913 36.2414C143.072 35.523 143.152 34.5653 144.27 34.5254C144.29 41.8083 144.329 49.0712 144.349 56.354C144.369 71.0993 144.349 85.8446 144.349 100.59C144.309 100.869 144.27 101.149 144.25 101.428Z" fill="white"/>
<path d="M5.25903 151.091C5.23867 151.091 5.23867 151.092 5.21831 151.112C5.19795 151.132 5.17759 151.153 5.15723 151.153V151.071C5.17759 151.051 5.21831 151.03 5.25903 151.091Z" fill="white"/>
<path d="M156.381 64.8558C156.222 75.1715 156.302 85.5072 156.302 95.8229C156.302 96.202 156.341 96.5812 156.381 96.9802C156.282 97.6985 156.242 98.4168 156.242 99.1352V99.1551C156.242 99.634 156.242 100.113 156.262 100.612V100.632C156.282 101.17 156.302 101.689 156.302 102.228C156.321 103.265 156.082 103.764 154.985 103.585C154.785 103.565 154.586 103.545 154.386 103.545C154.167 103.545 153.927 103.585 153.708 103.684C153.368 103.684 153.009 103.684 152.67 103.704C152.89 103.265 152.909 102.787 152.909 102.288C152.909 88.6798 152.909 75.0718 152.929 61.4638C152.929 60.8253 152.79 60.3664 152.211 60.0272C151.433 59.5882 150.695 59.0894 149.817 58.5307C149.777 58.8899 149.737 59.0694 149.737 59.249C149.757 73.4955 149.757 87.722 149.777 101.968C149.777 102.268 149.777 102.547 149.797 102.846C149.817 103.046 149.917 103.226 150.136 103.186C150.236 103.166 150.375 103.026 150.395 102.906C150.435 102.627 150.435 102.328 150.435 102.048C150.475 91.0342 150.495 80.0401 150.535 69.026C150.535 66.0729 150.535 63.1199 150.535 59.9075C150.575 59.8875 150.635 59.8476 150.715 59.8476C151.573 60.5859 152.131 61.1246 152.131 62.2819C152.051 71.0213 152.071 79.7607 152.071 88.5002C152.071 93.5483 152.071 98.6164 152.071 103.744H148.34C148.34 103.744 148.34 103.764 148.36 103.764C148.34 103.764 148.32 103.744 148.3 103.744C145.946 102.208 147.223 99.7337 146.764 97.6985C146.425 98.0776 146.684 98.5565 146.525 98.9356C146.485 98.6962 146.405 98.4567 146.405 98.2373V97.9779C146.405 84.0107 146.405 70.0636 146.405 56.1164V54.2607C148.879 55.9368 151.014 57.6129 153.348 58.9098C155.843 60.2467 156.421 62.1222 156.381 64.8558Z" fill="white"/>
<path d="M128.626 154.423C127.908 155.46 127.529 156.757 126.092 157.136C125.034 157.416 123.937 157.376 122.879 157.775C122.401 157.954 122.061 157.436 121.762 157.057C121.084 156.238 120.286 155.6 119.248 155.221C118.49 154.942 117.871 154.981 117.332 155.54L117.313 155.56C113.482 155.001 109.631 155.44 105.8 155.241C104.503 155.181 103.864 155.5 103.924 156.657C103.924 156.777 103.944 156.877 103.944 157.017C103.565 156.897 103.325 156.258 102.847 156.618C101.051 157.934 98.836 157.555 96.8607 158.154C96.4816 158.274 96.1025 158.314 95.9229 158.693C95.6236 159.351 95.0449 159.351 94.4663 159.331V145.145C94.6658 145.125 94.9252 145.184 95.025 145.085C96.0625 143.987 97.14 144.087 98.3771 144.746C99.4147 145.304 100.612 145.544 101.41 146.561C101.989 147.3 102.827 147.838 102.587 148.976C102.527 149.315 102.807 149.574 103.166 149.714C104.243 150.113 105.68 149.235 105.72 148.118C105.74 147.579 106.059 147.758 106.279 147.758C106.957 147.719 107.655 147.719 108.334 147.699C108.374 147.699 108.413 147.699 108.453 147.699C110.189 147.679 111.905 147.699 113.641 147.619C116.355 147.499 118.669 146.741 119.408 143.688C119.408 143.688 119.408 143.688 119.428 143.688C119.647 143.588 119.727 143.069 120.086 143.389C122.221 145.324 124.635 144.546 127.01 144.087C127.548 143.987 128.107 143.309 128.686 144.027C127.987 147.18 126.032 149.295 122.919 150.871C125.214 151.729 127.229 152.607 128.626 154.423Z" fill="white"/>
<path d="M89.2982 18.6036C85.6668 16.1693 82.0353 13.6951 78.3839 11.2808C77.486 10.7022 77.067 10.0836 77.1069 8.94629C77.2067 6.69159 77.1668 4.41694 77.1269 2.16225C77.1069 0.98502 75.2513 -0.311928 74.1738 0.0671801C74.2536 0.286664 74.3933 0.506148 74.4133 0.725631C74.6328 3.33948 74.5729 5.99324 74.6327 8.60708C74.9121 21.8958 74.5729 35.2045 74.952 48.5132C75.1914 56.9932 75.0119 65.4932 75.0119 73.9932C75.0119 74.8512 75.0518 75.7092 75.2912 76.5472C75.2912 76.5472 75.2912 76.5472 75.2912 76.5672C75.8499 76.7667 76.4086 76.9463 76.9673 77.1258C77.087 77.066 77.1867 77.0061 77.2666 76.9263C77.7055 76.4674 77.4262 75.7491 77.6656 75.2303C77.6656 75.2303 77.6656 75.2103 77.6856 75.2103C77.8452 74.6317 77.2267 73.8535 77.8851 73.4146C77.9051 73.4345 77.925 73.4545 77.945 73.4744C78.0048 73.5143 78.0647 73.5343 78.1245 73.5742C78.1445 73.4744 78.1644 73.3747 78.2043 73.2749C77.1668 72.4768 77.7853 71.3594 77.6656 70.4017V70.3817C77.8851 69.8031 77.2267 68.985 77.8851 68.5261C77.8851 68.546 77.905 68.546 77.925 68.566C78.0048 68.6059 78.0647 68.6258 78.1445 68.6657C78.1644 68.566 78.1844 68.4662 78.2043 68.3665C77.1867 67.5484 77.7853 66.431 77.6656 65.4533C77.6656 64.7949 77.6856 64.1364 77.6856 63.478C77.7454 63.5378 77.7853 63.5777 77.8452 63.6176C77.8053 63.5179 77.7454 63.3981 77.6856 63.2984C77.7454 62.4604 77.3264 61.5625 78.0048 60.8242C78.0048 60.7643 78.0248 60.7045 78.0248 60.6446C77.9849 60.6646 77.925 60.6646 77.8851 60.6845C77.3863 60.0261 77.6656 59.2479 77.6656 58.5296C77.7255 58.5895 77.7853 58.6493 77.8452 58.7092C77.7853 58.5895 77.7255 58.4498 77.6457 58.3301C77.6457 57.4322 77.6457 56.5343 77.6257 55.6564C77.6457 55.6364 77.6457 55.6165 77.6656 55.5965C77.6457 55.5965 77.6457 55.6165 77.6257 55.6165C77.6257 54.9381 77.6257 54.2796 77.6257 53.6012V53.4017C77.4062 52.5437 77.0271 51.6658 78.0048 50.9874C78.0048 50.9275 78.0248 50.8876 78.0248 50.8277C77.9649 50.8277 77.925 50.8477 77.8651 50.8676C77.2466 50.2092 77.506 49.431 77.6058 48.6728C77.6058 48.6129 77.6257 48.5531 77.6257 48.4932C77.2865 47.6153 77.2666 46.7174 77.6058 45.8395C77.4262 45.1611 77.4661 44.4827 77.5658 43.8043C77.5858 43.7244 77.5858 43.6247 77.6058 43.5449C77.1867 42.6669 77.2067 41.789 77.6058 40.931C77.6457 40.8911 77.6656 40.8312 77.7055 40.7913C77.6656 40.8113 77.6257 40.8113 77.5858 40.8312C77.4661 40.1728 77.4262 39.5144 77.5459 38.8559C77.5659 38.7561 77.5858 38.6763 77.6058 38.5766C77.1668 37.6986 77.2266 36.8207 77.6257 35.9428C77.6457 35.9228 77.6457 35.9029 77.6656 35.8829C77.6457 35.8829 77.6457 35.8829 77.6257 35.9028C77.5658 35.2244 77.1269 34.5261 77.6457 33.9275C77.7055 33.8477 77.8053 33.7679 77.9051 33.708C77.1468 32.9099 77.8452 31.9521 77.6058 31.0742C77.6058 31.0543 77.6058 31.0543 77.6058 31.0343C77.6058 31.0343 77.5858 31.0343 77.5858 31.0543C77.5459 30.9744 77.506 30.8946 77.486 30.8148C77.3863 30.1364 77.067 29.2385 77.6058 28.8395C78.0248 28.5202 78.6832 29.2385 79.2219 29.5179C80.1198 29.9967 80.9978 30.4956 81.8757 30.9944C81.8757 31.0144 81.8757 31.0343 81.8757 31.0543C81.8957 31.0543 81.9356 31.0343 81.9555 31.0343C82.8335 30.3759 82.2548 29.5179 82.2548 28.7397C82.2548 28.7198 82.2349 28.7198 82.2349 28.6998C82.2349 28.6998 82.2149 28.6998 82.2149 28.7198C81.1773 28.1212 80.1597 27.5226 79.1222 26.924C79.1022 26.904 79.1022 26.8841 79.0823 26.8841C79.0025 26.904 78.9227 26.924 78.8628 26.924C78.5435 26.9838 78.2842 26.924 78.2842 26.4651V26.4252H78.2642C78.0048 26.066 77.3464 26.0261 77.4262 25.3876C77.486 24.8888 77.1468 24.2104 77.5658 23.9111C77.9849 23.6118 78.4438 24.1505 78.8229 24.37C81.6163 25.9662 84.3299 27.6622 87.1832 29.1388C88.3405 29.7374 88.7994 30.4557 88.6996 31.4533C88.6797 31.6928 88.6198 31.9521 88.54 32.2315C88.979 31.7526 89.398 31.2538 90.0764 31.1141C90.0964 27.4028 90.1163 23.6916 90.1562 20.0003C90.1961 19.2221 89.7971 18.9228 89.2982 18.6036ZM77.506 13.5953C81.1374 15.87 84.6691 18.0848 88.2008 20.2996C89.1386 20.8982 88.4403 21.796 88.7396 22.8336C85.3076 20.7385 82.175 18.7233 78.9027 16.9275C77.5259 16.1294 77.067 15.2514 77.506 13.5953ZM88.6398 27.4627C84.9285 25.2878 81.3968 23.2526 77.8651 21.1775C76.8675 20.5989 77.5459 19.6012 77.2466 18.4838C81.1374 20.7984 84.6891 22.8935 88.2208 25.0484C89.1386 25.5871 88.5001 26.485 88.6398 27.4627Z" fill="white"/>
<path d="M103.964 89.5566C102.467 89.1974 101.469 87.9603 100.073 87.3817C99.5341 87.1622 98.7559 87.0624 98.4566 86.3441C97.9777 85.7854 97.9977 85.0871 97.9977 84.4286C97.9977 67.0894 97.9977 49.7502 97.9977 32.3911C97.9977 31.7127 97.9777 31.0343 98.4765 30.4756C100.332 31.2937 101.829 32.7103 103.565 33.7279C104.203 34.107 103.944 34.7655 103.944 35.3242C103.964 48.2937 103.964 61.2631 103.964 74.2326C103.964 79.3406 103.964 84.4486 103.964 89.5566Z" fill="white"/>
<path d="M98.4769 30.4756C98.4769 49.0918 98.457 67.7279 98.457 86.3441C96.5614 85.4263 94.6459 84.5284 92.8701 83.411C92.8901 75.6493 92.93 67.8676 92.9499 60.1059C92.9699 51.6059 92.9699 43.1258 92.93 34.6258C92.93 33.6282 93.1894 33.0296 94.1272 32.6305C95.5837 31.992 96.9006 30.9545 98.4769 30.4756Z" fill="white"/>
<path d="M165.639 145.466C164.741 146.144 164.581 147.481 163.185 147.78C161.828 148.06 160.691 148.419 159.613 147.122C158.895 146.284 157.877 145.705 156.999 145.007C156.62 144.708 156.221 144.348 155.802 144.967C155.742 144.947 155.682 144.927 155.642 144.907C155.662 144.867 155.682 144.847 155.702 144.807C155.184 143.949 155.044 142.872 154.306 142.094C153.128 144.887 151.971 147.601 150.814 150.334C150.754 150.474 150.694 150.594 150.654 150.733C150.554 150.035 149.996 150.075 149.557 150.155C147.362 150.514 146.005 148.658 144.169 148.08C143.391 147.82 143.89 146.463 143.012 146.044C145.008 141.196 147.023 136.327 148.998 131.479C149.317 130.72 149.716 130.381 150.594 130.401C153.208 130.481 155.802 130.441 158.416 130.421C158.995 130.421 159.394 130.501 159.653 131.12C161.608 135.888 163.624 140.677 165.639 145.466Z" fill="white"/>
<path d="M125.414 98.2573C123.558 97.3794 121.463 97.2198 119.567 96.4815C119.787 96.0824 119.727 95.6435 119.727 95.2045C119.727 80.0003 119.707 64.7961 119.727 49.5918C119.727 49.093 119.508 48.4545 120.046 48.1153C120.625 47.7761 120.984 48.4346 121.443 48.5942C124.855 49.7914 125.553 52.1658 125.493 55.6775C125.254 69.8641 125.394 84.0707 125.414 98.2573Z" fill="white"/>
<path d="M86.3463 160.051C86.3863 159.173 85.9074 158.654 85.1093 158.535C83.2736 158.235 81.7971 156.998 80.0013 156.619C79.4226 156.499 79.0036 156.04 78.6445 155.581C77.986 154.743 77.6668 155.222 77.3675 155.861C77.3475 147.72 77.3475 139.559 77.3076 131.418C77.3076 130.56 77.6069 130.381 78.3851 130.381C80.8992 130.421 83.3933 130.421 85.9074 130.381C86.7654 130.361 86.9449 130.68 86.925 131.458C86.8851 139.839 86.8851 148.239 86.8452 156.619C86.8452 157.796 86.7654 158.954 86.3463 160.051Z" fill="white"/>
<path d="M106.617 82.3137C106.597 75.5097 106.597 68.7057 106.558 61.9017C106.558 61.1435 106.797 60.7843 107.515 60.5649C109.052 60.066 110.548 59.4874 112.005 58.7691C110.648 58.6693 109.491 59.3677 108.254 59.7268C106.538 60.2257 106.757 60.2257 106.518 58.4897C106.079 55.3172 107.036 53.4416 110.309 52.5637C112.683 51.9252 114.878 50.6083 117.252 49.5508C117.252 57.951 117.252 66.2315 117.252 74.512C116.853 75.0308 116.275 75.2703 115.656 75.4299C115.038 75.5895 114.459 75.8689 114.1 76.3876C113.342 77.485 112.663 77.3653 111.805 76.4475C111.087 75.6693 110.029 75.5097 109.032 75.37C108.214 75.2503 107.555 76.1881 107.615 77.1658C107.635 77.505 107.795 77.8043 107.954 78.1036C108.912 79.9792 108.533 81.1365 106.617 82.3137Z" fill="white"/>
<path d="M59.3494 150.094C58.6909 150.434 58.671 151.132 58.5313 151.711C58.3118 152.688 57.8728 153.486 57.1745 154.185C56.3764 155.003 55.6381 155.542 54.7003 154.344C54.421 153.985 53.8822 153.925 53.3834 153.846C52.4456 153.666 51.3682 153.666 51.3682 152.17C51.3682 151.371 50.59 151.172 49.8318 151.272C49.8118 144.627 49.7919 137.983 49.752 131.339C49.752 130.64 49.9714 130.421 50.6698 130.441C53.2637 130.481 55.8775 130.461 58.4714 130.441C59.1498 130.441 59.3893 130.64 59.3893 131.339C59.3693 137.564 59.3693 143.829 59.3494 150.094Z" fill="white"/>
<path d="M57.6331 113.601C53.8221 114.34 49.9911 115.058 46.1801 115.836C32.6519 118.59 19.6824 122.86 7.57091 129.604C7.29157 129.684 7.21176 129.544 7.27162 129.304C20.5803 118.63 35.565 111.387 52.1061 107.276C52.2857 107.236 52.4852 107.236 52.6848 107.236C52.984 107.296 53.3432 107.416 52.8843 107.715C52.2059 108.154 51.4876 108.493 50.47 108.633C52.7845 108.673 53.1237 110.549 53.9218 111.965C54.3209 112.664 55.119 112.703 55.7775 112.943C56.416 113.142 57.1143 113.122 57.6331 113.601Z" fill="white"/>
<path d="M106.618 82.3138C107.117 81.7351 107.396 81.0168 107.955 80.4581C108.693 79.7398 108.214 79.0215 107.735 78.4229C106.997 77.545 107.097 76.6471 107.596 75.7692C107.995 75.0908 108.494 74.6119 109.471 75.011C110.609 75.4699 111.926 75.5297 112.644 76.7469C112.843 77.0661 113.183 77.106 113.322 76.7868C114.14 75.1307 115.836 75.0509 117.273 74.4922C117.273 81.3959 117.273 88.2797 117.273 95.383C114.719 94.2657 112.245 93.1882 109.671 92.0509C110.429 91.4124 111.367 91.7516 112.185 91.153C111.527 90.8337 111.028 91.0333 110.549 91.0732C109.93 91.133 109.312 91.2927 108.693 91.2927C106.798 91.2527 106.598 91.0133 106.618 89.1776C106.658 86.0051 106.658 86.0051 109.731 85.4065C110.429 85.2668 111.147 85.0873 111.846 84.9276C111.906 84.9077 111.926 84.788 112.025 84.6283C110.529 84.4288 109.152 84.9476 107.795 85.2868C106.798 85.5462 106.498 85.3267 106.578 84.329C106.638 83.6706 106.618 82.9922 106.618 82.3138Z" fill="white"/>
<path d="M50.2899 70.6214C48.574 70.3021 46.858 69.9829 45.1221 69.6636C44.9226 59.5674 44.743 49.4712 44.5435 39.0557C46.3392 40.3526 47.8756 41.4899 49.432 42.5873C49.831 42.8667 49.8111 43.2258 49.8111 43.605C49.9707 52.6038 50.1303 61.6226 50.2899 70.6214Z" fill="white"/>
<path d="M61.0455 72.795C58.2122 72.2364 55.3589 71.8572 52.5854 71.0392C52.5854 65.4523 52.5854 59.8854 52.5854 54.2188C55.1993 55.3561 57.873 56.5133 60.5667 57.6706C61.265 57.9699 60.9857 58.5685 61.0056 59.0474C61.0256 63.6366 61.0256 68.2258 61.0455 72.795Z" fill="white"/>
<path d="M144.229 34.525C143.371 35.0837 143.272 36.0215 143.092 36.8994C142.753 38.6553 142.234 40.3712 141.635 42.0672C141.795 41.2691 141.516 40.7503 140.837 40.2515C138.702 38.6952 136.627 37.0391 134.492 35.4827C133.814 34.9839 133.495 34.4651 133.515 33.5872C133.554 29.3572 133.534 25.1072 133.534 20.7773C134.233 20.8771 134.572 21.3759 134.971 21.7351C137.485 23.9698 139.939 26.2844 142.533 28.4593C143.83 29.5367 144.588 30.6541 144.309 32.39C144.189 33.0684 144.249 33.8067 144.229 34.525Z" fill="white"/>
<path d="M57.0352 55.1186C56.9354 55.0987 56.8356 55.0987 56.7558 55.0588C55.3591 54.4203 53.5234 54.121 52.6655 53.0635C51.7875 51.966 52.426 50.0905 52.3861 48.574C52.3263 46.7982 52.6655 44.9426 52.2864 43.2466C51.5082 39.7548 52.1068 36.283 51.8474 32.8111C51.7875 31.9132 52.1068 31.3945 52.8849 30.9954C54.4812 30.1973 55.8779 29.02 57.6138 28.4414C58.0129 29.02 58.0727 29.6985 58.0727 30.3769C57.953 34.9461 58.0927 39.4954 57.8932 44.0646C57.7535 46.9977 57.6537 50.0107 57.973 52.9637C58.0927 53.7818 58.372 54.8592 57.0352 55.1186Z" fill="white"/>
<path d="M29.8589 122.6C42.6288 118.529 55.7579 116.135 69.0267 114.499C78.1652 113.381 87.3635 112.803 96.5619 112.364C108.973 111.745 121.344 112.463 133.714 113.301C136.508 113.481 139.281 113.681 142.055 114.08C142.055 113.94 142.055 113.8 142.055 113.641C131.46 113.641 120.865 113.601 110.27 113.661C98.3577 113.72 86.4457 114.04 74.5736 115.157C59.8682 116.534 45.3823 119.267 31.0361 122.799C30.7568 122.859 30.4575 122.899 30.1781 122.959C29.8589 123.019 29.7791 122.899 29.8589 122.6Z" fill="white"/>
<path d="M12.6994 187.108C12.6994 189.263 12.6195 191.418 12.7393 193.573C12.8191 194.91 12.0409 194.73 11.2228 194.75C10.305 194.79 9.74631 194.75 9.78621 193.513C9.88598 190.181 9.80616 186.869 9.84607 183.537C9.84607 182.938 9.38715 181.94 10.2052 181.761C11.2029 181.541 12.3202 181.342 13.1782 182.539C14.7745 184.774 16.5303 186.889 18.2263 189.044C18.3062 189.143 18.366 189.283 18.7252 189.303C18.7252 187.168 18.8249 185.013 18.6853 182.898C18.6055 181.422 19.5233 181.761 20.3414 181.681C21.2991 181.581 21.6982 181.821 21.6583 182.898C21.5585 186.27 21.6184 189.642 21.5386 193.014C21.5186 193.593 22.0374 194.551 21.1195 194.71C20.1618 194.87 19.1242 195.05 18.3261 193.892C16.67 191.538 14.8144 189.303 13.0386 187.028C12.8989 187.048 12.7991 187.088 12.6994 187.108Z" fill="white"/>
<path d="M44.6242 190.879C44.3249 190.46 44.0855 190.121 44.7639 189.782C46.7792 188.804 47.1383 186.47 46.5996 184.514C46.1207 182.818 44.4247 181.741 42.17 181.681C40.494 181.641 38.798 181.741 37.1219 181.661C36.1242 181.621 35.9247 182 35.9447 182.898C35.9846 186.37 36.0245 189.842 35.9447 193.314C35.9247 194.551 36.3437 194.79 37.501 194.79C38.7381 194.81 39.1172 194.371 38.9975 193.214C38.9376 192.695 39.0374 192.156 38.9975 191.618C38.9576 190.959 39.1571 190.76 39.8754 190.66C41.3719 190.46 41.8308 191.598 42.2897 192.496C43.3073 194.511 44.8038 195.249 47.1782 194.551C46.3003 193.314 45.4623 192.096 44.6242 190.879ZM42.2099 188.026C41.7311 188.086 41.2522 188.026 40.5538 188.026C40.2146 187.906 39.2968 188.405 39.1172 187.727C38.8379 186.749 38.8778 185.652 39.0972 184.614C39.1571 184.355 39.4764 184.375 39.7158 184.375C40.5339 184.375 41.3519 184.355 42.1501 184.415C43.2674 184.494 43.9458 185.113 43.9259 186.25C43.9059 187.328 43.2275 187.906 42.2099 188.026Z" fill="white"/>
<path d="M93.6089 190.22C95.9434 188.784 96.7216 187.108 96.1828 184.873C95.7638 183.077 94.1676 181.8 92.0127 181.7C90.0972 181.621 88.1617 181.7 86.2263 181.68C85.5678 181.66 85.4082 181.94 85.4082 182.538C85.4282 186.29 85.4282 190.061 85.4481 193.812C85.4481 194.171 85.3284 194.55 85.8671 194.75C87.4235 195.288 88.3413 194.67 88.3613 193.034C88.3613 192.555 88.4012 192.076 88.3812 191.597C88.3413 190.919 88.6007 190.719 89.2791 190.659C90.9152 190.48 91.2145 191.856 91.853 192.774C93.4692 195.069 93.7286 195.209 96.5819 194.59C95.6242 193.153 94.6465 191.737 93.6089 190.22ZM91.8131 188.005C91.2944 188.105 90.7556 188.065 90.2368 188.105C89.6383 187.966 88.6805 188.424 88.5209 187.806C88.2615 186.828 88.4411 185.711 88.4211 184.653C88.4211 184.613 88.461 184.554 88.5009 184.534C89.5784 184.135 90.6758 184.334 91.7732 184.434C92.4915 184.494 93.0502 184.873 93.2697 185.611C93.6289 186.748 93.0103 187.786 91.8131 188.005Z" fill="white"/>
<path d="M161.45 192.356C160.951 191.638 160.452 190.939 159.973 190.221C160.093 190.101 160.193 189.981 160.312 189.902C162.367 188.545 163.026 186.929 162.447 184.754C161.948 182.898 160.332 181.741 158.038 181.681C156.262 181.641 154.466 181.701 152.69 181.681C152.052 181.681 151.752 181.801 151.752 182.539C151.792 186.35 151.772 190.161 151.772 193.952C151.772 194.331 151.752 194.651 152.311 194.77C154.187 195.129 154.705 194.77 154.725 192.915C154.725 192.615 154.686 192.336 154.745 192.057C154.825 191.598 154.406 190.839 155.224 190.76C155.923 190.7 156.761 190.361 157.279 191.298C157.619 191.937 158.098 192.496 158.497 193.094C159.754 194.93 160.612 195.209 162.946 194.511C162.427 193.793 161.948 193.074 161.45 192.356ZM158.337 187.966C157.798 188.106 157.2 188.086 156.621 188.126C156.002 187.906 155.005 188.465 154.785 187.767C154.506 186.849 154.705 185.771 154.725 184.774C154.725 184.694 154.805 184.594 154.865 184.534C155.464 184.016 158.876 184.514 159.335 185.193C160.053 186.21 159.554 187.647 158.337 187.966Z" fill="white"/>
<path d="M164.981 188.265C164.981 186.429 165 184.593 164.961 182.758C164.941 182 165.1 181.64 165.978 181.66C168.572 181.72 171.186 181.74 173.8 181.64C175.236 181.581 174.797 182.538 174.917 183.257C175.077 184.274 174.518 184.334 173.74 184.314C172.144 184.274 170.547 184.394 168.971 184.294C167.794 184.214 167.934 184.913 167.894 185.651C167.854 186.489 167.954 187.008 169.031 186.928C170.428 186.828 171.824 186.948 173.221 186.888C174.538 186.828 174.019 187.766 174.119 188.365C174.219 189.063 174.139 189.562 173.181 189.502C171.884 189.422 170.567 189.542 169.27 189.462C168.253 189.402 167.814 189.622 167.854 190.779C167.894 191.796 168.053 192.255 169.191 192.176C170.767 192.076 172.383 192.176 173.959 192.136C174.797 192.116 175.236 192.295 175.137 193.253C175.057 194.051 175.236 194.829 173.9 194.789C171.346 194.67 168.792 194.71 166.238 194.789C165.18 194.829 164.941 194.45 164.981 193.473C165.04 191.737 165 190.001 164.981 188.265Z" fill="white"/>
<path d="M126.591 98.2764C126.591 91.0534 126.591 83.8304 126.591 76.6074C126.671 76.6074 126.77 76.6074 126.85 76.6074C126.85 78.8621 126.85 81.0969 126.85 83.3515C126.85 83.5511 126.83 83.7307 126.85 83.9302C126.93 84.7483 126.491 85.9454 127.489 86.2248C128.506 86.5041 129.165 85.4666 129.703 84.6884C130.222 83.9302 130.601 83.0922 131.06 82.314C131.24 82.0147 131.32 81.456 131.819 81.6356C132.198 81.7753 132.018 82.2142 132.038 82.5335C132.058 82.8727 131.998 83.2119 132.297 83.4713C132.317 89.0781 132.317 94.6649 132.337 100.272C131.519 99.6931 130.542 99.6133 129.604 99.4537C128.526 99.2741 127.628 98.6156 126.591 98.2764Z" fill="white"/>
<path d="M109.85 186.308C109.75 187.944 110.05 189.6 109.591 191.196C108.812 193.93 106.697 195.227 103.425 194.967C100.552 194.728 98.6364 193.052 98.4568 190.278C98.2972 187.684 98.377 185.071 98.397 182.477C98.397 181.04 99.5343 181.878 100.133 181.718C100.831 181.539 101.31 181.738 101.29 182.656C101.25 184.771 101.27 186.906 101.29 189.021C101.31 191.176 102.308 192.313 104.084 192.293C105.919 192.274 106.937 191.196 106.957 189.061C106.997 186.946 107.017 184.811 106.917 182.696C106.857 181.459 107.615 181.678 108.314 181.698C109.012 181.718 109.93 181.359 109.83 182.716C109.79 183.893 109.85 185.09 109.85 186.308Z" fill="white"/>
<path d="M137.565 186.209C137.565 185.291 137.565 184.373 137.565 183.455C137.565 181.739 138.323 181.22 140.059 181.679C140.718 181.859 140.498 182.338 140.518 182.717C140.538 184.932 140.478 187.146 140.558 189.361C140.638 191.576 142.414 192.793 144.449 192.075C145.866 191.576 146.245 190.419 146.245 189.082C146.265 187.007 146.324 184.932 146.225 182.877C146.165 181.739 146.664 181.6 147.581 181.679C148.34 181.759 149.258 181.4 149.158 182.797C148.998 185.331 149.357 187.905 148.958 190.439C148.459 193.551 146.165 195.188 142.793 194.948C139.6 194.729 137.645 192.673 137.585 189.521C137.545 188.423 137.565 187.326 137.565 186.209Z" fill="white"/>
<path d="M56.1166 182.138C55.7574 181.3 53.3032 181.44 52.9241 182.318C51.1283 186.408 49.3924 190.499 47.5767 194.769C48.3947 194.769 49.0532 194.729 49.7316 194.769C50.3302 194.809 50.7891 194.689 50.9088 194.03C51.248 192.275 52.3255 191.736 54.0015 192.035C54.5203 192.135 55.079 192.135 55.5778 192.035C56.9346 191.776 57.6529 192.394 57.9323 193.651C58.1318 194.549 58.6306 194.928 59.5684 194.809C60.1271 194.729 60.7058 194.789 61.4839 194.789C59.6483 190.439 57.9123 186.269 56.1166 182.138ZM52.8842 189.401C53.2433 188.005 53.822 186.747 54.5004 185.231C55.1588 186.767 55.6976 188.005 56.2961 189.401H52.8842Z" fill="white"/>
<path d="M67.0113 194.988C65.4151 194.869 63.7989 194.629 62.4221 193.632C62.043 193.352 61.2249 193.073 61.9432 192.494C62.5219 192.015 62.6216 190.579 63.9186 191.317C64.9362 191.896 65.9538 192.395 67.1709 192.375C67.9092 192.355 68.7273 192.315 68.9068 191.417C69.0864 190.499 68.3482 190.18 67.6298 189.96C66.712 189.661 65.7742 189.442 64.8763 189.122C62.8611 188.404 62.0629 187.207 62.2026 185.192C62.3423 183.296 63.4597 182.079 65.435 181.66C67.3705 181.261 69.1662 181.6 70.8223 182.677C71.1615 182.897 71.9197 183.096 71.3012 183.695C70.7824 184.194 70.7026 185.391 69.5852 184.972C68.6874 184.633 67.8094 184.214 66.8317 184.194C66.0935 184.174 65.3153 184.214 65.1357 185.152C64.9761 186.03 65.6744 186.309 66.3129 186.528C67.1709 186.848 68.0489 187.087 68.9268 187.386C71.3411 188.204 72.1592 189.402 71.9198 191.636C71.7202 193.472 70.3435 194.649 68.1087 194.929C67.7496 194.949 67.4104 194.949 67.0113 194.988Z" fill="white"/>
<path d="M151.313 59.8658C151.153 59.8059 150.974 59.766 150.794 59.8059C150.774 59.8059 150.734 59.8059 150.715 59.8259C150.655 59.786 150.595 59.7261 150.535 59.6862V59.9057C150.096 60.1451 150.216 60.8634 150.176 61.3822C150.176 61.482 150.176 61.5817 150.176 61.6815C150.176 62.2202 150.176 62.7789 150.176 63.3177V61.462C150.176 61.1228 150.176 60.7836 150.176 60.4444C150.196 59.3869 150.635 59.4268 151.313 59.8658Z" fill="white"/>
<path d="M152.65 103.724C150.535 104.282 148.4 104.163 146.265 103.783C146.305 103.744 146.325 103.704 146.365 103.664C146.465 103.604 146.564 103.584 146.684 103.624C146.744 103.644 146.784 103.664 146.844 103.684C147.323 103.684 147.802 103.684 148.28 103.684H148.32C148.32 103.684 148.32 103.704 148.34 103.704C149.198 104.043 150.116 103.744 150.994 103.863C152.032 104.023 152.411 103.664 152.49 102.846C152.51 103.165 152.55 103.444 152.65 103.724Z" fill="white"/>
<path d="M118.71 194.987C115.517 194.967 112.843 193.012 112.105 190.139C111.287 186.926 112.464 183.933 115.138 182.417C117.752 180.92 121.703 181.3 123.658 183.235C123.818 183.395 124.117 183.554 123.937 183.794C123.558 184.273 123.059 184.692 122.66 185.17C121.962 186.008 121.583 185.13 121.144 184.891C119.528 184.013 117.712 183.993 116.515 184.971C115.098 186.128 114.719 187.665 115.138 189.4C115.537 191.037 116.694 192.054 118.37 192.274C119.588 192.433 120.645 192.014 121.583 191.256C122.82 190.238 123.099 191.715 123.698 192.154C124.536 192.773 123.638 193.112 123.279 193.431C121.942 194.508 120.406 194.987 118.71 194.987Z" fill="white"/>
<path d="M57.0347 55.1186C57.8926 54.6797 57.7131 53.8616 57.6133 53.2031C57.0945 50.1304 57.334 47.0177 57.4736 43.9848C57.6931 38.797 57.4936 33.6092 57.6532 28.4414C59.5887 29.1398 60.2671 30.3968 60.2272 32.5717C60.0675 40.493 60.1673 48.4344 60.1673 56.5153C58.9701 56.1961 58.0124 55.6374 57.0347 55.1186Z" fill="white"/>
<path d="M24.252 188.225C24.252 186.35 24.272 184.474 24.2321 182.599C24.2121 181.92 24.3917 181.661 25.11 181.681C27.7638 181.721 30.4175 181.741 33.0513 181.681C34.1288 181.661 33.9292 182.359 33.8694 182.938C33.8295 183.496 34.3283 184.394 33.0912 184.374C31.4551 184.354 29.8189 184.434 28.1828 184.374C26.826 184.315 27.245 185.252 27.1851 185.931C27.1253 186.649 27.1253 187.248 28.1828 187.168C29.5795 187.068 30.9762 187.208 32.3729 187.128C33.4703 187.068 33.3706 187.707 33.3506 188.385C33.3307 189.083 33.5501 189.861 32.333 189.762C30.9363 189.662 29.5396 189.782 28.1429 189.742C27.3846 189.722 27.1253 189.981 27.1851 190.739C27.245 191.597 27.1053 192.475 27.2051 193.333C27.3647 194.59 26.826 194.81 25.6687 194.81C24.4516 194.83 24.0924 194.471 24.1722 193.273C24.272 191.597 24.1922 189.901 24.1922 188.225C24.2321 188.225 24.252 188.225 24.252 188.225Z" fill="white"/>
<path d="M130.482 181.7C131.978 181.7 133.475 181.76 134.951 181.68C135.929 181.64 135.949 182.199 135.869 182.857C135.789 183.456 136.328 184.433 135.031 184.373C134.991 184.373 134.932 184.373 134.892 184.393C133.914 184.553 132.577 183.914 132.058 184.753C131.599 185.471 131.919 186.708 131.919 187.726C131.919 189.701 131.879 191.676 131.978 193.652C132.058 195.168 131.021 194.709 130.262 194.789C129.444 194.869 128.946 194.769 128.966 193.672C129.045 190.978 128.946 188.284 128.985 185.591C129.005 184.713 128.746 184.353 127.868 184.433C127.449 184.473 127.01 184.413 126.571 184.413C124.975 184.393 124.536 183.735 124.975 182.199C125.135 181.66 125.494 181.72 125.853 181.72C127.409 181.68 128.946 181.68 130.482 181.7Z" fill="white"/>
<path d="M78.2843 181.678C79.7808 181.678 81.2773 181.738 82.7738 181.659C83.9311 181.599 83.6916 182.377 83.6717 182.995C83.6517 183.594 84.0109 184.472 82.8336 184.372C82.7937 184.372 82.7339 184.372 82.694 184.372C79.6811 184.512 79.6811 184.512 79.6811 187.525C79.6811 189.54 79.5813 191.575 79.721 193.59C79.8008 194.947 79.0425 194.748 78.2245 194.788C77.3066 194.828 76.708 194.788 76.7679 193.551C76.8677 190.897 76.748 188.243 76.8078 185.609C76.8278 184.671 76.5883 184.252 75.6106 184.372C75.2315 184.412 74.8325 184.332 74.4534 184.392C73.0167 184.671 72.7972 183.953 72.8771 182.736C72.917 181.898 73.1764 181.678 73.9745 181.698C75.4111 181.758 76.8677 181.718 78.3043 181.718C78.2843 181.678 78.2843 181.678 78.2843 181.678Z" fill="white"/>
<path d="M6.95185 188.185C6.95185 190.021 6.87204 191.857 6.9718 193.673C7.05161 195.129 6.07391 194.71 5.35561 194.73C4.6772 194.77 3.93894 194.989 3.95889 193.752C4.0387 190.041 4.01875 186.33 3.97885 182.619C3.95889 181.082 5.07626 181.82 5.71476 181.681C6.43307 181.541 7.01171 181.621 6.95185 182.658C6.87204 184.514 6.9319 186.35 6.95185 188.185C6.9319 188.185 6.9319 188.185 6.95185 188.185Z" fill="white"/>
<path d="M156.221 99.1334C156.202 98.4151 156.202 97.6968 156.361 96.9785C156.261 97.6968 156.221 98.4151 156.221 99.1334Z" fill="white"/>
<path d="M156.281 102.246C156.301 103.283 156.062 103.782 154.964 103.602C154.765 103.583 154.565 103.563 154.366 103.563C156.181 103.183 156.201 102.944 156.241 100.649C156.261 101.188 156.281 101.707 156.281 102.246Z" fill="white"/>
<path d="M29.8589 122.599C29.9586 122.698 30.0783 122.818 30.1781 122.918C28.4621 123.556 26.7063 124.035 24.8706 124.215C26.5068 123.596 28.123 122.918 29.8589 122.599Z" fill="white"/>
<path d="M7.27147 129.283C7.37124 129.383 7.471 129.483 7.57077 129.582C7.07194 130.121 6.43344 130.381 5.65527 130.46C6.19401 130.081 6.73274 129.682 7.27147 129.283Z" fill="white"/>
<path d="M146.843 103.703C146.643 103.723 146.463 103.762 146.264 103.782C145.286 103.563 144.249 103.862 143.271 103.483C144.468 103.503 145.685 103.204 146.843 103.703Z" fill="white"/>
<path d="M13.6771 93.0081C13.5773 92.9881 13.4576 92.9682 13.3379 92.9482C13.4776 92.9881 13.5973 93.048 13.717 93.1079C13.717 93.068 13.697 93.0281 13.6771 93.0081ZM26.0081 99.1337C25.9083 99.1935 25.8684 99.2933 25.8285 99.3731C25.8884 99.433 25.9682 99.5128 26.028 99.5727C25.9881 99.433 25.9881 99.2734 26.0081 99.1337Z" fill="white"/>
<path d="M155.8 144.946C155.741 144.926 155.682 144.907 155.642 144.887C155.662 144.847 155.682 144.828 155.701 144.788C155.721 144.847 155.761 144.887 155.8 144.946Z" fill="white"/>
<path d="M79.1226 26.8836C79.0229 26.9035 78.9431 26.9035 78.8632 26.8836C78.6039 26.8437 78.4043 26.6841 78.2846 26.4247C78.2846 26.4047 78.2646 26.4047 78.2646 26.3848H78.2846C78.6039 26.4446 78.8632 26.6042 79.0827 26.8437C79.1027 26.8437 79.1027 26.8636 79.1226 26.8836Z" fill="white"/>
<path d="M82.2558 28.7197C82.2358 28.7197 82.2158 28.6997 82.2158 28.6997L82.2358 28.6797C82.2358 28.6797 82.2558 28.6997 82.2558 28.7197Z" fill="white"/>
<path d="M77.606 31.0142C77.627 31.0142 77.627 31.0353 77.627 31.0353L77.606 31.0142Z" fill="white"/>
<path d="M81.9779 31.0153C81.9576 31.0153 81.9168 31.0357 81.8965 31.0357C81.8965 31.0153 81.8965 30.995 81.8965 30.9746C81.9168 30.9746 81.9372 30.995 81.9779 31.0153Z" fill="white"/>
<path d="M78.0238 50.8076C78.0238 50.8669 78.004 50.9064 78.004 50.9657C77.9645 50.9261 77.9052 50.8866 77.8657 50.8471C77.925 50.8274 77.9645 50.8274 78.0238 50.8076Z" fill="white"/>
<path d="M77.7245 40.751C77.7047 40.7905 77.6652 40.8498 77.6257 40.8893C77.6257 40.8498 77.606 40.83 77.606 40.7905C77.6455 40.7707 77.685 40.751 77.7245 40.751Z" fill="white"/>
<path d="M77.6265 58.3291C77.7063 58.4488 77.7661 58.5685 77.826 58.7082C77.7661 58.6483 77.7063 58.5885 77.6464 58.5286C77.6464 58.4688 77.6464 58.389 77.6265 58.3291Z" fill="white"/>
<path d="M78.004 60.6436C78.004 60.7028 77.9843 60.7621 77.9843 60.8214C77.9448 60.7818 77.9052 60.7423 77.8657 60.6831C77.9052 60.6831 77.9645 60.6633 78.004 60.6436Z" fill="white"/>
<path d="M77.6653 55.5957C77.6459 55.6151 77.6459 55.6345 77.6265 55.654V55.6345C77.6265 55.6151 77.6459 55.5957 77.6653 55.5957Z" fill="white"/>
<path d="M77.8256 63.6177C77.7658 63.5777 77.7059 63.5179 77.666 63.478C77.666 63.4181 77.666 63.3583 77.666 63.3184C77.7259 63.4181 77.7658 63.5179 77.8256 63.6177Z" fill="white"/>
<path d="M78.185 68.3662C78.165 68.466 78.1451 68.5657 78.1251 68.6655C78.0453 68.6256 77.9854 68.6056 77.9056 68.5657C77.8857 68.5458 77.8857 68.5458 77.8657 68.5258C77.9455 68.466 78.0653 68.4061 78.185 68.3662Z" fill="white"/>
<path d="M77.6653 35.8428C77.6459 35.8622 77.6459 35.8816 77.6265 35.901C77.6265 35.8816 77.6265 35.8622 77.6265 35.8428C77.6459 35.8428 77.6653 35.8428 77.6653 35.8428Z" fill="white"/>
<path d="M78.185 73.2744C78.1451 73.3742 78.1251 73.4739 78.1052 73.5737C78.0453 73.5338 77.9854 73.5139 77.9256 73.4739C77.9056 73.454 77.8857 73.434 77.8657 73.4141C77.9655 73.3742 78.0653 73.3143 78.185 73.2744Z" fill="white"/>
<path d="M79.1225 26.8836C78.8232 27.2827 78.504 27.6817 77.9852 27.2028C77.5063 26.7838 77.8854 26.5643 78.2446 26.3848H78.2645C78.5838 26.4446 78.8432 26.6042 79.0626 26.8437C79.1026 26.8437 79.1025 26.8636 79.1225 26.8836Z" fill="white"/>
<path d="M112.224 71.7982C111.047 72.5764 110.309 72.7559 109.211 72.6362C110.049 71.9379 110.628 71.7583 112.224 71.7982Z" fill="white"/>
<path d="M109.092 66.2322C109.89 65.474 110.868 65.2744 111.946 65.3543C111.108 65.9728 110.13 66.1923 109.092 66.2322Z" fill="white"/>
<path d="M112.045 78.5435C112.325 78.5834 112.684 78.4637 112.804 78.783C112.943 79.1022 112.644 79.3018 112.424 79.4813C111.167 80.5588 109.93 80.4191 108.933 79.0623C109.95 78.783 110.948 78.344 112.045 78.5435Z" fill="white"/>
<path d="M112.045 78.543C111.028 78.8223 110.05 79.3611 108.933 79.0618C109.91 78.2038 111.467 77.9444 112.045 78.543Z" fill="white"/>
</svg>
