<svg width="81" height="88" viewBox="0 0 81 88" fill="none" xmlns="http://www.w3.org/2000/svg">
<path d="M25.889 39.5576C25.889 39.7716 25.7196 39.8162 25.6037 39.8964C22.8039 41.7154 20.0665 43.6236 17.3647 45.5942C17.2845 45.6566 17.2042 45.7457 17.0794 45.7101C16.1966 45.6387 15.3228 45.6922 14.4846 45.9954C13.7624 46.254 13.0669 46.2718 12.3535 45.9687C12.0058 45.826 11.7472 45.6387 11.8453 45.2018C11.9077 44.9165 11.8007 44.6936 11.6224 44.4974C11.5956 44.4707 11.5689 44.435 11.5332 44.4082C11.551 44.3637 11.5689 44.328 11.6135 44.3012C11.444 43.8376 11.2657 43.3828 11.1141 42.9192C10.7129 41.7422 10.7218 41.7511 11.658 40.9397C12.2822 40.4047 12.9866 39.9677 13.584 39.2901C12.4338 39.2187 11.3905 39.3168 10.3473 39.3703C9.93713 39.3882 9.74096 39.2812 9.60721 38.8799C9.25946 37.9169 8.8493 36.9717 8.40346 35.8482C8.0468 37.0163 7.70796 37.9972 7.44938 38.9869C7.34238 39.3971 7.16405 39.513 6.75388 39.5308C5.6928 39.5754 4.63171 39.6646 3.47255 39.7448C4.36421 40.3868 5.16671 40.9664 5.96029 41.5371C6.01379 41.546 6.0673 41.5549 6.11188 41.5638C6.1208 41.5727 6.1208 41.5906 6.12971 41.6084C6.24563 41.8848 6.18321 42.1434 5.97813 42.3574C5.60363 42.7587 5.44313 43.2312 5.49663 43.7841C5.54121 44.3102 5.24696 44.4707 4.7833 44.4617C4.48013 44.4528 4.1413 44.4439 3.90055 44.2923C3.2853 43.8822 2.57196 43.8287 1.88538 43.6682C1.48413 43.5701 1.10963 43.4096 0.851046 43.044C0.726213 43.4809 0.97588 43.9624 0.62813 44.3369C0.431963 42.8835 0.494379 41.4212 0.431962 39.9588C0.262545 36.0444 0.137713 32.1211 0.00396296 28.1977C-0.0049537 27.9213 0.00396296 27.636 0.00396296 27.2347C8.54613 31.6217 17.1061 35.8393 25.889 39.5576Z" fill="white"/>
<path d="M79.8081 46.9674C78.7114 47.966 77.3828 48.5367 76.0007 48.9558C72.2735 50.0793 68.4661 50.3111 64.6141 49.9188C57.7215 49.2233 50.8111 48.8844 43.8829 49.1074C40.1557 49.2322 36.4285 49.4105 32.7281 49.8474C30.6505 50.0971 28.5819 50.3379 26.5132 50.6856C26.2635 50.7302 26.0049 50.7391 25.7464 50.7659C25.5145 50.5519 25.2024 50.5608 24.926 50.4627C24.6318 50.3646 24.2751 50.3379 24.0968 50.0258C23.7312 49.3927 23.5885 48.5456 22.5542 48.5367C23 48.4743 23.3299 48.3227 23.6331 48.1265C23.8382 47.9928 23.6777 47.9393 23.5439 47.9125C25.9069 47.2349 28.3322 46.8425 30.7664 46.5126C36.3839 45.7458 42.0193 45.612 47.6724 45.8706C51.8276 46.0668 55.956 46.5215 60.0844 47.0476C64.2396 47.5737 68.4215 47.7788 72.5678 46.896C73.8964 46.6107 75.2071 46.2451 76.3841 45.5318C78.4795 44.2656 78.6133 42.7052 76.7675 41.0913C76.2504 40.6365 75.6886 40.2353 75.0912 39.8875C74.3333 39.4863 73.5754 39.085 72.8174 38.6838C73.6645 38.9424 74.4938 39.2544 75.2339 39.7449C76.5803 40.4314 77.8999 41.1537 79.0591 42.1434C79.3979 42.4377 79.7368 42.7409 80.0399 43.0797C81.2259 44.3994 81.1367 45.7547 79.8081 46.9674Z" fill="white"/>
<path d="M25.7551 50.7659C25.4341 50.6678 25.0863 50.6945 24.7564 50.5875C24.3284 50.4449 23.9807 50.222 23.7934 49.8029C23.5883 49.3392 23.3476 48.9201 22.7858 48.8042C22.6432 48.7775 22.4916 48.6794 22.5273 48.4921C22.5451 48.3405 22.7056 48.3227 22.8215 48.2781C23.0801 48.189 23.3743 48.18 23.5438 47.9125C23.6775 47.9393 23.838 47.9928 23.6329 48.1265C23.3298 48.3227 23.0088 48.4743 22.554 48.5367C23.5883 48.5545 23.7399 49.3927 24.0966 50.0258C24.2749 50.3379 24.6316 50.3557 24.9258 50.4627C25.2112 50.5608 25.5232 50.5519 25.7551 50.7659Z" fill="white"/>
<path d="M28.3321 32.7631C28.3321 30.5874 28.3232 28.4029 28.3143 26.2272C28.3143 25.9597 28.4034 25.6565 28.0111 25.5317C27.7971 25.4604 27.8863 25.2374 27.8863 25.0769C27.8773 18.3449 27.8684 11.6128 27.8506 4.88961C27.8506 4.48836 27.9487 4.21195 28.2697 3.95336C29.9103 2.66045 31.5332 1.34078 33.156 0.0300293C33.5216 0.145946 33.4681 0.475863 33.4681 0.72553C33.4681 2.01845 33.5929 3.31136 33.5929 4.59536C33.6108 9.40145 33.4859 14.2164 33.6286 19.0225C33.7713 23.8999 33.6375 28.7684 33.7356 33.6459C33.7356 33.7974 33.7445 33.949 33.7088 34.0917C33.5929 34.3681 33.3522 34.3057 33.156 34.2522C31.6491 33.8688 30.1511 33.4229 28.6353 33.0395C28.5015 33.0128 28.3767 32.9236 28.3321 32.7631Z" fill="white"/>
<path d="M17.0794 45.7012C16.1521 46.477 15.1445 47.1368 14.1994 47.8769C11.346 50.0882 8.47485 52.2728 5.7731 54.6625C4.2751 55.9821 2.7771 57.3107 1.18102 58.7106C1.13644 58.247 1.09185 57.8635 1.07402 57.4801C0.913519 53.1734 0.761935 48.8755 0.610352 44.5688C0.610352 44.4885 0.619269 44.3994 0.628186 44.3102V42.5893C1.20777 43.5255 2.11727 43.5612 3.00894 43.6325C3.53502 43.6771 3.82035 44.1854 4.3821 44.2389C5.2381 44.3191 5.30052 44.3548 5.30052 43.5255C5.30052 43.053 5.3986 42.625 5.78202 42.3129C6.06735 42.09 6.12085 41.8314 5.96035 41.5193C6.01385 41.5282 6.06735 41.5371 6.11194 41.546C6.12085 41.555 6.12085 41.5728 6.12977 41.5906C6.51319 41.7779 6.58452 42.09 6.44185 42.5625C6.16544 43.5166 5.94252 44.4975 5.68394 45.5496C6.58452 44.8987 7.4316 44.3459 8.21627 43.7128C8.62644 43.3829 8.92069 43.4096 9.33085 43.686C10.1155 44.2121 10.9269 44.6847 11.7473 45.193C11.8186 44.9344 11.6759 44.7204 11.6314 44.4975C11.6046 44.4707 11.5779 44.435 11.5422 44.4083C11.56 44.3637 11.5779 44.328 11.6224 44.3013C11.9524 44.5153 12.1931 44.8006 12.0237 45.193C11.8275 45.6477 12.1396 45.7101 12.4071 45.8171C13.2007 46.1292 13.9586 45.942 14.7522 45.7458C15.5012 45.5675 16.2948 45.184 17.0794 45.7012Z" fill="white"/>
<path d="M79.1305 77.1681C77.588 77.1681 76.1345 77.1681 74.6811 77.1681C74.378 77.1681 74.378 76.9006 74.3066 76.7134C73.941 75.8395 73.5844 74.9657 73.2455 74.083C73.1207 73.753 72.9424 73.6371 72.5768 73.6371C70.1604 73.646 67.744 73.6371 65.3365 73.6193C64.962 73.6193 64.8104 73.762 64.6945 74.0919C64.3556 75.0014 63.99 75.893 63.6334 76.8025C63.5531 77.0076 63.4907 77.186 63.1965 77.186C61.8233 77.177 60.4501 77.177 58.9878 77.177C59.6744 75.4918 60.3253 73.8868 60.9851 72.2818C61.9481 69.9367 62.92 67.6005 63.892 65.2555C64.0792 65.1841 64.1684 65.3179 64.2397 65.4427C64.7925 66.4235 65.7199 66.7535 66.7453 66.905C66.995 66.9407 67.2625 66.9318 67.3784 67.1725C67.3516 67.235 67.3249 67.2885 67.307 67.3509C67.0485 68.2604 66.5313 69.0718 66.344 70.0526C67.8777 70.0526 69.3846 70.0526 70.8915 70.0526C71.6405 70.0526 71.6495 70.0348 71.382 69.3482C70.8024 67.8235 70.205 66.3076 69.6165 64.7829C69.5897 64.774 69.563 64.765 69.5451 64.7561C69.554 64.7383 69.563 64.7294 69.5719 64.7115C69.8215 64.337 70.1247 64.5689 70.3655 64.765C70.731 65.0593 71.1055 65.3535 71.4622 65.6567C72.1042 66.1917 73.0405 66.058 73.5309 65.3625C73.6468 65.193 73.6646 64.8631 74.0213 65.0147C74.9754 67.2706 75.9295 69.5355 76.8835 71.7914C77.6147 73.548 78.3548 75.3135 79.1305 77.1681Z" fill="white"/>
<path d="M66.2996 46.361C66.0767 46.4769 65.8538 46.4234 65.6219 46.4056C65.5863 46.3878 65.5417 46.3789 65.506 46.361C65.4703 46.3521 65.4436 46.3432 65.4079 46.3343C64.9532 46.2273 64.4717 46.3699 64.0258 46.254C61.3241 46.2094 58.658 45.7904 56.0187 45.2643C47.958 43.6593 39.826 42.8389 31.6048 43.1689C28.3324 43.3026 25.0778 43.5969 21.7876 44.0605C23.9722 42.5625 26.1568 41.0734 28.4127 39.5309C27.9223 39.299 27.4675 39.085 27.0217 38.871C27.0306 38.8443 27.0395 38.8086 27.0484 38.7729C28.2789 38.8532 29.5005 38.9245 30.731 39.0226C35.2874 39.3793 39.8171 39.9321 44.3022 40.8059C47.1555 41.3588 49.9732 42.0632 52.7641 42.8925C52.987 42.9638 53.2099 43.044 53.4328 43.1243C54.3691 43.1778 55.2964 43.258 56.0454 43.9179C56.1346 43.9625 56.2238 44.007 56.3129 44.0427C56.4734 44.1229 56.5091 43.9624 56.5804 43.8822C56.5983 43.8644 56.6161 43.8465 56.6428 43.8376C56.6607 43.8287 56.6874 43.8287 56.7142 43.8376C57.3562 44.0784 57.9893 44.3369 58.6758 44.4439C58.8988 44.4796 59.0593 44.6312 59.1752 44.8184C59.6745 45.0146 60.1828 44.6758 60.7267 44.8987C61.4489 45.193 62.2425 45.3089 63.0093 45.5139C63.2144 45.5674 63.3928 45.6209 63.4284 45.3356C63.7762 45.3534 64.1328 45.505 64.4806 45.3356C64.4984 45.4872 64.5163 45.6299 64.5252 45.7814C64.543 46.0579 64.6946 46.156 64.9532 46.1024C65.1583 46.0579 65.4079 46.1203 65.399 45.7369C65.3812 45.2286 65.4614 44.7204 65.4971 44.2121C65.4614 44.0694 65.4347 43.9268 65.4436 43.7841C65.4525 43.7039 65.4703 43.6236 65.5149 43.5344C65.7913 43.5612 65.8003 43.7841 65.8003 43.9535C65.8092 44.7917 65.7913 45.6299 66.2996 46.3521C66.2907 46.3521 66.2907 46.3521 66.2996 46.361C66.2907 46.361 66.2907 46.361 66.2996 46.361Z" fill="white"/>
<path d="M28.3322 32.7631C30.1066 33.2446 31.8811 33.7261 33.6466 34.2165C33.9497 34.1452 34.2083 34.2968 34.4847 34.3592C36.2146 34.9923 37.9533 35.5897 39.6475 36.3119C39.8793 36.41 40.1557 36.4457 40.2984 36.6864C40.6996 36.8826 41.092 37.0788 41.4932 37.2749C42.2779 37.4176 42.8931 37.9169 43.5976 38.229C43.7491 38.3003 43.8829 38.4073 44.0345 38.4876C44.837 38.9958 45.7643 39.3347 46.4598 40.0123C46.6649 40.155 46.8789 40.3066 47.084 40.4493C47.0751 40.476 47.0572 40.5028 47.0483 40.5295C45.9605 40.1639 44.8726 39.8251 43.7937 39.4328C38.9966 37.694 34.03 36.6597 29.0099 35.8661C25.6483 35.3311 22.26 34.9744 18.8627 34.8407C18.7111 34.8318 18.5774 34.7961 18.4347 34.7337C14.2171 32.8433 10.0709 30.8103 5.7998 28.9824C7.8863 29.2767 9.96389 29.5709 12.0504 29.8652C12.202 29.7582 12.3714 29.7493 12.5408 29.7671C14.7789 30.0703 17.0081 30.4448 19.2372 30.8371C19.3888 30.8638 19.5226 30.9263 19.6474 31.0243C19.8257 31.0511 20.0041 31.0868 20.1735 31.1135C20.9849 31.0154 21.7517 31.1938 22.4829 31.5415C22.8217 31.6039 23.1606 31.6663 23.4994 31.7198C24.8012 31.7823 26.0763 31.9695 27.2801 32.5045C27.61 32.7007 27.9756 32.6918 28.3322 32.7631Z" fill="white"/>
<path d="M56.5714 43.9178C56.5357 44.0783 56.5 44.2388 56.3039 44.0338C56.5625 43.8643 56.4376 43.5968 56.4376 43.3828C56.4465 36.6329 56.4376 29.883 56.4465 23.1331C56.4465 22.7586 56.3395 22.5446 56.0096 22.3752C55.4211 22.0631 54.8505 21.7153 54.2709 21.3854C54.155 21.323 54.0301 21.1982 53.932 21.216C53.085 21.3319 53.3079 20.7256 53.299 20.2887C53.29 19.4238 53.3168 18.5588 53.2811 17.7028C53.2633 17.3105 53.406 17.1322 53.7626 16.9984C54.4135 16.7666 55.0288 16.4456 55.6797 16.2227C56.0899 16.0889 56.179 15.866 56.179 15.4737C56.1612 13.9043 56.179 12.3261 56.1612 10.7478C56.1612 10.3823 56.2593 10.1504 56.5714 9.95426C57.1866 9.56192 57.784 9.13392 58.3725 8.72375C58.5955 8.86642 58.5063 9.05367 58.5063 9.20526C58.5241 10.9975 58.5241 12.7808 58.542 14.5731C58.542 14.7871 58.3725 15.1705 58.9254 15.0635C59.2553 15.0011 59.1037 15.3845 59.1037 15.5539C59.1215 18.2735 59.1394 20.9842 59.1394 23.7038C59.1394 28.2334 59.1305 32.7542 59.1215 37.2838C58.8986 37.3017 58.9075 37.0431 58.7114 36.9539C58.4617 37.3195 58.2834 37.7386 57.9891 38.0863C57.8465 38.2468 57.7038 38.4073 57.5165 38.5233C56.9905 38.8532 56.6338 38.6838 56.6249 38.0596C56.607 36.9093 56.616 35.7502 56.616 34.7604C56.5179 37.373 56.8478 40.1372 56.7408 42.9103C56.7408 43.258 56.8121 43.6147 56.5714 43.9178Z" fill="white"/>
<path d="M19.6384 31.0422C18.4793 30.9887 17.3558 30.7034 16.2234 30.5429C14.8324 30.3378 13.4414 30.1059 12.0504 29.8741C12.0504 27.3061 11.9523 24.747 11.8185 22.1879C11.7829 21.5103 11.9255 21.109 12.5854 20.7791C14.8502 19.6467 17.0794 18.434 19.3174 17.257C19.362 17.2927 19.4155 17.3194 19.4155 17.3373C19.4869 21.9115 19.5671 26.4769 19.6384 31.0422Z" fill="white"/>
<path d="M19.5672 73.7887C19.0768 73.3339 18.6131 72.8524 18.1227 72.3977C17.7571 72.0588 17.4718 71.4347 17.0438 71.4436C16.6426 71.4525 16.2591 71.9697 15.8579 72.255C14.0389 73.5479 12.0594 73.9135 9.99964 73.0308C7.99339 72.1658 6.95014 70.5252 6.70047 68.3673C6.70939 67.6986 6.70939 67.0388 6.85205 66.37C7.48514 63.5167 9.85697 61.7423 12.7727 62.0098C14.2975 62.1435 15.5636 62.8568 16.6693 63.8644C16.9457 64.1141 17.0795 64.1052 17.3202 63.8288C18.0068 63.0263 18.6934 62.2238 19.4424 61.4748C19.7901 61.1181 19.6742 60.9576 19.38 60.6812C17.7661 59.1564 15.8222 58.3896 13.6555 58.0775C9.57164 57.489 5.61264 59.2367 3.54397 62.6607C2.41155 64.5421 2.00139 66.6108 2.29564 68.8043C2.32239 70.5876 3.0268 72.1213 4.03439 73.539C7.64564 78.6037 15.3764 78.782 19.5851 74.3593C19.8347 74.1008 19.7723 73.9848 19.5672 73.7887ZM2.3313 67.5292C2.32239 67.5381 2.31347 67.547 2.30455 67.547C2.29564 67.547 2.29564 67.5292 2.30455 67.5113C2.31347 67.4935 2.3313 67.4846 2.34914 67.5203C2.34022 67.5203 2.34022 67.5292 2.3313 67.5292Z" fill="white"/>
<path d="M38.5862 71.5239C38.2563 73.5925 37.3111 75.3135 35.4386 76.3121C32.3267 77.9528 29.0988 77.9974 25.9334 76.4548C23.7667 75.4026 22.7323 73.4677 22.3846 71.1405C22.2063 69.9635 22.233 68.7775 22.2776 67.5916C22.7413 67.2974 22.9731 67.5916 23.0979 67.9661C23.2228 68.3585 23.4724 68.519 23.838 68.5725C24.052 68.6081 24.2571 68.6705 24.4443 68.7775C25.0507 69.1253 25.229 69.0896 25.6481 68.519C25.8443 68.2515 25.9334 67.9483 26.0315 67.6362C26.1118 67.3865 26.1296 67.0566 26.5219 67.0655C26.62 68.198 26.4328 69.3482 26.6824 70.4806C27.1104 72.4066 28.3944 73.4766 30.3918 73.5301C32.5318 73.5836 33.8693 72.683 34.3597 70.8462C34.4667 70.4539 34.5113 70.0526 34.5826 69.6514C34.6272 69.2323 34.7966 69.045 35.1978 69.3571C35.9914 69.9813 36.9455 70.2577 37.8728 70.6055C38.2919 70.766 38.7734 70.8819 38.5862 71.5239Z" fill="white"/>
<path d="M55.4834 76.5261C54.4134 76.9363 53.2899 77.1681 52.1397 77.1681C49.0188 77.177 45.898 77.1592 42.7772 77.1859C42.2957 77.1859 42.1619 77.07 42.1708 76.5796C42.2154 74.7963 42.1976 73.004 42.2154 71.2207C42.7772 70.6143 43.5262 70.436 44.293 70.3112C44.828 70.222 45.3452 70.1596 45.8356 69.9099C46.0852 69.7851 46.2903 69.8475 46.4508 70.0169C46.4508 70.0704 46.4597 70.115 46.4597 70.1774C46.4687 71.1226 46.5043 72.0767 46.4776 73.0218C46.4687 73.4855 46.5578 73.6638 47.0661 73.646C48.466 73.6103 49.8659 73.646 51.2747 73.646C51.8811 73.646 52.4785 73.539 53.0313 73.2893C53.816 72.9505 54.1459 72.3174 54.1459 71.4882C54.1459 70.6946 53.7892 70.1329 53.067 69.8029C52.8619 69.7138 52.6479 69.6246 52.4428 69.5354C52.4428 69.5265 52.4428 69.5265 52.4428 69.5176C52.4428 69.0718 52.8352 69.152 53.1205 69.1788C53.5842 69.2234 53.9497 69.5087 54.2886 69.8118C55.0197 70.4806 56.4732 70.2934 57.026 69.4641C57.1419 69.2858 57.1597 68.9826 57.4897 69.0183C59.594 71.3188 58.5329 75.3491 55.4834 76.5261Z" fill="white"/>
<path d="M40.3161 36.2941C40.3161 36.419 40.3072 36.5527 40.2983 36.6776C39.5136 36.526 38.8181 36.1158 38.0691 35.8483C36.8386 35.4025 35.6171 34.9299 34.3955 34.4662C34.4133 34.4306 34.4222 34.386 34.4311 34.3414C34.4936 34.0828 34.4668 33.7975 34.7076 33.6102C34.7076 33.6102 34.7076 33.6191 34.6986 33.6191C36.161 34.1185 37.6411 34.5911 39.0946 35.1171C39.6296 35.3133 39.6474 35.1082 39.6385 34.6802C39.6296 34.3414 39.3977 34.3146 39.1837 34.2344C37.766 33.7351 36.3482 33.2357 34.9305 32.7364C34.9126 32.781 34.9037 32.8256 34.8948 32.8701C34.8681 32.8523 34.8413 32.8434 34.8146 32.8256C34.8056 32.8166 34.7967 32.8077 34.7878 32.7988C34.3776 32.4421 34.4579 31.9874 34.5738 31.5326C34.6095 31.497 34.6451 31.4613 34.6808 31.4435L34.6897 31.4346C36.1431 31.9606 37.5876 32.4867 39.0411 33.0039C39.2105 33.0663 39.4245 33.2625 39.5671 33.0931C39.7098 32.9147 39.6563 32.6383 39.6028 32.4065C39.5493 32.1746 39.3086 32.1836 39.1391 32.1211C37.7392 31.5861 36.3304 31.0601 34.9216 30.534C34.9126 30.5786 34.9037 30.6231 34.8948 30.6677C34.8591 30.6499 34.8324 30.641 34.7967 30.6231C34.7878 30.6142 34.7878 30.6142 34.7789 30.6053C34.3866 30.2308 34.449 29.785 34.5738 29.3302C34.6095 29.2945 34.6362 29.2589 34.6719 29.2411C36.2947 29.8652 37.9086 30.4805 39.5315 31.1046C39.7544 30.4983 39.585 30.1773 38.9965 29.9633C37.5431 29.4372 36.1164 28.8398 34.6808 28.2781C34.7076 28.3226 34.7343 28.3672 34.7521 28.4207C34.7254 28.4029 34.6986 28.3761 34.6808 28.3583C34.6273 28.3048 34.5916 28.2424 34.556 28.1711C34.4757 27.8233 34.4133 27.4756 34.6719 27.1635C34.7076 27.1456 34.7432 27.1278 34.77 27.11C34.7878 27.1011 34.8146 27.0921 34.8324 27.0921C34.8324 27.1189 34.8235 27.1456 34.8235 27.1724C36.4017 27.7876 37.9711 28.4029 39.5493 29.0181C39.7544 28.394 39.585 28.0641 38.9608 27.8322C37.5163 27.2883 36.0986 26.6552 34.6719 26.0578C34.7076 26.1113 34.7343 26.1648 34.7611 26.2272C34.7343 26.2005 34.7076 26.1737 34.6808 26.147C34.6362 26.0935 34.5916 26.04 34.556 25.9686C34.4579 25.6298 34.449 25.2821 34.5649 24.9432C34.6006 24.8986 34.6273 24.8719 34.663 24.8451C34.6719 24.8362 34.6719 24.8362 34.6808 24.8362C34.6719 24.8451 34.6719 24.8541 34.663 24.863C36.2858 25.5585 37.9086 26.254 39.5315 26.9495C39.7455 26.2986 39.5404 25.9865 38.9697 25.7546C37.5163 25.1572 36.0986 24.4885 34.663 23.8554V23.9535C34.6273 23.9178 34.5916 23.8821 34.556 23.8376C34.342 23.4274 34.2885 23.044 34.7165 22.7319C34.7343 22.723 34.7521 22.723 34.77 22.723C34.7967 22.7141 34.8146 22.7141 34.8413 22.7051C34.8413 22.7319 34.8324 22.7497 34.8324 22.7765C36.4017 23.472 37.9711 24.1586 39.5493 24.8541C39.7187 24.2656 39.6296 23.9089 39.0054 23.6414C37.5431 23.0351 36.1164 22.3217 34.6719 21.653C34.6719 21.6797 34.663 21.7065 34.663 21.7332C34.6273 21.7065 34.6006 21.6708 34.5649 21.6351C34.342 21.2428 34.2974 20.8594 34.5916 20.4849C34.6095 20.476 34.6362 20.4671 34.6541 20.4671C34.6541 20.4671 34.6541 20.4671 34.663 20.4671C36.2858 21.225 37.9086 21.9918 39.5315 22.7586C39.7366 22.1345 39.585 21.7778 38.9608 21.5014C37.5074 20.8594 36.0896 20.1371 34.663 19.4416C34.6541 19.4773 34.6541 19.5219 34.6451 19.5576C34.6095 19.5219 34.5738 19.4862 34.5381 19.4416C34.3152 19.0404 34.2796 18.657 34.5738 18.2736C34.6006 18.2557 34.6273 18.2379 34.6541 18.2201C34.6719 18.2111 34.6897 18.2111 34.7076 18.2022C34.6986 18.2201 34.6808 18.2468 34.663 18.2646C34.7789 18.3181 34.9037 18.3627 35.0107 18.4162C36.3928 19.1028 37.7749 19.7894 39.1659 20.4671C39.2907 20.5295 39.5226 20.7613 39.5671 20.5027C39.6296 20.1728 39.7901 19.7805 39.2551 19.5308C37.7036 18.7996 36.1877 17.9971 34.6541 17.2214C34.6451 17.266 34.6362 17.3016 34.6273 17.3462C34.5916 17.3106 34.556 17.2749 34.5292 17.2392C34.3152 16.8469 34.2706 16.4546 34.5649 16.0711C34.6006 16.0444 34.6362 16.0266 34.663 16.0176C34.6719 16.0176 34.6719 16.0087 34.6808 16.0087C34.6719 16.0176 34.6719 16.0266 34.663 16.0355C36.3304 16.7756 37.9086 17.694 39.5315 18.541C39.7366 17.9169 39.5582 17.5513 38.9697 17.3016C37.4985 16.6953 36.1431 15.8482 34.7789 15.019C34.7343 15.0546 34.6986 15.0814 34.663 15.1171C34.6541 15.1081 34.6451 15.1081 34.6451 15.0992C34.342 14.7069 34.4579 14.2967 34.5827 13.8776C34.6006 13.8598 34.6273 13.842 34.6451 13.8331C34.6451 13.8331 34.6451 13.8331 34.6541 13.8241C34.6541 13.8331 34.6541 13.8331 34.6541 13.842C36.2769 14.698 37.8997 15.554 39.5315 16.4189C39.6563 15.5451 39.6563 15.5451 38.943 15.1438C38.1583 14.7069 37.3736 14.2611 36.589 13.8241C36.5801 13.8241 36.5622 13.8331 36.5533 13.8331C36.5533 13.8241 36.5533 13.8152 36.5533 13.8063C36.6068 13.4675 36.5711 13.1286 36.6781 12.7987C36.6871 12.7987 36.6871 12.7898 36.696 12.7898L36.7049 12.7809C36.7049 12.7898 36.7138 12.7898 36.7138 12.7987C37.6946 13.2267 38.5952 13.8152 39.5226 14.3413C39.5582 14.2165 39.585 14.1005 39.5939 13.9935C39.7811 13.8865 39.9595 13.7171 40.2091 13.842C40.227 16.5972 40.2537 19.3525 40.2626 22.1077C40.3161 26.8603 40.3161 31.5772 40.3161 36.2941Z" fill="white"/>
<path d="M57.4897 64.3816C56.6783 64.5956 55.8847 64.8453 55.0287 64.7918C54.5026 64.7561 53.9855 64.7026 53.6288 64.2835C53.5396 64.1765 53.4326 64.23 53.3524 64.2211C53.3524 64.2211 53.3524 64.2211 53.3613 64.2211C53.3167 62.741 52.8085 62.0722 51.3105 61.9474C49.8214 61.8225 48.3055 61.9117 46.7986 61.8939C46.4598 61.8939 46.4955 62.1168 46.4955 62.3308C46.4955 63.383 46.5133 64.4351 46.4955 65.4873C46.4865 65.8707 46.6381 65.9599 46.9859 65.9599C47.4585 65.951 47.94 65.9866 48.4125 66.0134C48.1718 66.3522 47.61 66.0134 47.512 66.2809C47.3693 66.6554 47.182 66.8605 46.8521 66.9942C46.2012 67.2528 45.8356 67.0656 45.6662 66.3879C45.5235 65.8261 45.1045 65.4873 44.6586 65.1841C44.3376 64.9701 43.9542 64.872 43.5975 64.7115C43.339 64.5956 43.1071 64.5956 42.8753 64.774C42.688 64.9166 42.483 65.0593 42.2333 64.8631C42.2244 62.8123 42.2244 60.7704 42.2065 58.7285C42.2065 58.461 42.2333 58.2826 42.581 58.2826C46.0496 58.3361 49.5271 58.0686 52.9779 58.4075C55.1179 58.6215 56.8477 59.6112 57.5254 61.8493C57.7483 62.6875 57.8107 63.5435 57.4897 64.3816Z" fill="white"/>
<path d="M64.4626 45.3267C64.1149 45.8349 63.7582 45.5852 63.4105 45.3267C62.8487 44.9343 62.1532 44.9165 61.538 44.6936C61.0297 44.5152 60.5215 44.3458 60.0043 44.2032C59.7992 44.1407 59.7011 44.0427 59.7368 43.8465C59.7814 43.5522 59.9775 43.686 60.1291 43.7217C61.0208 43.9624 61.9125 44.2121 62.813 44.4439C62.9825 44.4885 63.2232 44.6757 63.3124 44.4261C63.4105 44.1497 63.0984 44.1586 62.9379 44.1051C62.0195 43.793 61.101 43.4898 60.1737 43.1956C59.9419 43.1242 59.6476 43.0529 59.7546 42.7497C59.8527 42.4644 60.1202 42.6517 60.3075 42.7052C61.0921 42.937 61.8679 43.1867 62.6615 43.4096C62.8755 43.472 63.2143 43.7484 63.3124 43.4185C63.4015 43.0975 62.9646 43.1153 62.7417 43.0351C61.8768 42.7141 60.994 42.4198 60.1202 42.1256C59.9151 42.0542 59.6387 41.9918 59.7368 41.7154C59.8438 41.3944 60.0935 41.6173 60.2718 41.6708C61.1545 41.9472 62.0373 42.2326 62.92 42.509C63.0627 42.5536 63.2767 42.723 63.357 42.4644C63.4283 42.2415 63.1875 42.1969 63.036 42.1434C62.0908 41.7957 61.1367 41.4479 60.1826 41.1091C59.9597 41.0288 59.6387 40.9753 59.7368 40.6722C59.8438 40.3422 60.138 40.5473 60.3342 40.6097C61.1902 40.8951 62.0373 41.2072 62.8933 41.5014C63.036 41.5549 63.241 41.7332 63.3391 41.5103C63.4372 41.2785 63.1965 41.1893 63.0181 41.118C62.0551 40.7524 61.0832 40.3868 60.1202 40.0123C59.9062 39.9321 59.5852 39.8518 59.7546 39.5397C59.8973 39.2812 60.138 39.5219 60.3164 39.5843C61.1902 39.8875 62.0551 40.2174 62.9379 40.5117C63.0538 40.5473 63.2589 40.797 63.357 40.4938C63.4283 40.2709 63.241 40.2174 63.0716 40.155C62.1889 39.8072 61.315 39.4506 60.4323 39.1028C60.2896 39.0493 60.1559 38.9869 60.0132 38.9334C59.8438 38.871 59.6655 38.7729 59.7368 38.5678C59.817 38.3092 60.04 38.4608 60.1737 38.5054C60.78 38.7194 61.3864 38.9512 61.9927 39.1742C62.2959 39.2901 62.599 39.406 62.9022 39.4952C63.0449 39.5308 63.2321 39.7716 63.3391 39.5219C63.4372 39.2901 63.1965 39.2009 63.0181 39.1296C62.2424 38.8086 61.4488 38.5232 60.6998 38.1577C60.361 37.9882 59.6476 37.9972 59.817 37.48C59.9151 37.1857 60.468 37.6227 60.8068 37.7386C61.5201 37.9793 62.2156 38.2647 62.92 38.5322C63.0627 38.5857 63.25 38.7818 63.348 38.5232C63.4283 38.3182 63.2321 38.2557 63.0627 38.1844C62.1354 37.7832 61.208 37.373 60.2896 36.9628C60.1915 36.9182 60.0935 36.8737 59.9954 36.838C59.8349 36.7756 59.7279 36.6418 59.7725 36.4902C59.8438 36.2852 60.031 36.4011 60.1559 36.4457C60.9316 36.7577 61.7074 37.1055 62.4831 37.3997C62.7595 37.5067 63.1965 37.8367 63.3124 37.5513C63.4729 37.1679 62.92 37.1501 62.6615 37.0252C61.8322 36.6151 60.9762 36.2584 60.138 35.875C59.933 35.7769 59.612 35.6877 59.7903 35.3935C59.9419 35.1349 60.1648 35.4024 60.3342 35.4737C61.1724 35.8215 61.9927 36.196 62.8309 36.5348C62.9825 36.5972 63.2054 36.8291 63.3213 36.5794C63.4461 36.303 63.1519 36.2495 62.9557 36.1603C62.064 35.7412 61.1635 35.3132 60.2718 34.8852C60.1737 34.8407 60.0756 34.7872 59.9775 34.7426C59.8349 34.6712 59.6833 34.5732 59.7546 34.4037C59.8438 34.1897 60.0221 34.3235 60.138 34.377C60.9673 34.7337 61.7876 35.1171 62.6169 35.4737C62.8309 35.5629 63.1608 35.8304 63.2767 35.6253C63.4907 35.2508 63.0181 35.2152 62.8041 35.0992C61.9125 34.6267 61.003 34.1808 60.0935 33.735C59.8973 33.6369 59.6209 33.5656 59.7725 33.2892C59.924 33.0217 60.1202 33.307 60.254 33.3605C61.101 33.735 61.9303 34.1541 62.7774 34.5286C62.929 34.5999 63.143 34.9031 63.3035 34.5999C63.4372 34.3413 63.1608 34.2522 62.9646 34.1541C62.064 33.6993 61.1635 33.2357 60.2629 32.772C60.147 32.7096 60.031 32.6561 59.924 32.5937C59.7725 32.5045 59.7011 32.3618 59.7992 32.2192C59.8973 32.0676 60.031 32.2102 60.138 32.2548C60.9495 32.6472 61.7609 33.0573 62.5812 33.4407C62.8041 33.5477 63.1251 33.8866 63.2856 33.5923C63.4729 33.2535 62.9914 33.2 62.7774 33.0752C61.8946 32.5758 61.003 32.1032 60.1113 31.6307C59.8973 31.5147 59.6565 31.4345 59.8349 31.0511C60.9584 31.6128 62.073 32.1746 63.2054 32.7452C63.4461 32.4064 63.2232 32.2994 62.9914 32.1746C62.0284 31.6485 61.0743 31.1046 60.1202 30.5696C59.9419 30.4715 59.6387 30.3734 59.8081 30.1148C59.9419 29.9187 60.147 30.1683 60.2985 30.2486C61.1635 30.6855 62.0105 31.1581 62.8755 31.595C62.9914 31.6574 63.1697 31.8892 63.3035 31.6128C63.3926 31.4077 63.2321 31.3097 63.0716 31.2205C62.1175 30.6766 61.1635 30.1237 60.2183 29.5798C60.0845 29.5085 59.9597 29.4282 59.8349 29.3391C59.7457 29.2677 59.719 29.1518 59.7725 29.0448C59.8795 28.8487 59.9865 29.0092 60.0845 29.0627C60.9584 29.5352 61.8144 30.0167 62.6971 30.4804C62.8844 30.5785 63.1519 30.8906 63.2945 30.6587C63.5085 30.311 63.0805 30.2218 62.8576 30.0881C61.9749 29.5531 61.0743 29.0359 60.1915 28.5009C60.0132 28.3939 59.719 28.3315 59.8438 27.9035C60.7355 28.4028 61.6004 28.9111 62.4831 29.3747C62.7417 29.5085 63.1073 29.9008 63.2945 29.6155C63.5442 29.2232 62.9825 29.1518 62.7506 29.0002C61.9035 28.4563 61.0208 27.9481 60.1559 27.422C59.9597 27.3061 59.7011 27.2258 59.8349 26.8335C60.7711 27.3685 61.6985 27.8857 62.6169 28.4117C62.715 28.4652 62.7952 28.5455 62.8933 28.5722C63.027 28.6079 63.1697 28.8843 63.3124 28.6347C63.4283 28.4385 63.2767 28.2958 63.0895 28.1799C62.3672 27.7519 61.6628 27.2972 60.9405 26.8602C60.6106 26.6552 60.2807 26.459 59.9508 26.2539C59.826 26.1737 59.71 26.0667 59.7992 25.7902C60.4145 26.1558 61.0119 26.5036 61.6093 26.8513C62.0195 27.0921 62.4118 27.3507 62.8398 27.5647C62.9735 27.636 63.1697 27.9035 63.3124 27.636C63.4372 27.4042 63.2321 27.2615 63.027 27.1456C62.5812 26.8781 62.1532 26.5927 61.7163 26.3163C61.1902 25.9775 60.6641 25.6476 60.138 25.3087C59.9597 25.1928 59.7368 25.1126 59.7635 24.8362C59.9597 24.6667 60.0756 24.8629 60.2094 24.9432C61.0921 25.4782 61.9749 26.031 62.8576 26.5571C62.9825 26.6284 63.1519 26.8602 63.2945 26.6641C63.4372 26.459 63.3035 26.2896 63.0805 26.1469C62.1354 25.5495 61.1991 24.9342 60.2629 24.3101C60.0667 24.1763 59.7903 24.0961 59.7814 23.677C60.5928 24.1763 61.3507 24.64 62.1086 25.1037C62.3672 25.2642 62.6169 25.4336 62.8844 25.5673C63.0092 25.6297 63.1697 25.8705 63.3035 25.6297C63.4105 25.4425 63.2856 25.2731 63.0984 25.1482C62.2691 24.6043 61.4488 24.0515 60.6374 23.4808C60.3253 23.2668 59.8884 23.1598 59.7635 22.5713C60.9851 23.3471 62.1175 24.0604 63.25 24.7827C63.4283 24.3903 63.2143 24.2298 62.9646 24.0604C62.0551 23.4452 61.1545 22.8121 60.254 22.179C60.0667 22.0452 59.8438 21.9472 59.7457 21.6707C60.0667 21.5994 60.2361 21.8491 60.4323 21.9739C61.2705 22.5 62.0908 23.0528 62.92 23.5967C63.036 23.6681 63.1608 23.8464 63.2945 23.6413C63.3748 23.4987 63.3302 23.3471 63.1875 23.2401C62.9111 23.035 62.6347 22.8299 62.3494 22.6337C61.5915 22.0987 60.8425 21.5637 60.0845 21.0198C59.933 20.9128 59.7368 20.8326 59.826 20.5205C60.9673 21.2784 62.0908 22.0274 63.2143 22.7764C63.4818 22.3841 63.2143 22.2236 62.9646 22.0452C62.0551 21.3943 61.1456 20.7434 60.2361 20.0836C60.0578 19.9498 59.8081 19.8696 59.7992 19.4505C60.9851 20.2619 62.0997 21.0287 63.2232 21.7956C63.4372 21.4122 63.2321 21.2338 62.9914 21.0644C62.0373 20.3689 61.0743 19.6645 60.1202 18.9601C59.9597 18.8442 59.719 18.7639 59.8349 18.4251C60.9673 19.2187 62.0819 19.9944 63.2054 20.7791C63.4461 20.4135 63.2767 20.2262 63.0092 20.0301C62.0819 19.3613 61.1724 18.6747 60.2629 17.9792C60.0845 17.8455 59.8349 17.7652 59.7903 17.364C60.9673 18.2111 62.0908 19.0136 63.2143 19.825C63.4729 19.4327 63.241 19.2365 63.0003 19.0403C62.0551 18.2913 61.101 17.5512 60.1559 16.7933C60.0221 16.6863 59.7903 16.6328 59.826 16.3029C60.887 17.0876 61.9125 17.8455 62.9379 18.6034C63.0538 18.6926 63.134 18.8442 63.3213 18.7996C63.3837 17.9079 63.669 17.0608 63.8652 16.1959C63.9365 15.8749 63.9722 15.4469 64.4715 15.4291C64.4805 18.6837 64.4983 21.9293 64.5072 25.1839C64.5161 31.7733 64.5072 38.3627 64.5072 44.9522C64.4894 45.077 64.4715 45.2018 64.4626 45.3267Z" fill="white"/>
<path d="M2.35018 67.5206C2.34108 67.5206 2.34108 67.5206 2.33198 67.5297C2.32289 67.5388 2.31379 67.5479 2.30469 67.5479V67.5115C2.31379 67.5024 2.33198 67.4933 2.35018 67.5206Z" fill="white"/>
<path d="M69.8841 28.9824C69.8128 33.5923 69.8485 38.2112 69.8485 42.8211C69.8485 42.9905 69.8663 43.1599 69.8841 43.3383C69.8395 43.6593 69.8217 43.9803 69.8217 44.3013V44.3102C69.8217 44.5242 69.8217 44.7382 69.8306 44.9611V44.97C69.8395 45.2108 69.8485 45.4426 69.8485 45.6834C69.8574 46.147 69.7504 46.3699 69.2599 46.2897C69.1708 46.2808 69.0816 46.2719 68.9924 46.2719C68.8944 46.2719 68.7874 46.2897 68.6893 46.3343C68.5377 46.3343 68.3772 46.3343 68.2256 46.3432C68.3237 46.147 68.3326 45.933 68.3326 45.7101C68.3326 39.6289 68.3326 33.5478 68.3415 27.4666C68.3415 27.1813 68.2791 26.9762 68.0205 26.8246C67.6728 26.6284 67.3429 26.4055 66.9505 26.1558C66.9327 26.3163 66.9149 26.3966 66.9149 26.4768C66.9238 32.8433 66.9238 39.2009 66.9327 45.5674C66.9327 45.7012 66.9327 45.826 66.9416 45.9598C66.9505 46.0489 66.9951 46.1292 67.0932 46.1114C67.1378 46.1024 67.2002 46.04 67.2091 45.9865C67.2269 45.8617 67.2269 45.7279 67.2269 45.6031C67.2448 40.6811 67.2537 35.768 67.2715 30.846C67.2715 29.5263 67.2715 28.2067 67.2715 26.7711C67.2894 26.7622 67.3161 26.7443 67.3518 26.7443C67.7352 27.0743 67.9849 27.315 67.9849 27.8322C67.9492 31.7377 67.9581 35.6432 67.9581 39.5487C67.9581 41.8046 67.9581 44.0694 67.9581 46.361H66.2907C66.2907 46.361 66.2907 46.3699 66.2996 46.3699C66.2907 46.3699 66.2818 46.361 66.2729 46.361C65.2207 45.6744 65.7914 44.5688 65.5863 43.6593C65.4347 43.8287 65.5506 44.0427 65.4793 44.2121C65.4615 44.1051 65.4258 43.9981 65.4258 43.9V43.7841C65.4258 37.5424 65.4258 31.3097 65.4258 25.0769V24.2477C66.5314 24.9967 67.4855 25.7457 68.5288 26.3253C69.6434 26.9227 69.9019 27.7608 69.8841 28.9824Z" fill="white"/>
<path d="M57.4807 69.0094C57.1597 69.473 56.9902 70.0526 56.3482 70.222C55.8757 70.3469 55.3853 70.329 54.9127 70.5073C54.6987 70.5876 54.5471 70.3558 54.4133 70.1864C54.1102 69.8208 53.7535 69.5354 53.2898 69.366C52.951 69.2412 52.6746 69.259 52.4338 69.5087L52.4249 69.5176C50.7129 69.2679 48.992 69.4641 47.28 69.3749C46.7004 69.3482 46.4151 69.4909 46.4418 70.008C46.4418 70.0615 46.4507 70.1061 46.4507 70.1685C46.2813 70.115 46.1743 69.8297 45.9603 69.9902C45.1578 70.5787 44.1681 70.4093 43.2853 70.6768C43.1159 70.7303 42.9465 70.7481 42.8662 70.9175C42.7325 71.2118 42.4739 71.2118 42.2153 71.2029V64.8631C42.3045 64.8542 42.4204 64.8809 42.465 64.8364C42.9287 64.3459 43.4102 64.3905 43.963 64.6848C44.4267 64.9344 44.9617 65.0414 45.3183 65.4962C45.5769 65.8261 45.9514 66.0669 45.8444 66.5751C45.8177 66.7267 45.9425 66.8426 46.103 66.905C46.5845 67.0834 47.2265 66.691 47.2443 66.1917C47.2533 65.9509 47.3959 66.0312 47.494 66.0312C47.7972 66.0134 48.1092 66.0133 48.4124 66.0044C48.4302 66.0044 48.4481 66.0044 48.4659 66.0044C49.2417 65.9955 50.0085 66.0044 50.7842 65.9688C51.9969 65.9153 53.0312 65.5764 53.3612 64.2122C53.3612 64.2122 53.3612 64.2122 53.3701 64.2122C53.4682 64.1676 53.5038 63.9358 53.6643 64.0784C54.6184 64.9434 55.6973 64.5956 56.7584 64.3905C56.9992 64.3459 57.2488 64.0428 57.5074 64.3638C57.1953 65.7726 56.3215 66.7178 54.9305 67.4222C55.9559 67.8056 56.8565 68.1979 57.4807 69.0094Z" fill="white"/>
<path d="M39.9058 8.31361C38.283 7.22577 36.6601 6.1201 35.0284 5.04119C34.6271 4.7826 34.4399 4.50619 34.4577 3.99794C34.5023 2.99036 34.4845 1.97385 34.4666 0.966272C34.4577 0.440188 33.6285 -0.139395 33.147 0.0300216C33.1826 0.128105 33.2451 0.226189 33.254 0.324272C33.3521 1.49236 33.3253 2.67827 33.3521 3.84636C33.4769 9.78485 33.3253 15.7323 33.4947 21.6797C33.6017 25.4693 33.5215 29.2678 33.5215 33.0663C33.5215 33.4497 33.5393 33.8331 33.6463 34.2076C33.6463 34.2076 33.6463 34.2076 33.6463 34.2165C33.896 34.3057 34.1456 34.3859 34.3953 34.4662C34.4488 34.4394 34.4934 34.4127 34.5291 34.377C34.7252 34.1719 34.6004 33.8509 34.7074 33.6191C34.7074 33.6191 34.7074 33.6102 34.7163 33.6102C34.7876 33.3516 34.5112 33.0039 34.8055 32.8077C34.8144 32.8166 34.8233 32.8255 34.8322 32.8344C34.859 32.8523 34.8857 32.8612 34.9125 32.879C34.9214 32.8344 34.9303 32.7899 34.9481 32.7453C34.4845 32.3886 34.7609 31.8893 34.7074 31.4613V31.4524C34.8055 31.1938 34.5112 30.8282 34.8055 30.6231C34.8055 30.632 34.8144 30.632 34.8233 30.6409C34.859 30.6588 34.8857 30.6677 34.9214 30.6855C34.9303 30.6409 34.9392 30.5964 34.9481 30.5518C34.4934 30.1862 34.7609 29.6869 34.7074 29.2499C34.7074 28.9557 34.7163 28.6614 34.7163 28.3672C34.7431 28.3939 34.7609 28.4118 34.7876 28.4296C34.7698 28.385 34.7431 28.3315 34.7163 28.2869C34.7431 27.9124 34.5558 27.5112 34.859 27.1813C34.859 27.1545 34.8679 27.1278 34.8679 27.101C34.8501 27.1099 34.8233 27.1099 34.8055 27.1189C34.5826 26.8246 34.7074 26.4769 34.7074 26.1559C34.7341 26.1826 34.7609 26.2094 34.7876 26.2361C34.7609 26.1826 34.7341 26.1202 34.6985 26.0667C34.6985 25.6654 34.6985 25.2642 34.6896 24.8719C34.6985 24.8629 34.6985 24.854 34.7074 24.8451C34.6985 24.8451 34.6985 24.854 34.6896 24.854C34.6896 24.5509 34.6896 24.2566 34.6896 23.9534V23.8643C34.5915 23.4809 34.4221 23.0885 34.859 22.7854C34.859 22.7586 34.8679 22.7408 34.8679 22.714C34.8411 22.714 34.8233 22.7229 34.7966 22.7319C34.5201 22.4376 34.6361 22.0899 34.6806 21.751C34.6806 21.7243 34.6896 21.6975 34.6896 21.6708C34.538 21.2784 34.5291 20.8772 34.6806 20.4849C34.6004 20.1817 34.6182 19.8785 34.6628 19.5754C34.6717 19.5397 34.6717 19.4951 34.6806 19.4594C34.4934 19.0671 34.5023 18.6748 34.6806 18.2914C34.6985 18.2735 34.7074 18.2468 34.7252 18.2289C34.7074 18.2379 34.6896 18.2379 34.6717 18.2468C34.6182 17.9525 34.6004 17.6583 34.6539 17.364C34.6628 17.3194 34.6717 17.2838 34.6806 17.2392C34.4845 16.8469 34.5112 16.4545 34.6896 16.0622C34.6985 16.0533 34.6985 16.0444 34.7074 16.0354C34.6985 16.0354 34.6985 16.0354 34.6896 16.0444C34.6628 15.7412 34.4666 15.4291 34.6985 15.1616C34.7252 15.1259 34.7698 15.0903 34.8144 15.0635C34.4756 14.7069 34.7876 14.2789 34.6806 13.8865C34.6806 13.8776 34.6806 13.8776 34.6806 13.8687C34.6806 13.8687 34.6717 13.8687 34.6717 13.8776C34.6539 13.8419 34.6361 13.8063 34.6271 13.7706C34.5826 13.4674 34.4399 13.0662 34.6806 12.8879C34.8679 12.7452 35.1621 13.0662 35.4029 13.191C35.8041 13.405 36.1965 13.6279 36.5888 13.8509C36.5888 13.8598 36.5888 13.8687 36.5888 13.8776C36.5977 13.8776 36.6156 13.8687 36.6245 13.8687C37.0168 13.5744 36.7582 13.191 36.7582 12.8433C36.7582 12.8344 36.7493 12.8344 36.7493 12.8254C36.7493 12.8254 36.7404 12.8254 36.7404 12.8344C36.2767 12.5669 35.822 12.2994 35.3583 12.0319C35.3494 12.0229 35.3494 12.014 35.3405 12.014C35.3048 12.0229 35.2691 12.0319 35.2424 12.0319C35.0997 12.0586 34.9838 12.0319 34.9838 11.8268V11.8089H34.9749C34.859 11.6484 34.5647 11.6306 34.6004 11.3453C34.6271 11.1224 34.4756 10.8192 34.6628 10.6854C34.8501 10.5517 35.0551 10.7924 35.2246 10.8905C36.4729 11.6039 37.6856 12.3618 38.9606 13.0216C39.4778 13.2891 39.6829 13.6101 39.6383 14.0559C39.6294 14.1629 39.6026 14.2789 39.567 14.4037C39.7631 14.1897 39.9504 13.9668 40.2536 13.9044C40.2625 12.2459 40.2714 10.5874 40.2892 8.93777C40.3071 8.59002 40.1287 8.45627 39.9058 8.31361ZM34.6361 6.07552C36.2589 7.09202 37.8371 8.08177 39.4154 9.07152C39.8345 9.33902 39.5224 9.74027 39.6561 10.2039C38.1225 9.26769 36.7226 8.3671 35.2602 7.5646C34.645 7.20794 34.4399 6.81561 34.6361 6.07552ZM39.6116 12.2726C37.9531 11.3007 36.3748 10.3912 34.7966 9.46385C34.3507 9.20527 34.6539 8.75944 34.5201 8.26011C36.2589 9.29444 37.8461 10.2307 39.4243 11.1937C39.8345 11.4344 39.5491 11.8357 39.6116 12.2726Z" fill="white"/>
<path d="M46.4596 40.0213C45.7908 39.8608 45.345 39.3079 44.7208 39.0494C44.4801 38.9513 44.1323 38.9067 43.9986 38.5857C43.7846 38.336 43.7935 38.0239 43.7935 37.7297C43.7935 29.9811 43.7935 22.2325 43.7935 14.475C43.7935 14.1719 43.7846 13.8687 44.0075 13.619C44.8368 13.9846 45.5055 14.6177 46.2813 15.0724C46.5666 15.2419 46.4507 15.5361 46.4507 15.7858C46.4596 21.5816 46.4596 27.3774 46.4596 33.1733C46.4596 35.4559 46.4596 37.7386 46.4596 40.0213Z" fill="white"/>
<path d="M44.0075 13.619C44.0075 21.9383 43.9986 30.2664 43.9986 38.5857C43.1515 38.1755 42.2955 37.7743 41.502 37.2749C41.5109 33.8064 41.5287 30.3289 41.5376 26.8603C41.5465 23.0618 41.5465 19.2722 41.5287 15.4737C41.5287 15.0279 41.6446 14.7604 42.0637 14.582C42.7146 14.2967 43.3031 13.833 44.0075 13.619Z" fill="white"/>
<path d="M74.0212 65.0058C73.6199 65.3089 73.5486 65.9064 72.9244 66.0401C72.3181 66.1649 71.8098 66.3254 71.3283 65.7459C71.0073 65.3714 70.5526 65.1128 70.1603 64.8007C69.9908 64.6669 69.8125 64.5064 69.6253 64.7829C69.5985 64.7739 69.5717 64.765 69.5539 64.7561C69.5628 64.7383 69.5718 64.7293 69.5807 64.7115C69.3488 64.3281 69.2864 63.8466 68.9565 63.4989C68.4304 64.7472 67.9133 65.9598 67.3961 67.1814C67.3693 67.2438 67.3426 67.2973 67.3247 67.3598C67.2802 67.0477 67.0305 67.0655 66.8343 67.1012C65.8535 67.2617 65.2472 66.4324 64.4268 66.1739C64.0791 66.0579 64.302 65.4516 63.9097 65.2643C64.8013 63.0976 65.7019 60.9219 66.5847 58.7552C66.7273 58.4163 66.9057 58.2648 67.298 58.2737C68.4661 58.3094 69.6253 58.2915 70.7933 58.2826C71.0519 58.2826 71.2303 58.3183 71.3462 58.5947C72.22 60.7258 73.1206 62.8658 74.0212 65.0058Z" fill="white"/>
<path d="M56.0452 43.9089C55.2159 43.5166 54.2797 43.4453 53.4326 43.1154C53.5307 42.937 53.5039 42.7409 53.5039 42.5447C53.5039 35.7502 53.495 28.9557 53.5039 22.1612C53.5039 21.9383 53.4059 21.6529 53.6466 21.5014C53.9052 21.3498 54.0657 21.644 54.2708 21.7154C55.7955 22.2504 56.1076 23.3114 56.0809 24.8808C55.9739 31.2205 56.0363 37.5692 56.0452 43.9089Z" fill="white"/>
<path d="M38.5866 71.5239C38.6044 71.1315 38.3904 70.8997 38.0338 70.8462C37.2134 70.7125 36.5536 70.1596 35.7511 69.9902C35.4925 69.9367 35.3053 69.7316 35.1448 69.5265C34.8505 69.152 34.7079 69.366 34.5741 69.6514C34.5652 66.0134 34.5652 62.3665 34.5474 58.7285C34.5474 58.345 34.6811 58.2648 35.0289 58.2648C36.1524 58.2826 37.2669 58.2826 38.3904 58.2648C38.7739 58.2559 38.8541 58.3985 38.8452 58.7463C38.8274 62.4913 38.8274 66.2452 38.8095 69.9902C38.8095 70.5163 38.7739 71.0335 38.5866 71.5239Z" fill="white"/>
<path d="M47.6455 36.7845C47.6366 33.744 47.6366 30.7034 47.6187 27.6628C47.6187 27.324 47.7257 27.1635 48.0467 27.0654C48.7333 26.8425 49.4021 26.5839 50.053 26.2629C49.4467 26.2183 48.9295 26.5304 48.3767 26.6909C47.6098 26.9138 47.7079 26.9138 47.6009 26.138C47.4047 24.7203 47.8327 23.8821 49.2951 23.4898C50.3562 23.2045 51.337 22.616 52.3981 22.1434C52.3981 25.8973 52.3981 29.5977 52.3981 33.2981C52.2197 33.53 51.9612 33.637 51.6847 33.7083C51.4083 33.7796 51.1497 33.9045 50.9892 34.1363C50.6504 34.6267 50.3472 34.5732 49.9638 34.163C49.6428 33.8153 49.1702 33.744 48.7244 33.6815C48.3588 33.628 48.0646 34.0471 48.0913 34.484C48.1002 34.6356 48.1716 34.7694 48.2429 34.9031C48.6709 35.7413 48.5015 36.2585 47.6455 36.7845Z" fill="white"/>
<path d="M26.5223 67.0744C26.2281 67.226 26.2191 67.5381 26.1567 67.7967C26.0586 68.2336 25.8625 68.5903 25.5504 68.9023C25.1937 69.2679 24.8638 69.5087 24.4447 68.9737C24.3199 68.8132 24.0791 68.7864 23.8562 68.7508C23.4371 68.6705 22.9556 68.6705 22.9556 68.0018C22.9556 67.6451 22.6079 67.5559 22.2691 67.6005C22.2601 64.6313 22.2512 61.662 22.2334 58.6928C22.2334 58.3807 22.3315 58.2826 22.6436 58.2915C23.8027 58.3093 24.9708 58.3004 26.13 58.2915C26.4331 58.2915 26.5401 58.3807 26.5401 58.6928C26.5312 61.4748 26.5312 64.2746 26.5223 67.0744Z" fill="white"/>
<path d="M25.7552 50.7659C24.0521 51.0958 22.3401 51.4168 20.6371 51.7645C14.5916 52.995 8.79573 54.9032 3.38331 57.917C3.25848 57.9527 3.22281 57.8903 3.24956 57.7833C9.19698 53.0129 15.8934 49.7761 23.2853 47.9393C23.3656 47.9214 23.4547 47.9214 23.5439 47.9214C23.6776 47.9482 23.8381 48.0017 23.6331 48.1354C23.3299 48.3316 23.0089 48.4832 22.5541 48.5456C23.5885 48.5634 23.7401 49.4016 24.0967 50.0347C24.2751 50.3468 24.6317 50.3646 24.926 50.4716C25.2113 50.5608 25.5234 50.5519 25.7552 50.7659Z" fill="white"/>
<path d="M47.6459 36.7845C47.8688 36.5259 47.9936 36.2049 48.2433 35.9553C48.5732 35.6343 48.3592 35.3133 48.1452 35.0458C47.8153 34.6534 47.8599 34.2522 48.0828 33.8599C48.2611 33.5567 48.484 33.3427 48.921 33.521C49.4292 33.7261 50.0177 33.7529 50.3387 34.2968C50.4279 34.4394 50.5794 34.4573 50.6419 34.3146C51.0074 33.5745 51.7654 33.5389 52.4074 33.2892C52.4074 36.3744 52.4074 39.4506 52.4074 42.6249C51.266 42.1256 50.1604 41.6441 49.0101 41.1359C49.349 40.8505 49.768 41.0021 50.1336 40.7346C49.8394 40.5919 49.6164 40.6811 49.4024 40.6989C49.126 40.7257 48.8496 40.797 48.5732 40.797C47.7261 40.7792 47.637 40.6722 47.6459 39.8518C47.6637 38.4341 47.6637 38.4341 49.0369 38.1666C49.3489 38.1042 49.6699 38.0239 49.982 37.9526C50.0088 37.9437 50.0177 37.8902 50.0623 37.8189C49.3935 37.7297 48.7783 37.9615 48.1719 38.1131C47.7261 38.229 47.5924 38.1309 47.628 37.6851C47.6548 37.3909 47.6459 37.0877 47.6459 36.7845Z" fill="white"/>
<path d="M22.4738 31.5594C21.7069 31.4167 20.9401 31.274 20.1643 31.1314C20.0752 26.6195 19.9949 22.1077 19.9058 17.4532C20.7083 18.0328 21.3948 18.541 22.0903 19.0314C22.2687 19.1563 22.2598 19.3168 22.2598 19.4862C22.3311 23.5076 22.4024 27.5379 22.4738 31.5594Z" fill="white"/>
<path d="M27.2802 32.5313C26.014 32.2816 24.7389 32.1122 23.4995 31.7466C23.4995 29.2499 23.4995 26.7622 23.4995 24.2299C24.6676 24.7381 25.8624 25.2553 27.0662 25.7724C27.3783 25.9062 27.2534 26.1737 27.2623 26.3877C27.2713 28.4385 27.2713 30.4894 27.2802 32.5313Z" fill="white"/>
<path d="M64.4537 15.4291C64.0703 15.6788 64.0257 16.0979 63.9454 16.4902C63.7938 17.2749 63.562 18.0417 63.2945 18.7996C63.3659 18.4429 63.241 18.2111 62.9379 17.9882C61.9838 17.2927 61.0564 16.5526 60.1023 15.8571C59.7992 15.6342 59.6565 15.4024 59.6654 15.01C59.6833 13.1197 59.6743 11.2204 59.6743 9.28552C59.9864 9.33011 60.138 9.55302 60.3163 9.71352C61.4398 10.7122 62.5366 11.7465 63.6958 12.7184C64.2754 13.1999 64.6142 13.6993 64.4893 14.475C64.4358 14.7782 64.4626 15.1081 64.4537 15.4291Z" fill="white"/>
<path d="M25.488 24.6311C25.4434 24.6222 25.3988 24.6222 25.3632 24.6044C24.739 24.319 23.9187 24.1853 23.5352 23.7127C23.1429 23.2223 23.4282 22.3841 23.4104 21.7065C23.3837 20.9129 23.5352 20.0836 23.3658 19.3257C23.0181 17.7653 23.2856 16.2138 23.1697 14.6623C23.1429 14.261 23.2856 14.0292 23.6333 13.8509C24.3467 13.4942 24.9708 12.9681 25.7466 12.7095C25.9249 12.9681 25.9517 13.2713 25.9517 13.5745C25.8982 15.6164 25.9606 17.6494 25.8714 19.6913C25.809 21.002 25.7644 22.3485 25.9071 23.6681C25.9606 24.0337 26.0854 24.5152 25.488 24.6311Z" fill="white"/>
<path d="M13.3434 54.7873C19.0501 52.9683 24.9173 51.8983 30.8468 51.1671C34.9307 50.6678 39.0413 50.4092 43.1518 50.213C48.698 49.9366 54.2263 50.2576 59.7547 50.6321C61.003 50.7124 62.2424 50.8015 63.4818 50.9799C63.4818 50.9174 63.4818 50.855 63.4818 50.7837C58.7471 50.7837 54.0123 50.7659 49.2776 50.7926C43.9543 50.8194 38.6311 50.962 33.3257 51.4614C26.7541 52.0766 20.2806 53.2982 13.8695 54.8764C13.7447 54.9032 13.6109 54.921 13.4861 54.9478C13.3434 54.9745 13.3078 54.921 13.3434 54.7873Z" fill="white"/>
<path d="M5.67519 83.6149C5.67519 84.5779 5.63952 85.5409 5.69302 86.5039C5.72869 87.1013 5.38094 87.021 5.01536 87.03C4.60519 87.0478 4.35552 87.03 4.37336 86.4771C4.41794 84.988 4.38227 83.5079 4.40011 82.0188C4.40011 81.7513 4.19502 81.3055 4.56061 81.2252C5.00644 81.1271 5.50577 81.038 5.88919 81.573C6.60252 82.5716 7.38719 83.5168 8.14511 84.4798C8.18077 84.5244 8.20752 84.5868 8.36802 84.5957C8.36802 83.6416 8.41261 82.6786 8.35019 81.7335C8.31452 81.0736 8.72469 81.2252 9.09027 81.1895C9.51827 81.145 9.69661 81.252 9.67877 81.7335C9.63419 83.2404 9.66094 84.7473 9.62527 86.2542C9.61636 86.5128 9.84819 86.9408 9.43802 87.0121C9.01002 87.0835 8.54636 87.1637 8.18969 86.6465C7.44961 85.5944 6.62036 84.5957 5.82677 83.5792C5.76436 83.5881 5.71977 83.606 5.67519 83.6149Z" fill="white"/>
<path d="M19.9418 85.3001C19.8081 85.1128 19.7011 84.9613 20.0043 84.8097C20.9048 84.3728 21.0653 83.3295 20.8246 82.4557C20.6106 81.6978 19.8527 81.2163 18.8451 81.1895C18.0961 81.1717 17.3382 81.2163 16.5892 81.1806C16.1433 81.1628 16.0542 81.3322 16.0631 81.7334C16.0809 83.2849 16.0988 84.8364 16.0631 86.3879C16.0542 86.9408 16.2414 87.0478 16.7586 87.0478C17.3114 87.0567 17.4808 86.8605 17.4273 86.3433C17.4006 86.1115 17.4452 85.8708 17.4273 85.63C17.4095 85.3358 17.4987 85.2466 17.8197 85.202C18.4884 85.1128 18.6935 85.6211 18.8986 86.0223C19.3533 86.9229 20.0221 87.2528 21.0832 86.9408C20.6908 86.3879 20.3163 85.844 19.9418 85.3001ZM18.8629 84.025C18.6489 84.0518 18.4349 84.025 18.1228 84.025C17.9713 83.9715 17.5611 84.1944 17.4808 83.8913C17.356 83.4543 17.3738 82.9639 17.4719 82.5003C17.4987 82.3843 17.6413 82.3933 17.7483 82.3933C18.1139 82.3933 18.4795 82.3843 18.8362 82.4111C19.3355 82.4468 19.6387 82.7232 19.6298 83.2314C19.6208 83.7129 19.3177 83.9715 18.8629 84.025Z" fill="white"/>
<path d="M41.8322 85.0059C42.8755 84.3639 43.2232 83.6149 42.9825 82.6162C42.7952 81.8137 42.0819 81.243 41.1189 81.1985C40.2629 81.1628 39.398 81.1985 38.5331 81.1895C38.2388 81.1806 38.1675 81.3055 38.1675 81.573C38.1764 83.2493 38.1764 84.9345 38.1853 86.6109C38.1853 86.7714 38.1318 86.9408 38.3726 87.03C39.0681 87.2707 39.4782 86.9943 39.4872 86.2631C39.4872 86.0491 39.505 85.8351 39.4961 85.6211C39.4782 85.318 39.5941 85.2288 39.8973 85.202C40.6285 85.1218 40.7622 85.737 41.0476 86.1472C41.7698 87.1726 41.8857 87.235 43.1608 86.9586C42.7328 86.3166 42.2959 85.6835 41.8322 85.0059ZM41.0297 84.0161C40.7979 84.0607 40.5571 84.0429 40.3253 84.0607C40.0578 83.9983 39.6298 84.2034 39.5585 83.927C39.4426 83.49 39.5228 82.9907 39.5139 82.5181C39.5139 82.5003 39.5317 82.4735 39.5496 82.4646C40.0311 82.2863 40.5215 82.3755 41.0119 82.42C41.3329 82.4468 41.5826 82.6162 41.6806 82.9461C41.8411 83.4544 41.5647 83.918 41.0297 84.0161Z" fill="white"/>
<path d="M72.1489 85.9599C71.926 85.6389 71.7031 85.3268 71.4891 85.0058C71.5426 84.9523 71.5872 84.8988 71.6407 84.8632C72.5591 84.2568 72.8533 83.5346 72.5948 82.5627C72.3718 81.7334 71.6496 81.2163 70.6242 81.1895C69.8306 81.1717 69.0281 81.1984 68.2345 81.1895C67.9492 81.1895 67.8154 81.243 67.8154 81.5729C67.8333 83.276 67.8243 84.9791 67.8243 86.6733C67.8243 86.8427 67.8154 86.9853 68.0651 87.0388C68.9033 87.1993 69.1351 87.0388 69.144 86.2096C69.144 86.0758 69.1262 85.951 69.1529 85.8262C69.1886 85.6211 69.0013 85.2823 69.3669 85.2466C69.679 85.2198 70.0535 85.0683 70.2853 85.4873C70.4369 85.7727 70.6509 86.0223 70.8293 86.2898C71.391 87.1102 71.7744 87.235 72.8177 86.9229C72.5858 86.6019 72.3718 86.2809 72.1489 85.9599ZM70.7579 83.9983C70.5172 84.0607 70.2497 84.0517 69.9911 84.0696C69.7147 83.9715 69.2688 84.2212 69.1708 83.9091C69.0459 83.4989 69.1351 83.0174 69.144 82.5716C69.144 82.5359 69.1797 82.4913 69.2064 82.4646C69.4739 82.2328 70.9987 82.4557 71.2038 82.7588C71.5248 83.2136 71.3018 83.8556 70.7579 83.9983Z" fill="white"/>
<path d="M73.7269 84.1321C73.7269 83.3117 73.7358 82.4914 73.718 81.6711C73.7091 81.3322 73.7804 81.1717 74.1727 81.1806C75.3319 81.2074 76.5 81.2163 77.6681 81.1717C78.3101 81.145 78.1139 81.573 78.1674 81.894C78.2387 82.3487 77.9891 82.3755 77.6413 82.3666C76.928 82.3487 76.2147 82.4022 75.5102 82.3576C74.9842 82.322 75.0466 82.6341 75.0287 82.964C75.0109 83.3385 75.0555 83.5703 75.537 83.5346C76.1612 83.4901 76.7853 83.5436 77.4095 83.5168C77.998 83.4901 77.7662 83.9091 77.8107 84.1766C77.8553 84.4887 77.8197 84.7116 77.3917 84.6849C76.8121 84.6492 76.2236 84.7027 75.644 84.6671C75.1892 84.6403 74.9931 84.7384 75.0109 85.2556C75.0287 85.7103 75.1001 85.9154 75.6083 85.8797C76.3127 85.8351 77.035 85.8797 77.7394 85.8619C78.1139 85.853 78.3101 85.9332 78.2655 86.3612C78.2298 86.7179 78.3101 87.0656 77.7127 87.0478C76.5713 86.9943 75.43 87.0121 74.2887 87.0478C73.8161 87.0656 73.7091 86.8962 73.7269 86.4593C73.7537 85.6836 73.7358 84.9078 73.7269 84.1321Z" fill="white"/>
<path d="M56.5713 43.9179C56.5713 40.69 56.5713 37.4622 56.5713 34.2344C56.607 34.2344 56.6515 34.2344 56.6872 34.2344C56.6872 35.242 56.6872 36.2406 56.6872 37.2482C56.6872 37.3374 56.6783 37.4176 56.6872 37.5068C56.7229 37.8724 56.5267 38.4074 56.9725 38.5322C57.4273 38.657 57.7215 38.1934 57.9623 37.8456C58.1941 37.5068 58.3635 37.1323 58.5686 36.7845C58.6489 36.6508 58.6845 36.4011 58.9075 36.4814C59.0769 36.5438 58.9966 36.74 59.0055 36.8826C59.0145 37.0342 58.9877 37.1858 59.1215 37.3017C59.1304 39.8073 59.1304 42.304 59.1393 44.8095C58.7737 44.551 58.3368 44.5153 57.9177 44.444C57.4362 44.3637 57.035 44.0695 56.5713 43.9179Z" fill="white"/>
<path d="M49.0901 83.2582C49.0455 83.9894 49.1792 84.7295 48.9741 85.4428C48.6264 86.6644 47.6812 87.244 46.2189 87.1281C44.9349 87.0211 44.0789 86.2721 43.9986 85.0326C43.9273 83.8735 43.963 82.7054 43.9719 81.5462C43.9719 80.9042 44.4801 81.2787 44.7476 81.2074C45.0597 81.1271 45.2737 81.2163 45.2648 81.6265C45.247 82.5716 45.2559 83.5257 45.2648 84.4709C45.2737 85.4339 45.7196 85.9421 46.5131 85.9332C47.3335 85.9243 47.7882 85.4428 47.7971 84.4887C47.815 83.5436 47.8239 82.5895 47.7793 81.6443C47.7526 81.0915 48.0914 81.1896 48.4035 81.1985C48.7156 81.2074 49.1257 81.0469 49.0811 81.6532C49.0633 82.1793 49.0901 82.7143 49.0901 83.2582Z" fill="white"/>
<path d="M61.4754 83.2136C61.4754 82.8034 61.4754 82.3933 61.4754 81.9831C61.4754 81.2163 61.8142 80.9844 62.59 81.1895C62.8842 81.2698 62.7861 81.4838 62.795 81.6532C62.804 82.6429 62.7772 83.6327 62.8129 84.6224C62.8485 85.6122 63.6421 86.1561 64.5516 85.8351C65.1847 85.6122 65.3541 85.095 65.3541 84.4976C65.363 83.5703 65.3898 82.6429 65.3452 81.7245C65.3185 81.2163 65.5414 81.1538 65.9515 81.1895C66.2904 81.2252 66.7005 81.0647 66.656 81.6888C66.5846 82.8213 66.7451 83.9715 66.5668 85.1039C66.3439 86.4949 65.3185 87.2261 63.8115 87.1191C62.3849 87.021 61.511 86.1026 61.4843 84.6938C61.4665 84.2033 61.4754 83.7129 61.4754 83.2136Z" fill="white"/>
<path d="M25.0776 81.3946C24.9171 81.0201 23.8203 81.0825 23.6509 81.4749C22.8484 83.3028 22.0726 85.1307 21.2612 87.0389C21.6268 87.0389 21.9211 87.021 22.2242 87.0389C22.4917 87.0567 22.6968 87.0032 22.7503 86.709C22.9019 85.9243 23.3834 85.6836 24.1324 85.8173C24.3642 85.8619 24.6139 85.8619 24.8368 85.8173C25.4431 85.7014 25.7641 85.9778 25.889 86.5396C25.9781 86.9408 26.2011 87.1102 26.6201 87.0567C26.8698 87.021 27.1284 87.0478 27.4761 87.0478C26.6558 85.104 25.8801 83.2404 25.0776 81.3946ZM23.6331 84.6403C23.7936 84.0161 24.0521 83.4544 24.3553 82.7767C24.6496 83.4633 24.8903 84.0161 25.1578 84.6403H23.6331Z" fill="white"/>
<path d="M29.9461 87.1369C29.2328 87.0834 28.5106 86.9764 27.8953 86.5306C27.7259 86.4057 27.3603 86.2809 27.6813 86.0223C27.9399 85.8083 27.9845 85.1663 28.5641 85.4962C29.0188 85.7548 29.4736 85.9777 30.0175 85.9688C30.3474 85.9599 30.713 85.9421 30.7932 85.5408C30.8735 85.1307 30.5436 84.988 30.2226 84.8899C29.8124 84.7562 29.3933 84.6581 28.9921 84.5154C28.0915 84.1944 27.7348 83.6594 27.7972 82.7588C27.8596 81.9117 28.359 81.3678 29.2417 81.1806C30.1066 81.0022 30.9091 81.1538 31.6492 81.6353C31.8008 81.7334 32.1396 81.8226 31.8632 82.0901C31.6314 82.313 31.5957 82.848 31.0964 82.6607C30.6951 82.5092 30.3028 82.3219 29.8659 82.313C29.536 82.3041 29.1882 82.3219 29.108 82.741C29.0366 83.1333 29.3487 83.2582 29.6341 83.3562C30.0175 83.4989 30.4098 83.6059 30.8021 83.7397C31.8811 84.1052 32.2466 84.6402 32.1396 85.6389C32.0505 86.4592 31.4352 86.9853 30.4366 87.1102C30.2761 87.1191 30.1245 87.1191 29.9461 87.1369Z" fill="white"/>
<path d="M67.6191 26.7533C67.5478 26.7265 67.4675 26.7087 67.3873 26.7265C67.3783 26.7265 67.3605 26.7265 67.3516 26.7354C67.3248 26.7176 67.2981 26.6909 67.2713 26.673V26.7711C67.0752 26.8781 67.1287 27.1991 67.1108 27.4309C67.1108 27.4755 67.1108 27.5201 67.1108 27.5647C67.1108 27.8054 67.1108 28.0551 67.1108 28.2959V27.4666C67.1108 27.315 67.1108 27.1634 67.1108 27.0119C67.1198 26.5393 67.3159 26.5571 67.6191 26.7533Z" fill="white"/>
<path d="M68.2166 46.3521C67.2714 46.6018 66.3174 46.5483 65.3633 46.3789C65.3811 46.361 65.39 46.3432 65.4079 46.3254C65.4524 46.2986 65.497 46.2897 65.5505 46.3075C65.5773 46.3164 65.5951 46.3254 65.6219 46.3343C65.8359 46.3343 66.0499 46.3343 66.2639 46.3343H66.2817C66.2817 46.3343 66.2817 46.3432 66.2906 46.3432C66.674 46.4948 67.0842 46.361 67.4765 46.4145C67.9402 46.4859 68.1096 46.3254 68.1453 45.9598C68.1542 46.1024 68.172 46.2273 68.2166 46.3521Z" fill="white"/>
<path d="M53.0492 87.1369C51.6226 87.128 50.4277 86.2542 50.0978 84.9702C49.7322 83.5346 50.2583 82.1971 51.4531 81.5194C52.6212 80.8507 54.3867 81.0201 55.2606 81.885C55.3319 81.9563 55.4656 82.0277 55.3854 82.1347C55.216 82.3487 54.9931 82.5359 54.8147 82.7499C54.5026 83.1244 54.3332 82.7321 54.1371 82.6251C53.4148 82.2328 52.6034 82.2238 52.0684 82.6608C51.4353 83.1779 51.2659 83.8645 51.4531 84.6403C51.6315 85.3714 52.1486 85.8262 52.8976 85.9243C53.4416 85.9956 53.9141 85.8083 54.3332 85.4695C54.8861 85.0148 55.0109 85.6746 55.2784 85.8708C55.6529 86.1472 55.2516 86.2988 55.0911 86.4414C54.4937 86.9229 53.8071 87.1369 53.0492 87.1369Z" fill="white"/>
<path d="M25.4878 24.6311C25.8712 24.435 25.791 24.0694 25.7464 23.7751C25.5145 22.402 25.6215 21.011 25.684 19.6556C25.782 17.3373 25.6929 15.019 25.7642 12.7095C26.6291 13.0216 26.9323 13.5834 26.9145 14.5553C26.8431 18.0952 26.8877 21.644 26.8877 25.2553C26.3527 25.1126 25.9247 24.863 25.4878 24.6311Z" fill="white"/>
<path d="M10.8378 84.1142C10.8378 83.276 10.8467 82.4378 10.8288 81.5997C10.8199 81.2965 10.9002 81.1806 11.2212 81.1895C12.4071 81.2073 13.593 81.2163 14.77 81.1895C15.2515 81.1806 15.1623 81.4927 15.1356 81.7512C15.1178 82.0009 15.3407 82.4022 14.7878 82.3933C14.0567 82.3843 13.3255 82.42 12.5943 82.3933C11.988 82.3665 12.1753 82.7856 12.1485 83.0887C12.1218 83.4097 12.1218 83.6773 12.5943 83.6416C13.2185 83.597 13.8427 83.6594 14.4668 83.6237C14.9573 83.597 14.9127 83.8823 14.9038 84.1855C14.8948 84.4976 14.9929 84.8453 14.449 84.8008C13.8248 84.7562 13.2007 84.8097 12.5765 84.7918C12.2377 84.7829 12.1218 84.8988 12.1485 85.2377C12.1753 85.6211 12.1128 86.0134 12.1574 86.3968C12.2288 86.9586 11.988 87.0567 11.4708 87.0567C10.9269 87.0656 10.7664 86.9051 10.8021 86.3701C10.8467 85.6211 10.811 84.8632 10.811 84.1142C10.8288 84.1142 10.8378 84.1142 10.8378 84.1142Z" fill="white"/>
<path d="M58.3101 81.1984C58.9788 81.1984 59.6476 81.2252 60.3074 81.1895C60.7443 81.1717 60.7532 81.4213 60.7176 81.7156C60.6819 81.9831 60.9226 82.42 60.3431 82.3932C60.3252 82.3932 60.2985 82.3932 60.2806 82.4022C59.8437 82.4735 59.2463 82.1882 59.0145 82.5627C58.8094 82.8837 58.9521 83.4365 58.9521 83.8912C58.9521 84.774 58.9342 85.6567 58.9788 86.5395C59.0145 87.2172 58.5508 87.0121 58.212 87.0477C57.8464 87.0834 57.6235 87.0388 57.6324 86.5484C57.6681 85.3447 57.6235 84.1409 57.6413 82.9372C57.6502 82.5448 57.5343 82.3843 57.142 82.42C56.9547 82.4378 56.7586 82.4111 56.5624 82.4111C55.8491 82.4022 55.6529 82.1079 55.8491 81.4213C55.9204 81.1806 56.0809 81.2073 56.2414 81.2073C56.9369 81.1895 57.6235 81.1895 58.3101 81.1984Z" fill="white"/>
<path d="M34.9838 81.1895C35.6526 81.1895 36.3213 81.2163 36.9901 81.1806C37.5072 81.1538 37.4002 81.5016 37.3913 81.778C37.3824 82.0455 37.5429 82.4378 37.0168 82.3933C36.999 82.3933 36.9722 82.3933 36.9544 82.3933C35.608 82.4557 35.608 82.4557 35.608 83.8021C35.608 84.7027 35.5634 85.6122 35.6258 86.5128C35.6615 87.1191 35.3227 87.0299 34.9571 87.0478C34.5469 87.0656 34.2794 87.0478 34.3062 86.4949C34.3507 85.309 34.2972 84.1231 34.324 82.9461C34.3329 82.527 34.2259 82.3398 33.789 82.3933C33.6196 82.4111 33.4412 82.3754 33.2718 82.4022C32.6298 82.527 32.5317 82.206 32.5674 81.6621C32.5852 81.2876 32.7012 81.1895 33.0578 81.1984C33.6998 81.2252 34.3507 81.2073 34.9927 81.2073C34.9838 81.1895 34.9838 81.1895 34.9838 81.1895Z" fill="white"/>
<path d="M3.10672 84.0964C3.10672 84.9167 3.07105 85.737 3.11564 86.5485C3.1513 87.1994 2.71439 87.0121 2.39339 87.021C2.09022 87.0389 1.7603 87.137 1.76922 86.5841C1.80489 84.9256 1.79597 83.2671 1.77814 81.6086C1.76922 80.922 2.26855 81.252 2.55389 81.1895C2.87489 81.1271 3.13347 81.1628 3.10672 81.6265C3.07105 82.4557 3.0978 83.276 3.10672 84.0964C3.0978 84.0964 3.0978 84.0964 3.10672 84.0964Z" fill="white"/>
<path d="M69.8126 44.3013C69.8037 43.9803 69.8037 43.6593 69.8751 43.3383C69.8305 43.6593 69.8126 43.9803 69.8126 44.3013Z" fill="white"/>
<path d="M69.8394 45.6923C69.8483 46.1559 69.7413 46.3789 69.2509 46.2986C69.1617 46.2897 69.0726 46.2808 68.9834 46.2808C69.7948 46.1114 69.8037 46.0044 69.8216 44.9789C69.8305 45.2197 69.8394 45.4515 69.8394 45.6923Z" fill="white"/>
<path d="M13.3434 54.7873C13.388 54.8319 13.4415 54.8854 13.4861 54.93C12.7193 55.2153 11.9346 55.4293 11.1143 55.5095C11.8454 55.2331 12.5677 54.93 13.3434 54.7873Z" fill="white"/>
<path d="M3.24959 57.7744C3.29418 57.8189 3.33876 57.8635 3.38334 57.9081C3.16043 58.1489 2.87509 58.2648 2.52734 58.3004C2.76809 58.131 3.00884 57.9527 3.24959 57.7744Z" fill="white"/>
<path d="M65.6215 46.3432C65.5323 46.3521 65.4521 46.3699 65.3629 46.3789C64.926 46.2808 64.4623 46.4145 64.0254 46.2451C64.5604 46.254 65.1043 46.1203 65.6215 46.3432Z" fill="white"/>
<path d="M6.11203 41.5639C6.06745 41.5549 6.01395 41.546 5.96045 41.5371C6.02287 41.5549 6.07637 41.5817 6.12987 41.6084C6.12987 41.5906 6.12095 41.5728 6.11203 41.5639ZM11.6225 44.3013C11.5779 44.328 11.5601 44.3726 11.5423 44.4083C11.569 44.435 11.6047 44.4707 11.6315 44.4974C11.6136 44.435 11.6136 44.3637 11.6225 44.3013Z" fill="white"/>
<path d="M69.6243 64.7733C69.5979 64.7644 69.5714 64.7556 69.5537 64.7468C69.5625 64.7291 69.5714 64.7203 69.5802 64.7026C69.589 64.7291 69.6067 64.7468 69.6243 64.7733Z" fill="white"/>
<path d="M35.3585 12.014C35.3139 12.0229 35.2783 12.0229 35.2426 12.014C35.1267 11.9962 35.0375 11.9248 34.984 11.8089C34.984 11.8 34.9751 11.8 34.9751 11.7911H34.984C35.1267 11.8178 35.2426 11.8892 35.3407 11.9962C35.3496 11.9962 35.3496 12.0051 35.3585 12.014Z" fill="white"/>
<path d="M36.7586 12.8344C36.7497 12.8344 36.7407 12.8255 36.7407 12.8255L36.7497 12.8165C36.7497 12.8165 36.7586 12.8255 36.7586 12.8344Z" fill="white"/>
<path d="M34.6807 13.8601C34.6903 13.8601 34.6903 13.8698 34.6903 13.8698L34.6807 13.8601Z" fill="white"/>
<path d="M36.6345 13.8601C36.6254 13.8601 36.6072 13.8692 36.5981 13.8692C36.5981 13.8601 36.5981 13.851 36.5981 13.8419C36.6072 13.8419 36.6163 13.851 36.6345 13.8601Z" fill="white"/>
<path d="M34.8675 22.7051C34.8675 22.7316 34.8587 22.7492 34.8587 22.7757C34.841 22.758 34.8145 22.7404 34.7969 22.7227C34.8234 22.7139 34.841 22.7139 34.8675 22.7051Z" fill="white"/>
<path d="M34.7336 18.2111C34.7248 18.2288 34.7071 18.2553 34.6895 18.2729C34.6895 18.2553 34.6807 18.2464 34.6807 18.2288C34.6983 18.2199 34.716 18.2111 34.7336 18.2111Z" fill="white"/>
<path d="M34.6899 26.0667C34.7256 26.1202 34.7524 26.1737 34.7791 26.2361C34.7524 26.2094 34.7256 26.1826 34.6989 26.1559C34.6989 26.1291 34.6989 26.0935 34.6899 26.0667Z" fill="white"/>
<path d="M34.8587 27.101C34.8587 27.1275 34.8498 27.154 34.8498 27.1805C34.8322 27.1628 34.8145 27.1452 34.7969 27.1187C34.8145 27.1187 34.841 27.1098 34.8587 27.101Z" fill="white"/>
<path d="M34.7073 24.8451C34.6986 24.8538 34.6986 24.8624 34.6899 24.8711V24.8625C34.6899 24.8538 34.6986 24.8451 34.7073 24.8451Z" fill="white"/>
<path d="M34.7789 28.4296C34.7521 28.4118 34.7254 28.385 34.7075 28.3672C34.7075 28.3404 34.7075 28.3137 34.7075 28.2958C34.7343 28.3404 34.7521 28.385 34.7789 28.4296Z" fill="white"/>
<path d="M34.9395 30.5518C34.9306 30.5963 34.9217 30.6409 34.9128 30.6855C34.8771 30.6677 34.8504 30.6588 34.8147 30.6409C34.8058 30.632 34.8058 30.632 34.7969 30.6231C34.8325 30.5963 34.886 30.5696 34.9395 30.5518Z" fill="white"/>
<path d="M34.7073 16.0176C34.6986 16.0263 34.6986 16.0349 34.6899 16.0436C34.6899 16.0349 34.6899 16.0263 34.6899 16.0176C34.6986 16.0176 34.7073 16.0176 34.7073 16.0176Z" fill="white"/>
<path d="M34.9395 32.7453C34.9217 32.7899 34.9128 32.8345 34.9039 32.8791C34.8771 32.8612 34.8504 32.8523 34.8236 32.8345C34.8147 32.8256 34.8058 32.8166 34.7969 32.8077C34.8415 32.7899 34.886 32.7631 34.9395 32.7453Z" fill="white"/>
<path d="M35.3585 12.014C35.2247 12.1923 35.0821 12.3707 34.8502 12.1567C34.6362 11.9694 34.8057 11.8713 34.9662 11.7911H34.9751C35.1177 11.8178 35.2337 11.8892 35.3317 11.9962C35.3496 11.9962 35.3496 12.0051 35.3585 12.014Z" fill="white"/>
<path d="M50.1511 32.0855C49.625 32.4332 49.2951 32.5135 48.8047 32.46C49.1792 32.1479 49.4378 32.0676 50.1511 32.0855Z" fill="white"/>
<path d="M48.7515 29.5977C49.1081 29.2589 49.545 29.1697 50.0265 29.2054C49.652 29.4818 49.2151 29.5799 48.7515 29.5977Z" fill="white"/>
<path d="M50.0712 35.0993C50.196 35.1171 50.3565 35.0636 50.41 35.2063C50.4724 35.349 50.3387 35.4381 50.2406 35.5184C49.6788 35.9999 49.126 35.9375 48.6802 35.3311C49.1349 35.2063 49.5808 35.0101 50.0712 35.0993Z" fill="white"/>
<path d="M50.0712 35.0992C49.6164 35.2241 49.1795 35.4648 48.6802 35.3311C49.1171 34.9477 49.8126 34.8317 50.0712 35.0992Z" fill="white"/>
</svg>
