<svg width="75" height="71" viewBox="0 0 75 71" fill="none" xmlns="http://www.w3.org/2000/svg">
<mask id="path-1-outside-1_3_1265" maskUnits="userSpaceOnUse" x="-0.5" y="-0.5" width="76" height="72" fill="black">
<rect fill="white" x="-0.5" y="-0.5" width="76" height="72"/>
<path fill-rule="evenodd" clip-rule="evenodd" d="M5.96853 68.8026H68.9964C71.0933 68.7737 72.7785 67.0628 72.7785 64.9659C72.7785 62.869 71.0933 61.1581 68.9964 61.1291H5.96853C3.87166 61.1581 2.18644 62.869 2.18644 64.9659C2.18644 67.0628 3.87166 68.7737 5.96853 68.8026ZM30.838 39.321L29.7767 31.3967H29.7799C28.0272 31.8952 26.3291 32.5577 24.7082 33.3843C27.0591 34.7639 28.9373 36.8222 30.0983 39.2857L30.838 39.321ZM45.1849 31.3967L44.1236 39.321L44.8632 39.2856H44.8665C46.0307 36.8221 47.9088 34.7639 50.2598 33.3842C48.6356 32.5577 46.9376 31.8952 45.188 31.3967L45.1849 31.3967ZM55.1156 54.9218L59.2256 48.1167L55.3085 48.4576L51.8899 54.6484L55.1124 54.9185L55.1156 54.9218ZM61.5218 47.5957L56.2958 56.2469C56.1285 56.5235 55.8198 56.6811 55.4982 56.6554L50.449 56.2309C50.1564 56.2051 49.8927 56.0315 49.7608 55.7645C49.6289 55.5008 49.6418 55.1857 49.7994 54.9348L54.0445 47.242C54.1828 46.9944 54.4336 46.8304 54.7167 46.8079L60.7435 46.2805C61.0683 46.2515 61.3802 46.4123 61.5475 46.6921C61.7115 46.9751 61.7019 47.3255 61.5218 47.5957ZM18.6681 56.2469L13.4421 47.5957C13.2587 47.3223 13.2491 46.9718 13.4163 46.6919C13.5836 46.4089 13.8955 46.2481 14.2203 46.2771L20.2471 46.8045C20.5302 46.827 20.781 46.991 20.9161 47.2419L25.1612 54.9347H25.1644C25.3188 55.1855 25.3349 55.4974 25.203 55.7644C25.0679 56.0281 24.8074 56.2017 24.5116 56.2275L19.4624 56.652C19.144 56.6777 18.8353 56.5201 18.6681 56.2436L18.6681 56.2469ZM15.7351 48.1136L19.8452 54.9187L23.0677 54.6486L19.6491 48.4545L15.732 48.1136L15.7351 48.1136ZM39.9097 21.5168H35.0536V29.0134H39.9097V21.5168ZM41.6078 26.1157H44.187L39.7264 59.4306H35.2336C33.751 48.326 32.2652 37.2204 30.7762 26.1157H33.3554V29.8592C33.3554 30.3287 33.7349 30.7082 34.2044 30.7082H40.7586C41.2282 30.7082 41.6076 30.3287 41.6076 29.8592L41.6078 26.1157ZM52.0341 34.3677C56.3307 36.9566 59.8619 40.6422 62.2644 45.0451C64.6668 49.4511 65.8568 54.4167 65.7056 59.4306H41.4347L43.8981 41.0257L45.4611 40.9518C45.7795 40.9357 46.0657 40.7395 46.1911 40.4436C47.3232 37.7679 49.4039 35.6035 52.0315 34.3686L52.0341 34.3677ZM16.6807 37.0531C16.3237 36.2233 16.0182 35.3743 15.7641 34.5092H10.7085C10.239 34.5092 9.85954 34.1297 9.85954 33.6602V22.5843C9.85954 22.1148 10.239 21.7354 10.7085 21.7354H15.7641C16.2143 20.1884 16.835 18.6962 17.6101 17.2844L14.0338 13.7082C13.7026 13.3769 13.7026 12.8398 14.0338 12.5086L21.8681 4.67439C22.0256 4.5168 22.2411 4.42676 22.4662 4.42676C22.6914 4.42676 22.9068 4.51681 23.0676 4.67439L26.6439 8.24736C28.0557 7.47551 29.5479 6.85482 31.0948 6.40135V1.34899C31.0948 0.879452 31.4743 0.5 31.9438 0.5H43.0197C43.4892 0.5 43.8687 0.879493 43.8687 1.34899V6.40456C45.4156 6.85481 46.9078 7.47551 48.3196 8.24736L51.8959 4.6711V4.67431C52.0567 4.51351 52.2722 4.42346 52.4973 4.42346C52.7224 4.42346 52.9379 4.51351 53.0955 4.67431L60.9297 12.5085V12.5053C61.2609 12.8366 61.2609 13.3736 60.9297 13.7049L57.3534 17.2811C58.1285 18.6929 58.7459 20.1852 59.1994 21.7321H64.255C64.7245 21.7321 65.104 22.1116 65.104 22.581V33.6602C65.104 33.8853 65.0139 34.104 64.8564 34.2616C64.6956 34.4224 64.4801 34.5125 64.255 34.5125H59.1994C58.9453 35.3776 58.6398 36.2266 58.2828 37.0563C64.3418 42.8934 67.6512 51.0203 67.3968 59.4304H68.9951C72.0246 59.4658 74.4623 61.9357 74.4623 64.9652C74.4623 67.9947 72.0246 70.4614 68.9951 70.5H5.96722C2.93772 70.4614 0.5 67.9947 0.5 64.9652C0.5 61.9357 2.93772 59.4658 5.96722 59.4304H7.56558C7.3083 51.0203 10.6208 42.8935 16.6795 37.053L16.6807 37.0531ZM15.2303 41.1856C17.3592 38.4616 19.9707 36.1525 22.9295 34.3677C25.5602 35.6026 27.6378 37.767 28.7698 40.4427C28.8984 40.7386 29.1815 40.9348 29.503 40.9509L31.066 41.0281L33.5295 59.4305H9.25854C9.05272 52.8377 11.1652 46.379 15.2303 41.1856ZM51.4556 32.0972C49.5324 31.0809 47.5063 30.2802 45.4094 29.7045L45.9786 25.4529C46.0365 25.1988 45.9754 24.9383 45.8146 24.7357C45.6506 24.5363 45.4094 24.4205 45.1521 24.4205H41.608V20.6674C41.608 20.4423 41.518 20.2268 41.3572 20.066C41.1996 19.9085 40.9841 19.8184 40.759 19.8184H34.2048C33.9797 19.8184 33.7642 19.9085 33.6066 20.066C33.4458 20.2268 33.3558 20.4423 33.3558 20.6674V24.4205H29.8117C29.5673 24.4205 29.3389 24.5267 29.1781 24.71C29.0173 24.8901 28.9434 25.1345 28.9723 25.3757L29.548 29.7013C27.4543 30.2769 25.4283 31.0777 23.5051 32.0939C22.2605 27.7137 23.1449 23.0022 25.8882 19.3682C28.6346 15.7372 32.9248 13.6018 37.4786 13.6018C42.0324 13.6018 46.3225 15.7373 49.069 19.3682C51.8155 23.0023 52.6967 27.714 51.4521 32.0939L51.4556 32.0972ZM22.0003 32.9527C20.5917 33.805 19.257 34.7729 18.0092 35.8439C17.7004 35.0624 17.4367 34.2616 17.2245 33.4512C17.128 33.0781 16.7903 32.8176 16.4044 32.8144H11.5546V23.4304H16.4044C16.816 23.4304 17.1698 23.1345 17.2405 22.7293C17.4785 21.8385 17.7744 20.9605 18.1281 20.1083C18.4915 19.2335 18.9128 18.3812 19.3921 17.5644C19.5882 17.2332 19.5336 16.8119 19.2602 16.5385L15.8319 13.107L22.4665 6.47232L25.8949 9.90063H25.8981C26.1907 10.1933 26.6474 10.2319 26.9851 9.99711C28.606 9.05805 30.3458 8.34087 32.1564 7.86163C32.5295 7.76515 32.79 7.43068 32.79 7.04476V2.19501H42.174V7.04476C42.174 7.45641 42.4698 7.80695 42.875 7.8809C44.6856 8.36331 46.4223 9.08688 48.0399 10.0324C48.3712 10.2254 48.7925 10.1739 49.0659 9.90058L52.4974 6.47227L59.1353 13.1069L55.707 16.5352H55.7037C55.4143 16.8279 55.3725 17.2878 55.6105 17.6255C56.5495 19.2464 57.2667 20.983 57.7427 22.7936C57.8391 23.1666 58.1768 23.4271 58.5627 23.4271H63.4125V32.8111H58.5595C58.1479 32.8111 57.7941 33.107 57.7234 33.5122C57.5111 34.3034 57.2571 35.0816 56.9548 35.8406C55.707 34.7729 54.3723 33.8048 52.9636 32.9526C54.5009 28.0289 53.6036 22.6679 50.5484 18.5127C47.49 14.3576 42.6402 11.9038 37.4818 11.9038C32.3234 11.9038 27.4737 14.3577 24.4151 18.5127C21.3599 22.6678 20.463 28.0293 22.0003 32.9527Z"/>
</mask>
<path fill-rule="evenodd" clip-rule="evenodd" d="M5.96853 68.8026H68.9964C71.0933 68.7737 72.7785 67.0628 72.7785 64.9659C72.7785 62.869 71.0933 61.1581 68.9964 61.1291H5.96853C3.87166 61.1581 2.18644 62.869 2.18644 64.9659C2.18644 67.0628 3.87166 68.7737 5.96853 68.8026ZM30.838 39.321L29.7767 31.3967H29.7799C28.0272 31.8952 26.3291 32.5577 24.7082 33.3843C27.0591 34.7639 28.9373 36.8222 30.0983 39.2857L30.838 39.321ZM45.1849 31.3967L44.1236 39.321L44.8632 39.2856H44.8665C46.0307 36.8221 47.9088 34.7639 50.2598 33.3842C48.6356 32.5577 46.9376 31.8952 45.188 31.3967L45.1849 31.3967ZM55.1156 54.9218L59.2256 48.1167L55.3085 48.4576L51.8899 54.6484L55.1124 54.9185L55.1156 54.9218ZM61.5218 47.5957L56.2958 56.2469C56.1285 56.5235 55.8198 56.6811 55.4982 56.6554L50.449 56.2309C50.1564 56.2051 49.8927 56.0315 49.7608 55.7645C49.6289 55.5008 49.6418 55.1857 49.7994 54.9348L54.0445 47.242C54.1828 46.9944 54.4336 46.8304 54.7167 46.8079L60.7435 46.2805C61.0683 46.2515 61.3802 46.4123 61.5475 46.6921C61.7115 46.9751 61.7019 47.3255 61.5218 47.5957ZM18.6681 56.2469L13.4421 47.5957C13.2587 47.3223 13.2491 46.9718 13.4163 46.6919C13.5836 46.4089 13.8955 46.2481 14.2203 46.2771L20.2471 46.8045C20.5302 46.827 20.781 46.991 20.9161 47.2419L25.1612 54.9347H25.1644C25.3188 55.1855 25.3349 55.4974 25.203 55.7644C25.0679 56.0281 24.8074 56.2017 24.5116 56.2275L19.4624 56.652C19.144 56.6777 18.8353 56.5201 18.6681 56.2436L18.6681 56.2469ZM15.7351 48.1136L19.8452 54.9187L23.0677 54.6486L19.6491 48.4545L15.732 48.1136L15.7351 48.1136ZM39.9097 21.5168H35.0536V29.0134H39.9097V21.5168ZM41.6078 26.1157H44.187L39.7264 59.4306H35.2336C33.751 48.326 32.2652 37.2204 30.7762 26.1157H33.3554V29.8592C33.3554 30.3287 33.7349 30.7082 34.2044 30.7082H40.7586C41.2282 30.7082 41.6076 30.3287 41.6076 29.8592L41.6078 26.1157ZM52.0341 34.3677C56.3307 36.9566 59.8619 40.6422 62.2644 45.0451C64.6668 49.4511 65.8568 54.4167 65.7056 59.4306H41.4347L43.8981 41.0257L45.4611 40.9518C45.7795 40.9357 46.0657 40.7395 46.1911 40.4436C47.3232 37.7679 49.4039 35.6035 52.0315 34.3686L52.0341 34.3677ZM16.6807 37.0531C16.3237 36.2233 16.0182 35.3743 15.7641 34.5092H10.7085C10.239 34.5092 9.85954 34.1297 9.85954 33.6602V22.5843C9.85954 22.1148 10.239 21.7354 10.7085 21.7354H15.7641C16.2143 20.1884 16.835 18.6962 17.6101 17.2844L14.0338 13.7082C13.7026 13.3769 13.7026 12.8398 14.0338 12.5086L21.8681 4.67439C22.0256 4.5168 22.2411 4.42676 22.4662 4.42676C22.6914 4.42676 22.9068 4.51681 23.0676 4.67439L26.6439 8.24736C28.0557 7.47551 29.5479 6.85482 31.0948 6.40135V1.34899C31.0948 0.879452 31.4743 0.5 31.9438 0.5H43.0197C43.4892 0.5 43.8687 0.879493 43.8687 1.34899V6.40456C45.4156 6.85481 46.9078 7.47551 48.3196 8.24736L51.8959 4.6711V4.67431C52.0567 4.51351 52.2722 4.42346 52.4973 4.42346C52.7224 4.42346 52.9379 4.51351 53.0955 4.67431L60.9297 12.5085V12.5053C61.2609 12.8366 61.2609 13.3736 60.9297 13.7049L57.3534 17.2811C58.1285 18.6929 58.7459 20.1852 59.1994 21.7321H64.255C64.7245 21.7321 65.104 22.1116 65.104 22.581V33.6602C65.104 33.8853 65.0139 34.104 64.8564 34.2616C64.6956 34.4224 64.4801 34.5125 64.255 34.5125H59.1994C58.9453 35.3776 58.6398 36.2266 58.2828 37.0563C64.3418 42.8934 67.6512 51.0203 67.3968 59.4304H68.9951C72.0246 59.4658 74.4623 61.9357 74.4623 64.9652C74.4623 67.9947 72.0246 70.4614 68.9951 70.5H5.96722C2.93772 70.4614 0.5 67.9947 0.5 64.9652C0.5 61.9357 2.93772 59.4658 5.96722 59.4304H7.56558C7.3083 51.0203 10.6208 42.8935 16.6795 37.053L16.6807 37.0531ZM15.2303 41.1856C17.3592 38.4616 19.9707 36.1525 22.9295 34.3677C25.5602 35.6026 27.6378 37.767 28.7698 40.4427C28.8984 40.7386 29.1815 40.9348 29.503 40.9509L31.066 41.0281L33.5295 59.4305H9.25854C9.05272 52.8377 11.1652 46.379 15.2303 41.1856ZM51.4556 32.0972C49.5324 31.0809 47.5063 30.2802 45.4094 29.7045L45.9786 25.4529C46.0365 25.1988 45.9754 24.9383 45.8146 24.7357C45.6506 24.5363 45.4094 24.4205 45.1521 24.4205H41.608V20.6674C41.608 20.4423 41.518 20.2268 41.3572 20.066C41.1996 19.9085 40.9841 19.8184 40.759 19.8184H34.2048C33.9797 19.8184 33.7642 19.9085 33.6066 20.066C33.4458 20.2268 33.3558 20.4423 33.3558 20.6674V24.4205H29.8117C29.5673 24.4205 29.3389 24.5267 29.1781 24.71C29.0173 24.8901 28.9434 25.1345 28.9723 25.3757L29.548 29.7013C27.4543 30.2769 25.4283 31.0777 23.5051 32.0939C22.2605 27.7137 23.1449 23.0022 25.8882 19.3682C28.6346 15.7372 32.9248 13.6018 37.4786 13.6018C42.0324 13.6018 46.3225 15.7373 49.069 19.3682C51.8155 23.0023 52.6967 27.714 51.4521 32.0939L51.4556 32.0972ZM22.0003 32.9527C20.5917 33.805 19.257 34.7729 18.0092 35.8439C17.7004 35.0624 17.4367 34.2616 17.2245 33.4512C17.128 33.0781 16.7903 32.8176 16.4044 32.8144H11.5546V23.4304H16.4044C16.816 23.4304 17.1698 23.1345 17.2405 22.7293C17.4785 21.8385 17.7744 20.9605 18.1281 20.1083C18.4915 19.2335 18.9128 18.3812 19.3921 17.5644C19.5882 17.2332 19.5336 16.8119 19.2602 16.5385L15.8319 13.107L22.4665 6.47232L25.8949 9.90063H25.8981C26.1907 10.1933 26.6474 10.2319 26.9851 9.99711C28.606 9.05805 30.3458 8.34087 32.1564 7.86163C32.5295 7.76515 32.79 7.43068 32.79 7.04476V2.19501H42.174V7.04476C42.174 7.45641 42.4698 7.80695 42.875 7.8809C44.6856 8.36331 46.4223 9.08688 48.0399 10.0324C48.3712 10.2254 48.7925 10.1739 49.0659 9.90058L52.4974 6.47227L59.1353 13.1069L55.707 16.5352H55.7037C55.4143 16.8279 55.3725 17.2878 55.6105 17.6255C56.5495 19.2464 57.2667 20.983 57.7427 22.7936C57.8391 23.1666 58.1768 23.4271 58.5627 23.4271H63.4125V32.8111H58.5595C58.1479 32.8111 57.7941 33.107 57.7234 33.5122C57.5111 34.3034 57.2571 35.0816 56.9548 35.8406C55.707 34.7729 54.3723 33.8048 52.9636 32.9526C54.5009 28.0289 53.6036 22.6679 50.5484 18.5127C47.49 14.3576 42.6402 11.9038 37.4818 11.9038C32.3234 11.9038 27.4737 14.3577 24.4151 18.5127C21.3599 22.6678 20.463 28.0293 22.0003 32.9527Z" fill="#155DFC"/>
<path fill-rule="evenodd" clip-rule="evenodd" d="M5.96853 68.8026H68.9964C71.0933 68.7737 72.7785 67.0628 72.7785 64.9659C72.7785 62.869 71.0933 61.1581 68.9964 61.1291H5.96853C3.87166 61.1581 2.18644 62.869 2.18644 64.9659C2.18644 67.0628 3.87166 68.7737 5.96853 68.8026ZM30.838 39.321L29.7767 31.3967H29.7799C28.0272 31.8952 26.3291 32.5577 24.7082 33.3843C27.0591 34.7639 28.9373 36.8222 30.0983 39.2857L30.838 39.321ZM45.1849 31.3967L44.1236 39.321L44.8632 39.2856H44.8665C46.0307 36.8221 47.9088 34.7639 50.2598 33.3842C48.6356 32.5577 46.9376 31.8952 45.188 31.3967L45.1849 31.3967ZM55.1156 54.9218L59.2256 48.1167L55.3085 48.4576L51.8899 54.6484L55.1124 54.9185L55.1156 54.9218ZM61.5218 47.5957L56.2958 56.2469C56.1285 56.5235 55.8198 56.6811 55.4982 56.6554L50.449 56.2309C50.1564 56.2051 49.8927 56.0315 49.7608 55.7645C49.6289 55.5008 49.6418 55.1857 49.7994 54.9348L54.0445 47.242C54.1828 46.9944 54.4336 46.8304 54.7167 46.8079L60.7435 46.2805C61.0683 46.2515 61.3802 46.4123 61.5475 46.6921C61.7115 46.9751 61.7019 47.3255 61.5218 47.5957ZM18.6681 56.2469L13.4421 47.5957C13.2587 47.3223 13.2491 46.9718 13.4163 46.6919C13.5836 46.4089 13.8955 46.2481 14.2203 46.2771L20.2471 46.8045C20.5302 46.827 20.781 46.991 20.9161 47.2419L25.1612 54.9347H25.1644C25.3188 55.1855 25.3349 55.4974 25.203 55.7644C25.0679 56.0281 24.8074 56.2017 24.5116 56.2275L19.4624 56.652C19.144 56.6777 18.8353 56.5201 18.6681 56.2436L18.6681 56.2469ZM15.7351 48.1136L19.8452 54.9187L23.0677 54.6486L19.6491 48.4545L15.732 48.1136L15.7351 48.1136ZM39.9097 21.5168H35.0536V29.0134H39.9097V21.5168ZM41.6078 26.1157H44.187L39.7264 59.4306H35.2336C33.751 48.326 32.2652 37.2204 30.7762 26.1157H33.3554V29.8592C33.3554 30.3287 33.7349 30.7082 34.2044 30.7082H40.7586C41.2282 30.7082 41.6076 30.3287 41.6076 29.8592L41.6078 26.1157ZM52.0341 34.3677C56.3307 36.9566 59.8619 40.6422 62.2644 45.0451C64.6668 49.4511 65.8568 54.4167 65.7056 59.4306H41.4347L43.8981 41.0257L45.4611 40.9518C45.7795 40.9357 46.0657 40.7395 46.1911 40.4436C47.3232 37.7679 49.4039 35.6035 52.0315 34.3686L52.0341 34.3677ZM16.6807 37.0531C16.3237 36.2233 16.0182 35.3743 15.7641 34.5092H10.7085C10.239 34.5092 9.85954 34.1297 9.85954 33.6602V22.5843C9.85954 22.1148 10.239 21.7354 10.7085 21.7354H15.7641C16.2143 20.1884 16.835 18.6962 17.6101 17.2844L14.0338 13.7082C13.7026 13.3769 13.7026 12.8398 14.0338 12.5086L21.8681 4.67439C22.0256 4.5168 22.2411 4.42676 22.4662 4.42676C22.6914 4.42676 22.9068 4.51681 23.0676 4.67439L26.6439 8.24736C28.0557 7.47551 29.5479 6.85482 31.0948 6.40135V1.34899C31.0948 0.879452 31.4743 0.5 31.9438 0.5H43.0197C43.4892 0.5 43.8687 0.879493 43.8687 1.34899V6.40456C45.4156 6.85481 46.9078 7.47551 48.3196 8.24736L51.8959 4.6711V4.67431C52.0567 4.51351 52.2722 4.42346 52.4973 4.42346C52.7224 4.42346 52.9379 4.51351 53.0955 4.67431L60.9297 12.5085V12.5053C61.2609 12.8366 61.2609 13.3736 60.9297 13.7049L57.3534 17.2811C58.1285 18.6929 58.7459 20.1852 59.1994 21.7321H64.255C64.7245 21.7321 65.104 22.1116 65.104 22.581V33.6602C65.104 33.8853 65.0139 34.104 64.8564 34.2616C64.6956 34.4224 64.4801 34.5125 64.255 34.5125H59.1994C58.9453 35.3776 58.6398 36.2266 58.2828 37.0563C64.3418 42.8934 67.6512 51.0203 67.3968 59.4304H68.9951C72.0246 59.4658 74.4623 61.9357 74.4623 64.9652C74.4623 67.9947 72.0246 70.4614 68.9951 70.5H5.96722C2.93772 70.4614 0.5 67.9947 0.5 64.9652C0.5 61.9357 2.93772 59.4658 5.96722 59.4304H7.56558C7.3083 51.0203 10.6208 42.8935 16.6795 37.053L16.6807 37.0531ZM15.2303 41.1856C17.3592 38.4616 19.9707 36.1525 22.9295 34.3677C25.5602 35.6026 27.6378 37.767 28.7698 40.4427C28.8984 40.7386 29.1815 40.9348 29.503 40.9509L31.066 41.0281L33.5295 59.4305H9.25854C9.05272 52.8377 11.1652 46.379 15.2303 41.1856ZM51.4556 32.0972C49.5324 31.0809 47.5063 30.2802 45.4094 29.7045L45.9786 25.4529C46.0365 25.1988 45.9754 24.9383 45.8146 24.7357C45.6506 24.5363 45.4094 24.4205 45.1521 24.4205H41.608V20.6674C41.608 20.4423 41.518 20.2268 41.3572 20.066C41.1996 19.9085 40.9841 19.8184 40.759 19.8184H34.2048C33.9797 19.8184 33.7642 19.9085 33.6066 20.066C33.4458 20.2268 33.3558 20.4423 33.3558 20.6674V24.4205H29.8117C29.5673 24.4205 29.3389 24.5267 29.1781 24.71C29.0173 24.8901 28.9434 25.1345 28.9723 25.3757L29.548 29.7013C27.4543 30.2769 25.4283 31.0777 23.5051 32.0939C22.2605 27.7137 23.1449 23.0022 25.8882 19.3682C28.6346 15.7372 32.9248 13.6018 37.4786 13.6018C42.0324 13.6018 46.3225 15.7373 49.069 19.3682C51.8155 23.0023 52.6967 27.714 51.4521 32.0939L51.4556 32.0972ZM22.0003 32.9527C20.5917 33.805 19.257 34.7729 18.0092 35.8439C17.7004 35.0624 17.4367 34.2616 17.2245 33.4512C17.128 33.0781 16.7903 32.8176 16.4044 32.8144H11.5546V23.4304H16.4044C16.816 23.4304 17.1698 23.1345 17.2405 22.7293C17.4785 21.8385 17.7744 20.9605 18.1281 20.1083C18.4915 19.2335 18.9128 18.3812 19.3921 17.5644C19.5882 17.2332 19.5336 16.8119 19.2602 16.5385L15.8319 13.107L22.4665 6.47232L25.8949 9.90063H25.8981C26.1907 10.1933 26.6474 10.2319 26.9851 9.99711C28.606 9.05805 30.3458 8.34087 32.1564 7.86163C32.5295 7.76515 32.79 7.43068 32.79 7.04476V2.19501H42.174V7.04476C42.174 7.45641 42.4698 7.80695 42.875 7.8809C44.6856 8.36331 46.4223 9.08688 48.0399 10.0324C48.3712 10.2254 48.7925 10.1739 49.0659 9.90058L52.4974 6.47227L59.1353 13.1069L55.707 16.5352H55.7037C55.4143 16.8279 55.3725 17.2878 55.6105 17.6255C56.5495 19.2464 57.2667 20.983 57.7427 22.7936C57.8391 23.1666 58.1768 23.4271 58.5627 23.4271H63.4125V32.8111H58.5595C58.1479 32.8111 57.7941 33.107 57.7234 33.5122C57.5111 34.3034 57.2571 35.0816 56.9548 35.8406C55.707 34.7729 54.3723 33.8048 52.9636 32.9526C54.5009 28.0289 53.6036 22.6679 50.5484 18.5127C47.49 14.3576 42.6402 11.9038 37.4818 11.9038C32.3234 11.9038 27.4737 14.3577 24.4151 18.5127C21.3599 22.6678 20.463 28.0293 22.0003 32.9527Z" stroke="#155DFC" mask="url(#path-1-outside-1_3_1265)"/>
</svg>
