<svg width="18" height="18" viewBox="0 0 18 18" fill="none" xmlns="http://www.w3.org/2000/svg">
<path d="M17.3006 3.21059C17.2384 3.2728 17.1646 3.32214 17.0833 3.35581C17.002 3.38947 16.9149 3.4068 16.8269 3.4068C16.739 3.4068 16.6519 3.38947 16.5706 3.35581C16.4893 3.32214 16.4155 3.2728 16.3533 3.21059L16.1113 2.9686L14.4503 4.62961L12.8672 3.04652L14.5282 1.3855L14.2861 1.14351C14.1605 1.01788 14.09 0.847495 14.09 0.669839C14.09 0.492183 14.1605 0.321802 14.2861 0.196168C14.4118 0.0705627 14.5822 0 14.7598 0C14.9375 0 15.1078 0.0705627 15.2335 0.196168L17.3006 2.26326C17.4262 2.3889 17.4968 2.55928 17.4968 2.73693C17.4968 2.91458 17.4262 3.08496 17.3006 3.21059ZM15.5008 7.01994C15.5228 7.04193 15.5402 7.06804 15.5522 7.09678C15.5641 7.12552 15.5702 7.15632 15.5702 7.18742C15.5702 7.21853 15.5641 7.24933 15.5522 7.27807C15.5402 7.30681 15.5228 7.33292 15.5008 7.35491L14.496 8.35971C14.474 8.3817 14.4479 8.39915 14.4192 8.41106C14.3904 8.42296 14.3596 8.42909 14.3285 8.42909C14.2974 8.42909 14.2666 8.42296 14.2379 8.41106C14.2092 8.39915 14.1831 8.3817 14.1611 8.35971L13.5114 7.70997L6.39919 14.8222C6.07102 15.1491 5.63417 15.3439 5.17171 15.3697C4.70925 15.3955 4.25344 15.2504 3.89097 14.9621L3.66096 15.192C3.58553 15.2662 3.48714 15.3126 3.38192 15.3235C3.27669 15.3344 3.17088 15.3093 3.0818 15.2522L1.01059 17.3234C0.899574 17.4344 0.748998 17.4968 0.591992 17.4968C0.434986 17.4968 0.28441 17.4344 0.17339 17.3234C0.0623702 17.2124 -1.61005e-07 17.0618 0 16.9048C1.61006e-07 16.7478 0.0623708 16.5972 0.173391 16.4862L2.24455 14.415C2.18747 14.3259 2.16234 14.2201 2.17328 14.1149C2.18422 14.0096 2.23058 13.9112 2.30476 13.8358L2.53472 13.6058C2.24635 13.2433 2.10127 12.7875 2.12706 12.3251C2.15285 11.8626 2.34771 11.4257 2.6746 11.0976L9.7868 3.98538L9.13708 3.33569C9.11509 3.3137 9.09764 3.28759 9.08573 3.25886C9.07383 3.23013 9.0677 3.19933 9.0677 3.16822C9.0677 3.13712 9.07383 3.10632 9.08573 3.07759C9.09764 3.04885 9.11509 3.02275 9.13708 3.00076L10.1419 1.99596C10.1639 1.97397 10.19 1.95652 10.2187 1.94462C10.2474 1.93271 10.2782 1.92659 10.3093 1.92659C10.3404 1.92659 10.3712 1.93271 10.4 1.94462C10.4287 1.95652 10.4548 1.97397 10.4768 1.99596L15.5008 7.01994ZM5.62957 10.6451C5.5746 10.5901 5.50934 10.5465 5.43752 10.5167C5.36569 10.487 5.2887 10.4716 5.21095 10.4716C5.1332 10.4716 5.05621 10.487 4.98438 10.5167C4.91255 10.5465 4.84729 10.5901 4.79233 10.6451L3.51147 11.9259C3.45649 11.9809 3.41289 12.0462 3.38313 12.118C3.35338 12.1898 3.33807 12.2668 3.33807 12.3446C3.33807 12.4223 3.35338 12.4993 3.38313 12.5711C3.41289 12.643 3.45649 12.7082 3.51147 12.7632C3.56644 12.8182 3.63171 12.8618 3.70354 12.8915C3.77537 12.9213 3.85235 12.9366 3.9301 12.9366C4.00784 12.9366 4.08483 12.9213 4.15666 12.8915C4.22849 12.8618 4.29375 12.8182 4.34873 12.7632L5.62957 11.4824C5.68456 11.4274 5.72819 11.3621 5.75795 11.2903C5.78772 11.2185 5.80304 11.1415 5.80304 11.0637C5.80304 10.986 5.78772 10.909 5.75795 10.8372C5.72819 10.7653 5.68456 10.7001 5.62957 10.6451ZM7.51894 8.7562C7.40787 8.64521 7.25727 8.58284 7.10024 8.58279C6.94321 8.58275 6.79259 8.64503 6.68145 8.75597L6.24316 9.19401C6.13224 9.30508 6.06996 9.45563 6.06999 9.61259C6.07003 9.76955 6.13237 9.92008 6.24333 10.0311C6.35428 10.1421 6.50478 10.2045 6.66174 10.2047C6.8187 10.2048 6.96928 10.1426 7.08041 10.0317L7.5187 9.5937C7.62975 9.48265 7.69216 9.33205 7.6922 9.175C7.69225 9.01795 7.62993 8.86731 7.51894 8.7562ZM12.3237 7.22299L10.2738 5.17309L8.04281 7.40403L11.0052 8.54149L12.3237 7.22299Z" fill="white"/>
</svg>
