<svg width="18" height="18" viewBox="0 0 18 18" fill="none" xmlns="http://www.w3.org/2000/svg">
<path d="M6.13491 1.88339C5.74046 2.27784 5.40486 2.71892 5.12891 3.17836C5.55852 3.10803 5.99426 3.06675 6.44145 3.06675C7.90076 3.06675 9.26614 3.47879 10.4311 4.19659L13.8206 0.807114C11.3728 -0.552823 8.21869 -0.194363 6.13491 1.88339Z" fill="#242D34"/>
<path d="M15.2382 10.9874C17.3214 8.91043 17.6805 5.7556 16.3153 3.30176L12.9258 6.69123C13.6436 7.85623 14.0556 9.22159 14.0556 10.6809C14.0556 11.1281 14.0143 11.5638 13.9379 11.9873C14.4019 11.7167 14.8376 11.3872 15.2382 10.9874Z" fill="#242D34"/>
<path d="M12.2224 5.73112L15.6356 2.31797C15.5117 2.16508 15.3825 2.02366 15.2411 1.88299C15.1005 1.74157 14.9529 1.61162 14.8061 1.48242L11.3867 4.90183C11.6872 5.15487 11.9631 5.43159 12.2222 5.73126L12.2224 5.73112Z" fill="#242D34"/>
<path d="M12.6286 8.91543C11.8581 6.22009 9.37438 4.24316 6.43736 4.24316C3.50112 4.24316 1.01753 6.22068 0.246094 8.91543H12.6286Z" fill="#242D34"/>
<path d="M12.6317 12.4463H0.25C1.02056 15.1416 3.50424 17.1186 6.44126 17.1186C9.3775 17.1186 11.8611 15.1416 12.6317 12.4463Z" fill="#242D34"/>
<path d="M0 10.6804C0 10.8807 0.0114666 11.0749 0.0290492 11.269H12.8464C12.864 11.0749 12.8755 10.8807 12.8755 10.6804C12.8755 10.4801 12.864 10.286 12.8464 10.0918L0.0290492 10.0926C0.011467 10.2867 0 10.4809 0 10.6804Z" fill="#242D34"/>
</svg>
