<svg width="23" height="23" viewBox="0 0 23 23" fill="none" xmlns="http://www.w3.org/2000/svg">
<path d="M11.4995 0C5.15618 0 0 5.15644 0 11.4995C0 17.8428 5.15644 23 11.4995 23C17.8428 23 23 17.8418 23 11.4995C23 5.15618 17.8418 0 11.4995 0ZM11.4995 1.35259C17.1117 1.35259 21.6466 5.88745 21.6466 11.4997C21.6466 17.1119 17.1117 21.6467 11.4995 21.6467C5.88727 21.6467 1.35241 17.1119 1.35241 11.4997C1.35241 5.88745 5.88727 1.35259 11.4995 1.35259ZM6.69162 6.0129C6.51288 6.01189 6.34017 6.08118 6.21264 6.2077C6.08511 6.33423 6.01281 6.50695 6.01281 6.68669C6.01281 6.86744 6.08511 7.03915 6.21264 7.16668L10.5465 11.5005L6.21264 15.8354V15.8344C5.95056 16.0985 5.95056 16.5242 6.21264 16.7883C6.47672 17.0514 6.90249 17.0514 7.16657 16.7883L11.5014 12.4545L15.8353 16.7883H15.8343C15.9618 16.9158 16.1345 16.9881 16.3143 16.9881C16.494 16.9881 16.6667 16.9158 16.7932 16.7883C17.0563 16.5242 17.0563 16.0985 16.7932 15.8344L12.4584 11.4995L16.7932 7.16568V7.16668C16.9218 7.03915 16.9931 6.86743 16.9931 6.68669C16.9931 6.50695 16.9218 6.33423 16.7932 6.2077C16.6657 6.08118 16.493 6.01189 16.3143 6.0129C16.1345 6.01189 15.9618 6.08118 15.8343 6.2077L11.5004 10.5426L7.16557 6.2077H7.16657C7.04005 6.08319 6.86938 6.0129 6.69162 6.0129Z" fill="#E93248"/>
</svg>
