<svg width="15" height="20" viewBox="0 0 15 20" fill="none" xmlns="http://www.w3.org/2000/svg">
<path d="M7.49998 0C3.36479 0 0 3.29001 0 7.3333C0 11.06 6.00675 18.7483 6.69205 19.6125C6.88552 19.8567 7.18381 20 7.5 20C7.81619 20 8.11449 19.8567 8.30795 19.6125C8.99317 18.7483 15 11.06 15 7.3333C15 3.29001 11.6352 0 7.49998 0ZM7.49998 10.9998C5.43236 10.9998 3.74988 9.35486 3.74988 7.33309C3.74988 5.31132 5.43225 3.66633 7.49998 3.66633C9.5677 3.66633 11.2501 5.31132 11.2501 7.33309C11.2501 9.35486 9.5677 10.9998 7.49998 10.9998Z" fill="#2D5390"/>
</svg>
