<svg width="16" height="16" viewBox="0 0 16 16" fill="none" xmlns="http://www.w3.org/2000/svg">
<path fill-rule="evenodd" clip-rule="evenodd" d="M5.04445 1.2057C4.5593 0.244791 3.63676 -0.149575 1.11161 0.0507428C0.563861 0.148554 0.232095 0.535893 0.114709 1.21197C-0.131782 3.03047 0.00828986 4.91164 0.638981 6.64098C1.92853 10.1756 5.82461 14.0716 9.35902 15.361C11.0883 15.9917 12.9687 16.1318 14.788 15.8853C15.4641 15.7679 15.8514 15.4361 15.9493 14.8884C16.1496 12.3634 15.7552 11.4407 14.7943 10.9555C14.2724 10.6919 12.1409 10.04 11.6948 10.1957C10.3403 10.6692 10.1572 13.7796 6.25255 9.74737C2.22115 5.84278 5.33155 5.65968 5.80418 4.30513C5.95989 3.85911 5.30815 1.72772 5.04445 1.2057Z" fill="#2D5390"/>
</svg>
