<svg width="14" height="13" viewBox="0 0 14 13" fill="none" xmlns="http://www.w3.org/2000/svg">
<path d="M1 12C1 12.2761 1.22386 12.5 1.5 12.5C1.77614 12.5 2 12.2761 2 12H1.5H1ZM12 12C12 12.2761 12.2239 12.5 12.5 12.5C12.7761 12.5 13 12.2761 13 12H12.5H12ZM0.5 5.5V5C0.223858 5 0 5.22386 0 5.5H0.5ZM13.5 5.5H14C14 5.22386 13.7761 5 13.5 5V5.5ZM13.5 10V10.5C13.7761 10.5 14 10.2761 14 10H13.5ZM0.5 10H0C0 10.2761 0.223858 10.5 0.5 10.5L0.5 10ZM12.5 5.5V6C12.7761 6 13 5.77614 13 5.5H12.5ZM10.5 0.5V0V0.5ZM3.5 0.5V0V0.5ZM1.5 2.5H1H1.5ZM1.5 5.5H1C1 5.77614 1.22386 6 1.5 6V5.5ZM10.5 5.5V6C10.7761 6 11 5.77614 11 5.5H10.5ZM8.5 5.5H8C8 5.77614 8.22386 6 8.5 6V5.5ZM5.5 5.5V6C5.77614 6 6 5.77614 6 5.5H5.5ZM3.5 5.5H3C3 5.77614 3.22386 6 3.5 6V5.5ZM1.5 10H1V12H1.5H2V10H1.5ZM12.5 10H12V12H12.5H13V10H12.5ZM0.5 5.5V6H13.5V5.5V5H0.5V5.5ZM13.5 5.5H13V10H13.5H14V5.5H13.5ZM13.5 10V9.5H0.5V10V10.5H13.5V10ZM0.5 10H1V5.5H0.5H0V10H0.5ZM12.5 5.5H13V2.5H12.5H12V5.5H12.5ZM12.5 2.5H13C13 1.83696 12.7366 1.20107 12.2678 0.732233L11.9142 1.08579L11.5607 1.43934C11.842 1.72064 12 2.10218 12 2.5H12.5ZM11.9142 1.08579L12.2678 0.732233C11.7989 0.263392 11.163 0 10.5 0V0.5V1C10.8978 1 11.2794 1.15804 11.5607 1.43934L11.9142 1.08579ZM10.5 0.5V0H3.5V0.5V1H10.5V0.5ZM3.5 0.5V0C2.83696 0 2.20107 0.263392 1.73223 0.732233L2.08579 1.08579L2.43934 1.43934C2.72064 1.15804 3.10218 1 3.5 1V0.5ZM2.08579 1.08579L1.73223 0.732233C1.26339 1.20107 1 1.83696 1 2.5H1.5H2C2 2.10218 2.15804 1.72064 2.43934 1.43934L2.08579 1.08579ZM1.5 2.5H1V5.5H1.5H2V2.5H1.5ZM1.5 5.5V6H12.5V5.5V5H1.5V5.5ZM10.5 5.5H11V4.5H10.5H10V5.5H10.5ZM10.5 4.5H11C11 4.10217 10.842 3.72064 10.5607 3.43934L10.2071 3.79289L9.85355 4.14645C9.94732 4.24022 10 4.36739 10 4.5H10.5ZM10.2071 3.79289L10.5607 3.43934C10.2794 3.15804 9.89783 3 9.5 3V3.5V4C9.63261 4 9.75978 4.05268 9.85355 4.14645L10.2071 3.79289ZM9.5 3.5V3C9.10217 3 8.72064 3.15804 8.43934 3.43934L8.79289 3.79289L9.14645 4.14645C9.24022 4.05268 9.36739 4 9.5 4V3.5ZM8.79289 3.79289L8.43934 3.43934C8.15804 3.72064 8 4.10217 8 4.5H8.5H9C9 4.36739 9.05268 4.24022 9.14645 4.14645L8.79289 3.79289ZM8.5 4.5H8V5.5H8.5H9V4.5H8.5ZM8.5 5.5V6H10.5V5.5V5H8.5V5.5ZM5.5 5.5H6V4.5H5.5H5V5.5H5.5ZM5.5 4.5H6C6 4.10217 5.84196 3.72064 5.56066 3.43934L5.20711 3.79289L4.85355 4.14645C4.94732 4.24022 5 4.36739 5 4.5H5.5ZM5.20711 3.79289L5.56066 3.43934C5.27936 3.15804 4.89783 3 4.5 3V3.5V4C4.63261 4 4.75978 4.05268 4.85355 4.14645L5.20711 3.79289ZM4.5 3.5V3C4.10217 3 3.72064 3.15804 3.43934 3.43934L3.79289 3.79289L4.14645 4.14645C4.24022 4.05268 4.36739 4 4.5 4V3.5ZM3.79289 3.79289L3.43934 3.43934C3.15804 3.72064 3 4.10217 3 4.5H3.5H4C4 4.36739 4.05268 4.24022 4.14645 4.14645L3.79289 3.79289ZM3.5 4.5H3V5.5H3.5H4V4.5H3.5ZM3.5 5.5V6H5.5V5.5V5H3.5V5.5Z" fill="#687D92"/>
</svg>
