<svg width="17" height="17" viewBox="0 0 17 17" fill="none" xmlns="http://www.w3.org/2000/svg">
<path d="M5.83333 0V1.66667H10.8333V0H12.5V1.66667H15.8333C16.2936 1.66667 16.6667 2.03977 16.6667 2.5V15.8333C16.6667 16.2936 16.2936 16.6667 15.8333 16.6667H0.833333C0.3731 16.6667 0 16.2936 0 15.8333V2.5C0 2.03977 0.3731 1.66667 0.833333 1.66667H4.16667V0H5.83333ZM15 8.33333H1.66667V15H15V8.33333ZM4.16667 3.33333H1.66667V6.66667H15V3.33333H12.5V5H10.8333V3.33333H5.83333V5H4.16667V3.33333Z" fill="#292B2E"/>
</svg>
