<svg width="10" height="9" viewBox="0 0 10 9" fill="none" xmlns="http://www.w3.org/2000/svg">
<path d="M3.91422 1L2.91422 2H1V8H9V2H7.0858L6.0858 1H3.91422ZM3.5 0H6.5L7.5 1H9.5C9.77615 1 10 1.22386 10 1.5V8.5C10 8.77615 9.77615 9 9.5 9H0.5C0.22386 9 0 8.77615 0 8.5V1.5C0 1.22386 0.22386 1 0.5 1H2.5L3.5 0ZM5 7.5C3.48122 7.5 2.25 6.2688 2.25 4.75C2.25 3.23122 3.48122 2 5 2C6.5188 2 7.75 3.23122 7.75 4.75C7.75 6.2688 6.5188 7.5 5 7.5ZM5 6.5C5.9665 6.5 6.75 5.7165 6.75 4.75C6.75 3.7835 5.9665 3 5 3C4.0335 3 3.25 3.7835 3.25 4.75C3.25 5.7165 4.0335 6.5 5 6.5Z" fill="white"/>
</svg>
