<svg width="12" height="12" viewBox="0 0 12 12" fill="none" xmlns="http://www.w3.org/2000/svg">
<path d="M4.91422 2.5L3.91422 3.5H2V9.5H10V3.5H8.0858L7.0858 2.5H4.91422ZM4.5 1.5H7.5L8.5 2.5H10.5C10.7761 2.5 11 2.72386 11 3V10C11 10.2761 10.7761 10.5 10.5 10.5H1.5C1.22386 10.5 1 10.2761 1 10V3C1 2.72386 1.22386 2.5 1.5 2.5H3.5L4.5 1.5ZM6 9C4.48122 9 3.25 7.7688 3.25 6.25C3.25 4.73122 4.48122 3.5 6 3.5C7.5188 3.5 8.75 4.73122 8.75 6.25C8.75 7.7688 7.5188 9 6 9ZM6 8C6.9665 8 7.75 7.2165 7.75 6.25C7.75 5.2835 6.9665 4.5 6 4.5C5.0335 4.5 4.25 5.2835 4.25 6.25C4.25 7.2165 5.0335 8 6 8Z" fill="white"/>
</svg>
