<svg width="20" height="20" viewBox="0 0 20 20" fill="none" xmlns="http://www.w3.org/2000/svg">
<path d="M16.25 2.5H3.75C3.08718 2.50072 2.45172 2.76435 1.98303 3.23303C1.51435 3.70172 1.25072 4.33718 1.25 5V15C1.25072 15.6628 1.51435 16.2983 1.98303 16.767C2.45172 17.2357 3.08718 17.4993 3.75 17.5H16.25C16.9128 17.4993 17.5483 17.2357 18.017 16.767C18.4857 16.2983 18.7493 15.6628 18.75 15V5C18.7493 4.33718 18.4857 3.70172 18.017 3.23303C17.5483 2.76435 16.9128 2.50072 16.25 2.5ZM13.125 5C13.4958 5 13.8584 5.10997 14.1667 5.31599C14.475 5.52202 14.7154 5.81486 14.8573 6.15747C14.9992 6.50008 15.0363 6.87708 14.964 7.24079C14.8916 7.60451 14.7131 7.9386 14.4508 8.20083C14.1886 8.46305 13.8545 8.64162 13.4908 8.71397C13.1271 8.78632 12.7501 8.74919 12.4075 8.60727C12.0649 8.46536 11.772 8.22504 11.566 7.91669C11.36 7.60835 11.25 7.24584 11.25 6.875C11.2505 6.37788 11.4482 5.90126 11.7997 5.54975C12.1513 5.19823 12.6279 5.00052 13.125 5ZM3.75 16.25C3.41848 16.25 3.10054 16.1183 2.86612 15.8839C2.6317 15.6495 2.5 15.3315 2.5 15V12.3582L6.20469 9.06523C6.56213 8.74822 7.02698 8.57942 7.50455 8.59321C7.98211 8.607 8.43645 8.80235 8.775 9.13945L11.3121 11.6711L6.7332 16.25H3.75ZM17.5 15C17.5 15.3315 17.3683 15.6495 17.1339 15.8839C16.8995 16.1183 16.5815 16.25 16.25 16.25H8.50117L13.2441 11.507C13.5799 11.2215 14.0061 11.0641 14.4469 11.063C14.8877 11.0618 15.3147 11.217 15.652 11.5008L17.5 13.0406V15Z" fill="black"/>
</svg>
