<svg width="24" height="24" viewBox="0 0 24 24" fill="none" xmlns="http://www.w3.org/2000/svg">
<g clip-path="url(#clip0_1018_2113)">
<path d="M5.4 13.3H15.3V11.1H5.4V13.3ZM5.4 10H15.3V7.80002H5.4V10ZM3.2 21C2.595 21 2.07708 20.7846 1.64625 20.3538C1.21542 19.9229 1 19.405 1 18.8V5.60002C1 4.99502 1.21542 4.47711 1.64625 4.04627C2.07708 3.61544 2.595 3.40002 3.2 3.40002H20.8C21.405 3.40002 21.9229 3.61544 22.3538 4.04627C22.7846 4.47711 23 4.99502 23 5.60002V18.8C23 19.405 22.7846 19.9229 22.3538 20.3538C21.9229 20.7846 21.405 21 20.8 21H3.2ZM3.2 18.8H20.8V5.60002H3.2V18.8ZM3.2 18.8V5.60002V18.8Z" fill="white"/>
</g>
<defs>
<clipPath id="clip0_1018_2113">
<rect width="24" height="24" fill="white"/>
</clipPath>
</defs>
</svg>
