<svg width="17" height="17" viewBox="0 0 17 17" fill="none" xmlns="http://www.w3.org/2000/svg">
<path d="M5 11.6667C5.45833 11.6667 5.85069 11.5035 6.17708 11.1771C6.50347 10.8507 6.66667 10.4583 6.66667 10C6.66667 9.54167 6.50347 9.14931 6.17708 8.82292C5.85069 8.49653 5.45833 8.33333 5 8.33333C4.54167 8.33333 4.14931 8.49653 3.82292 8.82292C3.49653 9.14931 3.33333 9.54167 3.33333 10C3.33333 10.4583 3.49653 10.8507 3.82292 11.1771C4.14931 11.5035 4.54167 11.6667 5 11.6667ZM11.6667 11.6667C12.125 11.6667 12.5174 11.5035 12.8438 11.1771C13.1701 10.8507 13.3333 10.4583 13.3333 10C13.3333 9.54167 13.1701 9.14931 12.8438 8.82292C12.5174 8.49653 12.125 8.33333 11.6667 8.33333C11.2083 8.33333 10.816 8.49653 10.4896 8.82292C10.1632 9.14931 10 9.54167 10 10C10 10.4583 10.1632 10.8507 10.4896 11.1771C10.816 11.5035 11.2083 11.6667 11.6667 11.6667ZM8.33333 6.66667C8.79167 6.66667 9.18403 6.50347 9.51042 6.17708C9.83681 5.85069 10 5.45833 10 5C10 4.54167 9.83681 4.14931 9.51042 3.82292C9.18403 3.49653 8.79167 3.33333 8.33333 3.33333C7.875 3.33333 7.48264 3.49653 7.15625 3.82292C6.82986 4.14931 6.66667 4.54167 6.66667 5C6.66667 5.45833 6.82986 5.85069 7.15625 6.17708C7.48264 6.50347 7.875 6.66667 8.33333 6.66667ZM8.33333 16.6667C7.18056 16.6667 6.09722 16.4479 5.08333 16.0104C4.06944 15.5729 3.1875 14.9792 2.4375 14.2292C1.6875 13.4792 1.09375 12.5972 0.65625 11.5833C0.21875 10.5694 0 9.48611 0 8.33333C0 7.18056 0.21875 6.09722 0.65625 5.08333C1.09375 4.06944 1.6875 3.1875 2.4375 2.4375C3.1875 1.6875 4.06944 1.09375 5.08333 0.65625C6.09722 0.21875 7.18056 0 8.33333 0C9.48611 0 10.5694 0.21875 11.5833 0.65625C12.5972 1.09375 13.4792 1.6875 14.2292 2.4375C14.9792 3.1875 15.5729 4.06944 16.0104 5.08333C16.4479 6.09722 16.6667 7.18056 16.6667 8.33333C16.6667 9.48611 16.4479 10.5694 16.0104 11.5833C15.5729 12.5972 14.9792 13.4792 14.2292 14.2292C13.4792 14.9792 12.5972 15.5729 11.5833 16.0104C10.5694 16.4479 9.48611 16.6667 8.33333 16.6667ZM8.33333 15C10.1944 15 11.7708 14.3542 13.0625 13.0625C14.3542 11.7708 15 10.1944 15 8.33333C15 6.47222 14.3542 4.89583 13.0625 3.60417C11.7708 2.3125 10.1944 1.66667 8.33333 1.66667C6.47222 1.66667 4.89583 2.3125 3.60417 3.60417C2.3125 4.89583 1.66667 6.47222 1.66667 8.33333C1.66667 10.1944 2.3125 11.7708 3.60417 13.0625C4.89583 14.3542 6.47222 15 8.33333 15Z" fill="#1E3A8A"/>
</svg>
