<svg width="24" height="24" viewBox="0 0 24 24" fill="none" xmlns="http://www.w3.org/2000/svg">
<path d="M8.3 22.2L7.9 19C7.68333 18.9166 7.47917 18.8166 7.2875 18.7C7.09583 18.5833 6.90833 18.4583 6.725 18.325L3.75 19.575L1 14.825L3.575 12.875C3.55833 12.7583 3.55 12.6458 3.55 12.5375C3.55 12.4291 3.55 12.3166 3.55 12.2C3.55 12.0833 3.55 11.9708 3.55 11.8625C3.55 11.7541 3.55833 11.6416 3.575 11.525L1 9.57495L3.75 4.82495L6.725 6.07495C6.90833 5.94162 7.1 5.81662 7.3 5.69995C7.5 5.58328 7.7 5.48328 7.9 5.39995L8.3 2.19995H13.8L14.2 5.39995C14.4167 5.48328 14.6208 5.58328 14.8125 5.69995C15.0042 5.81662 15.1917 5.94162 15.375 6.07495L18.35 4.82495L21.1 9.57495L18.525 11.525C18.5417 11.6416 18.55 11.7541 18.55 11.8625C18.55 11.9708 18.55 12.0833 18.55 12.2C18.55 12.3166 18.55 12.4291 18.55 12.5375C18.55 12.6458 18.5333 12.7583 18.5 12.875L21.075 14.825L18.325 19.575L15.375 18.325C15.1917 18.4583 15 18.5833 14.8 18.7C14.6 18.8166 14.4 18.9166 14.2 19L13.8 22.2H8.3ZM10.05 20.2H12.025L12.375 17.55C12.8917 17.4166 13.3708 17.2208 13.8125 16.9625C14.2542 16.7041 14.6583 16.3916 15.025 16.025L17.5 17.05L18.475 15.35L16.325 13.725C16.4083 13.4916 16.4667 13.2458 16.5 12.9875C16.5333 12.7291 16.55 12.4666 16.55 12.2C16.55 11.9333 16.5333 11.6708 16.5 11.4125C16.4667 11.1541 16.4083 10.9083 16.325 10.675L18.475 9.04995L17.5 7.34995L15.025 8.39995C14.6583 8.01662 14.2542 7.69578 13.8125 7.43745C13.3708 7.17912 12.8917 6.98328 12.375 6.84995L12.05 4.19995H10.075L9.725 6.84995C9.20833 6.98328 8.72917 7.17912 8.2875 7.43745C7.84583 7.69578 7.44167 8.00828 7.075 8.37495L4.6 7.34995L3.625 9.04995L5.775 10.65C5.69167 10.9 5.63333 11.15 5.6 11.4C5.56667 11.65 5.55 11.9166 5.55 12.2C5.55 12.4666 5.56667 12.725 5.6 12.975C5.63333 13.225 5.69167 13.475 5.775 13.725L3.625 15.35L4.6 17.05L7.075 16C7.44167 16.3833 7.84583 16.7041 8.2875 16.9625C8.72917 17.2208 9.20833 17.4166 9.725 17.55L10.05 20.2ZM11.1 15.7C12.0667 15.7 12.8917 15.3583 13.575 14.675C14.2583 13.9916 14.6 13.1666 14.6 12.2C14.6 11.2333 14.2583 10.4083 13.575 9.72495C12.8917 9.04162 12.0667 8.69995 11.1 8.69995C10.1167 8.69995 9.2875 9.04162 8.6125 9.72495C7.9375 10.4083 7.6 11.2333 7.6 12.2C7.6 13.1666 7.9375 13.9916 8.6125 14.675C9.2875 15.3583 10.1167 15.7 11.1 15.7Z" fill="white"/>
</svg>
