<svg width="17" height="17" viewBox="0 0 17 17" fill="none" xmlns="http://www.w3.org/2000/svg">
<path d="M12.5 3.33333H16.6667V5H15V15.8333C15 16.2936 14.6269 16.6667 14.1667 16.6667H2.5C2.03977 16.6667 1.66667 16.2936 1.66667 15.8333V5H0V3.33333H4.16667V0.833333C4.16667 0.3731 4.53977 0 5 0H11.6667C12.1269 0 12.5 0.3731 12.5 0.833333V3.33333ZM13.3333 5H3.33333V15H13.3333V5ZM5.83333 7.5H7.5V12.5H5.83333V7.5ZM9.16667 7.5H10.8333V12.5H9.16667V7.5ZM5.83333 1.66667V3.33333H10.8333V1.66667H5.83333Z" fill="#EF4444"/>
</svg>
