<svg width="19" height="15" viewBox="0 0 19 15" fill="none" xmlns="http://www.w3.org/2000/svg">
<path d="M9.01555 0C13.509 0 17.2473 3.23313 18.031 7.5C17.2473 11.7668 13.509 15 9.01555 15C4.52207 15 0.783758 11.7668 0 7.5C0.783758 3.23313 4.52207 0 9.01555 0ZM9.01555 13.3333C12.5452 13.3333 15.5655 10.8767 16.33 7.5C15.5655 4.12336 12.5452 1.66667 9.01555 1.66667C5.4858 1.66667 2.46548 4.12336 1.70095 7.5C2.46548 10.8767 5.4858 13.3333 9.01555 13.3333ZM9.01555 11.25C6.94445 11.25 5.26552 9.57108 5.26552 7.5C5.26552 5.42893 6.94445 3.75 9.01555 3.75C11.0866 3.75 12.7655 5.42893 12.7655 7.5C12.7655 9.57108 11.0866 11.25 9.01555 11.25ZM9.01555 9.58333C10.1661 9.58333 11.0989 8.65058 11.0989 7.5C11.0989 6.34942 10.1661 5.41667 9.01555 5.41667C7.86497 5.41667 6.93218 6.34942 6.93218 7.5C6.93218 8.65058 7.86497 9.58333 9.01555 9.58333Z" fill="#292B2E"/>
</svg>
