<svg width="29" height="25" viewBox="0 0 29 25" fill="none" xmlns="http://www.w3.org/2000/svg">
<path d="M24.1071 0H4.01786C2.95261 0.0011632 1.93133 0.424846 1.17809 1.17809C0.424845 1.93133 0.0011632 2.95261 0 4.01786V20.0893C0.0011632 21.1545 0.424845 22.1758 1.17809 22.9291C1.93133 23.6823 2.95261 24.106 4.01786 24.1071H24.1071C25.1724 24.106 26.1937 23.6823 26.9469 22.9291C27.7002 22.1758 28.1238 21.1545 28.125 20.0893V4.01786C28.1238 2.95261 27.7002 1.93133 26.9469 1.17809C26.1937 0.424846 25.1724 0.0011632 24.1071 0ZM19.0848 4.01786C19.6808 4.01786 20.2634 4.19459 20.759 4.52571C21.2545 4.85682 21.6408 5.32745 21.8688 5.87807C22.0969 6.4287 22.1566 7.03459 22.0403 7.61913C21.924 8.20367 21.637 8.74061 21.2156 9.16204C20.7942 9.58347 20.2572 9.87047 19.6727 9.98674C19.0882 10.103 18.4823 10.0433 17.9316 9.81526C17.381 9.58718 16.9104 9.20095 16.5793 8.7054C16.2482 8.20985 16.0714 7.62724 16.0714 7.03125C16.0723 6.2323 16.39 5.46632 16.955 4.90138C17.5199 4.33644 18.2859 4.01869 19.0848 4.01786ZM4.01786 22.0982C3.48506 22.0982 2.97408 21.8866 2.59733 21.5098C2.22058 21.1331 2.00893 20.6221 2.00893 20.0893V15.8435L7.96289 10.5513C8.53735 10.0418 9.28444 9.7705 10.0519 9.79266C10.8195 9.81482 11.5497 10.1288 12.0938 10.6705L16.1712 14.7393L8.81229 22.0982H4.01786ZM26.1161 20.0893C26.1161 20.6221 25.9044 21.1331 25.5277 21.5098C25.1509 21.8866 24.6399 22.0982 24.1071 22.0982H11.6537L19.2763 14.4756C19.816 14.0166 20.5009 13.7638 21.2093 13.7619C21.9178 13.7601 22.6039 14.0094 23.146 14.4655L26.1161 16.9403V20.0893Z" fill="black"/>
</svg>
