<svg width="13" height="13" viewBox="0 0 13 13" fill="none" xmlns="http://www.w3.org/2000/svg">
<path fill-rule="evenodd" clip-rule="evenodd" d="M0.339451 1.39284C0.345311 1.36765 0.351757 1.34303 0.359374 1.31901C0.366405 1.29498 0.374608 1.27096 0.382812 1.24752C0.437307 1.09869 0.525202 0.97154 0.638874 0.873676C0.75255 0.775821 0.89084 0.707259 1.04671 0.675037L3.24401 0.219152H3.24518C3.45906 0.174618 3.67236 0.20919 3.85341 0.305874C4.03447 0.402557 4.18214 0.56135 4.26418 0.764684L5.18883 3.05109C5.26032 3.22863 5.27438 3.41556 5.23395 3.59077C5.19411 3.76539 5.10035 3.9277 4.95737 4.0572L4.1212 4.81485C4.04679 4.88224 4.00225 4.96778 3.98585 5.05978C3.96827 5.16115 3.98409 5.27072 4.03097 5.37445C4.30051 5.96627 4.75287 6.57978 5.28727 7.11483C5.82109 7.64864 6.43283 8.09925 7.02465 8.36821C7.12954 8.41567 7.2397 8.43208 7.34049 8.41391C7.43249 8.39809 7.51804 8.35297 7.58542 8.27856L8.34307 7.44239C8.47199 7.3 8.63488 7.20625 8.8095 7.16581C8.98471 7.12538 9.17164 7.13944 9.34918 7.21093L11.6356 8.13558H11.6362C11.8389 8.21762 11.9977 8.36527 12.0944 8.54635C12.1911 8.72682 12.2257 8.9407 12.1811 9.15516L11.7246 11.3537C11.6924 11.5095 11.6239 11.6478 11.526 11.7615C11.4282 11.8752 11.301 11.9631 11.1522 12.0176C11.1317 12.0252 11.1076 12.0328 11.0807 12.041C11.0567 12.048 11.032 12.0551 11.0068 12.0609C10.1355 12.2678 9.21261 12.2361 8.28797 12.017C6.53124 11.5998 4.76221 10.5012 3.3307 9.06964C1.89919 7.63813 0.800537 5.8691 0.383369 4.11177C0.163639 3.18712 0.132603 2.26423 0.339451 1.39284ZM0.790057 1.44792C0.785369 1.46316 0.781267 1.47957 0.777165 1.49597V1.49714C0.587317 2.29698 0.617783 3.14962 0.821113 4.00856C1.21839 5.68263 2.27313 7.37546 3.64904 8.75192C5.02489 10.1272 6.71833 11.1819 8.3924 11.5792C9.25143 11.7832 10.104 11.813 10.9038 11.6232H10.905C10.9214 11.6191 10.9378 11.615 10.953 11.6103H10.9542C10.9665 11.6068 10.9812 11.6015 10.9982 11.5957C11.0755 11.5675 11.1394 11.5236 11.1874 11.4679C11.2355 11.4122 11.2695 11.3425 11.2859 11.2622L11.7417 9.06494C11.7646 8.95595 11.747 8.84872 11.699 8.75848C11.6509 8.66882 11.5712 8.595 11.4675 8.55339V8.5528L9.18171 7.62814C9.09088 7.59123 8.99654 7.5842 8.90982 7.60412C8.82251 7.62404 8.74106 7.6715 8.67543 7.74358L7.91778 8.57975C7.77891 8.73326 7.6043 8.82468 7.41796 8.8575C7.22811 8.8909 7.02711 8.86336 6.84019 8.77839C6.1968 8.486 5.53818 8.00199 4.96916 7.43301C4.40014 6.86404 3.91619 6.20483 3.62319 5.56093C3.53764 5.37284 3.50952 5.17184 3.54291 4.98258C3.57573 4.79566 3.66714 4.62103 3.82067 4.48217L4.65683 3.72452C4.72891 3.65948 4.77579 3.57744 4.79629 3.49013C4.81622 3.40282 4.80919 3.30907 4.77227 3.21825L3.84761 0.931843C3.80601 0.8293 3.73218 0.749615 3.64252 0.701553C3.55229 0.653504 3.44505 0.636511 3.33606 0.658777L1.13876 1.11466C1.05848 1.13107 0.988755 1.16506 0.933087 1.2131C0.877421 1.26115 0.833474 1.32502 0.805348 1.40237C0.799488 1.41702 0.7948 1.43225 0.790113 1.44807L0.790057 1.44792Z" fill="url(#paint0_linear_68_1815)" stroke="url(#paint1_linear_68_1815)" stroke-width="0.4"/>
<defs>
<linearGradient id="paint0_linear_68_1815" x1="6.20026" y1="0.199951" x2="6.20026" y2="12.2" gradientUnits="userSpaceOnUse">
<stop stop-color="#F26D40"/>
<stop offset="1" stop-color="#EE3F66"/>
</linearGradient>
<linearGradient id="paint1_linear_68_1815" x1="6.20026" y1="0.199951" x2="6.20026" y2="12.2" gradientUnits="userSpaceOnUse">
<stop stop-color="#F26D40"/>
<stop offset="1" stop-color="#EE3F66"/>
</linearGradient>
</defs>
</svg>
