<svg width="385" height="213" viewBox="0 0 385 213" fill="none" xmlns="http://www.w3.org/2000/svg">
<g filter="url(#filter0_f_17_220)">
<path d="M287.661 102.126C302.879 94.1768 308.454 87.8978 304.079 79.5213C298.783 69.3813 293.104 71.2249 276.147 80.0822C251.653 92.8761 211.438 126.787 212.769 127.214C214.65 127.819 263.166 114.92 287.661 102.126Z" fill="#2D5390" fill-opacity="0.3"/>
</g>
<path d="M0 0.5H362.229C367.102 0.504985 371.832 2.14265 375.665 5.15141C379.497 8.16018 382.211 12.3665 383.372 17.0984C384.533 21.8303 384.075 26.8149 382.071 31.2559C380.067 35.6969 376.632 39.3381 372.315 41.5979L45.1011 212.5" stroke="url(#paint0_linear_17_220)" stroke-opacity="0.15" stroke-dasharray="666.8 0.1"/>
<defs>
<filter id="filter0_f_17_220" x="178.737" y="38.6494" width="160.789" height="122.586" filterUnits="userSpaceOnUse" color-interpolation-filters="sRGB">
<feFlood flood-opacity="0" result="BackgroundImageFix"/>
<feBlend mode="normal" in="SourceGraphic" in2="BackgroundImageFix" result="shape"/>
<feGaussianBlur stdDeviation="17" result="effect1_foregroundBlur_17_220"/>
</filter>
<linearGradient id="paint0_linear_17_220" x1="313" y1="-35" x2="66.7091" y2="159.032" gradientUnits="userSpaceOnUse">
<stop stop-color="#052424"/>
<stop offset="1" stop-color="#052424" stop-opacity="0"/>
</linearGradient>
</defs>
</svg>
