<svg width="23" height="14" viewBox="0 0 23 14" fill="none" xmlns="http://www.w3.org/2000/svg">
<path d="M13.2088 8.278C12.7085 8.68161 12.0851 8.90175 11.4423 8.90177C10.7995 8.90179 10.1761 8.6817 9.67579 8.27812L0.148974 0.655637C0.0525264 0.832211 0.00134292 1.02994 0 1.23113V12.7686C6.74372e-07 13.0952 0.129726 13.4084 0.360639 13.6393C0.591551 13.8702 0.904736 13.9999 1.2313 13.9999H21.6533C21.9799 13.9999 22.293 13.8702 22.524 13.6393C22.7549 13.4084 22.8846 13.0952 22.8846 12.7686V1.23113C22.8832 1.02989 22.832 0.832122 22.7355 0.655518L13.2088 8.278Z" fill="#2D5390"/>
<path d="M10.246 7.56353C10.5843 7.83641 11.0059 7.98522 11.4406 7.9852C11.8753 7.98518 12.2969 7.83632 12.6353 7.5634L22.0129 0.0601541C21.8962 0.021995 21.7744 0.00171405 21.6516 0H1.22962C1.10679 0.00170886 0.984921 0.0220011 0.868164 0.0601871L10.246 7.56353Z" fill="#2D5390"/>
</svg>
